<?xml version="1.0" encoding="utf-8"?>
<!-- Generator: Adobe Illustrator 22.0.1, SVG Export Plug-In . SVG Version: 6.00 Build 0)  -->
<svg version="1.1" id="Layer_1" xmlns="http://www.w3.org/2000/svg" xmlns:xlink="http://www.w3.org/1999/xlink" x="0px" y="0px"
	 width="640px" height="480px" viewBox="0 0 640 480" style="enable-background:new 0 0 640 480;" xml:space="preserve">
<polygon style="fill:#84FFF9;" points="185,226.4 553.2,400.8 553.2,183.8 185,9.4 "/>
<g>
	<g>
		<path style="opacity:0.1;" d="M270.9,339.4c18.2,7.6,27.2,1.6,40.9-6.3c13.7-7.9,15.2-15.7,4.7-20.6c-19.8-9.3-31.1,0.1-44.8,8
			C258,328.4,260.2,335,270.9,339.4z"/>
		<path style="opacity:0.1;" d="M347.9,390.4c19.9,7.6,28.9,1.8,42.6-6.1c13.7-7.9,19.6-14.7,4.7-20.6c-14.6-5.8-29.2,0.3-42.8,8.2
			C338.7,379.8,337.1,386.3,347.9,390.4z"/>
		<radialGradient id="SVGID_1_" cx="359.3047" cy="298.963" r="13.3036" gradientUnits="userSpaceOnUse">
			<stop  offset="3.030300e-02" style="stop-color:#FEDFCB"/>
			<stop  offset="0.7778" style="stop-color:#F9B69E"/>
			<stop  offset="0.9949" style="stop-color:#F2A78C"/>
		</radialGradient>
		<path style="fill:url(#SVGID_1_);" d="M350.1,293.6c-0.2,3-1.4,5.9-2.2,7.6c-0.9,1.9-1.2,4.1-2.2,3.8c-1-0.4,0.3-9.2,0.3-9.2
			L350.1,293.6z"/>
		<path style="fill:#10054D;" d="M397.3,372.2c0,0,1,3.8,0.2,5.5c-0.8,1.6-4.3,2.9-7.2,1.5c-2.8-1.4-4.1-4.3-5.2-5.1
			c-1.1-0.8-7.2-1.5-11.7-5.3c-4.5-3.8-3.9-8.1,0.6-8.2c4.5-0.1,12.8,2,15.7,3.9C392.7,366.5,397.3,372.2,397.3,372.2z"/>
		<linearGradient id="SVGID_2_" gradientUnits="userSpaceOnUse" x1="384.4464" y1="370.9427" x2="384.4464" y2="355.8178">
			<stop  offset="9.090910e-02" style="stop-color:#25054D"/>
			<stop  offset="0.4708" style="stop-color:#330A68"/>
			<stop  offset="0.8939" style="stop-color:#45108A"/>
		</linearGradient>
		<path style="fill:url(#SVGID_2_);" d="M395.1,376.3c-3.3,0.7-7.4-2.2-9.3-3.8c-1.9-1.6-5.3-0.8-9.7-4.2c-4.4-3.5-5.9-5.8-3.9-7
			c2-1.2,9.3-0.8,15,2.3c5.7,3.1,9.5,5.3,9.5,5.3s1.4,4.2,0.7,5.2C396.7,374.9,397,375.9,395.1,376.3z"/>
		<linearGradient id="SVGID_3_" gradientUnits="userSpaceOnUse" x1="376.345" y1="327.403" x2="399.0956" y2="327.403">
			<stop  offset="3.535350e-02" style="stop-color:#138BBD"/>
			<stop  offset="0.2257" style="stop-color:#169AC7"/>
			<stop  offset="0.5946" style="stop-color:#1FC3DF"/>
			<stop  offset="1" style="stop-color:#2AF6FF"/>
		</linearGradient>
		<path style="fill:url(#SVGID_3_);" d="M395.2,279.3c0,0,2.4,10.4,0.8,23.5c-1.6,13.2,0.9,39.6,1.5,48.9c0.6,9.3,3.8,20.8-0.9,23.2
			c-2.7,1.4-7.6,0.6-11.4-3.8c-3.8-4.4-4.6-8.7-4.2-9.5c0.5-0.8,1.2-4.4-0.3-12.1c-1.5-7.7-4.5-26.5-4.3-32.7
			c0.2-6.1,2.4-34.9,2.4-34.9L395.2,279.3z"/>
		<path style="opacity:0.3;" d="M376.4,316.9c-0.2,6.1,2.8,24.9,4.3,32.7c1.5,7.7,0.8,11.3,0.3,12.1c-0.5,0.8,0.3,5.1,4.2,9.5
			c1.5,1.7,3.1,2.9,4.8,3.6c-1.6-3.1-4.1-9.5-4.1-20.1c0-15.9-3.3-36.2-3.8-47.3c-0.3-6.5,1.2-18.8,1.2-26.6l-4.5,1.3
			C378.8,282,376.6,310.8,376.4,316.9z"/>
		
			<radialGradient id="SVGID_4_" cx="-96.4905" cy="572.5458" r="17.1225" gradientTransform="matrix(0.997 7.750000e-02 -7.750000e-02 0.997 487.2328 -336.5371)" gradientUnits="userSpaceOnUse">
			<stop  offset="3.030300e-02" style="stop-color:#FEDFCB"/>
			<stop  offset="0.7778" style="stop-color:#F9B69E"/>
			<stop  offset="0.9949" style="stop-color:#F2A78C"/>
		</radialGradient>
		<path style="fill:url(#SVGID_4_);" d="M349,211.4c0,0-9.9-1-13.8,0.9c-3.9,1.9-10.3,8.1-10.3,10.1c0,1.8,5.3,4.1,8.5,3.2
			c3.2-0.9,3.6-1.4,6.2-1.9c2.6-0.5,7.8-2.2,9.7-3.2C351.1,219.4,349,211.4,349,211.4z"/>
		<path style="fill:#10054D;" d="M292.2,307l-1.3,7.5c0,0,3.7,2.2,5.4,2.7c1.7,0.5,4.5-0.5,5.8,1.2c1.4,1.8,7.1,6.3,11.8,7.2
			c5.1,1,8.6-0.6,8.7-2.1c0.1-1.5-1.2-3.8-5.8-6.8c-4.6-3-8.5-10.3-8.5-10.3L292.2,307z"/>
		<linearGradient id="SVGID_5_" gradientUnits="userSpaceOnUse" x1="291.7869" y1="315.3718" x2="322.0392" y2="315.3718">
			<stop  offset="9.090910e-02" style="stop-color:#25054D"/>
			<stop  offset="0.4708" style="stop-color:#330A68"/>
			<stop  offset="0.8939" style="stop-color:#45108A"/>
		</linearGradient>
		<path style="fill:url(#SVGID_5_);" d="M291.9,311.8c0.7,0.8,9.2,2.8,10.6,4.6c1.6,2,9.5,6.9,13.5,7.6c3.6,0.6,6.4-1.2,6.1-2.6
			c-0.5-2-3.8-3.8-6.8-6.1c-2.9-2.2-6.1-7.4-6.1-7.4l-17.4-1.2L291.9,311.8z"/>
		<path style="fill:#10054D;" d="M267.3,320.6l-0.2,6.9l3.2,3.2l1-0.4c0,0,2.1,5.1,8.1,9c5.2,3.4,11.5,2.6,13.1,1.3
			c1.5-1.2,1.5-2.4-2.3-7.5c-3.8-5.2-9.4-12.6-9.4-12.6L267.3,320.6z"/>
		<linearGradient id="SVGID_6_" gradientUnits="userSpaceOnUse" x1="267.4892" y1="330.7128" x2="292.8014" y2="330.7128">
			<stop  offset="9.090910e-02" style="stop-color:#25054D"/>
			<stop  offset="0.4708" style="stop-color:#330A68"/>
			<stop  offset="0.8939" style="stop-color:#45108A"/>
		</linearGradient>
		<path style="fill:url(#SVGID_6_);" d="M267.7,324.6c0,0,5.6,5.2,7.5,8.2c2.9,4.6,10.6,8.1,15.7,6.4c5.1-1.7-1.8-7-3.2-9.3
			c-1.4-2.3-5.3-8.1-5.3-8.1l-15-0.2L267.7,324.6z"/>
		<linearGradient id="SVGID_7_" gradientUnits="userSpaceOnUse" x1="291.2032" y1="267.7534" x2="311.0583" y2="267.7534">
			<stop  offset="3.535350e-02" style="stop-color:#6B24D6"/>
			<stop  offset="0.2945" style="stop-color:#7733DC"/>
			<stop  offset="0.7943" style="stop-color:#975CED"/>
			<stop  offset="1" style="stop-color:#A56EF4"/>
		</linearGradient>
		<path style="fill:url(#SVGID_7_);" d="M309.6,221.6c0,0,1.6,33.1,1.3,41.1s-4.8,28.7-4,32.4c0.8,3.7,2.5,6.9,3,9.2
			c0.5,2.3,1.1,5.5,1.1,5.5s-5,4.7-10.6,4c-5.7-0.7-8.6-1.7-9.1-3.1c-0.5-1.4,0.8-37.5,0.8-37.5l-0.8-46.8L309.6,221.6z"/>
		<path style="opacity:0.3;" d="M295.9,303.7c-0.8-9.2,1.9-20.7,4.7-33.1c2.4-10.5,1.1-36,0.7-43.8l-9.8,2.6l0.6,43.9
			c0,0-1.3,36.1-0.8,37.5c0.5,1.3,3.2,2.3,8.4,3C298,310.6,296.2,306.5,295.9,303.7z"/>
		<linearGradient id="SVGID_8_" gradientUnits="userSpaceOnUse" x1="266.284" y1="274.799" x2="293.9264" y2="274.799">
			<stop  offset="3.535350e-02" style="stop-color:#6B24D6"/>
			<stop  offset="0.2945" style="stop-color:#7733DC"/>
			<stop  offset="0.7943" style="stop-color:#975CED"/>
			<stop  offset="1" style="stop-color:#A56EF4"/>
		</linearGradient>
		<path style="fill:url(#SVGID_8_);" d="M293.9,223.8c0,0-2.3,26.3-2.8,38c-0.6,11.7-3.5,28-5,34.2c-1.5,6.1-3.2,14.8-2.8,19
			c0.5,4.3,2.4,7.6-0.1,9.5c-2.5,1.8-11.1,2.9-13.2,1.8c-2.1-1-3.8-0.8-3.8-5s0.6-27.6,2.2-36.9c1.6-9.3-1-42.1-1-46.3
			c-0.1-9.8,3.7-15.2,3.7-15.2L293.9,223.8z"/>
		<linearGradient id="SVGID_9_" gradientUnits="userSpaceOnUse" x1="290.4441" y1="175.258" x2="309.2775" y2="161.4247">
			<stop  offset="3.535350e-02" style="stop-color:#9D9EB3"/>
			<stop  offset="0.5808" style="stop-color:#D4D1D8"/>
			<stop  offset="1" style="stop-color:#EEEBF2"/>
		</linearGradient>
		<path style="fill:url(#SVGID_9_);" d="M288.3,142.6c-4.2,1.2-9.3,0.8-4.8,11.5c4.5,10.7,20.8,47.3,20.8,47.3s5.5-13.3,4.7-24.8
			c-0.8-11.5-7.7-31.3-7.7-31.3L288.3,142.6z"/>
		<linearGradient id="SVGID_10_" gradientUnits="userSpaceOnUse" x1="296.6518" y1="180.1966" x2="307.9851" y2="173.1966">
			<stop  offset="3.535350e-02" style="stop-color:#9F19AB"/>
			<stop  offset="0.2438" style="stop-color:#AE25B1"/>
			<stop  offset="0.6455" style="stop-color:#D744BF"/>
			<stop  offset="1" style="stop-color:#FF63CE"/>
		</linearGradient>
		<path style="fill:url(#SVGID_10_);" d="M296.5,155.7l1.8-0.8l1.2,1.2l-0.5,2.5c0,0,4.9,9.6,6.8,15.5c1.8,5.8,2.2,13.8,1.5,17.5
			c-0.7,3.7-4.1,9.1-4.1,9.1s-2.5-17.7-3.2-21.9c-0.8-4.2-3.2-19.3-3.2-19.3l-1.8-1.1L296.5,155.7z"/>
		<linearGradient id="SVGID_11_" gradientUnits="userSpaceOnUse" x1="296.9567" y1="187.0471" x2="331.1232" y2="188.0471">
			<stop  offset="3.535350e-02" style="stop-color:#6B24D6"/>
			<stop  offset="0.2945" style="stop-color:#7733DC"/>
			<stop  offset="0.7943" style="stop-color:#975CED"/>
			<stop  offset="1" style="stop-color:#A56EF4"/>
		</linearGradient>
		<path style="fill:url(#SVGID_11_);" d="M297.1,143c0,0,5.2-0.6,9.1,2.9c2.8,2.5,4.4,5.8,5.2,12.3c0.8,5.7-0.3,18.5,0,21.7
			c0.2,3.2,1.3,23.7,1.8,30c0.6,6.3,2.5,13.6-1,17.2c-3.6,3.6-7.4,5.4-8.3,3.3c-0.9-2.1-3.7-20.7-2.2-26.2
			c1.5-5.5,5.7-16.8,5.4-23.7c-0.2-6.8-3.2-25-5.2-28.6C300,148.5,297.1,143,297.1,143z"/>
		<path style="opacity:0.3;" d="M309.8,169.1c-0.5-6.3-0.6-11.2-0.6-11.2l-2.4-1.3l1.6-2.9c0,0-2.9-1.7-3.9-3.9
			c-0.9-1.9-3.1-4.4-4.9-6.7l0,0c-1.4-0.1-2.4,0.1-2.4,0.1s2.9,5.4,4.8,9c2,3.6,5,21.8,5.2,28.6c0.1,4.2-1.4,10.1-2.9,15.3
			c0.7-1.6,2.1-5.1,2.4-6C308.2,184.6,310.3,175.4,309.8,169.1z"/>
		<linearGradient id="SVGID_12_" gradientUnits="userSpaceOnUse" x1="297.0954" y1="169.4675" x2="309.3339" y2="169.4675">
			<stop  offset="3.535350e-02" style="stop-color:#6B24D6"/>
			<stop  offset="0.2945" style="stop-color:#7733DC"/>
			<stop  offset="0.7943" style="stop-color:#975CED"/>
			<stop  offset="1" style="stop-color:#A56EF4"/>
		</linearGradient>
		<path style="fill:url(#SVGID_12_);" d="M309.3,168.4c-0.5-6.3-0.6-11.2-0.6-11.2l-2.8-0.8l2-3.7c0,0-2.2-0.8-3.2-2.9
			c-0.9-2-2.6-5.1-5.1-6.9l0,0c-1.4-0.1-2.4,0.1-2.4,0.1s2.9,5.4,4.8,9c2,3.6,5,21.8,5.2,28.6c0.1,4.2-1.4,10.1-2.9,15.3
			c0.7-1.6,2.1-5.1,2.4-6C308.2,184.6,309.7,174.7,309.3,168.4z"/>
		<path style="opacity:0.3;" d="M271.1,222.9c0,0-3.8,5.4-3.7,15.2c0,4.2,2.7,36.9,1,46.3c-1.6,9.3-2.2,32.8-2.2,36.9s1.7,3.9,3.8,5
			c0.8,0.4,2.6,0.5,4.6,0.3c-1.6-2.8-3.3-7.1-3.8-13.5c-1-13.3,3.8-28.2,3.2-40.3c-0.6-10.8-0.9-35,0.9-49.4L271.1,222.9z"/>
		<path style="opacity:0.3;" d="M298.7,144.8l-10.3-2.2c-3.2,0.9-7,0.9-6.5,5.8c2.2,3.8,5,8.3,6.8,10c3.3,3.2,5.7,6.2,5.7,6.2
			l3-10.6l5.1,6.9c0,0,0.3-6.1-0.2-8.1C301.9,151.7,300.3,148.1,298.7,144.8z"/>
		<linearGradient id="SVGID_13_" gradientUnits="userSpaceOnUse" x1="278.2139" y1="159.3928" x2="297.9638" y2="148.9553">
			<stop  offset="3.535350e-02" style="stop-color:#9D9EB3"/>
			<stop  offset="0.5808" style="stop-color:#D4D1D8"/>
			<stop  offset="1" style="stop-color:#EEEBF2"/>
		</linearGradient>
		<path style="fill:url(#SVGID_13_);" d="M298.7,144.8l-10.3-2.2c-3.2,0.9-7,0.9-6.5,5.8c2.2,3.8,5,8.3,6.8,10
			c3.3,3.2,5.5,4.6,5.5,4.6l3.2-9.1l4.9,5.4c0,0,0.5-4.5,0-6.5C301.9,151.7,300.3,148.1,298.7,144.8z"/>
		<linearGradient id="SVGID_14_" gradientUnits="userSpaceOnUse" x1="263.6907" y1="194.9973" x2="311.504" y2="186.4109">
			<stop  offset="3.535350e-02" style="stop-color:#6B24D6"/>
			<stop  offset="0.2945" style="stop-color:#7733DC"/>
			<stop  offset="0.7943" style="stop-color:#975CED"/>
			<stop  offset="1" style="stop-color:#A56EF4"/>
		</linearGradient>
		<path style="fill:url(#SVGID_14_);" d="M284.7,142.9c0,0-3.2,1-1.5,5.6c1.8,4.6,8.8,12.4,13.3,23c4.5,10.6,7.6,21.8,7.3,34.7
			c-0.3,12.8-1.2,24.4-4.2,27.5c-3.3,3.4-13.3,7.3-23.9,5.5c-10.6-1.8-13.7-5.9-12.5-8.5c1.2-2.5,7.4-29,7.8-32.9
			c0.5-3.9-3.2-14.4-4.4-18.5c-1.2-4.2-3.2-12.5-1.7-17.2c1.5-4.6,4.1-5.2,6.8-7.9c1.7-1.8,4.4-4.4,7.5-7.1
			C281,145.6,282.6,143.5,284.7,142.9z"/>
		<path style="opacity:0.3;" d="M296.6,171.5c-4.5-10.6-11.5-18.4-13.3-23c-1.5-3.9,0.6-5.2,1.3-5.5c0,0,0,0,0,0
			c-1.9,0.6-3.6,1.7-5.2,3c-0.4,3.1-0.6,3.8,0.7,9.3c1.4,5.8,1,8.2,1,8.2l3.9,0.8v3.8c0,0,1.7-1.4,6.9,6.9c5.2,8.4,9,12.7,11.7,22.8
			C302.7,188.4,300.1,179.8,296.6,171.5z"/>
		<linearGradient id="SVGID_15_" gradientUnits="userSpaceOnUse" x1="273.518" y1="179.0858" x2="294.8514" y2="170.0858">
			<stop  offset="3.535350e-02" style="stop-color:#6B24D6"/>
			<stop  offset="0.2945" style="stop-color:#7733DC"/>
			<stop  offset="0.7943" style="stop-color:#975CED"/>
			<stop  offset="1" style="stop-color:#A56EF4"/>
		</linearGradient>
		<path style="fill:url(#SVGID_15_);" d="M296.6,171.5c-4.5-10.6-11.5-18.4-13.3-23c-1.5-3.9,0.6-5.2,1.3-5.5c0,0,0,0,0,0
			c-1.9,0.6-3.6,1.7-5.2,3c-0.4,3.1-0.6,3.8,0.7,9.3c1.4,5.8,1.8,7.2,1.8,7.2l3.9,0.8v3.8c0,0,2.7-0.3,7.5,8.3
			c4.5,8,7.6,12.5,10.4,22.6C302.7,188.4,300.1,179.8,296.6,171.5z"/>
		<radialGradient id="SVGID_16_" cx="281.0654" cy="175.5377" r="17.514" gradientUnits="userSpaceOnUse">
			<stop  offset="0" style="stop-color:#FFFFFF"/>
			<stop  offset="1" style="stop-color:#000000"/>
		</radialGradient>
		<path style="fill:url(#SVGID_16_);" d="M293.5,175.2c-4.8-8.6-7.5-8.6-7.5-8.6v-3.8l-3.9-0.8c0,0-0.4-1.3-1.8-7.2
			c-1.3-5.3-1-6.3-0.6-9.1c-0.1,0.1-0.3,0.2-0.4,0.3c-0.4,3.1-0.6,3.8,0.7,9.3c1.4,5.8,1.8,7.2,1.8,7.2l3.9,0.8v3.8
			c0,0,2.7-0.3,7.5,8.3c4.5,8,7.6,12.5,10.4,22.6c-0.1-1.2-0.3-1.9-0.5-3C300.6,186.8,297.6,182.4,293.5,175.2z"/>
		<path style="opacity:0.3;" d="M272.4,210.5c0,0,3.2,1.3,6.6,2.3c3.4,1,7.5,2.1,7.5,2.1s0,5-2,5.1c-2,0.1-12.2-2.6-12.8-3.8
			C271,214.9,272.4,210.5,272.4,210.5z"/>
		<linearGradient id="SVGID_17_" gradientUnits="userSpaceOnUse" x1="267.2412" y1="215.8315" x2="288.2412" y2="213.8315">
			<stop  offset="3.535350e-02" style="stop-color:#6B24D6"/>
			<stop  offset="0.2945" style="stop-color:#7733DC"/>
			<stop  offset="0.7943" style="stop-color:#975CED"/>
			<stop  offset="1" style="stop-color:#A56EF4"/>
		</linearGradient>
		<path style="fill:url(#SVGID_17_);" d="M272.4,210.5c0,0,3.2,1.3,6.6,2.3c3.4,1,7.5,2.1,7.5,2.1s-0.3,4.1-2.3,4.2
			c-2,0.1-12.2-2.6-12.8-3.8C270.7,214,272.4,210.5,272.4,210.5z"/>
		<linearGradient id="SVGID_18_" gradientUnits="userSpaceOnUse" x1="313.9471" y1="213.2014" x2="320.7324" y2="213.2014">
			<stop  offset="3.535350e-02" style="stop-color:#6B24D6"/>
			<stop  offset="0.2945" style="stop-color:#7733DC"/>
			<stop  offset="0.7943" style="stop-color:#975CED"/>
			<stop  offset="1" style="stop-color:#A56EF4"/>
		</linearGradient>
		<path style="fill:url(#SVGID_18_);" d="M320.7,206.6c0,0,0.3,3.7-1.5,7.1c-1.8,3.4-5.2,6.2-5.2,6.2s-0.5-7,1.3-9.6
			C317.2,207.6,320.7,206.6,320.7,206.6z"/>
		<radialGradient id="SVGID_19_" cx="335.8848" cy="210.8597" r="20.6736" gradientUnits="userSpaceOnUse">
			<stop  offset="3.030300e-02" style="stop-color:#FEDFCB"/>
			<stop  offset="1" style="stop-color:#F9B69E"/>
		</radialGradient>
		<path style="fill:url(#SVGID_19_);" d="M318.5,206.9c0,0,2.3,1.8,4.1,2c1.8,0.2,7.7-0.1,9.6,0.6c1.8,0.6,7.6,2.4,7.7,3.9
			c0.2,1.5-2,0.5-3.6,0.3c-1.7-0.2-4.4-0.4-4.4-0.4s3.4,3.5,5.5,4.7c2.1,1.2,5.5,1.8,6,3s-0.2,2.3-1.9,3.5c-2.6,1.8-4.7,1.2-6.9,1.3
			c-3.8,0.1-8.3-1.4-10.1-2.9c-1.8-1.5-6.8-5.4-7.9-6.1c-1.1-0.7-5.2-2.2-5.2-2.2l6.8-7.8L318.5,206.9z"/>
		<radialGradient id="SVGID_20_" cx="341.4264" cy="201.5923" r="32.1129" gradientUnits="userSpaceOnUse">
			<stop  offset="3.030300e-02" style="stop-color:#FEDFCB"/>
			<stop  offset="0.7778" style="stop-color:#F9B69E"/>
			<stop  offset="0.9949" style="stop-color:#F2A78C"/>
		</radialGradient>
		<path style="fill:url(#SVGID_20_);" d="M341.5,224.4c1.7-1.2,2.4-2.3,1.9-3.5c-0.1-0.2-0.3-0.4-0.5-0.6c-1.4,1.8-5.9,2.7-8.8,2.1
			c-3-0.7-10.8-5.9-13-8c-1.2-1.1-4.9-2.5-8.3-3.6l-1.4,3.7c0,0,4.1,1.5,5.2,2.2c1.1,0.7,6.2,4.6,7.9,6.1c1.8,1.5,6.2,3,10.1,2.9
			C336.8,225.6,338.9,226.2,341.5,224.4z"/>
		<path style="opacity:0.3;" d="M278.7,225.7c0.1-8.5,5.6-19.2,8.2-25.6s-0.8-25.6-4.8-34c-3.3-6.8-12.7-4.4-17.5-2.3
			c-0.7,4.8,1,11.8,2.1,15.4c1.2,4.2,4.8,14.6,4.4,18.5c-0.5,3.9-6.7,30.4-7.8,32.9c-1.2,2.5,1.9,6.6,12.5,8.5
			c1.8,0.3,3.6,0.5,5.4,0.5C280.1,236.4,278.6,231.1,278.7,225.7z"/>
		<linearGradient id="SVGID_21_" gradientUnits="userSpaceOnUse" x1="238.0386" y1="191.2743" x2="310.8361" y2="187.7242">
			<stop  offset="3.535350e-02" style="stop-color:#6B24D6"/>
			<stop  offset="0.2945" style="stop-color:#7733DC"/>
			<stop  offset="0.7943" style="stop-color:#975CED"/>
			<stop  offset="1" style="stop-color:#A56EF4"/>
		</linearGradient>
		<path style="fill:url(#SVGID_21_);" d="M267.7,158.1c-4.5,1.4-4.7,10.1-1.9,16.4c1.8,4.1,6.2,13.4,7.7,17.4c1.5,4,4,12.2,8.3,14.5
			c4.3,2.3,15.6,6.1,20.1,8c4.5,1.9,12.2,5.4,12.2,5.4s1.3-5.3,3.2-8.6c1.9-3.3,3.5-4.6,3.5-4.6s-15.2-7.2-20.5-10.1
			c-5.2-2.9-7.9-4.5-9.1-7.2c-1.2-2.7-4.9-14.3-6.1-17.2C282,164.9,278.3,154.7,267.7,158.1z"/>
		<path style="fill:#10054D;" d="M373.1,385.9c0,0,1.7,5-0.4,6.1c-2.1,1.1-5.3,1.7-7.9,0.5c-2.6-1.2-3.7-2.3-6.5-2.3
			c-2.8,0-13.5-5.3-15.6-7.9c-2.1-2.6,0-5.6,5.2-5.2c5.2,0.4,12.5,1,13.8,1.5C363,378.9,373.1,385.9,373.1,385.9z"/>
		<linearGradient id="SVGID_22_" gradientUnits="userSpaceOnUse" x1="356.6417" y1="387.7302" x2="362.641" y2="370.1071">
			<stop  offset="9.090910e-02" style="stop-color:#25054D"/>
			<stop  offset="0.4708" style="stop-color:#330A68"/>
			<stop  offset="0.8939" style="stop-color:#45108A"/>
		</linearGradient>
		<path style="fill:url(#SVGID_22_);" d="M370.8,389.5c-4.8,0.6-6.4-0.8-10.8-1.7c-4.5-0.9-17.2-6.1-16.9-8.9c0.2-2.8,3.1-2.2,5.6-2
			c2.5,0.2,10.3,0.8,10.9,0.8c0.6,0,13.4,5.8,13.4,5.8s0.9,4.2,0.1,4.8C372.2,388.9,372.1,389.4,370.8,389.5z"/>
		<linearGradient id="SVGID_23_" gradientUnits="userSpaceOnUse" x1="352.3694" y1="334.3514" x2="381.4827" y2="334.3514">
			<stop  offset="3.535350e-02" style="stop-color:#138BBD"/>
			<stop  offset="0.2257" style="stop-color:#169AC7"/>
			<stop  offset="0.5946" style="stop-color:#1FC3DF"/>
			<stop  offset="1" style="stop-color:#2AF6FF"/>
		</linearGradient>
		<path style="fill:url(#SVGID_23_);" d="M380.2,282.7c0,0,2.9,6.2,0.1,17s-6,23.4-6.1,37c-0.1,13.6,1.5,48.8-0.6,50.8
			c-2.1,2-9.4,2.6-12.3,0.5c-4.8-3.5-7.4-8.5-6.9-10.3c0.5-1.7,4.2-8,2.9-13.5c-1.3-5.5-5.5-24.7-4.7-37.7c0.8-13,3-47.1,3-47.1
			L380.2,282.7z"/>
		<radialGradient id="SVGID_24_" cx="366.4264" cy="188.1094" r="20.2656" gradientUnits="userSpaceOnUse">
			<stop  offset="3.030300e-02" style="stop-color:#FEDFCB"/>
			<stop  offset="1" style="stop-color:#F9B69E"/>
		</radialGradient>
		<path style="fill:url(#SVGID_24_);" d="M368.4,175.1c-3.1,1.5-6.2,4-6.3,11.7c-0.2,7.7-0.2,11.4,1.3,12.4c1.5,1,2.7,0,3,2.2
			c0.3,2.2-0.3,5.7-0.3,5.7l16.8-3.8c0,0-1.2-2.7-0.1-5.5c1.1-2.8,5.9-8.2,2.2-16.1C381.3,173.8,372,173.3,368.4,175.1z"/>
		<linearGradient id="SVGID_25_" gradientUnits="userSpaceOnUse" x1="383.0425" y1="199.3908" x2="369.3759" y2="175.2242">
			<stop  offset="3.535350e-02" style="stop-color:#602213"/>
			<stop  offset="0.571" style="stop-color:#6D310E"/>
			<stop  offset="1" style="stop-color:#7A4108"/>
		</linearGradient>
		<path style="fill:url(#SVGID_25_);" d="M361.9,181.6c-0.1,1.5,0.8,3.8,2.9,4c2.1,0.2,3.1,2.6,2.6,3.8c-0.5,1.2-0.2,1.5-0.2,1.5
			s1.5-0.6,2.2,0.6c0.7,1.2-0.2,3.8-0.7,4.8s3,4.1,5.8,4.3s6.7-0.1,7.9-1.5c1.2-1.5,5.8-6.4,4.2-14.2c-1.6-7.8-8.8-12.5-15.5-11.2
			C364.5,174.9,362,179.5,361.9,181.6z"/>
		<linearGradient id="SVGID_26_" gradientUnits="userSpaceOnUse" x1="345.9231" y1="213.2184" x2="399.7922" y2="213.2184">
			<stop  offset="3.535350e-02" style="stop-color:#138BBD"/>
			<stop  offset="0.2257" style="stop-color:#169AC7"/>
			<stop  offset="0.5946" style="stop-color:#1FC3DF"/>
			<stop  offset="1" style="stop-color:#2AF6FF"/>
		</linearGradient>
		<path style="fill:url(#SVGID_26_);" d="M347.7,210.8c0,0-2.1,1.6-1.7,4.5c0.4,2.9,3.2,7.4,3.2,7.4l29.2-1.6c0,0,22.5-1,21.5-10.1
			c-1-8.7-6.9-8.3-19.9-5c-13,3.4-18.1,3.9-22.3,4.3C353.3,210.7,347.7,210.8,347.7,210.8z"/>
		<linearGradient id="SVGID_27_" gradientUnits="userSpaceOnUse" x1="376.5031" y1="211.1191" x2="372.2532" y2="203.5775">
			<stop  offset="3.535350e-02" style="stop-color:#9D9EB3"/>
			<stop  offset="0.5808" style="stop-color:#D4D1D8"/>
			<stop  offset="1" style="stop-color:#EEEBF2"/>
		</linearGradient>
		<path style="fill:url(#SVGID_27_);" d="M363.3,211.3c0,0,1.8-6.3,5.6-7.1s7.1-0.3,9.6-1.5c2.5-1.2,3.9-3.3,3.9-3.3
			s2.9,0.8,0.8,3.4C381,205.5,363.3,211.3,363.3,211.3z"/>
		<path style="opacity:0.3;" d="M347.3,219.3c1.1,2.2,1.8,3.4,1.8,3.4l29.2-1.6c0,0,22.4-1,21.5-10.1c-5.4,1.3-18.9,6.9-31.3,7.5
			C357.2,219.1,350.3,219.3,347.3,219.3z"/>
		<path style="opacity:0.3;" d="M364.2,280.6l-8.7-1.2c0,0-2.2,34-3,47.1c-0.8,13,3.5,32.2,4.7,37.7c1.3,5.5-2.4,11.8-2.9,13.5
			c-0.4,1.6,1.7,5.9,5.7,9.3c-0.6-7.3,0-14.9,0.4-20.1c0.5-6-4-27.8-2.8-40.8C358.8,314.9,363.1,287.5,364.2,280.6z"/>
		<linearGradient id="SVGID_28_" gradientUnits="userSpaceOnUse" x1="351.489" y1="249.7162" x2="402.5351" y2="249.7162">
			<stop  offset="3.535350e-02" style="stop-color:#138BBD"/>
			<stop  offset="0.2257" style="stop-color:#169AC7"/>
			<stop  offset="0.5946" style="stop-color:#1FC3DF"/>
			<stop  offset="1" style="stop-color:#2AF6FF"/>
		</linearGradient>
		<path style="fill:url(#SVGID_28_);" d="M377.3,205.4c3.5-1.2,7.1-3.3,7.1-3.3s5.3-0.1,8.4,0.4c3.1,0.5,7.8,3.3,7.5,9.1
			c-0.3,5.8-1.6,13.2-3.5,21.2c-1.9,8.1-1.8,13.9-0.4,22c1.5,8.1,6.5,25.8,6.2,27.7c-0.4,1.9-4.8,8.8-14.8,12.3
			c-10.1,3.5-26.8,4.4-33.6-3.4c-6.8-7.8,2-34.5,2.4-47.6c0.4-13.1-4.4-18.6,1.2-25.3c5.5-6.8,11.8-10.8,15.3-11.8
			C376.4,205.8,377.3,205.4,377.3,205.4z"/>
		<path style="opacity:0.3;" d="M362.8,211.8c1.6-2.2,4.8-5.1,7.8-5.5c3-0.4,8.8-1.6,10.7-3c2.2-1.6,2.5-3,2.5-3l4.5,1.7
			c0,0,0.4,5.4-5.9,7.3c-6.3,1.9-13.4,1.8-18,4.5c-4.3,2.5-7,5-7,5L362.8,211.8z"/>
		<linearGradient id="SVGID_29_" gradientUnits="userSpaceOnUse" x1="364.8061" y1="231.4617" x2="377.3062" y2="199.2949">
			<stop  offset="3.535350e-02" style="stop-color:#138BBD"/>
			<stop  offset="0.2257" style="stop-color:#169AC7"/>
			<stop  offset="0.5946" style="stop-color:#1FC3DF"/>
			<stop  offset="1" style="stop-color:#2AF6FF"/>
		</linearGradient>
		<path style="fill:url(#SVGID_29_);" d="M362.8,211.8c1.6-2.2,4.8-5.1,7.8-5.5c3-0.4,8.8-1.6,10.7-3c2.2-1.6,2.5-3,2.5-3l4.5,1.7
			c0,0-0.1,4.4-6.4,6.3c-6.3,1.9-14.5,2.5-18.5,5.5c-4,3-6,5-6,5L362.8,211.8z"/>
		<radialGradient id="SVGID_30_" cx="374.2626" cy="212.2882" r="12.4629" gradientUnits="userSpaceOnUse">
			<stop  offset="0" style="stop-color:#FFFFFF"/>
			<stop  offset="1" style="stop-color:#000000"/>
		</radialGradient>
		<path style="fill:url(#SVGID_30_);" d="M387.9,201.8c-0.1,0.9-0.9,4.4-6.4,6.1c-6.3,1.9-14.5,2.5-18.5,5.5
			c-1.5,1.1-2.7,2.1-3.7,2.9l-1.9,2.5c0,0,2-2,6-5c4-3,12.2-3.5,18.5-5.5c6.3-1.9,6.4-6.3,6.4-6.3L387.9,201.8z"/>
		<radialGradient id="SVGID_31_" cx="305.6139" cy="135.2552" r="22.6643" gradientUnits="userSpaceOnUse">
			<stop  offset="3.030300e-02" style="stop-color:#FEDFCB"/>
			<stop  offset="1" style="stop-color:#F9B69E"/>
		</radialGradient>
		<path style="fill:url(#SVGID_31_);" d="M284.9,141.3l-1.3,2.8c0,0,3.9,6.5,6.8,8.3c2.9,1.8,6.4,3.9,7.4,2.5c1-1.5,2.1-5.5,2.1-5.5
			L284.9,141.3z"/>
		<radialGradient id="SVGID_32_" cx="301.6139" cy="135.4428" r="24.1755" gradientUnits="userSpaceOnUse">
			<stop  offset="3.030300e-02" style="stop-color:#FEDFCB"/>
			<stop  offset="1" style="stop-color:#F9B69E"/>
		</radialGradient>
		<path style="fill:url(#SVGID_32_);" d="M284.7,142.9l1.6,0.1c0,0,4.9,5.7,7.9,6.9c3,1.2,5.9,1.4,7.2-0.7
			c1.3-2.1,3.2-14.8,2.2-19.8c-1.1-5-8.2-14.5-18.5-7.6c-10.3,6.8-3,18.9-2.6,19.3C282.9,141.5,284.7,142.9,284.7,142.9z"/>
		<linearGradient id="SVGID_33_" gradientUnits="userSpaceOnUse" x1="278.8688" y1="129.9486" x2="304.2914" y2="129.9486">
			<stop  offset="3.535350e-02" style="stop-color:#602213"/>
			<stop  offset="0.571" style="stop-color:#6D310E"/>
			<stop  offset="1" style="stop-color:#7A4108"/>
		</linearGradient>
		<path style="fill:url(#SVGID_33_);" d="M282.6,141.3c0,0-1.5-3.4-0.2-4.4c0.2-0.1,0.4-0.2,0.6-0.3c0.7-0.2,1.6,0.1,2.1,0.6
			l1.4,1.6c0,0,0.2-1.6,1-4.7c0.5-2,2.9-3.7,8-3.2c2.7,0.2,6.1,1.6,7.9,0.2c1.8-1.5,0.4-4.6-0.5-6.2c-0.9-1.5-9.6-10.5-18.8-3.9
			S280.1,138.9,282.6,141.3z"/>
		<path style="opacity:0.3;" d="M369.9,223.2c-4.3-6.4-10.6-1.3-15,3.1c0.1,4.3,1.8,9.5,1.5,17.5c-0.4,13.1-9.1,39.8-2.4,47.6
			c3.3,3.8,8.9,5.5,14.9,5.9c-0.5-3-1-6.6-1.2-10.6c-0.5-11.2,2.9-17.5,4.2-32.6C373.4,238.9,375.6,231.6,369.9,223.2z"/>
		<path style="opacity:0.3;" d="M386.8,185.5c-1.4,1.2-3.8,2.5-7.9,3.3c-4.3,0.8-8.5,0.1-11.5-0.7c0.1,0.5,0.1,0.9,0,1.3
			c-0.5,1.2-0.2,1.5-0.2,1.5s1.5-0.6,2.2,0.6c0.7,1.2-0.2,3.8-0.7,4.8c-0.5,1,3,4.1,5.8,4.3c2.8,0.2,6.7-0.1,7.9-1.5
			C383.8,197.6,388.1,192.9,386.8,185.5z"/>
		<g>
			<linearGradient id="SVGID_34_" gradientUnits="userSpaceOnUse" x1="357.938" y1="335.5142" x2="383.1181" y2="327.9744">
				<stop  offset="9.090910e-02" style="stop-color:#25054D"/>
				<stop  offset="0.4708" style="stop-color:#330A68"/>
				<stop  offset="0.8939" style="stop-color:#45108A"/>
			</linearGradient>
			<polygon style="fill:url(#SVGID_34_);" points="359.7,319.4 359.7,351.8 363.6,349.5 363.6,317 			"/>
			<linearGradient id="SVGID_35_" gradientUnits="userSpaceOnUse" x1="300.1998" y1="333.116" x2="429.9999" y2="304.019">
				<stop  offset="9.090910e-02" style="stop-color:#25054D"/>
				<stop  offset="0.4708" style="stop-color:#330A68"/>
				<stop  offset="0.8939" style="stop-color:#45108A"/>
			</linearGradient>
			<polygon style="fill:url(#SVGID_35_);" points="359.7,319.4 359.7,351.8 320.3,329.1 320.3,296.6 			"/>
			<linearGradient id="SVGID_36_" gradientUnits="userSpaceOnUse" x1="330.4978" y1="332.8315" x2="348.0164" y2="328.9044">
				<stop  offset="3.535350e-02" style="stop-color:#FFA98C"/>
				<stop  offset="0.3169" style="stop-color:#FFB892"/>
				<stop  offset="0.8601" style="stop-color:#FEE1A3"/>
				<stop  offset="1" style="stop-color:#FEECA8"/>
			</linearGradient>
			<path style="fill:url(#SVGID_36_);" d="M341.8,330.8v2.2c0,0.8-0.9,1.3-1.6,0.9l-3-1.7c-0.6-0.4-1-1-1-1.8v-1.6
				c0-0.8,0.9-1.3,1.6-0.9l3.5,2C341.6,330.1,341.8,330.5,341.8,330.8z"/>
			<g>
				<linearGradient id="SVGID_37_" gradientUnits="userSpaceOnUse" x1="284.5105" y1="326.2594" x2="398.4053" y2="300.7279">
					<stop  offset="9.090910e-02" style="stop-color:#25054D"/>
					<stop  offset="0.4708" style="stop-color:#330A68"/>
					<stop  offset="0.8939" style="stop-color:#45108A"/>
				</linearGradient>
				<path style="fill:url(#SVGID_37_);" d="M359.7,319.4v9.9c0,1.3-1,2.3-2.3,2.3l-16,0c-1.8,0-3.4-0.8-4.5-2.2l-14.7-18.4
					c-1.3-1.6-1.9-3.5-1.9-5.6v-8.8L359.7,319.4z"/>
				<radialGradient id="SVGID_38_" cx="330.4472" cy="342.3232" r="22.8532" gradientUnits="userSpaceOnUse">
					<stop  offset="0" style="stop-color:#FFFFFF"/>
					<stop  offset="1" style="stop-color:#000000"/>
				</radialGradient>
				<path style="fill:url(#SVGID_38_);" d="M359.7,319.4v9.9c0,1.3-1,2.3-2.3,2.3l-16,0c-1.8,0-3.4-0.8-4.5-2.2l-14.7-18.4
					c-1.3-1.6-1.9-3.5-1.9-5.6v-8.8L359.7,319.4z"/>
			</g>
			<linearGradient id="SVGID_39_" gradientUnits="userSpaceOnUse" x1="347.3596" y1="296.4832" x2="341.1713" y2="308.2769">
				<stop  offset="9.090910e-02" style="stop-color:#25054D"/>
				<stop  offset="0.4708" style="stop-color:#330A68"/>
				<stop  offset="0.8939" style="stop-color:#45108A"/>
			</linearGradient>
			<polygon style="fill:url(#SVGID_39_);" points="320.3,296.6 359.7,319.4 363.6,317 324.1,294.3 			"/>
			<linearGradient id="SVGID_40_" gradientUnits="userSpaceOnUse" x1="346.0569" y1="310.6722" x2="340.2235" y2="299.8389">
				<stop  offset="9.090910e-02" style="stop-color:#25054D"/>
				<stop  offset="0.4708" style="stop-color:#330A68"/>
				<stop  offset="0.8939" style="stop-color:#45108A"/>
			</linearGradient>
			<path style="fill:url(#SVGID_40_);" d="M344.9,299.6l-5.1-2.9c-1.3-0.7-2.4-0.8-3.2-0.3l-1.3,0.6l0.2,1c-0.1,0.4-0.1,0.8-0.1,1.2
				v3.3l1.1,0.7l0.3,1.6l1.3-0.7v-3c0-1.4,1-2,2.2-1.3l4,2.3c1.2,0.7,2.2,2.4,2.2,3.8v3l1.2,0.7l0.2,1.5l1.3-0.7v-3.3
				C349.4,304.4,347.4,301,344.9,299.6z"/>
			
				<linearGradient id="SVGID_41_" gradientUnits="userSpaceOnUse" x1="-337.4709" y1="3214.407" x2="-284.9738" y2="3202.6389" gradientTransform="matrix(0.866 0.5 0 1.1547 610.8121 -3245.6758)">
				<stop  offset="9.090910e-02" style="stop-color:#25054D"/>
				<stop  offset="0.4708" style="stop-color:#330A68"/>
				<stop  offset="0.8939" style="stop-color:#45108A"/>
			</linearGradient>
			<path style="fill:url(#SVGID_41_);" d="M334.1,299.8v3.3l2.8,1.6v-3c0-1.4,1-2,2.2-1.3l4,2.3c1.2,0.7,2.2,2.4,2.2,3.8v3l2.8,1.6
				v-3.3c0-2.8-2-6.2-4.4-7.6l-5.1-2.9C336.1,295.9,334.1,297,334.1,299.8z"/>
			<radialGradient id="SVGID_42_" cx="348.1175" cy="317.0366" r="14.4241" gradientUnits="userSpaceOnUse">
				<stop  offset="0" style="stop-color:#FFFFFF"/>
				<stop  offset="1" style="stop-color:#000000"/>
			</radialGradient>
			<polygon style="fill:url(#SVGID_42_);" points="359.8,330.3 360.1,319.6 363.6,317 359.6,318.8 332.6,303.8 359.3,319.4 			"/>
		</g>
		
			<radialGradient id="SVGID_43_" cx="-296.0958" cy="804.2128" r="14.1473" gradientTransform="matrix(0.9937 0.1122 -0.1122 0.9937 723.2068 -475.2698)" gradientUnits="userSpaceOnUse">
			<stop  offset="3.030300e-02" style="stop-color:#FEDFCB"/>
			<stop  offset="1" style="stop-color:#F9B69E"/>
		</radialGradient>
		<path style="fill:url(#SVGID_43_);" d="M343.7,284.9c0,0-4.3,5.3-6.3,8.9c-1.1,1.9-1,2.3-0.5,6.3c0.2,1.9,0.6,3.2,1.6,3.3
			c0.5,0.1,0.2-1,0.2-1s0.2,1.8,1.4,2.1c1.2,0.3,0.6-1.2,0.6-1.2s0.3,2,1.5,2.2s0.5-1.3,0.5-1.3s0.4,2.1,1.4,2.4
			c1,0.3,1.1-0.3,1.1-1.7c0-1.7,0.7-3.1,2.2-5.8c1.6-2.8,2.9-4.1,2.8-6.7c-0.2-2.7,2-4.9,2-4.9L343.7,284.9z"/>
		<linearGradient id="SVGID_44_" gradientUnits="userSpaceOnUse" x1="340.8022" y1="255.3723" x2="372.2199" y2="255.3723">
			<stop  offset="3.535350e-02" style="stop-color:#138BBD"/>
			<stop  offset="0.2257" style="stop-color:#169AC7"/>
			<stop  offset="0.5946" style="stop-color:#1FC3DF"/>
			<stop  offset="1" style="stop-color:#2AF6FF"/>
		</linearGradient>
		<path style="fill:url(#SVGID_44_);" d="M359.9,219.4c5.4-1.9,10.6,1.5,12,7.1c1.3,5.6-1.5,26.9-3.6,32.8
			c-2.2,5.9-15.5,32.5-15.5,32.5s-4.7-0.6-7.6-1.9s-4.3-4-4.3-4s9.2-22.8,11-28.2c1.8-5.3,1.1-18.8,1.7-24.8
			C354.2,225.7,354.7,221.3,359.9,219.4z"/>
		<path style="opacity:0.3;" d="M326.6,215c-0.6,0.7-0.2,2.2,1.7,2.3c1.9,0.2,6.1-0.3,7.7-0.3c1.6,0,9.3-3,9.3-3L326.6,215z"/>
		
			<radialGradient id="SVGID_45_" cx="-118.6637" cy="550.8215" r="19.1938" gradientTransform="matrix(0.997 7.750000e-02 -7.750000e-02 0.997 487.2328 -336.5371)" gradientUnits="userSpaceOnUse">
			<stop  offset="3.030300e-02" style="stop-color:#FEDFCB"/>
			<stop  offset="1" style="stop-color:#F9B69E"/>
		</radialGradient>
		<path style="fill:url(#SVGID_45_);" d="M336,211.5c-1.9,1.1-4.7,1.6-6.2,2.4c-1.5,0.8-2.8,0.3-3.2,1c-0.4,0.7-0.1,2.6,3.6,1.7
			c3.8-0.8,5.9-1.4,8.1-1.3c2.2,0.1,6.6,0,7.4-1.2c0.8-1.2-0.7-2.9-0.7-2.9L336,211.5z"/>
		<radialGradient id="SVGID_46_" cx="330.8329" cy="220.7226" r="9.2888" gradientUnits="userSpaceOnUse">
			<stop  offset="3.030300e-02" style="stop-color:#FEDFCB"/>
			<stop  offset="1" style="stop-color:#F9B69E"/>
		</radialGradient>
		<path style="fill:url(#SVGID_46_);" d="M323.4,222.3c-0.4-0.7,3.4-0.6,4.5-0.1c1.1,0.4,5.1,2,6,2.6c0.7,0.4,1.5,1.1-0.9,1.2
			C328.4,226.3,324.7,224.9,323.4,222.3z"/>
	</g>
	<path style="opacity:0.3;" d="M282.3,122.5c-6.6,6.7-2,16.6,0.2,18.9c0,0-1.5-3.4-0.2-4.4c0.2-0.1,0.4-0.2,0.6-0.3
		c0.7-0.2,1.6,0.1,2.1,0.6l1.4,1.6c0,0,0.2-1.6,1-4.7c0.3-1.2,1.3-2.3,3.3-2.9C287.1,130.6,281.9,125.8,282.3,122.5z"/>
	<g>
		<path style="opacity:0.1;" d="M256.1,385.7c-16.3,7.7-23.1,3.2-33.6-2.8c-10.4-6-14.8-11.5-2.6-17.5c11.9-5.8,23.2-1.4,33.6,4.7
			C264,376.1,264.9,381.5,256.1,385.7z"/>
		<radialGradient id="SVGID_47_" cx="260.8611" cy="324.7951" r="75.3506" gradientUnits="userSpaceOnUse">
			<stop  offset="3.030300e-02" style="stop-color:#FEDFCB"/>
			<stop  offset="1" style="stop-color:#F9B69E"/>
		</radialGradient>
		<path style="fill:url(#SVGID_47_);" d="M216.2,270.6c0.2,4.1-0.2,18.6,3.3,27.8c3.6,9.3-0.5,15.1-1.3,20.1
			c-1.3,7.9-0.6,15.3,0.7,25.8c1.2,10.5,1.1,15.5-0.1,17.7c-1.2,2.2-0.4,5.4,6.3,7.2c6.7,1.8,14.6,1.9,13.8-4.3
			c-0.2-2-6,2.6-7.9-0.4c-1.9-3-4.2-7.9-3-19c1.1-11.1,2.4-17.9,3-24c0.6-6.1,1.8-13.6,3-21.8s2.5-32.3,2.5-32.3L216.2,270.6z"/>
		<radialGradient id="SVGID_48_" cx="265.9232" cy="323.1117" r="62.0378" gradientUnits="userSpaceOnUse">
			<stop  offset="3.030300e-02" style="stop-color:#FEDFCB"/>
			<stop  offset="1" style="stop-color:#F9B69E"/>
		</radialGradient>
		<path style="fill:url(#SVGID_48_);" d="M223.6,360.4c0-3.3,0.8-11.8,0.8-17.5s4-25.2,2.2-29.2c-2.6-5.8,1-13.7,1-16.7
			c0-2.8-0.2-23.7-0.2-28.2l-11.2,1.7c0.2,4.1-0.2,18.6,3.3,27.8c3.6,9.3-0.5,15.1-1.3,20.1c-1.3,7.9-0.6,15.3,0.7,25.8
			c1.2,10.5,1.1,15.5-0.1,17.7c-1.2,2.2-0.4,5.4,6.3,7.2c1.7,0.5,3.4,0.8,5.1,1l-1.5-0.8C228.8,369.4,223.6,363.8,223.6,360.4z"/>
		<path style="fill:#10054D;" d="M218.2,361.9c0,0-2.5,2.8-2.2,5c0.3,2.3,2.1,5.1,2.2,7.2c0.1,2.1-0.1,3.7,0,3.8
			c0.1,0.1,1.5,0.2,1.5,0.2l0.6-0.5V370c0,0,4-0.4,6.1,1.1c2.1,1.6,8.2,2.8,10.8,1.7c2.6-1.1,4.4-8.8,4.1-10
			c-0.3-1.2-6.5,2.1-7.5,2.5c-1,0.4-1.4,0.5-1.4,0.5s3.2-0.9,4,0.3c0.8,1.2,0,3.7-2.5,4.1c-2.5,0.4-5.7-3.1-8.4-4.1
			C223,365.2,218.9,363.7,218.2,361.9z"/>
		<linearGradient id="SVGID_49_" gradientUnits="userSpaceOnUse" x1="232.1104" y1="244.286" x2="328.1142" y2="222.765">
			<stop  offset="9.090910e-02" style="stop-color:#25054D"/>
			<stop  offset="0.4708" style="stop-color:#330A68"/>
			<stop  offset="0.8939" style="stop-color:#45108A"/>
		</linearGradient>
		<polygon style="fill:url(#SVGID_49_);" points="274.5,226.7 268.3,260 248.6,248.8 254.9,215.4 		"/>
		<linearGradient id="SVGID_50_" gradientUnits="userSpaceOnUse" x1="232.8975" y1="244.4993" x2="324.3313" y2="224.0028">
			<stop  offset="3.535350e-02" style="stop-color:#9D9EB3"/>
			<stop  offset="0.5808" style="stop-color:#D4D1D8"/>
			<stop  offset="1" style="stop-color:#EEEBF2"/>
		</linearGradient>
		<polygon style="fill:url(#SVGID_50_);" points="273.3,227.8 267,261 248.6,248.8 254.9,215.4 		"/>
		<linearGradient id="SVGID_51_" gradientUnits="userSpaceOnUse" x1="233.7588" y1="243.6472" x2="318.6868" y2="224.6091">
			<stop  offset="9.090910e-02" style="stop-color:#25054D"/>
			<stop  offset="0.4708" style="stop-color:#330A68"/>
			<stop  offset="0.8939" style="stop-color:#45108A"/>
		</linearGradient>
		<polygon style="fill:url(#SVGID_51_);" points="271,227 264.8,260.2 248.6,248.8 254.9,215.4 		"/>
		<radialGradient id="SVGID_52_" cx="275.8581" cy="313.3533" r="68.7868" gradientUnits="userSpaceOnUse">
			<stop  offset="3.030300e-02" style="stop-color:#FEDFCB"/>
			<stop  offset="1" style="stop-color:#F9B69E"/>
		</radialGradient>
		<path style="fill:url(#SVGID_52_);" d="M229.3,284.5c1.4,3.9,3.4,11.7,5.1,17.2c1.7,5.5,3.8,11.3,2.8,15.3c-1,4-3.6,10.7-3.6,19.8
			c0,9,1,28.2-0.3,31c-1.3,2.8-2.5,5.5-1.8,7.3c0.7,1.7,6.9,3.2,11.9,6.5c5.3,3.5,11.7-3.7,9.1-5.2c-2.5-1.5-2.9,0.3-4.9-0.9
			c-1.9-1.2-6.3-5-6.1-9.6c0.2-4.6,5.3-34.6,6.7-41.2c1.4-6.6,2.1-10.9,2.6-18.5s0.8-17.8,0-25C250,273.9,225.2,273.4,229.3,284.5z"
			/>
		<radialGradient id="SVGID_53_" cx="295.9138" cy="310.8555" r="67.0754" gradientUnits="userSpaceOnUse">
			<stop  offset="3.030300e-02" style="stop-color:#FEDFCB"/>
			<stop  offset="1" style="stop-color:#F9B69E"/>
		</radialGradient>
		<path style="fill:url(#SVGID_53_);" d="M243.9,381.8l-4.8-6c0,0,1-3.3,0.5-5.2c-0.5-1.8-1.7-3-1.7-8.7s4.7-30.8,5.7-34.8
			s-1.3-7.8-1-11c0.3-3.2,3.5-12.3,2.7-18.7c-0.5-3.8-2.1-14-3.4-21.4c0.9,0.1,1.7,0.2,2.5,0.4c-7.3-1.6-17.8,0.6-15.1,8.1
			c1.4,3.9,3.4,11.7,5.1,17.2c1.7,5.5,3.8,11.3,2.8,15.3c-1,4-3.6,10.7-3.6,19.8c0,9,1,28.2-0.3,31c-1.3,2.8-2.5,5.5-1.8,7.3
			c0.7,1.7,6.9,3.2,11.9,6.5c1.5,1,3,1.1,4.4,0.8C246.5,382.5,245.2,382.4,243.9,381.8z"/>
		<linearGradient id="SVGID_54_" gradientUnits="userSpaceOnUse" x1="213.5931" y1="280.86" x2="273.5989" y2="280.86">
			<stop  offset="3.535350e-02" style="stop-color:#9F19AB"/>
			<stop  offset="0.2438" style="stop-color:#AE25B1"/>
			<stop  offset="0.6455" style="stop-color:#D744BF"/>
			<stop  offset="1" style="stop-color:#FF63CE"/>
		</linearGradient>
		<path style="fill:url(#SVGID_54_);" d="M223.2,251.3l26.1,1.1c0,0,1.6,18.7,2.2,25.7c0.6,7,0.7,29.5,0.7,29.5s-7.4,3.8-13.7,2.6
			c-6.3-1.2-20.8-4.6-20.8-4.6s-0.5-6.9-0.9-13.3c-0.4-6.6-1.7-20.7,0.4-26.9C219.3,259.2,223.2,251.3,223.2,251.3z"/>
		<linearGradient id="SVGID_55_" gradientUnits="userSpaceOnUse" x1="252.9688" y1="281.9578" x2="195.4688" y2="277.9577">
			<stop  offset="0" style="stop-color:#FFFFFF"/>
			<stop  offset="1" style="stop-color:#777576"/>
		</linearGradient>
		<path style="fill:url(#SVGID_55_);" d="M223.2,251.3l26.1,1.1c0,0,1.6,18.7,2.2,25.7c0.6,7,0.7,29.5,0.7,29.5s-7.4,3.8-13.7,2.6
			c-6.3-1.2-20.8-4.6-20.8-4.6s-0.5-6.9-0.9-13.3c-0.4-6.6-1.7-20.7,0.4-26.9C219.3,259.2,223.2,251.3,223.2,251.3z"/>
		<path style="fill:#10054D;" d="M232.2,369.8c0,0-2.9,2.7-2.2,5.7c0.6,3,2.4,3.3,2.4,5.5c0,2.2,0,5.7,0,5.7l1.3,0.5l1.5-0.5v-8.7
			c0,0,3.5,0.9,6.8,3.4c3.3,2.5,7.5,2.7,9.8,1.5c2.4-1.2,6.8-7.4,5.7-8.6c-1.2-1.2-9.7,1.3-9.7,1.3s3.2,0.3,3.7,2
			c0.5,1.6-2.3,3.7-4.5,2.7c-2.2-1-4.7-4.1-9-5.8C233.6,372.6,232.5,370.4,232.2,369.8z"/>
		<radialGradient id="SVGID_56_" cx="274.7054" cy="240.4492" r="10.4117" gradientUnits="userSpaceOnUse">
			<stop  offset="3.030300e-02" style="stop-color:#FEDFCB"/>
			<stop  offset="1" style="stop-color:#F9B69E"/>
		</radialGradient>
		<path style="fill:url(#SVGID_56_);" d="M260.8,245.1l5.6-2.4c0,0,2-3.1,3.5-3.5c1.4-0.4,2.3-0.6,2.4-1c0.1-0.7,0.2-1.2,0.2-1.2
			s2-0.3,2.2,1.7c0.2,2-0.5,2.1-0.5,2.1s0.5,0.1,0.6,0.8s-0.2,1.2-0.5,1.6c-0.3,0.3-0.3,0.3-0.3,0.3s0.3,0.4,0.1,1.1
			c-0.2,0.7-1,1.2-1,1.2s0.1,1.4-0.6,1.7c-0.7,0.3-1.4,0.4-2.5,0.8c-1.1,0.4-7.2,2.4-7.2,2.4L260.8,245.1z"/>
		<radialGradient id="SVGID_57_" cx="274.7054" cy="240.1409" r="10.7264" gradientUnits="userSpaceOnUse">
			<stop  offset="3.030300e-02" style="stop-color:#FEDFCB"/>
			<stop  offset="1" style="stop-color:#F9B69E"/>
		</radialGradient>
		<path style="fill:url(#SVGID_57_);" d="M266.5,243.2c0,0,0.1-2.9,0.9-4.5c0.9-1.6,1.9-3.2,2.2-3.8c0.3-0.6,1.2-1.4,1.8-0.8
			c0.4,0.4,0.4,0.6-0.2,2.2c-0.5,1.6,0,2.5-0.6,3.7C270,241.4,266.5,243.2,266.5,243.2z"/>
		<linearGradient id="SVGID_58_" gradientUnits="userSpaceOnUse" x1="220.8772" y1="287.9238" x2="250.8771" y2="280.2572">
			<stop  offset="3.535350e-02" style="stop-color:#9F19AB"/>
			<stop  offset="0.2438" style="stop-color:#AE25B1"/>
			<stop  offset="0.6455" style="stop-color:#D744BF"/>
			<stop  offset="1" style="stop-color:#FF63CE"/>
		</linearGradient>
		<path style="fill:url(#SVGID_58_);" d="M251.4,278.1c-0.6-6.4-1.9-22.4-2.2-25.3l-5.5,1c0,0-0.5,20.2-0.7,29.3
			c-0.1,7.2,0.8,21.4,1.2,27c4.3-0.7,7.8-2.5,7.8-2.5S252.1,285.1,251.4,278.1z"/>
		<linearGradient id="SVGID_59_" gradientUnits="userSpaceOnUse" x1="215.4542" y1="233.2449" x2="262.9542" y2="208.7449">
			<stop  offset="3.535350e-02" style="stop-color:#9F19AB"/>
			<stop  offset="0.2438" style="stop-color:#AE25B1"/>
			<stop  offset="0.6455" style="stop-color:#D744BF"/>
			<stop  offset="1" style="stop-color:#FF63CE"/>
		</linearGradient>
		<path style="fill:url(#SVGID_59_);" d="M218.4,207.7c-2,4.5-5.1,20.3-3.8,25c0.8,3.1,8,20.8,8,20.8l6-8.4L218.4,207.7z"/>
		<path style="opacity:0.3;" d="M218.4,207.7c-2,4.5-5.1,20.3-3.8,25c0.8,3.1,8,20.8,8,20.8l6-8.4L218.4,207.7z"/>
		<linearGradient id="SVGID_60_" gradientUnits="userSpaceOnUse" x1="209.7768" y1="244.1362" x2="273.777" y2="243.6362">
			<stop  offset="3.535350e-02" style="stop-color:#9F19AB"/>
			<stop  offset="0.2438" style="stop-color:#AE25B1"/>
			<stop  offset="0.6455" style="stop-color:#D744BF"/>
			<stop  offset="1" style="stop-color:#FF63CE"/>
		</linearGradient>
		<path style="fill:url(#SVGID_60_);" d="M239.4,212.1c2.6,2.2,11.1,8.5,12.6,13.2c1.5,4.7,0.1,6.9-0.7,10.5
			c-0.9,4-2.5,6.6-1.8,14.1c0.7,7.5,2.4,28.1,2.7,30.5c0.3,2.4-2.3,3.4-4.8,3.8c-2.4,0.4-15.8,0.9-23.2-1.9c-7.4-2.8-9.2-4-9.2-5.7
			c0-1.7,0.1-9.8,3.7-17.1c3.6-7.4,4.9-14.5,4.6-18.5c-0.3-4-6.7-20.7-6.4-27c0.3-6.3,3-11.9,7.5-10.5
			C229,205,239.4,212.1,239.4,212.1z"/>
		<path style="opacity:0.17;" d="M236.5,284.5c1.4-1.2,6.3-5.9,6.6-12.8c0.3-8-1.2-15.5-3-15.8c-1.8-0.2-3.3-3.3-3.3-5.7
			c0-10.9-3.2-30-0.6-32.8c1.2-1.3,4.3-1.9,7.6-1.9c-1.8-1.5-3.4-2.8-4.3-3.6c0,0-10.5-7.1-14.9-8.5c-4.5-1.4-7.2,4.2-7.5,10.5
			c-0.3,6.3,6.1,23.1,6.4,27c0.3,4-1,11.1-4.6,18.5c-3.5,7.3-3.7,15.3-3.7,17.1c0,1.7,1.8,2.9,9.2,5.7c5.6,2.2,14.7,2.4,19.8,2.2
			C242.1,284.6,239.4,284.6,236.5,284.5z"/>
		<radialGradient id="SVGID_61_" cx="232.1277" cy="193.7741" r="15.699" gradientUnits="userSpaceOnUse">
			<stop  offset="3.030300e-02" style="stop-color:#FEDFCB"/>
			<stop  offset="1" style="stop-color:#F9B69E"/>
		</radialGradient>
		<path style="fill:url(#SVGID_61_);" d="M229.7,175.9c5.7-1.3,13.1,1.2,14.5,8.1c1.4,6.9-0.1,14.5-0.9,15.9c-1.3,2-5,1.6-6,3.3
			c-1,1.6-1.7,5.2-0.9,6.4c0.8,1.2,2.1,2.4,2.1,2.4l-9.4-1.1l-5.3-3.4c0,0,2.4-4.5,1.3-6.4c-1.1-1.9-7.4-7.7-5.4-16.4
			C221.5,177.6,228,176.3,229.7,175.9z"/>
		<linearGradient id="SVGID_62_" gradientUnits="userSpaceOnUse" x1="224.4361" y1="214.2321" x2="233.1028" y2="207.1488">
			<stop  offset="3.535350e-02" style="stop-color:#9D9EB3"/>
			<stop  offset="0.5808" style="stop-color:#D4D1D8"/>
			<stop  offset="1" style="stop-color:#EEEBF2"/>
		</linearGradient>
		<path style="fill:url(#SVGID_62_);" d="M224.4,204.8c0,0,1.7,1.8,5.3,2.4c3.6,0.6,5.5,0.1,6.7,1c1.2,0.9,2.9,3.4,2.9,3.4
			s-2.3-1.8-4.9-2c-2.5-0.2-7.4-0.3-9-1.4c-1.7-1.2-1.4-1.9-1.4-2.2C224,205.5,224.4,204.8,224.4,204.8z"/>
		<path style="opacity:0.3;" d="M224.9,203.9c0,0-3.1,2.8-2.8,5.3c0.4,2.5,2.9,4.9,7.5,4.5c4.5-0.4,7.1-0.9,9.3,0.1
			c2,0.9,5.9,2.8,5.9,2.8s-4-6.5-7.4-7.1c-3.4-0.6-7.8-0.1-9.8-1.2s-3.3-1.3-3.5-2.6C223.8,204.6,224.9,203.9,224.9,203.9z"/>
		<linearGradient id="SVGID_63_" gradientUnits="userSpaceOnUse" x1="222.3832" y1="210.3015" x2="244.8346" y2="210.3015">
			<stop  offset="3.535350e-02" style="stop-color:#9F19AB"/>
			<stop  offset="0.2438" style="stop-color:#AE25B1"/>
			<stop  offset="0.6455" style="stop-color:#D744BF"/>
			<stop  offset="1" style="stop-color:#FF63CE"/>
		</linearGradient>
		<path style="fill:url(#SVGID_63_);" d="M224.9,203.9c0,0-2.9,1.6-2.5,4.1c0.4,2.5,2.9,4.9,7.5,4.5c4.5-0.4,7.3-0.5,9.5,0.5
			c2,0.9,5.5,3.6,5.5,3.6s-4-6.5-7.4-7.1c-3.4-0.6-7.8-0.1-9.8-1.2s-3.3-1.3-3.5-2.6C223.8,204.6,224.9,203.9,224.9,203.9z"/>
		<radialGradient id="SVGID_64_" cx="230.1089" cy="215.912" r="8.8674" gradientUnits="userSpaceOnUse">
			<stop  offset="0" style="stop-color:#FFFFFF"/>
			<stop  offset="1" style="stop-color:#000000"/>
		</radialGradient>
		<path style="fill:url(#SVGID_64_);" d="M239.7,212.6c-2.2-1-4.9-0.9-9.5-0.5c-4.5,0.4-7.1-2-7.5-4.5c-0.1-0.8,0.1-1.5,0.4-2.1
			c-0.5,0.7-0.9,1.6-0.7,2.6c0.4,2.5,2.9,4.9,7.5,4.5c4.5-0.4,7.3-0.5,9.5,0.5c2,0.9,5.5,3.6,5.5,3.6s-0.4-0.6-1-1.5
			C242.6,214.3,240.9,213.2,239.7,212.6z"/>
		<linearGradient id="SVGID_65_" gradientUnits="userSpaceOnUse" x1="227.7386" y1="203.5433" x2="233.8201" y2="176.2442">
			<stop  offset="3.535350e-02" style="stop-color:#602213"/>
			<stop  offset="0.571" style="stop-color:#6D310E"/>
			<stop  offset="1" style="stop-color:#7A4108"/>
		</linearGradient>
		<path style="fill:url(#SVGID_65_);" d="M239.2,185.6c0,0,2.2-1.9,5-1.5c3.8,0.5,0.3-7.3-8.1-9.6c-6.4-1.7-15.6,0.7-17.1,8.1
			c-2.1,10.2,3.5,14.6,4.1,18.4c0.5,3.7,12,3.1,10.6-2.8c-0.7-3-1.1-5.7,1.3-5.5C237.4,192.7,237.4,187.5,239.2,185.6z"/>
		<linearGradient id="SVGID_66_" gradientUnits="userSpaceOnUse" x1="213.1765" y1="249.7453" x2="253.5097" y2="233.5787">
			<stop  offset="3.535350e-02" style="stop-color:#9F19AB"/>
			<stop  offset="0.2438" style="stop-color:#AE25B1"/>
			<stop  offset="0.6455" style="stop-color:#D744BF"/>
			<stop  offset="1" style="stop-color:#FF63CE"/>
		</linearGradient>
		<path style="fill:url(#SVGID_66_);" d="M233.2,225c0,5.3,2,22.3,2.4,26.8c0.4,4.5,3.4,8.2,6.6,7.6c3.2-0.6,14.2-4.8,17-5.7
			c2.8-0.9,7.6-2.1,7.6-2.1s0.4-3.3-0.6-5.1c-1-1.9-2.3-3.4-2.3-3.4s-3.6,1.1-7.7,2.2c-3.6,1-11,2.6-11,2.6s0-11,0.9-16.2
			c0.9-5.1,2.3-11-0.7-13.9C241.8,214.3,233.2,215.7,233.2,225z"/>
		<path style="opacity:0.5;fill:#D1D3D4;" d="M260.2,250.5c-2.8,0.9-13.8,5.1-17,5.7c-3.2,0.6-6.2-3-6.6-7.6
			c-0.4-4.5-2.5-21.5-2.4-26.8c0-0.6,0.1-1.3,0.1-1.8c-0.7,1.3-1.1,2.9-1.1,5c0,5.3,2,22.3,2.4,26.8c0.4,4.5,3.4,8.2,6.6,7.6
			c3.2-0.6,14.2-4.8,17-5.7c2.8-0.9,7.6-2.1,7.6-2.1s0.2-1.4,0-2.9C265.3,249,262.2,249.8,260.2,250.5z"/>
		<path style="opacity:0.3;" d="M238.7,186.2c-9.3,0-14.2-1.5-18.8-6.3c-0.4,0.8-0.7,1.6-0.9,2.6c-2.1,10.2,3.5,14.6,4.1,18.4
			c0.5,3.7,12,3.1,10.6-2.8c-0.7-3-1.1-5.7,1.3-5.5C237.2,192.7,237.4,188.4,238.7,186.2L238.7,186.2z"/>
		<linearGradient id="SVGID_67_" gradientUnits="userSpaceOnUse" x1="221.4878" y1="202.1172" x2="221.4878" y2="182.6993">
			<stop  offset="3.535350e-02" style="stop-color:#602213"/>
			<stop  offset="0.571" style="stop-color:#6D310E"/>
			<stop  offset="1" style="stop-color:#7A4108"/>
		</linearGradient>
		<path style="fill:url(#SVGID_67_);" d="M217.1,185.8c5.8-3.6,8.5,1.7,10.2,6.4c1.7,4.7,3,8.9-3.1,10
			C215.7,203.6,210.9,189.5,217.1,185.8z"/>
		<path style="opacity:0.3;" d="M227.3,192.1c-1.3-3.6-3.1-7.4-6.4-7.6c3.1,3,3,7-1.5,7.3c-2.2,0.1-3.8-0.2-5.1-0.8
			c-0.3,5.4,3.8,12.2,9.9,11.1C230.3,201.1,228.9,196.9,227.3,192.1z"/>
	</g>
</g>
</svg>
