<svg xmlns="http://www.w3.org/2000/svg" xmlns:xlink="http://www.w3.org/1999/xlink" width="160" height="160" viewBox="0 0 160 160">
  <defs>
    <clipPath id="clip-path">
      <rect id="Rectangle_2924" data-name="Rectangle 2924" width="160" height="160" fill="#fff"/>
    </clipPath>
    <linearGradient id="linear-gradient" x1="0.887" y1="0.133" x2="0.267" y2="0.738" gradientUnits="objectBoundingBox">
      <stop offset="0" stop-color="#5e4bdd"/>
      <stop offset="1" stop-color="#256add"/>
    </linearGradient>
  </defs>
  <g id="benefit-odc-model" clip-path="url(#clip-path)">
    <g id="Group_11445" data-name="Group 11445" transform="translate(26 26)">
      <path id="Path_11695" data-name="Path 11695" d="M599.286,80.09a35.059,35.059,0,1,1,35.06-35.058A35.1,35.1,0,0,1,599.286,80.09Zm0-66.679a31.619,31.619,0,1,0,31.621,31.621A31.655,31.655,0,0,0,599.286,13.412Z" transform="translate(-545.045 9.211)" stroke="rgba(0,0,0,0)" stroke-width="1" fill="url(#linear-gradient)"/>
      <path id="Path_11696" data-name="Path 11696" d="M588.69,80.09c-9.924,0-17.7-15.4-17.7-35.058s7.775-35.06,17.7-35.06,17.7,15.4,17.7,35.06S598.616,80.09,588.69,80.09Zm0-66.679c-7.729,0-14.26,14.481-14.26,31.621s6.531,31.618,14.26,31.618,14.262-14.481,14.262-31.618S596.421,13.412,588.69,13.412Z" transform="translate(-534.448 9.211)" stroke="rgba(0,0,0,0)" stroke-width="1" fill="url(#linear-gradient)"/>
      <path id="Path_11697" data-name="Path 11697" d="M599.286,52.136c-19.658,0-35.058-7.776-35.058-17.7s15.4-17.7,35.058-17.7,35.06,7.776,35.06,17.7S618.947,52.136,599.286,52.136Zm0-31.962c-17.138,0-31.618,6.533-31.618,14.262S582.148,48.7,599.286,48.7s31.621-6.531,31.621-14.26S616.426,20.174,599.286,20.174Z" transform="translate(-545.045 19.808)" stroke="rgba(0,0,0,0)" stroke-width="1" fill="url(#linear-gradient)"/>
      <path id="Path_11698" data-name="Path 11698" d="M632.626,26.4H565.948a1.721,1.721,0,0,1,0-3.442h66.678a1.721,1.721,0,0,1,0,3.442Z" transform="translate(-545.045 29.562)" stroke="rgba(0,0,0,0)" stroke-width="1" fill="url(#linear-gradient)"/>
      <path id="Path_11699" data-name="Path 11699" d="M578.935,80.09a1.72,1.72,0,0,1-1.72-1.72V11.692a1.721,1.721,0,0,1,3.443,0V78.37A1.721,1.721,0,0,1,578.935,80.09Z" transform="translate(-524.694 9.211)" stroke="rgba(0,0,0,0)" stroke-width="1" fill="url(#linear-gradient)"/>
      <path id="Path_11700" data-name="Path 11700" d="M582.691,18.25a7.876,7.876,0,1,1,7.876-7.876A7.883,7.883,0,0,1,582.691,18.25Zm0-12.309a4.435,4.435,0,1,0,4.436,4.433A4.437,4.437,0,0,0,582.691,5.941Z" transform="translate(-528.45 -2.499)" stroke="rgba(0,0,0,0)" stroke-width="1" fill="url(#linear-gradient)"/>
      <path id="Path_11701" data-name="Path 11701" d="M595.466,23.541A7.876,7.876,0,1,1,601.034,10.1a1.721,1.721,0,0,1-2.434,2.434,4.434,4.434,0,1,0-6.271,6.271,4.539,4.539,0,0,0,6.271,0,1.721,1.721,0,0,1,2.434,2.434A7.828,7.828,0,0,1,595.466,23.541Z" transform="translate(-508.436 5.792)" stroke="rgba(0,0,0,0)" stroke-width="1" fill="url(#linear-gradient)"/>
      <path id="Path_11702" data-name="Path 11702" d="M600.756,36.311a7.874,7.874,0,1,1,7.876-7.873A7.883,7.883,0,0,1,600.756,36.311Zm0-12.309a4.435,4.435,0,1,0,4.433,4.436A4.44,4.44,0,0,0,600.756,24Z" transform="translate(-500.146 25.806)" stroke="rgba(0,0,0,0)" stroke-width="1" fill="url(#linear-gradient)"/>
      <path id="Path_11703" data-name="Path 11703" d="M595.466,49.08a7.871,7.871,0,1,1,5.568-2.3A7.843,7.843,0,0,1,595.466,49.08Zm0-12.306a4.436,4.436,0,1,0,3.134,1.3A4.408,4.408,0,0,0,595.466,36.774Z" transform="translate(-508.436 45.82)" stroke="rgba(0,0,0,0)" stroke-width="1" fill="url(#linear-gradient)"/>
      <path id="Path_11704" data-name="Path 11704" d="M582.691,54.374a7.874,7.874,0,1,1,7.876-7.876A7.883,7.883,0,0,1,582.691,54.374Zm0-12.309a4.435,4.435,0,1,0,4.436,4.433A4.439,4.439,0,0,0,582.691,42.065Z" transform="translate(-528.45 54.111)" stroke="rgba(0,0,0,0)" stroke-width="1" fill="url(#linear-gradient)"/>
      <path id="Path_11705" data-name="Path 11705" d="M565.57,47.283a1.715,1.715,0,0,1-1.217-.506,7.876,7.876,0,1,1,11.136,0,1.719,1.719,0,0,1-2.431-2.431,4.438,4.438,0,0,0,0-6.274,4.544,4.544,0,0,0-6.271,0,4.44,4.44,0,0,0,0,6.274,1.721,1.721,0,0,1-1.217,2.937Z" transform="translate(-548.465 45.82)" stroke="rgba(0,0,0,0)" stroke-width="1" fill="url(#linear-gradient)"/>
      <path id="Path_11706" data-name="Path 11706" d="M564.63,36.311a7.874,7.874,0,1,1,7.873-7.873A7.883,7.883,0,0,1,564.63,36.311Zm0-12.309a4.435,4.435,0,1,0,4.433,4.436A4.438,4.438,0,0,0,564.63,24Z" transform="translate(-556.755 25.806)" stroke="rgba(0,0,0,0)" stroke-width="1" fill="url(#linear-gradient)"/>
      <path id="Path_11707" data-name="Path 11707" d="M569.917,23.539a7.879,7.879,0,1,1,5.568-2.308A7.832,7.832,0,0,1,569.917,23.539Zm0-12.309a4.432,4.432,0,0,0-3.134,7.568,4.539,4.539,0,0,0,6.271,0,4.432,4.432,0,0,0-3.137-7.568Z" transform="translate(-548.462 5.794)" stroke="rgba(0,0,0,0)" stroke-width="1" fill="url(#linear-gradient)"/>
      <path id="Path_11708" data-name="Path 11708" d="M602.571,18.128a1.711,1.711,0,0,1-.66-.133L580.492,9.125a1.721,1.721,0,1,1,1.317-3.181l21.419,8.872a1.721,1.721,0,0,1-.657,3.311Z" transform="translate(-521.224 2.696)" stroke="rgba(0,0,0,0)" stroke-width="1" fill="url(#linear-gradient)"/>
      <path id="Path_11709" data-name="Path 11709" d="M601.5,37.262a1.726,1.726,0,0,1-1.592-1.063L591.036,14.78a1.72,1.72,0,0,1,3.178-1.317l8.872,21.419a1.721,1.721,0,0,1-1.589,2.38Z" transform="translate(-503.241 13.018)" stroke="rgba(0,0,0,0)" stroke-width="1" fill="url(#linear-gradient)"/>
      <path id="Path_11710" data-name="Path 11710" d="M592.625,50.033a1.687,1.687,0,0,1-.657-.131,1.721,1.721,0,0,1-.932-2.249l8.869-21.419a1.721,1.721,0,0,1,3.181,1.317l-8.872,21.419A1.72,1.72,0,0,1,592.625,50.033Z" transform="translate(-503.241 33.033)" stroke="rgba(0,0,0,0)" stroke-width="1" fill="url(#linear-gradient)"/>
      <path id="Path_11711" data-name="Path 11711" d="M581.151,48.961a1.72,1.72,0,0,1-.66-3.309l21.419-8.872a1.721,1.721,0,0,1,1.317,3.181L581.809,48.83A1.7,1.7,0,0,1,581.151,48.961Z" transform="translate(-521.224 51.015)" stroke="rgba(0,0,0,0)" stroke-width="1" fill="url(#linear-gradient)"/>
      <path id="Path_11712" data-name="Path 11712" d="M589.8,48.96a1.688,1.688,0,0,1-.657-.131L567.72,39.96a1.721,1.721,0,0,1,1.317-3.181l21.419,8.872a1.719,1.719,0,0,1-.66,3.309Z" transform="translate(-541.238 51.015)" stroke="rgba(0,0,0,0)" stroke-width="1" fill="url(#linear-gradient)"/>
      <path id="Path_11713" data-name="Path 11713" d="M570.665,50.034a1.721,1.721,0,0,1-1.592-1.063L560.2,27.552a1.721,1.721,0,0,1,3.18-1.317l8.872,21.419a1.723,1.723,0,0,1-.932,2.249A1.7,1.7,0,0,1,570.665,50.034Z" transform="translate(-551.561 33.033)" stroke="rgba(0,0,0,0)" stroke-width="1" fill="url(#linear-gradient)"/>
      <path id="Path_11714" data-name="Path 11714" d="M561.79,37.262a1.721,1.721,0,0,1-1.589-2.38l8.872-21.419a1.721,1.721,0,0,1,3.18,1.317L563.382,36.2A1.726,1.726,0,0,1,561.79,37.262Z" transform="translate(-551.561 13.019)" stroke="rgba(0,0,0,0)" stroke-width="1" fill="url(#linear-gradient)"/>
      <path id="Path_11715" data-name="Path 11715" d="M568.377,18.129a1.721,1.721,0,0,1-.657-3.311l21.419-8.872a1.721,1.721,0,1,1,1.317,3.181L569.036,18A1.711,1.711,0,0,1,568.377,18.129Z" transform="translate(-541.238 2.695)" stroke="rgba(0,0,0,0)" stroke-width="1" fill="url(#linear-gradient)"/>
    </g>
  </g>
</svg>
