<svg xmlns="http://www.w3.org/2000/svg" xmlns:xlink="http://www.w3.org/1999/xlink" width="160" height="160" viewBox="0 0 160 160">
  <defs>
    <clipPath id="clip-path">
      <rect id="Rectangle_2924" data-name="Rectangle 2924" width="160" height="160" fill="#fff"/>
    </clipPath>
    <linearGradient id="linear-gradient" x1="0.887" y1="0.133" x2="0.267" y2="0.738" gradientUnits="objectBoundingBox">
      <stop offset="0" stop-color="#5e4bdd"/>
      <stop offset="1" stop-color="#256add"/>
    </linearGradient>
  </defs>
  <g id="benefit-solution-consulting" clip-path="url(#clip-path)">
    <g id="Group_11539" data-name="Group 11539" transform="translate(-165.522 18.918)">
      <path id="Path_12055" data-name="Path 12055" d="M208.835,36.565a8.9,8.9,0,1,1,8.9-8.9A8.91,8.91,0,0,1,208.835,36.565Zm0-14.725a5.824,5.824,0,1,0,5.824,5.824A5.83,5.83,0,0,0,208.835,21.84Z" transform="translate(2.922 4.461)" stroke="rgba(0,0,0,0)" stroke-width="1" fill="url(#linear-gradient)"/>
      <path id="Path_12056" data-name="Path 12056" d="M227.634,91.306a5.816,5.816,0,0,1-5.811-5.811V71.44a1.431,1.431,0,0,0-1.427-1.429h-13.2a7,7,0,0,1-6.992-6.992V37.372a9.265,9.265,0,0,1,10.423-9.191,9.582,9.582,0,0,1,5.837,3.121l5.813,6.339h9.887a4.443,4.443,0,0,1,4.455,3.88,4.318,4.318,0,0,1-4.3,4.758H219.876a1.551,1.551,0,0,1-.779-.21l-2.053-1.2V58.295h10.847a5.558,5.558,0,0,1,5.552,5.552V85.495A5.817,5.817,0,0,1,227.634,91.306ZM209.456,31.187a6.117,6.117,0,0,0-4.09,1.551,6.194,6.194,0,0,0-2.088,4.634V63.019a3.92,3.92,0,0,0,3.915,3.915h13.2a4.511,4.511,0,0,1,4.5,4.506V85.495a2.734,2.734,0,1,0,5.468,0V63.847a2.478,2.478,0,0,0-2.475-2.475H215.508a1.539,1.539,0,0,1-1.54-1.537V43.211l-3.778-2.362a1.538,1.538,0,0,1,1.593-2.632l8.512,4.986h12.026a1.243,1.243,0,0,0,1.234-1.374,1.361,1.361,0,0,0-1.394-1.11H221.6a1.537,1.537,0,0,1-1.135-.5l-6.269-6.839a6.508,6.508,0,0,0-3.944-2.146A6.4,6.4,0,0,0,209.456,31.187Z" transform="translate(3.246 15.791)" stroke="rgba(0,0,0,0)" stroke-width="1" fill="url(#linear-gradient)"/>
      <path id="Path_12057" data-name="Path 12057" d="M210.516,59.984H200.244a1.536,1.536,0,0,1-1.535-1.449l-1.183-20.522a1.539,1.539,0,0,1,3.072-.177l1.1,19.071h8.819a1.538,1.538,0,1,1,0,3.077Z" transform="translate(0 25.819)" stroke="rgba(0,0,0,0)" stroke-width="1" fill="url(#linear-gradient)"/>
      <path id="Path_12058" data-name="Path 12058" d="M239.776,36.565a8.9,8.9,0,1,1,8.9-8.9A8.912,8.912,0,0,1,239.776,36.565Zm0-14.725a5.824,5.824,0,1,0,5.824,5.824A5.832,5.832,0,0,0,239.776,21.84Z" transform="translate(40.419 4.461)" stroke="rgba(0,0,0,0)" stroke-width="1" fill="url(#linear-gradient)"/>
      <path id="Path_12059" data-name="Path 12059" d="M231.188,91.3a5.816,5.816,0,0,1-5.811-5.811V63.846a5.558,5.558,0,0,1,5.552-5.552h10.845V44.865l-2.053,1.2a1.543,1.543,0,0,1-.776.21H226.5a4.319,4.319,0,0,1-4.3-4.758,4.445,4.445,0,0,1,4.455-3.88h9.89l5.811-6.339A9.582,9.582,0,0,1,248.2,28.18a9.266,9.266,0,0,1,10.425,9.191V63.019a7,7,0,0,1-6.994,6.992h-13.2A1.429,1.429,0,0,0,237,71.439V85.494A5.817,5.817,0,0,1,231.188,91.3Zm-.259-29.934a2.478,2.478,0,0,0-2.475,2.475V85.494a2.734,2.734,0,1,0,5.468,0V71.439a4.51,4.51,0,0,1,4.5-4.506h13.2a3.92,3.92,0,0,0,3.917-3.915V37.371a6.186,6.186,0,0,0-6.974-6.136,6.509,6.509,0,0,0-3.942,2.146l-6.271,6.839a1.529,1.529,0,0,1-1.133.5H226.658a1.365,1.365,0,0,0-1.394,1.108,1.246,1.246,0,0,0,.314.967,1.232,1.232,0,0,0,.922.409h12.026l8.509-4.986a1.538,1.538,0,0,1,1.593,2.632l-3.778,2.362V59.833a1.537,1.537,0,0,1-1.537,1.537Z" transform="translate(29.885 15.792)" stroke="rgba(0,0,0,0)" stroke-width="1" fill="url(#linear-gradient)"/>
      <path id="Path_12060" data-name="Path 12060" d="M246.573,59.984H236.3a1.538,1.538,0,1,1,0-3.077h8.819l1.1-19.071a1.539,1.539,0,0,1,3.072.177L248.11,58.535A1.538,1.538,0,0,1,246.573,59.984Z" transform="translate(45.133 25.819)" stroke="rgba(0,0,0,0)" stroke-width="1" fill="url(#linear-gradient)"/>
      <path id="Path_12061" data-name="Path 12061" d="M262.409,38H207.965a1.538,1.538,0,1,1,0-3.077h54.445a1.538,1.538,0,0,1,0,3.077Z" transform="translate(10.789 24.051)" stroke="rgba(0,0,0,0)" stroke-width="1" fill="url(#linear-gradient)"/>
      <path id="Path_12062" data-name="Path 12062" d="M262.409,41.312H207.965a1.538,1.538,0,1,1,0-3.077h54.445a1.538,1.538,0,0,1,0,3.077Z" transform="translate(10.789 28.06)" stroke="rgba(0,0,0,0)" stroke-width="1" fill="url(#linear-gradient)"/>
      <path id="Path_12063" data-name="Path 12063" d="M220.271,79.037a1.539,1.539,0,0,1-1.539-1.54V39.775a1.538,1.538,0,1,1,3.077,0V77.5A1.537,1.537,0,0,1,220.271,79.037Z" transform="translate(25.704 28.06)" stroke="rgba(0,0,0,0)" stroke-width="1" fill="url(#linear-gradient)"/>
      <path id="Path_12064" data-name="Path 12064" d="M281.47,58.367H202.4a1.538,1.538,0,1,1,0-3.077H281.47a1.538,1.538,0,0,1,0,3.077Z" transform="translate(4.042 48.73)" stroke="rgba(0,0,0,0)" stroke-width="1" fill="url(#linear-gradient)"/>
      <path id="Path_12065" data-name="Path 12065" d="M204.239,69.673a1.537,1.537,0,0,1-1.537-1.54V47.5a1.538,1.538,0,1,1,3.077,0V68.134A1.539,1.539,0,0,1,204.239,69.673Z" transform="translate(6.277 37.424)" stroke="rgba(0,0,0,0)" stroke-width="1" fill="url(#linear-gradient)"/>
      <path id="Path_12066" data-name="Path 12066" d="M236.664,70.034a1.537,1.537,0,0,1-1.537-1.54V47.2a1.538,1.538,0,1,1,3.077,0V68.495A1.539,1.539,0,0,1,236.664,70.034Z" transform="translate(45.574 37.063)" stroke="rgba(0,0,0,0)" stroke-width="1" fill="url(#linear-gradient)"/>
      <path id="Path_12067" data-name="Path 12067" d="M224.719,30.234h-10.08a1.538,1.538,0,1,1,0-3.077h10.08a1.234,1.234,0,0,0,1.232-1.232V20.7a1.234,1.234,0,0,0-1.232-1.232H211.027A1.233,1.233,0,0,0,209.8,20.7v1.141a1.538,1.538,0,1,1-3.077,0V20.7a4.312,4.312,0,0,1,4.307-4.307h13.692a4.312,4.312,0,0,1,4.309,4.307v5.229A4.314,4.314,0,0,1,224.719,30.234Z" transform="translate(11.146 1.584)" stroke="rgba(0,0,0,0)" stroke-width="1" fill="url(#linear-gradient)"/>
      <path id="Path_12068" data-name="Path 12068" d="M238.633,28.929h-12.46a4.312,4.312,0,0,1-4.307-4.309V19.391a4.312,4.312,0,0,1,4.307-4.309h13.692a4.312,4.312,0,0,1,4.307,4.309v3.878a1.538,1.538,0,0,1-3.077,0V19.391a1.232,1.232,0,0,0-1.23-1.232H226.173a1.232,1.232,0,0,0-1.23,1.232V24.62a1.232,1.232,0,0,0,1.23,1.232h12.46a1.538,1.538,0,1,1,0,3.077Z" transform="translate(29.503 0)" stroke="rgba(0,0,0,0)" stroke-width="1" fill="url(#linear-gradient)"/>
    </g>
  </g>
</svg>
