<svg xmlns="http://www.w3.org/2000/svg" xmlns:xlink="http://www.w3.org/1999/xlink" width="160" height="160" viewBox="0 0 160 160">
  <defs>
    <clipPath id="clip-path">
      <rect id="Rectangle_4267" data-name="Rectangle 4267" width="160" height="160" fill="#fff"/>
    </clipPath>
    <linearGradient id="linear-gradient" x1="0.887" y1="0.133" x2="0.267" y2="0.738" gradientUnits="objectBoundingBox">
      <stop offset="0" stop-color="#5e4bdd"/>
      <stop offset="1" stop-color="#256add"/>
    </linearGradient>
  </defs>
  <g id="benefit-tree-tiers-support" clip-path="url(#clip-path)">
    <g id="Group_11449" data-name="Group 11449" transform="translate(34.508 30.094)">
      <path id="Path_11738" data-name="Path 11738" d="M727.886,78.152H684.25a1.72,1.72,0,0,1-1.62-1.14l-3.1-8.653a1.72,1.72,0,0,1,1.62-2.3H730.98a1.72,1.72,0,0,1,1.62,2.3l-3.1,8.653A1.718,1.718,0,0,1,727.886,78.152Zm-42.425-3.44h41.211l1.866-5.214H683.595Z" transform="translate(-654.6 -66.059)" stroke="rgba(0,0,0,0)" stroke-width="1" fill="url(#linear-gradient)"/>
      <path id="Path_11739" data-name="Path 11739" d="M697.128,108.961a1.7,1.7,0,0,1-.8-.2,1.718,1.718,0,0,1-.9-1.794l.791-4.99h-2.279a5.2,5.2,0,0,1-5.2-5.2V79.677a5.2,5.2,0,0,1,5.2-5.2h23.25a5.2,5.2,0,0,1,5.2,5.2V96.783a5.2,5.2,0,0,1-5.2,5.2H705.14l-6.823,6.507A1.734,1.734,0,0,1,697.128,108.961Zm-3.186-31.038a1.754,1.754,0,0,0-1.756,1.753V96.783a1.757,1.757,0,0,0,1.756,1.756h4.295a1.723,1.723,0,0,1,1.7,1.989l-.311,1.956,3.64-3.471a1.717,1.717,0,0,1,1.186-.475h12.74a1.758,1.758,0,0,0,1.756-1.756V79.677a1.756,1.756,0,0,0-1.756-1.753Z" transform="translate(-640.011 -52.861)" stroke="rgba(0,0,0,0)" stroke-width="1" fill="url(#linear-gradient)"/>
      <path id="Path_11740" data-name="Path 11740" d="M735.2,165.732H684.66a7.7,7.7,0,0,1-7.691-7.693v-18.5a1.72,1.72,0,0,1,1.72-1.72h8.153a1.73,1.73,0,0,1,1.186.475l4.333,4.13-.416-2.616a1.719,1.719,0,0,1,1.7-1.989h4.7a2.088,2.088,0,0,0,2.087-2.084V117.007a2.088,2.088,0,0,0-2.087-2.084H678.689a1.72,1.72,0,0,1-1.72-1.72V73.75a7.7,7.7,0,0,1,7.691-7.691H735.2a7.7,7.7,0,0,1,7.693,7.691v9.606a1.721,1.721,0,0,1-3.442,0V73.75A4.256,4.256,0,0,0,735.2,69.5H684.66a4.256,4.256,0,0,0-4.251,4.251v37.733h17.936a5.531,5.531,0,0,1,5.527,5.524v18.724a5.531,5.531,0,0,1-5.527,5.524H695.66l.9,5.653a1.722,1.722,0,0,1-2.888,1.515l-7.519-7.167h-5.743v16.783a4.255,4.255,0,0,0,4.251,4.251H735.2a4.255,4.255,0,0,0,4.251-4.251V121.953a1.721,1.721,0,1,1,3.442,0v36.085A7.7,7.7,0,0,1,735.2,165.732Z" transform="translate(-658.463 -66.059)" stroke="rgba(0,0,0,0)" stroke-width="1" fill="url(#linear-gradient)"/>
      <path id="Path_11741" data-name="Path 11741" d="M713.025,95.455H691.852a1.721,1.721,0,0,1,0-3.442h21.173a1.721,1.721,0,0,1,0,3.442Z" transform="translate(-637.837 -25.388)" stroke="rgba(0,0,0,0)" stroke-width="1" fill="url(#linear-gradient)"/>
      <path id="Path_11742" data-name="Path 11742" d="M713.025,100.429H691.852a1.72,1.72,0,0,1,0-3.44h21.173a1.72,1.72,0,1,1,0,3.44Z" transform="translate(-637.837 -17.591)" stroke="rgba(0,0,0,0)" stroke-width="1" fill="url(#linear-gradient)"/>
      <path id="Path_11743" data-name="Path 11743" d="M752.656,106.988h-77.7a1.721,1.721,0,1,1,0-3.442h77.7a1.721,1.721,0,0,1,0,3.442Z" transform="translate(-664.323 -7.316)" stroke="rgba(0,0,0,0)" stroke-width="1" fill="url(#linear-gradient)"/>
      <path id="Path_11744" data-name="Path 11744" d="M689.985,95.933h-15.03a5.2,5.2,0,0,1-5.2-5.2v-17.1a5.2,5.2,0,0,1,5.2-5.2h15.03a1.721,1.721,0,0,1,0,3.442h-15.03a1.756,1.756,0,0,0-1.753,1.756v17.1a1.756,1.756,0,0,0,1.753,1.756h15.03a1.72,1.72,0,1,1,0,3.44Z" transform="translate(-669.76 -62.336)" stroke="rgba(0,0,0,0)" stroke-width="1" fill="url(#linear-gradient)"/>
      <path id="Path_11745" data-name="Path 11745" d="M700.718,121.168a1.723,1.723,0,0,1-1.189-.475l-7.519-7.167H678.757A5.531,5.531,0,0,1,673.23,108V89.278a5.531,5.531,0,0,1,5.527-5.524H704.2a5.531,5.531,0,0,1,5.527,5.524V108a5.531,5.531,0,0,1-5.527,5.524h-2.685l.9,5.653a1.72,1.72,0,0,1-.9,1.792A1.7,1.7,0,0,1,700.718,121.168ZM678.757,87.194a2.086,2.086,0,0,0-2.084,2.084V108a2.086,2.086,0,0,0,2.084,2.084H692.7a1.73,1.73,0,0,1,1.186.475l4.333,4.13-.416-2.616a1.719,1.719,0,0,1,1.7-1.989h4.7A2.088,2.088,0,0,0,706.291,108V89.278a2.088,2.088,0,0,0-2.087-2.084Z" transform="translate(-664.323 -38.33)" stroke="rgba(0,0,0,0)" stroke-width="1" fill="url(#linear-gradient)"/>
    </g>
  </g>
</svg>
