<svg xmlns="http://www.w3.org/2000/svg" xmlns:xlink="http://www.w3.org/1999/xlink" width="160" height="160" viewBox="0 0 160 160">
  <defs>
    <clipPath id="clip-path">
      <rect id="Rectangle_4266" data-name="Rectangle 4266" width="160" height="160" fill="#fff"/>
    </clipPath>
    <linearGradient id="linear-gradient" x1="0.887" y1="0.133" x2="0.267" y2="0.738" gradientUnits="objectBoundingBox">
      <stop offset="0" stop-color="#5e4bdd"/>
      <stop offset="1" stop-color="#256add"/>
    </linearGradient>
  </defs>
  <g id="benefit-multi-chanel" clip-path="url(#clip-path)">
    <g id="Group_11447" data-name="Group 11447" transform="translate(31.939 30)">
      <path id="Path_11767" data-name="Path 11767" d="M755.3,78.512H674.422a7.281,7.281,0,0,1-7.27-7.272V21.672a7.281,7.281,0,0,1,7.27-7.272h7.473a1.72,1.72,0,0,1,0,3.44h-7.473a3.837,3.837,0,0,0-3.83,3.833V71.239a3.835,3.835,0,0,0,3.83,3.83H755.3a3.835,3.835,0,0,0,3.83-3.83V28.806a1.72,1.72,0,1,1,3.44,0V71.239A7.281,7.281,0,0,1,755.3,78.512Z" transform="translate(-667.152 2.666)" stroke="rgba(0,0,0,0)" stroke-width="1" fill="url(#linear-gradient)"/>
      <path id="Path_11768" data-name="Path 11768" d="M760.849,38.166H668.872a1.72,1.72,0,1,1,0-3.44h91.977a1.72,1.72,0,1,1,0,3.44Z" transform="translate(-667.152 34.517)" stroke="rgba(0,0,0,0)" stroke-width="1" fill="url(#linear-gradient)"/>
      <path id="Path_11769" data-name="Path 11769" d="M696.022,53.549h-11.47a1.72,1.72,0,0,1-1.72-1.72V39.756a1.722,1.722,0,0,1,1.72-1.722h11.47a1.722,1.722,0,0,1,1.72,1.722V51.829A1.72,1.72,0,0,1,696.022,53.549Zm-9.747-3.44H694.3V41.476h-8.025Z" transform="translate(-642.579 39.701)" stroke="rgba(0,0,0,0)" stroke-width="1" fill="url(#linear-gradient)"/>
      <path id="Path_11770" data-name="Path 11770" d="M707.149,53.278H681.864a1.722,1.722,0,0,1-1.723-1.72v-7.1a1.722,1.722,0,0,1,1.723-1.72h25.285a1.721,1.721,0,0,1,1.723,1.72v7.1A1.721,1.721,0,0,1,707.149,53.278Zm-23.565-3.442h21.846V46.178H683.583Z" transform="translate(-646.798 47.072)" stroke="rgba(0,0,0,0)" stroke-width="1" fill="url(#linear-gradient)"/>
      <path id="Path_11771" data-name="Path 11771" d="M724.6,48.945H677.642a1.721,1.721,0,1,1,0-3.442H724.6a1.721,1.721,0,0,1,0,3.442Z" transform="translate(-653.412 51.405)" stroke="rgba(0,0,0,0)" stroke-width="1" fill="url(#linear-gradient)"/>
      <path id="Path_11772" data-name="Path 11772" d="M696,54.3a21.907,21.907,0,1,1,21.907-21.907A21.931,21.931,0,0,1,696,54.3Zm0-40.372a18.466,18.466,0,1,0,18.465,18.465A18.485,18.485,0,0,0,696,13.929Z" transform="translate(-656.277 -3.466)" stroke="rgba(0,0,0,0)" stroke-width="1" fill="url(#linear-gradient)"/>
      <path id="Path_11773" data-name="Path 11773" d="M688.549,39.244c-5.688,0-9.978-2.652-9.978-6.166V27.161a1.722,1.722,0,0,1,2.464-1.553,18.472,18.472,0,0,0,15.1.38,1.723,1.723,0,0,1,2.387,1.586v5.5C698.524,36.592,694.235,39.244,688.549,39.244Zm-6.536-9.526v3.36c0,1.086,2.606,2.726,6.536,2.726s6.533-1.64,6.533-2.726V30.005A21.9,21.9,0,0,1,682.013,29.718Z" transform="translate(-649.258 19.967)" stroke="rgba(0,0,0,0)" stroke-width="1" fill="url(#linear-gradient)"/>
      <path id="Path_11774" data-name="Path 11774" d="M730.613,49.1a1.721,1.721,0,0,1-1.722-1.72V41a9.828,9.828,0,0,0-9.816-9.816h-8.1c-1.148,2.624-4.9,4.446-9.614,4.446s-8.469-1.823-9.613-4.446h-8.1A9.829,9.829,0,0,0,673.835,41v6.382a1.721,1.721,0,0,1-3.442,0V41a13.271,13.271,0,0,1,13.259-13.256h9.455a1.72,1.72,0,0,1,1.722,1.72c0,1.083,2.606,2.726,6.536,2.726s6.533-1.643,6.533-2.726a1.722,1.722,0,0,1,1.723-1.72h9.454A13.272,13.272,0,0,1,732.333,41v6.382A1.72,1.72,0,0,1,730.613,49.1Z" transform="translate(-662.073 23.579)" stroke="rgba(0,0,0,0)" stroke-width="1" fill="url(#linear-gradient)"/>
      <path id="Path_11775" data-name="Path 11775" d="M700.505,40.387a1.723,1.723,0,0,1-1.7-1.989l.726-4.577h-2.026a4.991,4.991,0,0,1-4.988-4.988V12.742a4.994,4.994,0,0,1,4.988-4.99h21.869a5,5,0,0,1,4.99,4.99v16.09a4.993,4.993,0,0,1-4.99,4.988H708.083l-6.392,6.092A1.71,1.71,0,0,1,700.505,40.387Zm-3-29.195a1.552,1.552,0,0,0-1.548,1.55v16.09a1.551,1.551,0,0,0,1.548,1.548h4.041a1.723,1.723,0,0,1,1.7,1.989L703,33.91l3.209-3.055a1.726,1.726,0,0,1,1.186-.475h11.98a1.55,1.55,0,0,0,1.548-1.548V12.742a1.55,1.55,0,0,0-1.548-1.55Z" transform="translate(-627.401 -7.752)" stroke="rgba(0,0,0,0)" stroke-width="1" fill="url(#linear-gradient)"/>
      <path id="Path_11776" data-name="Path 11776" d="M700.736,14.609h-3.147a1.721,1.721,0,0,1,0-3.442h3.147a1.721,1.721,0,1,1,0,3.442Z" transform="translate(-622.152 -2.401)" stroke="rgba(0,0,0,0)" stroke-width="1" fill="url(#linear-gradient)"/>
      <path id="Path_11777" data-name="Path 11777" d="M703.27,16.732h-3.037a1.721,1.721,0,1,1,0-3.442h3.037a1.721,1.721,0,1,1,0,3.442Z" transform="translate(-618.011 0.926)" stroke="rgba(0,0,0,0)" stroke-width="1" fill="url(#linear-gradient)"/>
    </g>
  </g>
</svg>
