<svg xmlns="http://www.w3.org/2000/svg" xmlns:xlink="http://www.w3.org/1999/xlink" width="160" height="160" viewBox="0 0 160 160">
  <defs>
    <clipPath id="clip-path">
      <rect id="Rectangle_4268" data-name="Rectangle 4268" width="160" height="160" fill="#fff"/>
    </clipPath>
    <linearGradient id="linear-gradient" x1="0.887" y1="0.133" x2="0.267" y2="0.738" gradientUnits="objectBoundingBox">
      <stop offset="0" stop-color="#5e4bdd"/>
      <stop offset="1" stop-color="#256add"/>
    </linearGradient>
  </defs>
  <g id="benefit-personalized-service" clip-path="url(#clip-path)">
    <g id="Group_11452" data-name="Group 11452" transform="translate(28.269 32.59)">
      <path id="Path_11746" data-name="Path 11746" d="M584.747,172.641a22.561,22.561,0,0,1-22.536-22.536,1.721,1.721,0,0,1,1.72-1.723h41.632a1.721,1.721,0,0,1,1.72,1.723A22.561,22.561,0,0,1,584.747,172.641Zm-19.019-20.816a19.1,19.1,0,0,0,38.038,0Z" transform="translate(-533.127 -106.404)" stroke="rgba(0,0,0,0)" stroke-width="1" fill="url(#linear-gradient)"/>
      <path id="Path_11747" data-name="Path 11747" d="M609.6,201.726H595.4a4.273,4.273,0,0,1-4.266-4.266v-8.2a40.343,40.343,0,0,1-8.286-3.43l-5.794,5.791a4.261,4.261,0,0,1-6.035,0l-10.04-10.037a4.27,4.27,0,0,1,0-6.038l5.794-5.791a40.381,40.381,0,0,1-3.432-8.286h-8.194a4.273,4.273,0,0,1-4.267-4.269v-7.1a1.721,1.721,0,0,1,1.72-1.723h99.8a1.721,1.721,0,0,1,1.72,1.723v7.1a4.274,4.274,0,0,1-4.269,4.269h-8.191a40.682,40.682,0,0,1-3.432,8.286l5.794,5.791a4.27,4.27,0,0,1,0,6.038l-10.039,10.037a4.368,4.368,0,0,1-6.038,0l-5.791-5.791a40.458,40.458,0,0,1-8.286,3.43v8.2A4.273,4.273,0,0,1,609.6,201.726Zm-27.039-19.758a1.73,1.73,0,0,1,.881.241,37.079,37.079,0,0,0,9.837,4.071,1.724,1.724,0,0,1,1.3,1.669v9.511a.829.829,0,0,0,.827.827h14.2a.83.83,0,0,0,.829-.827v-9.511a1.721,1.721,0,0,1,1.3-1.669,37.113,37.113,0,0,0,9.837-4.071,1.716,1.716,0,0,1,2.095.262l6.723,6.723a.831.831,0,0,0,1.171,0l10.039-10.04a.831.831,0,0,0,0-1.171l-6.723-6.723a1.717,1.717,0,0,1-.262-2.095,37.09,37.09,0,0,0,4.074-9.839,1.722,1.722,0,0,1,1.668-1.3h9.506a.828.828,0,0,0,.829-.827v-5.378H554.321V157.2a.828.828,0,0,0,.827.827h9.508a1.722,1.722,0,0,1,1.669,1.3,37.084,37.084,0,0,0,4.074,9.839,1.724,1.724,0,0,1-.262,2.095l-6.723,6.723a.824.824,0,0,0,0,1.171l10.04,10.04a.827.827,0,0,0,1.168,0l6.723-6.723A1.721,1.721,0,0,1,582.561,181.967Z" transform="translate(-550.881 -106.404)" stroke="rgba(0,0,0,0)" stroke-width="1" fill="url(#linear-gradient)"/>
      <path id="Path_11748" data-name="Path 11748" d="M595.9,190.919a40.859,40.859,0,0,1-40.813-40.813,1.721,1.721,0,0,1,1.72-1.723H635a1.721,1.721,0,0,1,1.72,1.723A40.858,40.858,0,0,1,595.9,190.919Zm-37.335-39.093a37.375,37.375,0,0,0,74.67,0Z" transform="translate(-544.284 -106.404)" stroke="rgba(0,0,0,0)" stroke-width="1" fill="url(#linear-gradient)"/>
      <path id="Path_11749" data-name="Path 11749" d="M567.914,157.073a1.72,1.72,0,0,1-1.72-1.72v-8.6a1.721,1.721,0,0,1,3.442,0v8.6A1.72,1.72,0,0,1,567.914,157.073Z" transform="translate(-526.885 -111.652)" stroke="rgba(0,0,0,0)" stroke-width="1" fill="url(#linear-gradient)"/>
      <path id="Path_11750" data-name="Path 11750" d="M576.165,157.073a1.72,1.72,0,0,1-1.72-1.72v-8.6a1.72,1.72,0,1,1,3.44,0v8.6A1.72,1.72,0,0,1,576.165,157.073Z" transform="translate(-513.955 -111.652)" stroke="rgba(0,0,0,0)" stroke-width="1" fill="url(#linear-gradient)"/>
      <path id="Path_11751" data-name="Path 11751" d="M576.755,151.411c-.067,0-.133,0-.2-.005-1.966.087-4.88-.76-7.124-5a15.617,15.617,0,0,1-1.725-7.29v-2.29a1.705,1.705,0,0,1,.252-.9c.852-1.4,4.459-3.9,8.61-3.9,4.256,0,8.931,2.618,8.931,5v2.087a15.647,15.647,0,0,1-1.723,7.29C581.6,150.513,578.8,151.411,576.755,151.411Zm-.2-3.442c1.643.013,3.042-1.022,4.179-3.17a12.194,12.194,0,0,0,1.325-5.678v-1.689a8.692,8.692,0,0,0-5.491-1.959,9.059,9.059,0,0,0-5.422,2.02v1.628a12.2,12.2,0,0,0,1.325,5.678C573.611,146.947,575,147.994,576.558,147.969Z" transform="translate(-524.511 -132.03)" stroke="rgba(0,0,0,0)" stroke-width="1" fill="url(#linear-gradient)"/>
      <path id="Path_11752" data-name="Path 11752" d="M586.2,153.544a1.72,1.72,0,0,1-1.72-1.72v-2.819a1.72,1.72,0,1,1,3.44,0v2.819A1.72,1.72,0,0,1,586.2,153.544Z" transform="translate(-498.226 -108.123)" stroke="rgba(0,0,0,0)" stroke-width="1" fill="url(#linear-gradient)"/>
      <path id="Path_11753" data-name="Path 11753" d="M586.372,153.29c-1.786,0-4.359-.821-6.338-4.562a14.1,14.1,0,0,1-1.561-6.59V140.1a1.724,1.724,0,0,1,.252-.9c.78-1.281,4.069-3.573,7.842-3.573,3.884,0,8.153,2.434,8.153,4.649v1.861a14.14,14.14,0,0,1-1.561,6.59c-2.046,3.866-4.734,4.644-6.613,4.559C586.49,153.29,586.431,153.29,586.372,153.29Zm-4.459-12.517v1.366a10.664,10.664,0,0,0,1.163,4.98c.978,1.848,2.149,2.716,3.471,2.729,1.425-.023,2.593-.883,3.571-2.729a10.666,10.666,0,0,0,1.16-4.98v-1.425a7.582,7.582,0,0,0-4.711-1.643A7.851,7.851,0,0,0,581.913,140.773Z" transform="translate(-507.643 -126.39)" stroke="rgba(0,0,0,0)" stroke-width="1" fill="url(#linear-gradient)"/>
      <path id="Path_11754" data-name="Path 11754" d="M557.876,153.544a1.72,1.72,0,0,1-1.72-1.72v-2.819a1.721,1.721,0,0,1,3.442,0v2.819A1.72,1.72,0,0,1,557.876,153.544Z" transform="translate(-542.615 -108.123)" stroke="rgba(0,0,0,0)" stroke-width="1" fill="url(#linear-gradient)"/>
      <path id="Path_11755" data-name="Path 11755" d="M565.436,153.29c-.062,0-.123,0-.185,0-1.779.082-4.466-.693-6.513-4.559a14.117,14.117,0,0,1-1.561-6.59v-1.861c0-2.215,4.267-4.649,8.153-4.649,3.771,0,7.062,2.292,7.842,3.573a1.723,1.723,0,0,1,.252.9v2.041a14.147,14.147,0,0,1-1.561,6.59C569.885,152.469,567.31,153.29,565.436,153.29Zm-.185-3.442c1.43-.023,2.593-.88,3.571-2.726a10.691,10.691,0,0,0,1.16-4.983v-1.381a7.931,7.931,0,0,0-4.651-1.687,7.574,7.574,0,0,0-4.713,1.645v1.422a10.644,10.644,0,0,0,1.163,4.98C562.756,148.967,563.94,149.835,565.251,149.848Z" transform="translate(-541.013 -126.39)" stroke="rgba(0,0,0,0)" stroke-width="1" fill="url(#linear-gradient)"/>
      <path id="Path_11756" data-name="Path 11756" d="M601.5,164.664H564.914a1.72,1.72,0,0,1-1.72-1.72V151.829A11.65,11.65,0,0,1,574.83,140.19h16.752a11.652,11.652,0,0,1,11.636,11.639v11.115A1.72,1.72,0,0,1,601.5,164.664Zm-34.865-3.442h33.145v-9.393a8.206,8.206,0,0,0-8.2-8.2H574.83a8.2,8.2,0,0,0-8.2,8.2Z" transform="translate(-531.586 -119.243)" stroke="rgba(0,0,0,0)" stroke-width="1" fill="url(#linear-gradient)"/>
      <path id="Path_11757" data-name="Path 11757" d="M602.551,160.316H580.156a1.721,1.721,0,0,1,0-3.442h20.675v-3.34a7.135,7.135,0,0,0-7.126-7.126H582.6a1.721,1.721,0,0,1,0-3.442H593.7a10.579,10.579,0,0,1,10.566,10.568V158.6A1.72,1.72,0,0,1,602.551,160.316Z" transform="translate(-507.702 -114.895)" stroke="rgba(0,0,0,0)" stroke-width="1" fill="url(#linear-gradient)"/>
      <path id="Path_11758" data-name="Path 11758" d="M577.592,160.316H555.2a1.72,1.72,0,0,1-1.72-1.72v-5.062a10.579,10.579,0,0,1,10.566-10.568h11.108a1.721,1.721,0,0,1,0,3.442H564.046a7.133,7.133,0,0,0-7.126,7.126v3.34h20.672a1.721,1.721,0,1,1,0,3.442Z" transform="translate(-546.808 -114.895)" stroke="rgba(0,0,0,0)" stroke-width="1" fill="url(#linear-gradient)"/>
    </g>
  </g>
</svg>
