<?xml version="1.0" encoding="utf-8"?>
<!-- Generator: Adobe Illustrator 24.2.1, SVG Export Plug-In . SVG Version: 6.00 Build 0)  -->
<svg version="1.1" id="Layer_1" xmlns="http://www.w3.org/2000/svg" xmlns:xlink="http://www.w3.org/1999/xlink" x="0px" y="0px"
	 width="200px" height="200px" viewBox="0 0 200 200" style="enable-background:new 0 0 200 200;" xml:space="preserve">
<style type="text/css">
	.st0{fill:url(#Rectangle_2480-2_1_);}
	.st1{opacity:0.2;}
	.st2{fill:#FFFFFF;}
</style>
<radialGradient id="Rectangle_2480-2_1_" cx="-720.251" cy="786.8483" r="0.498" gradientTransform="matrix(1.229658e-14 -200.8183 200.8183 1.229658e-14 -157913.5469 -144539.5781)" gradientUnits="userSpaceOnUse">
	<stop  offset="0" style="stop-color:#FF9F8A"/>
	<stop  offset="1" style="stop-color:#FF7657"/>
</radialGradient>
<rect id="Rectangle_2480-2" class="st0" width="200" height="200"/>
<g class="st1">
	<path class="st2" d="M148.5,71.1c-0.9-0.9-2.1-1.5-3.2-1.6c-0.2-1.2-0.7-2.3-1.6-3.2c-2.3-2.3-6-2.3-8.2,0l-5.2,5.2
		c-1.7-3.2-5-7.8-10.7-9.5c-1.7-0.5-3.5-0.1-4.7,1.2c-0.1,0.1-0.2,0.2-0.3,0.3c-1.2,1.5-1.5,3.5-0.7,5.2c2,4.2,4.5,12.1-0.1,20.5
		c-0.9-0.3-1.9-0.2-2.5,0.5l-8.7,8.7l-18-18L65.1,60.9c-0.9-0.9-2.4-0.9-3.4,0c-21.6,21.6-21.6,56.7,0,78.3
		c21.6,21.6,56.7,21.6,78.3,0c0.9-0.9,0.9-2.4,0-3.4l-15.4-15.4l8.7-8.7c0.6-0.6,0.8-1.4,0.7-2.1c3.6-1.6,7.8-4.1,11.7-7.9l8.5-8.5
		c2.3-2.3,2.3-6,0-8.2c-0.3-0.3-0.6-0.6-1-0.8c1.4-2.2,1.1-5.2-0.8-7.2c-0.6-0.6-1.4-1.1-2.2-1.4C150.3,74,149.8,72.4,148.5,71.1z
		 M145.2,74.5c0.4,0.4,0.4,1.1,0,1.5c-0.1,0.1-0.2,0.3-0.3,0.4c-0.2,0.2-0.5,0.4-0.7,0.6l-3.4,3.4c-0.9,0.9-0.9,2.4,0,3.4
		c0.9,0.9,2.4,0.9,3.4,0l3.4-3.4c0.4-0.4,1.1-0.4,1.5,0c0.4,0.4,0.4,1.1,0,1.5l-3.1,3.1l-0.3,0.3c-0.9,0.9-0.9,2.4,0,3.4
		c0.9,0.9,2.4,0.9,3.4,0l0.3-0.3c0.4-0.4,1.1-0.4,1.5,0c0.4,0.4,0.4,1.1,0,1.5l-8.5,8.5c-3.9,3.9-8.3,6.2-11.5,7.5l-13.4-13.4
		c6.4-10.7,3.2-20.8,0.7-25.9l0.1-0.1c4.9,1.5,7.5,6.2,8.5,8.5l-0.6,0.6c-0.9,0.9-0.9,2.4,0,3.4c0.9,0.9,2.4,0.9,3.4,0l1.7-1.7
		c0,0,0,0,0,0c0,0,0,0,0,0l7.6-7.6c0.4-0.4,1.1-0.4,1.5,0c0.4,0.4,0.4,1.1,0,1.5l-4.4,4.4c-0.9,0.9-0.9,2.4,0,3.4
		c0.9,0.9,2.4,0.9,3.4,0l4.4-4.4C144.1,74,144.8,74,145.2,74.5z M105.4,132.3c4.5-3.1,9-6.8,13.4-11l16,16
		C128.5,141.2,117.3,138.9,105.4,132.3z M79.6,82.1c-4.2,4.4-7.9,8.9-11,13.4c-6.6-11.9-8.9-23-5-29.3L79.6,82.1z M115.5,118
		c-4.7,4.5-9.7,8.4-14.6,11.6c-5.5-3.6-11.1-8-16.3-13.2c-5.2-5.2-9.6-10.7-13.2-16.3c3.2-4.9,7.1-9.9,11.6-14.6L115.5,118z
		 M68.6,104.6c3.5,5.1,7.7,10.2,12.6,15c4.9,4.9,10,9.1,15,12.6c-13.2,7.4-25.5,9.2-31.2,3.5C59.4,130.1,61.3,117.8,68.6,104.6z
		 M65.7,100c-5.5,9-8.5,17.8-8.7,25.2c-9-15.5-9-34.8,0-50.4C57.2,82.2,60.2,91,65.7,100z M100.9,135.2c9,5.5,17.8,8.5,25.2,8.7
		c-15.6,9-34.8,9-50.4,0C83,143.7,91.8,140.7,100.9,135.2z M120.5,116.3L106,101.8l7.1-7.1l15.3,15.3l-7.1,7.1L120.5,116.3z"/>
	<path class="st2" d="M91.2,80.9l3.5-0.5l1.6,3.1c0.9,1.7,2.6,2.6,4.5,2.3c0.9-0.1,1.7-0.6,2.4-1.2c0.6-0.6,1-1.4,1.2-2.4l0.6-3.5
		l3.5-0.6c0.9-0.1,1.7-0.6,2.4-1.2c0.6-0.6,1-1.4,1.2-2.4c0.3-1.9-0.6-3.6-2.3-4.5l-3.2-1.6l0.6-3.5c0.3-1.9-0.6-3.6-2.3-4.5
		c-1.7-0.9-3.6-0.5-4.9,0.8l-2.5,2.5l-3.1-1.6c-1.7-0.9-3.6-0.5-4.9,0.8c-1.3,1.3-1.6,3.3-0.8,4.9l1.6,3.2l-2.5,2.5
		c-1.3,1.3-1.6,3.3-0.8,4.9C87.6,80.3,89.4,81.2,91.2,80.9z M100.5,67.5c0.5-0.5,1.1-1.1,1.7-1.7l-0.4,2.4c-0.3,1.8,0.6,3.6,2.3,4.5
		l2.1,1.1l-2.3,0.4c-0.9,0.1-1.7,0.6-2.3,1.2s-1.1,1.4-1.2,2.3L99.9,80l-1.1-2.1c-0.8-1.6-2.6-2.6-4.5-2.3L92,75.9l1.7-1.7
		c1.3-1.3,1.6-3.3,0.8-4.9l-1.1-2.1l2.1,1.1C97.2,69.1,99.1,68.8,100.5,67.5z"/>
	<path class="st2" d="M89.9,50.7l3.5-0.5l1.6,3.1c0.9,1.7,2.6,2.6,4.5,2.3c0.9-0.1,1.7-0.6,2.4-1.2c0.6-0.6,1-1.4,1.2-2.4l0.6-3.5
		L107,48c0.9-0.1,1.7-0.6,2.4-1.2c0.6-0.6,1-1.4,1.2-2.4c0.3-1.9-0.6-3.6-2.3-4.5l-3.2-1.6l0.6-3.5c0.3-1.9-0.6-3.6-2.3-4.5
		c-1.7-0.9-3.6-0.5-4.9,0.8L96,33.7l-3.1-1.6c-1.7-0.9-3.6-0.5-4.9,0.8c-1.3,1.3-1.6,3.3-0.8,4.9l1.6,3.2l-2.5,2.5
		c-1.3,1.3-1.6,3.3-0.8,4.9C86.3,50.1,88,51,89.9,50.7z M99.1,37.4c0.5-0.5,1.2-1.1,1.7-1.7l-0.4,2.4c-0.3,1.8,0.6,3.6,2.3,4.5
		l2.1,1.1l-2.3,0.4c-0.9,0.1-1.7,0.6-2.3,1.2c-0.6,0.6-1.1,1.4-1.2,2.3l-0.4,2.3l-1.1-2.1c-0.8-1.6-2.6-2.6-4.5-2.3l-2.4,0.4
		l1.7-1.7c1.3-1.3,1.6-3.3,0.8-4.9L92,37.1l2.1,1.1C95.8,39,97.8,38.7,99.1,37.4z"/>
	<path class="st2" d="M137.3,112.9c-0.9,0.9-0.9,2.4,0,3.4l7.2,7.2c0.9,0.9,2.4,0.9,3.4,0c0.9-0.9,0.9-2.4,0-3.4l-7.2-7.2
		C139.7,112,138.2,112,137.3,112.9z"/>
	<path class="st2" d="M152,100.2c-0.9,0.9-0.9,2.4,0,3.4l4.6,4.6c0.9,0.9,2.4,0.9,3.4,0c0.9-0.9,0.9-2.4,0-3.4l-4.6-4.6
		C154.5,99.3,153,99.3,152,100.2z"/>
	<path class="st2" d="M113.2,49.6c-0.9,0.9-0.9,2.4,0,3.4l4.4,4.4c0.9,0.9,2.4,0.9,3.4,0c0.9-0.9,0.9-2.4,0-3.4l-4.4-4.4
		C115.6,48.7,114.1,48.7,113.2,49.6z"/>
	<path class="st2" d="M83.9,62.2c0.9-0.9,0.9-2.4,0-3.4l-6.2-6.2c-0.9-0.9-2.4-0.9-3.4,0c-0.9,0.9-0.9,2.4,0,3.4l6.2,6.2
		C81.5,63.1,83,63.1,83.9,62.2z"/>
</g>
</svg>
