<?xml version="1.0" encoding="utf-8"?>
<!-- Generator: Adobe Illustrator 22.0.1, SVG Export Plug-In . SVG Version: 6.00 Build 0)  -->
<svg version="1.1" id="Layer_1" xmlns="http://www.w3.org/2000/svg" xmlns:xlink="http://www.w3.org/1999/xlink" x="0px" y="0px"
	 width="200px" height="200px" viewBox="0 0 200 200" style="enable-background:new 0 0 200 200;" xml:space="preserve">
<style type="text/css">
	.st0{fill:url(#Rectangle_2480-2_1_);}
	.st1{opacity:0.2;fill:#FFFFFF;}
</style>
<radialGradient id="Rectangle_2480-2_1_" cx="140.9351" cy="-141.5708" r="0.498" gradientTransform="matrix(1.229658e-14 -200.8183 -200.8183 -1.229658e-14 -28330.0176 28402.3438)" gradientUnits="userSpaceOnUse">
	<stop  offset="0" style="stop-color:#FF9F8A"/>
	<stop  offset="1" style="stop-color:#FF7657"/>
</radialGradient>
<rect id="Rectangle_2480-2" class="st0" width="200" height="200"/>
<path id="Path_12022" class="st1" d="M143.8,133.3l-9.7,9.7c-2.3,2.3-6.8,2.9-10.7-1l-6.8-6.8c-3.2-3.2-7.7-4.5-12.6-4.2
	c-9.9,1.3-19.8-2.2-26.8-9.4c-11.8-12.5-11.8-32,0-44.5c5.9-6.1,14.1-9.6,22.6-9.7c8.6,0,16.8,3.3,22.9,9.4
	c6.9,6.7,10.2,16.3,9,25.8c-0.6,5,1.1,9.9,4.5,13.6l7.4,7.4C146.4,126.4,146.4,130.6,143.8,133.3z M80.9,80.1
	c-10.3,10.3-10.3,27.8-0.3,38.4c6.1,6.1,14.5,9.4,22.9,8.1c6-0.8,12.1,1.2,16.5,5.5l6.8,6.8c0.6,0.6,2.6,2.6,4.2,1l9.7-9.7
	c0.9-0.8,1-2.2,0.2-3c-0.1-0.1-0.1-0.1-0.2-0.2l-7.4-7.4c-4.2-4.2-6.5-11-5.8-17.4c0.9-8.1-1.9-16.2-7.7-21.9
	c-5.2-5.2-12.3-8.2-19.7-8.1C92.7,72.1,85.9,75,80.9,80.1z"/>
<path id="Path_12023" class="st1" d="M137.3,120.4l-16.1,16.1c-0.9,0.9-2.3,0.9-3.2,0.1s-0.9-2.3-0.1-3.2c0,0,0,0,0.1-0.1l16.1-16.1
	c0.9-0.9,2.3-0.9,3.2-0.1S138.3,119.5,137.3,120.4C137.4,120.4,137.4,120.4,137.3,120.4L137.3,120.4z"/>
<path id="Path_12024" class="st1" d="M71.2,70.4c-0.8,0.9-2.2,1-3,0.2c-0.1-0.1-0.1-0.1-0.2-0.2l-6.5-6.5c-0.9-0.9-0.8-2.4,0.1-3.2
	c0.9-0.8,2.3-0.8,3.2,0l6.5,6.5c0.9,0.8,1,2.2,0.2,3C71.3,70.3,71.2,70.3,71.2,70.4z"/>
<path id="Path_12025" class="st1" d="M101.8,57.8c-0.4,0.5-1,0.8-1.6,1c-1.2,0-2.2-0.9-2.3-2.2c0,0,0-0.1,0-0.1v-9
	c0-1.2,1.1-2.2,2.3-2.2c1.2,0,2.2,1,2.2,2.2l0,9C102.3,57,102.1,57.4,101.8,57.8L101.8,57.8z"/>
<path id="Path_12026" class="st1" d="M139,63.9l-6.5,6.5c-0.9,0.9-2.3,0.9-3.2,0.1c-0.9-0.9-0.9-2.3-0.1-3.2c0,0,0,0,0.1-0.1
	l6.5-6.5c0.9-0.9,2.3-0.9,3.2-0.1C139.9,61.5,139.9,63,139,63.9C139,63.9,139,63.9,139,63.9L139,63.9z"/>
<path id="Path_12027" class="st1" d="M154.1,101.1c-0.4,0.5-1,0.8-1.6,1h-9c-1.2,0-2.2-1.1-2.2-2.3c0-1.2,1-2.2,2.2-2.2h9
	c1.2,0,2.2,0.9,2.3,2.2c0,0,0,0.1,0,0.1C155.1,100.1,154.8,100.4,154.1,101.1z"/>
<path id="Path_12028" class="st1" d="M101.8,153.4c-0.4,0.5-1,0.8-1.6,1c-1.2,0-2.2-0.9-2.3-2.2c0,0,0-0.1,0-0.1l0-9
	c0-1.2,1.1-2.2,2.3-2.2c1.2,0,2.2,1,2.2,2.2v9C102.5,152.6,102.2,153,101.8,153.4z"/>
<path id="Path_12029" class="st1" d="M71.2,131.7l-6.5,6.5c-0.9,0.9-2.4,0.8-3.2-0.1c-0.8-0.9-0.8-2.3,0-3.2l6.5-6.5
	c0.9-0.9,2.4-0.8,3.2,0.1C72,129.4,72,130.8,71.2,131.7L71.2,131.7z"/>
<path id="Path_12030" class="st1" d="M58.6,101.1c-0.4,0.5-1,0.8-1.6,1l-9.4-0.3c-1.2,0-2.2-1.1-2.2-2.3c0-1.2,1-2.2,2.2-2.2h9
	c1.2,0,2.2,0.9,2.3,2.2c0,0,0,0.1,0,0.1C58.9,100.1,58.9,100.7,58.6,101.1L58.6,101.1z"/>
<path id="Path_12031" class="st1" d="M114.7,88.2c-0.8,0.9-2.2,1-3,0.2c-0.1-0.1-0.1-0.1-0.2-0.2c-6.3-6.1-16.3-6.1-22.6,0
	c-0.9,0.9-2.3,0.9-3.2,0.1s-0.9-2.3-0.1-3.2c0,0,0,0,0.1-0.1c8-8,20.9-8.1,28.9-0.1c0,0,0.1,0.1,0.1,0.1c0.9,0.8,1,2.2,0.2,3
	C114.9,88,114.8,88.1,114.7,88.2z"/>
</svg>
