<?xml version="1.0" encoding="utf-8"?>
<!-- Generator: Adobe Illustrator 24.2.1, SVG Export Plug-In . SVG Version: 6.00 Build 0)  -->
<svg version="1.1" id="Layer_1" xmlns="http://www.w3.org/2000/svg" xmlns:xlink="http://www.w3.org/1999/xlink" x="0px" y="0px"
	 width="210px" height="210px" viewBox="0 0 210 210" style="enable-background:new 0 0 210 210;" xml:space="preserve">
<style type="text/css">
	.st0{fill:#FFFFFF;}
	.st1{fill:#078742;}
	.st2{fill:#454949;}
</style>
<rect id="_1_5nQ4JqJKoHzlp_a3jmFhZA" class="st0" width="210" height="210"/>
<g id="M4BkAb.tif_1_">
	<g>
		<g>
			<path class="st1" d="M101.5,140.4c-1.2-0.5-2.4-0.4-3.7-0.6c-5.7-1.1-10.9-3.5-15.4-7.1c-1.1-0.8-1.1-1.3,0-2.2
				c1.5-1.3,2.4-1.3,3.9-0.1c9.3,6.8,19.5,9.4,30.8,6.2c3.7-1,7-2.9,10-5.4c0.8-0.6,1.6-1.3,2.8-1.5c-0.3,0.6-0.6,0.8-1,1.1
				c-7.7,6.3-16.4,9.8-26.5,9.5c-0.2,0-0.4,0-0.5,0.2C101.8,140.4,101.6,140.4,101.5,140.4z"/>
			<path class="st2" d="M192,114.4c-0.7,0.6-1.5,0.6-2.4,0.6c-2.8,0-5.5,0-8.3,0c-2,0-2.5-0.5-2.5-2.5c0-5.2,0-10.3,0-15.5
				c0-0.2,0-0.5,0-0.7c0.1-0.8,0.5-1.3,1.4-1.3c0.8,0,1.2,0.5,1.2,1.3c0,1,0,2,0,3c0,4.1,0,8.1,0,12.2c0,0.8,0.2,1,1,1
				c2.5,0,5,0,7.5,0c0.8,0,1.5,0,2.2,0.6C192,113.5,192,113.9,192,114.4z"/>
			<path class="st2" d="M24.3,111.1c2.7,0,5.1,0,7.6,0c0.8,0,1.1,0.2,1.1,1c0,2.9,0,2.9-2.9,2.9c-3.6,0-7.3,0-10.9,0
				c-0.9,0-1.1-0.2-1.2-1.1c-0.2-1.8,0.5-2.9,1.9-4c2.4-1.8,4.8-3.7,7-5.8c1.5-1.5,1.8-3.6,0.7-4.7c-1.2-1.2-3.2-0.9-4.8,0.5
				c-0.5,0.4-0.8,1.4-1.5,1.3c-0.6-0.1-1-0.8-1.6-1.2c-1.4-1.2-1.4-1.2-0.1-2.6c2.5-2.8,5.7-3.3,9.1-2.2c4.8,1.5,5.7,7.6,1.6,11.3
				C28.4,108,26.5,109.4,24.3,111.1z"/>
			<path class="st2" d="M143.9,104.6c0.3,0.1,0.5,0.2,0.7,0.3c2.2,1,3.2,2.7,3.1,5c-0.2,2.3-1.4,3.9-3.7,4.6c-1.3,0.4-2.6,0.5-4,0.5
				c-2,0-3.9,0-5.9,0c-1.5,0-1.9-0.4-1.9-1.9c0-5.4,0-10.8,0-16.2c0-1.4,0.4-1.9,1.8-1.8c2.6,0,5.2-0.2,7.8,0.1
				c3.5,0.4,5.6,3.4,4.6,6.7C145.9,103.2,145,104,143.9,104.6z M138.4,112.5c1.5,0,2.9,0.2,4.4-0.2c2-0.6,3-2.5,2.1-4.3
				c-0.6-1.3-1.9-1.6-3.2-1.8c-1.4-0.1-2.8-0.1-4.1-0.1c-2.8,0-2.8,0-2.8,2.8c0,1.2-0.5,2.8,0.2,3.5
				C135.6,112.9,137.2,112.5,138.4,112.5z M138,103.7c1,0,2.2,0,3.5-0.2c1.9-0.4,2.8-1.8,2.5-3.6c-0.2-1.2-1.4-2.2-3.1-2.3
				c-1.8-0.1-3.6,0-5.4-0.1c-0.6,0-0.7,0.3-0.7,0.8c0,0.8,0,1.6,0,2.4C134.7,103.7,134.7,103.7,138,103.7z"/>
			<path class="st2" d="M124.3,105c0,6.1-4.1,10.3-10,10.3c-6,0-10-4.2-10-10.3c0-6,4.1-10.1,10-10.2C120.1,94.8,124.3,99,124.3,105
				z M106.9,105c0,5.5,4,8.8,9.3,7.6c2.7-0.6,4.4-2.3,5.1-4.8c0.8-3,0.6-5.9-1.7-8.4c-0.8-0.9-1.7-1.5-2.9-1.8
				C110.4,96.1,106.7,100.1,106.9,105z"/>
			<path class="st2" d="M77.2,108.8c0,0.7,0,1.4,0,2.1c0,2.2-0.2,2.5-2.2,3.3c-3.6,1.4-7.2,1.8-10.7-0.2c-4.1-2.4-5.8-7.7-4.2-12.5
				c1.5-4.4,5.6-7,10.5-6.5c2,0.2,3.8,0.8,5.5,1.7c0.8,0.4,1.4,1,0.9,1.9c-0.5,0.9-1.3,0.7-2,0.3c-1.6-0.8-3.2-1.4-5-1.4
				c-4.9-0.1-8.1,3.2-7.8,8.1c0.4,7.6,7.8,8.5,12.3,6.3c0.3-0.2,0.4-0.4,0.4-0.7c0-1.3,0-2.6,0-3.9c0-0.6-0.3-0.7-0.8-0.7
				c-1.2,0-2.4,0-3.7,0c-0.8,0-1.5-0.3-1.4-1.2c0-0.9,0.6-1.2,1.4-1.2c1.7,0,3.4,0,5.1,0c1.1,0,1.6,0.6,1.6,1.6
				C77.2,106.7,77.2,107.7,77.2,108.8z"/>
			<path class="st2" d="M48.7,98.7c-2.9,0-5.5,0-8.2,0c-0.9,0-1.2-0.1-1.2-1.1c0.1-2.8,0-2.8,2.8-2.8c3.6,0,7.2,0,10.8,0
				c0.8,0,1,0.3,1.1,1.1c0.1,1.6-0.4,3-1.1,4.3c-2.6,4.6-5.1,9.3-7.6,14c-0.3,0.6-0.6,0.8-1.3,0.8c-1-0.1-2-0.1-3,0
				c-0.9,0-1.2-0.1-0.7-1c2.7-4.7,5.3-9.5,7.9-14.2C48.3,99.5,48.4,99.2,48.7,98.7z"/>
			<path class="st2" d="M170.5,115.1c-0.7,0-1-0.3-1.2-0.9c-0.5-1.2-1-2.4-1.5-3.6c-0.2-0.6-0.5-0.7-1.1-0.7c-2.7,0-5.4,0-8,0
				c-0.7,0-1,0.2-1.2,0.8c-0.4,1.1-0.9,2.2-1.4,3.4c-0.3,0.9-1,1.3-1.9,0.9c-0.9-0.4-0.9-1.1-0.5-1.9c2.4-5.6,4.8-11.3,7.1-16.9
				c0.3-0.8,0.9-1.2,1.8-1.2c0.9,0,1.5,0.4,1.8,1.2c2.4,5.7,4.8,11.3,7.2,17C172.1,114.3,171.5,115.1,170.5,115.1z M158.8,107.5
				c2.6,0,5.1,0,7.7,0c-1.3-3-2.5-6-3.8-9.2C161.3,101.5,160.1,104.4,158.8,107.5z"/>
			<path class="st2" d="M81.1,80.3c0.1-0.6,0.5-0.8,0.8-1.1c8.4-6.8,17.8-10.5,28.8-9.4c6.9,0.6,12.9,3.4,18.3,7.6
				c0.4,0.3,0.6,0.6,0.4,1.1c-0.6,1.5-3,2.3-4.3,1.3c-6.6-5.1-14-7.9-22.4-7.9c-7.1,0-13.4,2.3-18.9,6.8
				C83,79.4,82.2,79.9,81.1,80.3z"/>
			<path class="st2" d="M85.5,104.7c0-2.6,0-5.3,0-7.9c0-0.9,0.2-1.7,1.3-1.8c0.9-0.1,1.4,0.6,1.4,1.8c0,4.8,0,9.6,0,14.4
				c0,1,0.2,1.3,1.2,1.3c2.6-0.1,5.1,0,7.7,0c0.9,0,1.6,0.2,1.7,1.2c0,1.1-0.7,1.4-1.7,1.4c-3.1,0-6.2,0-9.3,0
				c-1.6,0-2.2-0.6-2.2-2.3C85.5,110.1,85.5,107.4,85.5,104.7z"/>
		</g>
	</g>
</g>
</svg>
