<svg xmlns="http://www.w3.org/2000/svg" xmlns:xlink="http://www.w3.org/1999/xlink" width="328.897" height="261.958" viewBox="0 0 328.897 261.958">
  <defs>
    <linearGradient id="linear-gradient" x1="0.22" y1="0.422" x2="1.257" y2="0.422" gradientUnits="objectBoundingBox">
      <stop offset="0" stop-color="#ff6143"/>
      <stop offset="0.556" stop-color="#ffb614"/>
      <stop offset="1" stop-color="#ffda00"/>
    </linearGradient>
    <linearGradient id="linear-gradient-2" x1="-0.576" y1="-2.159" x2="0.401" y2="-2.159" gradientUnits="objectBoundingBox">
      <stop offset="0" stop-color="#662d90"/>
      <stop offset="1" stop-color="#00adee"/>
    </linearGradient>
    <linearGradient id="linear-gradient-3" x1="1.021" y1="0.716" x2="0.358" y2="-0.242" xlink:href="#linear-gradient-2"/>
    <linearGradient id="linear-gradient-4" x1="1.599" y1="-0.712" x2="2.596" y2="-0.712" xlink:href="#linear-gradient-2"/>
    <linearGradient id="linear-gradient-5" x1="-0.223" y1="-1.517" x2="1.162" y2="-1.517" xlink:href="#linear-gradient-2"/>
    <linearGradient id="linear-gradient-6" x1="-1.832" y1="-2.068" x2="-0.051" y2="-2.068" xlink:href="#linear-gradient-2"/>
    <linearGradient id="linear-gradient-7" x1="18.927" y1="1.081" x2="17.81" y2="2.354" xlink:href="#linear-gradient-2"/>
    <linearGradient id="linear-gradient-8" x1="2.144" y1="-0.979" x2="3.141" y2="-0.979" xlink:href="#linear-gradient-2"/>
    <linearGradient id="linear-gradient-9" x1="7.739" y1="-2.972" x2="8.733" y2="-2.972" xlink:href="#linear-gradient-2"/>
  </defs>
  <g id="Group_4943" data-name="Group 4943" transform="translate(0.507)" opacity="0.8">
    <path id="Path_130" data-name="Path 130" d="M304.479,445.082c14.327-11.627,27.384-26.226,31.664-44.224,9.2-38.689-24.779-74.646-63.149-65.569-12.965,3.066-26.165,8.007-39.255,5.37-12.825-2.585-23.05-11.957-33.113-20.368-17.109-14.3-36.155-27.045-57.674-32.722-47.57-12.553-95.288,18.374-96.468,69.09-.682,29.309,14.932,56.38,32.7,78.636,24.429,30.6,59.028,50.062,98.036,53.511C222.454,492.8,269.873,473.171,304.479,445.082Z" transform="translate(-16.977 -262.066)" opacity="0.5" fill="url(#linear-gradient)"/>
    <path id="Path_131" data-name="Path 131" d="M309.979,421.221c.453.023.906.047,1.36.067,5.843.275,11.859.316,17.338-1.734,22.278-8.337,11.544-41,.915-54.461-12.513-15.849-33.1-23.5-52.852-18.826-12.963,3.068-26.163,8.009-39.253,5.37-12.825-2.585-23.05-11.955-33.113-20.366-17.111-14.3-36.155-27.045-57.674-32.722C99.13,286,51.412,316.921,50.232,367.639c-.682,29.309,14.931,56.379,32.7,78.636,13.777,17.254,49.435,53.629,74.619,42.14,8.641-3.942,14.786-11.827,19.893-19.837,7.341-11.518,13.312-23.938,21.624-34.777s19.571-20.253,33.021-22.632c11.907-2.106,23.976,1.479,35.765,4.175A247.358,247.358,0,0,0,309.979,421.221Z" transform="translate(-15.264 -257.046)" opacity="0.5" fill="url(#linear-gradient-2)"/>
    <path id="Path_132" data-name="Path 132" d="M309.406,437.543c14.327-11.629,27.384-26.227,31.664-44.225,9.2-38.688-24.779-74.645-63.149-65.569-12.963,3.067-26.164,8.009-39.255,5.37-12.825-2.585-23.05-11.955-33.113-20.366-17.109-14.3-36.155-27.045-57.673-32.723C100.31,267.476,52.592,298.4,51.412,349.12c-.682,29.308,14.932,56.379,32.7,78.636,24.429,30.595,59.028,50.06,98.038,53.509C227.381,485.266,274.8,465.633,309.406,437.543Z" transform="translate(-14.724 -265.514)" fill="none" stroke="#707070" stroke-miterlimit="10" stroke-width="1" opacity="0.371" style="mix-blend-mode: multiply;isolation: isolate"/>
    <path id="Path_133" data-name="Path 133" d="M211.612,474.172c16.7-15.9,27.813-43.606,53.853-46.679,24.888-2.936,57.96,18.72,76.85-6.636,11.285-15.149,5.342-34.242-5.851-47.366-9.306-10.913-22.414-16.959-35.113-22.922a118.771,118.771,0,0,1-35.918-25.727c-7.92-8.344-23.508-31.5-37.475-23.686-4.88,2.729-7.881,7.9-9.965,13.086-4.449,11.078-5.779,23.233-10.444,34.222s-14.241,21.316-26.179,21.369c-9.511.042-17.688-6.3-25.223-12.1a452.823,452.823,0,0,0-54.672-36.116c-10.588-5.943-22.438-11.632-34.389-9.485-17.689,3.178-39.335,25.9-37.551,44.34.71,7.34,4.16,14.172,8.449,20.169,10.938,15.3,27.445,26.183,37.149,42.29,14.126,23.447,12.251,55.3,30.873,75.362,16.95,18.262,38.106,13.574,59.615,6.83a123.231,123.231,0,0,0,44.422-25.5Q210.838,474.909,211.612,474.172Z" transform="translate(-24.765 -255.301)" opacity="0.501" fill="url(#linear-gradient-3)" style="mix-blend-mode: multiply;isolation: isolate"/>
    <path id="Path_134" data-name="Path 134" d="M125.173,304.626c6.664,5.143,16.381,6.132,23.252.481,8.816-7.248,8.85-21.465,1.281-29.624-16.344-17.619-41.257,5.424-29.064,24.247A19.8,19.8,0,0,0,125.173,304.626Z" transform="translate(15.455 -269.191)" fill="url(#linear-gradient-4)"/>
    <path id="Path_135" data-name="Path 135" d="M70.646,446.125c5.17,5.567,12.178,7.324,16.617,2.365,5.695-6.362,4.56-20.247-1.5-28.834-13.089-18.545-28.973,1.935-18.746,21.316A24.059,24.059,0,0,0,70.646,446.125Z" transform="translate(-9.073 -203.724)" opacity="0.869" fill="url(#linear-gradient-5)" style="mix-blend-mode: multiply;isolation: isolate"/>
    <path id="Path_136" data-name="Path 136" d="M156.813,309.214c4.271,1.717,8.933.8,10.7-3.175,2.267-5.1-1.14-12.569-6.549-15.735-11.683-6.839-17.475,8.927-7.394,17.009A12.908,12.908,0,0,0,156.813,309.214Z" transform="translate(29.626 -260.305)" fill="url(#linear-gradient-6)"/>
    <path id="Path_137" data-name="Path 137" d="M32.068,377.857c3.046,2.693,7.371,3.36,10.317.653,3.78-3.474,3.544-10.591.044-14.811-7.559-9.112-18.2,1.985-12.458,11.626A10.674,10.674,0,0,0,32.068,377.857Z" transform="translate(-25.265 -227.53)" fill="url(#linear-gradient-7)"/>
    <path id="Path_138" data-name="Path 138" d="M200.514,330.472a6.947,6.947,0,0,0,8.627.178c3.271-2.69,3.283-7.964.475-10.99-6.064-6.537-15.307,2.012-10.784,9A7.349,7.349,0,0,0,200.514,330.472Z" transform="translate(52.139 -247.183)" fill="url(#linear-gradient-8)"/>
    <path id="Path_139" data-name="Path 139" d="M46.525,373.67a2.948,2.948,0,0,0,3.662.076,3.3,3.3,0,0,0,.2-4.668c-2.575-2.776-6.5.855-4.579,3.821A3.1,3.1,0,0,0,46.525,373.67Z" transform="translate(-17.509 -223.974)" fill="none" stroke="#707070" stroke-miterlimit="10" stroke-width="1"/>
    <path id="Path_140" data-name="Path 140" d="M29.358,350.421a7.5,7.5,0,0,0,9.312.169c3.522-2.912,3.521-8.6.482-11.862-6.562-7.04-16.513,2.212-11.613,9.737A7.936,7.936,0,0,0,29.358,350.421Z" transform="translate(-26.229 -238.543)" fill="none" stroke="#707070" stroke-miterlimit="10" stroke-width="1"/>
    <path id="Path_141" data-name="Path 141" d="M202.327,399.042a2.952,2.952,0,0,0,3.663.077,3.3,3.3,0,0,0,.2-4.667c-2.575-2.776-6.5.854-4.579,3.819A3.105,3.105,0,0,0,202.327,399.042Z" transform="translate(53.728 -212.372)" fill="none" stroke="#707070" stroke-miterlimit="10" stroke-width="1"/>
    <path id="Path_142" data-name="Path 142" d="M158.937,282.8a4.825,4.825,0,0,0,5.991.124,5.393,5.393,0,0,0,.329-7.63c-4.21-4.539-10.628,1.4-7.487,6.246A5.118,5.118,0,0,0,158.937,282.8Z" transform="translate(33.533 -267.144)" fill="none" stroke="#707070" stroke-miterlimit="10" stroke-width="1"/>
    <path id="Path_143" data-name="Path 143" d="M124.191,449.828a2.95,2.95,0,0,0,3.663.076,3.3,3.3,0,0,0,.2-4.668c-2.575-2.776-6.5.855-4.579,3.821A3.129,3.129,0,0,0,124.191,449.828Z" transform="translate(18.002 -189.152)" fill="none" stroke="#707070" stroke-miterlimit="10" stroke-width="1"/>
    <path id="Path_144" data-name="Path 144" d="M217.055,307.066a2.95,2.95,0,0,0,3.663.076,3.3,3.3,0,0,0,.2-4.666c-2.575-2.776-6.5.854-4.579,3.819A3.158,3.158,0,0,0,217.055,307.066Z" transform="translate(60.462 -254.426)" fill="none" stroke="#707070" stroke-miterlimit="10" stroke-width="1"/>
    <path id="Path_145" data-name="Path 145" d="M157.234,313.53c-20.021-12.758-47.568-13.073-65.437,4.538-22.927,22.6-19.42,62.538,3.905,83.54,50.376,45.355,114.518-25.685,75.5-75.471A55.844,55.844,0,0,0,157.234,313.53Z" transform="translate(-3.337 -253.114)" opacity="0.501" fill="url(#linear-gradient-9)" style="mix-blend-mode: multiply;isolation: isolate"/>
  </g>
</svg>
