<svg xmlns="http://www.w3.org/2000/svg" xmlns:xlink="http://www.w3.org/1999/xlink" width="331.776" height="264.241" viewBox="0 0 331.776 264.241">
  <defs>
    <linearGradient id="linear-gradient" x1="0.22" y1="0.422" x2="1.257" y2="0.422" gradientUnits="objectBoundingBox">
      <stop offset="0" stop-color="#ff6143"/>
      <stop offset="0.556" stop-color="#ffb614"/>
      <stop offset="1" stop-color="#ffda00"/>
    </linearGradient>
    <linearGradient id="linear-gradient-2" x1="0.2" y1="0.288" x2="1.236" y2="0.288" xlink:href="#linear-gradient"/>
    <linearGradient id="linear-gradient-3" x1="0.173" y1="0.294" x2="1.21" y2="0.294" xlink:href="#linear-gradient"/>
    <linearGradient id="linear-gradient-4" x1="1.021" y1="0.716" x2="0.358" y2="-0.242" gradientUnits="objectBoundingBox">
      <stop offset="0" stop-color="#662d90"/>
      <stop offset="1" stop-color="#00adee"/>
    </linearGradient>
    <linearGradient id="linear-gradient-5" x1="0" y1="0.5" x2="1" y2="0.5" xlink:href="#linear-gradient"/>
    <linearGradient id="linear-gradient-8" x1="1.068" y1="-0.042" x2="2.978" y2="-0.042" xlink:href="#linear-gradient"/>
  </defs>
  <g id="Group_4941" data-name="Group 4941" opacity="0.8">
    <path id="Path_96" data-name="Path 96" d="M271.753,272.96c17.214-7.382,34.01-18.018,43.179-34.405,19.708-35.227-3.5-79.757-43.484-81.532-13.509-.6-27.768.567-39.82-5.64-11.805-6.079-19.193-18.063-26.685-29.067-12.743-18.71-27.807-36.43-47.244-47.941C114.727,48.93,59.56,65.9,44.347,115.094c-8.791,28.429-1.05,59.191,10.132,85.85,15.373,36.649,43.759,65.247,80.895,79.43C178.429,296.818,230.174,290.794,271.753,272.96Z" transform="translate(-4.967 -46.149)" opacity="0.5" fill="url(#linear-gradient)"/>
    <path id="Path_97" data-name="Path 97" d="M269.665,284.007c17.214-7.382,34.012-18.018,43.179-34.405,19.71-35.227-3.5-79.757-43.484-81.532-13.509-.6-27.768.567-39.82-5.64-11.805-6.079-19.192-18.063-26.685-29.067-12.741-18.71-27.807-36.43-47.244-47.941-42.971-25.444-98.139-8.476-113.35,40.72-8.792,28.429-1.052,59.191,10.131,85.851,15.373,36.647,43.759,65.247,80.895,79.429C176.341,307.865,228.087,301.841,269.665,284.007Z" transform="translate(-5.966 -40.856)" opacity="0.275" fill="url(#linear-gradient-2)"/>
    <path id="Path_98" data-name="Path 98" d="M272.359,284.546c17.213-7.384,34.01-18.018,43.178-34.405,19.71-35.227-3.5-79.757-43.484-81.532-13.509-.6-27.768.566-39.819-5.64-11.807-6.079-19.193-18.065-26.687-29.067C192.805,115.192,177.74,97.47,158.3,85.961c-42.971-25.446-98.139-8.476-113.35,40.72-8.791,28.429-1.05,59.191,10.132,85.85,15.371,36.649,43.759,65.247,80.893,79.43C179.033,308.4,230.778,302.38,272.359,284.546Z" transform="translate(-4.676 -40.598)" opacity="0.275" fill="url(#linear-gradient-3)"/>
    <path id="Path_99" data-name="Path 99" d="M278.552,267.053c17.213-7.382,34.01-18.018,43.179-34.405,19.708-35.227-3.5-79.757-43.486-81.532-13.508-.6-27.768.567-39.819-5.64-11.805-6.079-19.193-18.065-26.685-29.067C199,97.7,183.935,79.977,164.5,68.468c-42.971-25.444-98.139-8.476-113.352,40.72-8.791,28.429-1.05,59.191,10.132,85.85,15.371,36.649,43.759,65.247,80.895,79.43C185.228,290.911,236.973,284.887,278.552,267.053Z" transform="translate(-1.709 -48.98)" fill="none" stroke="#707070" stroke-miterlimit="10" stroke-width="1" opacity="0.275"/>
    <path id="Path_100" data-name="Path 100" d="M186.274,262.226c20.715-10.89,39.245-34.868,65.525-30.65,25.117,4.032,51.406,34.346,76.88,14.824,15.219-11.663,14.709-31.954,7.418-47.871-6.062-13.237-17.185-22.774-27.931-32.118a120.527,120.527,0,0,1-27.941-35.078c-6.659-12.707-12.354-26.838-24.135-35.8-10.873-8.273-25.369-9.93-38.51-5.664-37.689,12.238-54.079,72.5-96.979,70.627-19.408-.846-36.406-17.362-55.825-13.981-12.271,2.137-23.251,12.524-28.712,25.419-8.236,19.449-4.64,45.33,7.056,62.75,19.8,29.5,56.441,42.045,90.773,41.11A125.08,125.08,0,0,0,184.339,263.2Q185.313,262.732,186.274,262.226Z" transform="translate(-9.256 -34.191)" opacity="0.501" fill="url(#linear-gradient-4)" style="mix-blend-mode: multiply;isolation: isolate"/>
    <path id="Path_101" data-name="Path 101" d="M140.833,83.6c5.082,6.869,14.3,10.529,22.572,6.917C174.022,85.877,178,72,172.868,61.94c-11.074-21.738-41.789-6.143-35.1,15.617A20.076,20.076,0,0,0,140.833,83.6Z" transform="translate(41.166 -51.49)" fill="url(#linear-gradient-5)"/>
    <path id="Path_102" data-name="Path 102" d="M30.694,212.086c5.081,6.869,14.3,10.529,22.57,6.917,10.617-4.634,14.592-18.506,9.464-28.571-11.074-21.736-41.789-6.143-35.1,15.618A20.089,20.089,0,0,0,30.694,212.086Z" transform="translate(-11.608 10.077)" fill="url(#linear-gradient-5)" style="mix-blend-mode: multiply;isolation: isolate"/>
    <path id="Path_103" data-name="Path 103" d="M73.952,175.036c13.3,17.976,37.414,27.552,59.071,18.1,27.787-12.129,38.189-48.433,24.768-74.774-28.985-56.887-109.367-16.075-91.866,40.873A52.6,52.6,0,0,0,73.952,175.036Z" transform="translate(6.013 -32.552)" opacity="0.358" fill="url(#linear-gradient-5)" style="mix-blend-mode: multiply;isolation: isolate"/>
    <path id="Path_104" data-name="Path 104" d="M157,104.071c3.695,2.859,8.5,3.26,11.329-.135,3.63-4.355,2.373-12.589-2.032-17.18-9.512-9.915-19.54,3.872-11.935,14.559A13.121,13.121,0,0,0,157,104.071Z" transform="translate(48.283 -36.228)" fill="url(#linear-gradient-8)" style="mix-blend-mode: multiply;isolation: isolate"/>
    <path id="Path_105" data-name="Path 105" d="M18.249,135.9c2.228,3.475,6.267,5.325,9.894,3.5,4.655-2.344,6.4-9.36,4.149-14.45-4.855-10.995-18.319-3.108-15.388,7.9A10.794,10.794,0,0,0,18.249,135.9Z" transform="translate(-16.492 -18.826)" fill="url(#linear-gradient-5)"/>
    <path id="Path_106" data-name="Path 106" d="M193.024,136.321a7.051,7.051,0,0,0,8.373,2.565c3.939-1.719,5.414-6.866,3.511-10.6-4.109-8.064-15.5-2.279-13.024,5.794A7.456,7.456,0,0,0,193.024,136.321Z" transform="translate(67.381 -16.551)" fill="url(#linear-gradient-5)" style="mix-blend-mode: multiply;isolation: isolate"/>
    <path id="Path_107" data-name="Path 107" d="M32.668,136.023a2.993,2.993,0,0,0,3.556,1.09,3.348,3.348,0,0,0,1.491-4.5c-1.745-3.424-6.584-.969-5.531,2.46A3.174,3.174,0,0,0,32.668,136.023Z" transform="translate(-9.044 -13.409)" fill="none" stroke="#707070" stroke-miterlimit="10" stroke-width="1"/>
    <path id="Path_108" data-name="Path 108" d="M22.986,108.737a7.611,7.611,0,0,0,9.044,2.747c4.247-1.867,5.825-7.425,3.761-11.45-4.457-8.691-16.74-2.417-14.04,6.289A8.057,8.057,0,0,0,22.986,108.737Z" transform="translate(-14.155 -30.227)" fill="none" stroke="#707070" stroke-miterlimit="10" stroke-width="1"/>
    <path id="Path_109" data-name="Path 109" d="M173.645,207.052a7.189,7.189,0,0,0,8.536,2.617c4.014-1.753,5.519-7,3.578-10.805-4.187-8.22-15.8-2.322-13.274,5.906A7.593,7.593,0,0,0,173.645,207.052Z" transform="translate(58.082 17.231)" fill="none" stroke="#707070" stroke-miterlimit="10" stroke-width="2.4"/>
    <path id="Path_110" data-name="Path 110" d="M166.716,77.367a3,3,0,0,0,3.556,1.09,3.35,3.35,0,0,0,1.491-4.5c-1.744-3.424-6.584-.967-5.529,2.461A3.136,3.136,0,0,0,166.716,77.367Z" transform="translate(55.186 -41.515)" fill="none" stroke="#707070" stroke-miterlimit="10" stroke-width="1"/>
    <path id="Path_111" data-name="Path 111" d="M86.581,230.5a3,3,0,0,0,3.556,1.09,3.348,3.348,0,0,0,1.491-4.5c-1.745-3.426-6.584-.969-5.531,2.46A3.174,3.174,0,0,0,86.581,230.5Z" transform="translate(16.789 31.859)" fill="none" stroke="#707070" stroke-miterlimit="10" stroke-width="1"/>
    <path id="Path_112" data-name="Path 112" d="M214.9,118.529a3,3,0,0,0,3.556,1.089,3.348,3.348,0,0,0,1.491-4.5c-1.744-3.424-6.584-.967-5.529,2.461A3.136,3.136,0,0,0,214.9,118.529Z" transform="translate(78.275 -21.792)" fill="none" stroke="#707070" stroke-miterlimit="10" stroke-width="1"/>
    <path id="Path_113" data-name="Path 113" d="M128.317,62.263a3.861,3.861,0,0,0,4.8,1.6c2.259-1.075,3.1-4.291,2.013-6.625-2.355-5.041-8.887-1.424-7.465,3.621A4.856,4.856,0,0,0,128.317,62.263Z" transform="translate(36.681 -49.895)" fill="url(#linear-gradient-5)"/>
  </g>
</svg>
