<svg id="cs-solution-03" xmlns="http://www.w3.org/2000/svg" width="278.531" height="242.639" viewBox="0 0 278.531 242.639">
  <g id="Group_4660" data-name="Group 4660" transform="translate(0 32.677)">
    <g id="Group_4657" data-name="Group 4657" transform="translate(0 103.334)">
      <path id="Path_218" data-name="Path 218" d="M465.918,251.159A104.994,104.994,0,0,1,361.7,158.891l3.27-.394a101.7,101.7,0,0,0,201.095,5.431,23.562,23.562,0,0,1,23.335-19.4h48.5v3.294H589.4A20.277,20.277,0,0,0,569.307,164.5,104.761,104.761,0,0,1,465.918,251.159Z" transform="translate(-361.699 -144.531)"/>
    </g>
    <g id="Group_4658" data-name="Group 4658" transform="translate(0.01)">
      <path id="Path_219" data-name="Path 219" d="M364.974,174.449l-3.269-.4c6.18-50.47,49.083-90.1,99.8-92.176a105.264,105.264,0,0,1,106.411,79.937l-3.2.781C553.291,115.745,509.934,83.2,461.636,85.162,412.516,87.176,370.96,125.56,364.974,174.449Z" transform="translate(-361.705 -81.781)"/>
    </g>
    <g id="Group_4659" data-name="Group 4659" transform="translate(262.523 91.304)">
      <path id="Path_220" data-name="Path 220" d="M523.445,164.581l-2.329-2.329,11.35-11.35-11.35-11.349,2.329-2.328L537.124,150.9Z" transform="translate(-521.116 -137.226)"/>
    </g>
  </g>
  <g id="Group_4662" data-name="Group 4662" transform="translate(262.523 123.981)">
    <g id="Group_4661" data-name="Group 4661">
      <path id="Path_221" data-name="Path 221" d="M523.445,164.581l-2.329-2.329,11.35-11.35-11.35-11.349,2.329-2.328L537.124,150.9Z" transform="translate(-521.116 -137.226)"/>
    </g>
  </g>
  <path id="Path_222" data-name="Path 222" d="M472.8,96.262a34.324,34.324,0,1,0-42.626,33.271l8.3,11,8.3-11A34.306,34.306,0,0,0,472.8,96.262Z" transform="translate(-334.239 -61.938)" fill="#855aed"/>
  <g id="Group_4663" data-name="Group 4663" transform="translate(87.068 20.468)">
    <path id="Path_223" data-name="Path 223" d="M416.74,98.731a7.788,7.788,0,0,1-2.169-5.792V82.273a7.744,7.744,0,0,1,2.169-5.755,8.949,8.949,0,0,1,11.639,0,7.706,7.706,0,0,1,2.19,5.755V92.939a7.75,7.75,0,0,1-2.19,5.792,8.944,8.944,0,0,1-11.639,0Zm7.87-3.162a3.375,3.375,0,0,0,.774-2.335V82.016a3.308,3.308,0,0,0-.774-2.317,2.653,2.653,0,0,0-2.058-.846,2.6,2.6,0,0,0-2.042.846,3.362,3.362,0,0,0-.753,2.317V93.234a3.432,3.432,0,0,0,.753,2.335,2.569,2.569,0,0,0,2.042.865A2.622,2.622,0,0,0,424.61,95.569Z" transform="translate(-414.571 -74.367)"/>
    <path id="Path_224" data-name="Path 224" d="M441.654,92.059a10.232,10.232,0,0,1-.738,3.972,6.478,6.478,0,0,1-2.666,3.384,9.137,9.137,0,0,1-9.634-.331,6.565,6.565,0,0,1-2.594-4.12,12.17,12.17,0,0,1-.331-2.5.39.39,0,0,1,.441-.441h4.3a.39.39,0,0,1,.441.441,10.305,10.305,0,0,0,.221,1.545,2.781,2.781,0,0,0,.919,1.581,2.715,2.715,0,0,0,3.33.038,2.826,2.826,0,0,0,.937-1.472,9.42,9.42,0,0,0,.295-2.427,9.313,9.313,0,0,0-.295-2.464,3.023,3.023,0,0,0-.975-1.545,2.468,2.468,0,0,0-1.6-.552,2.559,2.559,0,0,0-1.471.552.451.451,0,0,1-.257.072.506.506,0,0,1-.369-.145l-2.169-2.429a.451.451,0,0,1-.147-.331.42.42,0,0,1,.147-.293l5.48-5.334a.12.12,0,0,0,.036-.147.152.152,0,0,0-.148-.074h-8.2a.439.439,0,0,1-.441-.441V75.031a.439.439,0,0,1,.441-.441h14.38a.439.439,0,0,1,.441.441v3.677a.924.924,0,0,1-.221.552l-4.56,4.818c-.1.1-.072.173.074.221a5.149,5.149,0,0,1,2.776,1.342,5.92,5.92,0,0,1,1.635,2.776A11.958,11.958,0,0,1,441.654,92.059Z" transform="translate(-407.378 -74.223)"/>
  </g>
  <g id="Group_4678" data-name="Group 4678" transform="translate(-379.17 -136.895)">
    <path id="Path_225" data-name="Path 225" d="M468.47,291.063a1.408,1.408,0,0,1-1.407-1.407V275.165a1.407,1.407,0,0,1,2.814,0v14.491A1.408,1.408,0,0,1,468.47,291.063Z" transform="translate(14.998 26.774)"/>
    <path id="Path_226" data-name="Path 226" d="M457.607,298.058h-6.344a6.088,6.088,0,0,1-6.08-6.082V271.762a8.76,8.76,0,0,1,5.788-8.228l2.663-.956a1.407,1.407,0,0,1,.95,2.649l-2.663.955A5.942,5.942,0,0,0,448,271.762v20.215a3.271,3.271,0,0,0,3.268,3.268h6.344a1.407,1.407,0,0,1,0,2.814Z" transform="translate(1.05 19.78)"/>
    <path id="Path_227" data-name="Path 227" d="M484.3,297.932H453.387a1.407,1.407,0,0,1-1.407-1.407V282.034a1.406,1.406,0,0,1,2.812,0v13.084H484.3a3.283,3.283,0,0,0,3.279-3.279v-20.2a5.942,5.942,0,0,0-3.931-5.581l-1.757-.629a1.407,1.407,0,0,1,.948-2.649l1.757.629a8.761,8.761,0,0,1,5.795,8.229v20.2A6.1,6.1,0,0,1,484.3,297.932Z" transform="translate(5.515 19.906)"/>
    <path id="Path_228" data-name="Path 228" d="M465.258,270.668a12.71,12.71,0,1,1,12.711-12.71A12.723,12.723,0,0,1,465.258,270.668Zm0-22.609a9.9,9.9,0,1,0,9.9,9.9A9.91,9.91,0,0,0,465.258,248.059Z" transform="translate(5.821 8.573)"/>
    <path id="Path_229" data-name="Path 229" d="M461.011,280.289a1.405,1.405,0,0,1-1.405-1.407v-9.7a1.406,1.406,0,0,1,2.812,0v9.7A1.406,1.406,0,0,1,461.011,280.289Z" transform="translate(10.253 22.902)"/>
    <path id="Path_230" data-name="Path 230" d="M478.213,268.6a1.387,1.387,0,0,1-.582-.128,1.4,1.4,0,0,1-.823-1.279v-8.213l-3.738-.285a1.335,1.335,0,0,1-.347-.071,4.074,4.074,0,0,1-2.76-3.858V235.973a4.082,4.082,0,0,1,4.077-4.078h28.214a4.082,4.082,0,0,1,4.078,4.078v18.971a4.068,4.068,0,0,1-3.38,4.017,1.134,1.134,0,0,1-.182.019l-13.653.58-9.98,8.691A1.408,1.408,0,0,1,478.213,268.6ZM473.5,255.906l4.824.37a1.406,1.406,0,0,1,1.3,1.4V264.1l8.02-6.986a1.4,1.4,0,0,1,.864-.345l14.039-.6a1.263,1.263,0,0,0,.976-1.23V235.973a1.265,1.265,0,0,0-1.266-1.264H474.039a1.265,1.265,0,0,0-1.264,1.264v18.791A1.263,1.263,0,0,0,473.5,255.906Z" transform="translate(17.161)"/>
    <path id="Path_231" data-name="Path 231" d="M492.918,240.381H476.723a1.406,1.406,0,0,1,0-2.812h16.195a1.406,1.406,0,1,1,0,2.812Z" transform="translate(20.487 3.523)"/>
    <path id="Path_232" data-name="Path 232" d="M492.918,244.707H476.723a1.406,1.406,0,0,1,0-2.812h16.195a1.406,1.406,0,1,1,0,2.812Z" transform="translate(20.487 6.363)"/>
    <path id="Path_233" data-name="Path 233" d="M511.888,285.513H444.914a1.407,1.407,0,1,1,0-2.814h66.974a1.407,1.407,0,1,1,0,2.814Z" transform="translate(0 32.325)"/>
  </g>
</svg>
