<svg id="cs-solution-04" xmlns="http://www.w3.org/2000/svg" width="279.202" height="243" viewBox="0 0 279.202 243">
  <rect id="Rectangle_2472" data-name="Rectangle 2472" width="279" height="243" transform="translate(0.202)" fill="rgba(71,0,255,0)"/>
  <g id="Group_4643" data-name="Group 4643" transform="translate(0 32.677)">
    <path id="Path_175" data-name="Path 175" d="M766.869,291.744a105,105,0,0,1-104.22-92.268l3.272-.4a101.689,101.689,0,1,0,0-24.634l-3.272-.394a104.987,104.987,0,1,1,104.22,117.691Z" transform="translate(-662.648 -81.781)"/>
  </g>
  <path id="Path_176" data-name="Path 176" d="M773.74,96.262a34.324,34.324,0,1,0-42.627,33.271l8.3,11,8.3-11A34.306,34.306,0,0,0,773.74,96.262Z" transform="translate(-635.196 -61.938)" fill="#30cef9"/>
  <g id="Group_4677" data-name="Group 4677" transform="translate(86.611 20.468)">
    <path id="Path_88" data-name="Path 88" d="M566.046,98.731a7.788,7.788,0,0,1-2.169-5.792V82.273a7.744,7.744,0,0,1,2.169-5.755,8.952,8.952,0,0,1,11.641,0,7.712,7.712,0,0,1,2.188,5.755V92.939a7.756,7.756,0,0,1-2.188,5.792,8.946,8.946,0,0,1-11.641,0Zm7.872-3.162a3.383,3.383,0,0,0,.772-2.335V82.016a3.315,3.315,0,0,0-.772-2.317,2.657,2.657,0,0,0-2.058-.846,2.6,2.6,0,0,0-2.044.846,3.37,3.37,0,0,0-.753,2.317V93.234a3.44,3.44,0,0,0,.753,2.335,2.575,2.575,0,0,0,2.044.865A2.627,2.627,0,0,0,573.917,95.569Z" transform="translate(-563.877 -74.367)"/>
    <path id="Path_89" data-name="Path 89" d="M592.705,89.246a.425.425,0,0,1,.128.313v3.788a.439.439,0,0,1-.44.441h-1.326a.162.162,0,0,0-.183.183v5.922a.426.426,0,0,1-.13.313.421.421,0,0,1-.311.128h-4.3a.425.425,0,0,1-.313-.128.419.419,0,0,1-.128-.313V93.971a.163.163,0,0,0-.185-.183H575.328a.439.439,0,0,1-.441-.441V90.368a1.8,1.8,0,0,1,.11-.552l5.774-14.895a.481.481,0,0,1,.514-.331h4.6c.369,0,.491.171.369.515l-5.3,13.792c-.025.147.025.221.146.221h4.413a.164.164,0,0,0,.185-.184V84.741a.441.441,0,0,1,.441-.441h4.3a.417.417,0,0,1,.311.13.426.426,0,0,1,.13.311v4.193a.163.163,0,0,0,.183.184h1.326A.424.424,0,0,1,592.705,89.246Z" transform="translate(-556.756 -74.223)"/>
  </g>
  <g id="Group_4680" data-name="Group 4680" transform="translate(-13.418 -30.401)">
    <path id="Path_261" data-name="Path 261" d="M114.744,162.435H94.824a5.564,5.564,0,0,1-5.556-5.558V136.959a5.564,5.564,0,0,1,5.556-5.558h19.92a5.565,5.565,0,0,1,5.558,5.558v19.918A5.564,5.564,0,0,1,114.744,162.435Zm-19.92-28.284a2.811,2.811,0,0,0-2.806,2.808v19.918a2.811,2.811,0,0,0,2.806,2.808h19.92a2.811,2.811,0,0,0,2.808-2.808V136.959a2.811,2.811,0,0,0-2.808-2.808Z" transform="translate(13.338)"/>
    <path id="Path_262" data-name="Path 262" d="M108.732,149.374H94.183A1.377,1.377,0,0,1,92.807,148v-.267a8.65,8.65,0,0,1,17.3,0V148A1.376,1.376,0,0,1,108.732,149.374Zm-13.07-2.75h11.589a5.9,5.9,0,0,0-11.589,0Z" transform="translate(16.797 7.507)"/>
    <path id="Path_263" data-name="Path 263" d="M99.6,143.667a5.034,5.034,0,1,1,5.034-5.034A5.039,5.039,0,0,1,99.6,143.667Zm0-7.318a2.284,2.284,0,1,0,2.284,2.284A2.286,2.286,0,0,0,99.6,136.349Z" transform="translate(18.52 2.148)"/>
    <path id="Path_264" data-name="Path 264" d="M128.525,183.672h-19.92a5.562,5.562,0,0,1-5.556-5.556V158.2a5.563,5.563,0,0,1,5.556-5.558h19.92a5.563,5.563,0,0,1,5.556,5.558v19.919A5.562,5.562,0,0,1,128.525,183.672Zm-19.92-28.284A2.809,2.809,0,0,0,105.8,158.2v19.919a2.809,2.809,0,0,0,2.806,2.806h19.92a2.809,2.809,0,0,0,2.806-2.806V158.2a2.809,2.809,0,0,0-2.806-2.808Z" transform="translate(26.807 20.755)"/>
    <path id="Path_265" data-name="Path 265" d="M122.511,170.611H107.962a1.376,1.376,0,0,1-1.374-1.376v-.267a8.649,8.649,0,0,1,17.3,0v.267A1.376,1.376,0,0,1,122.511,170.611Zm-13.07-2.75h11.591a5.9,5.9,0,0,0-11.591,0Z" transform="translate(30.266 28.262)"/>
    <path id="Path_266" data-name="Path 266" d="M113.384,164.9a5.034,5.034,0,1,1,5.034-5.034A5.04,5.04,0,0,1,113.384,164.9Zm0-7.316a2.283,2.283,0,1,0,2.284,2.282A2.286,2.286,0,0,0,113.384,157.588Z" transform="translate(31.988 22.903)"/>
    <path id="Path_267" data-name="Path 267" d="M128.525,183.672h-19.92a5.562,5.562,0,0,1-5.556-5.556V158.2a5.563,5.563,0,0,1,5.556-5.558h19.92a5.563,5.563,0,0,1,5.556,5.558v19.919A5.562,5.562,0,0,1,128.525,183.672Zm-19.92-28.284A2.809,2.809,0,0,0,105.8,158.2v19.919a2.809,2.809,0,0,0,2.806,2.806h19.92a2.809,2.809,0,0,0,2.806-2.806V158.2a2.809,2.809,0,0,0-2.806-2.808Z" transform="translate(26.807 20.755)"/>
    <path id="Path_268" data-name="Path 268" d="M122.511,170.611H107.962a1.376,1.376,0,0,1-1.374-1.376v-.267a8.649,8.649,0,0,1,17.3,0v.267A1.376,1.376,0,0,1,122.511,170.611Zm-13.07-2.75h11.591a5.9,5.9,0,0,0-11.591,0Z" transform="translate(30.266 28.262)"/>
    <path id="Path_269" data-name="Path 269" d="M113.384,164.9a5.034,5.034,0,1,1,5.034-5.034A5.04,5.04,0,0,1,113.384,164.9Zm0-7.316a2.283,2.283,0,1,0,2.284,2.282A2.286,2.286,0,0,0,113.384,157.588Z" transform="translate(31.988 22.903)"/>
    <path id="Path_270" data-name="Path 270" d="M101.1,183.672H81.176a5.564,5.564,0,0,1-5.556-5.556V158.2a5.564,5.564,0,0,1,5.556-5.558H101.1a5.565,5.565,0,0,1,5.558,5.558v19.919A5.564,5.564,0,0,1,101.1,183.672Zm-19.92-28.284A2.811,2.811,0,0,0,78.37,158.2v19.919a2.81,2.81,0,0,0,2.806,2.806H101.1a2.809,2.809,0,0,0,2.806-2.806V158.2a2.809,2.809,0,0,0-2.806-2.808Z" transform="translate(0 20.755)"/>
    <path id="Path_271" data-name="Path 271" d="M95.082,170.611H80.533a1.376,1.376,0,0,1-1.374-1.376v-.267a8.65,8.65,0,0,1,17.3,0v.267A1.377,1.377,0,0,1,95.082,170.611Zm-13.068-2.75H93.6a5.9,5.9,0,0,0-11.589,0Z" transform="translate(3.459 28.262)"/>
    <path id="Path_272" data-name="Path 272" d="M85.955,164.9a5.034,5.034,0,1,1,5.034-5.034A5.04,5.04,0,0,1,85.955,164.9Zm0-7.316a2.283,2.283,0,1,0,2.284,2.282A2.286,2.286,0,0,0,85.955,157.588Z" transform="translate(5.181 22.903)"/>
    <path id="Path_273" data-name="Path 273" d="M84.212,169.154a1.374,1.374,0,0,1-1.374-1.374V139.927a1.374,1.374,0,0,1,1.374-1.374H96.928a1.375,1.375,0,0,1,0,2.75H85.588V167.78A1.374,1.374,0,0,1,84.212,169.154Z" transform="translate(7.054 6.99)"/>
    <path id="Path_274" data-name="Path 274" d="M118.054,169.154a1.376,1.376,0,0,1-1.376-1.374V141.3H104.946a1.375,1.375,0,0,1,0-2.75h13.108a1.374,1.374,0,0,1,1.374,1.374V167.78A1.374,1.374,0,0,1,118.054,169.154Z" transform="translate(27.318 6.99)"/>
    <path id="Path_275" data-name="Path 275" d="M117.252,162.54H91.3a1.375,1.375,0,1,1,0-2.75h25.952a1.375,1.375,0,1,1,0,2.75Z" transform="translate(13.979 27.745)"/>
    <path id="Path_276" data-name="Path 276" d="M97.862,176.306a1.374,1.374,0,0,1-1.376-1.374V147.079a1.375,1.375,0,0,1,2.75,0v27.853A1.374,1.374,0,0,1,97.862,176.306Z" transform="translate(20.393 13.98)"/>
  </g>
</svg>
