<svg id="cs-solution-01" xmlns="http://www.w3.org/2000/svg" width="279.292" height="242.639" viewBox="0 0 279.292 242.639">
  <g id="Group_4599" data-name="Group 4599" transform="translate(0 32.678)">
    <g id="Group_4597" data-name="Group 4597">
      <path id="Path_40" data-name="Path 40" d="M165.3,291.743a104.982,104.982,0,0,1-4.413-209.872,105.3,105.3,0,0,1,106.411,79.937l-3.2.781A101.7,101.7,0,0,0,63.619,185.244a101.7,101.7,0,0,0,201.819,19.269,23.568,23.568,0,0,1,23.336-19.4h48.5v3.294h-48.5a20.278,20.278,0,0,0-20.092,16.674A104.76,104.76,0,0,1,165.3,291.743Z" transform="translate(-60.314 -81.782)"/>
    </g>
    <g id="Group_4598" data-name="Group 4598" transform="translate(263.285 91.303)">
      <path id="Path_41" data-name="Path 41" d="M222.523,164.581l-2.329-2.329,11.35-11.35-11.35-11.349,2.329-2.328L236.2,150.9Z" transform="translate(-220.194 -137.226)"/>
    </g>
  </g>
  <path id="Path_42" data-name="Path 42" d="M171.868,96.262a34.324,34.324,0,1,0-42.628,33.271l8.3,11,8.3-11A34.306,34.306,0,0,0,171.868,96.262Z" transform="translate(-32.563 -61.938)" fill="#f4be14"/>
  <g id="Group_4600" data-name="Group 4600" transform="translate(91.448 20.468)">
    <path id="Path_43" data-name="Path 43" d="M118.015,98.731a7.788,7.788,0,0,1-2.169-5.792V82.273a7.744,7.744,0,0,1,2.169-5.755,8.949,8.949,0,0,1,11.639,0,7.705,7.705,0,0,1,2.189,5.755V92.939a7.749,7.749,0,0,1-2.189,5.792,8.944,8.944,0,0,1-11.639,0Zm7.87-3.162a3.375,3.375,0,0,0,.774-2.335V82.016a3.308,3.308,0,0,0-.774-2.317,2.653,2.653,0,0,0-2.058-.846,2.6,2.6,0,0,0-2.042.846,3.362,3.362,0,0,0-.753,2.317V93.234a3.431,3.431,0,0,0,.753,2.335,2.569,2.569,0,0,0,2.042.865A2.622,2.622,0,0,0,125.885,95.569Z" transform="translate(-115.846 -74.367)"/>
    <path id="Path_44" data-name="Path 44" d="M130.649,74.59h4.45a.425.425,0,0,1,.313.128.43.43,0,0,1,.128.313V99.893a.439.439,0,0,1-.441.441h-4.3a.439.439,0,0,1-.441-.441V79.629a.25.25,0,0,0-.054-.148.1.1,0,0,0-.128-.036l-3.017.588-.147.038q-.331,0-.331-.405V76.54a.522.522,0,0,1,.331-.515L130.1,74.7A1.557,1.557,0,0,1,130.649,74.59Z" transform="translate(-108.841 -74.223)"/>
  </g>
  <g id="Group_4681" data-name="Group 4681" transform="translate(-377.766 -141.084)">
    <path id="Path_277" data-name="Path 277" d="M498.3,284.117H470.42a4.434,4.434,0,0,1-4.431-4.429v-.652a2.349,2.349,0,0,1,2.346-2.346h32.054a2.349,2.349,0,0,1,2.346,2.346v.652A4.434,4.434,0,0,1,498.3,284.117Zm-29.708-4.82v.392a1.827,1.827,0,0,0,1.825,1.823H498.3a1.827,1.827,0,0,0,1.825-1.823V279.3Z" transform="translate(22.032 25.861)"/>
    <path id="Path_278" data-name="Path 278" d="M499.042,288.572H468.161a1.3,1.3,0,0,1-1.3-1.3V270.5a4.433,4.433,0,0,1,4.429-4.429h24.627a4.434,4.434,0,0,1,4.431,4.429v16.768A1.3,1.3,0,0,1,499.042,288.572Zm-29.577-2.606H497.74V270.5a1.825,1.825,0,0,0-1.825-1.823H471.288a1.824,1.824,0,0,0-1.823,1.823Z" transform="translate(22.792 16.585)"/>
    <path id="Path_279" data-name="Path 279" d="M491.012,282.138H471.749a2.348,2.348,0,0,1-2.346-2.346v-9.034a2.348,2.348,0,0,1,2.346-2.346h19.263a2.347,2.347,0,0,1,2.344,2.346v9.034A2.347,2.347,0,0,1,491.012,282.138Zm-19-2.606H490.75v-8.513H472.009Z" transform="translate(25.014 18.631)"/>
    <path id="Path_280" data-name="Path 280" d="M485.692,265.129H457.807a4.434,4.434,0,0,1-4.429-4.429v-.652a2.348,2.348,0,0,1,2.346-2.346h32.054a2.349,2.349,0,0,1,2.346,2.346v.652A4.434,4.434,0,0,1,485.692,265.129Zm-29.708-4.82v.392a1.825,1.825,0,0,0,1.823,1.823h27.885a1.825,1.825,0,0,0,1.825-1.823v-.392Z" transform="translate(11.017 9.276)"/>
    <path id="Path_281" data-name="Path 281" d="M486.432,269.585H455.551a1.3,1.3,0,0,1-1.3-1.3V251.513a4.434,4.434,0,0,1,4.431-4.429H483.3a4.434,4.434,0,0,1,4.429,4.429v16.768A1.3,1.3,0,0,1,486.432,269.585Zm-29.579-2.606h28.275V251.513a1.826,1.826,0,0,0-1.823-1.823H458.678a1.827,1.827,0,0,0-1.825,1.823Z" transform="translate(11.776 0)"/>
    <path id="Path_282" data-name="Path 282" d="M478.4,263.151H459.137a2.349,2.349,0,0,1-2.346-2.346v-9.034a2.349,2.349,0,0,1,2.346-2.346H478.4a2.349,2.349,0,0,1,2.346,2.346v9.034A2.349,2.349,0,0,1,478.4,263.151Zm-19-2.606h18.742v-8.513H459.4Z" transform="translate(13.998 2.046)"/>
    <path id="Path_283" data-name="Path 283" d="M473.08,284.117H445.2a4.434,4.434,0,0,1-4.431-4.429v-.652a2.349,2.349,0,0,1,2.346-2.346h32.054a2.349,2.349,0,0,1,2.346,2.346v.652A4.434,4.434,0,0,1,473.08,284.117Zm-29.708-4.82v.392a1.827,1.827,0,0,0,1.825,1.823H473.08a1.827,1.827,0,0,0,1.825-1.823V279.3Z" transform="translate(0 25.861)"/>
    <path id="Path_284" data-name="Path 284" d="M473.82,288.572H442.939a1.3,1.3,0,0,1-1.3-1.3V270.5a4.434,4.434,0,0,1,4.431-4.429h24.627a4.433,4.433,0,0,1,4.429,4.429v16.768A1.3,1.3,0,0,1,473.82,288.572Zm-29.579-2.606h28.277V270.5a1.825,1.825,0,0,0-1.825-1.823H446.066a1.825,1.825,0,0,0-1.825,1.823Z" transform="translate(0.759 16.585)"/>
    <path id="Path_285" data-name="Path 285" d="M465.787,282.138H446.526a2.348,2.348,0,0,1-2.346-2.346v-9.034a2.348,2.348,0,0,1,2.346-2.346h19.261a2.348,2.348,0,0,1,2.346,2.346v9.034A2.348,2.348,0,0,1,465.787,282.138Zm-19-2.606h18.741v-8.513H446.786Z" transform="translate(2.982 18.631)"/>
    <path id="Path_286" data-name="Path 286" d="M451.179,280.625a1.3,1.3,0,0,1-1.3-1.3V253.7a1.3,1.3,0,0,1,1.3-1.3h8.189a1.3,1.3,0,0,1,0,2.606h-6.885v24.322A1.3,1.3,0,0,1,451.179,280.625Z" transform="translate(7.958 4.637)"/>
    <path id="Path_287" data-name="Path 287" d="M480.221,280.625a1.3,1.3,0,0,1-1.3-1.3V255h-6.883a1.3,1.3,0,1,1,0-2.606h8.187a1.3,1.3,0,0,1,1.3,1.3v25.624A1.3,1.3,0,0,1,480.221,280.625Z" transform="translate(26.173 4.637)"/>
    <path id="Path_288" data-name="Path 288" d="M475.8,273.986H459.421a1.3,1.3,0,0,1,0-2.606H475.8a1.3,1.3,0,1,1,0,2.606Z" transform="translate(15.158 21.222)"/>
    <path id="Path_289" data-name="Path 289" d="M463.791,283.685a1.3,1.3,0,0,1-1.3-1.3v-20.8a1.3,1.3,0,1,1,2.606,0v20.8A1.3,1.3,0,0,1,463.791,283.685Z" transform="translate(18.975 11.523)"/>
  </g>
</svg>
