<svg xmlns="http://www.w3.org/2000/svg" width="279" height="243" viewBox="0 0 279 243">
  <g id="cs-solution-03" transform="translate(0.798)">
    <rect id="Rectangle_2473" data-name="Rectangle 2473" width="279" height="243" transform="translate(-0.798)" fill="rgba(71,0,255,0)"/>
    <g id="Group_4643" data-name="Group 4643" transform="translate(0 32.677)">
      <path id="Path_175" data-name="Path 175" d="M766.869,291.744a105,105,0,0,1-104.22-92.268l3.272-.4a101.689,101.689,0,1,0,0-24.634l-3.272-.394a104.987,104.987,0,1,1,104.22,117.691Z" transform="translate(-662.648 -81.781)"/>
    </g>
    <path id="Path_176" data-name="Path 176" d="M773.74,96.262a34.324,34.324,0,1,0-42.627,33.271l8.3,11,8.3-11A34.306,34.306,0,0,0,773.74,96.262Z" transform="translate(-635.196 -61.938)" fill="#06dbb8"/>
    <g id="Group_4684" data-name="Group 4684" transform="translate(-195.487 26.89)">
      <path id="Path_305" data-name="Path 305" d="M315.241,81.449H263a1.311,1.311,0,0,1,0-2.623h52.241a1.311,1.311,0,0,1,0,2.623Z" transform="translate(0 4.507)"/>
      <path id="Path_306" data-name="Path 306" d="M269.561,79.027h-2.814a1.311,1.311,0,0,1,0-2.623h2.814a1.311,1.311,0,0,1,0,2.623Z" transform="translate(3.581 2.192)"/>
      <path id="Path_307" data-name="Path 307" d="M289.5,79.027H271.315a1.311,1.311,0,0,1,0-2.623H289.5a1.311,1.311,0,0,1,0,2.623Z" transform="translate(7.947 2.192)"/>
      <path id="Path_308" data-name="Path 308" d="M294.338,127.261a22.889,22.889,0,1,1,16.193-6.7A22.83,22.83,0,0,1,294.338,127.261Zm0-43.157a20.268,20.268,0,1,0,14.339,5.93A20.213,20.213,0,0,0,294.338,84.1Z" transform="translate(9.327 7.048)"/>
      <path id="Path_309" data-name="Path 309" d="M270.41,122.83a5.852,5.852,0,0,1-4.142-9.993l12.225-12.225a1.313,1.313,0,0,1,1.854,0l6.428,6.43a1.308,1.308,0,0,1,0,1.852L274.55,121.118A5.829,5.829,0,0,1,270.41,122.83Zm9.01-19.437-11.3,11.3a3.235,3.235,0,1,0,4.576,4.574l11.3-11.3Z" transform="translate(2.74 24.96)"/>
      <path id="Path_310" data-name="Path 310" d="M280.765,112.594a1.3,1.3,0,0,1-.927-.383l-8.5-8.5a1.31,1.31,0,0,1,0-1.852l3.639-3.639a1.31,1.31,0,0,1,1.852,1.854l-2.711,2.711,6.643,6.643,2.711-2.711a1.311,1.311,0,1,1,1.854,1.854l-3.638,3.638A1.3,1.3,0,0,1,280.765,112.594Z" transform="translate(8.857 22.677)"/>
      <path id="Path_311" data-name="Path 311" d="M292.174,120.671a18.462,18.462,0,1,1,13.056-5.407A18.342,18.342,0,0,1,292.174,120.671Zm0-34.3a15.841,15.841,0,1,0,11.2,4.639A15.736,15.736,0,0,0,292.174,86.369Z" transform="translate(11.491 9.211)"/>
      <path id="Path_316" data-name="Path 316" d="M332.89,125.794H320.828a1.311,1.311,0,0,1,0-2.623H332.89a3.182,3.182,0,0,0,3.178-3.178V79.909a3.182,3.182,0,0,0-3.178-3.178h-65.4a3.182,3.182,0,0,0-3.178,3.178v40.085a3.182,3.182,0,0,0,3.178,3.178h8.435a1.311,1.311,0,1,1,0,2.623h-8.435a5.807,5.807,0,0,1-5.8-5.8V79.909a5.8,5.8,0,0,1,5.8-5.8h65.4a5.8,5.8,0,0,1,5.8,5.8v40.085A5.807,5.807,0,0,1,332.89,125.794Z" transform="translate(0 0)"/>
    </g>
    <g id="Group_4690" data-name="Group 4690" transform="translate(87.58 19.468)">
      <path id="Path_223" data-name="Path 223" d="M416.74,98.731a7.788,7.788,0,0,1-2.169-5.792V82.273a7.744,7.744,0,0,1,2.169-5.755,8.949,8.949,0,0,1,11.639,0,7.706,7.706,0,0,1,2.19,5.755V92.939a7.75,7.75,0,0,1-2.19,5.792,8.944,8.944,0,0,1-11.639,0Zm7.87-3.162a3.375,3.375,0,0,0,.774-2.335V82.016a3.308,3.308,0,0,0-.774-2.317,2.653,2.653,0,0,0-2.058-.846,2.6,2.6,0,0,0-2.042.846,3.362,3.362,0,0,0-.753,2.317V93.234a3.432,3.432,0,0,0,.753,2.335,2.569,2.569,0,0,0,2.042.865A2.622,2.622,0,0,0,424.61,95.569Z" transform="translate(-414.571 -74.367)"/>
      <path id="Path_224" data-name="Path 224" d="M441.654,92.059a10.232,10.232,0,0,1-.738,3.972,6.478,6.478,0,0,1-2.666,3.384,9.137,9.137,0,0,1-9.634-.331,6.565,6.565,0,0,1-2.594-4.12,12.17,12.17,0,0,1-.331-2.5.39.39,0,0,1,.441-.441h4.3a.39.39,0,0,1,.441.441,10.305,10.305,0,0,0,.221,1.545,2.781,2.781,0,0,0,.919,1.581,2.715,2.715,0,0,0,3.33.038,2.826,2.826,0,0,0,.937-1.472,9.42,9.42,0,0,0,.295-2.427,9.313,9.313,0,0,0-.295-2.464,3.023,3.023,0,0,0-.975-1.545,2.468,2.468,0,0,0-1.6-.552,2.559,2.559,0,0,0-1.471.552.451.451,0,0,1-.257.072.506.506,0,0,1-.369-.145l-2.169-2.429a.451.451,0,0,1-.147-.331.42.42,0,0,1,.147-.293l5.48-5.334a.12.12,0,0,0,.036-.147.152.152,0,0,0-.148-.074h-8.2a.439.439,0,0,1-.441-.441V75.031a.439.439,0,0,1,.441-.441h14.38a.439.439,0,0,1,.441.441v3.677a.924.924,0,0,1-.221.552l-4.56,4.818c-.1.1-.072.173.074.221a5.149,5.149,0,0,1,2.776,1.342,5.92,5.92,0,0,1,1.635,2.776A11.958,11.958,0,0,1,441.654,92.059Z" transform="translate(-407.378 -74.223)"/>
    </g>
  </g>
</svg>
