<svg xmlns="http://www.w3.org/2000/svg" xmlns:xlink="http://www.w3.org/1999/xlink" width="640" height="480" viewBox="0 0 640 480"><defs><linearGradient id="a" x1="0.529" y1="0.245" x2="0.296" y2="0.833" gradientUnits="objectBoundingBox"><stop offset="0" stop-color="#a77ef7"/><stop offset="1" stop-color="#5e65d6"/></linearGradient><linearGradient id="b" x1="0.503" y1="0.298" x2="0.861" y2="0.872" gradientUnits="objectBoundingBox"><stop offset="0" stop-color="#c4e0f5"/><stop offset="1" stop-color="#e1e8f6"/></linearGradient><linearGradient id="c" x1="0.702" y1="0.319" x2="0.024" y2="0.926" gradientUnits="objectBoundingBox"><stop offset="0" stop-color="#1c8ef4"/><stop offset="1" stop-color="#00cfdd"/></linearGradient><linearGradient id="d" x1="0.479" y1="0.466" x2="0.496" y2="0.516" gradientUnits="objectBoundingBox"><stop offset="0" stop-color="#6d6afe"/><stop offset="1" stop-color="#3fb0f7"/></linearGradient><linearGradient id="e" x1="0.482" y1="0.228" x2="0.628" y2="1.281" gradientUnits="objectBoundingBox"><stop offset="0" stop-color="#94e69a"/><stop offset="1" stop-color="#17adc9"/></linearGradient><linearGradient id="f" x1="0.429" y1="0.103" x2="0.544" y2="0.744" gradientUnits="objectBoundingBox"><stop offset="0" stop-color="#fd90da"/><stop offset="1" stop-color="#8e6dfd"/></linearGradient><linearGradient id="g" x1="0.608" y1="-0.544" x2="0.497" y2="0.317" xlink:href="#f"/><linearGradient id="h" x1="0.07" y1="0.831" x2="1.01" y2="0.108" gradientUnits="objectBoundingBox"><stop offset="0" stop-color="#fa79b6"/><stop offset="1" stop-color="#ffbfab"/></linearGradient><linearGradient id="i" x1="-0.53" y1="1.292" x2="1.169" y2="-0.014" xlink:href="#h"/><linearGradient id="j" x1="0.365" y1="0.388" x2="0.891" y2="0.824" xlink:href="#c"/><linearGradient id="k" x1="0.501" y1="0.558" x2="0.455" y2="0.374" xlink:href="#c"/><linearGradient id="l" x1="0.582" y1="0.844" x2="0.412" y2="0.13" xlink:href="#c"/><linearGradient id="m" x1="0.384" y1="0.407" x2="0.759" y2="0.743" xlink:href="#c"/><linearGradient id="n" x1="0.169" y1="0.229" x2="0.948" y2="0.774" gradientUnits="objectBoundingBox"><stop offset="0" stop-color="#40457f"/><stop offset="1" stop-color="#1e2353"/></linearGradient><linearGradient id="o" x1="0.224" y1="0.209" x2="1.122" y2="0.777" xlink:href="#n"/><linearGradient id="p" x1="0.558" y1="0.216" x2="0.291" y2="0.89" xlink:href="#a"/><linearGradient id="q" x1="0.643" y1="0.153" x2="0.361" y2="0.863" xlink:href="#a"/><linearGradient id="r" x1="0.507" y1="0.589" x2="0.459" y2="0.31" gradientUnits="objectBoundingBox"><stop offset="0" stop-color="#ff8a78"/><stop offset="1" stop-color="#ffa799"/></linearGradient><linearGradient id="s" x1="0.554" y1="0.216" x2="0.283" y2="0.899" xlink:href="#a"/><linearGradient id="t" x1="0.444" y1="0.352" x2="0.608" y2="0.706" xlink:href="#r"/><linearGradient id="u" x1="0.508" y1="0.359" x2="0.485" y2="0.963" gradientUnits="objectBoundingBox"><stop offset="0" stop-color="#ffb89e"/><stop offset="1" stop-color="#ffa799"/></linearGradient><linearGradient id="v" x1="0.288" y1="0.592" x2="0.6" y2="0.465" gradientUnits="objectBoundingBox"><stop offset="0" stop-color="#8a4791"/><stop offset="1" stop-color="#562e65"/></linearGradient><linearGradient id="w" x1="0.746" y1="0.195" x2="0.261" y2="0.891" xlink:href="#a"/><linearGradient id="x" x1="0.763" y1="0.125" x2="0.215" y2="0.92" xlink:href="#a"/><linearGradient id="y" x1="0.321" y1="0.494" x2="0.871" y2="0.428" xlink:href="#c"/><linearGradient id="z" x1="0.256" y1="0.265" x2="0.814" y2="0.889" xlink:href="#e"/><linearGradient id="aa" x1="-0.173" y1="0.242" x2="0.573" y2="0.531" xlink:href="#e"/><linearGradient id="ab" x1="0.275" y1="0.242" x2="0.919" y2="0.907" xlink:href="#e"/><linearGradient id="ac" x1="0.48" y1="0.207" x2="0.508" y2="0.923" xlink:href="#e"/><linearGradient id="ad" x1="0.491" y1="0.206" x2="0.519" y2="0.924" xlink:href="#e"/><linearGradient id="ae" x1="0.3" y1="0.221" x2="0.638" y2="0.638" xlink:href="#h"/><linearGradient id="af" x1="0.605" y1="0.534" x2="0.297" y2="-0.059" xlink:href="#r"/><linearGradient id="ag" x1="0.845" y1="0.229" x2="0.127" y2="0.771" xlink:href="#n"/><linearGradient id="ah" x1="0.777" y1="0.21" x2="-0.131" y2="0.778" xlink:href="#n"/><linearGradient id="ai" x1="0.47" y1="0.183" x2="0.641" y2="0.906" xlink:href="#h"/><linearGradient id="aj" x1="0.485" y1="0.44" x2="0.44" y2="0.659" xlink:href="#u"/><linearGradient id="ak" x1="0.35" y1="0.155" x2="0.535" y2="0.934" xlink:href="#h"/><linearGradient id="al" x1="0.558" y1="0.429" x2="0.305" y2="0.659" xlink:href="#r"/><linearGradient id="am" x1="0.597" y1="0.241" x2="0.312" y2="0.78" xlink:href="#u"/><linearGradient id="an" x1="0.653" y1="0.688" x2="0.447" y2="0.386" xlink:href="#v"/></defs><g transform="translate(-89 -1956)"><rect width="640" height="480" transform="translate(89 1956)" fill="rgba(255,234,234,0)" opacity="0.96"/><circle cx="201" cy="201" r="201" transform="translate(208 1995)" opacity="0.5" fill="url(#a)"/><g transform="translate(56.746 1808.844)"><g transform="translate(150.985 213.775)"><g transform="translate(46.546 0)"><path d="M531.791,1425.12,659.54,1355.7c3.136-1.408,7.745-2.736,10.82-.895l7.87,4.711c1.583.948,6.789,4.094,3.307,5.954-10.244,5.473-118.952,65.051-129.355,70.611a14.832,14.832,0,0,1-7.867,1.185,20.02,20.02,0,0,1-8.521-2.494l-3.144-1.9c-2.222-1.347-3.453-2.818-3.571-4.229C528.964,1427.262,529.866,1425.984,531.791,1425.12Z" transform="translate(-501.931 -1105.758)" fill="#6d6afd" fill-rule="evenodd" opacity="0.5"/><g transform="translate(0 5.264)"><path d="M556.7,441.924a7.188,7.188,0,0,1,6.024-.661L567.24,443c1.642,8.349-93.637,314.409-95.734,316.532l-4.036-1.5c-2.65-1.025-4.039-3.736-4.429-6.37L428.968,523.115a.123.123,0,0,1,0-.025,16.111,16.111,0,0,1,2.772-11.056,12.992,12.992,0,0,1,4.552-4.313Z" transform="translate(-428.827 -440.871)" fill-rule="evenodd" fill="url(#b)"/><path d="M452.768,514.062l120.406-65.8c4.911-2.674,9.586-.107,10.454,5.713L617.7,682.527c.868,5.82-2.4,12.713-7.307,15.386l-120.408,65.8c-4.91,2.674-9.6.113-10.464-5.706L445.448,529.454C444.579,523.635,447.857,516.736,452.768,514.062Z" transform="translate(-440.847 -445.52)" fill-rule="evenodd" fill="url(#c)"/><path d="M452.768,514.062l120.406-65.8c4.911-2.674,9.586-.107,10.454,5.713l1.745,11.7L447.2,541.187l-1.749-11.733C444.579,523.635,447.857,516.736,452.768,514.062Z" transform="translate(-440.847 -445.521)" fill-rule="evenodd" fill="url(#d)"/></g><path d="M630.692,734.1l-41.062,22.121L589.451,755l41.062-22.121L625.5,699.352l-41.062,22.109-.179-1.219,41.062-22.108-5-33.527-41.076,22.121-.179-1.219,41.063-22.121-5-33.54-41.06,22.12-.2-1.219,41.075-22.106-5.006-33.54-41.062,22.113L568.714,616l41.062-22.116-5.01-33.522L563.7,582.477,568.714,616l.179,1.219,4.993,33.53.2,1.219,4.993,33.541.179,1.219,5.01,33.515.179,1.219,5.01,33.54.179,1.219,5.01,33.527h0L635.7,767.626l-5.01-33.528ZM521.555,605.177l41.062-22.116,5.01,33.522-41.062,22.111.179,1.219L567.806,617.8h0l5.01,33.53-41.076,22.121.193,1.219,41.062-22.119,4.993,33.538L536.928,708.2l.192,1.218L578.183,687.3h0l4.993,33.528-41.059,22.121.179,1.219,41.06-22.121h0l5.009,33.54L547.305,777.69l.179,1.222,41.058-22.106h0l5.01,33.525-41.06,22.121h0l-5.008-33.54-.179-1.222-5.01-33.524-.179-1.219-5-33.528-.192-1.218-5-33.528-.193-1.219-4.995-33.54-.179-1.219-5.01-33.517Zm-42.146,22.7,5.01,33.522.179,1.219,5.01,33.527.176,1.219,4.995,33.54.193,1.219,5,33.515.179,1.219,5.009,33.54.179,1.219,5.01,33.527h0l41.061-22.108L546.4,779.5h0l-41.063,22.121-.179-1.219,41.063-22.121-5.01-33.527h0l-41.062,22.108-.179-1.219,41.062-22.108-5-33.528h0l-41.062,22.121-.193-1.219,41.063-22.121-5-33.525-41.061,22.106-.176-1.219,41.059-22.108-5.009-33.54h0L484.6,662.618l-.179-1.219,41.062-22.121-5.01-33.52h0l-41.062,22.118Zm126.264-69.319,31.294,209.7L509.443,836.942,478.226,627.2Z" transform="translate(-464.852 -521.987)" fill="#00cedc" fill-rule="evenodd"/><path d="M790.779,1364.94l4.462-2.422a2.75,2.75,0,0,0,1.28-2.259l.239-5.924a2.668,2.668,0,0,1,1.273-2.255,1.31,1.31,0,0,1,1.885.536l2.5,4.423a1.327,1.327,0,0,0,1.885.542l4.459-2.437c1.615-.888,2.834,1.256,1.777,3.12l-2.918,5.156a2.715,2.715,0,0,0-.106,2.584l2.516,4.415a2.767,2.767,0,0,1-1,3.518,1.38,1.38,0,0,1-1.061.132l-4.3-1.24a1.4,1.4,0,0,0-1.063.144,2.334,2.334,0,0,0-.892.92l-2.907,5.169a2.32,2.32,0,0,1-.887.929c-1.038.565-2.235-.17-2.164-1.794l.259-5.927a1.8,1.8,0,0,0-1.1-1.926l-4.312-1.219C789.049,1368.684,789.167,1365.818,790.779,1364.94Z" transform="translate(-691.857 -1104.271)" fill-rule="evenodd" fill="url(#e)"/><path d="M736.688,966.387c2.512-1.369,5.178.477,5.151,4.05a7.083,7.083,0,0,1-2.07,4.946,4.922,4.922,0,0,1-1.018.75c-2.508,1.365-5.161-.479-5.141-4.035a7.068,7.068,0,0,1,2.053-4.954,4.97,4.97,0,0,1,1.026-.757Zm2.421,11.423a6.661,6.661,0,0,0,1.367-1,9.549,9.549,0,0,0,2.785-6.653c.03-4.791-3.547-7.281-6.924-5.442a6.6,6.6,0,0,0-1.385,1.023,9.478,9.478,0,0,0-2.765,6.65c-.021,4.778,3.551,7.264,6.923,5.427Zm-11.5-4.071a1.8,1.8,0,0,0-.779,1.885l.614,2.808a.906.906,0,0,0,1.35.716l.3-.165a.851.851,0,0,1,1.19.323,8.953,8.953,0,0,0,.547.8,1.633,1.633,0,0,1,.122,1.589l-.158.38a1.456,1.456,0,0,0,.4,1.83l2.068,1.1a.868.868,0,0,0,.838-.03,1.58,1.58,0,0,0,.671-.793l.16-.372a1.56,1.56,0,0,1,.665-.783.982.982,0,0,1,.5-.125c.293,0,.59-.01.884-.037a.943.943,0,0,1,.988.833l.079.366a.906.906,0,0,0,1.35.716l2.306-1.257a1.8,1.8,0,0,0,.782-1.877l-.08-.365a1.889,1.889,0,0,1,.451-1.617c.249-.268.479-.546.71-.831a1.429,1.429,0,0,1,.44-.386.857.857,0,0,1,.83-.03l.271.136a.866.866,0,0,0,.839-.028,1.581,1.581,0,0,0,.671-.793l1.2-2.877a1.457,1.457,0,0,0-.4-1.829l-.273-.146a1.3,1.3,0,0,1-.527-1.368c.055-.386.094-.772.119-1.16a1.748,1.748,0,0,1,.81-1.411l.3-.164a1.8,1.8,0,0,0,.782-1.876L748,964.088a.906.906,0,0,0-1.351-.724l-.3.164a.849.849,0,0,1-1.19-.322,8.452,8.452,0,0,0-.547-.8,1.619,1.619,0,0,1-.119-1.582l.158-.38a1.468,1.468,0,0,0-.4-1.837l-2.069-1.1a.868.868,0,0,0-.838.03,1.582,1.582,0,0,0-.672.793l-.158.38a1.56,1.56,0,0,1-.665.783.969.969,0,0,1-.5.126,7.283,7.283,0,0,0-.885.029.929.929,0,0,1-.985-.825l-.08-.366a.906.906,0,0,0-1.351-.724l-2.307,1.256a1.8,1.8,0,0,0-.779,1.884l.08.366a1.866,1.866,0,0,1-.447,1.6q-.372.4-.715.843a1.42,1.42,0,0,1-.439.385.857.857,0,0,1-.829.031l-.273-.145a.866.866,0,0,0-.838.03,1.583,1.583,0,0,0-.672.793l-1.2,2.878a1.468,1.468,0,0,0,.4,1.837l.273.145a1.289,1.289,0,0,1,.525,1.362q-.081.579-.119,1.159a1.744,1.744,0,0,1-.81,1.412Z" transform="translate(-646.122 -814.743)" fill="#fff" fill-rule="evenodd"/><path d="M940.445,1281.907c1.37,6.256,6.677,9.082,11.824,6.278s8.218-10.193,6.849-16.448-6.685-9.078-11.825-6.278-8.217,10.192-6.848,16.448Zm8.3-2.562a2.049,2.049,0,0,1-.983-1.422,3.52,3.52,0,0,1,.929-3.138l-1.229-5.616a.983.983,0,0,1,.423-1.018.493.493,0,0,1,.725.393l1.23,5.617a1.748,1.748,0,0,1,1.958,1.564,3.4,3.4,0,0,1-1.477,3.549,2.065,2.065,0,0,1-.7.235l-2.323,8.318a.623.623,0,0,1-.3.4.54.54,0,0,1-.285.066c-.249-.009-.363-.373-.27-.692l2.3-8.255Zm-1.891-15.9c6.061-3.3,12.308.018,13.924,7.393s-2,16.077-8.062,19.378-12.318-.023-13.933-7.4S940.792,1266.74,946.851,1263.441Z" transform="translate(-800.442 -1038.421)" fill="#fff" fill-rule="evenodd"/><g transform="translate(121.638 146.865)"><path d="M879.666,987.312l25.813-13.945a1.308,1.308,0,0,1,2.016,1.119l3.313,27.811a3.141,3.141,0,0,1-1.53,2.963L883.465,1019.2a1.308,1.308,0,0,1-2.008-1.135l-3.313-27.81A3.109,3.109,0,0,1,879.666,987.312Z" transform="translate(-878.127 -973.169)" fill-rule="evenodd" fill="url(#f)"/><path d="M893.909,1026.18a1.3,1.3,0,0,0-.541,1.732l12.576,15.928a.585.585,0,0,0,.763.115,1.334,1.334,0,0,0,.595-.706l7.633-19.611c.32-.809-.166-1.476-.826-1.135l-3.644,1.883a1.37,1.37,0,0,0-.6.717l-3.156,8.115a1.339,1.339,0,0,1-.6.708.574.574,0,0,1-.759-.115l-7.327-9.251a.586.586,0,0,0-.76-.109Z" transform="translate(-889.124 -1009.312)" fill="#fff" fill-rule="evenodd"/></g><g transform="translate(7.151)"><g transform="translate(0 54.52)"><path d="M515.535,715.126a3.665,3.665,0,0,0-2.032,4.892,3.988,3.988,0,0,0,5.256,1.571,3.664,3.664,0,0,0,2.031-4.892A3.988,3.988,0,0,0,515.535,715.126Z" transform="translate(-497.481 -691.129)" fill="#0a3c5f" fill-rule="evenodd"/><path d="M516.973,719.972c-2.4,2.423.4,5.98,3.593,4.581a3.26,3.26,0,0,1-4.894-1.049A2.743,2.743,0,0,1,516.973,719.972Z" transform="translate(-499.137 -694.982)" fill="#1466a0" fill-rule="evenodd"/><path d="M460.541,626.783c-5.306,2.271-6.637,9.074-3.948,16.188l3.485-1.9c-1.418-4.656-1.437-8.74,2.349-10.36s10.7,1.743,13.656,7.346,2.462,11.216-1.712,13a1.914,1.914,0,0,0-1.064,2.571,2.089,2.089,0,0,0,2.708,1.222c.195-.067.386-.145.576-.226,6.016-2.575,7.348-10.041,3.08-18.116S466.557,624.208,460.541,626.783Z" transform="translate(-455.242 -626.03)" fill="#daeafa" fill-rule="evenodd"/><path d="M460.341,648.944l2.673-1.459c-1.418-4.656-1.437-8.74,2.349-10.36s10.7,1.743,13.656,7.346,2.462,11.216-1.712,13a1.818,1.818,0,0,0-1.2,1.529c1.7-.022,4.435-1.6,5.515-5.027,1.828-5.8-1.608-12.066-6.17-15.847-4.414-3.658-9.4-3.95-11.942-2.656C457.372,638.6,459.44,646.2,460.341,648.944Z" transform="translate(-458.179 -632.446)" fill="#b4cce5" fill-rule="evenodd"/></g><g transform="translate(20.376 43.598)"><path d="M590.8,674.07a3.665,3.665,0,0,0-2.032,4.892,3.988,3.988,0,0,0,5.256,1.571,3.665,3.665,0,0,0,2.032-4.892A3.988,3.988,0,0,0,590.8,674.07Z" transform="translate(-572.747 -650.073)" fill="#0a3c5f" fill-rule="evenodd"/><path d="M592.239,678.916c-2.4,2.423.4,5.98,3.593,4.58a3.259,3.259,0,0,1-4.895-1.049A2.743,2.743,0,0,1,592.239,678.916Z" transform="translate(-574.403 -653.926)" fill="#1466a0" fill-rule="evenodd"/><path d="M535.807,585.726c-5.306,2.271-6.637,9.074-3.949,16.188l3.485-1.9c-1.418-4.656-1.436-8.74,2.349-10.36S548.387,591.4,551.349,597s2.462,11.216-1.712,13a1.913,1.913,0,0,0-1.064,2.571,2.088,2.088,0,0,0,2.708,1.222c.2-.067.387-.145.577-.226,6.015-2.574,7.348-10.041,3.08-18.116S541.823,583.152,535.807,585.726Z" transform="translate(-530.508 -584.974)" fill="#daeafa" fill-rule="evenodd"/><path d="M535.607,607.888l2.673-1.459c-1.418-4.656-1.436-8.74,2.349-10.36s10.695,1.743,13.656,7.346,2.462,11.216-1.712,13a1.817,1.817,0,0,0-1.2,1.529c1.7-.021,4.435-1.6,5.514-5.027,1.828-5.8-1.608-12.066-6.169-15.847-4.414-3.659-9.4-3.95-11.942-2.656C532.638,597.545,534.706,605.147,535.607,607.888Z" transform="translate(-533.445 -591.39)" fill="#b4cce5" fill-rule="evenodd"/></g><g transform="translate(40.703 32.675)"><path d="M665.88,633.007a3.665,3.665,0,0,0-2.032,4.892,3.988,3.988,0,0,0,5.255,1.571,3.664,3.664,0,0,0,2.031-4.892A3.987,3.987,0,0,0,665.88,633.007Z" transform="translate(-647.826 -609.01)" fill="#0a3c5f" fill-rule="evenodd"/><path d="M667.319,637.855c-2.4,2.422.4,5.979,3.592,4.58a3.259,3.259,0,0,1-4.894-1.048A2.743,2.743,0,0,1,667.319,637.855Z" transform="translate(-649.482 -612.865)" fill="#1466a0" fill-rule="evenodd"/><path d="M610.886,544.665c-5.306,2.271-6.637,9.073-3.948,16.188l3.485-1.9c-1.419-4.656-1.436-8.74,2.349-10.36s10.695,1.743,13.656,7.346,2.462,11.215-1.712,13a1.914,1.914,0,0,0-1.064,2.571,2.089,2.089,0,0,0,2.708,1.222c.2-.067.387-.145.576-.226,6.016-2.575,7.348-10.041,3.08-18.116S616.9,542.09,610.886,544.665Z" transform="translate(-605.588 -543.912)" fill="#daeafa" fill-rule="evenodd"/><path d="M610.686,566.825l2.673-1.459c-1.419-4.656-1.436-8.74,2.349-10.36s10.695,1.743,13.656,7.346,2.462,11.215-1.712,13a1.818,1.818,0,0,0-1.2,1.529c1.7-.021,4.435-1.6,5.514-5.027,1.828-5.8-1.608-12.065-6.169-15.847-4.414-3.659-9.4-3.949-11.942-2.656C607.717,556.482,609.785,564.084,610.686,566.825Z" transform="translate(-608.524 -550.328)" fill="#b4cce5" fill-rule="evenodd"/></g><g transform="translate(60.981 21.796)"><path d="M740.783,592.114a3.664,3.664,0,0,0-2.032,4.892,3.988,3.988,0,0,0,5.255,1.571,3.665,3.665,0,0,0,2.032-4.892A3.987,3.987,0,0,0,740.783,592.114Z" transform="translate(-722.729 -568.117)" fill="#0a3c5f" fill-rule="evenodd"/><path d="M742.221,596.961c-2.4,2.423.4,5.98,3.593,4.58a3.26,3.26,0,0,1-4.894-1.049A2.743,2.743,0,0,1,742.221,596.961Z" transform="translate(-724.385 -571.971)" fill="#1466a0" fill-rule="evenodd"/><path d="M685.789,503.771c-5.306,2.271-6.637,9.074-3.948,16.188l3.485-1.9c-1.418-4.656-1.436-8.74,2.349-10.36s10.695,1.743,13.656,7.346,2.462,11.216-1.712,13a1.913,1.913,0,0,0-1.065,2.571,2.088,2.088,0,0,0,2.708,1.222c.2-.067.387-.145.577-.226,6.015-2.575,7.348-10.041,3.08-18.116S691.8,501.2,685.789,503.771Z" transform="translate(-680.49 -503.019)" fill="#daeafa" fill-rule="evenodd"/><path d="M685.589,525.933l2.673-1.459c-1.418-4.656-1.436-8.74,2.349-10.36s10.695,1.744,13.656,7.346,2.462,11.216-1.712,13a1.817,1.817,0,0,0-1.2,1.529c1.7-.022,4.434-1.6,5.514-5.027,1.828-5.8-1.608-12.066-6.169-15.847-4.414-3.659-9.4-3.95-11.942-2.655C682.62,515.59,684.688,523.192,685.589,525.933Z" transform="translate(-683.427 -509.435)" fill="#b4cce5" fill-rule="evenodd"/></g><g transform="translate(81.293 10.878)"><path d="M815.813,551.069a3.664,3.664,0,0,0-2.032,4.892,3.988,3.988,0,0,0,5.255,1.571,3.664,3.664,0,0,0,2.031-4.892A3.987,3.987,0,0,0,815.813,551.069Z" transform="translate(-797.759 -527.073)" fill="#0a3c5f" fill-rule="evenodd"/><path d="M817.252,555.916c-2.4,2.423.4,5.98,3.592,4.58a3.259,3.259,0,0,1-4.894-1.049A2.743,2.743,0,0,1,817.252,555.916Z" transform="translate(-799.415 -530.926)" fill="#1466a0" fill-rule="evenodd"/><path d="M760.819,462.727c-5.306,2.271-6.637,9.074-3.949,16.188l3.485-1.9c-1.418-4.656-1.436-8.74,2.349-10.36S773.4,468.4,776.361,474s2.462,11.215-1.712,13a1.914,1.914,0,0,0-1.065,2.571,2.089,2.089,0,0,0,2.708,1.222c.2-.067.387-.145.576-.226,6.016-2.575,7.348-10.041,3.08-18.116S766.835,460.152,760.819,462.727Z" transform="translate(-755.521 -461.974)" fill="#daeafa" fill-rule="evenodd"/><path d="M760.619,484.887l2.673-1.459c-1.418-4.656-1.436-8.74,2.349-10.36s10.695,1.743,13.656,7.346,2.462,11.215-1.712,13a1.818,1.818,0,0,0-1.2,1.529c1.7-.022,4.434-1.6,5.514-5.027,1.828-5.8-1.608-12.066-6.169-15.847-4.414-3.658-9.4-3.95-11.942-2.655C757.65,474.544,759.718,482.147,760.619,484.887Z" transform="translate(-758.457 -468.39)" fill="#b4cce5" fill-rule="evenodd"/></g><g transform="translate(101.585)"><path d="M890.766,510.178a3.664,3.664,0,0,0-2.032,4.892,3.988,3.988,0,0,0,5.255,1.571,3.664,3.664,0,0,0,2.032-4.892A3.987,3.987,0,0,0,890.766,510.178Z" transform="translate(-872.712 -486.182)" fill="#0a3c5f" fill-rule="evenodd"/><path d="M892.2,515.025c-2.4,2.423.4,5.98,3.593,4.581a3.26,3.26,0,0,1-4.894-1.049A2.743,2.743,0,0,1,892.2,515.025Z" transform="translate(-874.367 -490.035)" fill="#1466a0" fill-rule="evenodd"/><path d="M835.771,421.836c-5.306,2.271-6.637,9.074-3.949,16.188l3.485-1.9c-1.419-4.656-1.436-8.74,2.349-10.36s10.695,1.743,13.656,7.346,2.462,11.216-1.712,13a1.914,1.914,0,0,0-1.064,2.571,2.088,2.088,0,0,0,2.708,1.222c.2-.067.387-.144.577-.226,6.015-2.575,7.348-10.041,3.08-18.116S841.787,419.261,835.771,421.836Z" transform="translate(-830.473 -421.083)" fill="#daeafa" fill-rule="evenodd"/><path d="M835.572,444l2.673-1.459c-1.419-4.656-1.437-8.74,2.349-10.36s10.695,1.743,13.656,7.346,2.462,11.216-1.712,13a1.818,1.818,0,0,0-1.2,1.529c1.7-.022,4.434-1.6,5.514-5.027,1.828-5.8-1.608-12.066-6.169-15.847-4.414-3.659-9.4-3.95-11.942-2.655C832.6,433.654,834.67,441.256,835.572,444Z" transform="translate(-833.41 -427.5)" fill="#b4cce5" fill-rule="evenodd"/></g></g><g transform="translate(69.793 71.885)"><path d="M709.693,724.008c.883,7.791-3.513,17.307-9.833,21.242s-12.377-1.133-13.042-7,.452-8.3,2.259-12.172c1.1.6,2.2,1.193,3.3,1.777a12,12,0,0,0-1.467,7.846c.427,3.77,4.323,7.024,8.38,4.5s6.883-8.643,6.315-13.645C706.952,725.71,708.327,724.859,709.693,724.008Z" transform="translate(-686.624 -715.309)" fill-rule="evenodd" fill="url(#g)"/><path d="M748.568,694.332c2.362,1.258,4.048,3.993,4.49,7.894-1.366.85-2.74,1.7-4.09,2.547-.283-2.5-1.361-4.265-2.88-5.074Q747.332,697.022,748.568,694.332Z" transform="translate(-729.99 -693.528)" fill="#bf7dec" fill-rule="evenodd"/><path d="M703.149,693.005c3.162-1.967,6.2-2.163,8.551-.9q-1.23,2.7-2.478,5.379c-1.52-.809-3.471-.686-5.491.576a13.773,13.773,0,0,0-4.9,5.891c-1.1-.584-2.2-1.168-3.3-1.765A21.289,21.289,0,0,1,703.149,693.005Z" transform="translate(-693.123 -691.308)" fill="#fc8fd9" fill-rule="evenodd"/></g><g transform="translate(79.317 205.939)"><path d="M722.57,1214.538l36-19.193a.725.725,0,0,1,1.11.6l.488,3.064a1.619,1.619,0,0,1-.76,1.6l-36,19.194a.718.718,0,0,1-1.1-.6l-.49-3.064A1.64,1.64,0,0,1,722.57,1214.538Z" transform="translate(-721.806 -1195.236)" fill-rule="evenodd" fill="url(#h)"/><path d="M789.872,1246.189l19.164-10.3a.726.726,0,0,1,1.11.6l.146.919a1.639,1.639,0,0,1-.76,1.6l-19.163,10.3a.723.723,0,0,1-1.1-.6l-.146-.919A1.635,1.635,0,0,1,789.872,1246.189Z" transform="translate(-770.887 -1224.992)" fill-rule="evenodd" fill="url(#i)"/></g><g transform="translate(109.442 24.396)"><path d="M870.585,583.051l-29.723,17.071c-5.055,2.876-8.488,10.25-7.661,16.455l4.3,31.151c.828,6.2,5.607,8.909,10.663,6.034l30.554-17.549-6.485-37.871Z" transform="translate(-833.078 -564.361)" fill-rule="evenodd" opacity="0.5" fill="url(#j)" style="mix-blend-mode:multiply;isolation:isolate"/><g transform="translate(4.334)"><path d="M921.022,519.156c-.255-1.917.275-3.075-.693-4.159a11.5,11.5,0,0,0-3.375-1.88,6.324,6.324,0,0,0-5.376.695l-55.6,31.932c-4.477,2.547-7.519,9.079-6.785,14.576l3.812,27.593a8.323,8.323,0,0,0,2.351,5.156,9.205,9.205,0,0,0,4.056,1.973c1.273.157,1.61-.973,3.038-1.785l55.6-31.932c4.484-2.55,7.519-9.08,6.786-14.576Z" transform="translate(-849.086 -512.793)" fill="#d0e7ff" fill-rule="evenodd"/><path d="M926.589,522.449c-.733-5.5-4.962-7.894-9.444-5.344l-55.6,31.932c-4.478,2.547-7.519,9.079-6.786,14.576l3.812,27.593c.734,5.5,4.967,7.891,9.445,5.344l55.6-31.932c4.483-2.55,7.519-9.08,6.786-14.575Z" transform="translate(-853.146 -515.209)" fill="#fff" fill-rule="evenodd"/><path d="M926.589,522.449c-.733-5.5-4.962-7.894-9.444-5.345l-55.6,31.932c-4.477,2.548-7.519,9.079-6.786,14.575l.358,2.59a14.454,14.454,0,0,1,1.5-.984l70.3-40.377Z" transform="translate(-853.145 -515.209)" fill-rule="evenodd" fill="url(#k)"/><g transform="translate(9.865 23.924)"><path d="M1057.912,602.94c-5.662,1.273-10.011,7.9-9.714,14.8s5.129,11.461,10.792,10.188,10.012-7.9,9.714-14.8S1063.575,601.667,1057.912,602.94Z" transform="translate(-1004.147 -602.727)" fill="#1c8df3" fill-rule="evenodd" opacity="0.2"/><path d="M1070.906,624.855c-3.053.686-5.4,4.258-5.238,7.978s2.766,6.179,5.819,5.493,5.4-4.259,5.238-7.978-2.766-6.179-5.818-5.493Zm.136,3.158c1.622-.364,3.006.941,3.091,2.918a4.13,4.13,0,0,1-2.783,4.238c-1.621.364-3-.942-3.09-2.918A4.129,4.129,0,0,1,1071.042,628.013Z" transform="translate(-1016.893 -618.884)" fill-rule="evenodd" fill="url(#l)"/><path d="M926.179,648.82c-.2-1.466-1.322-2.089-2.515-1.388l-36.306,20.226a4.236,4.236,0,0,0-1.806,3.928l.379,2.9c.2,1.467,1.324,2.088,2.516,1.387l36.305-20.226a4.235,4.235,0,0,0,1.806-3.929Z" transform="translate(-885.523 -635.328)" fill="#1c8df3" fill-rule="evenodd" opacity="0.2"/><path d="M976.175,690.831c-.115-.866-.78-1.234-1.485-.819l-21.439,11.944a2.5,2.5,0,0,0-1.066,2.32l.224,1.713c.115.866.781,1.233,1.485.819l21.439-11.944a2.5,2.5,0,0,0,1.066-2.32Z" transform="translate(-934.125 -666.668)" fill="#1c8df3" fill-rule="evenodd" opacity="0.2"/></g><g transform="translate(53.556 4.772)"><path d="M1092.252,530.779a3.143,3.143,0,0,0-2.117,3.226c.065,1.5,1.118,2.5,2.352,2.22A3.143,3.143,0,0,0,1094.6,533C1094.539,531.5,1093.486,530.5,1092.252,530.779Z" transform="translate(-1078.43 -530.732)" fill="#fff" fill-rule="evenodd"/><path d="M1071.491,542.7a3.142,3.142,0,0,0-2.118,3.225c.065,1.5,1.118,2.5,2.352,2.22a3.143,3.143,0,0,0,2.118-3.225C1073.778,543.419,1072.725,542.425,1071.491,542.7Z" transform="translate(-1063.289 -539.484)" fill="#fff" fill-rule="evenodd"/><path d="M1049.028,555.8a3.142,3.142,0,0,0-2.118,3.226c.065,1.5,1.118,2.5,2.352,2.221a3.144,3.144,0,0,0,2.117-3.226C1051.315,556.515,1050.262,555.52,1049.028,555.8Z" transform="translate(-1046.907 -549.096)" fill="#fff" fill-rule="evenodd"/></g></g></g><g transform="translate(29.648 164.867)"><path d="M585.767,1051.729l20.129-10.782a.69.69,0,0,1,1.056.568l.464,2.914a1.54,1.54,0,0,1-.722,1.521l-20.128,10.783a.683.683,0,0,1-1.045-.573l-.465-2.914A1.559,1.559,0,0,1,585.767,1051.729Z" transform="translate(-572.396 -1040.843)" fill="#93e599" fill-rule="evenodd"/><path d="M538.645,1087.444a.569.569,0,0,0-.237.759l5.513,6.983a.257.257,0,0,0,.335.05.585.585,0,0,0,.261-.31l3.346-8.6c.141-.354-.073-.647-.362-.5l-1.6.825a.6.6,0,0,0-.265.314l-1.384,3.558a.586.586,0,0,1-.263.31.252.252,0,0,1-.333-.05l-3.212-4.056a.257.257,0,0,0-.333-.048Z" transform="translate(-538.338 -1073.835)" fill="#93e599" fill-rule="evenodd"/><path d="M592.509,1102.97l20.129-10.782a.69.69,0,0,1,1.056.568l.464,2.914a1.539,1.539,0,0,1-.723,1.521l-20.128,10.783a.683.683,0,0,1-1.044-.573l-.466-2.914A1.559,1.559,0,0,1,592.509,1102.97Z" transform="translate(-577.313 -1078.453)" fill="#93e599" fill-rule="evenodd"/><path d="M545.388,1138.685a.569.569,0,0,0-.237.759l5.513,6.983a.257.257,0,0,0,.334.05.585.585,0,0,0,.261-.31l3.346-8.6c.141-.355-.073-.647-.362-.5l-1.6.825a.6.6,0,0,0-.265.314L551,1141.77a.587.587,0,0,1-.263.31.251.251,0,0,1-.332-.05l-3.212-4.056a.257.257,0,0,0-.333-.048Z" transform="translate(-543.255 -1111.445)" fill="#93e599" fill-rule="evenodd"/></g><g transform="translate(28.71 125.412)"><path d="M561.453,892.682l.669,27.563-27.247,15.682.109-27.678Z" transform="translate(-534.876 -892.641)" fill-rule="evenodd" opacity="0.5" fill="url(#m)" style="mix-blend-mode:multiply;isolation:isolate"/><path d="M561.833,892.526c-.058,8.125,2.137,16.281,5.7,21.063l-26.438,16.4c-3.057-3.567-5.869-14.417-5.629-21.872Z" transform="translate(-535.298 -892.526)" fill="#ffbeaa" fill-rule="evenodd"/></g></g><g transform="translate(0 56.027)"><g transform="translate(225.173)"><path d="M1171.014,1340.237l-43.681-24.445c-4.762-2.138-11.578-3.839-16.429-1.359-4.42,2.261-11.7,6.887-14.922,8.691-2.446,1.37-10.936,6.369-5.648,9.194,15.555,8.311,30.949,17.659,46.745,26.1,2.988,1.6,7.358,2.174,11.945,1.8a32.048,32.048,0,0,0,12.938-3.786l7.746-4.43c3.427-1.96,5.243-4.278,5.423-6.421C1175.307,1343.489,1173.938,1341.548,1171.014,1340.237Z" transform="translate(-1088.631 -1131.911)" fill="#6d6afd" fill-rule="evenodd" opacity="0.5"/><path d="M1139.442,772.7c3.281-1.854,14.929-18.312,21.109-27.356,3.507-5.132,2.752-9.944-2.639-11.783-10.665-3.639-13.739,9.477-17.141,15.733-3.8,6.991-7.988,12.539-8.9,17.922C1131.193,771.176,1136.026,774.634,1139.442,772.7Z" transform="translate(-1120.116 -706.006)" fill="#7662e3" fill-rule="evenodd"/><g transform="translate(18.276 83.076)"><path d="M1296.735,1358.423a19.17,19.17,0,0,0,.611,2.689,31.712,31.712,0,0,1,1.53,4.321c.807,3.01-.07,7.042,1.024,11.3a4.542,4.542,0,0,1-.557,4.57c-1.086,1.474-3.143,3.837-5.914,3.748a4.31,4.31,0,0,1-2.961-1.392,6.966,6.966,0,0,1-1.889-5.047,40.864,40.864,0,0,0,.292-5.808c-.131-2.085-.553-3.233-.569-5.52-.017-2.417.078-5.744.071-7.3Z" transform="translate(-1252.52 -1248.176)" fill="#16193b" fill-rule="evenodd"/><path d="M1175.542,1305.413a14.078,14.078,0,0,1,1.54,6.045c-.447,1.579-1.56,2.22-2.79,3.31l-.883.191c-2.17,1.172-2.858,5.28-4.85,7.15-1.405,1.32-4.255,2.038-7.089,2.579-3.03.578-5.947-.277-5.221-2.631,1.8-5.846,10.128-12.45,10.137-18.984Z" transform="translate(-1156.137 -1207.55)" fill="#16193b" fill-rule="evenodd"/><path d="M1166.048,1000.177c.538,11.2,3.619,32.164,3.554,43.2,2.994,2.869,8.8,1.981,10.612-.954.893-10.157,1.861-24.586,1.838-30.159a42.994,42.994,0,0,0-1.888-13.07c1.343-12.256,8.071-28.979,6.026-40.511-.9-5.065-4.431-10.517-5.533-14.7-8.2,10.285-14.818,5.355-18.359,4.463.122,3.553-.166,3.079.058,6.815.756,12.631,1.738,26.117,2.818,39.222A17.816,17.816,0,0,0,1166.048,1000.177Z" transform="translate(-1160.608 -943.99)" fill-rule="evenodd" fill="url(#n)"/><path d="M1181.7,1022.891c.272-4.411.447-8.251.437-10.625a42.991,42.991,0,0,0-1.888-13.07c1.343-12.256,8.071-28.979,6.026-40.511-.9-5.065-4.431-10.517-5.533-14.7-8.2,10.285-14.818,5.355-18.359,4.463.014.4.022.742.027,1.049l11.365,8.084-2.761-.608c.519,14.555,2.729,27.823,3.414,42.177a219.862,219.862,0,0,1,7.218,23.48Z" transform="translate(-1160.69 -943.99)" fill="#1e2353" fill-rule="evenodd" opacity="0.3" style="mix-blend-mode:multiply;isolation:isolate"/><path d="M1200.637,1016.646c2.366,11.2,9.115,38.384,10.852,49.422,3.735,2.008,8.4.958,9.619-1.978-.247-10.156-.809-28.424-1.741-34-.776-4.638-2.651-11.794-4.656-15.96.008-26.17,2.785-33.146-1.142-44.677-1.724-5.065-6-9.951-7.783-14.13-2.183,3.442-5.562,8.325-13.117,7.721-.739-.059-7.149-4.471-9.239-4.977,3.073,15.569,11.231,35.907,15.4,52.888A19.846,19.846,0,0,0,1200.637,1016.646Z" transform="translate(-1176.042 -952.31)" fill-rule="evenodd" fill="url(#o)"/></g><g transform="translate(19.237 28.461)"><path d="M1173.693,738.834a6.246,6.246,0,0,0-2.348.6c-5.682,2.61-7.8,11.262-9.222,18.9-1.235,6.623-.844,12.1-1.06,18.222-.173,4.883-1.132,9.348-1.237,13.974a14.541,14.541,0,0,0,.07,4.345,20.69,20.69,0,0,1,.228,3.479c4.509,9.726,28.624,11.155,32.81,5.368a8.59,8.59,0,0,1-.7-2.647c2.151-1.941.771-7.39,1.419-11.076a29.686,29.686,0,0,1,2.078-7.559c4.124-8.279,9.5-14.5,10.943-20.976.992-4.458-4.47-10.469-11.873-15.541C1187.675,741.042,1177.755,737.965,1173.693,738.834Z" transform="translate(-1159.687 -738.687)" fill-rule="evenodd" fill="url(#p)"/><path d="M1166.118,822.7a62.644,62.644,0,0,0,5.821,5.479l-3.8,4.859-2.024-10.339Zm29.538,21.083a.725.725,0,0,0-.7.67.608.608,0,0,0,.61.667.725.725,0,0,0,.7-.67.608.608,0,0,0-.61-.667Zm-3.666-4.205a.725.725,0,0,0-.7.67.608.608,0,0,0,.61.667.724.724,0,0,0,.7-.67.608.608,0,0,0-.61-.667Zm-4.816,2.6a.724.724,0,0,0-.7.67.608.608,0,0,0,.61.667.725.725,0,0,0,.7-.67.608.608,0,0,0-.61-.667Zm-3.542-5.343a.725.725,0,0,0-.705.67.608.608,0,0,0,.61.667.724.724,0,0,0,.7-.67.608.608,0,0,0-.609-.667Zm-5.023,1.568a.725.725,0,0,0-.7.67.608.608,0,0,0,.61.667.724.724,0,0,0,.7-.67.608.608,0,0,0-.61-.668Zm-2.518-5.808a.725.725,0,0,0-.7.67.608.608,0,0,0,.61.667.725.725,0,0,0,.7-.67.608.608,0,0,0-.61-.667Zm-5.015.852a.725.725,0,0,0-.7.67.608.608,0,0,0,.61.668.726.726,0,0,0,.7-.67.608.608,0,0,0-.61-.667Zm-2.184-6.273a.726.726,0,0,0-.7.67.608.608,0,0,0,.61.667.724.724,0,0,0,.7-.669.608.608,0,0,0-.609-.668Zm-3.789,1.413a.719.719,0,0,0,.151-.39.632.632,0,0,0-.132-.442l-.018.832Zm35.2,11.69a.725.725,0,0,0-.7.67.612.612,0,0,0,.384.626q.315-.613.636-1.211a.61.61,0,0,0-.316-.085Zm-27.289-11.228a56.8,56.8,0,0,0,6.581,4.523l-5.125,4.729-1.456-9.252Zm7.717,5.166a43.474,43.474,0,0,0,6.521,2.938l-4.778,5.447-1.743-8.385Zm8.036,3.434a33.128,33.128,0,0,0,7.041,1.357l-4.4,6.264-2.636-7.621Zm7.936,1.415a29.27,29.27,0,0,0,4.708-.14q.392-.7.788-1.373a30.164,30.164,0,0,1-13.959-1.425l-.025-.071-.043.049c-13.006-4.385-22.224-15.6-22.26-15.643l-.2-.311c-.14.975-.248,1.928-.332,2.865l1.892,9.666c-.9-.865-1.633-1.626-2.19-2.225l-.017,1.905c4.993,5.094,17.755,16.255,32.919,15.277.09-.435.185-.866.286-1.289a28.832,28.832,0,0,1-6.521-.264l4.4-6.262,2.318,5.729c.113-.425.232-.84.36-1.238l-2.124-5.248Zm-5.918,6.859a36.021,36.021,0,0,1-8.021-2.525l5.127-5.844,2.895,8.369Zm-9.055-3a49.279,49.279,0,0,1-6.849-3.99l5.051-4.661,1.8,8.651Zm-8.1-4.881-1.416-9-3.731,4.775A61.609,61.609,0,0,0,1173.628,838.046Z" transform="translate(-1163.605 -798.482)" fill="#9789e9" fill-rule="evenodd"/><path d="M1203.253,846.714c2.313-.567,4.108-1.471,5-2.7a8.594,8.594,0,0,1-.7-2.647c2.151-1.941.771-7.39,1.418-11.076a29.736,29.736,0,0,1,2.078-7.559c4.124-8.279,9.5-14.5,10.943-20.976.525-2.358-.756-5.151-3.176-8.009-2.5-.4-4.874-.089-6.42,1.2-4.121,3.426-5.089,11.442-6.36,16.89-1.927,8.257-7.6,5.38-11.728,3.225a14.055,14.055,0,0,0,7.251,3.855c.96.235,1.739,2.085,1.6,3.981-.428,5.669-1.034,12.88-1.034,18.649-7.867,2.8-17.061.532-21.429-1.316,6.771,4.149,14.6,4.515,21.54,3.565A3.465,3.465,0,0,1,1203.253,846.714Z" transform="translate(-1175.003 -778.98)" fill-rule="evenodd" opacity="0.25" fill="url(#q)" style="mix-blend-mode:multiply;isolation:isolate"/></g><g transform="translate(46.147 42.278)"><path d="M1275.61,976.56c-1.251.448-3.416.7-4.331,1.024-.473.167-3.883,1.436-5.818,2.234-2.069.853-2.934,2.494-4.412,4.217a12.324,12.324,0,0,0-1.932,3.269c-.28.793,1.514,2.769,2.449,2.748,2.124-.049,4.693-2.1,5.285-2.271,5.024-1.44,7.253-1.247,9.271-2.776.862-.653,1.755-2.877,3.622-4.67l-2.3-3.027Z" transform="translate(-1259.088 -927.098)" fill-rule="evenodd" fill="url(#r)"/><path d="M1302.368,793.726c6.244,6,12.558,16.528,18.7,24.29,2.2,2.784,1.011,5.09-.733,7.609a77.932,77.932,0,0,1-15.111,16.941,4.84,4.84,0,0,1-2.028.731c-.472.384-1.132,1.075-1.636,1.476.625-.79-2.742-4.755-4.438-4.491.436-.531.55-.744,1-1.354a5.043,5.043,0,0,1,.364-1.9c1.778-3.958,6.376-10.522,10.26-14.7a106.571,106.571,0,0,1-13.482-13.008c-1.028-1.166-1.581-1.732-2.592-2.942-4.289-5.134-3.051-12.371.749-14.836C1295.662,790.089,1298.544,790.053,1302.368,793.726Z" transform="translate(-1281.611 -790.624)" fill-rule="evenodd" fill="url(#s)"/></g><g transform="translate(33.481)"><g transform="translate(5.723 22.579)"><path d="M1233.69,726.149c.023-.415.025-.836.044-1.282.055-1.274.963-3.556,1.325-6.417l11.828-1.876c-1.293,5.959-.611,7.415-.7,12.5-1.3,4.711-13.807,3.955-12.673-1.673A8.928,8.928,0,0,0,1233.69,726.149Z" transform="translate(-1233.441 -716.573)" fill="#ffa698" fill-rule="evenodd"/><path d="M1233.885,726.149c.023-.415.025-.836.044-1.282.055-1.274.963-3.556,1.325-6.417l11.828-1.876c-.294,1.353-.487,2.479-.61,3.469-.592,4.01-6.112,9.916-12.763,7.359A8.928,8.928,0,0,0,1233.885,726.149Z" transform="translate(-1233.636 -716.573)" fill-rule="evenodd" fill="url(#t)"/></g><path d="M1217.213,672.405c1.6-.267,5.894-.819,7.362-1.137,3.214-.7,3.923-3.058,6.2-6.251,2.987-.61,4.318-1.543,5.163-2.886,2.006-3.186,1.681-7.7-.059-10.84a10.013,10.013,0,0,0-7.224-5.038c-6.354-1.266-10.675,2.007-13.193,6.8a3.573,3.573,0,0,0-.386,1.293,16.639,16.639,0,0,1-.286,2.061c-.351,1.594-1.593,1.687-2.008,3.675-.563,2.705-.643,8.426-.151,9.6C1213.005,670.586,1215.842,672.055,1217.213,672.405Z" transform="translate(-1212.302 -642.181)" fill="#ffa698" fill-rule="evenodd"/><path d="M1216.721,664.95a17.363,17.363,0,0,0-1.243,2.025,3.575,3.575,0,0,0-.386,1.293,16.636,16.636,0,0,1-.286,2.061c-.351,1.593-1.593,1.687-2.008,3.675a31.634,31.634,0,0,0-.469,5.217c2.478,4.4,7.269,2.415,8.052,2,3.668-1.948,5.838-6.3,5.929-11.206A15.738,15.738,0,0,1,1216.721,664.95Z" transform="translate(-1212.322 -656.104)" fill-rule="evenodd" fill="url(#u)"/><g transform="translate(4.052)"><path d="M1249.192,650.746a31.2,31.2,0,0,1-6.612,7.3c-1.833,1.228-.72-.369-.544-1.828a1.752,1.752,0,0,0,1.062-.8c.91-1.5,1.791-4.186-.832-4.159-1.35.014-2.4,1.3-2.908,2.536a1.7,1.7,0,0,1-.833.346c-.444.037-1.285-.014-.86-1.037,1.47-3.536-.1-4.508,1.369-6.371,1.1-1.4,1.309-2.112,1.174-2.848-1.232-.344-2.5.5-4.123.487a13.072,13.072,0,0,1-7.74-4.259c-2.174-2.78-.9-6.325,2.495-7.484,1.89-.645,3.532-.3,6.254-.775a9.982,9.982,0,0,1,11.178,6.306C1253.074,641.493,1251.428,646.688,1249.192,650.746Z" transform="translate(-1227.27 -631.697)" fill="#562e65" fill-rule="evenodd"/><path d="M1241.47,646.039c-.443,1.551-3.124,2.438-5.875,1.417-2.551-.946-5.667-2.988-5.579-6.5a3.732,3.732,0,0,1,2.958-3.1,3.447,3.447,0,0,1,2.98,1.31c1.484,1.593,2.112,4.281,3.205,5.349C1240.2,645.525,1241.518,645.875,1241.47,646.039Z" transform="translate(-1229.271 -636.193)" fill-rule="evenodd" fill="url(#v)"/></g><path d="M1270.9,705.233c2.623-.026,1.742,2.655.832,4.159-.625,1.034-1.534.648-2.168,1.418a2.276,2.276,0,0,1-2.45.89c-1.422-.5.168-2.312.618-3.088C1268.024,707.194,1269.237,705.249,1270.9,705.233Z" transform="translate(-1251.854 -685.671)" fill="#ffa698" fill-rule="evenodd"/></g><g transform="translate(10.828 24.238)"><g transform="translate(10.523)"><path d="M1172.465,740.673a29.036,29.036,0,0,1,4.434-4.683,10.974,10.974,0,0,0,3.685-7.374,2.159,2.159,0,0,0-1.493-2.041,10.358,10.358,0,0,0-1.457-.172,5.815,5.815,0,0,0-1.423-1.72,1.526,1.526,0,0,0-1.817-.384,9.944,9.944,0,0,0-2.806,1.221,16.6,16.6,0,0,0-2.244,2.953c-.7,1.089-1.639,3.168-1.432,4.032.456,1.9,1,2.345.619,3.491l-1.034,3.086Z" transform="translate(-1167.498 -723.801)" fill="#ffb79d" fill-rule="evenodd"/><g transform="translate(0.401)"><path d="M1180.691,725.441a5.22,5.22,0,0,0-1.038-1.917,1.608,1.608,0,0,0-1.844-.659,10.572,10.572,0,0,0-3.115.879,17.664,17.664,0,0,0-2.781,2.771,9.6,9.6,0,0,0-1.8,3.094l1.146.256,2.6-.559C1177.922,729.331,1180.043,725.653,1180.691,725.441Z" transform="translate(-1169.805 -722.809)" fill="#ffb79d" fill-rule="evenodd"/><path d="M1172.336,744.534c.753.042.523.2,1.215-.1.012.65.472,1.321.763,1.242a1.164,1.164,0,0,0,.761-.859,2.1,2.1,0,0,0-.9-2.1,9.3,9.3,0,0,0-2.864-.232c-.767-.009-1.1-.062-1.41.277a3.421,3.421,0,0,0-.578,1.109,3.219,3.219,0,0,0-.168,2.449C1170.09,745.655,1171,743.979,1172.336,744.534Z" transform="translate(-1168.979 -737.249)" fill="#ff9989" fill-rule="evenodd"/><path d="M1194.266,726.07a6.1,6.1,0,0,0-1.236-2,2.3,2.3,0,0,0-.548-.518l-3.96,5.326c.342.443,1.37,2.4-.068,2.916C1189.729,731.342,1192.285,729.435,1194.266,726.07Z" transform="translate(-1183.182 -723.354)" fill="#ff9989" fill-rule="evenodd"/><g transform="translate(8.873 2.274)"><path d="M1205.563,736.343a10.418,10.418,0,0,0,.821-2.954,1.414,1.414,0,0,0-.982-1.852,11.029,11.029,0,0,0-1.538-.181l-1,.171a1.762,1.762,0,0,0,1.254,2.679c.179.175-.657,3.461-1.023,4.673C1202.985,739.246,1204.758,738.069,1205.563,736.343Z" transform="translate(-1202.39 -731.356)" fill="#ffb79d" fill-rule="evenodd"/><path d="M1202.223,731.834a2.463,2.463,0,0,0,2.8,2.228,2.185,2.185,0,0,1-2.285.25A1.5,1.5,0,0,1,1202.223,731.834Z" transform="translate(-1201.753 -731.707)" fill="#ff9989" fill-rule="evenodd"/></g></g></g><path d="M1146.2,772.278c-.777,1.031-5.9-.726-6.278-1.717l-.937,1.826a10.53,10.53,0,0,0-1.881,1.77c-4.6,6.9-6.259,13.377-8.275,21.434a5.463,5.463,0,0,0,7.458,6.461c6.589-3.2,8.6-19.794,9.409-25.615.057-.4-.391-1.545-.283-1.933C1145.645,773.924,1146.039,772.63,1146.2,772.278Z" transform="translate(-1128.629 -757.858)" fill-rule="evenodd" fill="url(#w)"/><path d="M1155.081,777.014a1.4,1.4,0,0,1-1.16.31c-.184,1.029-.338,1.608-.738,1.948a15.706,15.706,0,0,1-5.317-2.15,10.528,10.528,0,0,0,4.369,3.47c-.321,3.636-4.625,23.66-11.43,26.188a5.3,5.3,0,0,0,4.362.007c6.589-3.2,8.6-19.794,9.41-25.615.056-.4-.391-1.545-.284-1.933C1154.524,778.66,1154.918,777.367,1155.081,777.014Z" transform="translate(-1137.508 -762.595)" fill-rule="evenodd" opacity="0.25" fill="url(#x)" style="mix-blend-mode:multiply;isolation:isolate"/></g></g><g transform="translate(315.943 155.703)"><g transform="translate(14.213 101.171)"><path d="M1502.792,1718.162c-9.011,0-16.316,4.157-16.316,9.287s7.3,9.286,16.316,9.286,16.315-4.157,16.315-9.286S1511.8,1718.162,1502.792,1718.162Z" transform="translate(-1483.752 -1686.016)" fill="#6d6afd" fill-rule="evenodd" opacity="0.5"/><path d="M1476.445,1638.124c.8-.011,34.545-.111,37.637-.1-.007.685-.1,1.415-.167,2.1a65.166,65.166,0,0,1-1.439,9.11l-.017.068a38.485,38.485,0,0,1-7.821,16.126,23.819,23.819,0,0,1-4.5,4.309,10.563,10.563,0,0,1-9.436.092,5.376,5.376,0,0,1-.907-.618,33.985,33.985,0,0,1-5.338-5.764,39.932,39.932,0,0,1-6.42-14.5A75.1,75.1,0,0,1,1476.445,1638.124Z" transform="translate(-1476.436 -1627.195)" fill-rule="evenodd" fill="url(#y)"/><path d="M1497.352,1599.026c-9.969,0-18.05,4.48-18.05,10.006s8.082,10.007,18.05,10.007,18.051-4.48,18.051-10.007S1507.321,1599.026,1497.352,1599.026Z" transform="translate(-1478.52 -1598.572)" fill="#0965b4" fill-rule="evenodd"/><path d="M1498.781,1609.3c-9.676,0-17.52,4.349-17.52,9.712,0,2.619,6.344,7.221,17.572,7.729s17.106-5.417,17.468-7.729C1516.3,1613.653,1508.457,1609.3,1498.781,1609.3Z" transform="translate(-1479.948 -1606.116)" fill="#071a3b" fill-rule="evenodd"/><path d="M1495.245,1597.321c-10.4,0-18.833,4.8-18.833,10.719s8.432,10.719,18.833,10.719,18.833-4.8,18.833-10.719-8.432-10.719-18.833-10.719Zm0,.747c9.676,0,17.52,4.348,17.52,9.712s-7.844,9.712-17.52,9.712-17.52-4.348-17.52-9.712S1485.569,1598.068,1495.245,1598.068Z" transform="translate(-1476.412 -1597.321)" fill="#00cedc" fill-rule="evenodd"/><path d="M1477.868,1645.424c1.776,4.87,9.356,8.529,18.438,8.529,8.852,0,16.279-3.477,18.294-8.162l.015-.035-.341-.031-1.036-.18-.036,0c-2.036,4.114-8.828,7.137-16.9,7.137-8.248,0-15.164-3.161-17.025-7.416l-.986.044-.427.109Zm36.8.2-.317-.145.331.111Z" transform="translate(-1477.474 -1632.516)" fill="#00cedc" fill-rule="evenodd"/></g><g transform="translate(0)"><g transform="translate(0 34.673)"><path d="M1435.33,1347.346a58.556,58.556,0,0,0-6.611,9.158c.56.983,1.054,1.991,1.622,2.987-1.082-.467-1.875-.81-2.664-1.066-4.784,9.377-4.723,17.879-1.421,25.445a17.224,17.224,0,0,0,6.519,1.592q-2.353.971-4.7,1.946c4.127,6.9,11.474,10.451,9.234,21.433-.087.427-.171.857-.247,1.291q2.877,1.83,5.759,3.654a20.958,20.958,0,0,0-6.083.147c.167,5.11,3.355,10.493,17.339,15.45,1.364-.107,4.731-1.72,5.436-2.673-.619-4.761.837-13.1,2.083-19.648,1.014-5.331.673-9.068-.532-11.94-1.74.847-3.535,1.457-5.32,2.226a19.693,19.693,0,0,0,2.7-6.216c-4.387-4.734-11.695-7.166-16.729-15.035-.3-.474-.615-.974-.929-1.5-.983.415-1.98.779-2.975,1.208a19.62,19.62,0,0,0,1.707-3.436C1436.243,1366.271,1433.228,1357.648,1435.33,1347.346Z" transform="translate(-1423.913 -1347.346)" fill-rule="evenodd" fill="url(#z)"/><path d="M1471.283,1498.038a15.49,15.49,0,0,1,.562,9.112c-.087.427-.171.857-.247,1.291q2.878,1.83,5.76,3.654a20.959,20.959,0,0,0-6.083.147c.167,5.11,3.355,10.492,17.339,15.45,1.364-.107,4.731-1.721,5.436-2.674-.619-4.762.837-13.1,2.083-19.648,1.014-5.331.673-9.068-.532-11.94-1.74.847-3.535,1.457-5.32,2.226a19.685,19.685,0,0,0,2.7-6.216c-2.768-2.987-6.7-5.058-10.487-8.155C1480.542,1487.676,1474.884,1491.625,1471.283,1498.038Z" transform="translate(-1458.452 -1445.654)" fill-rule="evenodd" opacity="0.5" fill="url(#aa)" style="mix-blend-mode:multiply;isolation:isolate"/><path d="M1440.134,1406.613a22.328,22.328,0,0,1-7.356-5.488c2.281,1.427,4.182,2.894,6.333,3.657a22.878,22.878,0,0,1-1.056-2.422c-2.816-7.658-1.043-14.445,1.156-21.777-1.458,5.826-2.718,11.368-1.55,17.133.556-1.8,1.688-3.154,3.177-5.3-1.145,2.615-2.4,4.891-2.575,7.624q.31.976.726,1.964a28.145,28.145,0,0,0,5.872,8.456c-.239-2.341.464-4.312,1.489-7.02-.427,2.534-.87,5.615-.282,8.257,3.227,3.234,6.639,6.206,8.913,10.1,1.182-4.987.891-4.082,2.041-9.013.39,5.4.214,7.454-.918,11.245a18.882,18.882,0,0,1,1.4,5.4c.548,5.024.513,8.15.833,10.86,2.869-5.7,1.55-3.022,5.4-11.121-.357,4.723-.2,5.244-4.731,14.436.727,2.427,2.1,5.03,4.853,8.985a14.122,14.122,0,0,1-2.646,1.069c-5.03-7.378-5.042-10.243-5.129-15.783a51.572,51.572,0,0,0-7.945-10.867c2.719,1.014,4.864,2.53,7.836,7.014-.064-1.323-.169-2.8-.35-4.469-.483-4.471-2.64-7.866-5.337-11.026a42.366,42.366,0,0,0-8.7-2.7,15.988,15.988,0,0,1,6.673.443C1445.453,1413.274,1442.4,1410.309,1440.134,1406.613Z" transform="translate(-1430.377 -1371.742)" fill-rule="evenodd" opacity="0.5" fill="url(#ab)" style="mix-blend-mode:multiply;isolation:isolate"/></g><g transform="translate(17.945)"><path d="M1523.981,1217.006a83.333,83.333,0,0,0-13.356,8.579c.216,1.558.334,3.116.552,4.7-1.163-1.151-2.014-1.994-2.906-2.723-11.1,9.781-15.441,20.859-15.087,32.349,2.8,2.722,3.612,3.264,7.642,5.343q-3.563.079-7.124.166c1.771,11.044,9.471,19.345.845,32.49-.335.51-.668,1.027-.992,1.552q2.787,3.824,5.583,7.642c-3.8-1.764-5.3-2.37-7.981-2.865-2.442,6.724-1.1,15.32,14.491,28.787,1.828.546,7.043.141,8.455-.742,1.674-6.5,7.9-16.6,12.931-24.485,4.091-6.417,5.593-11.445,5.522-15.782-2.7.227-5.351.118-8.071.219,3.183-2.555,4.734-3.793,6.749-6.718-3.237-8.356-11.468-15.187-13.914-27.941-.148-.769-.292-1.574-.428-2.413-1.493.045-2.979.018-4.493.075a27.967,27.967,0,0,0,4.006-3.606C1515.32,1242.056,1515.888,1229.336,1523.981,1217.006Z" transform="translate(-1490.198 -1217.006)" fill-rule="evenodd" fill="url(#ac)"/><path d="M1521.929,1289.6a30.6,30.6,0,0,1-6.7-10.827c2.223,3,3.928,5.861,6.326,7.934a31.531,31.531,0,0,1-.112-3.678c.325-11.366,6.162-19.295,12.833-27.717-4.926,6.838-9.447,13.406-10.929,21.484,1.657-2.057,3.836-3.25,6.888-5.293-2.849,2.823-5.658,5.152-7.313,8.613q-.1,1.424-.078,2.917a38.734,38.734,0,0,0,3.229,13.938c.908-3.162,2.848-5.369,5.588-8.374-1.873,3.078-4.053,6.859-4.663,10.587,2.51,5.824,5.4,11.4,6.328,17.6,4.13-5.886,3.282-4.856,7.342-10.686-2.3,7.207-3.6,9.793-7.044,14.15a26.365,26.365,0,0,1-1,7.719c-1.9,6.8-3.575,10.849-4.569,14.531,6.695-5.967,3.586-3.148,12.8-11.74-2.922,5.957-2.995,6.711-13.66,16.381-.318,3.518.107,7.59,1.63,14.114a19.9,19.9,0,0,1-3.994.059c-2.7-12.114-1.222-15.843,1.548-23.084-.883-5.985-2.284-12.911-4.669-18.112,3,2.684,5,5.731,6.533,13.051.605-1.751,1.236-3.717,1.871-5.982,1.7-6.052.663-11.548-1.2-17.008a58.191,58.191,0,0,0-9.9-7.876,22.106,22.106,0,0,1,8.44,3.927C1525.374,1300.928,1522.956,1295.544,1521.929,1289.6Z" transform="translate(-1508.449 -1245.123)" fill-rule="evenodd" opacity="0.5" fill="url(#ad)" style="mix-blend-mode:multiply;isolation:isolate"/></g></g></g><g transform="translate(0 94.548)"><path d="M261.065,1705.47l44.082-24.669c4.806-2.157,11.684-3.875,16.58-1.371,4.461,2.281,11.81,6.95,15.059,8.771,2.468,1.383,11.036,6.427,5.7,9.279-15.7,8.388-31.234,17.821-47.174,26.341-3.015,1.612-7.425,2.194-12.055,1.816a32.338,32.338,0,0,1-13.056-3.821q-3.974-2.271-7.817-4.471c-3.458-1.979-5.291-4.317-5.473-6.481C256.733,1708.751,258.115,1706.793,261.065,1705.47Z" transform="translate(-256.896 -1494.351)" fill="#6d6afd" fill-rule="evenodd" opacity="0.5"/><g transform="translate(13.784)"><g transform="translate(29.973 30.175)"><path d="M448.021,1127.38c6.53-3.541,15.292-6.032,19.366-7.12.6-.159,4.874-1.222,5.452-1.417.318-.156,1.752-.738,2-.871a10.193,10.193,0,0,0,2.813,6.957c-.3.116-1.858.924-2.179,1.059-.476.258-1.147,1.58-1.5,1.98-3.536,3.985-14.869,10.091-23.8,13.441l-.033.011A6.168,6.168,0,0,1,443.1,1140c-1.013-.686-1.995-1.433-2.651-1.854-5.064-3.249-14.514-14.972-21.926-33.552,1.259-1.417,5.4-3.252,6.153-3.534a8.321,8.321,0,0,1,7.672,1.029c2.179,1.8,4.7,5.324,6.9,11.264,1.487,4.006,5.586,9,8.6,13.754Q447.935,1127.243,448.021,1127.38Z" transform="translate(-418.524 -1100.55)" fill-rule="evenodd" fill="url(#ae)"/><path d="M443.1,1142.338c-1.013-.686-1.995-1.433-2.651-1.854-5.064-3.249-14.514-14.972-21.926-33.552,7.493-8.431,17.838,1.665,20.611,9.138,3.592,9.681,6.888,17.9,8.785,28.213A5.042,5.042,0,0,1,443.1,1142.338Z" transform="translate(-418.524 -1102.89)" fill="#f969ac" fill-rule="evenodd" opacity="0.35" style="mix-blend-mode:multiply;isolation:isolate"/><g transform="translate(53.976 10.96)"><path d="M625.857,1144.388l1.322-2.155a1.109,1.109,0,0,1,1.3-.388c1.8.933,1.354,4.268-1,6.019,2.821.1,3.785.758,3.919,2,.211,1.953-.17,9.236-1.446,9.758-1.054.432-6.219.912-7.2.1-.717-.6.052-1.09-.91-2.086-.319-.331-1.682-.337-2.708-1.138-1.329-1.039-1.623-4.626-.712-6.687a4.992,4.992,0,0,1,.6-2.709C620.687,1144.6,624.2,1147.087,625.857,1144.388Z" transform="translate(-617.899 -1141.751)" fill="#ffa698" fill-rule="evenodd"/><path d="M625.383,1171.427c.685.156.5.4,1.436.476a5.158,5.158,0,0,1-1.976.911c-1.059-.337-1.462-.389-1.862.242-1.165,1.836-.75,5.7-.659,6.8-.43-.986-3.054-.786-3.682-2.374-.45-1.357-.841-4.7-.083-5.372a2.664,2.664,0,0,0,2.612,1.021C622.779,1172.791,624.939,1171.326,625.383,1171.427Z" transform="translate(-618.066 -1163.529)" fill-rule="evenodd" fill="url(#af)"/></g></g><g transform="translate(4.535 85.471)"><path d="M327.567,1730.482a19.08,19.08,0,0,1-.544,2.739,31.394,31.394,0,0,0-1.433,4.4c-.734,3.065.276,7.171-.714,11.507a4.673,4.673,0,0,0,.7,4.654c1.149,1.5,3.312,3.908,6.131,3.817a4.256,4.256,0,0,0,2.975-1.418,6.909,6.909,0,0,0,1.778-5.14,41.887,41.887,0,0,1-.466-5.915c.073-2.124.469-3.293.419-5.622-.053-2.461-.246-5.85-.285-7.438Z" transform="translate(-324.564 -1618.204)" fill="#20234a" fill-rule="evenodd"/><path d="M423.908,1676.494a14.071,14.071,0,0,0-1.393,6.157c.5,1.607,1.653,2.26,2.937,3.37l.905.195c2.244,1.193,3.065,5.377,5.147,7.282,1.469,1.344,4.392,2.076,7.294,2.626,3.1.588,6.049-.282,5.241-2.679-2.006-5.954-10.676-12.68-10.875-19.333Z" transform="translate(-395.997 -1576.83)" fill="#20234a" fill-rule="evenodd"/><path d="M416.505,1365.636c-.222,11.408-2.752,32.757-2.366,44-2.966,2.921-8.9,2.018-10.835-.973-1.2-10.344-2.608-25.039-2.747-30.715a43.3,43.3,0,0,1,1.544-13.311c-1.724-12.482-9.06-29.513-7.313-41.257.767-5.158,4.207-10.71,5.209-14.965,8.653,10.475,15.246,5.454,18.827,4.544-.021,3.619.258,3.136.139,6.94-.4,12.863-1.013,26.6-1.732,39.945A17.94,17.94,0,0,1,416.505,1365.636Z" transform="translate(-375.581 -1308.414)" fill-rule="evenodd" fill="url(#ag)"/><path d="M401.31,1388.768c-.4-4.492-.694-8.4-.753-10.821a43.286,43.286,0,0,1,1.544-13.311c-1.724-12.482-9.06-29.513-7.314-41.257.767-5.158,4.207-10.71,5.208-14.965,8.653,10.475,15.247,5.454,18.827,4.544,0,.4,0,.756,0,1.069l-11.34,8.234,2.794-.62c-.106,14.823-1.973,28.336-2.254,42.954a218.72,218.72,0,0,0-6.67,23.912Z" transform="translate(-375.581 -1308.414)" fill="#1e2353" fill-rule="evenodd" opacity="0.3" style="mix-blend-mode:multiply;isolation:isolate"/><path d="M350.116,1382.408c-2.085,11.408-8.169,39.091-9.618,50.332-3.746,2.045-9.252,1.331-10.575-1.66-.043-10.344,0-28.948.787-34.623.656-4.724,2.357-12.012,4.278-16.254-.767-26.652-3.076-34.11.587-45.854,1.609-5.158,5.821-10.135,7.517-14.39,2.323,3.5,5.906,8.478,13.582,7.863.751-.06,7.151-4.553,9.265-5.069-2.679,15.856-10.4,36.568-14.152,53.862A19.763,19.763,0,0,1,350.116,1382.408Z" transform="translate(-328.464 -1316.888)" fill-rule="evenodd" fill="url(#ah)"/></g><path d="M351.8,1096.947a6.483,6.483,0,0,1,2.4.793c5.711,3.115,7.7,12.284,8.619,20.317.8,6.969.192,12.753-.033,19.128-.18,5.086.488,9.792.256,14.606-.068,1.426-.619,2.973-.769,4.491a7.218,7.218,0,0,0-.374,3c-2.859,10.713-29.882,11.6-33.815,4.346a21.108,21.108,0,0,0,.693-3.244c-2.544-2.277-1.075-7.826-1.476-11.7a30.884,30.884,0,0,0-1.6-8c-3.675-8.9-8.806-15.743-9.826-22.572-.7-4.7,5.415-10.559,13.48-15.3C337.114,1098.248,347.648,1095.757,351.8,1096.947Z" transform="translate(-313.65 -1067.513)" fill-rule="evenodd" fill="url(#ai)"/><path d="M347.981,1193.761a.757.757,0,0,1,.687.751.639.639,0,0,1-.687.655.758.758,0,0,1-.687-.751.639.639,0,0,1,.687-.655Zm-3.8,1.244.1.245c.108.262.21.538.305.825l3.175-6.492,4.141,6.865a30.136,30.136,0,0,1-7.278-.257c.143.444.272.913.388,1.4,16.841,2.393,31.893-9.94,36.733-14.421q.032-.98.046-1.969c-.623.613-1.751,1.68-3.3,2.976l2.969-10.982-.036-.329h0v-.009h0v-.008h0v-.019h0v-.007h0v-.018h0v-.007h0v-.009h0v-.008h0v-.008h0v-.009h0v-.007h0v-.008h0v-.009h0v-.008h0v-.018h0v-.008h0v-.018h0v-.008h0v-.009h0v0h0v-.01h0v-.01h0v-.018l0-.01v-.01l0-.01v-.01h0v-.051h0v-.05h0v-.011l0-.009v-.01l0-.01v-.009h0v-.05h0v-.092l0-.008v-.012l0-.01v-.041l0-.01v-.051h0v-.152h0l0-.02h0c-.039-.324-.08-.649-.123-.976l-.186.686-.195-.183c-.041.042-10.513,11.114-24.442,14.769l-.041-.054-.031.073a31.623,31.623,0,0,1-14.806.47l-.2,1.309a30.515,30.515,0,0,0,5.939.688l-3.059,6.254Zm4-6.25,4.142,6.866,3.322-7.782a34.835,34.835,0,0,1-7.464.916Zm9.086-1.326a45.608,45.608,0,0,0,7.038-2.607l-2.444,8.646-4.594-6.039Zm8.273-3.2a59.735,59.735,0,0,0,7.219-4.26l-2.208,9.573-5.011-5.313Zm8.4-5.092a65.818,65.818,0,0,0,6.494-5.315l-2.883,10.668-3.61-5.353Zm3.2,6.147a64.9,64.9,0,0,1-5.7,4.048l2.147-9.309,3.548,5.261Zm-7.069,4.889a51.921,51.921,0,0,1-7.459,3.684l2.522-8.921,4.938,5.237Zm-8.576,4.105a37.869,37.869,0,0,1-8.577,2.068l3.649-8.547,4.929,6.479Zm-18.113-4.519a.758.758,0,0,1,.687.751.639.639,0,0,1-.687.654.757.757,0,0,1-.687-.751.64.64,0,0,1,.687-.655Zm38.239-10.781a.753.753,0,0,1,.172.034q.008.685.005,1.36a.666.666,0,0,1-.178.011.757.757,0,0,1-.687-.751.639.639,0,0,1,.687-.655Zm-4.416-.676a.757.757,0,0,1,.687.751.639.639,0,0,1-.687.655.758.758,0,0,1-.687-.751.639.639,0,0,1,.687-.654Zm-2.749,6.4a.758.758,0,0,1,.687.751.639.639,0,0,1-.687.655.758.758,0,0,1-.687-.751.64.64,0,0,1,.687-.654Zm-5.183-1.25a.757.757,0,0,1,.687.751.64.64,0,0,1-.687.655.758.758,0,0,1-.687-.751.64.64,0,0,1,.687-.654Zm-3.064,5.9a.757.757,0,0,1,.687.751.639.639,0,0,1-.687.654.757.757,0,0,1-.687-.75.639.639,0,0,1,.687-.655Zm-5.138-2a.757.757,0,0,1,.687.751.639.639,0,0,1-.687.654.757.757,0,0,1-.687-.751.639.639,0,0,1,.687-.654Zm-4.1,5.335a.758.758,0,0,1,.688.751.639.639,0,0,1-.688.654.757.757,0,0,1-.687-.751.64.64,0,0,1,.687-.654Zm-4.845-3.064a.758.758,0,0,1,.688.751.64.64,0,0,1-.688.655.758.758,0,0,1-.687-.751A.639.639,0,0,1,352.127,1189.625Z" transform="translate(-332.235 -1122.079)" fill="#ffbeaa" fill-rule="evenodd"/><path d="M365.158,1210.816a5.2,5.2,0,0,0-.368,2.748c-2.859,10.713-29.882,11.6-33.815,4.346a21.108,21.108,0,0,0,.693-3.244c-2.544-2.277-1.075-7.826-1.476-11.7a30.884,30.884,0,0,0-1.6-8c-2.961-7.168-6.868-13.007-8.807-18.577l3.852-3.482,7.752-2.3a47.683,47.683,0,0,1,3,11.923c.683,4.968.957,9.973,1.87,15C337.344,1210.973,339.442,1220.045,365.158,1210.816Z" transform="translate(-316.542 -1121.791)" fill="#f969ac" fill-rule="evenodd" opacity="0.35" style="mix-blend-mode:multiply;isolation:isolate"/><g transform="translate(31.77 68.38)"><path d="M425.34,1280.981a4.7,4.7,0,0,0,1.459.861,1.245,1.245,0,0,0,.688-.069L447.5,1268.6l3.293-2.892,23.412-18.98c.625-.541,1.949-1.336,2.049-1.667a9.7,9.7,0,0,0-1.4-.832c-.167-.172-.818,0-2.189.809l-20.244,11.617a8.512,8.512,0,0,0-2.132,1.43l-24.8,21.934C425.155,1280.3,425.026,1280.75,425.34,1280.981Z" transform="translate(-425.161 -1244.169)" fill="#d8fff7" fill-rule="evenodd"/><path d="M430.444,1283.163c-.079.242-.558,1.326,1.187.715l20.988-12.282,3.293-2.892,22.905-19.81c1.5-1.3,2.03-2.666-1.032-.859l-20.244,11.617a8.521,8.521,0,0,0-2.132,1.43Z" transform="translate(-428.926 -1246.367)" fill="#9fd2fb" fill-rule="evenodd"/></g><path d="M404.115,1324.495a12,12,0,0,0,1.795.858c.006-.053.014-.106.023-.158a2.952,2.952,0,0,0,.57.386c.36.136.718.267,1.063.4a21.452,21.452,0,0,0,2.649.412c1.049.162,3.535.518,4.594.776,1.383.337,2.48,1.562,4.4,2.632l-2.1,1.858a2.607,2.607,0,0,0,1.359.277c1.911-.188,6.812-2.592,6.614-1.63a17.2,17.2,0,0,1-2.052,3.849,15.368,15.368,0,0,1-4.32,3.614,27.183,27.183,0,0,1-5.139,2.712c-1.385.416-5.99-2.8-6.85-3.813-2.746-3.227-1.649-4.875-4.4-6.169Z" transform="translate(-376.733 -1234.746)" fill-rule="evenodd" fill="url(#aj)"/><path d="M309.37,1155.972c-1.9,8.172-.66,21.436-1.529,31a5.626,5.626,0,0,0,.11,1.852c.005.132.016.262.033.391.169,2.1,1.809,3.384,3.806,4.656,5.126,3.266,9.361,7.419,18.552,10.277a9.217,9.217,0,0,0,2.941-.141c.573.17,1.321.591,1.93.765-.1-1.9,2.141-5.7,3.86-6.358-.6-.315-1.309-.845-1.951-1.225a5.773,5.773,0,0,0-1.2-1.662,95.385,95.385,0,0,0-15.466-10.916c.7-2.377,1.16-4.824,1.631-6.677a112.113,112.113,0,0,0,2.257-11.512c.216-1.491.366-2.244.545-3.763C326.223,1151.385,311.673,1146.062,309.37,1155.972Z" transform="translate(-307.811 -1107.226)" fill-rule="evenodd" fill="url(#ak)"/><g transform="translate(19.431)"><path d="M398.031,1081.493c.082-.428.187-.857.28-1.317.266-1.311-.081-3.856.276-6.859l-11.572-4.8c-.193,6.385-1.257,7.7-2.453,12.9.129,5.115,13.06,7.4,13.331,1.4A9.314,9.314,0,0,1,398.031,1081.493Z" transform="translate(-383.214 -1046.86)" fill="#ffa698" fill-rule="evenodd"/><path d="M403.87,1081.493c.082-.428.187-.857.28-1.317.266-1.311-.081-3.856.276-6.859l-11.572-4.8c-.044,1.45-.133,2.643-.257,3.682-.412,4.229,3.713,11.594,11.135,10.617A9.323,9.323,0,0,1,403.87,1081.493Z" transform="translate(-389.053 -1046.86)" fill-rule="evenodd" fill="url(#al)"/><path d="M400.1,1033.045c-1.419-.921-5.3-3.237-6.572-4.154-2.782-2.006-2.445-4.565-3.25-8.573-2.6-1.827-3.476-3.276-3.708-4.916-.552-3.89,1.7-8.082,4.727-10.373a10.652,10.652,0,0,1,9.1-1.827c6.64,1.429,9.375,6.366,9.726,12.009a3.717,3.717,0,0,1-.187,1.4,17.535,17.535,0,0,0-.614,2.1c-.35,1.674.8,2.281.342,4.36-.624,2.829-3.013,8.349-3.991,9.272C404.915,1033.05,401.562,1033.28,400.1,1033.045Z" transform="translate(-384.614 -998.696)" fill="#ffa698" fill-rule="evenodd"/><path d="M438.3,1039.954a17.878,17.878,0,0,1,.32,2.459,3.722,3.722,0,0,1-.187,1.4,17.524,17.524,0,0,0-.614,2.1c-.35,1.674.8,2.281.342,4.36a33.263,33.263,0,0,1-1.8,5.2c-4.274,3.194-8.013-.707-8.585-1.431-2.679-3.395-2.885-8.473-.858-13.215A16.681,16.681,0,0,0,438.3,1039.954Z" transform="translate(-413.112 -1025.899)" fill-rule="evenodd" fill="url(#am)"/><path d="M379.676,1001.984a32.126,32.126,0,0,0,3.2,9.754c1.349,2.13.76-.48,1.47-1.937.546-1.121,2.314-1.251,2.848-2.406a3.607,3.607,0,0,0,1.255,2.284c.41.219,1.24.521,1.272-.637.113-4,2.041-4.281,1.432-6.68-.456-1.8-.345-2.571.1-3.22,1.329.183,2.185,1.521,3.744,2.182a13.852,13.852,0,0,0,9.259-.865c3.284-1.762,3.59-5.692.833-8.217-1.535-1.4-3.257-1.761-5.665-3.345a10.579,10.579,0,0,0-13.439,1.4C379.94,991.494,379.281,997.161,379.676,1001.984Z" transform="translate(-379.584 -987.117)" fill="#562e65" fill-rule="evenodd"/><path d="M396.514,1055.006c-2.5-1.116-2.814,1.822-2.59,3.643.154,1.251,1.193,1.259,1.469,2.262a2.347,2.347,0,0,0,1.966,1.872c1.582.109.835-2.287.738-3.219C398.429,1058.085,398.1,1055.714,396.514,1055.006Z" transform="translate(-389.998 -1036.766)" fill="#ffa698" fill-rule="evenodd"/><path d="M428.97,1011.955c-.243,1.672,1.946,3.638,5.025,3.8,2.855.153,6.723-.509,8.153-3.916a3.848,3.848,0,0,0-1.5-4.207,3.64,3.64,0,0,0-3.422.016c-2.11.911-3.87,3.227-5.38,3.8C430.412,1011.992,429,1011.778,428.97,1011.955Z" transform="translate(-415.587 -1001.871)" fill-rule="evenodd" fill="url(#an)"/></g></g></g></g></g></g></g></svg>