<svg xmlns="http://www.w3.org/2000/svg" xmlns:xlink="http://www.w3.org/1999/xlink" width="640" height="480" viewBox="0 0 640 480"><defs><linearGradient id="a" x1="0.529" y1="0.245" x2="0.296" y2="0.833" gradientUnits="objectBoundingBox"><stop offset="0" stop-color="#a77ef7"/><stop offset="1" stop-color="#5e65d6"/></linearGradient><clipPath id="b"><path d="M586.425,222.164l25.158,14.548a1.352,1.352,0,0,0,2.028-1.171V213.318a1.352,1.352,0,0,0-.674-1.171L587.779,197.6a1.351,1.351,0,0,0-2.028,1.17v22.222A1.352,1.352,0,0,0,586.425,222.164Z" transform="translate(-585.751 -197.417)" fill="none"/></clipPath></defs><g transform="translate(-89 -1956)"><rect width="640" height="480" transform="translate(89 1956)" fill="rgba(255,234,234,0)" opacity="0.96"/><circle cx="201" cy="201" r="201" transform="translate(208 1995)" opacity="0.5" fill="url(#a)"/><g transform="translate(-152.323 1861.014)"><g transform="translate(471.937 118.724)"><g transform="translate(0 189.241)"><path d="M492.417,264.476a8.354,8.354,0,0,1,7.583,0L642.284,347.31c2.084,1.211,2.073,3.177-.031,4.392L578.9,388.433a8.354,8.354,0,0,1-7.583,0L429.03,305.6c-2.084-1.211-2.072-3.177.032-4.392Z" transform="translate(-426.769 -258.311)" fill="#bbb8f6" opacity="0.5" style="mix-blend-mode:multiply;isolation:isolate"/><path d="M643.092,345.258l-4.246-2.708v.932L498.482,261.91a8.152,8.152,0,0,0-7.395,0l-59.891,34.7v-.5l-4.247,2.4v1.841h.007a2.6,2.6,0,0,0,1.511,2.1L571.56,385.618a8.144,8.144,0,0,0,7.395,0l62.59-36.263a2.41,2.41,0,0,0,1.482-2.554C643.048,346.383,643.092,345.258,643.092,345.258Z" transform="translate(-426.949 -259.182)" fill="#9796f7"/><path d="M491.087,260.542a8.143,8.143,0,0,1,7.395,0L641.576,343.7c2.033,1.18,2.021,3.1-.031,4.282l-62.59,36.263a8.144,8.144,0,0,1-7.395,0L428.466,301.087c-2.033-1.18-2.022-3.1.03-4.282Z" transform="translate(-426.949 -259.652)" fill="#d9dff6"/><path d="M487.883,264.539a2.1,2.1,0,0,1,1.907,0l6.556,3.81a.584.584,0,0,1-.005,1.105l-5.054,2.917a2.1,2.1,0,0,1-1.914,0l-6.556-3.81c-.528-.306-.518-.8.013-1.108Zm4.143,8.261c-.532.307-.541.8-.013,1.109l6.556,3.81a2.1,2.1,0,0,0,1.915,0l5.053-2.918a.583.583,0,0,0,.007-1.1l-6.556-3.81a2.1,2.1,0,0,0-1.907,0Zm9.379,5.452c-.532.306-.534.806-.013,1.108l6.556,3.81a2.116,2.116,0,0,0,1.922,0l5.053-2.917a.587.587,0,0,0,0-1.109l-6.554-3.81a2.113,2.113,0,0,0-1.908,0Zm9.484,5.511c-.532.308-.541.8-.013,1.109l6.556,3.81a2.1,2.1,0,0,0,1.915,0l5.053-2.918a.583.583,0,0,0,.007-1.1l-6.556-3.811a2.109,2.109,0,0,0-1.908,0Zm9.38,5.451c-.532.307-.534.807-.013,1.109l6.556,3.81a2.117,2.117,0,0,0,1.922,0l5.053-2.918a.586.586,0,0,0,0-1.108l-6.554-3.811a2.122,2.122,0,0,0-1.908,0Zm9.393,5.459c-.532.307-.541.8-.013,1.109l6.556,3.81a2.1,2.1,0,0,0,1.915,0l5.053-2.918a.583.583,0,0,0,.007-1.1l-6.556-3.81a2.1,2.1,0,0,0-1.908,0Zm9.38,5.45a.589.589,0,0,0-.007,1.113l6.556,3.81a2.115,2.115,0,0,0,1.915,0l5.053-2.917a.585.585,0,0,0,.007-1.105l-6.556-3.81a2.115,2.115,0,0,0-1.915,0Zm9.393,5.459c-.532.307-.534.807-.013,1.109l6.556,3.811a2.125,2.125,0,0,0,1.922,0l5.053-2.918a.587.587,0,0,0,0-1.109l-6.556-3.81a2.119,2.119,0,0,0-1.907,0Zm9.386,5.456c-.532.306-.541.8-.013,1.109l6.556,3.81a2.106,2.106,0,0,0,1.915-.005l5.053-2.917a.584.584,0,0,0,.005-1.105l-6.556-3.81a2.1,2.1,0,0,0-1.907,0Zm9.406,5.467a.589.589,0,0,0-.005,1.113l6.556,3.81a2.121,2.121,0,0,0,1.914,0l5.054-2.918a.586.586,0,0,0,.005-1.105l-6.554-3.81a2.123,2.123,0,0,0-1.915,0Zm9.386,5.454c-.53.307-.541.8-.013,1.109l6.556,3.81a2.111,2.111,0,0,0,1.915,0l5.053-2.918a.584.584,0,0,0,.007-1.105l-6.556-3.81a2.106,2.106,0,0,0-1.907,0Zm9.394,5.459c-.532.307-.543.8-.013,1.109l6.556,3.81a2.1,2.1,0,0,0,1.914,0l5.054-2.918a.583.583,0,0,0,.005-1.1l-6.556-3.811a2.107,2.107,0,0,0-1.907,0Zm9.378,5.45c-.532.307-.534.807-.013,1.109l6.556,3.81a2.116,2.116,0,0,0,1.922,0l5.054-2.918a.586.586,0,0,0,0-1.108l-6.556-3.811a2.119,2.119,0,0,0-1.907,0Zm9.393,5.458c-.53.307-.541.8-.013,1.109l6.556,3.81a2.1,2.1,0,0,0,1.915,0l5.054-2.917a.584.584,0,0,0,.005-1.105l-6.556-3.81a2.1,2.1,0,0,0-1.907,0Zm9.379,5.451a.589.589,0,0,0-.007,1.113l6.556,3.811a2.119,2.119,0,0,0,1.915-.005l5.053-2.917a.585.585,0,0,0,.007-1.105l-6.556-3.81a2.115,2.115,0,0,0-1.915,0ZM475.083,271.928c-.532.308-.534.8-.007,1.105l22.111,12.848a2.086,2.086,0,0,0,1.907,0l5.053-2.917c.532-.307.534-.8.007-1.105L482.043,269.01a2.1,2.1,0,0,0-1.907,0Zm24.99,14.523a.585.585,0,0,0,0,1.109l6.554,3.81a2.1,2.1,0,0,0,1.908,0l5.053-2.918a.583.583,0,0,0,.007-1.1l-6.556-3.811a2.107,2.107,0,0,0-1.915,0Zm9.386,5.454c-.532.308-.534.8-.007,1.105l6.556,3.81a2.1,2.1,0,0,0,1.915,0l5.053-2.917a.586.586,0,0,0,0-1.109l-6.556-3.81a2.089,2.089,0,0,0-1.908,0Zm9.393,5.46c-.532.306-.534.8-.007,1.1l6.556,3.81a2.089,2.089,0,0,0,1.908,0l5.053-2.917c.532-.307.534-.8.007-1.105l-6.556-3.81a2.088,2.088,0,0,0-1.908,0Zm9.379,5.45a.583.583,0,0,0-.007,1.1l6.556,3.81a2.1,2.1,0,0,0,1.915,0l5.053-2.917a.586.586,0,0,0,0-1.109l-6.556-3.81a2.1,2.1,0,0,0-1.907,0Zm9.393,5.459c-.532.306-.534.8-.007,1.1l6.556,3.811a2.1,2.1,0,0,0,1.908,0l5.053-2.918c.532-.307.534-.8.005-1.105l-6.554-3.81a2.1,2.1,0,0,0-1.908,0Zm9.38,5.45a.586.586,0,0,0,0,1.109l6.556,3.81a2.109,2.109,0,0,0,1.908,0l5.053-2.918a.584.584,0,0,0,.007-1.105l-6.557-3.81a2.1,2.1,0,0,0-1.914,0Zm9.413,5.471a.584.584,0,0,0-.005,1.105l6.556,3.81a2.108,2.108,0,0,0,1.913,0l5.054-2.918a.586.586,0,0,0,0-1.109l-6.556-3.81a2.107,2.107,0,0,0-1.907,0Zm9.386,5.454c-.53.307-.534.8-.005,1.105l6.556,3.81a2.1,2.1,0,0,0,1.907,0l5.053-2.918a.583.583,0,0,0,.007-1.105l-6.556-3.81a2.1,2.1,0,0,0-1.907,0Zm9.386,5.454a.586.586,0,0,0,0,1.109l6.556,3.81a2.1,2.1,0,0,0,1.907,0l5.054-2.918a.583.583,0,0,0,.005-1.1l-6.556-3.81a2.1,2.1,0,0,0-1.914,0Zm9.386,5.454c-.532.307-.534.8-.005,1.105l6.556,3.81a2.1,2.1,0,0,0,1.914,0l5.054-2.917a.586.586,0,0,0,0-1.109l-6.556-3.81a2.086,2.086,0,0,0-1.907,0Zm9.393,5.459c-.53.307-.533.8-.005,1.105l6.556,3.81a2.086,2.086,0,0,0,1.907,0l5.054-2.917c.53-.307.533-.8.005-1.105l-6.556-3.81a2.086,2.086,0,0,0-1.907,0Zm9.38,5.452a.583.583,0,0,0-.007,1.1l6.557,3.811a2.108,2.108,0,0,0,1.913,0l5.054-2.918a.586.586,0,0,0,0-1.109l-6.556-3.81a2.1,2.1,0,0,0-1.908,0ZM467.28,276.433c-.532.307-.534.8-.007,1.105l7.083,4.117a2.1,2.1,0,0,0,1.908,0l5.053-2.918a.583.583,0,0,0,.007-1.105l-7.085-4.116a2.086,2.086,0,0,0-1.907,0Zm9.766,5.676a.586.586,0,0,0,0,1.109l7.085,4.116a2.086,2.086,0,0,0,1.907,0l5.053-2.917c.532-.307.534-.8.007-1.105l-7.083-4.117a2.111,2.111,0,0,0-1.915,0ZM451.8,285.371a.582.582,0,0,0-.005,1.1l4.964,2.886a2.094,2.094,0,0,0,1.907,0L471.416,282c.532-.308.541-.8.013-1.109L466.465,278a2.1,2.1,0,0,0-1.914.005Zm15.5.09a.583.583,0,0,0-.007,1.1l7.083,4.117a2.115,2.115,0,0,0,1.915,0l5.053-2.918a.588.588,0,0,0,.007-1.112l-7.085-4.117a2.1,2.1,0,0,0-1.914,0Zm29.554,8.109a.584.584,0,0,0-.007,1.105l6.556,3.81a2.1,2.1,0,0,0,1.907,0l5.054-2.917c.532-.307.541-.8.013-1.109l-6.556-3.81a2.1,2.1,0,0,0-1.915,0Zm-17.224-1.043a.589.589,0,0,0-.007,1.113l12.97,7.539a2.11,2.11,0,0,0,1.915,0l5.053-2.918a.584.584,0,0,0,.007-1.105l-5.465-3.176,6.784-3.916a.587.587,0,0,0,.013-1.109l-6.556-3.81a2.117,2.117,0,0,0-1.922,0l-7.74,4.469-1.85,1.068Zm26.6,6.5a.587.587,0,0,0,0,1.109l6.556,3.81a2.119,2.119,0,0,0,1.907,0l5.053-2.918c.532-.307.536-.807.015-1.109l-6.556-3.81a2.117,2.117,0,0,0-1.922,0Zm9.394,5.459a.584.584,0,0,0-.007,1.1l6.556,3.811a2.121,2.121,0,0,0,1.913,0l5.054-2.918a.588.588,0,0,0,.005-1.113l-6.554-3.81a2.124,2.124,0,0,0-1.915,0Zm9.378,5.45a.587.587,0,0,0,0,1.109l6.556,3.81a2.107,2.107,0,0,0,1.907,0l5.053-2.918c.532-.306.542-.8.015-1.109l-6.557-3.81a2.114,2.114,0,0,0-1.92,0Zm9.393,5.458a.586.586,0,0,0-.005,1.105l6.562,3.814a2.119,2.119,0,0,0,1.907,0l5.054-2.918a.587.587,0,0,0,.013-1.109l-6.564-3.814a2.121,2.121,0,0,0-1.914,0Zm9.386,5.455a.584.584,0,0,0-.005,1.105l6.556,3.81a2.1,2.1,0,0,0,1.907,0l5.053-2.918c.532-.306.541-.8.013-1.109l-6.556-3.81a2.108,2.108,0,0,0-1.914,0Zm9.408,5.467a.587.587,0,0,0,0,1.109l6.556,3.81a2.1,2.1,0,0,0,1.907,0l5.053-2.918c.532-.306.542-.8.013-1.108l-6.556-3.811a2.125,2.125,0,0,0-1.922,0Zm9.386,5.454a.585.585,0,0,0-.007,1.105l6.556,3.81a2.115,2.115,0,0,0,1.915,0l5.053-2.917a.589.589,0,0,0,.007-1.113l-6.556-3.81a2.115,2.115,0,0,0-1.915,0Zm9.393,5.46a.583.583,0,0,0-.005,1.1l6.554,3.81a2.1,2.1,0,0,0,1.908,0l5.053-2.917c.532-.307.541-.8.013-1.109l-6.556-3.81a2.1,2.1,0,0,0-1.915,0Zm9.38,5.449a.588.588,0,0,0,0,1.11l6.556,3.81a2.122,2.122,0,0,0,1.908,0l5.053-2.918c.532-.307.534-.806.013-1.109l-6.556-3.81a2.117,2.117,0,0,0-1.922,0Zm9.527,5.538a.583.583,0,0,0-.007,1.1l14.336,8.332a2.122,2.122,0,0,0,1.908,0l5.053-2.918a.587.587,0,0,0,.013-1.109l-14.336-8.331a2.1,2.1,0,0,0-1.915,0Zm-95.447-46.5a.587.587,0,0,0-.013,1.109l6.556,3.81a2.125,2.125,0,0,0,1.922,0l5.053-2.918a.587.587,0,0,0,0-1.109l-6.556-3.81a2.111,2.111,0,0,0-1.907,0Zm9.393,5.459c-.532.306-.541.8-.013,1.108l6.556,3.811a2.108,2.108,0,0,0,1.914,0l5.054-2.918a.584.584,0,0,0,.007-1.105l-6.557-3.81a2.106,2.106,0,0,0-1.907,0Zm9.38,5.451a.589.589,0,0,0-.007,1.113l6.556,3.81a2.124,2.124,0,0,0,1.915,0l5.053-2.918a.586.586,0,0,0,.005-1.105l-6.556-3.81a2.121,2.121,0,0,0-1.913,0Zm9.393,5.458a.587.587,0,0,0-.013,1.109l6.556,3.81a2.125,2.125,0,0,0,1.922,0l5.053-2.918a.587.587,0,0,0,0-1.109l-6.556-3.81a2.119,2.119,0,0,0-1.907,0Zm9.386,5.455c-.532.307-.542.8-.013,1.109l6.556,3.81a2.1,2.1,0,0,0,1.914,0l5.054-2.918a.584.584,0,0,0,.005-1.105l-6.556-3.81a2.107,2.107,0,0,0-1.907,0ZM542.389,329a.588.588,0,0,0-.005,1.113l6.556,3.81a2.112,2.112,0,0,0,1.914,0L555.906,331a.585.585,0,0,0,.007-1.105l-6.556-3.81a2.115,2.115,0,0,0-1.915,0Zm9.386,5.454c-.532.307-.541.8-.013,1.109l6.556,3.81a2.1,2.1,0,0,0,1.915,0l5.053-2.917a.584.584,0,0,0,.007-1.105l-6.556-3.81a2.1,2.1,0,0,0-1.907,0Zm9.386,5.456a.587.587,0,0,0-.005,1.112l6.554,3.811a2.107,2.107,0,0,0,1.915-.005l5.053-2.917a.584.584,0,0,0,.007-1.105L568.129,337a2.112,2.112,0,0,0-1.913,0Zm9.386,5.454c-.532.306-.534.806-.013,1.108l6.556,3.811a2.125,2.125,0,0,0,1.922,0l5.053-2.918a.587.587,0,0,0,0-1.109l-6.556-3.81a2.113,2.113,0,0,0-1.908,0Zm9.393,5.459c-.53.306-.541.8-.013,1.109l6.556,3.81a2.111,2.111,0,0,0,1.915,0l5.053-2.918a.584.584,0,0,0,.007-1.105L586.9,347.9a2.107,2.107,0,0,0-1.907,0Zm9.38,5.45a.589.589,0,0,0-.007,1.113l8.147,4.735a2.123,2.123,0,0,0,1.915,0l5.053-2.918a.585.585,0,0,0,.007-1.105l-8.147-4.735a2.123,2.123,0,0,0-1.915,0ZM459.6,289.9c-.532.308-.534.8-.007,1.105l7.083,4.116a2.1,2.1,0,0,0,1.915,0l5.053-2.917a.585.585,0,0,0,0-1.109l-7.083-4.117a2.094,2.094,0,0,0-1.907,0Zm10.2,5.876a.587.587,0,0,0,0,1.109l8.648,5.025a2.119,2.119,0,0,0,1.907,0L485.407,299a.587.587,0,0,0,.013-1.109l-8.646-5.025a2.125,2.125,0,0,0-1.922,0Zm11.575,6.728a.583.583,0,0,0-.005,1.1l6.556,3.811a2.106,2.106,0,0,0,1.907,0l5.053-2.918c.532-.307.542-.8.013-1.109l-6.556-3.81a2.1,2.1,0,0,0-1.914,0Zm9.38,5.45a.587.587,0,0,0,0,1.109l6.556,3.81a2.119,2.119,0,0,0,1.907,0l5.053-2.918a.587.587,0,0,0,.013-1.109l-6.556-3.81a2.125,2.125,0,0,0-1.922,0Zm9.393,5.459a.586.586,0,0,0-.005,1.105l6.554,3.81a2.123,2.123,0,0,0,1.915,0l5.053-2.918a.589.589,0,0,0,.007-1.113l-6.556-3.81a2.12,2.12,0,0,0-1.914,0Zm9.38,5.451a.587.587,0,0,0,0,1.109l6.554,3.81a2.1,2.1,0,0,0,1.908,0l5.053-2.918c.532-.306.541-.8.013-1.108l-6.556-3.811a2.125,2.125,0,0,0-1.922,0Zm9.393,5.458a.586.586,0,0,0-.007,1.105l6.564,3.814a2.11,2.11,0,0,0,1.907,0l5.053-2.918a.587.587,0,0,0,.013-1.109l-6.562-3.814a2.119,2.119,0,0,0-1.915.005Zm9.386,5.455a.584.584,0,0,0-.007,1.105l6.556,3.81a2.1,2.1,0,0,0,1.908,0l5.053-2.917c.532-.307.541-.8.013-1.109l-6.556-3.81a2.1,2.1,0,0,0-1.915,0Zm9.408,5.468a.586.586,0,0,0,0,1.108l6.556,3.81a2.105,2.105,0,0,0,1.908,0l5.053-2.918c.532-.307.541-.8.013-1.109l-6.556-3.81a2.117,2.117,0,0,0-1.922,0ZM547.1,340.7a.585.585,0,0,0-.007,1.105l6.556,3.81a2.123,2.123,0,0,0,1.915,0l5.053-2.918a.589.589,0,0,0,.007-1.113l-6.556-3.81a2.115,2.115,0,0,0-1.915,0Zm9.393,5.458a.584.584,0,0,0-.007,1.105l6.556,3.81a2.109,2.109,0,0,0,1.908,0L570,348.158c.532-.308.541-.8.013-1.109l-6.556-3.81a2.107,2.107,0,0,0-1.915,0Zm9.378,5.451a.587.587,0,0,0,0,1.109l6.556,3.81a2.119,2.119,0,0,0,1.907,0l5.054-2.918a.587.587,0,0,0,.013-1.109l-6.556-3.81a2.125,2.125,0,0,0-1.922,0Zm9.527,5.536a.584.584,0,0,0-.005,1.105l14.336,8.331a2.113,2.113,0,0,0,1.908,0l5.053-2.918c.53-.306.534-.806.013-1.108l-14.337-8.332a2.1,2.1,0,0,0-1.914,0ZM436.265,294.339c-.532.307-.541.8-.013,1.109l4.964,2.884a2.1,2.1,0,0,0,1.914,0l12.808-7.393c.532-.307.541-.8.013-1.109l-4.964-2.884a2.1,2.1,0,0,0-1.915,0Zm15.358-.056a.583.583,0,0,0-.005,1.1l7.478,4.347a2.121,2.121,0,0,0,1.914,0l5.053-2.918a.589.589,0,0,0,.007-1.113l-7.478-4.345a2.1,2.1,0,0,0-1.915,0Zm10.352,6.014a.587.587,0,0,0,0,1.109l3.7,2.152a2.115,2.115,0,0,0,1.915,0l5.053-2.918a.589.589,0,0,0,.007-1.113l-3.7-2.153a2.124,2.124,0,0,0-1.922,0Zm6.858,3.985a.584.584,0,0,0-.007,1.105l3.881,2.255a2.112,2.112,0,0,0,1.914,0l5.054-2.918a.587.587,0,0,0,.005-1.112l-3.879-2.255a2.1,2.1,0,0,0-1.915,0Zm6.844,3.977a.586.586,0,0,0-.007,1.105l10.745,6.244a2.115,2.115,0,0,0,1.915,0l5.053-2.917a.588.588,0,0,0,.007-1.113l-10.745-6.244a2.115,2.115,0,0,0-1.915,0Zm13.583,7.893a.585.585,0,0,0-.005,1.106l6.556,3.808a2.1,2.1,0,0,0,1.907,0l5.053-2.917c.532-.307.541-.8.013-1.109l-6.556-3.81a2.1,2.1,0,0,0-1.914,0Zm9.38,5.452a.586.586,0,0,0,0,1.108l6.556,3.811a2.119,2.119,0,0,0,1.907,0l5.053-2.918c.532-.307.534-.807.013-1.109l-6.556-3.81a2.116,2.116,0,0,0-1.922,0Zm9.393,5.459a.586.586,0,0,0-.007,1.105l6.556,3.81a2.124,2.124,0,0,0,1.915,0l5.053-2.918a.589.589,0,0,0,.007-1.113L515,324.142a2.123,2.123,0,0,0-1.915,0Zm9.386,5.455a.584.584,0,0,0-.007,1.105l6.556,3.81a2.109,2.109,0,0,0,1.908,0l5.053-2.918c.532-.306.541-.8.013-1.109l-6.556-3.81a2.111,2.111,0,0,0-1.915,0Zm9.408,5.466a.587.587,0,0,0,0,1.109l6.556,3.81a2.114,2.114,0,0,0,1.908,0l5.053-2.918c.532-.306.534-.806.013-1.108l-6.556-3.811a2.125,2.125,0,0,0-1.922,0Zm9.386,5.455a.584.584,0,0,0-.007,1.105l6.556,3.81a2.1,2.1,0,0,0,1.907,0l5.054-2.917c.532-.307.541-.8.013-1.109l-6.556-3.81a2.1,2.1,0,0,0-1.915,0Zm9.385,5.454a.587.587,0,0,0,0,1.109l6.556,3.81a2.1,2.1,0,0,0,1.908,0l5.053-2.917c.532-.307.541-.8.013-1.109l-6.556-3.81a2.117,2.117,0,0,0-1.922,0Zm9.388,5.456a.584.584,0,0,0-.007,1.1l6.556,3.81a2.112,2.112,0,0,0,1.914,0l5.054-2.917a.588.588,0,0,0,.005-1.113l-6.556-3.81a2.112,2.112,0,0,0-1.914,0Zm9.393,5.459a.584.584,0,0,0-.007,1.105l6.556,3.808a2.1,2.1,0,0,0,1.907,0l5.054-2.917c.532-.307.541-.8.012-1.109l-6.554-3.809a2.107,2.107,0,0,0-1.915,0Zm9.378,5.45a.587.587,0,0,0,0,1.109l6.556,3.81a2.119,2.119,0,0,0,1.907,0l5.054-2.918c.53-.307.534-.806.012-1.109l-6.554-3.81a2.117,2.117,0,0,0-1.922,0ZM446.932,300.539c-.532.306-.541.8-.013,1.109l6.556,3.81a2.111,2.111,0,0,0,1.915,0l5.053-2.918a.584.584,0,0,0,.007-1.105l-6.556-3.81a2.109,2.109,0,0,0-1.908,0Zm9.38,5.45a.589.589,0,0,0-.007,1.113l6.556,3.81a2.123,2.123,0,0,0,1.915,0l5.053-2.918a.585.585,0,0,0,.007-1.105l-6.556-3.81a2.123,2.123,0,0,0-1.915,0ZM465.8,311.5c-.532.306-.541.8-.013,1.109l6.556,3.81a2.111,2.111,0,0,0,1.915,0l5.053-2.918a.584.584,0,0,0,.007-1.105l-6.556-3.81a2.105,2.105,0,0,0-1.908,0Zm9.38,5.45a.589.589,0,0,0-.007,1.113l6.556,3.81a2.123,2.123,0,0,0,1.915,0l5.053-2.918a.585.585,0,0,0,.007-1.105l-6.556-3.81a2.123,2.123,0,0,0-1.915,0Zm9.393,5.459c-.532.307-.541.8-.013,1.109l44.129,25.644a2.1,2.1,0,0,0,1.915,0l5.053-2.917a.584.584,0,0,0,.005-1.105L491.53,319.493a2.109,2.109,0,0,0-1.908,0ZM531.52,349.7a.586.586,0,0,0-.013,1.108l6.556,3.811a2.125,2.125,0,0,0,1.922,0l5.054-2.918a.587.587,0,0,0,0-1.109l-6.556-3.81a2.111,2.111,0,0,0-1.907,0Zm9.394,5.459c-.532.306-.542.8-.013,1.109l6.556,3.81a2.108,2.108,0,0,0,1.914,0l5.054-2.918a.584.584,0,0,0,.005-1.105l-6.556-3.81a2.1,2.1,0,0,0-1.907,0Zm9.378,5.451a.589.589,0,0,0-.005,1.113l6.556,3.81a2.121,2.121,0,0,0,1.914,0l5.053-2.918a.585.585,0,0,0,.007-1.105l-6.556-3.81a2.12,2.12,0,0,0-1.913,0Zm9.394,5.458c-.532.308-.534.806-.013,1.109l6.556,3.81a2.116,2.116,0,0,0,1.922,0l5.053-2.918a.587.587,0,0,0,0-1.109l-6.556-3.81a2.119,2.119,0,0,0-1.907,0Zm9.378,5.451a.588.588,0,0,0-.005,1.113l5.084,2.954a2.112,2.112,0,0,0,1.913,0l5.054-2.918a.585.585,0,0,0,.005-1.1l-5.084-2.956a2.123,2.123,0,0,0-1.915,0Z" transform="translate(-423.894 -258.056)" fill="#b4b9f6"/></g><g transform="translate(70.045)"><g transform="translate(29.351 182.646)"><path d="M521.879,258.206a5.313,5.313,0,0,1,4.822,0L620,312.426c1.325.769,1.319,2.02-.02,2.793l-19.9,10.968a5.309,5.309,0,0,1-4.822,0l-93.3-54.221c-1.325-.769-1.319-2.02.02-2.793Z" transform="translate(-500.969 -253.752)" fill="#bbb8f6" opacity="0.5" style="mix-blend-mode:multiply;isolation:isolate"/><path d="M522.648,257.539a5.138,5.138,0,0,1,4.665,0l91.243,50.639s0,2.691,0,3.18a1.658,1.658,0,0,1-.975,1.352l-19.259,10.615a5.138,5.138,0,0,1-4.665,0l-90.287-52.469a1.627,1.627,0,0,1-.956-1.351c0-.489.062-3.368.062-3.368Z" transform="translate(-500.474 -253.974)" fill="#9796f7"/><path d="M522.649,255.3a5.138,5.138,0,0,1,4.665,0L617.6,307.769c1.282.745,1.276,1.955-.019,2.7l-19.259,10.615a5.138,5.138,0,0,1-4.665,0l-90.287-52.469c-1.282-.745-1.276-1.954.019-2.7Z" transform="translate(-500.474 -254.741)" fill="#d9dff6"/></g><path d="M664.4,221.35,487.712,119.342a3.135,3.135,0,0,0-3.319-.252l-.016-.009-3.523,2.093,2.288,1.332-.388,136.7a10,10,0,0,0,4.54,7.863l175.634,101.4-2.144,1.274,2.915,1.7,3.58-2.088-.027-.015a3.176,3.176,0,0,0,1.3-2.866l.388-137.262A10,10,0,0,0,664.4,221.35Z" transform="translate(-478.515 -118.724)" fill="#9796f7"/><g transform="translate(71.37 169.619)"><path d="M575.873,269.758V302.4l-3.171,1.715-38.078-24.242V245.04Z" transform="translate(-531.452 -245.04)" fill="#9796f7"/><path d="M573.511,270.15v33.826l-41.249-23.716V245.433Z" transform="translate(-532.262 -244.906)" fill="#b4b9f6"/></g><path d="M660.754,222.929a10,10,0,0,1,4.54,7.863L664.9,368.053c-.008,2.894-2.052,4.058-4.57,2.605L483.652,268.649a10,10,0,0,1-4.54-7.863l.389-137.261c.008-2.892,2.052-4.058,4.568-2.6Z" transform="translate(-479.112 -118.185)" fill="#d9dff6"/><g transform="translate(5.53 16.324)"><path d="M483.23,243.15a11.659,11.659,0,0,0,5.3,9.17l99.638,57.523,64.552,37.276c2.931,1.7,5.319.337,5.331-3.035l.3-108.5a11.671,11.671,0,0,0-5.291-9.182L572.14,179.687l-83.269-48.081c-2.931-1.687-5.331-.337-5.331,3.048Z" transform="translate(-483.23 -130.881)" fill="#f7f7f7"/></g></g><g transform="translate(96.325 40.548)" opacity="0.47"><path d="M504.319,149.43l123.719,71.556a3.754,3.754,0,0,1,1.875,3.247l.1,87.809a3.754,3.754,0,0,1-5.64,3.251L500.658,243.45a3.756,3.756,0,0,1-1.869-3.243l-.106-87.522A3.756,3.756,0,0,1,504.319,149.43Z" transform="translate(-498.683 -148.92)" fill="#d9dff6"/><g transform="translate(3.256 9.235)" opacity="0.5"><path d="M621.039,258.939,501.148,189.317v1.077L621.04,260.015Z" transform="translate(-501.094 -144.307)" fill="#fff"/><path d="M621.049,267.343,501.158,197.722V198.8L621.05,268.421Z" transform="translate(-501.09 -141.425)" fill="#fff"/><path d="M621.059,275.749,501.168,206.128v1.077l119.891,69.62Z" transform="translate(-501.087 -138.544)" fill="#fff"/><path d="M621,225.419,501.108,155.8v1.077L621,226.5Z" transform="translate(-501.108 -155.798)" fill="#fff"/><path d="M621.069,284.155,501.179,214.533v1.077l119.891,69.621Z" transform="translate(-501.083 -135.662)" fill="#fff"/><path d="M621.008,233.722,501.118,164.1v1.076L621.01,234.8Z" transform="translate(-501.104 -152.951)" fill="#fff"/><path d="M621.019,242.127,501.128,172.506v1.077L621.02,243.2Z" transform="translate(-501.101 -150.07)" fill="#fff"/><path d="M621.029,250.533,501.138,180.912v1.077L621.03,251.609Z" transform="translate(-501.097 -147.188)" fill="#fff"/><path d="M501.108,156.161l.095,78.387.981.566-.095-78.391Z" transform="translate(-501.107 -155.673)" fill="#fff"/><path d="M509.977,161.328l.095,78.387.979.566-.095-78.391Z" transform="translate(-498.067 -153.902)" fill="#fff"/><path d="M518.847,166.494l.095,78.388.979.565-.095-78.391Z" transform="translate(-495.026 -152.131)" fill="#fff"/><path d="M527.714,171.661l.095,78.387.981.566-.1-78.392Z" transform="translate(-491.986 -150.36)" fill="#fff"/><path d="M536.584,176.827l.095,78.388.981.564-.095-78.391Z" transform="translate(-488.946 -148.589)" fill="#fff"/><path d="M545.453,181.993l.095,78.388.979.565-.095-78.391Z" transform="translate(-485.905 -146.818)" fill="#fff"/><path d="M554.322,187.16l.1,78.387.979.565-.095-78.392Z" transform="translate(-482.865 -145.046)" fill="#fff"/><path d="M563.19,192.327l.095,78.388.981.565-.095-78.392Z" transform="translate(-479.825 -143.275)" fill="#fff"/><path d="M572.06,197.494l.095,78.386.981.566-.095-78.391Z" transform="translate(-476.784 -141.504)" fill="#fff"/><path d="M580.929,202.66l.095,78.387.98.566-.095-78.392Z" transform="translate(-473.744 -139.733)" fill="#fff"/><path d="M589.8,207.293l.1,79.95.979.565-.1-79.954Z" transform="translate(-470.704 -138.145)" fill="#fff"/></g><g transform="translate(5.097 68.144)"><path d="M584.022,247.911,562.237,201.97l-22.109,18.769-9.544-15.17-27.206,16.878-.9-.933,28.4-18.036,9.655,15.36,22.51-19.171,21.677,44.9,33.858-34,1.118.653Z" transform="translate(-502.479 -199.667)" fill="#9796f7"/></g></g><g transform="translate(53.507 18.463)"><g transform="translate(1.047)"><path d="M469.14,174.915l27.4,15.844a3.132,3.132,0,0,0,4.7-2.712V151.455a3.134,3.134,0,0,0-1.564-2.712l-27.4-15.844a3.132,3.132,0,0,0-4.7,2.712V172.2A3.134,3.134,0,0,0,469.14,174.915Z" transform="translate(-467.576 -132.473)" fill="#b4b9f6"/><path d="M485.337,159.7V148.007a1.3,1.3,0,0,1,1.948-1.124l8.684,5.021a1.3,1.3,0,0,1,.649,1.124v11.689a1.3,1.3,0,0,1-1.948,1.124l-8.684-5.022A1.3,1.3,0,0,1,485.337,159.7Zm-1.391-12.978a.679.679,0,0,0,.341-1.265l-13.267-7.727a.679.679,0,0,0-.685,1.172l13.268,7.727A.687.687,0,0,0,483.945,146.717Zm-.342,2.943-13.268-7.727a.679.679,0,0,1,.685-1.172l13.267,7.727a.678.678,0,1,1-.683,1.172Zm0,3.036-13.268-7.727a.679.679,0,0,1,.685-1.172l13.267,7.727a.678.678,0,1,1-.683,1.172Zm0,3.037-13.268-7.728a.679.679,0,0,1,.685-1.172l13.267,7.727a.679.679,0,0,1-.341,1.265A.686.686,0,0,1,483.6,155.734Zm0,3.035-13.268-7.727a.679.679,0,0,1,.685-1.172l13.267,7.727a.678.678,0,1,1-.683,1.172Z" transform="translate(-466.745 -130.704)" fill="#fffaff"/><path d="M485.337,173.261V161.573a1.3,1.3,0,0,1,1.948-1.124l8.684,5.022a1.3,1.3,0,0,1,.649,1.124v11.688a1.3,1.3,0,0,1-1.948,1.124l-8.684-5.022A1.3,1.3,0,0,1,485.337,173.261Zm-1.391-12.978a.679.679,0,0,0,.341-1.265l-13.267-7.725a.679.679,0,0,0-.685,1.172l13.268,7.727A.685.685,0,0,0,483.945,160.283Zm-.342,2.945L470.335,155.5a.679.679,0,0,1,.685-1.172l13.267,7.727a.678.678,0,0,1-.341,1.264A.686.686,0,0,1,483.6,163.227Zm0,3.036-13.268-7.727a.679.679,0,0,1,.685-1.174l13.267,7.728a.679.679,0,0,1-.341,1.265A.687.687,0,0,1,483.6,166.264Zm0,3.036-13.268-7.727a.679.679,0,0,1,.685-1.172l13.267,7.727a.678.678,0,1,1-.683,1.172Zm0,3.036-13.268-7.727a.679.679,0,0,1,.685-1.172l13.267,7.727a.678.678,0,0,1-.341,1.264A.686.686,0,0,1,483.6,172.336Z" transform="translate(-466.745 -126.054)" fill="#fffaff"/></g><g transform="translate(0 51.998)"><path d="M468.362,213.638l27.4,15.844a3.133,3.133,0,0,0,4.7-2.711V190.178a3.131,3.131,0,0,0-1.564-2.711l-27.4-15.844a3.133,3.133,0,0,0-4.7,2.711v36.593A3.133,3.133,0,0,0,468.362,213.638Z" transform="translate(-466.796 -171.197)" fill="#b4b9f6"/><path d="M484.558,198.418V186.73a1.3,1.3,0,0,1,1.948-1.124l8.684,5.022a1.3,1.3,0,0,1,.649,1.124V203.44a1.3,1.3,0,0,1-1.948,1.124l-8.684-5.022A1.3,1.3,0,0,1,484.558,198.418Zm-1.393-12.978a.679.679,0,0,0,.342-1.265l-13.268-7.727a.679.679,0,0,0-.684,1.174l13.268,7.725A.669.669,0,0,0,483.165,185.44Zm-.341,2.945-13.268-7.727a.679.679,0,0,1,.684-1.174l13.268,7.727a.679.679,0,0,1-.683,1.174Zm0,3.036-13.268-7.728a.678.678,0,0,1,.684-1.172l13.268,7.727a.679.679,0,0,1-.683,1.174Zm0,3.036-13.268-7.727a.679.679,0,0,1,.684-1.174l13.268,7.728a.678.678,0,1,1-.683,1.172Zm0,3.036-13.268-7.727a.678.678,0,0,1,.684-1.172l13.268,7.725a.679.679,0,0,1-.683,1.174Z" transform="translate(-465.965 -169.428)" fill="#fffaff"/><path d="M484.558,211.985V200.3a1.3,1.3,0,0,1,1.948-1.124l8.684,5.021a1.3,1.3,0,0,1,.649,1.124v11.689a1.3,1.3,0,0,1-1.948,1.124l-8.684-5.022A1.3,1.3,0,0,1,484.558,211.985Zm-1.393-12.978a.679.679,0,0,0,.342-1.265l-13.268-7.727a.678.678,0,0,0-.684,1.172l13.268,7.727A.682.682,0,0,0,483.165,199.007Zm-.341,2.943-13.268-7.727a.678.678,0,0,1,.684-1.172l13.268,7.727a.679.679,0,0,1-.342,1.265A.669.669,0,0,1,482.824,201.95Zm0,3.036-13.268-7.727a.678.678,0,0,1,.684-1.172l13.268,7.727a.679.679,0,0,1-.342,1.265A.669.669,0,0,1,482.824,204.986Zm0,3.037L469.556,200.3a.678.678,0,0,1,.684-1.172l13.268,7.727a.679.679,0,0,1-.683,1.174Zm0,3.035-13.268-7.727a.678.678,0,0,1,.684-1.172l13.268,7.727a.679.679,0,0,1-.342,1.265A.668.668,0,0,1,482.824,211.059Z" transform="translate(-465.965 -164.777)" fill="#fffaff"/></g><g transform="translate(44.564 71.627)"><path d="M501.9,237.767l33.538,19.394a3.835,3.835,0,0,0,5.755-3.319V209.049a3.838,3.838,0,0,0-1.915-3.319l-33.539-19.394a3.834,3.834,0,0,0-5.754,3.319v44.793A3.833,3.833,0,0,0,501.9,237.767Z" transform="translate(-499.983 -185.814)" fill="#b4b9f6"/><path d="M511.135,202.059c3.7-2.409,9.4-.222,12.724,4.886s3.023,11.2-.678,13.613-9.4.223-12.724-4.887S507.435,204.469,511.135,202.059Zm-3.518,35.3,19.149,11.073s0-14.3-2.906-19.786c-2.852-5.389-9.769-7.727-12.724-4.887C507.474,227.273,507.617,237.355,507.617,237.355Z" transform="translate(-497.366 -180.581)" fill="#fffaff"/></g><g transform="translate(159.734 87.207)"><g clip-path="url(#b)"><path d="M585.751,222.026l27.86,16.111V212.791l-27.86-16.111Z" transform="translate(-585.751 -197.67)" fill="#d1d3ff"/><path d="M585.751,217.2l27.86,16.111-14.7-22.554Z" transform="translate(-585.751 -192.844)" fill="#d9dff6"/><path d="M600.22,217.408l13.391-4.617L585.751,196.68l11.966,19.82A2.118,2.118,0,0,0,600.22,217.408Z" transform="translate(-585.751 -197.67)" fill="#d9dff6"/></g></g></g></g><g transform="translate(415.423 144.741)"><path d="M384.863,235.912l23.653,13.768h0L432.2,236.094l-23.823-13.867h0Z" transform="translate(-384.863 -109.259)" fill="#9997e9" opacity="0.5" style="mix-blend-mode:multiply;isolation:isolate"/><path d="M407.02,249.269l23.654,13.768,23.681-13.587-23.823-13.867h0Z" transform="translate(-377.267 -104.681)" fill="#bbb8f6" opacity="0.5" style="mix-blend-mode:multiply;isolation:isolate"/><path d="M429.659,262.084l23.653,13.768,23.681-13.587L453.17,248.4h0Z" transform="translate(-369.506 -100.287)" fill="#bbb8f6" opacity="0.5" style="mix-blend-mode:multiply;isolation:isolate"/><g transform="translate(3.768)"><path d="M387.669,262.267l18.194,10.59,18.216-10.451V146.078l-36.41-.14Z" transform="translate(-387.669 -135.412)" fill="#8184eb"/><path d="M387.669,148.626l18.194,10.59,18.216-10.451L405.754,138.1Z" transform="translate(-387.669 -138.099)" fill="#d9dff7"/><path d="M401.218,272.822V156.493l18.216-10.451V262.371Z" transform="translate(-383.024 -135.376)" fill="#bbb8f6"/></g><g transform="translate(34.5 34.181)"><path d="M410.555,271.544l18.194,10.59,18.216-10.451V171.533l-36.41-.139Z" transform="translate(-410.555 -160.867)" fill="#8184eb"/><path d="M410.555,174.081l18.194,10.59,18.216-10.451-18.325-10.666Z" transform="translate(-410.555 -163.554)" fill="#d9dff7"/><path d="M424.1,282.1V181.948L442.321,171.5v100.15Z" transform="translate(-405.91 -160.831)" fill="#b4b9f6"/></g><g transform="translate(65.233 74.892)"><path d="M433.442,279.153l18.194,10.59,18.216-10.451V201.851l-36.41-.14Z" transform="translate(-433.442 -191.184)" fill="#8184eb"/><path d="M433.442,204.4l18.194,10.59,18.216-10.451-18.325-10.666Z" transform="translate(-433.442 -193.872)" fill="#d9dff7"/><path d="M446.991,289.708V212.266l18.216-10.451v77.442Z" transform="translate(-428.797 -191.149)" fill="#b4b9f6"/></g></g><g transform="translate(643.106 396.469)"><g transform="translate(0 30.94)"><path d="M554.42,367.73c0,5.9,9.006,10.682,20.118,10.682s20.114-4.783,20.114-10.682-9.006-10.678-20.114-10.678S554.42,361.834,554.42,367.73Z" transform="translate(-554.42 -345.707)" fill="#bbb8f6" opacity="0.5" style="mix-blend-mode:multiply;isolation:isolate"/><path d="M572.98,359.281c0,5.9,9.006,10.682,20.118,10.682s20.115-4.783,20.115-10.682S604.207,348.6,593.1,348.6,572.98,353.386,572.98,359.281Z" transform="translate(-548.057 -348.603)" fill="#bbb8f6" opacity="0.5" style="mix-blend-mode:multiply;isolation:isolate"/><path d="M587.12,372.724c0,5.9,9.006,10.682,20.118,10.682s20.114-4.783,20.114-10.682-9.005-10.678-20.114-10.678S587.12,366.828,587.12,372.724Z" transform="translate(-543.21 -343.995)" fill="#bbb8f6" opacity="0.5" style="mix-blend-mode:multiply;isolation:isolate"/></g><g transform="translate(25.661 24.992)"><path d="M610.657,351.691v4.126c0,5.574-8.311,10.094-18.563,10.094s-18.564-4.52-18.564-10.094v-4.126Z" transform="translate(-573.53 -341.597)" fill="#9796f7"/><path d="M599.195,364.355c-.594.2-1.2.387-1.842.544V354.512h1.842Zm-18.848.042c.594.2,1.2.387,1.842.543V354.554h-1.842Zm23.7-2.263A10.739,10.739,0,0,0,607.284,359v-6.949h-3.236Z" transform="translate(-571.193 -341.475)" fill="#6782ea" opacity="0.41" style="mix-blend-mode:screen;isolation:isolate"/><path d="M573.53,354.268c0,5.574,8.312,10.094,18.564,10.094s18.563-4.52,18.563-10.094-8.311-10.094-18.563-10.094S573.53,348.694,573.53,354.268Z" transform="translate(-573.53 -344.174)" fill="#d9dff6"/><path d="M576.712,353.534c0,4.191,6.4,7.588,14.292,7.588s14.29-3.4,14.29-7.588-6.4-7.587-14.29-7.587S576.712,349.346,576.712,353.534Z" transform="translate(-572.439 -343.566)" fill="#b4b9f6"/><path d="M591,347c7.559,0,13.729,3.118,14.241,7.061a4.06,4.06,0,0,0,.05-.526c0-4.188-6.4-7.587-14.29-7.587s-14.292,3.4-14.292,7.587a4.05,4.05,0,0,0,.05.526C577.273,350.118,583.445,347,591,347Z" transform="translate(-572.439 -343.566)" fill="#9796f7"/><path d="M595.731,349.732l1.308-.761-1.033-.6-1.309.76c-2.359-1.2-5.263-1.484-7.275-.314-2.537,1.474-.847,3.016.439,4.286l-2.55,1.482c-.379-.428-.3-.851.307-1.27l-2.96-1.711c-2.014,1.258-1.547,2.852.471,4.247l-1.324.771,1.034.6,1.308-.759a7.963,7.963,0,0,0,7.365.317c2.5-1.456.741-3.009-.514-4.3l2.5-1.453c.3.355.235.749-.3,1.136l2.977,1.717C598.083,352.606,597.791,351.123,595.731,349.732Zm-7.227,5.425a2.554,2.554,0,0,1-2.2.054l2.288-1.329C588.984,354.386,589.084,354.82,588.5,355.157Zm1.8-3.471c-.336-.49-.38-.909.185-1.237a2.274,2.274,0,0,1,2.058-.068Z" transform="translate(-570.845 -342.837)" fill="#9796f7"/><path d="M595.731,349.377l1.308-.761-1.033-.6-1.309.76c-2.359-1.2-5.263-1.483-7.275-.314-2.537,1.474-.847,3.016.439,4.286l-2.55,1.482c-.379-.428-.3-.851.307-1.27l-2.96-1.711c-2.014,1.259-1.547,2.852.471,4.247l-1.324.772,1.034.595,1.308-.759a7.962,7.962,0,0,0,7.365.317c2.5-1.454.741-3.009-.514-4.3l2.5-1.453c.3.354.235.751-.3,1.136l2.977,1.717C598.083,352.25,597.791,350.768,595.731,349.377ZM588.5,354.8a2.558,2.558,0,0,1-2.2.052l2.288-1.329C588.984,354.031,589.084,354.466,588.5,354.8Zm1.8-3.472c-.336-.49-.38-.909.185-1.237a2.273,2.273,0,0,1,2.058-.068Z" transform="translate(-570.845 -342.958)" fill="#d9dff6"/></g><g transform="translate(25.661 18.744)"><path d="M610.657,347.038v4.126c0,5.574-8.311,10.094-18.563,10.094s-18.564-4.52-18.564-10.094v-4.126Z" transform="translate(-573.53 -336.944)" fill="#9796f7"/><path d="M599.195,359.7c-.594.2-1.2.387-1.842.544V349.859h1.842Zm-18.848.042c.594.2,1.2.387,1.842.542V349.9h-1.842Zm23.7-2.263a10.739,10.739,0,0,0,3.236-3.138v-6.949h-3.236Z" transform="translate(-571.193 -336.822)" fill="#6782ea" opacity="0.41" style="mix-blend-mode:screen;isolation:isolate"/><path d="M573.53,349.615c0,5.574,8.312,10.094,18.564,10.094s18.563-4.52,18.563-10.094-8.311-10.094-18.563-10.094S573.53,344.041,573.53,349.615Z" transform="translate(-573.53 -339.521)" fill="#d9dff6"/><path d="M576.712,348.881c0,4.191,6.4,7.588,14.292,7.588s14.29-3.4,14.29-7.588-6.4-7.587-14.29-7.587S576.712,344.691,576.712,348.881Z" transform="translate(-572.439 -338.913)" fill="#b4b9f6"/><path d="M591,342.345c7.559,0,13.729,3.119,14.241,7.06a4.017,4.017,0,0,0,.05-.525c0-4.19-6.4-7.587-14.29-7.587s-14.292,3.4-14.292,7.587a4.007,4.007,0,0,0,.05.525C577.273,345.465,583.445,342.345,591,342.345Z" transform="translate(-572.439 -338.913)" fill="#9796f7"/><path d="M595.731,345.079l1.308-.763-1.033-.595-1.309.759c-2.359-1.2-5.263-1.482-7.275-.313-2.537,1.474-.847,3.015.439,4.286l-2.55,1.482c-.379-.428-.3-.851.307-1.27l-2.96-1.711c-2.014,1.258-1.547,2.852.471,4.247l-1.324.771,1.034.6,1.308-.76a7.959,7.959,0,0,0,7.365.318c2.5-1.456.741-3.011-.514-4.3l2.5-1.453c.3.354.235.749-.3,1.135l2.977,1.719C598.083,347.953,597.791,346.47,595.731,345.079ZM588.5,350.5a2.554,2.554,0,0,1-2.2.054l2.288-1.329C588.984,349.733,589.084,350.167,588.5,350.5Zm1.8-3.471c-.336-.491-.38-.91.185-1.237a2.274,2.274,0,0,1,2.058-.068Z" transform="translate(-570.845 -338.184)" fill="#9796f7"/><path d="M595.731,344.724l1.308-.761-1.033-.6-1.309.76c-2.359-1.2-5.263-1.482-7.275-.314-2.537,1.474-.847,3.016.439,4.286l-2.55,1.483c-.379-.428-.3-.851.307-1.27l-2.96-1.711c-2.014,1.258-1.547,2.852.471,4.247l-1.324.771,1.034.6,1.308-.759a7.962,7.962,0,0,0,7.365.317c2.5-1.456.741-3.009-.514-4.3l2.5-1.453c.3.355.235.749-.3,1.136l2.977,1.717C598.083,347.6,597.791,346.115,595.731,344.724ZM588.5,350.15a2.558,2.558,0,0,1-2.2.052l2.288-1.329C588.984,349.378,589.084,349.813,588.5,350.15Zm1.8-3.473c-.336-.49-.38-.909.185-1.237a2.274,2.274,0,0,1,2.058-.068Z" transform="translate(-570.845 -338.305)" fill="#d9dff6"/></g><g transform="translate(25.661 12.496)"><path d="M610.657,342.385v4.126c0,5.574-8.311,10.094-18.563,10.094s-18.564-4.52-18.564-10.094v-4.126Z" transform="translate(-573.53 -332.291)" fill="#9796f7"/><path d="M599.195,355.05c-.594.2-1.2.387-1.842.542V345.207h1.842Zm-18.848.042c.594.2,1.2.385,1.842.543V345.248h-1.842Zm23.7-2.263a10.727,10.727,0,0,0,3.236-3.139V342.74h-3.236Z" transform="translate(-571.193 -332.169)" fill="#6782ea" opacity="0.41" style="mix-blend-mode:screen;isolation:isolate"/><path d="M573.53,344.962c0,5.574,8.312,10.094,18.564,10.094s18.563-4.52,18.563-10.094-8.311-10.094-18.563-10.094S573.53,339.388,573.53,344.962Z" transform="translate(-573.53 -334.868)" fill="#d9dff6"/><path d="M576.712,344.228c0,4.19,6.4,7.588,14.292,7.588s14.29-3.4,14.29-7.588-6.4-7.587-14.29-7.587S576.712,340.038,576.712,344.228Z" transform="translate(-572.439 -334.26)" fill="#b4b9f6"/><path d="M591,337.692c7.559,0,13.729,3.119,14.241,7.06a4.039,4.039,0,0,0,.05-.525c0-4.19-6.4-7.587-14.29-7.587s-14.292,3.4-14.292,7.587a4.028,4.028,0,0,0,.05.525C577.273,340.812,583.445,337.692,591,337.692Z" transform="translate(-572.439 -334.26)" fill="#9796f7"/><path d="M595.731,340.426l1.308-.763-1.033-.6-1.309.76c-2.359-1.2-5.263-1.482-7.275-.313-2.537,1.474-.847,3.015.439,4.285l-2.55,1.484c-.379-.428-.3-.851.307-1.27l-2.96-1.711c-2.014,1.258-1.547,2.852.471,4.247l-1.324.771,1.034.6,1.308-.76a7.959,7.959,0,0,0,7.365.318c2.5-1.456.741-3.011-.514-4.3l2.5-1.454c.3.354.235.751-.3,1.136l2.977,1.719C598.083,343.3,597.791,341.817,595.731,340.426Zm-7.227,5.425a2.554,2.554,0,0,1-2.2.052l2.288-1.328C588.984,345.08,589.084,345.514,588.5,345.851Zm1.8-3.471c-.336-.491-.38-.91.185-1.238a2.278,2.278,0,0,1,2.058-.067Z" transform="translate(-570.845 -333.531)" fill="#9796f7"/><path d="M595.731,340.071l1.308-.761-1.033-.6-1.309.76c-2.359-1.2-5.263-1.484-7.275-.314-2.537,1.474-.847,3.016.439,4.286l-2.55,1.482c-.379-.428-.3-.851.307-1.27l-2.96-1.711c-2.014,1.258-1.547,2.852.471,4.247l-1.324.771,1.034.6,1.308-.76a7.959,7.959,0,0,0,7.365.318c2.5-1.456.741-3.009-.514-4.3l2.5-1.453c.3.355.235.749-.3,1.136l2.977,1.717C598.083,342.945,597.791,341.462,595.731,340.071ZM588.5,345.5a2.554,2.554,0,0,1-2.2.054l2.288-1.329C588.984,344.725,589.084,345.159,588.5,345.5Zm1.8-3.471c-.336-.49-.38-.909.185-1.237a2.274,2.274,0,0,1,2.058-.068Z" transform="translate(-570.845 -333.652)" fill="#d9dff6"/></g><g transform="translate(25.661 6.248)"><path d="M610.657,337.732v4.126c0,5.574-8.311,10.093-18.563,10.093s-18.564-4.519-18.564-10.093v-4.126Z" transform="translate(-573.53 -327.638)" fill="#9796f7"/><path d="M599.195,350.4c-.594.2-1.2.387-1.842.542V340.554h1.842Zm-18.848.04c.594.2,1.2.387,1.842.544V340.6h-1.842Zm23.7-2.261a10.727,10.727,0,0,0,3.236-3.139v-6.949h-3.236Z" transform="translate(-571.193 -327.516)" fill="#6782ea" opacity="0.41" style="mix-blend-mode:screen;isolation:isolate"/><path d="M573.53,340.309c0,5.574,8.312,10.093,18.564,10.093s18.563-4.519,18.563-10.093-8.311-10.094-18.563-10.094S573.53,334.735,573.53,340.309Z" transform="translate(-573.53 -330.215)" fill="#d9dff6"/><path d="M576.712,339.575c0,4.19,6.4,7.587,14.292,7.587s14.29-3.4,14.29-7.587-6.4-7.587-14.29-7.587S576.712,335.385,576.712,339.575Z" transform="translate(-572.439 -329.607)" fill="#b4b9f6"/><path d="M591,333.039c7.559,0,13.729,3.118,14.241,7.061a4.038,4.038,0,0,0,.05-.526c0-4.188-6.4-7.586-14.29-7.586s-14.292,3.4-14.292,7.586a4.028,4.028,0,0,0,.05.526C577.273,336.157,583.445,333.039,591,333.039Z" transform="translate(-572.439 -329.607)" fill="#9796f7"/><path d="M595.731,335.773l1.308-.763-1.033-.6-1.309.76c-2.359-1.2-5.263-1.482-7.275-.314-2.537,1.476-.847,3.016.439,4.286l-2.55,1.482c-.379-.428-.3-.85.307-1.27l-2.96-1.709c-2.014,1.258-1.547,2.852.471,4.246l-1.324.772,1.034.6,1.308-.76a7.959,7.959,0,0,0,7.365.318c2.5-1.456.741-3.011-.514-4.3l2.5-1.454c.3.355.235.751-.3,1.136l2.977,1.719C598.083,338.645,597.791,337.163,595.731,335.773ZM588.5,341.2a2.554,2.554,0,0,1-2.2.052l2.288-1.328C588.984,340.427,589.084,340.861,588.5,341.2Zm1.8-3.471c-.336-.491-.38-.91.185-1.238a2.278,2.278,0,0,1,2.058-.067Z" transform="translate(-570.845 -328.878)" fill="#9796f7"/><path d="M595.731,335.418l1.308-.763-1.033-.595-1.309.759c-2.359-1.2-5.263-1.482-7.275-.313-2.537,1.474-.847,3.015.439,4.286l-2.55,1.482c-.379-.43-.3-.851.307-1.27l-2.96-1.711c-2.014,1.258-1.547,2.852.471,4.247l-1.324.771,1.034.6,1.308-.76a7.959,7.959,0,0,0,7.365.318c2.5-1.456.741-3.011-.514-4.3l2.5-1.453c.3.355.235.749-.3,1.135l2.977,1.719C598.083,338.292,597.791,336.809,595.731,335.418Zm-7.227,5.425a2.554,2.554,0,0,1-2.2.054l2.288-1.329C588.984,340.072,589.084,340.506,588.5,340.843Zm1.8-3.471c-.336-.492-.38-.91.185-1.237a2.274,2.274,0,0,1,2.058-.068Z" transform="translate(-570.845 -328.999)" fill="#d9dff6"/></g><g transform="translate(25.661)"><path d="M610.657,333.079V337.2c0,5.574-8.311,10.094-18.563,10.094s-18.564-4.52-18.564-10.094v-4.125Z" transform="translate(-573.53 -322.985)" fill="#9796f7"/><path d="M599.195,345.744c-.594.2-1.2.387-1.842.543V335.9h1.842Zm-18.848.04c.594.2,1.2.387,1.842.544V335.941h-1.842Zm23.7-2.261a10.727,10.727,0,0,0,3.236-3.139v-6.949h-3.236Z" transform="translate(-571.193 -322.863)" fill="#6782ea" opacity="0.41" style="mix-blend-mode:screen;isolation:isolate"/><path d="M573.53,335.656c0,5.573,8.312,10.093,18.564,10.093s18.563-4.52,18.563-10.093-8.311-10.094-18.563-10.094S573.53,330.082,573.53,335.656Z" transform="translate(-573.53 -325.562)" fill="#d9dff6"/><path d="M576.712,334.921c0,4.191,6.4,7.588,14.292,7.588s14.29-3.4,14.29-7.588-6.4-7.586-14.29-7.586S576.712,330.732,576.712,334.921Z" transform="translate(-572.439 -324.954)" fill="#b4b9f6"/><path d="M591,328.386c7.559,0,13.729,3.118,14.241,7.06a4.038,4.038,0,0,0,.05-.526c0-4.188-6.4-7.586-14.29-7.586s-14.292,3.4-14.292,7.586a4.027,4.027,0,0,0,.05.526C577.273,331.5,583.445,328.386,591,328.386Z" transform="translate(-572.439 -324.954)" fill="#9796f7"/><path d="M595.731,331.12l1.308-.763-1.033-.6-1.309.76c-2.359-1.2-5.263-1.482-7.275-.314-2.537,1.476-.847,3.016.439,4.286l-2.55,1.482c-.379-.428-.3-.851.307-1.27L582.659,333c-2.014,1.258-1.547,2.852.471,4.246l-1.324.772,1.034.6,1.308-.76a7.963,7.963,0,0,0,7.365.317c2.5-1.454.741-3.009-.514-4.3l2.5-1.453c.3.354.235.751-.3,1.136l2.977,1.719C598.083,333.992,597.791,332.51,595.731,331.12Zm-7.227,5.425a2.554,2.554,0,0,1-2.2.052l2.288-1.328C588.984,335.773,589.084,336.208,588.5,336.545Zm1.8-3.471c-.336-.491-.38-.91.185-1.238a2.278,2.278,0,0,1,2.058-.067Z" transform="translate(-570.845 -324.225)" fill="#9796f7"/><path d="M595.731,330.765l1.308-.763-1.033-.6-1.309.76c-2.359-1.2-5.263-1.482-7.275-.313-2.537,1.474-.847,3.015.439,4.285l-2.55,1.484c-.379-.43-.3-.851.307-1.27l-2.96-1.711c-2.014,1.258-1.547,2.852.471,4.246l-1.324.772,1.034.6,1.308-.76a7.959,7.959,0,0,0,7.365.318c2.5-1.456.741-3.011-.514-4.3l2.5-1.454c.3.354.235.751-.3,1.136l2.977,1.719C598.083,333.639,597.791,332.155,595.731,330.765ZM588.5,336.19a2.554,2.554,0,0,1-2.2.052l2.288-1.328C588.984,335.419,589.084,335.853,588.5,336.19Zm1.8-3.471c-.336-.491-.38-.91.185-1.238a2.278,2.278,0,0,1,2.058-.067Z" transform="translate(-570.845 -324.346)" fill="#d9dff6"/></g><g transform="translate(45.462 43.059)"><path d="M625.4,365.145v4.125c0,5.574-8.311,10.094-18.563,10.094s-18.564-4.52-18.564-10.094v-4.125Z" transform="translate(-588.276 -355.051)" fill="#9796f7"/><path d="M613.941,377.81c-.594.2-1.2.385-1.842.543V367.967h1.842Zm-18.848.04c.593.2,1.2.387,1.842.544V368.007h-1.842Zm23.7-2.263a10.737,10.737,0,0,0,3.236-3.138V365.5h-3.236Z" transform="translate(-585.939 -354.929)" fill="#6782ea" opacity="0.41" style="mix-blend-mode:screen;isolation:isolate"/><path d="M588.276,367.722c0,5.573,8.312,10.093,18.564,10.093s18.563-4.52,18.563-10.093-8.311-10.094-18.563-10.094S588.276,362.148,588.276,367.722Z" transform="translate(-588.276 -357.628)" fill="#d9dff6"/><path d="M591.458,366.987c0,4.191,6.4,7.588,14.292,7.588s14.29-3.4,14.29-7.588-6.4-7.586-14.29-7.586S591.458,362.8,591.458,366.987Z" transform="translate(-587.185 -357.02)" fill="#b4b9f6"/><path d="M605.75,360.452c7.559,0,13.729,3.118,14.24,7.061a4.048,4.048,0,0,0,.05-.526c0-4.188-6.4-7.586-14.29-7.586s-14.292,3.4-14.292,7.586a4.069,4.069,0,0,0,.05.526C592.019,363.57,598.191,360.452,605.75,360.452Z" transform="translate(-587.185 -357.02)" fill="#9796f7"/><path d="M610.477,363.185l1.308-.761-1.033-.6-1.309.76c-2.359-1.2-5.263-1.482-7.275-.314-2.535,1.476-.847,3.016.439,4.286l-2.55,1.482c-.379-.428-.3-.851.307-1.27l-2.96-1.711c-2.014,1.26-1.547,2.852.471,4.247l-1.324.772,1.034.6,1.308-.76a7.963,7.963,0,0,0,7.365.317c2.5-1.454.741-3.009-.514-4.3l2.5-1.453c.3.355.235.749-.3,1.136l2.977,1.717C612.829,366.058,612.537,364.576,610.477,363.185Zm-7.227,5.426a2.554,2.554,0,0,1-2.2.052l2.288-1.329C603.73,367.839,603.83,368.274,603.25,368.611Zm1.8-3.473c-.336-.49-.38-.909.185-1.237a2.278,2.278,0,0,1,2.059-.068Z" transform="translate(-585.591 -356.291)" fill="#9796f7"/><path d="M610.477,362.831l1.308-.763-1.033-.6-1.309.76c-2.359-1.2-5.263-1.483-7.275-.314-2.535,1.476-.847,3.016.439,4.286l-2.55,1.482c-.379-.428-.3-.851.307-1.27l-2.96-1.709c-2.014,1.258-1.547,2.852.471,4.246l-1.324.772,1.034.6,1.308-.76a7.963,7.963,0,0,0,7.365.318c2.5-1.456.741-3.011-.514-4.3l2.5-1.453c.3.355.235.751-.3,1.136l2.977,1.719C612.829,365.7,612.537,364.221,610.477,362.831Zm-7.227,5.425a2.554,2.554,0,0,1-2.2.052l2.288-1.328C603.73,367.484,603.83,367.919,603.25,368.256Zm1.8-3.471c-.336-.491-.38-.91.185-1.238a2.278,2.278,0,0,1,2.059-.067Z" transform="translate(-585.591 -356.412)" fill="#d9dff6"/></g><g transform="translate(45.462 36.835)"><path d="M625.4,360.51v4.125c0,5.574-8.311,10.094-18.563,10.094s-18.564-4.52-18.564-10.094V360.51Z" transform="translate(-588.276 -350.416)" fill="#9796f7"/><path d="M613.941,373.175c-.594.2-1.2.385-1.842.542V363.332h1.842Zm-18.848.04c.593.2,1.2.387,1.842.542V363.372h-1.842Zm23.7-2.263a10.739,10.739,0,0,0,3.236-3.138v-6.949h-3.236Z" transform="translate(-585.939 -350.294)" fill="#6782ea" opacity="0.41" style="mix-blend-mode:screen;isolation:isolate"/><path d="M588.276,363.087c0,5.573,8.312,10.093,18.564,10.093s18.563-4.52,18.563-10.093-8.311-10.094-18.563-10.094S588.276,357.513,588.276,363.087Z" transform="translate(-588.276 -352.993)" fill="#d9dff6"/><path d="M591.458,362.352c0,4.191,6.4,7.588,14.292,7.588s14.29-3.4,14.29-7.588-6.4-7.586-14.29-7.586S591.458,358.163,591.458,362.352Z" transform="translate(-587.185 -352.385)" fill="#b4b9f6"/><path d="M605.75,355.817c7.559,0,13.729,3.118,14.24,7.061a4.051,4.051,0,0,0,.05-.526c0-4.188-6.4-7.586-14.29-7.586s-14.292,3.4-14.292,7.586a4.072,4.072,0,0,0,.05.526C592.019,358.935,598.191,355.817,605.75,355.817Z" transform="translate(-587.185 -352.385)" fill="#9796f7"/><path d="M610.477,358.55l1.308-.761-1.033-.6-1.309.76c-2.359-1.2-5.263-1.482-7.275-.314-2.535,1.476-.847,3.016.439,4.286l-2.55,1.482c-.379-.428-.3-.851.307-1.27l-2.96-1.711c-2.014,1.26-1.547,2.852.471,4.247l-1.324.772,1.034.6,1.308-.76a7.963,7.963,0,0,0,7.365.317c2.5-1.456.741-3.009-.514-4.3l2.5-1.453c.3.354.235.749-.3,1.136l2.977,1.717C612.829,361.423,612.537,359.941,610.477,358.55Zm-7.227,5.426a2.554,2.554,0,0,1-2.2.052l2.288-1.329C603.73,363.2,603.83,363.639,603.25,363.976Zm1.8-3.473c-.336-.49-.38-.909.185-1.237a2.278,2.278,0,0,1,2.059-.069Z" transform="translate(-585.591 -351.656)" fill="#9796f7"/><path d="M610.477,358.195l1.308-.761-1.033-.6-1.309.76c-2.359-1.2-5.263-1.482-7.275-.314-2.535,1.476-.847,3.016.439,4.286l-2.55,1.482c-.379-.428-.3-.851.307-1.27l-2.96-1.709c-2.014,1.258-1.547,2.852.471,4.246l-1.324.772,1.034.6,1.308-.76a7.967,7.967,0,0,0,7.365.318c2.5-1.456.741-3.011-.514-4.3l2.5-1.453c.3.355.235.751-.3,1.136l2.977,1.719C612.829,361.068,612.537,359.586,610.477,358.195Zm-7.227,5.426a2.554,2.554,0,0,1-2.2.052l2.288-1.328C603.73,362.849,603.83,363.284,603.25,363.621Zm1.8-3.471c-.336-.491-.38-.91.185-1.238a2.274,2.274,0,0,1,2.059-.067Z" transform="translate(-585.591 -351.777)" fill="#d9dff6"/></g><g transform="translate(1.552 36.3)"><path d="M592.7,360.112v4.126c0,5.574-8.311,10.093-18.563,10.093s-18.564-4.519-18.564-10.093v-4.126Z" transform="translate(-555.576 -350.018)" fill="#9796f7"/><path d="M581.241,372.777c-.594.2-1.2.387-1.842.542V362.934h1.842Zm-18.848.042c.592.2,1.2.385,1.842.542V362.975h-1.842Zm23.7-2.263a10.742,10.742,0,0,0,3.236-3.139v-6.949h-3.236Z" transform="translate(-553.239 -349.896)" fill="#6782ea" opacity="0.41" style="mix-blend-mode:screen;isolation:isolate"/><path d="M555.576,362.689c0,5.574,8.311,10.094,18.564,10.094s18.563-4.52,18.563-10.094S584.393,352.6,574.14,352.6,555.576,357.115,555.576,362.689Z" transform="translate(-555.576 -352.595)" fill="#d9dff6"/><path d="M558.758,361.954c0,4.191,6.4,7.588,14.292,7.588s14.29-3.4,14.29-7.588-6.4-7.586-14.29-7.586S558.758,357.765,558.758,361.954Z" transform="translate(-554.485 -351.987)" fill="#b4b9f6"/><path d="M573.05,355.419c7.557,0,13.729,3.118,14.24,7.06a4.027,4.027,0,0,0,.05-.526c0-4.188-6.4-7.586-14.29-7.586s-14.292,3.4-14.292,7.586a4.048,4.048,0,0,0,.05.526C559.319,358.537,565.491,355.419,573.05,355.419Z" transform="translate(-554.485 -351.987)" fill="#9796f7"/><path d="M577.777,358.153l1.308-.763-1.033-.6-1.309.76c-2.359-1.2-5.262-1.482-7.275-.314-2.537,1.476-.847,3.016.439,4.286l-2.55,1.482c-.379-.428-.3-.851.307-1.27l-2.959-1.709c-2.014,1.258-1.547,2.852.471,4.247l-1.324.771,1.034.6,1.308-.76a7.96,7.96,0,0,0,7.365.318c2.5-1.456.741-3.011-.514-4.3l2.5-1.454c.3.355.236.751-.294,1.136l2.977,1.719C580.129,361.027,579.837,359.543,577.777,358.153Zm-7.227,5.425a2.554,2.554,0,0,1-2.2.052l2.287-1.328C571.028,362.806,571.13,363.241,570.55,363.578Zm1.8-3.471c-.336-.491-.38-.91.184-1.238a2.281,2.281,0,0,1,2.06-.067Z" transform="translate(-552.891 -351.258)" fill="#9796f7"/><path d="M577.777,357.8l1.308-.761-1.033-.6-1.309.76c-2.359-1.2-5.262-1.482-7.275-.313-2.537,1.474-.847,3.016.439,4.286l-2.55,1.482c-.379-.43-.3-.851.307-1.27l-2.959-1.711c-2.014,1.258-1.547,2.852.471,4.247l-1.324.771,1.034.6,1.308-.76a7.959,7.959,0,0,0,7.365.318c2.5-1.456.741-3.011-.514-4.3l2.5-1.453c.3.354.236.749-.294,1.135l2.977,1.719C580.129,360.672,579.837,359.189,577.777,357.8Zm-7.227,5.425a2.549,2.549,0,0,1-2.2.052l2.287-1.328C571.028,362.452,571.13,362.886,570.55,363.223Zm1.8-3.471c-.336-.491-.38-.91.184-1.237a2.277,2.277,0,0,1,2.06-.068Z" transform="translate(-552.891 -351.379)" fill="#d9dff6"/></g><g transform="translate(1.552 30.129)"><path d="M592.7,355.515v4.126c0,5.574-8.311,10.094-18.563,10.094s-18.564-4.52-18.564-10.094v-4.126Z" transform="translate(-555.576 -345.422)" fill="#9796f7"/><path d="M581.241,368.181c-.594.2-1.2.385-1.842.542V358.338h1.842Zm-18.848.04c.592.2,1.2.387,1.842.542V358.378h-1.842Zm23.7-2.263a10.755,10.755,0,0,0,3.236-3.138v-6.949h-3.236Z" transform="translate(-553.239 -345.3)" fill="#6782ea" opacity="0.41" style="mix-blend-mode:screen;isolation:isolate"/><path d="M555.576,358.092c0,5.574,8.311,10.094,18.564,10.094s18.563-4.52,18.563-10.094S584.393,348,574.14,348,555.576,352.518,555.576,358.092Z" transform="translate(-555.576 -347.999)" fill="#d9dff6"/><path d="M558.758,357.358c0,4.191,6.4,7.588,14.292,7.588s14.29-3.4,14.29-7.588-6.4-7.586-14.29-7.586S558.758,353.169,558.758,357.358Z" transform="translate(-554.485 -347.391)" fill="#b4b9f6"/><path d="M573.05,350.823c7.557,0,13.729,3.118,14.24,7.06a4.048,4.048,0,0,0,.05-.526c0-4.188-6.4-7.586-14.29-7.586s-14.292,3.4-14.292,7.586a4.069,4.069,0,0,0,.05.526C559.319,353.941,565.491,350.823,573.05,350.823Z" transform="translate(-554.485 -347.391)" fill="#9796f7"/><path d="M577.777,353.556l1.308-.761-1.033-.6-1.309.76c-2.359-1.2-5.262-1.482-7.275-.314-2.537,1.474-.847,3.016.439,4.286l-2.55,1.482c-.379-.428-.3-.851.307-1.27l-2.959-1.711c-2.014,1.26-1.547,2.852.471,4.247l-1.324.772,1.034.6,1.308-.76a7.963,7.963,0,0,0,7.365.317c2.5-1.454.741-3.009-.514-4.3l2.5-1.453c.3.354.236.751-.294,1.136l2.977,1.717C580.129,356.429,579.837,354.947,577.777,353.556Zm-7.227,5.426a2.554,2.554,0,0,1-2.2.052l2.287-1.329C571.028,358.21,571.13,358.645,570.55,358.982Zm1.8-3.472c-.336-.49-.38-.909.184-1.237a2.277,2.277,0,0,1,2.06-.068Z" transform="translate(-552.891 -346.662)" fill="#9796f7"/><path d="M577.777,353.2l1.308-.761-1.033-.6-1.309.76c-2.359-1.2-5.262-1.482-7.275-.314-2.537,1.476-.847,3.016.439,4.286l-2.55,1.482c-.379-.428-.3-.851.307-1.27l-2.959-1.709c-2.014,1.258-1.547,2.852.471,4.246l-1.324.772,1.034.6,1.308-.76a7.968,7.968,0,0,0,7.365.318c2.5-1.456.741-3.011-.514-4.3l2.5-1.454c.3.354.236.751-.294,1.136l2.977,1.719C580.129,356.074,579.837,354.592,577.777,353.2Zm-7.227,5.426a2.554,2.554,0,0,1-2.2.052l2.287-1.328C571.028,357.855,571.13,358.29,570.55,358.627Zm1.8-3.471c-.336-.491-.38-.91.184-1.238a2.281,2.281,0,0,1,2.06-.067Z" transform="translate(-552.891 -346.783)" fill="#d9dff6"/></g></g><g transform="translate(739.08 271.377)"><g transform="translate(28.858 68.662)"><g style="isolation:isolate"><path d="M648.12,286.974a2.766,2.766,0,0,1-.372-.4l-.028-.04a1.941,1.941,0,0,1-.243-.463l-.008-.025a1.627,1.627,0,0,1-.086-.5l.393,63.945v.021a1.616,1.616,0,0,0,.013.181,1.671,1.671,0,0,0,.036.179c.009.038.023.076.036.114l.008.026c0,.012.007.026.012.039a1.772,1.772,0,0,0,.081.181,2.013,2.013,0,0,0,.107.187l.042.056.03.039c.024.034.047.068.074.1a2.237,2.237,0,0,0,.2.215c.029.03.067.056.1.086l.091.078c.04.032.075.067.118.1a3.812,3.812,0,0,0,.426.277,4.941,4.941,0,0,0,.671.309c.077.03.158.051.238.078.119.039.235.083.358.117.058.016.12.026.179.04l.153.034c.058.012.114.028.173.039.135.026.273.047.411.063.048.007.1.011.148.016l.077.008c.046,0,.091.011.138.013.113.009.226.015.338.02s.215,0,.322,0h.051c.089,0,.176,0,.263-.007.1,0,.207-.011.309-.02s.183-.017.273-.028h.02l.016,0c.1-.012.209-.028.313-.046s.214-.038.32-.06c.051-.011.1-.026.153-.038l.066-.016c.039-.009.078-.017.117-.028.125-.034.247-.07.367-.11.071-.024.14-.052.209-.079l.11-.042c.035-.015.071-.026.1-.04a4.724,4.724,0,0,0,.564-.286,2.277,2.277,0,0,0,1.313-1.877l-.392-63.945a2.279,2.279,0,0,1-1.313,1.877,4.816,4.816,0,0,1-.669.325l-.112.043a6.192,6.192,0,0,1-.692.218l-.067.016a7.036,7.036,0,0,1-.8.146h-.019a7.977,7.977,0,0,1-.843.055h-.027c-.277,0-.552-.012-.826-.038l-.077-.008a7.161,7.161,0,0,1-.73-.118c-.052-.011-.1-.021-.154-.035-.184-.043-.361-.1-.536-.156-.079-.027-.161-.05-.238-.078a4.962,4.962,0,0,1-.673-.309,3.7,3.7,0,0,1-.542-.377Z" transform="translate(-647.383 -282.872)" fill="#9796f7"/><g transform="translate(0)"><path d="M648.754,288.1c-1.8-1.018-1.829-2.7-.066-3.748a7.143,7.143,0,0,1,6.478-.063c1.8,1.012,1.822,2.694.051,3.746A7.141,7.141,0,0,1,648.754,288.1Z" transform="translate(-647.383 -283.539)" fill="#9391ea"/></g></g></g><path d="M632.024,238.454l7.336-4.214h0c.1-.056.2-.113.3-.167s.209-.1.313-.152c.176-.09.353-.179.533-.259.159-.072.32-.137.481-.2.184-.074.368-.146.556-.214.067-.024.131-.054.2-.077.1-.034.2-.058.3-.089.188-.059.376-.115.567-.166.173-.046.349-.087.525-.128.193-.043.389-.085.587-.121.085-.015.167-.038.252-.052s.188-.022.281-.035c.212-.031.426-.058.642-.081.18-.019.361-.035.545-.047.219-.015.439-.024.662-.031.11,0,.216-.015.326-.015.071,0,.145.005.218.005.271,0,.545.012.82.026.165.009.329.015.5.027.311.024.628.062.947.1.113.015.223.02.337.036l.059.011c.5.075,1.018.173,1.536.289.134.03.271.067.407.1q.6.145,1.206.326c.09.027.179.044.269.072s.191.067.285.1c.235.077.471.158.708.243.219.078.438.157.659.242.239.093.481.191.721.291.223.093.444.187.669.286.243.109.487.223.732.34.226.107.451.216.679.33.246.125.494.257.741.389.152.081.3.153.453.236s.321.18.482.273c.85.489,1.689,1.03,2.52,1.6.218.148.434.3.65.453.741.522,1.473,1.069,2.194,1.649.089.071.181.137.27.209q.967.788,1.908,1.633c.113.1.218.218.33.321.51.469,1.006.963,1.5,1.457.379.376.761.741,1.132,1.131.5.53.99,1.088,1.479,1.642.286.322.584.626.865.957.071.085.138.175.211.261.145.175.286.354.431.53q.862,1.055,1.685,2.157c.158.212.32.423.477.638.1.136.2.267.3.4.522.728,1.026,1.473,1.52,2.224.109.165.215.333.322.5.195.3.395.6.587.908s.354.618.538.924c.371.616.735,1.235,1.086,1.864.13.232.275.457.4.69.158.293.3.594.45.888q.465.886.905,1.783c.129.265.274.521.4.787.133.282.244.571.373.854.274.6.538,1.206.792,1.814.12.286.258.567.373.854.1.261.187.525.287.786.257.661.5,1.321.726,1.985.11.313.24.624.344.939.125.377.236.756.353,1.136.051.168.106.336.156.5.239.8.466,1.6.666,2.4.046.184.081.368.125.553.067.281.126.559.189.839q.276,1.237.485,2.467c.042.24.089.481.126.72.017.114.043.228.059.341.1.639.148,1.27.215,1.9.039.364.1.732.125,1.094.087,1.089.137,2.17.136,3.235,0,8.912-3.156,15.18-8.234,18.09l-7.336,4.212Z" transform="translate(-623.79 -232.406)" fill="#9796f7"/><path d="M625.892,255.469c.008-17.712,12.446-24.979,27.732-16.2s27.708,30.321,27.7,48.032-12.446,24.978-27.732,16.2S625.884,273.181,625.892,255.469Zm51.663,30.258c-.277-15.469-11.247-34.485-24.449-42.393s-23.723-1.764-23.447,13.7,11.242,34.483,24.449,42.394,23.723,1.758,23.447-13.706" transform="translate(-625.892 -231.331)" fill="#d9dff6"/><path d="M676.595,284.619c.277,15.464-10.244,21.614-23.447,13.706S628.976,271.4,628.7,255.931s10.239-21.617,23.447-13.7,24.172,26.923,24.449,42.393" transform="translate(-624.931 -230.223)" fill="#fff"/><path d="M631.472,254.126c.275,15.463,11.241,34.482,24.448,42.394,5.851,3.5,11.174,4.242,15.265,2.637-4.289,3.4-10.753,3.325-18.038-1.039-13.207-7.911-24.172-26.93-24.449-42.393-.154-8.614,3.04-14.332,8.179-16.347C633.4,242.14,631.347,247.193,631.472,254.126Z" transform="translate(-624.931 -230.016)" fill="#9391ea"/></g><g transform="translate(547.02 232.504)"><path d="M496.5,282.952l16.518,9.628a4.2,4.2,0,0,1-.038,7.281l-2.819,1.606a8.7,8.7,0,0,1-8.692-.044L484.949,291.8a4.2,4.2,0,0,1,.036-7.282l2.82-1.6A8.7,8.7,0,0,1,496.5,282.952Z" transform="translate(-482.864 -176.61)" fill="#6642cc" opacity="0.3" style="mix-blend-mode:multiply;isolation:isolate"/><g transform="translate(3.093)"><g transform="translate(1.849 50.269)"><path d="M488.314,285.137s.679-2.269,4.719-1.527c.669.124,1.37,2.914,1.37,2.914l7.377,2.222s-13.992,5.229-13.869,2.985C488.1,288.385,488.314,285.137,488.314,285.137Z" transform="translate(-486.075 -226.299)" fill="#130159"/><path d="M486.544,240.892l2.236,59.458c1.339,1.819,5.881.289,5.881.289.228-1.754,4.556-56.562,4.556-56.562Z" transform="translate(-486.544 -240.892)" fill="#5601f3"/></g><g transform="translate(8.689 10.549)"><path d="M507.7,215.241c.951.43,1.111-.651,1.238-1.5a4.855,4.855,0,0,1,.342-1.264c.164-.085.4.935.547.645.1-.195,1.971-2.909,3.388-1.312.734.829-1.376,3.489-2.2,3.887-1.6.771-1.9.016-2.919,1.254Z" transform="translate(-486.131 -211.312)" fill="#f4c5a2"/><path d="M498.166,216.584a18.837,18.837,0,0,0,7.239,3.048l8.677-6.247s1.167-.485,1.586,2.379c0,0-8.892,10.115-10.858,10.361s-4.826-1.174-9.491-3.749C487.42,218.016,494.079,213.851,498.166,216.584Z" transform="translate(-491.638 -210.612)" fill="#00cdc4"/></g><g transform="translate(9.073 54.912)"><path d="M493.67,287.338s.681-2.269,4.719-1.525c.669.122,1.37,2.914,1.37,2.914l7.377,2.221s-13.992,5.229-13.869,2.986C493.452,290.586,493.67,287.338,493.67,287.338Z" transform="translate(-491.464 -230.188)" fill="#130159"/><path d="M491.924,244.35l2.236,57.644c1.339,1.819,5.882.289,5.882.289.228-1.752,4.556-56.562,4.556-56.562Z" transform="translate(-491.924 -244.35)" fill="#681ef7"/></g><g transform="translate(8.656)"><path d="M497.852,210.687l.881,5.441-5.144-.355,1.009-4.6Z" transform="translate(-490.936 -200.978)" fill="#fed4bd"/><path d="M500.752,214.115l-7.329-.916-.835,2.96,8.453.391Z" transform="translate(-491.279 -200.116)" fill="#fff"/><path d="M500.056,208.714c.376,2.6-.344,5.432-3.131,5.252a4.719,4.719,0,0,1-4.493-4.147c-.376-2.6,1.026-4.947,3.131-5.252S499.68,206.12,500.056,208.714Z" transform="translate(-491.353 -203.087)" fill="#fed4bd"/><path d="M494.891,214.761s.968.775,2.294-.426a8.29,8.29,0,0,0,.737-2.5c-.023-.669-.963-1.512-.744-2.088.427-1.115,1.464-.909,1.751,1.272.121-1.027,5.6-3.691,2.187-6.172-4.43-3.219-11.18-.385-8.842,3.768C490.293,209.178,493.239,212.943,494.891,214.761Z" transform="translate(-491.613 -203.456)" fill="#3d00bd"/></g><path d="M505.836,218.669c.884,2.918,2.123,27.2,4.032,36.238-3.55,4.547-20.017,5.546-24.7.239a190.23,190.23,0,0,1,6.264-34.551C493.514,213.543,499.865,211.173,505.836,218.669Z" transform="translate(-485.167 -199.822)" fill="#01e4d0"/><g transform="translate(11.589 14.781)"><path d="M514.2,219.748c1.359.27,1.8-1.422,2.19-2.245,1.331-2.841,1.055-.807,1.257-.76.528.122,2.919-1.03,3.223.267.34,1.453-1.55,2.482-2.623,3.055-2.069,1.106-2.05-.087-3.266,1.4Z" transform="translate(-486.802 -213.94)" fill="#f4c5a2"/><path d="M501.266,216.5c6.754,7.218,7.365,8.072,7.365,8.072l13.874-5.762s2.647.338,1.707,3.267c0,0-12.845,10.879-16.024,10.683s-7.309-4.962-11.923-10.152C490.084,215.654,496.943,211.876,501.266,216.5Z" transform="translate(-493.797 -214.464)" fill="#01e4d0"/></g></g></g><g transform="translate(295.717 282.005)"><path d="M372.436,261.679c-42.372,0-76.719,18.678-76.719,41.713S330.063,345.1,372.436,345.1s76.711-18.679,76.711-41.712S414.8,261.679,372.436,261.679Zm0,66.841c-30.584,0-55.374-11.253-55.374-25.128s24.79-25.129,55.374-25.129S427.8,289.516,427.8,303.392,403.013,328.52,372.436,328.52Z" transform="translate(-295.717 -232.998)" fill="#bbb8f6" opacity="0.5" style="mix-blend-mode:multiply;isolation:isolate"/><path d="M447.191,277.937s-11.352-28.144-75.157-28.144-75.156,41.259-75.156,41.259v14.16c0,22.566,33.647,40.864,75.16,40.864s75.153-18.3,75.153-40.864ZM372.038,329.83c-29.964,0-54.25-11.023-54.25-24.618s24.286-24.619,54.25-24.619,54.242,11.025,54.242,24.619S401.993,329.83,372.038,329.83Z" transform="translate(-295.319 -237.073)" fill="#8285df"/><path d="M372.038,240.32c-41.513,0-75.16,18.3-75.16,40.864s33.647,40.866,75.16,40.866,75.153-18.3,75.153-40.866S413.543,240.32,372.038,240.32Zm0,65.482c-29.964,0-54.25-11.023-54.25-24.618s24.286-24.618,54.25-24.618,54.242,11.023,54.242,24.618S401.993,305.8,372.038,305.8Z" transform="translate(-295.319 -240.32)" fill="#b3b8f6"/><g transform="translate(75.306 60.845)"><path d="M398.606,290.337c-9.688,6.713-26.4,11.149-45.4,11.149-.474,0-.943-.011-1.413-.016v32.3c.471.005.939.02,1.413.02,28.153,0,52.676-8.425,65.549-20.883V285.632S400.753,291.011,398.606,290.337Z" transform="translate(-351.798 -285.632)" fill="#f6bf03"/></g><g transform="translate(75.306 54.333)"><path d="M398.606,280.782c-9.688,6.713-26.4,11.149-45.4,11.149-.474,0-.943-.011-1.413-.016v16.244c.471.005.939.02,1.413.02,28.153,0,52.676-8.425,65.549-20.885-4.578-1.474-9.145-2.989-13.714-4.49C402.905,282.1,400.753,281.456,398.606,280.782Z" transform="translate(-351.798 -280.782)" fill="#f6dd03"/></g><g transform="translate(1.558 41.915)"><path d="M370.937,311.009c-26.116.929-54.29-13.84-53.091-28.257-7.005,0-20.969-11.218-20.969-11.218v26.24c0,22.366,33.057,40.527,74.06,40.85Z" transform="translate(-296.877 -271.534)" fill="#00cdc4"/><path d="M370.924,295.09c-28.68-.261-51.892-10.615-53.091-23.556h-20.92c1.018,21.88,33.654,39.483,74.01,39.8Z" transform="translate(-296.864 -271.534)" fill="#01e4d0"/></g></g><path d="M408.65,315.036l2.6,1.482a3.878,3.878,0,0,1,.034,6.722l-15.249,8.889a8.04,8.04,0,0,1-8.026.04l-2.6-1.482a3.879,3.879,0,0,1-.034-6.722l15.25-8.889A8.038,8.038,0,0,1,408.65,315.036Z" transform="translate(30.076 66.937)" fill="#bbb8f6" opacity="0.5" style="mix-blend-mode:multiply;isolation:isolate"/><g transform="translate(594.719 269.057)"><path d="M544.7,304.724l2.6,1.482a3.88,3.88,0,0,1,.034,6.723l-15.249,8.888a8.037,8.037,0,0,1-8.026.04l-2.6-1.482a3.879,3.879,0,0,1-.034-6.722l15.25-8.889A8.038,8.038,0,0,1,544.7,304.724Z" transform="translate(-518.003 -205.655)" fill="#6642cc" opacity="0.3" style="mix-blend-mode:multiply;isolation:isolate"/><path d="M528.444,251.893a33.114,33.114,0,0,1-3.4-1.9c-.377-.383-1.695-1.977-2.562-2.03-.541-.034-.1.426.277,1.031.869,1.4-2.272-1.307-3.021-.22-.479.7-.055,3.3,3.6,3.979,1.539.286,3.115,1.587,3.768,1.806Z" transform="translate(-517.979 -224.751)" fill="#f4c5a2"/><path d="M536.226,247.348a58.13,58.13,0,0,0,3.178,11.817l-15.151-7.492s-3.131-.638-1.773,3.644c0,0,19.318,12.86,25.791,8.665,3.45-2.236-.988-18.789-6.358-21.477C539.056,241.59,535.073,240.9,536.226,247.348Z" transform="translate(-517.099 -226.823)" fill="#f6dd03"/><path d="M529.578,238.526v5.607l4.449-.537-1.678-5.707Z" transform="translate(-514.549 -228.206)" fill="#fed4bd"/><path d="M529.853,240.722l4.313-.615,1.032,2.415-6.3.942Z" transform="translate(-514.781 -227.445)" fill="#fffaff"/><path d="M540.447,307.013s-1.759-.735-5.347.346c-2.4.724-7.893,2.716-7.893,2.716s13.244,3.619,13.258,1.568C540.486,308.584,540.447,307.013,540.447,307.013Z" transform="translate(-515.362 -204.592)" fill="#130159"/><path d="M534.79,309.879a33.616,33.616,0,0,0-5.347.346c-1.586.191-7.893,2.715-7.893,2.715s13.244,3.62,13.258,1.57C534.829,311.45,534.79,309.879,534.79,309.879Z" transform="translate(-517.301 -203.53)" fill="#130159"/><path d="M542.8,266.032l-3.067,55.516s-2.9,1.363-7.019-.466l-.4-54.031Z" transform="translate(-513.611 -218.558)" fill="#5601f3"/><path d="M538.375,268.126l-4.327,58.059c-6.057.686-6.4-1.167-6.4-1.167.344-3.315-1.284-59.4-1.284-59.4Z" transform="translate(-515.651 -218.701)" fill="#681ef7"/><path d="M527.321,236.826c.256,2.6,1.633,5.179,4.29,4.337a4.708,4.708,0,0,0,3.36-5.091c-.258-2.605-2.178-4.547-4.29-4.337S527.065,234.222,527.321,236.826Z" transform="translate(-515.333 -230.321)" fill="#fed4bd"/><path d="M534.565,241.384s-.752.983-2.323.136a8.294,8.294,0,0,1-1.313-2.244c-.138-.655.572-1.7.222-2.2-.68-.978-1.636-.53-1.391,1.65-.363-.967-6.311-2.234-3.6-5.455,3.521-4.177,10.739-3.05,9.468,1.534C537.683,234.874,535.73,239.226,534.565,241.384Z" transform="translate(-515.963 -230.678)" fill="#3d00bd"/><path d="M525.572,245.434s1.164,22.143,1.164,34.153c4.435,4,19.018.575,19.994-1.763s-.463-4.379-.846-7.133c-1.222-8.8-.062-20.391-2.424-24.8C540.269,239.943,532.745,239.507,525.572,245.434Z" transform="translate(-515.922 -227.069)" fill="#f6bf03"/><g transform="translate(0 52.737)"><path d="M533.135,278.645l-14.492-8.694v13.811l14.221,8.295Z" transform="translate(-518.298 -269.951)" fill="#3d00bd"/><path d="M519.107,273.967s-.721-.461-.721-.369v4.563l.721.3Z" transform="translate(-518.386 -268.705)" fill="#7676e5"/></g><path d="M522.5,274.45c-1.215,1.584-2.135,6.421.8,6.977.861.162,2.51-3.177,2.671-5.8" transform="translate(-517.371 -215.672)" fill="#f4c5a2"/><path d="M525.007,248.432c1.23-6.435,5.947-6.517,6.658,4.125a69.814,69.814,0,0,1-.547,15.054c-.576,5.021-4.575,19.665-4.6,19.687-.54.457-4.694-1.491-4.813-3.084,2.036-6.621,2.586-8.615,3.221-17.279C525.466,259.588,524.066,253.352,525.007,248.432Z" transform="translate(-517.248 -226.11)" fill="#f6dd03"/></g><g transform="translate(384.116 298.457)"><path d="M363.9,255.739c-.407,2.482-1.265,6.479-1.672,8.961a9.623,9.623,0,0,0-.185,2.649,3.236,3.236,0,0,0,1.21,2.285,4.848,4.848,0,0,0,3.337.466l5.139-.518a9.454,9.454,0,0,0,2.6-.513,3.184,3.184,0,0,0,1.872-1.777,4.763,4.763,0,0,0-.412-3.2q-1.023-2.719-2.049-5.438a24.306,24.306,0,0,0-1.043-2.487" transform="translate(-361.391 -251.487)" fill="#3d00bd"/><path d="M387.569,317.749l-.239,5.428L398,327.8l-5.178-8.06-1.379-3.163Z" transform="translate(-352.71 -230.63)" fill="#130159"/><path d="M393.54,315.126l-.239,5.428,11.617,1.339-6.131-4.771-1.379-3.163Z" transform="translate(-350.663 -231.529)" fill="#130159"/><path d="M368.249,282.718c-1.854,7.767,2.31,9.5,7.075,11.216,5.1,1.844,15.312,3.36,15.312,3.36L401.6,327.1c1.891,1.352,3.893.877,5.971-.869l-9.28-34L379.956,281.99Z" transform="translate(-359.406 -242.488)" fill="#5601f3"/><path d="M364.59,285.518c-1.854,7.767,2.31,9.5,7.075,11.218,5.1,1.844,15.312,3.36,15.312,3.36l7.552,29.222c1.583,1.441,3.737,1.226,6.237,0L393.5,295.462l-16.535-10.649Z" transform="translate(-360.661 -241.52)" fill="#681ef7"/><path d="M383.31,289.354c-.314-2.08-4.47-1.572-4.071-10.652.256-5.863-.7-13.424-3.99-15.17-2.766-1.469-8.382,1.112-9.875,2.063-3.177,2.025-1.57,3.223-2.249,6.928s-.45,20.193-.45,23.96c0,1.437,12.938,4.349,19.867-4.649" transform="translate(-361.175 -248.967)" fill="#f70083"/><g transform="translate(11.433 36.548)"><path d="M379.9,296.427l-9.747-5.669a.186.186,0,0,1,.005-.324l17.861-10.38a.193.193,0,0,1,.191,0l9.731,5.663a.189.189,0,0,1,0,.328l-17.859,10.379A.173.173,0,0,1,379.9,296.427Z" transform="translate(-370.063 -279.708)" fill="#827fde"/><path d="M397.86,285.839l-17.767,10.324a.235.235,0,0,1-.238,0l-9.637-5.608a.236.236,0,0,1,0-.408l17.765-10.325a.235.235,0,0,1,.238,0l9.639,5.608A.237.237,0,0,1,397.86,285.839Z" transform="translate(-370.05 -279.79)" fill="#dfe3ff"/></g><path d="M382.566,281.081c1.618.353,4.6,2.355,4.3,2.933s-1.876,2-5.566-1.466S382.566,281.081,382.566,281.081Z" transform="translate(-355.247 -242.996)" fill="#fed4bd"/><path d="M377.11,283.662l5.861,2.71c.142-1.39,1.578-2.059,3.129-2.067l-9.745-6.514-1.35-4.866s-.047,3.374,0,4.688C375.1,280.178,375.747,282.439,377.11,283.662Z" transform="translate(-356.943 -245.595)" fill="#f1539a"/><path d="M366.849,266.2c-.085,1.286,3.659.513,3.165-.5l-.745-4.092a3.014,3.014,0,0,0-.449-1.289c-1.037-1.386-1.825-.324-1.885.792C366.845,262.806,366.878,264.512,366.849,266.2Z" transform="translate(-359.732 -250.141)" fill="#fed4bd"/><path d="M372.24,260.2a6.322,6.322,0,0,0,.04-4.3,3.85,3.85,0,0,0-3.309-2.5,4,4,0,0,0-3.561,2.578,7.73,7.73,0,0,0-.191,4.6,6.072,6.072,0,0,0,1.748,3.411C369.881,266.483,371.484,262.479,372.24,260.2Z" transform="translate(-360.377 -252.287)" fill="#fed4bd"/><path d="M369.331,258.679a1.156,1.156,0,0,0,2.225.432,1.17,1.17,0,0,0,1.382.8,1.741,1.741,0,0,0,1.2-1.191,3.533,3.533,0,0,0,.034-1.752,7.429,7.429,0,0,0-.517-1.65,5.524,5.524,0,0,0-1-1.547c-1.025-1.09-4.058-1.786-5.539-.5-3.029-.387-3.734,2.452-3.772,4.92-.208,1.368.784,2.4,1.214,3.716a1.315,1.315,0,0,0,1.6.885c.645-.094-1.08-1.443-.721-3.154.187-.889,1.07,1.089,1.374.982-.019.007.238-1.938.3-2.047C367.718,259.017,368.716,259.733,369.331,258.679Z" transform="translate(-360.941 -252.572)" fill="#3d00bd"/><path d="M374.2,285.7c1.619.353,4.6,2.354,4.3,2.931s-1.876,2-5.567-1.466S374.2,285.7,374.2,285.7Z" transform="translate(-358.115 -241.411)" fill="#fed4bd"/><path d="M365.094,265.412c-4.61.78-3.951,18-2.334,21.446s13.561,7.861,13.561,7.861c.453-1.572,1.247-2.4,2.341-2.58l-11.375-8.319s-.023-7.552.058-10.258C367.4,271.715,369,264.75,365.094,265.412Z" transform="translate(-361.549 -248.186)" fill="#f1539a"/><g transform="translate(21.093 31.41)"><path d="M377.269,297.143l3.181-10.71a.513.513,0,0,1,.238-.3L398.118,276a.288.288,0,0,1,.42.33l-3.178,10.7a.519.519,0,0,1-.239.3l-17.43,10.129A.287.287,0,0,1,377.269,297.143Z" transform="translate(-377.257 -275.964)" fill="#8285df"/><path d="M377.609,297.3c.673-2.271,2.8-9.436,3.18-10.71a.512.512,0,0,1,.238-.3l17.431-10.129a.287.287,0,0,1,.419.33l-3.178,10.7a.522.522,0,0,1-.239.3l-17.43,10.129A.286.286,0,0,1,377.609,297.3Z" transform="translate(-377.14 -275.912)" fill="#d9dff6"/></g></g><g transform="translate(399.493 377.012)"><path d="M459.536,312.775a6.486,6.486,0,0,1,5.89,0L579.4,379c1.619.941,1.61,2.468-.024,3.412l-85.3,48.626a6.491,6.491,0,0,1-5.89,0L374.207,364.813c-1.618-.94-1.61-2.468.024-3.411Z" transform="translate(-373 -310.732)" fill="#bbb8f6" opacity="0.5" style="mix-blend-mode:multiply;isolation:isolate"/><g transform="translate(1.746)"><path d="M459.381,311.769a6.378,6.378,0,0,1,5.79,0l112.056,65.12c1.591.925,1.583,2.426-.024,3.354L493.334,428.05a6.381,6.381,0,0,1-5.792,0l-112.055-65.12c-1.591-.925-1.583-2.426.024-3.354Z" transform="translate(-374.3 -311.072)" fill="#b4b9f6"/><path d="M458.733,314.843a5.931,5.931,0,0,1,5.378,0l104.067,60.478c1.479.858,1.47,2.253-.023,3.114l-77.89,44.4a5.931,5.931,0,0,1-5.378,0L380.822,362.358c-1.478-.858-1.47-2.253.021-3.115Z" transform="translate(-372.442 -310.001)" fill="#fff"/><path d="M442.752,314.435a4.564,4.564,0,0,1,4.143,0l4.355,2.665a1.268,1.268,0,0,1-.017,2.4L391.22,353.708a4.561,4.561,0,0,1-4.143,0l-4.355-2.667a1.268,1.268,0,0,1,.017-2.4Z" transform="translate(-371.703 -310.09)" fill="#9796f7"/><g transform="translate(29.105 13.605)"><path d="M473.116,408.248a1.276,1.276,0,0,1-1.1-.627,1.246,1.246,0,0,1,.466-1.715l67.491-38.4a1.284,1.284,0,0,1,1.739.461,1.247,1.247,0,0,1-.466,1.713l-67.492,38.4A1.282,1.282,0,0,1,473.116,408.248Zm-9.483-5.767a1.276,1.276,0,0,1-1.1-.627,1.247,1.247,0,0,1,.465-1.715l67.492-38.4a1.281,1.281,0,0,1,1.738.459,1.247,1.247,0,0,1-.465,1.715l-67.492,38.4A1.285,1.285,0,0,1,463.633,402.48Zm-9.484-5.767a1.273,1.273,0,0,1-1.1-.627,1.247,1.247,0,0,1,.465-1.715L521,355.975a1.283,1.283,0,0,1,1.738.459,1.246,1.246,0,0,1-.466,1.715l-67.492,38.4A1.282,1.282,0,0,1,454.149,396.713Zm-9.483-5.766a1.277,1.277,0,0,1-1.1-.628,1.247,1.247,0,0,1,.466-1.713l67.492-38.4a1.283,1.283,0,0,1,1.738.459,1.246,1.246,0,0,1-.466,1.715l-67.491,38.4A1.283,1.283,0,0,1,444.666,390.947Zm-9.484-5.767a1.278,1.278,0,0,1-1.1-.627,1.248,1.248,0,0,1,.466-1.715l67.494-38.4a1.282,1.282,0,0,1,1.738.459,1.245,1.245,0,0,1-.466,1.715l-67.492,38.4A1.281,1.281,0,0,1,435.181,385.18Zm-9.483-5.767a1.278,1.278,0,0,1-1.1-.627,1.246,1.246,0,0,1,.466-1.715l67.492-38.4a1.283,1.283,0,0,1,1.738.461,1.244,1.244,0,0,1-.466,1.713l-67.492,38.4A1.273,1.273,0,0,1,425.7,379.412Zm-9.483-5.769a1.278,1.278,0,0,1-1.1-.627,1.247,1.247,0,0,1,.466-1.715l67.492-38.4a1.282,1.282,0,0,1,1.738.461,1.246,1.246,0,0,1-.466,1.715l-67.492,38.4A1.273,1.273,0,0,1,416.216,373.643Zm-9.484-5.767a1.278,1.278,0,0,1-1.1-.627,1.247,1.247,0,0,1,.466-1.715l67.494-38.4a1.282,1.282,0,0,1,1.738.459,1.247,1.247,0,0,1-.466,1.715l-67.494,38.395A1.281,1.281,0,0,1,406.731,367.876Zm-9.483-5.767a1.278,1.278,0,0,1-1.1-.627,1.247,1.247,0,0,1,.466-1.715l67.492-38.4a1.283,1.283,0,0,1,1.738.459,1.247,1.247,0,0,1-.466,1.715l-67.492,38.4A1.28,1.28,0,0,1,397.248,362.109Z" transform="translate(-395.974 -321.204)" fill="#dfe3ff"/></g></g></g><g transform="translate(550.624 458.626)"><path d="M531.807,446.475l-44.63-25.767a3.261,3.261,0,0,1,0-5.646l65.539-37.838a11.825,11.825,0,0,1,11.825,0l40.377,23.313a5.727,5.727,0,0,1,0,9.922l-62.382,36.017A10.731,10.731,0,0,1,531.807,446.475Z" transform="translate(-485.548 -370.552)" fill="#bbb8f6" opacity="0.5" style="mix-blend-mode:multiply;isolation:isolate"/><path d="M605.537,399.614l-2.735.4-45-25.983-67.1,38.741v-.747l-3.8-.124v3.83a4.567,4.567,0,0,0,2.277,3.951L531.532,444.2a11.008,11.008,0,0,0,11,.016L603.04,409.39a4.984,4.984,0,0,0,2.5-4.32Z" transform="translate(-485.085 -371.103)" fill="#9796f7"/><path d="M531.908,440.5l-43.51-25.12a3,3,0,0,1,0-5.2l63.751-36.806a11.3,11.3,0,0,1,11.3,0l39.393,22.743a5.4,5.4,0,0,1,0,9.345l-60.7,35.043A10.232,10.232,0,0,1,531.908,440.5Z" transform="translate(-485.085 -371.851)" fill="#b4b9f6"/><g transform="translate(6.308 4.288)"><path d="M581.757,396.741l-34.933-20.168a11.417,11.417,0,0,0-11.418,0h0a3.791,3.791,0,0,0,0,6.568l34.933,20.168a11.417,11.417,0,0,0,11.418,0h0A3.791,3.791,0,0,0,581.757,396.741Z" transform="translate(-475.413 -375.044)" fill="#d9dff6"/><path d="M525.817,393.266l-7.466-4.31a1.175,1.175,0,0,1,0-2.034l7.466-4.309a1.177,1.177,0,0,1,1.175,0l7.465,4.31a1.174,1.174,0,0,1,0,2.034l-7.465,4.309A1.17,1.17,0,0,1,525.817,393.266Z" transform="translate(-480.811 -372.503)" fill="#9796f7"/><path d="M534.9,398.509l-7.465-4.31a1.175,1.175,0,0,1,0-2.034l7.465-4.31a1.177,1.177,0,0,1,1.175,0l7.466,4.31a1.175,1.175,0,0,1,0,2.034l-7.466,4.31A1.177,1.177,0,0,1,534.9,398.509Z" transform="translate(-477.698 -370.706)" fill="#9796f7"/><path d="M543.978,403.751l-7.466-4.31a1.174,1.174,0,0,1,0-2.033l7.466-4.31a1.168,1.168,0,0,1,1.174,0l7.466,4.31a1.173,1.173,0,0,1,0,2.033l-7.466,4.31A1.168,1.168,0,0,1,543.978,403.751Z" transform="translate(-474.585 -368.909)" fill="#9796f7"/><path d="M553.058,408.994l-7.466-4.31a1.175,1.175,0,0,1,0-2.034l7.466-4.31a1.177,1.177,0,0,1,1.175,0l7.465,4.31a1.175,1.175,0,0,1,0,2.034l-7.465,4.31A1.177,1.177,0,0,1,553.058,408.994Z" transform="translate(-471.472 -367.112)" fill="#01e4d0"/><path d="M516.644,398.562l-7.466-4.309a1.175,1.175,0,0,1,0-2.034l7.466-4.31a1.177,1.177,0,0,1,1.175,0l7.465,4.31a1.175,1.175,0,0,1,0,2.034l-7.465,4.309A1.171,1.171,0,0,1,516.644,398.562Z" transform="translate(-483.956 -370.688)" fill="#d9dff6"/><path d="M525.724,403.805l-7.466-4.31a1.175,1.175,0,0,1,0-2.034l7.466-4.31a1.177,1.177,0,0,1,1.175,0l7.465,4.31a1.174,1.174,0,0,1,0,2.034l-7.465,4.31A1.177,1.177,0,0,1,525.724,403.805Z" transform="translate(-480.843 -368.891)" fill="#d9dff6"/><path d="M534.8,409.047l-7.465-4.31a1.173,1.173,0,0,1,0-2.033l7.465-4.31a1.177,1.177,0,0,1,1.175,0l7.466,4.31a1.173,1.173,0,0,1,0,2.033l-7.466,4.31A1.171,1.171,0,0,1,534.8,409.047Z" transform="translate(-477.73 -367.093)" fill="#d9dff6"/><path d="M543.885,414.29l-7.466-4.31a1.175,1.175,0,0,1,0-2.034l7.466-4.31a1.174,1.174,0,0,1,1.174,0l7.466,4.31a1.175,1.175,0,0,1,0,2.034l-7.466,4.31A1.174,1.174,0,0,1,543.885,414.29Z" transform="translate(-474.617 -365.296)" fill="#d9dff6"/><path d="M507.471,403.859,500,399.549a1.175,1.175,0,0,1,0-2.034l7.466-4.31a1.174,1.174,0,0,1,1.174,0l7.466,4.31a1.175,1.175,0,0,1,0,2.034l-7.466,4.31A1.175,1.175,0,0,1,507.471,403.859Z" transform="translate(-487.1 -368.872)" fill="#d9dff6"/><path d="M516.551,409.1l-7.466-4.31a1.175,1.175,0,0,1,0-2.034l7.466-4.309a1.17,1.17,0,0,1,1.175,0l7.465,4.309a1.175,1.175,0,0,1,0,2.034l-7.465,4.31A1.177,1.177,0,0,1,516.551,409.1Z" transform="translate(-483.987 -367.075)" fill="#d9dff6"/><path d="M525.631,414.344l-7.466-4.31a1.175,1.175,0,0,1,0-2.034l7.466-4.31a1.177,1.177,0,0,1,1.175,0l7.466,4.31a1.175,1.175,0,0,1,0,2.034l-7.466,4.31A1.177,1.177,0,0,1,525.631,414.344Z" transform="translate(-480.875 -365.278)" fill="#d9dff6"/><path d="M524.654,426.142l-6.394-3.691a1.324,1.324,0,0,1,0-2.294l18.712-10.8a2.869,2.869,0,0,1,2.867,0l6.4,3.693a1.325,1.325,0,0,1,0,2.294l-18.713,10.8A2.863,2.863,0,0,1,524.654,426.142Z" transform="translate(-480.868 -363.414)" fill="#f6bf03"/><path d="M498.3,409.155l-7.465-4.31a1.175,1.175,0,0,1,0-2.034l7.465-4.31a1.177,1.177,0,0,1,1.175,0l7.466,4.31a1.175,1.175,0,0,1,0,2.034l-7.466,4.31A1.177,1.177,0,0,1,498.3,409.155Z" transform="translate(-490.245 -367.056)" fill="#d9dff6"/><path d="M507.378,414.4l-7.466-4.31a1.175,1.175,0,0,1,0-2.034l7.466-4.309a1.168,1.168,0,0,1,1.174,0l7.466,4.31a1.174,1.174,0,0,1,0,2.033l-7.466,4.31A1.174,1.174,0,0,1,507.378,414.4Z" transform="translate(-487.132 -365.259)" fill="#d9dff6"/><path d="M516.458,419.64l-7.466-4.31a1.175,1.175,0,0,1,0-2.034l7.466-4.31a1.177,1.177,0,0,1,1.175,0l7.465,4.31a1.175,1.175,0,0,1,0,2.034l-7.465,4.31A1.177,1.177,0,0,1,516.458,419.64Z" transform="translate(-484.019 -363.462)" fill="#d9dff6"/></g></g><g transform="translate(447.118 270.513)"><g transform="translate(0 16.452)"><path d="M410.112,277.647c0,5.131,7.833,9.29,17.5,9.29s17.5-4.159,17.5-9.29-7.834-9.288-17.5-9.288S410.112,272.519,410.112,277.647Z" transform="translate(-407.902 -235.667)" fill="#bbb8f6" opacity="0.5" style="mix-blend-mode:multiply;isolation:isolate"/><path d="M408.466,255.976l3.835,23.361c.353,5.453,7.369,9.7,15.685,9.7s15.331-4.243,15.684-9.7l3.835-23.361Z" transform="translate(-408.466 -239.912)" fill="#b3b8f6"/><path d="M408.466,252.715v6.037c0,6.452,8.739,11.684,19.52,11.684s19.519-5.232,19.519-11.684v-6.037Z" transform="translate(-408.466 -241.03)" fill="#9796f7"/><ellipse cx="19.519" cy="11.685" rx="19.519" ry="11.685" transform="translate(0.001)" fill="#d9dff6"/><g transform="translate(1.473 1.986)"><ellipse cx="18.047" cy="9.698" rx="18.047" ry="9.698" fill="#fff"/><ellipse cx="18.047" cy="9.698" rx="18.047" ry="9.698" fill="#b3b8f6"/></g><path d="M427.3,250.419c-8.089,0-14.308,2.957-16.825,6.39,2.518,3.434,8.736,6.391,16.825,6.391s14.309-2.957,16.827-6.391C441.606,253.376,435.388,250.419,427.3,250.419Z" transform="translate(-407.778 -241.817)" fill="#8285df"/></g><path d="M417.49,241.328a16.84,16.84,0,0,1,1.461-5.933,5.716,5.716,0,0,1,10.3-.736A16.212,16.212,0,0,1,431.6,240.8a78.676,78.676,0,0,1,1.8,17.067c-.009,2.073-.136,4.262-1.266,6a7.942,7.942,0,0,1-6.674,3.177c-1.837.011-6.018-.3-7.389-1.713-1.335-1.374-.932-5.173-1.033-6.985A103.254,103.254,0,0,1,417.49,241.328Z" transform="translate(-405.584 -231.762)" fill="#603eff"/><path d="M413.579,246.47a12.873,12.873,0,0,1-.925-9.161c.255-.925.847-1.987,1.807-1.952.824.03,1.382.917,1.438,1.742a13.625,13.625,0,0,1-.321,2.449,5.544,5.544,0,0,0,2.692,5.323,22.86,22.86,0,0,1,2.882,1.452,3.737,3.737,0,0,1,1.376,3.4C421.621,256.132,414.836,248.945,413.579,246.47Z" transform="translate(-407.185 -230.53)" fill="#603eff"/><path d="M433.3,248.294a11.662,11.662,0,0,0,3.589-6.9,3.088,3.088,0,0,0-.661-2.781,2.315,2.315,0,0,0-3.015.3,5.181,5.181,0,0,0-1.288,3.008,17.154,17.154,0,0,1-.588,3.272,3.278,3.278,0,0,1-2.267,2.233c-1.211.23-2.623-.5-3.619.231-1.961,1.431-.091,3.573,1.593,3.616C429.2,251.323,431.8,249.69,433.3,248.294Z" transform="translate(-402.93 -229.563)" fill="#603eff"/></g><g transform="translate(390.392 444.591)"><path d="M368.666,364.626h0a4.83,4.83,0,0,1,4.814.023l74.68,43.4a4.831,4.831,0,0,1-.04,8.376h0a4.83,4.83,0,0,1-4.814-.024L368.626,373A4.831,4.831,0,0,1,368.666,364.626Z" transform="translate(-366.222 -360.509)" fill="#bbb8f6" opacity="0.5" style="mix-blend-mode:multiply;isolation:isolate"/><g transform="translate(1.582)"><path d="M438.719,400.318a3.118,3.118,0,0,1,.643-.14l.058-.005a2.273,2.273,0,0,1,.631.032l.031.007a1.936,1.936,0,0,1,.565.214l-66.567-38.762-.021-.012c-.064-.035-.13-.067-.2-.1a2.108,2.108,0,0,0-.207-.074c-.046-.013-.094-.021-.141-.032l-.031-.007-.048-.011a2.248,2.248,0,0,0-.238-.028,2.374,2.374,0,0,0-.259,0c-.028,0-.056.007-.085.009l-.058.005c-.05.005-.1.007-.149.015a3.053,3.053,0,0,0-.345.074c-.048.013-.1.035-.149.051l-.137.047c-.059.021-.115.036-.176.06a4.808,4.808,0,0,0-.547.273,6.01,6.01,0,0,0-.732.508c-.078.062-.15.133-.227.2-.114.1-.231.191-.341.3-.051.051-.1.107-.15.16l-.129.138c-.048.052-.1.1-.146.156-.109.125-.215.255-.318.387-.036.047-.07.1-.106.145-.019.024-.036.048-.055.074-.034.046-.067.089-.1.136-.078.11-.154.224-.227.338s-.137.22-.2.332l-.016.028-.015.027c-.052.091-.1.183-.153.275q-.089.165-.169.334c-.048.1-.093.2-.137.3l-.009.021-.009.019c-.051.117-.1.234-.144.352s-.091.246-.133.369c-.02.059-.036.12-.055.18l-.024.079c-.013.047-.03.093-.042.138-.042.149-.078.3-.11.447-.019.09-.031.179-.046.267-.008.047-.017.093-.024.14s-.017.089-.023.133a5.865,5.865,0,0,0-.05.76,2.743,2.743,0,0,0,1.144,2.512l66.567,38.76a2.741,2.741,0,0,1-1.143-2.512,5.813,5.813,0,0,1,.073-.892c.007-.047.016-.094.024-.141a7.341,7.341,0,0,1,.2-.851l.024-.079a8.471,8.471,0,0,1,.34-.921l.009-.02a9.786,9.786,0,0,1,.459-.909l.016-.028a9.531,9.531,0,0,1,.545-.833c.017-.026.036-.051.055-.075a8.574,8.574,0,0,1,.569-.686c.043-.047.086-.093.13-.138.157-.165.324-.314.491-.461.075-.066.149-.137.226-.2a6.115,6.115,0,0,1,.732-.508,4.407,4.407,0,0,1,.724-.333Z" transform="translate(-367.4 -361.399)" fill="#b4b9f6"/><path d="M367.45,367.918c.005-.044.016-.089.023-.133s.016-.093.024-.14c.015-.089.027-.177.046-.267.032-.149.068-.3.11-.447.012-.046.028-.091.042-.138l.024-.079c.019-.06.035-.121.055-.181.042-.122.086-.246.133-.369s.093-.234.144-.35l.009-.019.009-.021c.044-.1.089-.2.137-.3s.11-.224.169-.334c.05-.093.1-.184.153-.275l.015-.027.016-.028c.066-.111.133-.223.2-.332s.149-.228.227-.338c.032-.047.066-.09.1-.136.019-.026.036-.05.055-.074.036-.048.07-.1.106-.145.1-.132.21-.262.318-.387.047-.054.1-.1.146-.156l.129-.138c.051-.052.1-.109.15-.16.11-.109.227-.2.341-.3.077-.067.149-.138.227-.2a6.01,6.01,0,0,1,.732-.508,4.808,4.808,0,0,1,.547-.273c.06-.024.117-.039.176-.06l.137-.047c.05-.016.1-.038.149-.051a3.053,3.053,0,0,1,.345-.074c.05-.008.1-.009.149-.015l.058-.005c.028,0,.056-.008.085-.009a2.374,2.374,0,0,1,.259,0,2.248,2.248,0,0,1,.238.028l.048.011.031.007c.047.011.1.019.141.032a2.108,2.108,0,0,1,.207.074c.067.028.133.06.2.1l.021.012,3.545,2.065h-.013c-.031,0-.062.007-.091.008l-.062.007c-.054.005-.106.008-.161.016a3.247,3.247,0,0,0-.369.079c-.052.013-.106.038-.16.055s-.1.032-.146.05-.124.039-.188.066a5.068,5.068,0,0,0-.587.291,6.563,6.563,0,0,0-.784.544c-.083.067-.161.144-.243.215-.122.106-.248.2-.365.321-.056.055-.107.115-.162.172s-.091.1-.137.148-.107.109-.158.168c-.117.133-.23.273-.34.414-.039.051-.077.1-.114.154l-.059.081c-.036.048-.073.1-.107.145-.083.12-.164.24-.243.363s-.146.236-.218.356l-.016.031-.016.028c-.056.1-.111.2-.165.3-.063.118-.122.238-.181.357s-.1.215-.146.322l-.011.023-.009.02c-.054.125-.106.251-.154.376s-.1.264-.141.4c-.021.064-.04.13-.059.195l-.027.085c-.015.05-.031.1-.044.148-.046.161-.085.321-.118.481-.02.1-.032.189-.05.285-.008.051-.017.1-.026.15s-.019.1-.024.142a6.282,6.282,0,0,0-.054.815,4.009,4.009,0,0,0,.332,1.677l-3.462-2.016a2.743,2.743,0,0,1-1.144-2.512A5.865,5.865,0,0,1,367.45,367.918Z" transform="translate(-367.4 -361.399)" fill="#9796f7"/><g transform="translate(66.568 38.761)"><path d="M420.866,390.8a2.776,2.776,0,0,1,2.772-.282c.71.4,9.529,13.13,9.529,13.13s-14.328-3.182-15.037-3.588a2.731,2.731,0,0,1-1.155-2.519A8.594,8.594,0,0,1,420.866,390.8Z" transform="translate(-416.974 -390.265)" fill="#fff"/></g><path d="M426.952,396.4c1.942,2.751,3.608,5.156,3.608,5.156s-2.6-.577-5.633-1.27C423.712,398.492,425.933,395.985,426.952,396.4Z" transform="translate(-347.8 -349.415)" fill="#9796f7"/></g></g></g></g></svg>