<svg xmlns="http://www.w3.org/2000/svg" xmlns:xlink="http://www.w3.org/1999/xlink" width="1920" height="980" viewBox="0 0 1920 980">
  <defs>
    <linearGradient id="linear-gradient" x1="0.053" y1="0.093" x2="0.97" y2="0.946" gradientUnits="objectBoundingBox">
      <stop offset="0" stop-color="#023e87"/>
      <stop offset="1" stop-color="#011f44"/>
    </linearGradient>
    <linearGradient id="linear-gradient-2" y1="0.5" x2="1" y2="0.5" gradientUnits="objectBoundingBox">
      <stop offset="0" stop-color="#b89ffb"/>
      <stop offset="0" stop-color="#53329f"/>
      <stop offset="0.163" stop-color="#6e33be"/>
      <stop offset="0.301" stop-color="#8031d5"/>
      <stop offset="0.542" stop-color="#9e3ffa"/>
      <stop offset="0.665" stop-color="#9d39fa"/>
      <stop offset="1" stop-color="#6e39fa"/>
    </linearGradient>
    <linearGradient id="linear-gradient-3" y1="0.5" x2="1" y2="0.5" gradientUnits="objectBoundingBox">
      <stop offset="0" stop-color="#ffadc2"/>
      <stop offset="0.044" stop-color="#faa7c4"/>
      <stop offset="0.699" stop-color="#b758ea"/>
      <stop offset="1" stop-color="#9d39fa"/>
    </linearGradient>
    <linearGradient id="linear-gradient-4" x1="0.181" y1="-0.015" x2="-0.678" y2="0.703" gradientUnits="objectBoundingBox">
      <stop offset="0" stop-color="#fff"/>
      <stop offset="1"/>
    </linearGradient>
    <linearGradient id="linear-gradient-5" x1="-0.29" y1="0.364" x2="-2.976" y2="2.736" gradientUnits="objectBoundingBox">
      <stop offset="0.006" stop-color="#414042"/>
      <stop offset="1"/>
    </linearGradient>
  </defs>
  <g id="Header" transform="translate(0 -180)">
    <rect id="bg" width="1920" height="980" transform="translate(0 180)" fill="url(#linear-gradient)"/>
    <g id="Group_9136" data-name="Group 9136" transform="translate(64 180)">
      <rect id="Rectangle_2887" data-name="Rectangle 2887" width="1920" height="980" transform="translate(-64)" fill="url(#linear-gradient-2)"/>
      <g id="Group_9135" data-name="Group 9135" transform="translate(723.662 106.641)">
        <g id="Group_9088" data-name="Group 9088" transform="translate(841.944 594.642)">
          <g id="Group_9087" data-name="Group 9087" transform="translate(8.282 12.017)">
            <path id="Path_5026" data-name="Path 5026" d="M2571,1281.922l-1.895-1.468c14.851-19.21,24.836-41.7,37.184-62.909a177.768,177.768,0,0,1,21.359-30.15c8.258-9.18,17.849-17.425,29.036-23.055l1.08,2.141c-10.843,5.453-20.22,13.5-28.33,22.514a175.4,175.4,0,0,0-21.073,29.756C2596.1,1239.8,2586.083,1262.4,2571,1281.922Z" transform="translate(-2569.108 -1164.341)" fill="#13bc2f"/>
          </g>
          <path id="Path_5027" data-name="Path 5027" d="M2698.7,1193.618a26.375,26.375,0,0,1-11.281-10.114,22.71,22.71,0,0,1,4.764-1.5,15.411,15.411,0,0,1,9.847,1.31,19.527,19.527,0,0,1,7.111,7.246,34.39,34.39,0,0,1,2.337,4.475,16.231,16.231,0,0,1-3.85.281A23.4,23.4,0,0,1,2698.7,1193.618Z" transform="translate(-2606.657 -1159.064)" fill="#13bc2f"/>
          <path id="Path_5028" data-name="Path 5028" d="M2652.994,1171.181a17.223,17.223,0,0,0,5.033,9.052,24.212,24.212,0,0,0,3.893,3.223,26.4,26.4,0,0,0,2.022-4.683,25.331,25.331,0,0,0,1.526-10.481,21.2,21.2,0,0,0-7.356-13.377,31.592,31.592,0,0,0-3.186,5.121C2653.5,1163.146,2652.268,1167.22,2652.994,1171.181Z" transform="translate(-2593.238 -1148.672)" fill="#13bc2f"/>
          <path id="Path_5029" data-name="Path 5029" d="M2690.973,1154.307c-.2,5.253,3.92,9.194,3.92,9.194s3.814-4.105,4.46-9.185a13.005,13.005,0,0,0-1.153-6.735,13.458,13.458,0,0,0-1.692-2.854,20.231,20.231,0,0,0-2.709,2.778A13.111,13.111,0,0,0,2690.973,1154.307Z" transform="translate(-2608.031 -1144.726)" fill="#13bc2f"/>
          <path id="Path_5030" data-name="Path 5030" d="M2715.415,1154.706a12.2,12.2,0,0,0-5.15,4.819,14.465,14.465,0,0,0-1.349,3.087,17.791,17.791,0,0,0,3.277.314,14.374,14.374,0,0,0,6.479-1.093,15.667,15.667,0,0,0,5.12-4.146,19.634,19.634,0,0,0,1.937-2.74,14.4,14.4,0,0,0-3.23-.954A11.963,11.963,0,0,0,2715.415,1154.706Z" transform="translate(-2614.984 -1148.222)" fill="#13bc2f"/>
          <path id="Path_5031" data-name="Path 5031" d="M2672.44,1223.514a28.525,28.525,0,0,1-11.562-4.883,30.327,30.327,0,0,1-4.738-4.009,23.447,23.447,0,0,1,5.286-3.133,19.447,19.447,0,0,1,12.169-1.465c4.466,1.01,8.158,3.888,10.767,6.351a39.745,39.745,0,0,1,4.166,4.592,23.953,23.953,0,0,1-4.682,1.689A27.191,27.191,0,0,1,2672.44,1223.514Z" transform="translate(-2594.54 -1169.856)" fill="#13bc2f"/>
          <path id="Path_5032" data-name="Path 5032" d="M2613.484,1209.637c1.789,4.512,5.321,7.6,8.274,9.634a29.867,29.867,0,0,0,5.444,2.978,34.533,34.533,0,0,0,1.289-6.116,29.106,29.106,0,0,0-.925-12.891,24.445,24.445,0,0,0-7.31-10.445,25.593,25.593,0,0,0-5.135-3.491,30.982,30.982,0,0,0-2.283,6.76C2611.954,1200.027,2611.656,1205.122,2613.484,1209.637Z" transform="translate(-2577.495 -1161.995)" fill="#13bc2f"/>
          <path id="Path_5033" data-name="Path 5033" d="M2643.14,1266.838c-9.334.519-17.575-6.092-17.575-6.092s7.145-7.967,16.517-8.058c4.66-.078,8.932,1.819,12.044,3.6a35.013,35.013,0,0,1,5.1,3.54,31.725,31.725,0,0,1-4.542,3.229A25.707,25.707,0,0,1,2643.14,1266.838Z" transform="translate(-2582.696 -1186.547)" fill="#13bc2f"/>
          <path id="Path_5034" data-name="Path 5034" d="M2583.5,1262.229c4.5,8.292,14.572,11.578,14.572,11.578s2.761-10.184-1.644-18.585c-4.372-8.435-14.418-11.8-14.418-11.8a29.014,29.014,0,0,0-.99,6.34A23.577,23.577,0,0,0,2583.5,1262.229Z" transform="translate(-2565.424 -1182.96)" fill="#13bc2f"/>
          <path id="Path_5035" data-name="Path 5035" d="M2617.129,1314.1c-9.531.852-17.615-6.043-17.615-6.043s7.115-7.861,16.52-8.765c9.419-.865,17.709,5.736,17.709,5.736a31.146,31.146,0,0,1-4.7,4.159A24.636,24.636,0,0,1,2617.129,1314.1Z" transform="translate(-2572.604 -1204.573)" fill="#13bc2f"/>
          <path id="Path_5036" data-name="Path 5036" d="M2557.846,1308.079a27.267,27.267,0,0,0,8.24,9.5,30.235,30.235,0,0,0,5.3,3.221,24.388,24.388,0,0,0,1.332-6.021,21.915,21.915,0,0,0-2-12.3c-4.314-8.292-14.305-11.845-14.305-11.845a27.3,27.3,0,0,0-.8,5.685A24.472,24.472,0,0,0,2557.846,1308.079Z" transform="translate(-2555.588 -1201.247)" fill="#13bc2f"/>
        </g>
        <path id="Path_5037" data-name="Path 5037" d="M1614.861,919.774c314.431,25.695,514.709-117.124,429.277-207.392-63.187-66.763-1.373-80.3-25.641-133-23.155-50.279-116.054-70.14-101.984-187.482s-127.14-119.369-199.394-177.819-215.113-56.917-266.4,31.7c-30.306,52.371,9.158,127.477-54.946,151.745s-89.193,146.736-35.439,194.99-152.6,171.447-60.417,259.234C1355.484,904.668,1500.068,910.393,1614.861,919.774Z" transform="translate(-1217.909 -174.073)" fill="#724fcf"/>
        <g id="Group_9089" data-name="Group 9089" transform="translate(657.771 388.075)">
          <path id="Path_5038" data-name="Path 5038" d="M2337,888.193l-50.246-18.275a59.557,59.557,0,0,1,54.029-62.378l-22.96,55.541Z" transform="translate(-2267.239 -807.54)" fill="#fff"/>
          <path id="Path_5039" data-name="Path 5039" d="M2299.809,966.294l-43.548,105.342a17.148,17.148,0,0,0,9.3,22.4h0a17.149,17.149,0,0,0,22.4-9.3L2331.505,979.4Z" transform="translate(-2254.956 -869.038)" fill="#fff"/>
          <path id="Path_5040" data-name="Path 5040" d="M2309.09,1018.07h0a12.386,12.386,0,0,0-16.177,6.714l-26.72,64.634a12.386,12.386,0,0,0,6.714,16.177h0a12.385,12.385,0,0,0,16.177-6.714l26.72-64.635A12.385,12.385,0,0,0,2309.09,1018.07Z" transform="translate(-2258.944 -888.73)" fill="#e1e1ff"/>
          <path id="Path_5041" data-name="Path 5041" d="M2286.02,1143.366a4.035,4.035,0,1,1-2.188-5.271A4.036,4.036,0,0,1,2286.02,1143.366Z" transform="translate(-2263.981 -935.471)" fill="#ffd9e8"/>
          <path id="Path_5042" data-name="Path 5042" d="M2401.3,902.971a59.552,59.552,0,0,1-114.5-19.677l50.246,18.275,31.991-3.959L2392,842.069A59.511,59.511,0,0,1,2401.3,902.971Z" transform="translate(-2267.293 -820.916)" fill="#fff"/>
        </g>
        <g id="Group_9091" data-name="Group 9091" transform="translate(15.363 566.981)">
          <g id="Group_9090" data-name="Group 9090" transform="translate(15.416 17.376)">
            <path id="Path_5043" data-name="Path 5043" d="M1310.33,1277.562l-.378,2.776a7.72,7.72,0,0,1-5.476-4.106,23.464,23.464,0,0,1-2.1-5.416l-3.028-10.268c-2.026-6.842-4.18-13.638-6.377-20.419-4.487-13.524-9.328-26.932-15.02-39.964a286.691,286.691,0,0,0-19.616-37.774c-7.526-11.966-15.694-23.853-26.839-32.2l1.666-2.253c11.681,8.771,19.947,20.907,27.552,32.974a289.321,289.321,0,0,1,19.807,38.139c5.737,13.135,10.605,26.621,15.112,40.206,2.205,6.808,4.367,13.631,6.4,20.49l3.034,10.291C1305.96,1273.289,1307.338,1277.1,1310.33,1277.562Z" transform="translate(-1231.497 -1127.937)" fill="#13bc2f"/>
          </g>
          <path id="Path_5044" data-name="Path 5044" d="M1269.244,1119.815a19.689,19.689,0,0,1-6.654,10.16,28.338,28.338,0,0,1-4.839,3.4,41.514,41.514,0,0,1-1.956-5.653,35.063,35.063,0,0,1-1.29-12.509,23.718,23.718,0,0,1,4.563-11.4,20.618,20.618,0,0,1,4.135-4.233,30.7,30.7,0,0,1,4.111,6.636C1269.166,1110.139,1270.343,1115.219,1269.244,1119.815Z" transform="translate(-1224.94 -1099.574)" fill="#13bc2f"/>
          <path id="Path_5045" data-name="Path 5045" d="M1239.443,1183.383a25.308,25.308,0,0,0,11.462-3.469,28.812,28.812,0,0,0,4.845-3.39,22.616,22.616,0,0,0-4.732-3.489,19.5,19.5,0,0,0-11.4-2.939c-4.389.365-8.247,2.564-11.035,4.539a36.111,36.111,0,0,0-4.53,3.794,28.92,28.92,0,0,0,4.352,2.4A24.505,24.505,0,0,0,1239.443,1183.383Z" transform="translate(-1213.199 -1126.869)" fill="#13bc2f"/>
          <path id="Path_5046" data-name="Path 5046" d="M1226.476,1148.912a18.408,18.408,0,0,0,6.877-3.775,18.989,18.989,0,0,0,2.7-2.782,15.743,15.743,0,0,0-3.47-1.615,11.881,11.881,0,0,0-7.609-.051,15.317,15.317,0,0,0-6.175,4.781,26.45,26.45,0,0,0-2.25,3.159,21.7,21.7,0,0,0,2.9.616A18.284,18.284,0,0,0,1226.476,1148.912Z" transform="translate(-1210.292 -1115.266)" fill="#13bc2f"/>
          <path id="Path_5047" data-name="Path 5047" d="M1214.111,1124.881a18.6,18.6,0,0,0,7.179,1.485,23.922,23.922,0,0,0,3.811-.1,15.862,15.862,0,0,0-1.253-3.7,12.835,12.835,0,0,0-5.753-5.922,12.321,12.321,0,0,0-8.194-.727,14.216,14.216,0,0,0-3.569,1.471,26.092,26.092,0,0,0,2.288,2.928A17.754,17.754,0,0,0,1214.111,1124.881Z" transform="translate(-1206.333 -1105.758)" fill="#13bc2f"/>
          <path id="Path_5048" data-name="Path 5048" d="M1305.048,1161.91c-2.343,5.152-6.542,8.6-10.121,10.837a34.868,34.868,0,0,1-6.5,3.21,36.693,36.693,0,0,1-1.219-7.193,32.989,32.989,0,0,1,1.835-14.947,28.345,28.345,0,0,1,9.237-11.662,30.818,30.818,0,0,1,6.212-3.749,35.951,35.951,0,0,1,2.143,7.853C1307.36,1150.862,1307.446,1156.742,1305.048,1161.91Z" transform="translate(-1237.6 -1114.617)" fill="#13bc2f"/>
          <path id="Path_5049" data-name="Path 5049" d="M1258.544,1232.831a30.9,30.9,0,0,0,14.546-2.36,35.19,35.19,0,0,0,6.438-3.338,33.952,33.952,0,0,0-5.171-5.029c-3.354-2.528-7.979-5.189-13.465-5.536-5.444-.377-10.533,1.46-14.3,3.329a39.862,39.862,0,0,0-6.193,3.784,33.708,33.708,0,0,0,18.141,9.15Z" transform="translate(-1219.531 -1144.876)" fill="#13bc2f"/>
          <path id="Path_5050" data-name="Path 5050" d="M1335.928,1226.589c-3.026,4.728-7.633,7.623-11.46,9.386a34.987,34.987,0,0,1-6.855,2.371s-1.982-12.131,3.7-21.722a28.348,28.348,0,0,1,10.924-10.055,31.874,31.874,0,0,1,6.706-2.77S1342.14,1217.139,1335.928,1226.589Z" transform="translate(-1249.311 -1139.949)" fill="#13bc2f"/>
          <path id="Path_5051" data-name="Path 5051" d="M1282.975,1291.033c10.644,2.453,21.464-3.513,21.464-3.513s-6.624-10.556-17.424-12.673c-10.73-2.1-21.252,4.452-21.252,4.452S1272.38,1288.548,1282.975,1291.033Z" transform="translate(-1229.355 -1167.31)" fill="#13bc2f"/>
          <path id="Path_5052" data-name="Path 5052" d="M1358.285,1289.6c-6.865,8.786-19.186,10.284-19.186,10.284s-1.022-12.288,5.568-21.206c6.625-8.961,18.842-10.962,18.842-10.962S1365.2,1280.808,1358.285,1289.6Z" transform="translate(-1257.742 -1164.707)" fill="#13bc2f"/>
          <path id="Path_5053" data-name="Path 5053" d="M1302.206,1349.532c10.53,3.143,21.622-2.355,21.622-2.355s-6.054-10.855-16.679-13.808c-10.573-2.955-21.548,2.834-21.548,2.834S1291.675,1346.389,1302.206,1349.532Z" transform="translate(-1237.04 -1189.816)" fill="#13bc2f"/>
        </g>
        <g id="Group_9092" data-name="Group 9092" transform="translate(545.24 129.597)">
          <path id="Path_5054" data-name="Path 5054" d="M2071.269,442.24,2087,462.919l9.282-7.059-15.727-20.679Zm8.482,1.522a1.785,1.785,0,1,1,.341-2.5A1.776,1.776,0,0,1,2079.751,443.762Z" transform="translate(-2071.269 -404.818)" fill="#fff"/>
          <path id="Path_5055" data-name="Path 5055" d="M2104.928,434.813l14.247-10.835a11.568,11.568,0,0,0,2.2-16.21l-6.034-7.935h0a5.769,5.769,0,0,0,1.1-8.084h0a5.771,5.771,0,0,0-8.085-1.1l-11.733,9.124-1.172-9.442c-.477-3.841-4.941-6.08-8.059-3.788l-.074.055,2.765,28.7Z" transform="translate(-2077.488 -385.618)" fill="#fff"/>
        </g>
        <ellipse id="Ellipse_156" data-name="Ellipse 156" cx="465.624" cy="14.646" rx="465.624" ry="14.646" transform="translate(0 737.62)" fill="#6767af"/>
        <g id="Group_9093" data-name="Group 9093" transform="translate(1.084 84.128)">
          <circle id="Ellipse_157" data-name="Ellipse 157" cx="10.815" cy="10.815" r="10.815" transform="translate(407.84 21.042) rotate(-76.615)" fill="#ff9a00"/>
          <circle id="Ellipse_158" data-name="Ellipse 158" cx="10.815" cy="10.815" r="10.815" transform="translate(866.465 216.742) rotate(-26.659)" fill="#ff9a00"/>
          <circle id="Ellipse_159" data-name="Ellipse 159" cx="6.482" cy="6.482" r="6.482" transform="translate(811.413 243.487) rotate(-76.656)" fill="#ff9a00"/>
          <circle id="Ellipse_160" data-name="Ellipse 160" cx="5.471" cy="5.471" r="5.471" transform="translate(475.904 155.47) rotate(-80.757)" fill="#ff9a00"/>
          <circle id="Ellipse_161" data-name="Ellipse 161" cx="5.471" cy="5.471" r="5.471" transform="translate(0 170.774) rotate(-45)" fill="#ff9a00"/>
          <circle id="Ellipse_162" data-name="Ellipse 162" cx="5.471" cy="5.471" r="5.471" transform="matrix(0.23, -0.973, 0.973, 0.23, 144.458, 185.785)" fill="#ff9a00"/>
          <circle id="Ellipse_163" data-name="Ellipse 163" cx="5.471" cy="5.471" r="5.471" transform="translate(530.947 315.989) rotate(-45)" fill="#ff9a00"/>
          <circle id="Ellipse_164" data-name="Ellipse 164" cx="5.471" cy="5.471" r="5.471" transform="translate(153.433 50.94) rotate(-45)" fill="#ff9a00"/>
          <circle id="Ellipse_165" data-name="Ellipse 165" cx="5.471" cy="5.471" r="5.471" transform="translate(771.661 23.729) rotate(-45)" fill="#ff9a00"/>
        </g>
        <g id="Group_9094" data-name="Group 9094" transform="translate(81.598 641.373)">
          <path id="Path_5056" data-name="Path 5056" d="M1487.929,1313.27c-26.361-75.945-116.742-92.264-116.742-92.264s20.712,85.988,57.743,112.349h62.137Z" transform="translate(-1336.43 -1221.006)" fill="#e2aa3b"/>
          <path id="Path_5057" data-name="Path 5057" d="M1497.454,1359.152s-26.779-56.906-55.233-71.552c0,0,28.872,33.893,44.354,71.552Z" transform="translate(-1363.947 -1246.803)" fill="#e0923d"/>
          <path id="Path_5058" data-name="Path 5058" d="M1335.4,1352.8c-33.265-36.4-16.946-81.594-16.946-81.594s80.966,32.01,96.03,81.594Z" transform="translate(-1314.452 -1240.453)" fill="#1b687a"/>
          <path id="Path_5059" data-name="Path 5059" d="M1402.877,1379.525l-33.056-39.332,20.085,39.332Z" transform="translate(-1335.9 -1267.176)" fill="#155263"/>
        </g>
        <g id="Group_9096" data-name="Group 9096" transform="translate(756.237 622.883)">
          <path id="Path_5060" data-name="Path 5060" d="M2542.94,1311.723c30.363-51.34,12.145-120.9,12.145-120.9s-49.131,16.01-72.317,120.9Z" transform="translate(-2441.672 -1190.825)" fill="#1b687a"/>
          <g id="Group_9095" data-name="Group 9095" transform="translate(73.667 49.868)">
            <path id="Path_5061" data-name="Path 5061" d="M2535.934,1343.256c12.513-53,63.3-71.03,63.3-71.03s-2.208,46-23.554,71.03Z" transform="translate(-2535.934 -1272.226)" fill="#155263"/>
          </g>
          <path id="Path_5062" data-name="Path 5062" d="M2517.01,1343.489c11.041-47.108,28.89-70.661,28.89-70.661s-20.609,46-22.818,70.661Z" transform="translate(-2454.936 -1222.591)" fill="#155263"/>
          <path id="Path_5063" data-name="Path 5063" d="M2557.786,1358.935l29.258-46.234-22.91,46.234Z" transform="translate(-2470.732 -1238.037)" fill="#123f49"/>
          <path id="Path_5064" data-name="Path 5064" d="M2478.986,1343.256c-12.513-53-63.3-71.03-63.3-71.03s2.208,46,23.554,71.03Z" transform="translate(-2415.685 -1222.358)" fill="#155263"/>
          <path id="Path_5065" data-name="Path 5065" d="M2478.66,1358.935,2449.4,1312.7l22.91,46.234Z" transform="translate(-2428.746 -1238.037)" fill="#123f49"/>
        </g>
        <g id="Group_9120" data-name="Group 9120" transform="translate(126.983 372.194)">
          <g id="Group_9097" data-name="Group 9097" transform="translate(44.353 303.23)">
            <path id="Path_5066" data-name="Path 5066" d="M1463.416,1316.574a15.525,15.525,0,0,0,4.626,21.463h0a15.525,15.525,0,0,0,21.464-4.626l25.8-39.976-26.089-16.837Z" transform="translate(-1460.933 -1276.591)" fill="#ff9a00"/>
            <path id="Path_5067" data-name="Path 5067" d="M1819.051,1276.6l-26.09,16.837,25.8,39.976a15.524,15.524,0,0,0,21.463,4.626h0a15.525,15.525,0,0,0,4.627-21.463Z" transform="translate(-1589.554 -1276.591)" fill="#ff9a00"/>
            <path id="Path_5068" data-name="Path 5068" d="M1521.429,1293.415l-18.915,29.324a185.35,185.35,0,0,1-25.771-17.326l18.6-28.825Z" transform="translate(-1467.058 -1276.588)" fill="#ea8500"/>
            <path id="Path_5069" data-name="Path 5069" d="M1837.669,1305.413a190.088,190.088,0,0,1-25.771,17.326l-18.916-29.324,26.083-16.827Z" transform="translate(-1589.563 -1276.588)" fill="#ea8500"/>
          </g>
          <g id="Group_9098" data-name="Group 9098" transform="translate(6.427)">
            <path id="Path_5070" data-name="Path 5070" d="M1501.619,799.219a60.1,60.1,0,0,0-84.992,0h0a60.1,60.1,0,0,0,0,84.992l4.856,4.856a9.159,9.159,0,0,0,12.953,0l72.039-72.039a9.16,9.16,0,0,0,0-12.954Z" transform="translate(-1399.025 -781.616)" fill="#ff9a00"/>
            <path id="Path_5071" data-name="Path 5071" d="M1856.378,806.849a60.1,60.1,0,0,0-84.992,0l-4.856,4.856a9.159,9.159,0,0,0,0,12.953l72.039,72.039a9.159,9.159,0,0,0,12.953,0l4.856-4.856a60.1,60.1,0,0,0,0-84.992Z" transform="translate(-1540.349 -784.572)" fill="#ff9a00"/>
            <path id="Path_5072" data-name="Path 5072" d="M1866.394,880.135a59.617,59.617,0,0,1-12.434,18.137l-11.311,11.312-85.01-84.98,11.343-11.343a58.2,58.2,0,0,1,9.068-7.448A173.71,173.71,0,0,1,1866.394,880.135Z" transform="translate(-1537.944 -790.99)" fill="#ea8500"/>
            <path id="Path_5073" data-name="Path 5073" d="M1407.482,872.5a59.632,59.632,0,0,0,12.434,18.137l11.312,11.311,85.01-84.979L1504.9,805.631a58.177,58.177,0,0,0-9.069-7.448A173.715,173.715,0,0,0,1407.482,872.5Z" transform="translate(-1402.301 -788.034)" fill="#ea8500"/>
          </g>
          <g id="Group_9119" data-name="Group 9119" transform="translate(0 9.125)">
            <circle id="Ellipse_166" data-name="Ellipse 166" cx="173.242" cy="173.242" r="173.242" fill="#4e3654"/>
            <path id="Path_5074" data-name="Path 5074" d="M1724.492,987.926A144.577,144.577,0,1,1,1579.9,843.3h.748V987.926Z" transform="translate(-1406.665 -814.637)" fill="#fff3f6"/>
            <path id="Path_5075" data-name="Path 5075" d="M1816.375,987.895v.031H1672.531V843.3A144.6,144.6,0,0,1,1816.375,987.895Z" transform="translate(-1498.548 -814.637)" fill="#fff3f6"/>
            <rect id="Rectangle_2888" data-name="Rectangle 2888" width="105.172" height="6.344" transform="translate(169.653 153.418) rotate(-90)" fill="#ef3554"/>
            <path id="Path_5076" data-name="Path 5076" d="M1724.492,987.895v.031a149.131,149.131,0,0,1-.779,15.02,144.606,144.606,0,0,0-143.065-129.6h-.748a144.57,144.57,0,0,0-143.782,129.572,140.438,140.438,0,0,1-.779-15.02A144.57,144.57,0,0,1,1579.9,843.3h.748A144.6,144.6,0,0,1,1724.492,987.895Z" transform="translate(-1406.665 -814.637)" fill="#2b2b3a" opacity="0.22"/>
            <g id="Group_9102" data-name="Group 9102" transform="translate(168.234 22.495)">
              <g id="Group_9101" data-name="Group 9101">
                <g id="Group_9099" data-name="Group 9099">
                  <rect id="Rectangle_2889" data-name="Rectangle 2889" width="10.016" height="21.146" fill="#283149"/>
                </g>
                <g id="Group_9100" data-name="Group 9100" transform="translate(0 280.348)">
                  <rect id="Rectangle_2890" data-name="Rectangle 2890" width="10.016" height="21.146" fill="#283149"/>
                </g>
              </g>
            </g>
            <g id="Group_9106" data-name="Group 9106" transform="translate(22.495 168.234)">
              <g id="Group_9105" data-name="Group 9105">
                <g id="Group_9103" data-name="Group 9103" transform="translate(277.232)">
                  <rect id="Rectangle_2891" data-name="Rectangle 2891" width="24.262" height="10.016" fill="#283149"/>
                </g>
                <g id="Group_9104" data-name="Group 9104">
                  <rect id="Rectangle_2892" data-name="Rectangle 2892" width="24.262" height="10.016" fill="#283149"/>
                </g>
              </g>
            </g>
            <g id="Group_9109" data-name="Group 9109" transform="translate(43.84 98.862)">
              <g id="Group_9107" data-name="Group 9107" transform="translate(241.252 136.581)">
                <rect id="Rectangle_2893" data-name="Rectangle 2893" width="3.784" height="18.028" transform="translate(0 3.292) rotate(-60.461)" fill="#283149"/>
              </g>
              <g id="Group_9108" data-name="Group 9108" transform="translate(0 0)">
                <rect id="Rectangle_2894" data-name="Rectangle 2894" width="3.784" height="18.028" transform="translate(0 3.293) rotate(-60.482)" fill="#283149"/>
              </g>
            </g>
            <g id="Group_9112" data-name="Group 9112" transform="translate(96.22 45.35)">
              <g id="Group_9110" data-name="Group 9110" transform="translate(141.587 238.35)">
                <rect id="Rectangle_2895" data-name="Rectangle 2895" width="3.784" height="18.028" transform="matrix(0.86, -0.51, 0.51, 0.86, 0, 1.931)" fill="#283149"/>
              </g>
              <g id="Group_9111" data-name="Group 9111" transform="translate(0 0)">
                <rect id="Rectangle_2896" data-name="Rectangle 2896" width="3.784" height="18.028" transform="translate(0 1.932) rotate(-30.709)" fill="#283149"/>
              </g>
            </g>
            <g id="Group_9115" data-name="Group 9115" transform="translate(98.86 43.841)">
              <g id="Group_9113" data-name="Group 9113" transform="translate(0 241.252)">
                <rect id="Rectangle_2897" data-name="Rectangle 2897" width="18.028" height="3.784" transform="translate(0 15.685) rotate(-60.461)" fill="#283149"/>
              </g>
              <g id="Group_9114" data-name="Group 9114" transform="translate(136.586 0)">
                <rect id="Rectangle_2898" data-name="Rectangle 2898" width="18.028" height="3.784" transform="translate(0 15.688) rotate(-60.482)" fill="#283149"/>
              </g>
            </g>
            <g id="Group_9118" data-name="Group 9118" transform="translate(45.349 96.221)">
              <g id="Group_9116" data-name="Group 9116" transform="translate(0 141.587)">
                <rect id="Rectangle_2899" data-name="Rectangle 2899" width="18.028" height="3.784" transform="matrix(0.86, -0.51, 0.51, 0.86, 0, 9.201)" fill="#283149"/>
              </g>
              <g id="Group_9117" data-name="Group 9117" transform="translate(238.352 0)">
                <rect id="Rectangle_2900" data-name="Rectangle 2900" width="18.028" height="3.784" transform="translate(0 9.207) rotate(-30.709)" fill="#283149"/>
              </g>
            </g>
            <rect id="Rectangle_2901" data-name="Rectangle 2901" width="84.472" height="6.344" transform="translate(187.85 169.611)" fill="#ef3554"/>
            <rect id="Rectangle_2902" data-name="Rectangle 2902" width="4.674" height="110.165" transform="translate(159.898 177.802) rotate(57.121)" fill="#7f4a88"/>
            <circle id="Ellipse_167" data-name="Ellipse 167" cx="20.826" cy="20.826" r="20.826" transform="translate(152.417 161.431)" fill="#2b2b3a" opacity="0.22"/>
            <circle id="Ellipse_168" data-name="Ellipse 168" cx="20.826" cy="20.826" r="20.826" transform="translate(152.417 152.416)" fill="#283149"/>
            <circle id="Ellipse_169" data-name="Ellipse 169" cx="9.015" cy="9.015" r="9.015" transform="translate(164.227 164.227)" fill="#fff3f6"/>
          </g>
        </g>
        <g id="Group_9122" data-name="Group 9122" transform="translate(364.476 597.261)">
          <g id="Group_9121" data-name="Group 9121" transform="translate(10.631 11.144)">
            <path id="Path_5077" data-name="Path 5077" d="M1862.881,1292.122l-2.315.319c-3.292-23.4-13.737-45.192-26.309-65.214-12.635-20.082-27.039-39.155-40.7-58.68l1.9-1.355c13.666,19.531,28.047,38.564,40.78,58.8C1848.891,1246.144,1859.519,1268.24,1862.881,1292.122Z" transform="translate(-1793.554 -1167.192)" fill="#13bc2f"/>
          </g>
          <path id="Path_5078" data-name="Path 5078" d="M1823.4,1165.979c-2.713,7-10.334,10.57-10.334,10.57s-3.221-7.775-.507-14.774,10.334-10.571,10.334-10.571S1826.11,1158.981,1823.4,1165.979Z" transform="translate(-1789.862 -1149.855)" fill="#13bc2f"/>
          <path id="Path_5079" data-name="Path 5079" d="M1797.043,1216.907c7.494-.272,13.377-6.289,13.377-6.289s-6.286-5.6-13.787-5.332-13.378,6.29-13.378,6.29S1789.541,1217.171,1797.043,1216.907Z" transform="translate(-1778.934 -1170.801)" fill="#13bc2f"/>
          <path id="Path_5080" data-name="Path 5080" d="M1785.25,1184.55c4.924-.174,8.78-4.128,8.78-4.128s-4.126-3.672-9.049-3.5-8.78,4.128-8.78,4.128S1780.327,1184.724,1785.25,1184.55Z" transform="translate(-1776.201 -1159.815)" fill="#13bc2f"/>
          <path id="Path_5081" data-name="Path 5081" d="M1782.152,1158.375c3.039,3.877,8.506,4.666,8.506,4.666s.539-5.5-2.5-9.374-8.506-4.665-8.506-4.665S1779.113,1154.5,1782.152,1158.375Z" transform="translate(-1777.523 -1149.001)" fill="#13bc2f"/>
          <path id="Path_5082" data-name="Path 5082" d="M1851.6,1196.39c-3.34,8.63-12.76,12.9-12.76,12.9s-3.9-9.571-.588-18.165c3.331-8.59,12.684-12.974,12.684-12.974S1854.911,1187.7,1851.6,1196.39Z" transform="translate(-1799.722 -1160.293)" fill="#13bc2f"/>
          <path id="Path_5083" data-name="Path 5083" d="M1818.4,1258.427c9.09-.14,16.671-7.124,16.671-7.124s-7.45-7.178-16.655-6.881c-9.156.275-16.454,7.594-16.454,7.594S1809.342,1258.609,1818.4,1258.427Z" transform="translate(-1786.182 -1185.962)" fill="#13bc2f"/>
          <path id="Path_5084" data-name="Path 5084" d="M1883.277,1244.233c-3.867,8.544-13.666,11.951-13.666,11.951a30.31,30.31,0,0,1-1.1-5.982,25.485,25.485,0,0,1,1.522-12.352c3.6-8.568,13.108-12.591,13.108-12.591a31.956,31.956,0,0,1,1.522,6.214C1885.163,1235.189,1885.219,1239.909,1883.277,1244.233Z" transform="translate(-1811.893 -1178.542)" fill="#13bc2f"/>
          <path id="Path_5085" data-name="Path 5085" d="M1845.445,1303.614a26.548,26.548,0,0,0,12.05-2.2,29.414,29.414,0,0,0,5.335-2.85s-6.5-8.107-15.692-8.474a23.681,23.681,0,0,0-11.873,3.015,32.255,32.255,0,0,0-5.089,3.266,24.917,24.917,0,0,0,4.323,3.362A24.248,24.248,0,0,0,1845.445,1303.614Z" transform="translate(-1797.11 -1203.649)" fill="#13bc2f"/>
          <path id="Path_5086" data-name="Path 5086" d="M1908.962,1295.145a21.051,21.051,0,0,1-9.618,7.865,29.118,29.118,0,0,1-5.752,1.881s-1.486-10.157,2.928-18.291a23.75,23.75,0,0,1,8.893-8.67,26.159,26.159,0,0,1,5.538-2.449,33.575,33.575,0,0,1,.924,6.733C1912.044,1286.089,1911.437,1291.118,1908.962,1295.145Z" transform="translate(-1821.582 -1197.998)" fill="#13bc2f"/>
          <path id="Path_5087" data-name="Path 5087" d="M1863.4,1347.721a28.474,28.474,0,0,0,12.2.265,29.616,29.616,0,0,0,5.825-1.641,20.379,20.379,0,0,0-3.442-4.895,19.468,19.468,0,0,0-10.225-6.226c-4.394-.932-8.875.039-12.184,1.138a35.375,35.375,0,0,0-5.562,2.371,28.936,28.936,0,0,0,3.545,3.648A25.387,25.387,0,0,0,1863.4,1347.721Z" transform="translate(-1804.795 -1220.995)" fill="#13bc2f"/>
        </g>
        <g id="Group_9128" data-name="Group 9128" transform="translate(417.714 252.791)">
          <g id="Group_9123" data-name="Group 9123">
            <path id="Rectangle_2903" data-name="Rectangle 2903" d="M2.742,0H264.824a2.741,2.741,0,0,1,2.741,2.741V483.818a2.742,2.742,0,0,1-2.742,2.742H2.742A2.742,2.742,0,0,1,0,483.818V2.742A2.742,2.742,0,0,1,2.742,0Z" transform="translate(267.566 486.56) rotate(180)" fill="#4e3654"/>
            <rect id="Rectangle_2904" data-name="Rectangle 2904" width="226.488" height="388.307" transform="translate(247.027 425.656) rotate(180)" fill="url(#linear-gradient-3)"/>
            <ellipse id="Ellipse_170" data-name="Ellipse 170" cx="16.257" cy="11.315" rx="16.257" ry="11.315" transform="translate(117.526 443.582)" fill="#39283d"/>
            <rect id="Rectangle_2905" data-name="Rectangle 2905" width="85.486" height="8.843" rx="0.446" transform="translate(176.526 21.27) rotate(180)" fill="#39283d"/>
          </g>
          <rect id="Rectangle_2906" data-name="Rectangle 2906" width="169.59" height="8.697" rx="0.88" transform="translate(48.988 289.086)" fill="#fff"/>
          <rect id="Rectangle_2907" data-name="Rectangle 2907" width="97.048" height="8.697" rx="0.88" transform="translate(48.988 289.086)" fill="#58595b"/>
          <g id="Group_9124" data-name="Group 9124" transform="translate(94.332 267.827)">
            <path id="Path_5088" data-name="Path 5088" d="M2020.562,1025.455l-2.035,11.6h4.518l-.178.988h-5.782l2.213-12.584Z" transform="translate(-2017.085 -1024.5)" fill="#fff"/>
            <path id="Path_5089" data-name="Path 5089" d="M2033.891,1039.833a3.835,3.835,0,0,1-4.122-4.037,5.89,5.89,0,0,1,5.874-6.085,3.847,3.847,0,0,1,4.136,4.037A5.91,5.91,0,0,1,2033.891,1039.833Zm.145-1.061a4.677,4.677,0,0,0,4.452-4.952,2.828,2.828,0,0,0-3.029-3.029c-2.628,0-4.392,2.325-4.392,4.952A2.8,2.8,0,0,0,2034.036,1038.772Z" transform="translate(-2021.999 -1026.149)" fill="#fff"/>
            <path id="Path_5090" data-name="Path 5090" d="M2054.306,1029.711a3.314,3.314,0,0,1,3.477,2.305l.375-2.16h1.264l-1.732,9.831h-1.258l.375-2.18a5.041,5.041,0,0,1-4.3,2.325c-2.687,0-4.34-2-3.8-5.077A5.759,5.759,0,0,1,2054.306,1029.711Zm.04,1.1a4.433,4.433,0,0,0-4.34,3.944c-.455,2.483.882,3.978,2.93,3.978a4.546,4.546,0,0,0,4.359-3.957C2057.743,1032.326,2056.361,1030.811,2054.346,1030.811Z" transform="translate(-2029.296 -1026.149)" fill="#fff"/>
            <path id="Path_5091" data-name="Path 5091" d="M2074.147,1027.6a3.48,3.48,0,0,1,3.477,2.272l.988-5.617h1.258l-2.358,13.322h-1.258l.4-2.2a5.06,5.06,0,0,1-4.307,2.344c-2.7,0-4.353-2-3.812-5.078A5.763,5.763,0,0,1,2074.147,1027.6Zm.02,1.1a4.433,4.433,0,0,0-4.34,3.944c-.454,2.483.883,3.978,2.931,3.978a4.546,4.546,0,0,0,4.359-3.957C2077.565,1030.211,2076.182,1028.7,2074.167,1028.7Z" transform="translate(-2036.974 -1024.034)" fill="#fff"/>
            <path id="Path_5092" data-name="Path 5092" d="M2089.675,1027.6h1.258l-1.732,9.831h-1.258Zm.211-2.792a1.1,1.1,0,0,1,1.08-.915.721.721,0,0,1,.744.915,1.114,1.114,0,0,1-1.066.935A.747.747,0,0,1,2089.886,1024.811Z" transform="translate(-2044.534 -1023.896)" fill="#fff"/>
            <path id="Path_5093" data-name="Path 5093" d="M2103.018,1034.05c.375-2.179-.593-3.3-2.4-3.3-1.837,0-3.332,1.152-3.747,3.55v-.053l-.955,5.419h-1.258l1.732-9.831h1.258l-.31,1.693a4.449,4.449,0,0,1,3.715-1.87c2.212,0,3.74,1.37,3.239,4.247l-1.027,5.762h-1.244Z" transform="translate(-2047.136 -1026.128)" fill="#fff"/>
            <path id="Path_5094" data-name="Path 5094" d="M2118.963,1029.711a3.342,3.342,0,0,1,3.477,2.285l.375-2.14h1.265l-1.765,10.082a5.388,5.388,0,0,1-5.406,4.576c-2.535,0-4.07-1.3-4.1-3.352h1.244c.178,1.337,1.238,2.252,3.063,2.252a3.96,3.96,0,0,0,3.937-3.476l.415-2.43a5.034,5.034,0,0,1-4.287,2.325c-2.7,0-4.353-2-3.813-5.077A5.76,5.76,0,0,1,2118.963,1029.711Zm.039,1.1a4.434,4.434,0,0,0-4.339,3.944c-.454,2.483.883,3.978,2.93,3.978a4.546,4.546,0,0,0,4.359-3.957C2122.4,1032.326,2121.017,1030.811,2119,1030.811Z" transform="translate(-2054.166 -1026.149)" fill="#fff"/>
            <path id="Path_5095" data-name="Path 5095" d="M2132.9,1044.973a.757.757,0,0,1-.757-.941,1.135,1.135,0,0,1,1.08-.915.733.733,0,0,1,.757.915A1.159,1.159,0,0,1,2132.9,1044.973Z" transform="translate(-2061.651 -1031.341)" fill="#fff"/>
            <path id="Path_5096" data-name="Path 5096" d="M2138.256,1044.973a.757.757,0,0,1-.757-.941,1.135,1.135,0,0,1,1.08-.915.734.734,0,0,1,.757.915A1.159,1.159,0,0,1,2138.256,1044.973Z" transform="translate(-2063.725 -1031.341)" fill="#fff"/>
            <path id="Path_5097" data-name="Path 5097" d="M2143.6,1044.973a.757.757,0,0,1-.757-.941,1.134,1.134,0,0,1,1.08-.915.733.733,0,0,1,.757.915A1.158,1.158,0,0,1,2143.6,1044.973Z" transform="translate(-2065.795 -1031.341)" fill="#fff"/>
          </g>
          <g id="Group_9127" data-name="Group 9127" transform="translate(91.661 151.397)">
            <g id="Group_9125" data-name="Group 9125" style="mix-blend-mode: screen;isolation: isolate">
              <path id="Path_5098" data-name="Path 5098" d="M2056.611,918.029a42.1,42.1,0,1,1,39.654-34.41,7.414,7.414,0,0,1-14.578-2.709,27.235,27.235,0,1,0-8.3,15.076,7.412,7.412,0,1,1,10.074,10.874,42.178,42.178,0,0,1-26.851,11.169Z" transform="translate(-2012.726 -833.843)" fill="url(#linear-gradient-4)"/>
            </g>
            <g id="Group_9126" data-name="Group 9126" style="mix-blend-mode: screen;isolation: isolate">
              <path id="Path_5099" data-name="Path 5099" d="M2056.611,918.029a42.1,42.1,0,1,1,39.654-34.41,7.414,7.414,0,0,1-14.578-2.709,27.235,27.235,0,1,0-8.3,15.076,7.412,7.412,0,1,1,10.074,10.874,42.178,42.178,0,0,1-26.851,11.169Z" transform="translate(-2012.726 -833.843)" fill="url(#linear-gradient-5)"/>
            </g>
          </g>
        </g>
        <g id="Group_9129" data-name="Group 9129" transform="translate(617.736 182.348)">
          <circle id="Ellipse_171" data-name="Ellipse 171" cx="47.257" cy="47.257" r="47.257" transform="translate(0 32.986)" fill="#f9ed32"/>
          <circle id="Ellipse_172" data-name="Ellipse 172" cx="27.052" cy="27.052" r="27.052" transform="translate(62.584)" fill="#f9ed32"/>
        </g>
        <g id="Group_9131" data-name="Group 9131" transform="translate(694.597 511.832)">
          <g id="Group_9130" data-name="Group 9130" transform="translate(35.272 14.922)">
            <path id="Path_5100" data-name="Path 5100" d="M2376.133,1222.129l-3.486.028c-.278-72,33.655-143.069,89.652-188.247l2.193,2.708C2409.328,1081.1,2375.843,1151.264,2376.133,1222.129Z" transform="translate(-2372.645 -1033.91)" fill="#13bc2f"/>
          </g>
          <path id="Path_5101" data-name="Path 5101" d="M2506.409,1078.343a32.057,32.057,0,0,1-13.007-7.172,35.889,35.889,0,0,1-5.044-5.352,30.83,30.83,0,0,1,6.571-3.1c4.092-1.219,9.472-2.033,14.7-.5,5.208,1.5,9.427,5.157,12.327,8.276a41.45,41.45,0,0,1,4.525,5.781l-1.681.665a31.549,31.549,0,0,1-18.392,1.395Z" transform="translate(-2382.198 -1029.631)" fill="#13bc2f"/>
          <path id="Path_5102" data-name="Path 5102" d="M2438.143,1053.282c1.442,5.541,5.039,9.665,8.261,12.5a35.215,35.215,0,0,0,5.967,4.28,36.773,36.773,0,0,0,2.495-6.931,35.234,35.234,0,0,0,.687-15.273,28.619,28.619,0,0,0-7.224-13.21,31.213,31.213,0,0,0-5.569-4.8,42.121,42.121,0,0,0-3.55,7.433C2437.717,1041.788,2436.713,1047.757,2438.143,1053.282Z" transform="translate(-2362.478 -1017.414)" fill="#13bc2f"/>
          <path id="Path_5103" data-name="Path 5103" d="M2488.282,1024.133c1,7.418,7.7,12.265,7.7,12.265a24.212,24.212,0,0,0,2.211-4.323,22.786,22.786,0,0,0,1.7-9.835c-.647-7.364-6.957-12.687-6.957-12.687a26.166,26.166,0,0,0-2.771,4.414A18.727,18.727,0,0,0,2488.282,1024.133Z" transform="translate(-2382.124 -1009.553)" fill="#13bc2f"/>
          <path id="Path_5104" data-name="Path 5104" d="M2522.046,1016.242a18.365,18.365,0,0,0-5.413,8.48,21.646,21.646,0,0,0-1.028,4.717,25.1,25.1,0,0,0,4.816-.469,20.265,20.265,0,0,0,8.851-3.915c5.62-4.373,6.982-12.625,6.982-12.625S2528.089,1011.56,2522.046,1016.242Z" transform="translate(-2392.752 -1010.643)" fill="#13bc2f"/>
          <path id="Path_5105" data-name="Path 5105" d="M2470.981,1126.225a40.838,40.838,0,0,1-17.2-6.07,44.187,44.187,0,0,1-7.218-5.43,30.927,30.927,0,0,1,7.437-4.989c4.62-2.353,10.8-4.508,17.6-3.451,6.7.969,12.388,4.553,16.485,7.8a52.739,52.739,0,0,1,6.584,6.174,33.61,33.61,0,0,1-6.971,3.33A36.055,36.055,0,0,1,2470.981,1126.225Z" transform="translate(-2366.008 -1046.918)" fill="#13bc2f"/>
          <path id="Path_5106" data-name="Path 5106" d="M2384.543,1111.893c2.9,6.386,8.382,10.641,12.856,13.288a43.184,43.184,0,0,0,8.182,3.788l.5-2.539a50.5,50.5,0,0,0,.881-6.434c.326-5.3.087-12.224-2.414-18.659a35.449,35.449,0,0,0-11.512-14.56,37.45,37.45,0,0,0-7.737-4.642,53.457,53.457,0,0,0-2.767,9.967C2381.5,1097.9,2381.647,1105.518,2384.543,1111.893Z" transform="translate(-2340.976 -1037.67)" fill="#13bc2f"/>
          <path id="Path_5107" data-name="Path 5107" d="M2433.6,1190.666a40.685,40.685,0,0,1-18.116-2.415,43.959,43.959,0,0,1-8.169-3.824,41.175,41.175,0,0,1,6.166-6.453c4.017-3.262,9.919-6.5,16.534-7.01,6.649-.5,13.13,1.916,17.773,4.221a52.2,52.2,0,0,1,7.71,4.671s-.577.568-1.657,1.426a43.741,43.741,0,0,1-4.4,3.352A38.986,38.986,0,0,1,2433.6,1190.666Z" transform="translate(-2350.802 -1072.054)" fill="#13bc2f"/>
          <path id="Path_5108" data-name="Path 5108" d="M2346.492,1197.149c4.322,5.711,10.4,8.69,15.353,10.361a43.385,43.385,0,0,0,8.8,2.013,46.919,46.919,0,0,0-.662-9.115,39.908,39.908,0,0,0-6.182-17.767,35.062,35.062,0,0,0-14.171-11.844,37.616,37.616,0,0,0-8.537-2.956,37.958,37.958,0,0,0-.625,10.339C2340.832,1184.138,2342.031,1191.4,2346.492,1197.149Z" transform="translate(-2324.871 -1070.871)" fill="#13bc2f"/>
          <path id="Path_5109" data-name="Path 5109" d="M2411.631,1257.5a41.549,41.549,0,0,1-18.323,1.225,43.824,43.824,0,0,1-8.762-2.107,41.716,41.716,0,0,1,4.9-7.521,29,29,0,0,1,14.8-10.13c6.48-1.78,13.1-.744,18.145.614a52.868,52.868,0,0,1,8.5,3.066,32.819,32.819,0,0,1-4.955,5.854C2422.49,1251.633,2418,1255.433,2411.631,1257.5Z" transform="translate(-2341.983 -1098.058)" fill="#13bc2f"/>
          <path id="Path_5110" data-name="Path 5110" d="M2326.39,1284.735c5.334,4.719,11.872,6.375,17.06,6.987a43.55,43.55,0,0,0,9.035.15s-2.307-15.061-12.038-24.941a35.937,35.937,0,0,0-16.426-8.811,37.347,37.347,0,0,0-8.952-1.181,54.58,54.58,0,0,0,1.558,10.346C2317.917,1273.041,2321.021,1280.018,2326.39,1284.735Z" transform="translate(-2315.069 -1105.385)" fill="#13bc2f"/>
        </g>
        <rect id="Rectangle_2908" data-name="Rectangle 2908" width="108.53" height="121.891" transform="translate(158.917 631.83)" fill="#e06e41"/>
        <g id="Group_9132" data-name="Group 9132" transform="translate(180.886 481.007)">
          <path id="Path_5111" data-name="Path 5111" d="M1596.329,1011.578l-13.873,11.035,6.342,8.4,22.682-13.889Z" transform="translate(-1517.558 -979.512)" fill="#e29779"/>
          <path id="Path_5112" data-name="Path 5112" d="M1630.268,976.792s.481,32.775-5.153,34.649-19.508-3.224-23.63-15.7,12.426-20.106,17.618-19.992A99.875,99.875,0,0,1,1630.268,976.792Z" transform="translate(-1524.676 -965.633)" fill="#feac84"/>
          <path id="Path_5113" data-name="Path 5113" d="M1607.393,1362.483l-.249.569-5.988,13.655a1.854,1.854,0,0,0,.752,2.338l20.859,12.366a1.849,1.849,0,0,0,2.782-1.321,12.336,12.336,0,0,0-4.12-10.949,32.35,32.35,0,0,1-8.577-14.833Z" transform="translate(-1524.742 -1115.446)" fill="#5f4466"/>
          <path id="Path_5114" data-name="Path 5114" d="M1627.521,1351.788l-.25.569-5.987,13.655a1.852,1.852,0,0,0,.752,2.338l20.859,12.367a1.849,1.849,0,0,0,2.782-1.321,12.339,12.339,0,0,0-4.12-10.949,32.348,32.348,0,0,1-8.577-14.833Z" transform="translate(-1532.539 -1111.303)" fill="#5f4466"/>
          <path id="Path_5115" data-name="Path 5115" d="M1605.874,1181.517l-20.466,98.8-7.666-3.814,3.12-88.983c-12.584-1.056-43.27-1.052-60.535-5.691-12.057-3.239-14.61-.828-24.326-16.246l27.261-17.727,73.378,21.74,2.17.562A9.7,9.7,0,0,1,1605.874,1181.517Z" transform="translate(-1484.067 -1032.304)" fill="#6fa0b5"/>
          <path id="Path_5116" data-name="Path 5116" d="M1586.393,1190.489l-20.465,98.8-7.666-3.815,3.12-88.982c-12.585-1.057-43.27-1.052-60.535-5.691-12.058-3.24-22.27-1.348-24.325-16.246l27.26-17.726,73.378,21.739,2.17.562A9.7,9.7,0,0,1,1586.393,1190.489Z" transform="translate(-1476.521 -1035.78)" fill="#7dacc6"/>
          <path id="Path_5117" data-name="Path 5117" d="M1532.6,1017.859c-25.007,7.672-47.783,36.763-56.08,102.56l52.943-16.131s3.52-25.648,22.881-62.031c2.261-4.247,3.991-13.139,3.858-13.31C1554.969,1027.365,1546.128,1013.708,1532.6,1017.859Z" transform="translate(-1476.521 -981.643)" fill="#4e3654"/>
          <path id="Path_5118" data-name="Path 5118" d="M1545.5,1081.316s-2.172,45.447,2.175,50.384l10.391-3.537Z" transform="translate(-1503.034 -1006.527)" fill="#3d2a42"/>
          <path id="Path_5119" data-name="Path 5119" d="M1619.845,1041.031l2.026-3.61a5.254,5.254,0,0,1,4.334-2.685c4.771-.232,13.712-.322,13.977,2.242.363,3.5-11.48,3.986-12.443,7.247a29.4,29.4,0,0,1-1.285,3.866Z" transform="translate(-1532.042 -988.441)" fill="#e29779"/>
          <path id="Path_5120" data-name="Path 5120" d="M1573.583,1038.6l4.053,47.082,16.24-47.082,11.11,2.955-13.622,63.567a16.828,16.828,0,0,1-10.046,11.533h0a16.829,16.829,0,0,1-18.826-4.4l-.893-1a16.827,16.827,0,0,1-4.282-11.215l-4.51-59.132S1566.1,1014.284,1573.583,1038.6Z" transform="translate(-1506.073 -986.015)" fill="#4e3654"/>
          <path id="Path_5121" data-name="Path 5121" d="M1627.223,975.284l-19.529,1.268-.648,13.247s-.447-9.97-3.123-9.608-4.119,7.6-1.12,10.987l-3.115,3.725s-7.09-12.873-3.051-22.7,10.941-13.2,19.657-12.959,15.262,8.658,15.262,8.658l-1.525,8.243-1.922,1.549Z" transform="translate(-1522.57 -959.236)" fill="#4e3654"/>
        </g>
        <g id="Group_9133" data-name="Group 9133" transform="translate(627.651 640.144)">
          <path id="Path_5122" data-name="Path 5122" d="M2209.137,1317.385c28.11-80.982,124.486-98.384,124.486-98.384s-22.086,91.692-61.573,119.8H2205.79Z" transform="translate(-2205.79 -1219.001)" fill="#1b687a"/>
          <path id="Path_5123" data-name="Path 5123" d="M2242.571,1366.311s28.556-60.681,58.9-76.3c0,0-30.787,36.141-47.3,76.3Z" transform="translate(-2220.038 -1246.51)" fill="#155263"/>
          <path id="Path_5124" data-name="Path 5124" d="M2385.166,1359.539c35.472-38.818,18.071-87.006,18.071-87.006s-86.337,34.133-102.4,87.006Z" transform="translate(-2242.609 -1239.738)" fill="#d19b3b"/>
          <path id="Path_5125" data-name="Path 5125" d="M2358.374,1388.035l35.249-41.942-21.417,41.942Z" transform="translate(-2264.898 -1268.234)" fill="#bc7731"/>
        </g>
        <path id="Path_5126" data-name="Path 5126" d="M1643.782,630.9a5.736,5.736,0,0,1-3.808-1.664l-2.641-2.658,16.772-16.664-16.674-16.782,1.729-1.719a5.714,5.714,0,0,1,3.806-1.639,8.387,8.387,0,1,0-8.707-8.778,5.73,5.73,0,0,1-1.663,3.811l-1.729,1.718-16.656-16.762-16.786,16.68,1.4,1.411a5.707,5.707,0,0,0,3.826,1.629,8.427,8.427,0,0,1,6.693,12.924,8.4,8.4,0,0,1-13.026,1.364,8.263,8.263,0,0,1-2.436-5.575,5.869,5.869,0,0,0-1.634-3.807l-1.4-1.411-16.786,16.679,16.606,16.713a5.692,5.692,0,0,1-3.509,1.44,8.387,8.387,0,1,0,8.707,8.776,5.734,5.734,0,0,1,1.464-3.513l16.626,16.734,16.771-16.665,2.641,2.659a5.7,5.7,0,0,1,1.639,3.806,8.387,8.387,0,1,0,8.776-8.707Z" transform="translate(-1333.421 -327.356)" fill="#fff"/>
        <g id="Group_9134" data-name="Group 9134" transform="translate(264.816 35.817)">
          <path id="Path_5127" data-name="Path 5127" d="M1707.3,287.672V271.212h-13.11a33.766,33.766,0,0,0-4.089-9.84l9.286-9.286-11.634-11.634-9.286,9.286a34.491,34.491,0,0,0-9.839-4.089V232.539H1652.2V245.65a34.972,34.972,0,0,0-9.866,4.089l-9.26-9.286-11.633,11.634,9.259,9.286a34.437,34.437,0,0,0-4.062,9.84h-13.111v16.461h13.111a34.751,34.751,0,0,0,4.062,9.84l-9.259,9.259,11.633,11.633,9.26-9.259a34.9,34.9,0,0,0,9.866,4.062v13.111h16.435V313.208a34.417,34.417,0,0,0,9.839-4.062l9.286,9.259,11.634-11.633-9.286-9.259a34.068,34.068,0,0,0,4.089-9.84Zm-46.9,12.24a20.471,20.471,0,1,1,20.471-20.471A20.468,20.468,0,0,1,1660.4,299.913Z" transform="translate(-1613.524 -232.539)" fill="#414042"/>
        </g>
      </g>
    </g>
  </g>
</svg>
