<?xml version="1.0" encoding="utf-8"?>
<!-- Generator: Adobe Illustrator 24.2.1, SVG Export Plug-In . SVG Version: 6.00 Build 0)  -->
<svg version="1.1" id="Layer_1" xmlns="http://www.w3.org/2000/svg" xmlns:xlink="http://www.w3.org/1999/xlink" x="0px" y="0px"
	 viewBox="0 0 160 160" style="enable-background:new 0 0 160 160;" xml:space="preserve">
<style type="text/css">
	.st0{fill:url(#Path_350_1_);}
	.st1{fill:url(#Path_351_1_);}
	.st2{fill:url(#Path_352_1_);}
	.st3{fill:url(#Path_353_1_);}
	.st4{fill:url(#Path_354_1_);}
	.st5{fill:url(#Path_355_1_);}
	.st6{fill:url(#Path_356_1_);}
	.st7{fill:url(#Path_357_1_);}
</style>
<g id="Group_4688" transform="translate(-327.678 -129.236)">
	
		<linearGradient id="Path_350_1_" gradientUnits="userSpaceOnUse" x1="-539.9493" y1="747.3712" x2="-540.4894" y2="746.7532" gradientTransform="matrix(33.4513 0 0 -92.6397 18495.4082 69413.7422)">
		<stop  offset="0" style="stop-color:#5E4BDD"/>
		<stop  offset="1" style="stop-color:#256ADD"/>
	</linearGradient>
	<path id="Path_350" class="st0" d="M412.4,259.2c-0.9,0-1.6-0.7-1.6-1.6v-12.2c0-0.9,0.7-1.6,1.6-1.6h11.6c5.1,0,9.2-4.1,9.2-9.2
		v-1.3l-1.5-1.1c-0.2-0.1-0.3-0.3-0.4-0.5c-1.1-1.9-0.4-4.3,1.4-5.4l3.1-1.9v-3.6c0-1.7,1.4-3,3-3h1.2c0.5,0,1-0.4,1-1
		c0-0.2-0.1-0.4-0.2-0.5l-6.7-10.2c-0.2-0.3-0.3-0.8-0.2-1.2c2.7-15.1-5.8-29.9-20.2-35.3c-0.8-0.4-1.2-1.3-0.8-2.1
		c0.3-0.8,1.2-1.1,2-0.9c13.6,5.3,22.6,18.3,22.7,33c0,1.8-0.1,3.5-0.4,5.3l6.4,9.7c1.3,1.9,0.7,4.5-1.2,5.8
		c-0.7,0.4-1.5,0.7-2.3,0.7h-1v4.3c0,0.6-0.3,1.1-0.8,1.4l-3.8,2.3c-0.3,0.2-0.4,0.5-0.4,0.8l1.8,1.3c0.4,0.3,0.6,0.8,0.6,1.3v2.1
		c0,6.9-5.6,12.4-12.4,12.4h-10v10.6C414.1,258.5,413.3,259.2,412.4,259.2z"/>
	
		<linearGradient id="Path_351_1_" gradientUnits="userSpaceOnUse" x1="-543.7661" y1="747.5571" x2="-544.306" y2="746.939" gradientTransform="matrix(52.1473 0 0 -100.009 28775.2363 74935.1016)">
		<stop  offset="0" style="stop-color:#5E4BDD"/>
		<stop  offset="1" style="stop-color:#256ADD"/>
	</linearGradient>
	<path id="Path_351" class="st1" d="M403.5,259.2h-18.7c-0.9,0-1.6-0.7-1.6-1.6c0-0.9,0.7-1.6,1.6-1.6c0,0,0.1,0,0.1,0h17v-15.7
		c0-0.9,0.7-1.6,1.6-1.6h11.6c5.1,0,9.2-4.1,9.2-9.2v-1.3l-1.5-1.1c-0.2-0.1-0.3-0.3-0.4-0.5c-1.1-1.9-0.4-4.3,1.4-5.4l3.1-1.9v-3.6
		c0-1.7,1.4-3,3-3h1.2c0.5,0,1-0.4,1-1c0-0.2-0.1-0.4-0.2-0.5l-6.7-10.2c-0.2-0.3-0.3-0.8-0.2-1.2c3-17.4-8.7-34-26.1-36.9
		c-2.5-0.4-5.1-0.6-7.7-0.4c-0.9,0.1-1.7-0.6-1.7-1.5c-0.1-0.9,0.6-1.7,1.5-1.7c0,0,0,0,0.1,0c9.8-0.7,19.4,2.7,26.5,9.4
		c7.1,6.7,11.2,16,11.2,25.8c0,1.8-0.1,3.5-0.4,5.3l6.4,9.7c1.3,1.9,0.7,4.5-1.2,5.8c-0.7,0.4-1.5,0.7-2.3,0.7h-1v4.3
		c0,0.6-0.3,1.1-0.8,1.4l-3.8,2.3c-0.3,0.2-0.4,0.5-0.4,0.8l1.8,1.3c0.4,0.3,0.6,0.8,0.6,1.3v2.1c0,6.9-5.6,12.4-12.4,12.4h-10v15.7
		C405,258.5,404.3,259.2,403.5,259.2z"/>
	
		<linearGradient id="Path_352_1_" gradientUnits="userSpaceOnUse" x1="-529.0161" y1="670.8563" x2="-529.5561" y2="670.2383" gradientTransform="matrix(16.614 0 0 -3.214 9203.5879 2412.7944)">
		<stop  offset="0" style="stop-color:#5E4BDD"/>
		<stop  offset="1" style="stop-color:#256ADD"/>
	</linearGradient>
	<path id="Path_352" class="st2" d="M416.8,259.2h-13.4c-0.9,0-1.6-0.7-1.6-1.6c0-0.9,0.7-1.6,1.6-1.6c0,0,0.1,0,0.1,0h13.4
		c0.9,0,1.6,0.8,1.6,1.6C418.4,258.5,417.7,259.2,416.8,259.2z"/>
	
		<linearGradient id="Path_353_1_" gradientUnits="userSpaceOnUse" x1="-521.4474" y1="670.8566" x2="-521.9874" y2="670.2386" gradientTransform="matrix(12.2943 0 0 -3.214 6822.0244 2400.6409)">
		<stop  offset="0" style="stop-color:#5E4BDD"/>
		<stop  offset="1" style="stop-color:#256ADD"/>
	</linearGradient>
	<path id="Path_353" class="st3" d="M412.4,247.1h-9c-0.9,0-1.6-0.7-1.6-1.6c0-0.9,0.7-1.6,1.6-1.6c0,0,0.1,0,0.1,0h9
		c0.9,0,1.6,0.7,1.6,1.6C414.1,246.3,413.4,247.1,412.4,247.1C412.5,247.1,412.5,247.1,412.4,247.1z"/>
	
		<linearGradient id="Path_354_1_" gradientUnits="userSpaceOnUse" x1="-495.3881" y1="670.8563" x2="-495.9281" y2="670.2383" gradientTransform="matrix(6.487 0 0 -3.214 3617.0852 2395.4834)">
		<stop  offset="0" style="stop-color:#5E4BDD"/>
		<stop  offset="1" style="stop-color:#256ADD"/>
	</linearGradient>
	<path id="Path_354" class="st4" d="M403.4,241.9h-3.3c-0.9,0-1.6-0.7-1.6-1.6c0-0.9,0.7-1.6,1.6-1.6c0,0,0.1,0,0.1,0h3.3
		c0.9,0,1.6,0.8,1.6,1.6C405,241.2,404.3,241.9,403.4,241.9z"/>
	
		<linearGradient id="Path_355_1_" gradientUnits="userSpaceOnUse" x1="-539.952" y1="745.588" x2="-540.4921" y2="744.97" gradientTransform="matrix(33.467 0 0 -56.2 18476.5352 42077.2031)">
		<stop  offset="0" style="stop-color:#5E4BDD"/>
		<stop  offset="1" style="stop-color:#256ADD"/>
	</linearGradient>
	<path id="Path_355" class="st5" d="M392.5,224.6h-7.5c-0.9,0-1.6-0.7-1.6-1.6s0.7-1.6,1.6-1.6h7.3v-4.8c0-0.7,0.5-1.4,1.2-1.6
		c1.8-0.4,3.5-1.2,5-2.1c0.6-0.4,1.4-0.3,2,0.2l3.4,3.4l5-5l-3.4-3.4c-0.5-0.5-0.6-1.3-0.2-2c0.9-1.6,1.6-3.3,2.1-5
		c0.2-0.7,0.8-1.2,1.6-1.2h4.8v-7h-4.8c-0.7,0-1.4-0.5-1.6-1.2c-0.4-1.8-1.2-3.5-2.1-5c-0.4-0.6-0.3-1.4,0.2-2l3.4-3.4l-5-5
		l-3.4,3.4c-0.5,0.5-1.3,0.6-2,0.2c-1.6-0.9-3.3-1.6-5-2.1c-0.7-0.2-1.2-0.8-1.2-1.6v-4.8h-7.3c-0.9,0-1.6-0.7-1.6-1.6
		s0.7-1.6,1.6-1.6h7.5c1.6,0,3,1.3,3,3v3.8c1.2,0.4,2.4,0.9,3.6,1.5l2.7-2.7c1.2-1.1,3-1.1,4.2,0l5.3,5.3c1.2,1.2,1.2,3,0,4.2
		c0,0,0,0,0,0l-2.7,2.7c0.6,1.1,1.1,2.3,1.5,3.6h3.8c1.6,0,3,1.3,3,3v7.5c0,1.6-1.3,3-3,3H410c-0.4,1.2-0.9,2.4-1.5,3.6l2.7,2.7
		c1.2,1.2,1.2,3,0,4.2c0,0,0,0,0,0l-5.3,5.3c-1.2,1.2-3,1.2-4.2,0l-2.7-2.7c-1.1,0.6-2.3,1.1-3.6,1.5v3.8
		C395.4,223.3,394.1,224.6,392.5,224.6z"/>
	
		<linearGradient id="Path_356_1_" gradientUnits="userSpaceOnUse" x1="-533.4401" y1="737.5088" x2="-533.9801" y2="736.8907" gradientTransform="matrix(20.936 0 0 -20.3428 11562.8223 15192.8525)">
		<stop  offset="0" style="stop-color:#5E4BDD"/>
		<stop  offset="1" style="stop-color:#256ADD"/>
	</linearGradient>
	<path id="Path_356" class="st6" d="M392.6,205.8c-0.9,0-1.8-0.3-2.5-0.8l-0.8-0.6c-0.4-0.3-0.8-0.3-1.2,0l-0.8,0.6
		c-1.9,1.4-4.5,1-5.9-0.9c-0.8-1.1-1-2.5-0.6-3.8l0.3-0.9c0.1-0.4,0-0.9-0.4-1.1l-0.8-0.6c-1.9-1.4-2.3-4-0.9-5.9
		c0.8-1.1,2.1-1.7,3.4-1.7h1c0.4,0,0.8-0.3,1-0.7l0.3-0.9c0.7-2.2,3.1-3.4,5.3-2.7c1.3,0.4,2.3,1.4,2.7,2.7l0.3,0.9
		c0.1,0.4,0.5,0.7,1,0.7h1c2.3,0,4.2,1.9,4.2,4.2c0,1.4-0.6,2.6-1.7,3.4l-0.8,0.6c-0.4,0.3-0.5,0.7-0.4,1.1l0.3,0.9
		c0.6,1.7,0,3.7-1.5,4.7C394.3,205.5,393.4,205.8,392.6,205.8z M382.5,193.2c-0.6,0-1,0.5-1,1c0,0.3,0.2,0.6,0.4,0.8l0.8,0.6
		c1.5,1.1,2.1,3,1.5,4.7l-0.3,0.9c-0.2,0.5,0.1,1.1,0.6,1.3c0.3,0.1,0.7,0,0.9-0.1l0.8-0.6c1.5-1.1,3.5-1.1,5,0l0.8,0.6
		c0.5,0.3,1.1,0.2,1.4-0.2c0.2-0.3,0.2-0.6,0.1-0.9l-0.3-0.9c-0.6-1.7,0.1-3.7,1.5-4.7l0.8-0.6c0.5-0.3,0.6-1,0.2-1.4
		c-0.2-0.3-0.5-0.4-0.8-0.4h-1c-1.8,0-3.5-1.2-4-2.9l-0.3-0.9c-0.2-0.5-0.7-0.8-1.3-0.7c-0.3,0.1-0.6,0.3-0.7,0.7l-0.3,0.9
		c-0.6,1.7-2.2,2.9-4,2.9H382.5z"/>
	
		<linearGradient id="Path_357_1_" gradientUnits="userSpaceOnUse" x1="-540.4086" y1="742.8223" x2="-540.9486" y2="742.2043" gradientTransform="matrix(35.264 0 0 -35.264 19455.0195 26380.7266)">
		<stop  offset="0" style="stop-color:#5E4BDD"/>
		<stop  offset="1" style="stop-color:#256ADD"/>
	</linearGradient>
	<path id="Path_357" class="st7" d="M388.7,214.2c-9.7,0-17.6-7.9-17.6-17.6s7.9-17.6,17.6-17.6c9.7,0,17.6,7.9,17.6,17.6
		c0,0,0,0,0,0C406.3,206.3,398.4,214.1,388.7,214.2z M388.7,182.1c-8,0-14.4,6.5-14.4,14.4s6.5,14.4,14.4,14.4
		c8,0,14.4-6.5,14.4-14.4l0,0C403.1,188.6,396.7,182.1,388.7,182.1z"/>
</g>
</svg>
