<?xml version="1.0" encoding="utf-8"?>
<!-- Generator: Adobe Illustrator 24.1.2, SVG Export Plug-In . SVG Version: 6.00 Build 0)  -->
<svg version="1.1" id="Layer_1" xmlns="http://www.w3.org/2000/svg" xmlns:xlink="http://www.w3.org/1999/xlink" x="0px" y="0px"
	 viewBox="0 0 480 480" style="enable-background:new 0 0 480 480;" xml:space="preserve">
<style type="text/css">
	.st0{fill-rule:evenodd;clip-rule:evenodd;fill:#6D6AFD;}
	.st1{fill-rule:evenodd;clip-rule:evenodd;fill:url(#SVGID_1_);}
	.st2{fill-rule:evenodd;clip-rule:evenodd;fill:#FFFFFF;}
	.st3{fill-rule:evenodd;clip-rule:evenodd;fill:url(#SVGID_2_);}
	.st4{opacity:0.5;fill-rule:evenodd;clip-rule:evenodd;fill:url(#SVGID_3_);enable-background:new    ;}
	.st5{opacity:0.5;fill-rule:evenodd;clip-rule:evenodd;fill:url(#SVGID_4_);enable-background:new    ;}
	.st6{opacity:0.5;fill-rule:evenodd;clip-rule:evenodd;fill:url(#SVGID_5_);enable-background:new    ;}
	.st7{opacity:0.5;fill-rule:evenodd;clip-rule:evenodd;fill:url(#SVGID_6_);enable-background:new    ;}
	.st8{opacity:0.5;fill-rule:evenodd;clip-rule:evenodd;fill:#FFFFFF;enable-background:new    ;}
	.st9{opacity:0.5;fill-rule:evenodd;clip-rule:evenodd;fill:#9871D0;enable-background:new    ;}
	.st10{fill-rule:evenodd;clip-rule:evenodd;fill:#303A7D;}
	.st11{fill-rule:evenodd;clip-rule:evenodd;fill:#3E4992;}
	.st12{fill-rule:evenodd;clip-rule:evenodd;fill:url(#SVGID_7_);}
	.st13{fill-rule:evenodd;clip-rule:evenodd;fill:#F1A4FD;}
	.st14{fill-rule:evenodd;clip-rule:evenodd;fill:url(#SVGID_8_);}
	.st15{fill-rule:evenodd;clip-rule:evenodd;fill:#E23B93;}
	.st16{fill-rule:evenodd;clip-rule:evenodd;fill:#F2F4FF;}
	.st17{fill-rule:evenodd;clip-rule:evenodd;fill:#C5DBF1;}
	.st18{fill-rule:evenodd;clip-rule:evenodd;fill:#DCE8F8;}
	.st19{fill-rule:evenodd;clip-rule:evenodd;fill:url(#SVGID_9_);}
	.st20{fill-rule:evenodd;clip-rule:evenodd;fill:#FB84B6;}
	.st21{opacity:0.5;fill-rule:evenodd;clip-rule:evenodd;fill:url(#SVGID_10_);enable-background:new    ;}
	.st22{opacity:0.2;fill-rule:evenodd;clip-rule:evenodd;fill:#6D6AFD;enable-background:new    ;}
	.st23{fill-rule:evenodd;clip-rule:evenodd;fill:url(#SVGID_11_);}
	.st24{fill-rule:evenodd;clip-rule:evenodd;fill:url(#SVGID_12_);}
	.st25{fill-rule:evenodd;clip-rule:evenodd;fill:#FFDB59;}
	.st26{opacity:0.2;fill-rule:evenodd;clip-rule:evenodd;fill:url(#SVGID_13_);enable-background:new    ;}
	.st27{opacity:0.2;fill-rule:evenodd;clip-rule:evenodd;fill:url(#SVGID_14_);enable-background:new    ;}
	.st28{opacity:0.5;fill-rule:evenodd;clip-rule:evenodd;fill:url(#SVGID_15_);enable-background:new    ;}
	.st29{fill-rule:evenodd;clip-rule:evenodd;fill:url(#SVGID_16_);}
	.st30{opacity:0.2;fill-rule:evenodd;clip-rule:evenodd;fill:#FFFFFF;enable-background:new    ;}
	.st31{fill-rule:evenodd;clip-rule:evenodd;fill:#FFA495;}
	.st32{fill-rule:evenodd;clip-rule:evenodd;fill:#193161;}
	.st33{fill-rule:evenodd;clip-rule:evenodd;fill:url(#SVGID_17_);}
	.st34{opacity:0.35;fill-rule:evenodd;clip-rule:evenodd;fill:#17ACC8;enable-background:new    ;}
	.st35{fill-rule:evenodd;clip-rule:evenodd;fill:url(#SVGID_18_);}
	.st36{fill-rule:evenodd;clip-rule:evenodd;fill:url(#SVGID_19_);}
	.st37{opacity:0.3;fill-rule:evenodd;clip-rule:evenodd;fill:#1E2353;enable-background:new    ;}
	.st38{fill-rule:evenodd;clip-rule:evenodd;fill:url(#SVGID_20_);}
	.st39{fill-rule:evenodd;clip-rule:evenodd;fill:url(#SVGID_21_);}
	.st40{fill-rule:evenodd;clip-rule:evenodd;fill:url(#SVGID_22_);}
	.st41{fill-rule:evenodd;clip-rule:evenodd;fill:#E7A376;}
	.st42{fill-rule:evenodd;clip-rule:evenodd;fill:url(#SVGID_23_);}
	.st43{fill-rule:evenodd;clip-rule:evenodd;fill:url(#SVGID_24_);}
	.st44{fill-rule:evenodd;clip-rule:evenodd;fill:#FFA698;}
	.st45{fill-rule:evenodd;clip-rule:evenodd;fill:#FFB49C;}
	.st46{fill-rule:evenodd;clip-rule:evenodd;fill:url(#SVGID_25_);}
	.st47{fill-rule:evenodd;clip-rule:evenodd;fill:url(#SVGID_26_);}
	.st48{fill-rule:evenodd;clip-rule:evenodd;fill:#6AD2A9;}
	.st49{fill-rule:evenodd;clip-rule:evenodd;fill:url(#SVGID_27_);}
	.st50{fill-rule:evenodd;clip-rule:evenodd;fill:url(#SVGID_28_);}
	.st51{fill-rule:evenodd;clip-rule:evenodd;fill:url(#SVGID_29_);}
	.st52{fill-rule:evenodd;clip-rule:evenodd;fill:#F0B186;}
	.st53{fill-rule:evenodd;clip-rule:evenodd;fill:url(#SVGID_30_);}
	.st54{fill-rule:evenodd;clip-rule:evenodd;fill:#D03286;}
	.st55{fill-rule:evenodd;clip-rule:evenodd;fill:#F1920E;}
	.st56{fill-rule:evenodd;clip-rule:evenodd;fill:url(#SVGID_31_);}
	.st57{fill-rule:evenodd;clip-rule:evenodd;fill:#FFD463;}
	.st58{fill-rule:evenodd;clip-rule:evenodd;fill:#FFC426;}
	.st59{fill-rule:evenodd;clip-rule:evenodd;fill:#F964B1;}
	.st60{fill-rule:evenodd;clip-rule:evenodd;fill:#FB85B6;}
	.st61{fill-rule:evenodd;clip-rule:evenodd;fill:url(#SVGID_32_);}
	.st62{fill-rule:evenodd;clip-rule:evenodd;fill:url(#SVGID_33_);}
	.st63{fill-rule:evenodd;clip-rule:evenodd;fill:url(#SVGID_34_);}
	.st64{fill-rule:evenodd;clip-rule:evenodd;fill:#21389B;}
	.st65{fill-rule:evenodd;clip-rule:evenodd;fill:url(#SVGID_35_);}
	.st66{fill-rule:evenodd;clip-rule:evenodd;fill:url(#SVGID_36_);}
	.st67{fill-rule:evenodd;clip-rule:evenodd;fill:url(#SVGID_37_);}
	.st68{opacity:0.35;fill-rule:evenodd;clip-rule:evenodd;fill:#6266D7;enable-background:new    ;}
	.st69{fill-rule:evenodd;clip-rule:evenodd;fill:#16193B;}
	.st70{fill-rule:evenodd;clip-rule:evenodd;fill:url(#SVGID_38_);}
	.st71{fill-rule:evenodd;clip-rule:evenodd;fill:url(#SVGID_39_);}
	.st72{fill-rule:evenodd;clip-rule:evenodd;fill:url(#SVGID_40_);}
	.st73{fill-rule:evenodd;clip-rule:evenodd;fill:#9789E9;}
	.st74{fill-rule:evenodd;clip-rule:evenodd;fill:url(#SVGID_41_);}
	.st75{fill-rule:evenodd;clip-rule:evenodd;fill:url(#SVGID_42_);}
	.st76{fill-rule:evenodd;clip-rule:evenodd;fill:url(#SVGID_43_);}
	.st77{fill-rule:evenodd;clip-rule:evenodd;fill:url(#SVGID_44_);}
	.st78{fill-rule:evenodd;clip-rule:evenodd;fill:#562E65;}
	.st79{fill-rule:evenodd;clip-rule:evenodd;fill:url(#SVGID_45_);}
</style>
<g>
	<g id="Layer_1_1_">
		<path class="st0" d="M409.7,96.3c2.6,1.5,4.8,3.6,6.4,6.1c0-0.5,0,1.2,0-1.3s-1.5-6.8,0.6-9c1.8-1.2,3.7-2.1,5.7-2.7
			c2.1-0.5,4.3-0.1,6.2,1.1c3.8,2.4,6.9,5.8,8.8,9.9c2.1,4.5,3.3,9.4,3.7,14.4c0,2.7,0,0.9,0,1.3c1.9-0.6,3.6-0.6,6.6,1.1
			c3.8,2.5,6.9,6,9,10.1c2.4,4.5,3.6,9.5,3.8,14.6c0.2,3.2-0.7,6.3-2.3,9c-1.7,2-3.9,3.4-6.4,4c-5.9,2-17.2-9.9-23.2-13.2L409.5,131
			c-3.8-2.4-6.8-5.9-8.7-10c-2.2-4.4-3.4-9.3-3.5-14.3c0-2.8-2-7,0.6-9C402,94.7,406.4,94.5,409.7,96.3z"/>
		
			<linearGradient id="SVGID_1_" gradientUnits="userSpaceOnUse" x1="425.0754" y1="352.9389" x2="435.2003" y2="374.8292" gradientTransform="matrix(1 0 0 -1 0 479.8898)">
			<stop  offset="0" style="stop-color:#6D6AFE"/>
			<stop  offset="1" style="stop-color:#3FB0F7"/>
		</linearGradient>
		<path class="st1" d="M406.4,97.8c2.6,1.5,4.8,3.6,6.4,6.1c0-0.5,0,1.2,0-1.3s1.4-8.3,3.7-10.2c2.3-1.9,5.4-2.2,8.8-0.3
			c3.8,2.4,6.9,5.8,8.8,9.9c2.1,4.5,3.3,9.4,3.7,14.4c0,2.7,0,0.9,0,1.3c1.9-0.6,3.6-0.6,6.6,1.1c3.8,2.5,6.9,6,9,10.1
			c2.4,4.5,3.7,9.5,3.8,14.6c0,4.9-1.4,8.6-3.7,10.5s-5.5,2.1-9,0.1l-19.2-10.9l-18.9-10.7c-3.8-2.4-6.8-5.9-8.7-10
			c-2.2-4.4-3.4-9.3-3.5-14.3c0-4.8,1.4-8.3,3.7-10.2C399.9,96.2,403.5,96.2,406.4,97.8z"/>
		<polygon class="st2" points="413,121.4 407.1,118 416.3,134 425.7,128.7 419.8,125.3 419.8,110.2 413,106.3 		"/>
		<polygon class="st2" points="433.3,127.9 439.2,131.3 430,115.3 420.7,120.6 426.6,124 426.5,139.1 433.3,143 		"/>
		
			<linearGradient id="SVGID_2_" gradientUnits="userSpaceOnUse" x1="74.3537" y1="366.9009" x2="76.0613" y2="341.3533" gradientTransform="matrix(1 0 0 -1 0 479.8898)">
			<stop  offset="0" style="stop-color:#965CF2"/>
			<stop  offset="1" style="stop-color:#FF8ADC"/>
		</linearGradient>
		<path class="st3" d="M76,137c-7-4-13.1-13.6-13.6-21.3c-0.5-7.7,4.7-10.8,11.7-6.7c7,4,13.1,13.6,13.6,21.3
			C88.2,138.1,83,141.1,76,137z"/>
		<polygon class="st2" points="79.4,117.6 81.3,118.5 73,131 65.8,120.2 68.2,121.2 72,124.8 		"/>
		
			<linearGradient id="SVGID_3_" gradientUnits="userSpaceOnUse" x1="-36.4938" y1="422.7825" x2="-36.5341" y2="407.0505" gradientTransform="matrix(1 0 0 -1 0 479.8898)">
			<stop  offset="0" style="stop-color:#6D6AFE"/>
			<stop  offset="1" style="stop-color:#3FB0F7"/>
		</linearGradient>
		<path class="st4" d="M-36.5,54.4c6.5,0,11.7,5.2,11.7,11.7c0,6.5-5.2,11.7-11.7,11.7s-11.7-5.2-11.7-11.7l0,0
			C-48.2,59.6-43,54.4-36.5,54.4z"/>
		
			<linearGradient id="SVGID_4_" gradientUnits="userSpaceOnUse" x1="132.6325" y1="50.0524" x2="94.5665" y2="79.7818" gradientTransform="matrix(1 0 0 -1 0 479.8898)">
			<stop  offset="0" style="stop-color:#965CF2"/>
			<stop  offset="1" style="stop-color:#FF8ADC"/>
		</linearGradient>
		<path class="st5" d="M118.2,384.9c18.6,0,33.7,15.1,33.7,33.7c0,18.6-15.1,33.7-33.7,33.7c-18.6,0-33.7-15.1-33.7-33.7
			C84.5,400,99.6,384.9,118.2,384.9C118.2,384.9,118.2,384.9,118.2,384.9z M118.2,393.9c-13.7,0-24.7,11.1-24.7,24.7
			s11.1,24.7,24.7,24.7c13.7,0,24.7-11.1,24.7-24.7l0,0C143,404.9,131.9,393.9,118.2,393.9C118.3,393.9,118.2,393.9,118.2,393.9z"/>
		
			<linearGradient id="SVGID_5_" gradientUnits="userSpaceOnUse" x1="-53.361" y1="152.4184" x2="-41.0578" y2="137.3856" gradientTransform="matrix(1 0 0 -1 0 479.8898)">
			<stop  offset="0" style="stop-color:#1C8EF4"/>
			<stop  offset="1" style="stop-color:#00CFDD"/>
		</linearGradient>
		<path class="st6" d="M-44.9,317.7c11.1,0,20.1,9,20.1,20.1c0,11.1-9,20.1-20.1,20.1s-20.1-9-20.1-20.1S-56,317.7-44.9,317.7
			C-44.9,317.7-44.9,317.7-44.9,317.7z M-44.9,323.1c-8.2,0-14.8,6.6-14.8,14.8c0,8.2,6.6,14.8,14.8,14.8s14.8-6.6,14.8-14.8
			c0.1-8.1-6.5-14.8-14.6-14.8C-44.8,323-44.9,323-44.9,323.1L-44.9,323.1z"/>
		
			<linearGradient id="SVGID_6_" gradientUnits="userSpaceOnUse" x1="511.3006" y1="271.2216" x2="521.6541" y2="238.0903" gradientTransform="matrix(1 0 0 -1 0 479.8898)">
			<stop  offset="0" style="stop-color:#6D6AFE"/>
			<stop  offset="1" style="stop-color:#3FB0F7"/>
		</linearGradient>
		<path class="st7" d="M529.1,221.3l-7.9-4.3c-1.4-0.9-2.4-2.2-2.9-3.7l-3-9.6c-0.5-1.6-1.5-2.9-2.9-3.7c-1.2-0.6-2.3-0.6-2.6,0.7
			l-1.8,6.9c-0.3,1.1-1.3,1.3-2.7,0.7l-7.9-4.4c-2.8-1.6-3.7,1.8-1.3,4.9l6.7,8.6c1,1.1,1.5,2.7,1.3,4.2l-1.8,6.8
			c-0.5,1.9,1.3,4.8,3.1,5.8c0.5,0.3,1.1,0.4,1.7,0.3l6-1.6c0.6-0.1,1.2,0,1.7,0.3c0.7,0.4,1.3,0.9,1.8,1.6l6.7,8.6
			c0.5,0.6,1.1,1.2,1.7,1.6c1.8,1,3.3-0.1,2.5-2.7l-3-9.5c-0.5-1.6-0.2-2.8,0.8-3l6-1.5C533.4,227.5,532,222.8,529.1,221.3z"/>
		<path class="st8" d="M433.7,328.7c-9.6-5.5-17.3-18.9-17.3-29.9c0-11,7.9-15.5,17.4-9.9c9.6,5.6,17.3,18.9,17.3,29.9
			C451.1,329.8,443.3,334.2,433.7,328.7L433.7,328.7z M433.7,333.3c11.8,6.8,21.4,1.3,21.4-12.2c0-13.6-9.5-30.1-21.3-36.9
			c-11.8-6.8-21.4-1.3-21.4,12.2C412.4,310,422,326.5,433.7,333.3z"/>
		<path class="st9" d="M377,400.6l-122.4-69.9c-4.5-2.1-11.2-4-15.7-1.3l-11.4,7c-2.3,1.3-9.8,6-4.8,8.8
			c14.8,8.1,109.7,63.5,124.8,71.7c3.6,1.6,7.5,2.2,11.4,1.7c4.3-0.3,8.6-1.5,12.4-3.7l4.5-2.8c3.2-2,5-4.2,5.2-6.2
			S379.8,401.8,377,400.6z"/>
		<path class="st10" d="M373.8,392.6c0,6-2.2,10.2-5.5,12.1l-5.4,3.2c-18.5-7.9-11.6-101.6-12.8-128.3l5.7-139.8
			c-4.8-8.3-23.1-15.6-18.8-32.7l-54.2-25.4c-2.4-1.6-65.7-38.3-54.3-45.1c1.9-1.2,3.8-2.3,5.6-3.4c4.2-2.5,9.5-0.9,13.4,1.3l0,0
			l107.9,61.9c10.6,6.1,18.8,20.9,18.8,32.7L373.8,392.6z"/>
		<path class="st11" d="M222.9,48.8c0-5.8,2-10,5.4-12c3.3-2,8.3-1.9,13.7,1.2l107.9,61.9c10.4,6,18.9,20.7,18.8,32.7L368.2,396
			c0,12-8.5,16.8-19,10.8l-107.9-61.9c-10.5-6-18.9-20.7-18.8-32.7L222.9,48.8z"/>
		
			<linearGradient id="SVGID_7_" gradientUnits="userSpaceOnUse" x1="315.701" y1="156.5595" x2="258.3533" y2="443.2575" gradientTransform="matrix(1 0 0 -1 0 479.8898)">
			<stop  offset="0" style="stop-color:#965CF2"/>
			<stop  offset="1" style="stop-color:#FF8ADC"/>
		</linearGradient>
		<path class="st12" d="M228.7,60.1c0-11,7.9-15.5,17.5-10l99.3,57c9.6,5.6,17.4,19,17.4,30.1l-0.4,247.5c0,11-7.9,15.5-17.5,10
			l-99.3-56.9c-9.6-5.6-17.4-19-17.3-30.1L228.7,60.1z"/>
		<path class="st13" d="M292.8,172.4c-7.6-4.4-13.7-15-13.7-23.7c0-8.7,6.2-12.2,13.8-7.9c7.6,4.4,13.7,15,13.7,23.7
			C306.6,173.3,300.4,176.8,292.8,172.4z M292.8,176.1c9.3,5.4,17,1.1,17-9.7c0-10.7-7.5-23.8-16.9-29.2c-9.3-5.4-16.9-1.1-17,9.7
			C275.9,157.6,283.5,170.7,292.8,176.1L292.8,176.1z"/>
		<path class="st2" d="M281.4,181.5c0-1,0.7-1.3,1.6-0.9l19.8,11.2c0.9,0.6,1.5,1.6,1.6,2.8v2c0,1-0.7,1.3-1.6,0.9L283,186.3
			c-0.9-0.6-1.5-1.6-1.6-2.8V181.5z"/>
		<path class="st8" d="M271,184.8c0-0.9,0.6-1.2,1.3-0.8c11.2,6.3,29.6,16.7,40.8,23c0.8,0.6,1.3,1.5,1.3,2.4v1.7
			c0,0.9-0.6,1.2-1.4,0.8c-11.2-6.3-29.6-16.7-40.8-23c-0.8-0.6-1.3-1.4-1.3-2.4L271,184.8z"/>
		
			<linearGradient id="SVGID_8_" gradientUnits="userSpaceOnUse" x1="384.3385" y1="347.7285" x2="351.0056" y2="387.5693" gradientTransform="matrix(1 0 0 -1 0 479.8898)">
			<stop  offset="0" style="stop-color:#FA5DB1"/>
			<stop  offset="1" style="stop-color:#FEBFBF"/>
		</linearGradient>
		<path class="st14" d="M396.8,171.4l-58.7-34.1l13.6-64.6l0,0l0,0l0,0l0,0l0,0l0,0l0,0l0,0l0,0l0,0l0,0l0,0l0,0l0,0l0,0l0,0l0,0
			l0,0l0,0l0,0l0,0l0,0l0,0l0,0l0,0l0,0l0,0l0,0l0,0l0,0l0,0l0,0l0,0l0,0l0,0l0,0l0,0l0,0l0,0l0,0l0,0l0,0l0,0l0,0l0,0l0,0l0,0l0,0
			l0,0l0,0l0,0l0,0l0,0l0,0l0,0l0,0h0.2c0.3-0.1,0.6-0.1,0.9,0l59.4,32.6C410.2,104.1,402.4,152.3,396.8,171.4z"/>
		<path class="st15" d="M351.7,72.6c24.6,28.2,54,45.7,51.2,70.2l-6.1,28.6l-58.7-34.1L351.7,72.6z"/>
		<polygon class="st16" points="396,99.2 394.7,164.8 333.1,129.3 333.3,64.3 		"/>
		<polygon class="st17" points="394.8,99.8 396.1,99 396,164.1 394.7,164.8 		"/>
		<polygon class="st18" points="333.3,64.3 334.6,63.5 396.1,99 394.8,99.8 		"/>
		<path class="st17" d="M392.5,150.7v4.1L335.6,122v-4.1L392.5,150.7L392.5,150.7z M392.6,103.6v4.1l-57-32.9v-4L392.6,103.6
			L392.6,103.6z M392.6,110.3l-57-32.9v4l57,32.9L392.6,110.3L392.6,110.3z M392.6,117l-57-32.9v4.1l56.9,32.9L392.6,117L392.6,117z
			 M392.6,123.8l-57-32.8V95l57,32.9L392.6,123.8L392.6,123.8z M392.6,130.5l-57-32.8v4l57,32.9L392.6,130.5L392.6,130.5z
			 M392.6,137.2l-57-32.8v4l57,32.9L392.6,137.2L392.6,137.2z M392.6,143.9l-57-32.8v4l57,32.9L392.6,143.9z"/>
		
			<linearGradient id="SVGID_9_" gradientUnits="userSpaceOnUse" x1="388.9728" y1="325.1601" x2="322.6969" y2="375.0183" gradientTransform="matrix(1 0 0 -1 0 479.8898)">
			<stop  offset="0" style="stop-color:#FA5DB1"/>
			<stop  offset="1" style="stop-color:#FEBFBF"/>
		</linearGradient>
		<path class="st19" d="M380.9,124.4l14,49.2l0,0c0.2,0.6,0.5,1.1,0.9,1.6L337.1,141c-0.5-0.4-0.8-1-0.9-1.6l-14-49.2l0,0l-2.6-9.2
			c-0.1-0.6,0.1-1.2,0.5-1.7c2.4,2.2,15.4,10.2,17.9,11.7c4,3.1,4.2,7,10.2,13.4c0.8,1,1.9,1.8,3,2.4L380.9,124.4z"/>
		<path class="st15" d="M381.7,122.5c0.1-0.1,0.2-0.2,0.3-0.2c0.5-0.3,0.9-0.1,1,0.3l13.8,48.8l13.6-64.6c0.1-0.6,0.5-1.1,1-1.5
			c0.1,0,0.2-0.1,0.3-0.1c0.6-0.1,0.9,0.3,0.7,1.1l-13.6,65.1c-0.2,0.9-0.4,1.7-0.8,2.6c-0.2,0.5-0.6,0.9-1.1,1.2
			c-0.3,0.2-0.8,0.2-1.1,0c-0.4-0.4-0.7-0.9-0.8-1.5l-14-49.2C380.9,123.7,381.1,123,381.7,122.5z"/>
		<path class="st20" d="M353.1,105l29.6,17.2c-0.8-0.4-1.9,1.3-1.7,2.2L351,107c-0.9-0.5-1.7-1-2.5-1.6c-4.2-3.4-6.3-8-9-11.7
			c-0.7-0.9-1.5-1.7-2.4-2.4l-1-0.6l-16.5-9.7c0-0.6,0.1-1.2,0.5-1.7c0.3-0.3,0.8-0.7,1.2-0.5l16.5,9.7l1,0.6
			c0.9,0.7,1.7,1.5,2.4,2.4c2.9,3.9,5,8.4,9.8,12.1C351.7,104.2,352.4,104.6,353.1,105z"/>
		
			<linearGradient id="SVGID_10_" gradientUnits="userSpaceOnUse" x1="242.1267" y1="289.5181" x2="261.3143" y2="402.1696" gradientTransform="matrix(1 0 0 -1 0 479.8898)">
			<stop  offset="0" style="stop-color:#965CF2"/>
			<stop  offset="1" style="stop-color:#FF8ADC"/>
		</linearGradient>
		<path class="st21" d="M226.2,74.8c13.7,8,27.4,16,41.1,23.8c2.9,1.9,4.8,5.1,4.9,8.6l0.1,114.9c0,3.1-2.2,4.4-5,2.8
			c-14.8-8.5-29.7-17.2-44.5-25.8v-11.8L226.2,74.8z"/>
		<path class="st16" d="M175.8,48.6l2.3-1.2c1-0.3,2.1-0.1,2.9,0.5c27.3,15.6,54.5,31.8,81.7,47.5c2.7,1.8,4.5,4.8,4.6,8.1
			l0.1,107.9c0.1,1.1-0.3,2.1-1.2,2.9c-0.9,0.6-2.6,2-4,1.2c-27.3-15.6-53.9-33.2-81.2-48.8c-2.8-1.8-4.5-4.8-4.6-8.1L175.8,48.6z"
			/>
		<path class="st2" d="M174.4,51.6c0-3,2.1-4.2,4.7-2.7c27.3,15.6,54.5,31.8,81.7,47.5c2.7,1.8,4.5,4.8,4.6,8.1l0.1,107.9
			c0,3-2.1,4.2-4.7,2.7c-27.3-15.6-54.5-31.8-81.7-47.5c-2.8-1.8-4.5-4.8-4.6-8.1L174.4,51.6z"/>
		<path class="st22" d="M186.5,66.3c3.7,1,7,5.4,7.4,9.8c0.4,4.4-2.3,7.2-6,6.3s-7-5.4-7.4-9.8S182.8,65.3,186.5,66.3z"/>
		
			<linearGradient id="SVGID_11_" gradientUnits="userSpaceOnUse" x1="187.1687" y1="401.9808" x2="187.3435" y2="410.2233" gradientTransform="matrix(1 0 0 -1 0 479.8898)">
			<stop  offset="0" style="stop-color:#6D6AFE"/>
			<stop  offset="1" style="stop-color:#3FB0F7"/>
		</linearGradient>
		<path class="st23" d="M186.9,70c2.3,0.8,3.8,2.9,4,5.3c0.2,2.4-1.2,3.9-3.2,3.4c-2.3-0.8-3.8-2.9-4-5.3
			C183.4,70.9,184.8,69.4,186.9,70z"/>
		<path class="st22" d="M196,75.2c0-0.9,0.7-1.3,1.5-0.8l24.8,14.1c0.9,0.6,1.4,1.5,1.5,2.6v1.9c0,0.9-0.7,1.3-1.5,0.8l-24.8-14.1
			c-0.9-0.6-1.4-1.5-1.5-2.6L196,75.2z"/>
		<path class="st22" d="M196,82c0-0.6,0.4-0.8,0.9-0.5l14.7,8.3c0.5,0.3,0.8,0.9,0.9,1.5v1.1c0,0.6-0.4,0.8-0.9,0.5l-14.7-8.3
			c-0.5-0.3-0.8-0.9-0.9-1.5L196,82z"/>
		
			<linearGradient id="SVGID_12_" gradientUnits="userSpaceOnUse" x1="224.4019" y1="346.5719" x2="211.7895" y2="326.6447" gradientTransform="matrix(1 0 0 -1 0 479.8898)">
			<stop  offset="0" style="stop-color:#FF66BC"/>
			<stop  offset="0.56" style="stop-color:#FF8ADC"/>
			<stop  offset="1" style="stop-color:#FFBBA8"/>
		</linearGradient>
		<polygon class="st24" points="188.8,144.9 204.6,118.8 212.6,147.8 220.7,137.9 230.8,169 		"/>
		<path class="st25" d="M217.6,120.6c2.4,0.9,4.1,3.1,4.3,5.7c0.2,2.6-1.3,4.3-3.5,3.7c-2.4-0.9-4.1-3.1-4.3-5.7
			C213.8,121.8,215.4,120.1,217.6,120.6z"/>
		
			<linearGradient id="SVGID_13_" gradientUnits="userSpaceOnUse" x1="226.1657" y1="343.4684" x2="191.9454" y2="337.068" gradientTransform="matrix(1 0 0 -1 0 479.8898)">
			<stop  offset="0" style="stop-color:#FF66BC"/>
			<stop  offset="0.56" style="stop-color:#FF8ADC"/>
			<stop  offset="1" style="stop-color:#FFBBA8"/>
		</linearGradient>
		<path class="st26" d="M180.1,100.2c0-3.9,2.8-5.5,6.2-3.5l50.8,28.8c3.6,2.4,5.9,6.3,6.2,10.7l-0.1,41.9c0,3.9-2.8,5.5-6.2,3.5
			l-50.8-28.8c-3.7-2.4-6-6.4-6.2-10.8L180.1,100.2z"/>
		
			<linearGradient id="SVGID_14_" gradientUnits="userSpaceOnUse" x1="263.8808" y1="260.4658" x2="255.84" y2="346.6016" gradientTransform="matrix(1 0 0 -1 0 479.8898)">
			<stop  offset="0" style="stop-color:#6D6AFE"/>
			<stop  offset="1" style="stop-color:#3FB0F7"/>
		</linearGradient>
		<path class="st27" d="M251.4,140.5c0-3.9,2.8-5.5,6.2-3.5l8.1,4.6l0,56.2l-8.2-4.6c-3.7-2.4-6-6.4-6.2-10.8L251.4,140.5z"/>
		
			<linearGradient id="SVGID_15_" gradientUnits="userSpaceOnUse" x1="270.61" y1="187.356" x2="237.1964" y2="271.0716" gradientTransform="matrix(1 0 0 -1 0 479.8898)">
			<stop  offset="0" style="stop-color:#965CF2"/>
			<stop  offset="1" style="stop-color:#FF8ADC"/>
		</linearGradient>
		<path class="st28" d="M222.8,213.8l69.4,37.1c6.2,3.6,9.4,14.5,9.3,21.6l-0.3,35.9c0,7.2-5.1,10.1-11.3,6.5l-67.4-39.2
			L222.8,213.8z"/>
		<path class="st16" d="M201.9,209.4c0-2.4-0.8-3.9,0.2-5.2c1.1-1,2.5-1.7,3.9-2.2c2.3-0.6,4.8-0.2,6.8,1.2l74.7,43.5
			c6,3.5,10.9,11.9,10.9,18.8l-0.3,34.7c0,2.1-0.5,4.9-2.1,6.4c-1.3,1.2-3,2-4.7,2.3c-1.6,0.1-2.2-1.3-4-2.4l-74.7-43.5
			c-6-3.5-10.9-11.9-10.9-18.8L201.9,209.4z"/>
		
			<linearGradient id="SVGID_16_" gradientUnits="userSpaceOnUse" x1="255.266" y1="232.1148" x2="241.9678" y2="216.961" gradientTransform="matrix(1 0 0 -1 0 479.8898)">
			<stop  offset="0" style="stop-color:#1C8EF4"/>
			<stop  offset="1" style="stop-color:#00CFDD"/>
		</linearGradient>
		<path class="st29" d="M200.1,210.4c0-6.9,4.9-9.7,10.9-6.2l74.7,43.5c6,3.5,10.9,11.9,10.9,18.8l-0.3,34.7c0,6.9-4.9,9.7-10.9,6.2
			l-74.7-43.5c-6-3.5-10.9-11.9-10.9-18.8L200.1,210.4z"/>
		<path class="st30" d="M216.2,224.7c7.3,1.9,13.8,10.5,14.5,19.3c0.8,8.7-4.5,14.2-11.8,12.3c-7.3-1.9-13.7-10.5-14.5-19.3
			C203.5,228.3,208.9,222.8,216.2,224.7z"/>
		<path class="st2" d="M216.8,232c3.9,1,7.4,5.7,7.8,10.4c0.4,4.7-2.4,7.7-6.4,6.6c-3.9-1-7.4-5.7-7.8-10.4
			C210,233.9,212.9,230.9,216.8,232L216.8,232z M217.1,236c-2.1-0.6-3.6,1-3.4,3.5c0.2,2.5,1.8,4.6,4.2,5.5c2.1,0.6,3.6-1,3.4-3.5
			C221.1,239,219.5,236.8,217.1,236L217.1,236z"/>
		<path class="st30" d="M234.7,242.2c0-1.8,1.3-2.6,2.9-1.6l48.7,27.6c1.7,1.1,2.8,3,2.9,5.1v3.6c0,1.8-1.3,2.6-2.9,1.6l-48.7-27.6
			c-1.7-1.1-2.8-3-2.9-5.1L234.7,242.2z"/>
		<path class="st30" d="M234.7,255.6c0-1.1,0.8-1.5,1.7-1l28.7,16.3c1,0.7,1.6,1.8,1.7,3v2.2c0,1.1-0.8,1.5-1.7,0.9l-28.7-16.3
			c-1-0.7-1.6-1.8-1.7-3V255.6z"/>
		<path class="st9" d="M380.7,457.6L339,433.8c-4.5-2.1-11.1-3.7-15.7-1.3c-4.2,2.2-11.2,6.7-14.2,8.4c-2.3,1.3-10.4,6.2-5.4,8.9
			c14.8,8.1,29.6,17.2,44.6,25.4c3.6,1.6,7.5,2.2,11.4,1.7c4.3-0.3,8.6-1.6,12.4-3.7l7.4-4.3c3.3-1.9,5-4.2,5.2-6.2
			C384.8,460.6,383.5,458.8,380.7,457.6z"/>
		<path class="st2" d="M365.2,455.1c-0.9,0-4.1-3-7.2-1.5c-3.6,1.8-10.5,0.2-14,1c-0.6,0.1-1.8-0.3-2.1,0.1
			c-0.7,1.3-1.5,3.3,0.4,4.6c1.9,1.2,4,2.2,6.1,2.9c2.5,0.9,5.1,1.7,7.8,2.2c2.6,0.4,3.7,0.6,4.7,1.3c1.1,0.6,2.3,0.9,3.6,0.9
			c2-0.3,3.7-1.4,4.6-3.2c0.3-1.7,0.3-3.4,0-5.1c-0.4-1.5-0.9-3-1.6-4.4L365.2,455.1z"/>
		<path class="st31" d="M357.8,448.6c1.1,2.7,0.8,7,3.5,8.5c1.9,1.2,4.4,0.7,5.6-1.2c0.1-0.2,0.2-0.4,0.3-0.6c0.7-1.6-0.2-4.3,0-7.7
			L357.8,448.6z"/>
		<path class="st32" d="M357.1,452.9c-2.1,0.6-7.8,0.2-11.5,0.5c-1.6,0.1-3,0.1-3.7,1.5c-0.7,1.4-0.3,2.4,1.2,3.5
			c1.7,1.1,3.6,2,5.6,2.7c2.5,0.9,5.1,1.7,7.8,2.2c2.6,0.4,3.7,0.6,4.7,1.3c1.1,0.6,2.3,0.9,3.6,0.9c1.9-0.4,3.6-1.6,4.5-3.3
			c0.3-1.6,0.3-3.3,0-4.9c0-0.3-0.2-0.7-0.3-1c-0.3-2.7-1.2-3.8-2-3.4c-1,0.6-1.7,1.6-2,2.7c-0.3,0.7-0.9,1.3-1.6,1.5
			c-1.4,0.3-2.8-0.3-3.5-1.5c-0.4-0.9-0.8-1.8-1-2.8v-0.3c-0.3-2.4-1.4-2.2-1.3-1.7C357.8,451.6,357.6,452.3,357.1,452.9z"/>
		<path class="st2" d="M342.6,454.5c0,0.9-1.3,1-1,2.7c-0.7-0.7,0.3-2.6,0.7-2.9C342.5,454.1,342.7,454.1,342.6,454.5z"/>
		<path class="st2" d="M341.5,445.6c-0.9-0.3-2.9-4.2-6.2-3.9c-1.9,0-3.9-0.2-5.7-0.8c-3.5-1-8.4-4.2-9.3-3.6c-1.8,1.1-2,3.2-0.7,5
			c1.2,1.7,2.7,3.2,4.3,4.5c1.9,1.7,3.9,3.2,6,4.6c1.9,1.1,2.6,1,4,2.8c0.8,0.9,1.8,1.6,3,1.9c2.2,0.2,4.4-0.6,6-2.2
			c0.7-2.2,1.8-4.2,1.1-7.5L341.5,445.6z"/>
		<path class="st31" d="M336.9,436.4c0,3-1.8,6.8,0.1,9.2c1.3,1.8,3.8,2.2,5.6,0.9c0.2-0.1,0.4-0.3,0.5-0.5c1.2-1.2,1.3-4,2.8-7.2
			L336.9,436.4z"/>
		<path class="st32" d="M330.5,440c-0.2,0-0.4-0.1-0.6-0.2c-3.5-1-8.2-3.4-9.1-2.9c-1.8,1.1-2.2,2.4-0.9,4.3
			c1.2,1.7,2.7,3.2,4.3,4.5c1.9,1.7,3.9,3.2,6,4.6c1.9,1.1,2.6,1,4,2.9c0.8,0.9,1.9,1.6,3.1,1.9c2.3,0.2,4.5-0.6,6.1-2.3
			c0.7-1.7,1.1-3.4,1.2-5.2c0.3-2.7,0.1-4-1-4c-1.5,0.1-2.8,0.7-3.9,1.7c-1.9,1.2-3.2-0.3-3.5-2.2c0-0.8,0-1.7,0.2-2.5l0.1-0.3
			c0.6-2.3-0.5-2.6-0.6-2c0,1-0.7,1.9-1.8,2C332.9,440.4,331.7,440.3,330.5,440z"/>
		<path class="st2" d="M321.1,437.2c-0.4,0.8-1.7,0.3-2,1.9c-0.3-0.9,1.3-2.2,1.9-2.3C321.1,436.9,321.3,436.9,321.1,437.2z"/>
		
			<linearGradient id="SVGID_17_" gradientUnits="userSpaceOnUse" x1="366.5602" y1="174.6521" x2="353.141" y2="141.0503" gradientTransform="matrix(1 0 0 -1 0 479.8898)">
			<stop  offset="0" style="stop-color:#94E69A"/>
			<stop  offset="1" style="stop-color:#17ADC9"/>
		</linearGradient>
		<path class="st33" d="M376.9,332.2c-7,8.1-7.1,8.8-20.8,16.8l-2.6-5.2c4.6-9.4,6-10.6,11.9-18c-5.3-3.7-10-8.2-14-13.2
			c-8.9-11.9-4-20.2,3.7-18.5c6.7,1.5,17.2,18.8,22.9,28.7C380.4,327,381,327.5,376.9,332.2z"/>
		<path class="st34" d="M363.1,324.2c-4.3-3.3-8.3-7.2-11.7-11.5c-8.9-11.9-3.7-19.9,4-18.3C359.4,295.7,366.5,304.2,363.1,324.2z"
			/>
		
			<linearGradient id="SVGID_18_" gradientUnits="userSpaceOnUse" x1="342.3315" y1="108.1008" x2="353.9624" y2="58.6863" gradientTransform="matrix(1 0 0 -1 0 479.8898)">
			<stop  offset="0" style="stop-color:#3773C2"/>
			<stop  offset="1" style="stop-color:#214075"/>
		</linearGradient>
		<path class="st35" d="M338.9,355.9c-0.8,8.6-5.1,36.2-3.9,43.8c1.8,11.4,1.3,25.1,1.3,37.2c0.3,5.1,7.3,7.7,9.3,4.5
			c1.6-10.8,4-20.3,4.9-26.3c1.1-6.7,0.7-14.9-1-19.3c1.7-8.8,4-17.4,6.7-25.9c1-3.1,6.6-13.2,0.8-23.2L338.9,355.9z"/>
		
			<linearGradient id="SVGID_19_" gradientUnits="userSpaceOnUse" x1="339.6613" y1="43.2941" x2="343.8699" y2="37.2568" gradientTransform="matrix(1 0 0 -1 0 479.8898)">
			<stop  offset="0" style="stop-color:#3773C2"/>
			<stop  offset="1" style="stop-color:#214075"/>
		</linearGradient>
		<path class="st36" d="M336.2,433.7c0,0.9,0,2.3,0,3.1c0.3,5.1,7.4,7.8,9.4,4.6c0.1-0.8,0.3-1.6,0.4-2.4
			C343.3,442,337.9,438.2,336.2,433.7z"/>
		<path class="st37" d="M334.8,394.5c2.3,11.4,8.7,26.7,12.2,38.2c1.8-9.8,6.4-26.6,2.4-36.9c0.4-2.8,1.6-8,3.1-13.6
			c-3-5.8-0.1-10.4-1.6-18.5c-8.1-1.3,4.1-11.3-13-0.9C336.6,375.1,335.1,382.8,334.8,394.5z"/>
		
			<linearGradient id="SVGID_20_" gradientUnits="userSpaceOnUse" x1="333.757" y1="102.2229" x2="370.9892" y2="54.3009" gradientTransform="matrix(1 0 0 -1 0 479.8898)">
			<stop  offset="0" style="stop-color:#3773C2"/>
			<stop  offset="1" style="stop-color:#214075"/>
		</linearGradient>
		<path class="st38" d="M339.5,405.3c4.7,10.5,13.2,31.2,17.8,44.1c2.4,3.4,10.8,3.1,10.8-0.1c-1.9-10.8-4-27.5-7.9-37
			c-2.1-4.2-4.4-8.2-7.1-12c-1.2-4.8-2.8-17.7-4-24.6c1.1-5.8,5.7-15.4-3.2-23.8c-3.6,2.6-14.8,4.2-19.8,1.3
			C325.2,376.1,330.8,385.6,339.5,405.3z"/>
		
			<linearGradient id="SVGID_21_" gradientUnits="userSpaceOnUse" x1="361.2475" y1="30.9946" x2="367.6075" y2="29.3676" gradientTransform="matrix(1 0 0 -1 0 479.8898)">
			<stop  offset="0" style="stop-color:#3773C2"/>
			<stop  offset="1" style="stop-color:#214075"/>
		</linearGradient>
		<path class="st39" d="M356.3,447.2c0.2,0.6,0.6,1.7,0.8,2.2c2.4,3.5,11.1,3.2,11.1-0.1l-0.3-1.7
			C365.9,449.8,359.6,449.8,356.3,447.2z"/>
		
			<linearGradient id="SVGID_22_" gradientUnits="userSpaceOnUse" x1="339.4008" y1="165.4519" x2="348.1139" y2="131.6214" gradientTransform="matrix(1 0 0 -1 0 479.8898)">
			<stop  offset="0" style="stop-color:#94E69A"/>
			<stop  offset="1" style="stop-color:#17ADC9"/>
		</linearGradient>
		<path class="st40" d="M359.2,324.9c-0.7,6.7,1.3,13.4-0.8,19.6c-0.1,0.6-0.1,3.1-0.3,3.8c-1.3,8.1-18.3,16.1-32.4,8.4
			c0-1,0-2,0-3.9c0.3-1.7-0.5-3.6-0.5-4.6c0-4.4,1.3-6.6,0.7-11.4c-1.3-9.9-6.8-19.3-3.8-27.1c0.7-1.4,1.7-2.7,3.1-3.5
			c3.3-2.7,20.6-11.5,25.8-12.1C366.2,292.1,360,317.5,359.2,324.9z"/>
		<path class="st41" d="M329.7,294.1c1,0.5,5.8-0.2,5.7,0.2c-0.1,2.2-0.7,3.5-0.9,6.5c5.4-0.8,12.4-1.5,12.7-5.6c0-0.3,0-0.7,0-1
			c0,0,0-0.1,0-0.1l0,0c-0.1-1.2,0-2.4,0.4-3.5c1.1-1.8,3.5-3.9,4.3-6.7c1.3-4.5,0.8-9.4-3.3-12.7c-7.6-6-17.3-1.7-19.7,7.1
			c-0.5,1.7,0.9,2.7,0.8,4.1c0,0.3-0.4,0.6-0.7,1.2C328.5,284.4,328.5,293.5,329.7,294.1z"/>
		
			<linearGradient id="SVGID_23_" gradientUnits="userSpaceOnUse" x1="336.3231" y1="202.2919" x2="343.7588" y2="190.5534" gradientTransform="matrix(1 0 0 -1 0 479.8898)">
			<stop  offset="0" style="stop-color:#FF8A78"/>
			<stop  offset="0.37" style="stop-color:#FF9584"/>
			<stop  offset="1" style="stop-color:#FFA799"/>
		</linearGradient>
		<path class="st42" d="M329.8,294c1,0.5,5.8-0.2,5.6,0.3c-0.1,2.2-0.7,3.5-0.9,6.5c3.1,0.8,11.5-0.4,12.8-5.1
			c-0.1-1.7,0-3.5,0.3-5.2c1.1-1.8,3.5-3.9,4.3-6.7c1.3-4.5,0.8-9.4-3.3-12.7c-7.6-6-17.3-1.7-19.7,7.1c-0.5,1.7,0.9,2.7,0.8,4.1
			c0,0.3-0.4,0.6-0.7,1.2C328.5,284.4,328.6,293.4,329.8,294z"/>
		
			<linearGradient id="SVGID_24_" gradientUnits="userSpaceOnUse" x1="337.9559" y1="203.3996" x2="342.0839" y2="191.1367" gradientTransform="matrix(1 0 0 -1 0 479.8898)">
			<stop  offset="0" style="stop-color:#FFB89E"/>
			<stop  offset="1" style="stop-color:#FFA799"/>
		</linearGradient>
		<path class="st43" d="M329.9,294.1c1.4,0.2,2.9,0,4.2-0.5c0.7-0.3,1.3-0.8,1.9-1.3c0.7-0.3,2.1-2.3-0.1-5.6
			c-2.2-3.3,11,5,11.7,3.8c1.1-1.8,3.5-3.9,4.3-6.7c1.3-4.5,0.8-9.4-3.3-12.7c-7.6-6-17.3-1.7-19.7,7.1c-0.5,1.7,0.9,2.7,0.8,4.1
			c0,0.3-0.4,0.6-0.7,1.2C328.5,284.4,328.7,293.4,329.9,294.1z"/>
		<path class="st44" d="M335.3,286.8c2.7-2.5,5.4,5.5,1,5.4C338,290.4,336.7,287.5,335.3,286.8z"/>
		<path class="st45" d="M335.3,287.9c-0.4-1.1-0.1-1.5,0.4-1.4c0.9,0.4,1.5,1.2,1.7,2.1c0.7,1.9-0.3,4.3-2.1,3.3
			c1.6,0.1,1.4-1.8,1-3C336,288.2,335.6,287.6,335.3,287.9z"/>
		<path class="st44" d="M336.1,288.4c-0.4,0.8-0.6,1.3-0.4,1.6c0.1,0.2,0.4,0.4,0.9,0C336.5,289.5,336.4,288.9,336.1,288.4z"/>
		
			<linearGradient id="SVGID_25_" gradientUnits="userSpaceOnUse" x1="337.339" y1="205.7423" x2="342.704" y2="187.5766" gradientTransform="matrix(1 0 0 -1 0 479.8898)">
			<stop  offset="0" style="stop-color:#5A2D68"/>
			<stop  offset="1" style="stop-color:#22043D"/>
		</linearGradient>
		<path class="st46" d="M332.6,276.2h-0.1c-2.3-1.1-3.4-3.8-2.3-6.2c0.2-0.4,0.5-0.8,0.8-1.2c3-2.7,11.1-2.4,16.1,0.3
			c5.1,2.6,6.5,9.4,4.9,14.6c-1,3.5-3.6,5.3-4.8,8c-0.8,1-2,1.4-3.2,1.2c-3.6-0.8-4.5-4.6-6.6-6.2c-1.2-0.9-2.4-1.2-2.9,1.3
			c-0.1,1.1-0.1,2.2-0.2,3.2c-0.1,1.6,0.3,1.9-1.1,2.4c-1.4,0.5-2.8,0.8-4.3,0.9c-0.3-0.1-0.3-2.1-0.3-3.6c0.1,0,0.1,0.5,0.2,0.5
			l0.5-0.1c0-0.6,0-1.2-0.2-1.8c-0.1-0.5-0.3-1-0.6-1.3c-0.1-0.4-0.1-0.8-0.1-1.2c0.8,0.5,1.3,1.3,1.5,2.2c0.2,0.6,0.3,1.3,0.4,2
			c0.7,0,1.3-0.2,1.9-0.6c0.7-1.1,1.1-2.4,1.2-3.7c0.1-3,0-3.5-1.6-5.7c-0.4-0.6-0.5-1.9,0.6-4.7L332.6,276.2z"/>
		
			<linearGradient id="SVGID_26_" gradientUnits="userSpaceOnUse" x1="329.8752" y1="212.1469" x2="337.9025" y2="207.2525" gradientTransform="matrix(1 0 0 -1 0 479.8898)">
			<stop  offset="0" style="stop-color:#8A4791"/>
			<stop  offset="1" style="stop-color:#562E65"/>
		</linearGradient>
		<path class="st47" d="M330.6,274.4c1.1,1.3,6-1.8,12.7-0.6c-1.5-4.5-2.3-5.4-4.3-6.7c-2.7-1.7-7.1-1-8.5,1.3
			C329.4,270.3,329.4,272.6,330.6,274.4z"/>
		<path class="st48" d="M347.3,294.4c1.5,0.5,2.9,1.9,2.7,2.9c-1.5,6-12.5,7.1-19.3,5.7c-0.1,0,2.7-3.6,4-4
			C338.9,299.3,346,297.9,347.3,294.4z"/>
		<path class="st34" d="M330.1,349.2c-0.6-2.7-4.4-20.3-5.2-23.4c-1.6-6.3-2.9-12.9-1.3-17c1.9-5.6,10.7-0.5,11.9,7
			C337.1,324.8,347.8,350,330.1,349.2z"/>
		<path class="st41" d="M329,382c0.8,1.3,1.9,1,2.1,2.4c-0.6,0.4-1.2,0.7-1.9,1c-0.3,0.1-1.1-0.6-1.1-0.9c0-0.1,0.2-1.1,0.2-1.1
			L329,382z"/>
		
			<linearGradient id="SVGID_27_" gradientUnits="userSpaceOnUse" x1="330.1268" y1="119.7019" x2="326.2678" y2="93.334" gradientTransform="matrix(1 0 0 -1 0 479.8898)">
			<stop  offset="0" style="stop-color:#C4E0F5"/>
			<stop  offset="1" style="stop-color:#E1E8F6"/>
		</linearGradient>
		<path class="st49" d="M311.6,349c0-0.6-0.4-1-0.2-1.3c0.2-0.3,1-0.6,1.4-0.7c0.6-0.2,1.3,0,1.9,0.3l28.7,16.5
			c1.8,1.2,2.9,3.1,3,5.2l0,20.5c0.1,0.7-0.3,1.5-0.9,1.9c-0.5,0.3-1.1,0.5-1.7,0.5c-0.3,0-0.1-0.5-0.5-0.7l-28.7-16.5
			c-1.8-1.2-2.9-3.1-3-5.2L311.6,349z"/>
		
			<linearGradient id="SVGID_28_" gradientUnits="userSpaceOnUse" x1="325.9613" y1="107.6159" x2="333.5449" y2="116.9206" gradientTransform="matrix(1 0 0 -1 0 479.8898)">
			<stop  offset="0" style="stop-color:#6D6AFE"/>
			<stop  offset="1" style="stop-color:#3FB0F7"/>
		</linearGradient>
		<path class="st50" d="M310.9,349.2c0-1.9,1.3-2.7,3-1.7l28.7,16.5c1.8,1.2,2.9,3.1,3,5.2l-0.1,20.5c0,1.9-1.3,2.7-3,1.7L313.8,375
			c-1.8-1.2-2.9-3.1-3-5.2L310.9,349.2z"/>
		
			<linearGradient id="SVGID_29_" gradientUnits="userSpaceOnUse" x1="318.3" y1="123.7003" x2="316.5923" y2="120.3119" gradientTransform="matrix(1 0 0 -1 0 479.8898)">
			<stop  offset="0" style="stop-color:#C4E0F5"/>
			<stop  offset="1" style="stop-color:#E1E8F6"/>
		</linearGradient>
		<path class="st51" d="M312.6,351.3c0-0.8,0.6-1.1,1.3-0.7l7.1,4c0.7,0.5,1.2,1.3,1.2,2.2v7.8c0,0.8-0.6,1.1-1.3,0.7l-7.1-4
			c-0.7-0.5-1.2-1.3-1.2-2.1V351.3z"/>
		<path class="st8" d="M312.6,364c0-0.4,0.3-0.6,0.6-0.3l28.4,16.1c0.4,0.2,0.6,0.6,0.6,1.1v0.8c0,0.4-0.3,0.6-0.6,0.3l-28.5-16.1
			c-0.4-0.2-0.6-0.6-0.6-1.1V364z"/>
		<path class="st8" d="M312.6,368.6c0-0.4,0.3-0.6,0.6-0.3l28.4,16.1c0.4,0.2,0.6,0.6,0.6,1.1v0.8c0,0.4-0.3,0.5-0.6,0.3l-28.5-16.1
			c-0.4-0.3-0.6-0.7-0.6-1.1V368.6z"/>
		<path class="st41" d="M321.5,371c-0.5,1.2-1.1,2.4-1.9,3.4c-0.6,1-1,1.6-0.9,2.5c0.2,2.5,0.6,4.3,1.4,5c1.3,1.3,6.8,3,9.2,3.5
			c-0.4-1.2-0.4-2.5-0.1-3.8c0.5-1,1-2,1.4-3.1c0.3-1.3-0.5-2.8-0.6-5L321.5,371z"/>
		<path class="st52" d="M327.1,384.8c0.8,0.2,1.6,0.4,2.1,0.6c-0.4-1.2-0.4-2.5-0.1-3.8c0.5-1,1-2,1.4-3.1c0.3-1.3-0.5-2.8-0.6-5
			l-1.8-0.5v0.3c0.1,1.3,0.1,2.5-0.1,3.8c-0.7,2.1-1.3,2.3-1.5,3.6C326.4,382.1,326.6,383.5,327.1,384.8z"/>
		
			<linearGradient id="SVGID_30_" gradientUnits="userSpaceOnUse" x1="324.5941" y1="168.0729" x2="330.2146" y2="116.0902" gradientTransform="matrix(1 0 0 -1 0 479.8898)">
			<stop  offset="0" style="stop-color:#94E69A"/>
			<stop  offset="1" style="stop-color:#17ADC9"/>
		</linearGradient>
		<path class="st53" d="M319.1,317.8c1.7,8.1,4.9,19.7,6,27.6l-3.6,24.5c0.5,4.2,7.4,5.4,9,3.6l6.9-26.6c-0.3-6.2-2.3-23.7-3-29.6
			c-0.5-4-2.7-8.6-5.6-10.3C322.7,303.4,317.6,310.8,319.1,317.8z"/>
		<path class="st9" d="M257.3,355.2l-49.4-28.4c-2-0.9-5-1.8-7-0.6l-5.1,3.1c-1,0.6-4.4,2.7-2.2,3.9c6.7,3.6,43.8,25.5,50.5,29.2
			c1.6,0.7,3.4,1,5.1,0.8c2-0.1,3.9-0.7,5.6-1.7l2-1.3c1.4-0.9,2.2-1.9,2.3-2.8C259.2,356.6,258.6,355.8,257.3,355.2z"/>
		<path class="st54" d="M255.5,314.5c0-1.4-0.5-1.1-1.2-1.7c-0.1-0.1-0.2-0.2-0.3-0.2l-10.9-6.1c-6.9-3.1-9.7,10.1-10.6,20.2
			l9.3,5.4l12.9-7L255.5,314.5z"/>
		<path class="st15" d="M244.4,354.5v-23l-0.2-7.4L199,297.4l-0.1,30.3c0,0.7,0.1,1.4,0.3,2.1c0.1,0.4,0.3,0.7,0.5,1.1l0.3,0.4
			c0.2,0.3,0.5,0.5,0.8,0.7l45.3,26.8C244.8,358.1,244.4,356.6,244.4,354.5z"/>
		<polygon class="st55" points="221.3,332.6 223.4,331.4 223.3,339.1 221.2,340.3 221.1,335.9 		"/>
		
			<linearGradient id="SVGID_31_" gradientUnits="userSpaceOnUse" x1="216.5791" y1="162.0554" x2="226.8788" y2="176.6175" gradientTransform="matrix(1 0 0 -1 0 479.8898)">
			<stop  offset="0" style="stop-color:#FA5DB1"/>
			<stop  offset="1" style="stop-color:#FEBFBF"/>
		</linearGradient>
		<path class="st56" d="M210.1,284.9c-0.6-0.3-1.3-0.5-2-0.6c-2.2,0.1-4.4,1-6,2.6c-1.4,1.2-2.5,2.5-3.4,4c-1.5,2.3-2.4,4.9-2.7,7.6
			c0,0.3,0,0.6,0,0.9v9.1l20.5,22.8l4,2.4l20.8,1.6l0.2-0.2l0.1-4.2c0-2.5,1.1-9.8,2.4-12.1c1.7-3.2,7.7-9,11.5-6.9L210.1,284.9z"/>
		<polygon class="st55" points="221.3,332.6 222,332.1 222,339.8 221.2,340.3 221.1,335.9 		"/>
		<polygon class="st57" points="215.5,329.1 218.9,331.4 221.3,332.6 222,332.1 216.3,328.7 		"/>
		<polygon class="st58" points="215.5,329.1 221.3,332.6 221.2,340.2 215.4,336.8 		"/>
		<path class="st59" d="M221.5,292.9c0-0.1,0-0.2,0-0.3l0,0c0-0.1,0-0.2,0.1-0.3l0,0c0-0.1,0.1-0.2,0.1-0.2l0,0l0.1-0.2
			c0.1-0.1,0.1-0.2,0.2-0.3v-0.1c0.1-0.1,0.2-0.1,0.3-0.2l-3.1,1.8c-0.1,0.1-0.2,0.1-0.3,0.2l0,0c-0.1,0.1-0.2,0.2-0.2,0.3l0,0
			l-0.1,0.2l0,0c0,0.1-0.1,0.1-0.1,0.2c0,0,0,0.1,0,0.1l0,0l0,0v0.2v0.1c0,0,0,0,0,0.1c0,0,0,0.1,0,0.1c0,0,0,0.1,0,0.1v0.1
			c0,0,0,0.1,0,0.1c0,0,0,0.1,0,0.2l0,0v1.8l3.1-1.8v-1.7c0-0.1,0-0.2,0-0.3L221.5,292.9z"/>
		<path class="st60" d="M224.7,289.3l-0.2-0.1l-0.1-0.1l0,0l0,0l-0.2-0.1l-0.2-0.1h-0.1h-0.1h-0.2h-0.1h-0.1h-0.2h-0.7
			c-0.1,0-0.2,0-0.3,0H222c-0.1,0-0.2,0-0.3,0.1l0,0c-0.1,0-0.3,0.1-0.4,0.2l-3.1,1.8c1.3-0.2,2.6,0,3.7,0.7l0.1-0.1l6.2,3.6l0,0
			c2.6,1.7,4.3,4.5,4.7,7.6l0.3-0.1l0,0l0,0l0,0v1.7l3.1-1.8V301l0,0l0,0l0,0l0,0l0,0v-0.1l0,0c0-0.1,0-0.1,0-0.2l0,0l0,0
			c0-0.1,0-0.2,0-0.2l0,0c0-0.3-0.1-0.5-0.1-0.8c0,0,0-0.1,0-0.1l0,0v-0.1c-0.1-0.6-0.3-1.2-0.6-1.8c-0.4-0.8-0.8-1.6-1.3-2.4
			c0,0-0.2-0.3-0.2-0.3c-0.1-0.1-0.1-0.2-0.2-0.2c-0.7-0.8-1.5-1.5-2.3-2.1l0,0l-6.5-3.8L224.7,289.3z"/>
		
			<linearGradient id="SVGID_32_" gradientUnits="userSpaceOnUse" x1="224.068" y1="179.2666" x2="224.9958" y2="180.9877" gradientTransform="matrix(1 0 0 -1 0 479.8898)">
			<stop  offset="0" style="stop-color:#FA5DB1"/>
			<stop  offset="1" style="stop-color:#FEBFBF"/>
		</linearGradient>
		<path class="st61" d="M228.2,295l-6.5-3.8c-2.8-1.6-5.1-0.3-5.1,2.9v1.7l1.8,1v-1.7c0-2.1,1.5-2.9,3.3-1.9l6.5,3.8
			c1.9,1.3,3.1,3.4,3.2,5.7v1.7l1.8,1v-1.7C233,300.2,231.2,297,228.2,295z"/>
		
			<linearGradient id="SVGID_33_" gradientUnits="userSpaceOnUse" x1="249.6735" y1="144.5448" x2="275.3018" y2="160.8415" gradientTransform="matrix(1 0 0 -1 0 479.8898)">
			<stop  offset="0" style="stop-color:#FA5DB1"/>
			<stop  offset="1" style="stop-color:#FEBFBF"/>
		</linearGradient>
		<path class="st62" d="M254.8,318.2l-10.5,6l-0.1,30.4c0,4.2,2.9,5.9,6.6,3.8l0.1-0.1c3.9-2.5,6.4-6.7,6.6-11.3l0.1-19l0,0v-11.1
			c0-3.9-2.1-6.1-5.2-5.7c-3.2,0.5-6.1,2.2-8.1,4.8c-2.1,2.9-3.2,6.4-3.3,10.1l-0.1,9l2.9-1.6v-9c0.1-1.6,0.5-3.2,1.3-4.7
			c1.1-2,5.1-6.3,8-4.6C254.2,315.8,254.8,317,254.8,318.2z"/>
		<path class="st2" d="M194.3,232.4c8.7,2.3,16.5,12.6,17.4,23c0.9,10.4-5.4,17-14.1,14.7c-8.7-2.3-16.5-12.6-17.4-23
			C179.3,236.6,185.6,230.1,194.3,232.4z"/>
		
			<linearGradient id="SVGID_34_" gradientUnits="userSpaceOnUse" x1="193.336" y1="235.7753" x2="198.3648" y2="220.9039" gradientTransform="matrix(1 0 0 -1 0 479.8898)">
			<stop  offset="0" style="stop-color:#1C8EF4"/>
			<stop  offset="1" style="stop-color:#00CFDD"/>
		</linearGradient>
		<path class="st63" d="M190.4,247.2v-3.3c0-2,0.4-3.3,1.1-4c0.8-0.7,2.1-0.7,3.6,0.1l3.2,1.8c1.4,0.6,2.5,1.8,3,3.2
			c0.5,1.6,0.7,3.2,0.6,4.8v2.4c0.6,1.3,1,2.6,1.1,4c0.4,4.7-2.4,7.6-6.3,6.6s-7.4-5.6-7.8-10.3
			C188.6,250.6,189.1,248.7,190.4,247.2L190.4,247.2z M199.9,249.1c0-1.2-0.1-2.3-0.5-3.4c-0.4-0.9-1.1-1.7-2.1-2.1
			c-1.1-0.6-2.2-1.3-3.3-1.9c-0.7-0.4-1.1-0.5-1.2-0.4c-0.1,0.1-0.5,1.1-0.5,2.5v2.1c0.9-0.3,1.9-0.3,2.8,0
			C197.1,246.5,198.7,247.6,199.9,249.1z"/>
		<path class="st64" d="M197,254.9v2.4c0,0.6-0.5,1-1,1s-1-0.5-1-1v-3.1c-0.3-0.4-0.6-1-0.6-1.5c-0.1-1.1,0.6-1.8,1.5-1.5
			c1,0.4,1.7,1.3,1.8,2.4C197.7,254,197.4,254.6,197,254.9z"/>
		<path class="st9" d="M91.7,325l42.6-24.2c4.6-2.1,11.3-3.8,16-1.3c4.3,2.2,11.4,6.8,14.5,8.6c2.4,1.3,10.6,6.3,5.5,9.1
			c-15.2,8.2-30.2,17.5-45.6,25.9c-3.6,1.7-7.7,2.3-11.6,1.8c-4.4-0.3-8.7-1.6-12.6-3.8l-7.5-4.4c-3.3-1.9-5.1-4.2-5.3-6.4
			C87.6,328.2,88.9,326.3,91.7,325z"/>
		<path class="st44" d="M188.9,180.6c-0.3,0-0.6-0.1-0.9-0.2l0.8-0.1c1.3-0.7,2.6-1.5,3.8-2.4c-1.2-2.3-4,0.1-4.6,0.1
			c-0.2,0-1.7-0.2-3.1-0.3c-1.8-0.2-3.6,0.5-4.8,1.9c-0.7,0.5-1.3,1-2.2,1.6c0,1.9,0.6,3.7,1.6,5.3c0.4-0.2,0.7-0.3,1.1-0.3
			c1.5-0.1,2.9,0.2,6.1,1.3c3.2,1.1,3.8,1,8.9-2.6c3.7-2.7,5.7-4.1,5.1-6.1C199.3,174.1,193.4,179.9,188.9,180.6z"/>
		
			<linearGradient id="SVGID_35_" gradientUnits="userSpaceOnUse" x1="189.4869" y1="299.4817" x2="190.1727" y2="292.2343" gradientTransform="matrix(1 0 0 -1 0 479.8898)">
			<stop  offset="0" style="stop-color:#FF8A78"/>
			<stop  offset="1" style="stop-color:#FFA799"/>
		</linearGradient>
		<path class="st65" d="M188.5,185.3c-3.1-0.5-5.4-3.1-7.9-1.6c-0.6,0.4-1.2,0.8-1.8,1.1c0.2,0.5,0.5,1,0.8,1.5
			c0.4-0.2,0.7-0.3,1.1-0.3c1.5-0.1,2.9,0.2,6.1,1.3c3.2,1.1,3.8,1,8.9-2.6c2.5-1.8,4.2-3,4.9-4.3c0.3-0.6-0.6-1.3-1.4-0.7
			C195.1,182.7,193.1,184.7,188.5,185.3z"/>
		
			<linearGradient id="SVGID_36_" gradientUnits="userSpaceOnUse" x1="190.059" y1="299.9799" x2="190.6238" y2="294.0099" gradientTransform="matrix(1 0 0 -1 0 479.8898)">
			<stop  offset="0" style="stop-color:#FF8A78"/>
			<stop  offset="1" style="stop-color:#FFA799"/>
		</linearGradient>
		<path class="st66" d="M199.7,178.6c-1.3,1-8.6,4.4-10.3,4c-0.5-0.1-0.4-1-0.4-2.1c-0.3,0.7,0.1,2.3-0.6,2c-3.9-2-5.6-2.3-7.8-0.9
			c1.5-0.3,3-0.2,4.4,0.3c1.3,0.5,2.6,1.3,4,1.6C192.7,182.6,195,182.2,199.7,178.6z"/>
		
			<linearGradient id="SVGID_37_" gradientUnits="userSpaceOnUse" x1="152.6561" y1="313.4872" x2="162.2029" y2="287.8186" gradientTransform="matrix(1 0 0 -1 0 479.8898)">
			<stop  offset="0" style="stop-color:#9F73F7"/>
			<stop  offset="1" style="stop-color:#565DD6"/>
		</linearGradient>
		<path class="st67" d="M147.8,198.7c-0.8-0.8-1.5-1.6-2-2.1c-3.9-3.7-10.4-15.5-14.1-33.2c1.8-1,3.8-1.8,5.9-2.2
			c2.4-0.5,4.9,0.3,6.6,2.1c1.6,1.9,3.3,5.5,4.3,11.1c0.7,3.8,3.5,8.9,5.4,13.6l0.2,0.6c2.7-1.4,5.5-2.7,8.4-3.8
			c3.8-1.5,8.1-2.9,12.8-4.3c0.6-0.2,1.1,0.2,1.6,0c0.3-0.1,1.7-0.6,1.9-0.7c-0.1,2.5,0.7,4.9,2.3,6.8c-0.3,0.1-1.8,0.8-2.1,0.9
			c-0.5,0.4-1,0.8-1.3,1.3c-3.5,3.6-13.7,9.1-23.1,12C151.5,201.7,149.1,201.2,147.8,198.7z"/>
		<path class="st68" d="M147.8,198.7c-0.8-0.8-1.5-1.6-2-2.1c-3.9-3.7-10.4-15.5-14.1-33.2c7.9-6.4,15.4,4.2,16.7,11.2
			c1.7,9.2,3.3,17,3.4,26.5C150.1,201.2,148.5,200.2,147.8,198.7z"/>
		<path class="st69" d="M111.6,313.2c-0.1,0.8-0.3,1.7-0.5,2.5c-0.5,1.3-0.9,2.7-1.3,4c-0.7,2.8,0.2,6.5-0.6,10.4
			c-0.5,1.4-0.3,3,0.6,4.2c1,1.3,2.9,3.5,5.4,3.5c1-0.1,2-0.5,2.7-1.3c1.1-1.3,1.7-2.9,1.6-4.6c-0.3-1.8-0.4-3.6-0.4-5.4
			c0.1-1.9,0.4-3,0.4-5.1c0-2.1-0.2-5.3-0.3-6.7L111.6,313.2z"/>
		<path class="st69" d="M133.7,301.8c-0.8,1.7-1.2,3.6-1.2,5.6c0.4,1.5,1.5,2,2.6,3l0.8,0.2c2,1.1,2.7,4.9,4.6,6.6
			c1.3,1.2,3.9,1.9,6.5,2.4s5.4-0.3,4.7-2.4c-1.8-5.4-9.5-11.5-9.7-17.5L133.7,301.8z"/>
		
			<linearGradient id="SVGID_38_" gradientUnits="userSpaceOnUse" x1="144.0847" y1="246.8598" x2="128.4469" y2="196.3696" gradientTransform="matrix(1 0 0 -1 0 479.8898)">
			<stop  offset="0" style="stop-color:#3A407F"/>
			<stop  offset="1" style="stop-color:#1B2153"/>
		</linearGradient>
		<path class="st70" d="M145.2,263.5c-0.2,10.3-2.4,29.6-2.1,39.8c-2.7,2.7-7.9,1.8-9.6-0.9c-1.1-9.4-2.3-22.6-2.4-27.8
			c-0.2-4.1,0.3-8.2,1.3-12.1c-1.5-11.3-8.1-26.7-6.5-37.3c0.7-4.7,3.7-9.7,4.6-13.5c7.7,9.4,13.6,4.9,16.7,4c0,3.3,0.2,2.8,0.1,6.3
			c-0.4,11.6-0.9,24.1-1.5,36.1C146,259.9,145.8,261.7,145.2,263.5z"/>
		<path class="st37" d="M131.7,284.4c-0.4-4-0.6-7.6-0.7-9.8c-0.2-4.1,0.3-8.2,1.3-12.1c-1.5-11.3-8.1-26.7-6.5-37.3
			c0.7-4.7,3.7-9.7,4.6-13.5c7.7,9.4,13.6,4.9,16.7,4c0,0.4,0,0.7,0,1l-10.1,7.4l2.5-0.6c-0.1,13.4-1.7,25.6-2,38.9
			c-2.4,7.1-4.4,14.3-5.9,21.6L131.7,284.4z"/>
		
			<linearGradient id="SVGID_39_" gradientUnits="userSpaceOnUse" x1="135.0509" y1="243.7767" x2="106.0745" y2="185.3937" gradientTransform="matrix(1 0 0 -1 0 479.8898)">
			<stop  offset="0" style="stop-color:#3A407F"/>
			<stop  offset="1" style="stop-color:#1B2153"/>
		</linearGradient>
		<path class="st71" d="M128.1,271c-1.9,10.3-7.3,35.3-8.6,45.5c-3.3,1.9-7.6,0.9-8.8-1.8c0-9.4,0-26.2,0.7-31.3
			c0.7-5,2-10,3.8-14.7c-0.7-24.1-3.4-30.5-0.1-41.2c1.4-4.7,5.2-9.2,6.7-13c2.1,3.2,5.2,7.7,12.1,7.1c0.7,0,6.4-4.1,8.2-4.6
			c-2.4,14.3-9.3,33.1-12.6,48.7C129.4,267.5,128.9,269.3,128.1,271z"/>
		
			<linearGradient id="SVGID_40_" gradientUnits="userSpaceOnUse" x1="126.4557" y1="306.8" x2="135.5184" y2="260.3436" gradientTransform="matrix(1 0 0 -1 0 479.8898)">
			<stop  offset="0" style="stop-color:#9F73F7"/>
			<stop  offset="1" style="stop-color:#565DD6"/>
		</linearGradient>
		<path class="st72" d="M138.8,161c0.7,0.1,1.5,0.3,2.1,0.7c5.1,2.8,6.8,11.1,7.7,18.4c0.7,6.3,0.2,11.5,0,17.3
			c-0.1,4.6,0.4,8.9,0.2,13.2c0,1.3-0.6,2.7-0.7,4c0,1-0.3,1.9-0.3,2.7c-2.5,9.7-26.6,10.5-30.1,3.9c0.3-1,0.5-1.9,0.6-2.9
			c-2.3-2.1-1-7.1-1.3-10.6c-0.2-2.5-0.6-4.9-1.4-7.2c-3.3-8.1-7.8-14.2-8.7-20.4c-0.6-4.2,4.8-9.5,12-13.8
			C125.7,162.2,135.1,159.9,138.8,161z"/>
		<path class="st73" d="M148.6,180.3c-2.5,2.6-18.3,17.6-35.7,13.7l0.2-1.2c18.3,4,34.9-13.7,35-13.8l0.5,0.4c0,0.2,0,0.4,0.1,0.6
			C148.6,180.3,148.6,180.3,148.6,180.3z"/>
		<path class="st73" d="M148.9,189.6c-4.3,4-17.7,15.2-32.6,13c-0.1-0.4-0.2-0.9-0.3-1.3c15.9,2.6,30.2-10.8,33-13.6
			C148.9,188.5,148.9,189.1,148.9,189.6z"/>
		<path class="st73" d="M115.5,200.3l3.1-6.4l4.2,7l3.6-8.5l4.9,6.6l2.5-9.1l5.2,5.6l2.4-10.4l3.9,5.8l3.2-12.2
			c0.1,0.5,0.1,1,0.2,1.5c0,0.2,0,0.3,0,0.5l-3.2,11.9l-3.8-5.8l-2.3,10.1l-5.2-5.6l-2.6,9.3l-5-6.7l-3.6,8.7l-4.2-7.1l-2.8,5.9
			c-0.1-0.3-0.2-0.5-0.3-0.7C115.5,200.5,115.5,200.4,115.5,200.3z"/>
		<path class="st73" d="M118.9,199.2c0.3,0,0.6,0.3,0.6,0.7c0,0.3-0.2,0.6-0.5,0.6c0,0,0,0-0.1,0c-0.3,0-0.6-0.3-0.6-0.7
			C118.2,199.5,118.5,199.2,118.9,199.2C118.8,199.2,118.8,199.2,118.9,199.2z"/>
		<path class="st73" d="M122.5,195.5c0.3,0,0.6,0.3,0.6,0.7c0,0.3-0.2,0.6-0.6,0.6c0,0,0,0,0,0c-0.3,0-0.6-0.3-0.6-0.7
			C121.9,195.8,122.2,195.5,122.5,195.5C122.5,195.5,122.5,195.5,122.5,195.5z"/>
		<path class="st73" d="M126.8,198.3c0.3,0,0.6,0.3,0.6,0.7c0,0.3-0.2,0.6-0.5,0.6c0,0,0,0-0.1,0c-0.3,0-0.6-0.3-0.6-0.7
			C126.2,198.5,126.5,198.3,126.8,198.3C126.8,198.2,126.8,198.2,126.8,198.3z"/>
		<path class="st73" d="M130.5,193.4c0.3,0,0.6,0.3,0.6,0.7c0,0.3-0.2,0.6-0.5,0.6c0,0,0,0-0.1,0c-0.4,0-0.6-0.3-0.6-0.7
			C129.9,193.7,130.1,193.4,130.5,193.4C130.5,193.4,130.5,193.4,130.5,193.4z"/>
		<path class="st73" d="M135,195.2c0.4,0,0.6,0.3,0.6,0.7c0,0.3-0.2,0.6-0.5,0.6c0,0-0.1,0-0.1,0c-0.3,0-0.6-0.3-0.6-0.7
			C134.4,195.5,134.7,195.3,135,195.2C135,195.2,135,195.2,135,195.2z"/>
		<path class="st73" d="M137.8,189.9c0.3,0,0.6,0.3,0.6,0.7c0,0.3-0.2,0.6-0.5,0.6c0,0,0,0-0.1,0c-0.4,0-0.6-0.3-0.6-0.7
			C137.2,190.2,137.4,189.9,137.8,189.9C137.7,189.9,137.8,189.9,137.8,189.9z"/>
		<path class="st73" d="M142.4,191c0.3,0,0.6,0.3,0.6,0.7c0,0.3-0.2,0.6-0.5,0.6c0,0,0,0-0.1,0c-0.4,0-0.6-0.3-0.6-0.7
			C141.7,191.3,142,191,142.4,191C142.3,191,142.4,191,142.4,191z"/>
		<path class="st73" d="M144.8,185.2c0.3,0,0.6,0.3,0.6,0.7c0,0.3-0.2,0.6-0.6,0.6c0,0,0,0-0.1,0c-0.3,0-0.6-0.3-0.6-0.7
			C144.2,185.5,144.4,185.3,144.8,185.2C144.8,185.2,144.8,185.2,144.8,185.2z"/>
		<path class="st73" d="M148.7,185.9h0.2v1.2h-0.2c-0.3,0-0.6-0.3-0.6-0.7C148.1,186.1,148.3,185.8,148.7,185.9
			C148.7,185.9,148.7,185.9,148.7,185.9z"/>
		<path class="st73" d="M114.8,195.6c0.3,0,0.6,0.3,0.6,0.7c0,0.3-0.2,0.6-0.5,0.6c0,0,0,0-0.1,0c-0.3,0-0.6-0.3-0.6-0.7
			C114.1,195.9,114.4,195.6,114.8,195.6C114.7,195.6,114.8,195.6,114.8,195.6z"/>
		<path class="st68" d="M118.5,183.5c0.9,5-0.2,13.4-2.7,17.8c-1.1-2.8-2.4-5.5-3.8-8.2C112.1,192.8,117.4,177.4,118.5,183.5z"/>
		
			<linearGradient id="SVGID_41_" gradientUnits="userSpaceOnUse" x1="121.1765" y1="250.3089" x2="122.3597" y2="252.3795" gradientTransform="matrix(1 0 0 -1 0 479.8898)">
			<stop  offset="0" style="stop-color:#FF8A78"/>
			<stop  offset="1" style="stop-color:#FFA799"/>
		</linearGradient>
		<path class="st74" d="M116.9,220.9c1.1,0.6,3.1,1.1,3.9,1.5c0.4,0.2,3.4,1.8,5.1,2.8c1.7,1,2.4,2.7,3.6,4.5c0.6,1,1.1,2.2,1.3,3.3
			c0.2,0.8-1.7,2.4-2.7,2.3c-2-0.3-4.1-2.6-4.7-2.8c-4.5-2-6.6-2.1-8.3-3.8c-0.7-0.7-1.3-2.9-2.8-4.9l2.5-2.6L116.9,220.9z"/>
		
			<linearGradient id="SVGID_42_" gradientUnits="userSpaceOnUse" x1="105.3324" y1="297.3426" x2="110.6974" y2="258.0934" gradientTransform="matrix(1 0 0 -1 0 479.8898)">
			<stop  offset="0" style="stop-color:#9F73F7"/>
			<stop  offset="1" style="stop-color:#565DD6"/>
		</linearGradient>
		<path class="st75" d="M106.5,177.2c-4,6.4-6.9,18.1-10.5,26c-0.2,0.5-0.4,1.1-0.5,1.7c-0.7,2,0.4,3.6,1.7,5.4
			c3.3,4.3,6,8.1,12.9,13.3c0.5,0.3,1.2,0.5,1.8,0.5c0.4,0.3,1,0.9,1.5,1.2c-0.6-0.7,2.4-4.4,3.9-4.3c-0.4-0.4-0.8-0.9-1.3-1.4
			c0-0.6-0.2-1.1-0.4-1.7c-2.6-4.3-5.6-8.4-9.1-12.1c1.6-2.1,2.9-4.5,4-6.2c1.9-3,3.7-6,5.3-9.2c0.6-1.2,1-1.8,1.6-3.1
			C122,178.2,111.3,169.4,106.5,177.2z"/>
		<path class="st44" d="M135.2,165.7c0.1-0.4,0.2-0.8,0.3-1.2c0.2-1.2-0.1-3.5,0.2-6.2l-10.3-4.3c-0.2,5.8-1.1,7-2.2,11.7
			c0.1,4.6,11.6,6.7,11.8,1.3C135.1,166.5,135.2,166.1,135.2,165.7z"/>
		
			<linearGradient id="SVGID_43_" gradientUnits="userSpaceOnUse" x1="131.1025" y1="320.3606" x2="128.4267" y2="317.3621" gradientTransform="matrix(1 0 0 -1 0 479.8898)">
			<stop  offset="0" style="stop-color:#FF8A78"/>
			<stop  offset="1" style="stop-color:#FFA799"/>
		</linearGradient>
		<path class="st76" d="M135.2,165.7c0.1-0.4,0.2-0.8,0.3-1.2c0.2-1.2-0.1-3.5,0.2-6.2l-10.3-4.3c0,1.3-0.1,2.4-0.2,3.3
			c-0.4,3.8,3.3,10.5,9.9,9.6C135.1,166.5,135.2,166.1,135.2,165.7z"/>
		<path class="st44" d="M135.9,165.5c-1.3-0.8-4.7-2.9-5.8-3.8c-2.5-1.8-2.2-4.1-2.9-7.8c-2.3-1.7-3.1-3-3.3-4.5
			c-0.3-3.6,1.3-7.2,4.2-9.4c2.3-1.8,5.3-2.4,8.1-1.7c5.9,1.3,8.3,5.8,8.6,10.9c0,0.4,0,0.9-0.2,1.3c-0.2,0.6-0.4,1.3-0.5,1.9
			c-0.3,1.5,0.7,2.1,0.3,3.9c-0.6,2.6-2.7,7.6-3.5,8.4C140,165.6,137.2,165.7,135.9,165.5z"/>
		
			<linearGradient id="SVGID_44_" gradientUnits="userSpaceOnUse" x1="140.1108" y1="329.144" x2="136.803" y2="320.9688" gradientTransform="matrix(1 0 0 -1 0 479.8898)">
			<stop  offset="0" style="stop-color:#FFB89E"/>
			<stop  offset="1" style="stop-color:#FFA799"/>
		</linearGradient>
		<path class="st77" d="M144.5,147.1c0.1,0.7,0.2,1.5,0.3,2.2c0,0.4,0,0.9-0.2,1.3c-0.2,0.6-0.4,1.3-0.5,1.9
			c-0.3,1.5,0.7,2.1,0.3,3.9c-0.4,1.6-0.9,3.2-1.6,4.7c-3.8,2.9-7.1-0.6-7.6-1.3c-2.4-3.1-2.6-7.7-0.8-12
			C137.7,148.8,141.3,148.6,144.5,147.1z"/>
		<path class="st78" d="M122.2,147.8c0.5,3.1,1.4,6,2.9,8.8c1.2,1.9,0.7-0.4,1.3-1.8c0.5-1,2.1-1.1,2.5-2.2c0.1,0.8,0.5,1.5,1.1,2.1
			c0.4,0.2,1.1,0.5,1.1-0.6c0.1-3.6,1.8-3.9,1.3-6c-0.4-1.6-0.3-2.3,0.1-2.9c1.2,0.2,1.9,1.3,3.3,2c2.7,0.7,5.7,0.4,8.2-0.8
			c2.2-1.1,3-3.8,1.9-6c-0.3-0.6-0.7-1-1.2-1.4c-1.3-1.3-2.9-1.6-5-3c-3.8-2.6-8.8-2-11.9,1.3C122.4,138.3,121.8,143.5,122.2,147.8z
			"/>
		<path class="st44" d="M127.9,150.9c-2.2-1-2.5,1.6-2.3,3.3c0.1,1.1,1,1.1,1.3,2c0.2,0.9,0.9,1.6,1.7,1.7c1.3,0.1,0.7-2.1,0.6-2.9
			C129.6,153.7,129.3,151.6,127.9,150.9z"/>
		
			<linearGradient id="SVGID_45_" gradientUnits="userSpaceOnUse" x1="141.7519" y1="335.329" x2="139.3182" y2="337.6686" gradientTransform="matrix(1 0 0 -1 0 479.8898)">
			<stop  offset="0" style="stop-color:#8A4791"/>
			<stop  offset="1" style="stop-color:#562E65"/>
		</linearGradient>
		<path class="st79" d="M134,143.5c-0.2,1.5,1.7,3.3,4.5,3.4c2.5,0.1,6-0.5,7.2-3.5c0.4-1.4-0.1-2.9-1.3-3.8c-1-0.5-2.1-0.5-3.1,0
			c-1.9,0.8-3.4,2.9-4.8,3.4C135.7,143.2,134.9,143.4,134,143.5z"/>
	</g>
</g>
</svg>
