<?xml version="1.0" encoding="utf-8"?>
<!-- Generator: Adobe Illustrator 22.0.1, SVG Export Plug-In . SVG Version: 6.00 Build 0)  -->
<svg version="1.1" id="Layer_1" xmlns="http://www.w3.org/2000/svg" xmlns:xlink="http://www.w3.org/1999/xlink" x="0px" y="0px"
	 width="480px" height="480px" viewBox="0 0 480 480" style="enable-background:new 0 0 480 480;" xml:space="preserve">
<g>
	<polygon style="fill:#84FFF9;" points="124.1,245.9 456.8,403.5 456.8,207.4 124.1,49.9 	"/>
	<g>
		<g>
			<path style="opacity:0.1;" d="M201.8,348c16.4,6.9,24.6,1.4,36.9-5.7c12.4-7.1,13.8-14.2,4.3-18.6c-17.9-8.4-28.1,0.1-40.5,7.2
				C190.1,338,192.1,344,201.8,348z"/>
			<path style="opacity:0.1;" d="M271.4,394.1c18,6.9,26.1,1.6,38.5-5.5c12.4-7.1,17.7-13.3,4.3-18.6c-13.2-5.2-26.3,0.3-38.7,7.4
				C263.1,384.5,261.6,390.4,271.4,394.1z"/>
			<radialGradient id="SVGID_1_" cx="281.6335" cy="311.4682" r="12.0179" gradientUnits="userSpaceOnUse">
				<stop  offset="3.030300e-02" style="stop-color:#FEDFCB"/>
				<stop  offset="0.7778" style="stop-color:#F9B69E"/>
				<stop  offset="0.9949" style="stop-color:#F2A78C"/>
			</radialGradient>
			<path style="fill:url(#SVGID_1_);" d="M273.3,306.7c-0.2,2.7-1.2,5.3-2,6.8c-0.8,1.7-1.1,3.7-2,3.4c-0.9-0.3,0.3-8.4,0.3-8.4
				L273.3,306.7z"/>
			<path style="fill:#10054D;" d="M315.9,377.6c0,0,0.9,3.5,0.2,4.9c-0.7,1.5-3.9,2.6-6.5,1.4c-2.6-1.3-3.7-3.9-4.7-4.6
				c-1-0.7-6.5-1.3-10.6-4.8c-4.1-3.5-3.5-7.3,0.6-7.4c4.1-0.1,11.5,1.8,14.2,3.5C311.8,372.5,315.9,377.6,315.9,377.6z"/>
			<linearGradient id="SVGID_2_" gradientUnits="userSpaceOnUse" x1="304.3454" y1="376.4915" x2="304.3454" y2="362.8283">
				<stop  offset="9.090910e-02" style="stop-color:#25054D"/>
				<stop  offset="0.4708" style="stop-color:#330A68"/>
				<stop  offset="0.8939" style="stop-color:#45108A"/>
			</linearGradient>
			<path style="fill:url(#SVGID_2_);" d="M314,381.3c-2.9,0.6-6.7-1.9-8.4-3.4c-1.7-1.5-4.8-0.7-8.8-3.8c-4-3.1-5.4-5.3-3.5-6.3
				c1.8-1,8.4-0.7,13.5,2c5.1,2.8,8.6,4.8,8.6,4.8s1.3,3.8,0.6,4.7C315.4,380.1,315.7,381,314,381.3z"/>
			<linearGradient id="SVGID_3_" gradientUnits="userSpaceOnUse" x1="297.0269" y1="337.1597" x2="317.5788" y2="337.1597">
				<stop  offset="3.535350e-02" style="stop-color:#138BBD"/>
				<stop  offset="0.2257" style="stop-color:#169AC7"/>
				<stop  offset="0.5946" style="stop-color:#1FC3DF"/>
				<stop  offset="1" style="stop-color:#2AF6FF"/>
			</linearGradient>
			<path style="fill:url(#SVGID_3_);" d="M314,293.7c0,0,2.2,9.4,0.7,21.3c-1.5,11.9,0.8,35.8,1.4,44.2c0.5,8.4,3.5,18.8-0.8,21
				c-2.5,1.2-6.9,0.5-10.3-3.4c-3.4-4-4.2-7.8-3.8-8.5c0.4-0.7,1-4-0.3-10.9c-1.4-7-4.1-24-3.9-29.5c0.2-5.5,2.2-31.5,2.2-31.5
				L314,293.7z"/>
			<path style="opacity:0.3;" d="M297,327.7c-0.2,5.5,2.5,22.5,3.9,29.5c1.4,7,0.7,10.2,0.3,10.9c-0.4,0.7,0.3,4.6,3.8,8.5
				c1.3,1.6,2.8,2.6,4.3,3.2c-1.5-2.8-3.7-8.6-3.7-18.1c0-14.4-3-32.7-3.4-42.7c-0.2-5.9,1.1-16.9,1.1-24.1l-4.1,1.2
				C299.2,296.2,297.2,322.1,297,327.7z"/>
			
				<radialGradient id="SVGID_4_" cx="-166.3379" cy="591.1811" r="15.4677" gradientTransform="matrix(0.997 7.750000e-02 -7.750000e-02 0.997 481.8658 -330.2252)" gradientUnits="userSpaceOnUse">
				<stop  offset="3.030300e-02" style="stop-color:#FEDFCB"/>
				<stop  offset="0.7778" style="stop-color:#F9B69E"/>
				<stop  offset="0.9949" style="stop-color:#F2A78C"/>
			</radialGradient>
			<path style="fill:url(#SVGID_4_);" d="M272.3,232.3c0,0-8.9-0.9-12.5,0.8s-9.3,7.3-9.3,9.1c0,1.6,4.8,3.7,7.7,2.9
				c2.9-0.8,3.2-1.3,5.6-1.7c2.3-0.5,7-2,8.7-2.9C274.2,239.6,272.3,232.3,272.3,232.3z"/>
			<path style="fill:#10054D;" d="M221.1,318.7l-1.2,6.7c0,0,3.3,1.9,4.9,2.4c1.5,0.5,4-0.5,5.3,1.1c1.3,1.6,6.4,5.7,10.6,6.5
				c4.6,0.9,7.8-0.6,7.9-1.9c0.1-1.3-1.1-3.5-5.3-6.2c-4.2-2.7-7.7-9.3-7.7-9.3L221.1,318.7z"/>
			<linearGradient id="SVGID_5_" gradientUnits="userSpaceOnUse" x1="220.6409" y1="326.2912" x2="247.9695" y2="326.2912">
				<stop  offset="9.090910e-02" style="stop-color:#25054D"/>
				<stop  offset="0.4708" style="stop-color:#330A68"/>
				<stop  offset="0.8939" style="stop-color:#45108A"/>
			</linearGradient>
			<path style="fill:url(#SVGID_5_);" d="M220.7,323c0.6,0.8,8.3,2.6,9.5,4.2c1.4,1.8,8.6,6.2,12.2,6.9c3.3,0.6,5.8-1.1,5.5-2.3
				c-0.5-1.8-3.5-3.5-6.1-5.5c-2.6-2-5.5-6.7-5.5-6.7l-15.7-1.1L220.7,323z"/>
			<path style="fill:#10054D;" d="M198.5,331l-0.1,6.3l2.8,2.8l0.9-0.3c0,0,1.9,4.6,7.3,8.1c4.7,3,10.4,2.3,11.8,1.2
				c1.4-1.1,1.4-2.2-2.1-6.8c-3.5-4.7-8.5-11.4-8.5-11.4L198.5,331z"/>
			<linearGradient id="SVGID_6_" gradientUnits="userSpaceOnUse" x1="198.6915" y1="340.1496" x2="221.5574" y2="340.1496">
				<stop  offset="9.090910e-02" style="stop-color:#25054D"/>
				<stop  offset="0.4708" style="stop-color:#330A68"/>
				<stop  offset="0.8939" style="stop-color:#45108A"/>
			</linearGradient>
			<path style="fill:url(#SVGID_6_);" d="M198.9,334.7c0,0,5.1,4.7,6.8,7.4c2.6,4.1,9.6,7.3,14.2,5.8c4.6-1.5-1.6-6.3-2.8-8.4
				c-1.3-2.1-4.8-7.3-4.8-7.3l-13.6-0.1L198.9,334.7z"/>
			<linearGradient id="SVGID_7_" gradientUnits="userSpaceOnUse" x1="220.1136" y1="283.2749" x2="238.0498" y2="283.2749">
				<stop  offset="3.535350e-02" style="stop-color:#6B24D6"/>
				<stop  offset="0.2945" style="stop-color:#7733DC"/>
				<stop  offset="0.7943" style="stop-color:#975CED"/>
				<stop  offset="1" style="stop-color:#A56EF4"/>
			</linearGradient>
			<path style="fill:url(#SVGID_7_);" d="M236.7,241.6c0,0,1.4,29.9,1.2,37.1c-0.2,7.2-4.4,25.9-3.6,29.2c0.7,3.3,2.3,6.3,2.7,8.4
				c0.4,2.1,1,4.9,1,4.9s-4.5,4.3-9.6,3.6c-5.1-0.6-7.8-1.6-8.2-2.8c-0.5-1.3,0.7-33.9,0.7-33.9l-0.7-42.2L236.7,241.6z"/>
			<path style="opacity:0.3;" d="M224.4,315.7c-0.8-8.3,1.7-18.7,4.3-29.9c2.2-9.5,1-32.5,0.6-39.6l-8.8,2.3l0.5,39.6
				c0,0-1.2,32.6-0.7,33.9c0.5,1.2,2.9,2.1,7.6,2.7C226.3,321.9,224.6,318.3,224.4,315.7z"/>
			<linearGradient id="SVGID_8_" gradientUnits="userSpaceOnUse" x1="197.6028" y1="289.6395" x2="222.5737" y2="289.6395">
				<stop  offset="3.535350e-02" style="stop-color:#6B24D6"/>
				<stop  offset="0.2945" style="stop-color:#7733DC"/>
				<stop  offset="0.7943" style="stop-color:#975CED"/>
				<stop  offset="1" style="stop-color:#A56EF4"/>
			</linearGradient>
			<path style="fill:url(#SVGID_8_);" d="M222.6,243.5c0,0-2,23.8-2.6,34.3c-0.5,10.5-3.1,25.3-4.5,30.9c-1.4,5.5-2.9,13.3-2.5,17.2
				c0.4,3.9,2.2,6.9-0.1,8.5c-2.3,1.7-10,2.6-11.9,1.7c-1.9-0.9-3.4-0.7-3.4-4.5s0.5-24.9,2-33.4c1.5-8.4-0.9-38-0.9-41.8
				c-0.1-8.9,3.3-13.8,3.3-13.8L222.6,243.5z"/>
			<linearGradient id="SVGID_9_" gradientUnits="userSpaceOnUse" x1="219.4279" y1="199.7187" x2="236.4411" y2="187.2223">
				<stop  offset="3.535350e-02" style="stop-color:#9D9EB3"/>
				<stop  offset="0.5808" style="stop-color:#D4D1D8"/>
				<stop  offset="1" style="stop-color:#EEEBF2"/>
			</linearGradient>
			<path style="fill:url(#SVGID_9_);" d="M217.5,170.2c-3.8,1-8.4,0.7-4.4,10.4c4.1,9.7,18.8,42.7,18.8,42.7s5-12,4.3-22.4
				c-0.7-10.4-7-28.3-7-28.3L217.5,170.2z"/>
			<linearGradient id="SVGID_10_" gradientUnits="userSpaceOnUse" x1="225.0357" y1="204.18" x2="235.2737" y2="197.8566">
				<stop  offset="3.535350e-02" style="stop-color:#9F19AB"/>
				<stop  offset="0.2438" style="stop-color:#AE25B1"/>
				<stop  offset="0.6455" style="stop-color:#D744BF"/>
				<stop  offset="1" style="stop-color:#FF63CE"/>
			</linearGradient>
			<path style="fill:url(#SVGID_10_);" d="M224.9,182.1l1.6-0.7l1,1.1l-0.4,2.3c0,0,4.4,8.7,6.1,14c1.7,5.3,2,12.4,1.4,15.8
				s-3.7,8.2-3.7,8.2s-2.2-16-2.9-19.8c-0.7-3.8-2.8-17.4-2.8-17.4l-1.6-1L224.9,182.1z"/>
			<linearGradient id="SVGID_11_" gradientUnits="userSpaceOnUse" x1="225.3111" y1="210.3685" x2="256.1756" y2="211.2718">
				<stop  offset="3.535350e-02" style="stop-color:#6B24D6"/>
				<stop  offset="0.2945" style="stop-color:#7733DC"/>
				<stop  offset="0.7943" style="stop-color:#975CED"/>
				<stop  offset="1" style="stop-color:#A56EF4"/>
			</linearGradient>
			<path style="fill:url(#SVGID_11_);" d="M225.4,170.6c0,0,4.7-0.6,8.2,2.6c2.5,2.3,3.9,5.3,4.7,11.1c0.7,5.2-0.2,16.7,0,19.6
				c0.2,2.9,1.1,21.4,1.7,27.1c0.5,5.7,2.3,12.3-0.9,15.5c-3.2,3.2-6.7,4.9-7.5,3c-0.8-1.9-3.3-18.7-2-23.7c1.4-5,5.1-15.2,4.9-21.4
				c-0.2-6.2-2.9-22.6-4.7-25.9C228,175.5,225.4,170.6,225.4,170.6z"/>
			<path style="opacity:0.3;" d="M236.9,194.1c-0.4-5.7-0.6-10.1-0.6-10.1l-2.2-1.2l1.5-2.6c0,0-2.7-1.5-3.6-3.6
				c-0.8-1.8-2.8-3.9-4.4-6.1l0,0c-1.3-0.1-2.2,0.1-2.2,0.1s2.6,4.9,4.4,8.1c1.8,3.2,4.5,19.7,4.7,25.9c0.1,3.8-1.3,9.1-2.6,13.9
				c0.7-1.5,1.9-4.6,2.1-5.5C235.4,208.2,237.3,199.8,236.9,194.1z"/>
			<linearGradient id="SVGID_12_" gradientUnits="userSpaceOnUse" x1="225.4364" y1="194.4879" x2="236.4921" y2="194.4879">
				<stop  offset="3.535350e-02" style="stop-color:#6B24D6"/>
				<stop  offset="0.2945" style="stop-color:#7733DC"/>
				<stop  offset="0.7943" style="stop-color:#975CED"/>
				<stop  offset="1" style="stop-color:#A56EF4"/>
			</linearGradient>
			<path style="fill:url(#SVGID_12_);" d="M236.4,193.5c-0.4-5.7-0.6-10.1-0.6-10.1l-2.6-0.7l1.8-3.3c0,0-2-0.7-2.9-2.7
				c-0.8-1.8-2.3-4.6-4.6-6.2l0,0c-1.3-0.1-2.2,0.1-2.2,0.1s2.6,4.9,4.4,8.1c1.8,3.2,4.5,19.7,4.7,25.9c0.1,3.8-1.3,9.1-2.6,13.9
				c0.7-1.5,1.9-4.6,2.1-5.5C235.4,208.2,236.8,199.2,236.4,193.5z"/>
			<path style="opacity:0.3;" d="M202,242.8c0,0-3.4,4.9-3.3,13.8c0,3.8,2.4,33.4,0.9,41.8c-1.5,8.4-2,29.6-2,33.4s1.6,3.5,3.4,4.5
				c0.7,0.4,2.4,0.4,4.2,0.3c-1.5-2.5-3-6.5-3.4-12.2c-0.9-12,3.5-25.4,2.9-36.4c-0.5-9.7-0.8-31.6,0.8-44.6L202,242.8z"/>
			<path style="opacity:0.3;" d="M226.8,172.2l-9.3-2c-2.9,0.8-6.3,0.8-5.9,5.2c2,3.4,4.5,7.5,6.1,9c3,2.9,5.2,5.6,5.2,5.6l2.7-9.6
				l4.6,6.3c0,0,0.3-5.5-0.1-7.3C229.8,178.5,228.3,175.2,226.8,172.2z"/>
			<linearGradient id="SVGID_13_" gradientUnits="userSpaceOnUse" x1="208.3797" y1="185.3868" x2="226.2209" y2="175.9581">
				<stop  offset="3.535350e-02" style="stop-color:#9D9EB3"/>
				<stop  offset="0.5808" style="stop-color:#D4D1D8"/>
				<stop  offset="1" style="stop-color:#EEEBF2"/>
			</linearGradient>
			<path style="fill:url(#SVGID_13_);" d="M226.8,172.2l-9.3-2c-2.9,0.8-6.3,0.8-5.9,5.2c2,3.4,4.5,7.5,6.1,9c3,2.9,5,4.2,5,4.2
				l2.8-8.2l4.4,4.9c0,0,0.4-4.1,0-5.9C229.8,178.5,228.3,175.2,226.8,172.2z"/>
			<linearGradient id="SVGID_14_" gradientUnits="userSpaceOnUse" x1="195.2601" y1="217.5503" x2="238.4525" y2="209.7937">
				<stop  offset="3.535350e-02" style="stop-color:#6B24D6"/>
				<stop  offset="0.2945" style="stop-color:#7733DC"/>
				<stop  offset="0.7943" style="stop-color:#975CED"/>
				<stop  offset="1" style="stop-color:#A56EF4"/>
			</linearGradient>
			<path style="fill:url(#SVGID_14_);" d="M214.2,170.5c0,0-2.9,0.9-1.3,5.1c1.6,4.2,7.9,11.2,12,20.8c4.1,9.6,6.9,19.7,6.6,31.3
				c-0.3,11.6-1.1,22-3.8,24.8c-3,3.1-12,6.6-21.6,4.9c-9.6-1.7-12.4-5.4-11.3-7.6c1-2.3,6.7-26.2,7.1-29.7s-2.9-13-4-16.7
				c-1-3.8-2.8-11.3-1.5-15.5c1.3-4.2,3.7-4.7,6.1-7.2c1.6-1.6,4-4,6.8-6.4C210.9,172.9,212.3,171,214.2,170.5z"/>
			<path style="opacity:0.3;" d="M224.9,196.3c-4.1-9.6-10.4-16.6-12-20.8c-1.4-3.6,0.6-4.7,1.2-5c0,0,0,0,0,0
				c-1.7,0.5-3.3,1.5-4.7,2.7c-0.3,2.8-0.6,3.5,0.6,8.4c1.3,5.3,0.9,7.4,0.9,7.4l3.5,0.8v3.5c0,0,1.5-1.3,6.2,6.3
				c4.7,7.6,8.1,11.5,10.6,20.6C230.5,211.6,228.1,203.8,224.9,196.3z"/>
			<linearGradient id="SVGID_15_" gradientUnits="userSpaceOnUse" x1="204.1377" y1="203.1766" x2="223.4093" y2="195.0464">
				<stop  offset="3.535350e-02" style="stop-color:#6B24D6"/>
				<stop  offset="0.2945" style="stop-color:#7733DC"/>
				<stop  offset="0.7943" style="stop-color:#975CED"/>
				<stop  offset="1" style="stop-color:#A56EF4"/>
			</linearGradient>
			<path style="fill:url(#SVGID_15_);" d="M224.9,196.3c-4.1-9.6-10.4-16.6-12-20.8c-1.4-3.6,0.6-4.7,1.2-5c0,0,0,0,0,0
				c-1.7,0.5-3.3,1.5-4.7,2.7c-0.3,2.8-0.6,3.5,0.6,8.4c1.3,5.3,1.6,6.5,1.6,6.5l3.5,0.8v3.5c0,0,2.4-0.3,6.7,7.5
				c4,7.2,6.9,11.3,9.4,20.4C230.5,211.6,228.1,203.8,224.9,196.3z"/>
			<radialGradient id="SVGID_16_" cx="210.9556" cy="199.9714" r="15.8214" gradientUnits="userSpaceOnUse">
				<stop  offset="0" style="stop-color:#FFFFFF"/>
				<stop  offset="1" style="stop-color:#000000"/>
			</radialGradient>
			<path style="fill:url(#SVGID_16_);" d="M222.2,199.6c-4.3-7.8-6.8-7.7-6.8-7.7v-3.5l-3.5-0.8c0,0-0.3-1.2-1.6-6.5
				c-1.1-4.8-0.9-5.7-0.6-8.3c-0.1,0.1-0.2,0.2-0.4,0.3c-0.3,2.8-0.6,3.5,0.6,8.4c1.3,5.3,1.6,6.5,1.6,6.5l3.5,0.8v3.5
				c0,0,2.4-0.3,6.7,7.5c4,7.2,6.9,11.3,9.4,20.4c-0.1-1-0.3-1.7-0.4-2.7C228.6,210.1,225.9,206.2,222.2,199.6z"/>
			<path style="opacity:0.3;" d="M203.1,231.6c0,0,2.9,1.2,6,2.1c3.1,0.9,6.7,1.9,6.7,1.9s0,4.5-1.8,4.6c-1.8,0.1-11-2.4-11.6-3.5
				S203.1,231.6,203.1,231.6z"/>
			<linearGradient id="SVGID_17_" gradientUnits="userSpaceOnUse" x1="198.4675" y1="236.371" x2="217.4379" y2="234.5643">
				<stop  offset="3.535350e-02" style="stop-color:#6B24D6"/>
				<stop  offset="0.2945" style="stop-color:#7733DC"/>
				<stop  offset="0.7943" style="stop-color:#975CED"/>
				<stop  offset="1" style="stop-color:#A56EF4"/>
			</linearGradient>
			<path style="fill:url(#SVGID_17_);" d="M203.1,231.6c0,0,2.9,1.2,6,2.1c3.1,0.9,6.7,1.9,6.7,1.9s-0.3,3.7-2.1,3.8
				c-1.8,0.1-11-2.4-11.6-3.5C201.6,234.7,203.1,231.6,203.1,231.6z"/>
			<linearGradient id="SVGID_18_" gradientUnits="userSpaceOnUse" x1="240.6594" y1="233.9951" x2="246.789" y2="233.9951">
				<stop  offset="3.535350e-02" style="stop-color:#6B24D6"/>
				<stop  offset="0.2945" style="stop-color:#7733DC"/>
				<stop  offset="0.7943" style="stop-color:#975CED"/>
				<stop  offset="1" style="stop-color:#A56EF4"/>
			</linearGradient>
			<path style="fill:url(#SVGID_18_);" d="M246.8,228c0,0,0.3,3.3-1.4,6.4c-1.7,3.1-4.7,5.6-4.7,5.6s-0.5-6.3,1.2-8.7
				C243.6,228.9,246.8,228,246.8,228z"/>
			<radialGradient id="SVGID_19_" cx="260.477" cy="231.8797" r="18.6756" gradientUnits="userSpaceOnUse">
				<stop  offset="3.030300e-02" style="stop-color:#FEDFCB"/>
				<stop  offset="1" style="stop-color:#F9B69E"/>
			</radialGradient>
			<path style="fill:url(#SVGID_19_);" d="M244.8,228.3c0,0,2.1,1.6,3.7,1.8c1.6,0.1,6.9-0.1,8.7,0.6c1.7,0.6,6.9,2.1,7,3.5
				c0.1,1.4-1.8,0.5-3.3,0.3c-1.5-0.2-4-0.4-4-0.4s3.1,3.2,5,4.3c1.9,1.1,5,1.6,5.5,2.7c0.5,1.1-0.1,2.1-1.7,3.2
				c-2.3,1.6-4.3,1.1-6.2,1.2c-3.5,0.1-7.5-1.3-9.1-2.6c-1.6-1.3-6.2-4.9-7.2-5.5s-4.7-2-4.7-2l6.2-7L244.8,228.3z"/>
			<radialGradient id="SVGID_20_" cx="265.483" cy="223.5079" r="29.0093" gradientUnits="userSpaceOnUse">
				<stop  offset="3.030300e-02" style="stop-color:#FEDFCB"/>
				<stop  offset="0.7778" style="stop-color:#F9B69E"/>
				<stop  offset="0.9949" style="stop-color:#F2A78C"/>
			</radialGradient>
			<path style="fill:url(#SVGID_20_);" d="M265.6,244.1c1.5-1.1,2.2-2.1,1.7-3.2c-0.1-0.2-0.2-0.3-0.5-0.5c-1.3,1.6-5.4,2.5-7.9,1.9
				c-2.7-0.6-9.7-5.3-11.7-7.3c-1-1-4.4-2.3-7.5-3.3l-1.3,3.4c0,0,3.7,1.4,4.7,2c1,0.6,5.6,4.2,7.2,5.5c1.6,1.3,5.6,2.7,9.1,2.6
				C261.3,245.2,263.2,245.7,265.6,244.1z"/>
			<path style="opacity:0.3;" d="M208.8,245.3c0.1-7.7,5.1-17.4,7.5-23.1c2.4-5.8-0.7-23.1-4.3-30.7c-2.9-6.1-11.5-4-15.8-2.1
				c-0.6,4.3,0.9,10.6,1.9,14c1,3.8,4.4,13.2,4,16.7c-0.4,3.5-6,27.5-7.1,29.7c-1,2.3,1.7,6,11.3,7.6c1.6,0.3,3.3,0.4,4.9,0.4
				C210.1,255,208.7,250.1,208.8,245.3z"/>
			<linearGradient id="SVGID_21_" gradientUnits="userSpaceOnUse" x1="172.0871" y1="214.1871" x2="237.8491" y2="210.9801">
				<stop  offset="3.535350e-02" style="stop-color:#6B24D6"/>
				<stop  offset="0.2945" style="stop-color:#7733DC"/>
				<stop  offset="0.7943" style="stop-color:#975CED"/>
				<stop  offset="1" style="stop-color:#A56EF4"/>
			</linearGradient>
			<path style="fill:url(#SVGID_21_);" d="M198.9,184.2c-4,1.3-4.3,9.1-1.7,14.8c1.7,3.7,5.6,12.1,7,15.8c1.4,3.6,3.6,11.1,7.5,13.1
				c3.9,2.1,14.1,5.5,18.1,7.2c4,1.7,11,4.9,11,4.9s1.2-4.8,2.9-7.8c1.7-3,3.1-4.2,3.1-4.2s-13.8-6.5-18.5-9.1
				c-4.7-2.6-7.2-4.1-8.2-6.5c-1-2.4-4.4-13-5.5-15.5C211.8,190.4,208.5,181.1,198.9,184.2z"/>
			<path style="fill:#10054D;" d="M294.1,390c0,0,1.5,4.5-0.3,5.5c-1.9,1-4.8,1.5-7.2,0.5c-2.4-1-3.3-2.1-5.8-2.1
				c-2.5,0-12.2-4.8-14.1-7.2c-1.9-2.4,0-5.1,4.7-4.7c4.7,0.3,11.3,0.9,12.5,1.3C285,383.7,294.1,390,294.1,390z"/>
			<linearGradient id="SVGID_22_" gradientUnits="userSpaceOnUse" x1="279.2278" y1="391.6565" x2="284.6473" y2="375.7367">
				<stop  offset="9.090910e-02" style="stop-color:#25054D"/>
				<stop  offset="0.4708" style="stop-color:#330A68"/>
				<stop  offset="0.8939" style="stop-color:#45108A"/>
			</linearGradient>
			<path style="fill:url(#SVGID_22_);" d="M292,393.3c-4.4,0.5-5.8-0.7-9.8-1.5c-4-0.8-15.5-5.5-15.3-8.1c0.2-2.6,2.8-2,5.1-1.8
				c2.2,0.2,9.3,0.7,9.9,0.7c0.6,0,12.1,5.2,12.1,5.2s0.8,3.8,0.1,4.3C293.3,392.7,293.2,393.2,292,393.3z"/>
			<linearGradient id="SVGID_23_" gradientUnits="userSpaceOnUse" x1="275.3684" y1="343.4366" x2="301.6682" y2="343.4366">
				<stop  offset="3.535350e-02" style="stop-color:#138BBD"/>
				<stop  offset="0.2257" style="stop-color:#169AC7"/>
				<stop  offset="0.5946" style="stop-color:#1FC3DF"/>
				<stop  offset="1" style="stop-color:#2AF6FF"/>
			</linearGradient>
			<path style="fill:url(#SVGID_23_);" d="M300.5,296.8c0,0,2.6,5.6,0.1,15.3c-2.5,9.7-5.4,21.2-5.5,33.5
				c-0.1,12.3,1.4,44.1-0.5,45.9c-1.9,1.8-8.5,2.4-11.2,0.4c-4.3-3.2-6.7-7.7-6.3-9.3c0.4-1.6,3.8-7.2,2.6-12.2
				c-1.1-5-5-22.3-4.3-34.1c0.7-11.8,2.7-42.5,2.7-42.5L300.5,296.8z"/>
			<radialGradient id="SVGID_24_" cx="288.067" cy="211.3281" r="18.3071" gradientUnits="userSpaceOnUse">
				<stop  offset="3.030300e-02" style="stop-color:#FEDFCB"/>
				<stop  offset="1" style="stop-color:#F9B69E"/>
			</radialGradient>
			<path style="fill:url(#SVGID_24_);" d="M289.8,199.5c-2.8,1.4-5.6,3.6-5.7,10.6c-0.1,6.9-0.2,10.3,1.2,11.2
				c1.4,0.9,2.4,0,2.7,1.9c0.3,1.9-0.3,5.1-0.3,5.1l15.2-3.4c0,0-1-2.4-0.1-4.9c1-2.5,5.4-7.4,2-14.5
				C301.5,198.4,293.1,197.9,289.8,199.5z"/>
			<linearGradient id="SVGID_25_" gradientUnits="userSpaceOnUse" x1="303.0772" y1="221.5192" x2="290.7314" y2="199.6882">
				<stop  offset="3.535350e-02" style="stop-color:#602213"/>
				<stop  offset="0.571" style="stop-color:#6D310E"/>
				<stop  offset="1" style="stop-color:#7A4108"/>
			</linearGradient>
			<path style="fill:url(#SVGID_25_);" d="M284,205.5c0,1.3,0.8,3.5,2.6,3.6c1.9,0.1,2.8,2.4,2.4,3.4c-0.4,1-0.1,1.3-0.1,1.3
				s1.4-0.6,2,0.6c0.6,1.1-0.2,3.5-0.6,4.4s2.7,3.7,5.3,3.9c2.6,0.2,6-0.1,7.2-1.4c1.1-1.3,5.2-5.8,3.8-12.9
				c-1.5-7.1-8-11.3-14-10.1C286.3,199.4,284,203.6,284,205.5z"/>
			<linearGradient id="SVGID_26_" gradientUnits="userSpaceOnUse" x1="269.5451" y1="234.0105" x2="318.2081" y2="234.0105">
				<stop  offset="3.535350e-02" style="stop-color:#138BBD"/>
				<stop  offset="0.2257" style="stop-color:#169AC7"/>
				<stop  offset="0.5946" style="stop-color:#1FC3DF"/>
				<stop  offset="1" style="stop-color:#2AF6FF"/>
			</linearGradient>
			<path style="fill:url(#SVGID_26_);" d="M271.2,231.8c0,0-1.9,1.4-1.6,4c0.3,2.6,2.8,6.7,2.8,6.7l26.3-1.5c0,0,20.3-0.9,19.4-9.1
				c-0.9-7.9-6.3-7.5-18-4.5s-16.3,3.5-20.2,3.9C276.2,231.7,271.2,231.8,271.2,231.8z"/>
			<linearGradient id="SVGID_27_" gradientUnits="userSpaceOnUse" x1="297.1698" y1="232.114" x2="293.3306" y2="225.3012">
				<stop  offset="3.535350e-02" style="stop-color:#9D9EB3"/>
				<stop  offset="0.5808" style="stop-color:#D4D1D8"/>
				<stop  offset="1" style="stop-color:#EEEBF2"/>
			</linearGradient>
			<path style="fill:url(#SVGID_27_);" d="M285.2,232.3c0,0,1.6-5.7,5.1-6.4c3.4-0.7,6.4-0.3,8.7-1.3c2.3-1,3.5-3,3.5-3
				s2.6,0.7,0.7,3.1C301.3,227,285.2,232.3,285.2,232.3z"/>
			<path style="opacity:0.3;" d="M270.8,239.5c1,2,1.6,3,1.6,3l26.3-1.5c0,0,20.2-0.9,19.4-9.1c-4.9,1.2-17.1,6.2-28.3,6.8
				C279.7,239.3,273.5,239.5,270.8,239.5z"/>
			<path style="opacity:0.3;" d="M286,294.8l-7.9-1.1c0,0-2,30.8-2.7,42.5c-0.7,11.8,3.1,29.1,4.3,34.1c1.1,5-2.2,10.6-2.6,12.2
				c-0.4,1.4,1.5,5.3,5.2,8.4c-0.6-6.6,0-13.4,0.4-18.1c0.5-5.4-3.6-25.1-2.5-36.8C281.1,325.8,285,301.1,286,294.8z"/>
			<linearGradient id="SVGID_28_" gradientUnits="userSpaceOnUse" x1="274.5732" y1="266.9809" x2="320.6859" y2="266.9809">
				<stop  offset="3.535350e-02" style="stop-color:#138BBD"/>
				<stop  offset="0.2257" style="stop-color:#169AC7"/>
				<stop  offset="0.5946" style="stop-color:#1FC3DF"/>
				<stop  offset="1" style="stop-color:#2AF6FF"/>
			</linearGradient>
			<path style="fill:url(#SVGID_28_);" d="M297.9,226.9c3.1-1,6.4-3,6.4-3s4.8-0.1,7.6,0.3c2.8,0.4,7,3,6.7,8.2
				c-0.3,5.2-1.4,11.9-3.1,19.2c-1.7,7.3-1.7,12.6-0.3,19.9c1.3,7.3,5.9,23.3,5.6,25c-0.3,1.7-4.3,7.9-13.4,11.1
				c-9.1,3.2-24.3,4-30.4-3.1s1.8-31.2,2.1-43c0.3-11.8-4-16.8,1-22.9c5-6.1,10.6-9.8,13.8-10.6
				C297.1,227.3,297.9,226.9,297.9,226.9z"/>
			<path style="opacity:0.3;" d="M284.8,232.7c1.5-1.9,4.4-4.6,7.1-4.9c2.7-0.3,7.9-1.4,9.7-2.7c2-1.5,2.2-2.7,2.2-2.7l4.1,1.5
				c0,0,0.4,4.8-5.3,6.6c-5.7,1.7-12.1,1.7-16.3,4.1c-3.9,2.3-6.3,4.5-6.3,4.5L284.8,232.7z"/>
			<linearGradient id="SVGID_29_" gradientUnits="userSpaceOnUse" x1="286.6032" y1="250.4906" x2="297.8952" y2="221.4326">
				<stop  offset="3.535350e-02" style="stop-color:#138BBD"/>
				<stop  offset="0.2257" style="stop-color:#169AC7"/>
				<stop  offset="0.5946" style="stop-color:#1FC3DF"/>
				<stop  offset="1" style="stop-color:#2AF6FF"/>
			</linearGradient>
			<path style="fill:url(#SVGID_29_);" d="M284.8,232.7c1.5-1.9,4.4-4.6,7.1-4.9c2.7-0.3,7.9-1.4,9.7-2.7c2-1.5,2.2-2.7,2.2-2.7
				l4.1,1.5c0,0-0.1,4-5.8,5.7c-5.7,1.7-13.1,2.2-16.7,4.9c-3.6,2.7-5.4,4.5-5.4,4.5L284.8,232.7z"/>
			<radialGradient id="SVGID_30_" cx="295.1458" cy="233.1701" r="11.2584" gradientUnits="userSpaceOnUse">
				<stop  offset="0" style="stop-color:#FFFFFF"/>
				<stop  offset="1" style="stop-color:#000000"/>
			</radialGradient>
			<path style="fill:url(#SVGID_30_);" d="M307.5,223.7c-0.1,0.8-0.8,4-5.7,5.5c-5.7,1.7-13.1,2.2-16.7,4.9c-1.4,1-2.5,1.9-3.3,2.6
				l-1.7,2.2c0,0,1.8-1.8,5.4-4.5c3.6-2.7,11-3.2,16.7-4.9c5.7-1.7,5.8-5.7,5.8-5.7L307.5,223.7z"/>
			<radialGradient id="SVGID_31_" cx="233.1316" cy="163.582" r="20.4739" gradientUnits="userSpaceOnUse">
				<stop  offset="3.030300e-02" style="stop-color:#FEDFCB"/>
				<stop  offset="1" style="stop-color:#F9B69E"/>
			</radialGradient>
			<path style="fill:url(#SVGID_31_);" d="M214.4,169.1l-1.2,2.6c0,0,3.5,5.8,6.2,7.5c2.6,1.7,5.8,3.5,6.7,2.2
				c0.9-1.3,1.9-4.9,1.9-4.9L214.4,169.1z"/>
			<radialGradient id="SVGID_32_" cx="229.5182" cy="163.7514" r="21.8391" gradientUnits="userSpaceOnUse">
				<stop  offset="3.030300e-02" style="stop-color:#FEDFCB"/>
				<stop  offset="1" style="stop-color:#F9B69E"/>
			</radialGradient>
			<path style="fill:url(#SVGID_32_);" d="M214.2,170.5l1.5,0.1c0,0,4.4,5.1,7.2,6.3c2.7,1.1,5.4,1.3,6.5-0.6
				c1.2-1.9,2.9-13.3,1.9-17.9c-1-4.5-7.4-13.1-16.7-6.9c-9.3,6.2-2.7,17.1-2.4,17.4C212.6,169.2,214.2,170.5,214.2,170.5z"/>
			<linearGradient id="SVGID_33_" gradientUnits="userSpaceOnUse" x1="208.9713" y1="158.7882" x2="231.937" y2="158.7882">
				<stop  offset="3.535350e-02" style="stop-color:#602213"/>
				<stop  offset="0.571" style="stop-color:#6D310E"/>
				<stop  offset="1" style="stop-color:#7A4108"/>
			</linearGradient>
			<path style="fill:url(#SVGID_33_);" d="M212.3,169.1c0,0-1.4-3.1-0.1-4c0.2-0.1,0.4-0.2,0.5-0.3c0.7-0.2,1.4,0.1,1.9,0.6l1.3,1.4
				c0,0,0.2-1.5,0.9-4.2c0.4-1.8,2.6-3.3,7.2-2.9c2.4,0.2,5.5,1.5,7.2,0.1c1.7-1.3,0.3-4.2-0.5-5.6c-0.8-1.4-8.7-9.5-17-3.6
				C205.4,156.6,210.1,166.9,212.3,169.1z"/>
			<path style="opacity:0.3;" d="M291.2,243c-3.9-5.8-9.5-1.2-13.6,2.8c0.1,3.9,1.6,8.6,1.4,15.8c-0.3,11.8-8.3,36-2.1,43
				c3,3.4,8,5,13.5,5.3c-0.5-2.7-0.9-5.9-1.1-9.6c-0.5-10.2,2.6-15.8,3.8-29.5C294.4,257.2,296.3,250.6,291.2,243z"/>
			<path style="opacity:0.3;" d="M306.5,208.9c-1.3,1.1-3.5,2.3-7.2,3c-3.8,0.7-7.6,0.1-10.4-0.6c0.1,0.4,0.1,0.8,0,1.1
				c-0.4,1-0.1,1.3-0.1,1.3s1.4-0.6,2,0.6c0.6,1.1-0.2,3.5-0.6,4.4c-0.4,0.9,2.7,3.7,5.3,3.9c2.6,0.2,6-0.1,7.2-1.4
				C303.7,219.9,307.6,215.7,306.5,208.9z"/>
			<g>
				<linearGradient id="SVGID_34_" gradientUnits="userSpaceOnUse" x1="280.3988" y1="344.487" x2="303.1455" y2="337.6758">
					<stop  offset="9.090910e-02" style="stop-color:#25054D"/>
					<stop  offset="0.4708" style="stop-color:#330A68"/>
					<stop  offset="0.8939" style="stop-color:#45108A"/>
				</linearGradient>
				<polygon style="fill:url(#SVGID_34_);" points="282,329.9 282,359.2 285.5,357.2 285.5,327.8 				"/>
				<linearGradient id="SVGID_35_" gradientUnits="userSpaceOnUse" x1="228.2407" y1="342.3205" x2="345.4964" y2="316.0356">
					<stop  offset="9.090910e-02" style="stop-color:#25054D"/>
					<stop  offset="0.4708" style="stop-color:#330A68"/>
					<stop  offset="0.8939" style="stop-color:#45108A"/>
				</linearGradient>
				<polygon style="fill:url(#SVGID_35_);" points="282,329.9 282,359.2 246.4,338.7 246.4,309.3 				"/>
				<linearGradient id="SVGID_36_" gradientUnits="userSpaceOnUse" x1="255.6106" y1="342.0635" x2="271.4362" y2="338.516">
					<stop  offset="3.535350e-02" style="stop-color:#FFA98C"/>
					<stop  offset="0.3169" style="stop-color:#FFB892"/>
					<stop  offset="0.8601" style="stop-color:#FEE1A3"/>
					<stop  offset="1" style="stop-color:#FEECA8"/>
				</linearGradient>
				<path style="fill:url(#SVGID_36_);" d="M265.9,340.3v2c0,0.7-0.8,1.2-1.4,0.8l-2.7-1.6c-0.6-0.3-0.9-0.9-0.9-1.6v-1.5
					c0-0.7,0.8-1.2,1.4-0.8l3.2,1.8C265.7,339.6,265.9,339.9,265.9,340.3z"/>
				<g>
					<linearGradient id="SVGID_37_" gradientUnits="userSpaceOnUse" x1="214.0678" y1="336.1266" x2="316.9552" y2="313.0626">
						<stop  offset="9.090910e-02" style="stop-color:#25054D"/>
						<stop  offset="0.4708" style="stop-color:#330A68"/>
						<stop  offset="0.8939" style="stop-color:#45108A"/>
					</linearGradient>
					<path style="fill:url(#SVGID_37_);" d="M282,329.9v8.9c0,1.1-0.9,2-2,2l-14.5,0c-1.6,0-3.1-0.7-4.1-2l-13.2-16.6
						c-1.1-1.4-1.8-3.2-1.8-5v-8L282,329.9z"/>
					<radialGradient id="SVGID_38_" cx="255.5649" cy="350.6379" r="20.6446" gradientUnits="userSpaceOnUse">
						<stop  offset="0" style="stop-color:#FFFFFF"/>
						<stop  offset="1" style="stop-color:#000000"/>
					</radialGradient>
					<path style="fill:url(#SVGID_38_);" d="M282,329.9v8.9c0,1.1-0.9,2-2,2l-14.5,0c-1.6,0-3.1-0.7-4.1-2l-13.2-16.6
						c-1.1-1.4-1.8-3.2-1.8-5v-8L282,329.9z"/>
				</g>
				<linearGradient id="SVGID_39_" gradientUnits="userSpaceOnUse" x1="270.8429" y1="309.2281" x2="265.2526" y2="319.882">
					<stop  offset="9.090910e-02" style="stop-color:#25054D"/>
					<stop  offset="0.4708" style="stop-color:#330A68"/>
					<stop  offset="0.8939" style="stop-color:#45108A"/>
				</linearGradient>
				<polygon style="fill:url(#SVGID_39_);" points="246.4,309.3 282,329.9 285.5,327.8 249.9,307.2 				"/>
				<linearGradient id="SVGID_40_" gradientUnits="userSpaceOnUse" x1="269.666" y1="322.0458" x2="264.3964" y2="312.2595">
					<stop  offset="9.090910e-02" style="stop-color:#25054D"/>
					<stop  offset="0.4708" style="stop-color:#330A68"/>
					<stop  offset="0.8939" style="stop-color:#45108A"/>
				</linearGradient>
				<path style="fill:url(#SVGID_40_);" d="M268.7,312l-4.6-2.7c-1.1-0.7-2.2-0.7-2.9-0.3l-1.1,0.6l0.2,0.9
					c-0.1,0.3-0.1,0.7-0.1,1.1v3l1,0.6l0.3,1.4l1.2-0.6v-2.7c0-1.3,0.9-1.8,2-1.1l3.6,2.1c1.1,0.6,2,2.2,2,3.4v2.7l1.1,0.6l0.2,1.4
					l1.2-0.6v-3C272.6,316.4,270.9,313.3,268.7,312z"/>
				
					<linearGradient id="SVGID_41_" gradientUnits="userSpaceOnUse" x1="-409.616" y1="3211.4033" x2="-362.1925" y2="3200.7727" gradientTransform="matrix(0.866 0.5 0 1.1547 599.5561 -3193.4656)">
					<stop  offset="9.090910e-02" style="stop-color:#25054D"/>
					<stop  offset="0.4708" style="stop-color:#330A68"/>
					<stop  offset="0.8939" style="stop-color:#45108A"/>
				</linearGradient>
				<path style="fill:url(#SVGID_41_);" d="M258.9,312.2v3l2.5,1.4V314c0-1.3,0.9-1.8,2-1.1l3.6,2.1c1.1,0.6,2,2.2,2,3.4v2.7
					l2.5,1.4v-3c0-2.5-1.8-5.6-4-6.9l-4.6-2.7C260.7,308.7,258.9,309.7,258.9,312.2z"/>
				<radialGradient id="SVGID_42_" cx="271.5275" cy="327.7951" r="13.03" gradientUnits="userSpaceOnUse">
					<stop  offset="0" style="stop-color:#FFFFFF"/>
					<stop  offset="1" style="stop-color:#000000"/>
				</radialGradient>
				<polygon style="fill:url(#SVGID_42_);" points="282.1,339.8 282.4,330.1 285.5,327.8 281.9,329.3 257.5,315.8 281.6,329.9 				
					"/>
			</g>
			
				<radialGradient id="SVGID_43_" cx="-362.9344" cy="816.0861" r="12.78" gradientTransform="matrix(0.9937 0.1122 -0.1122 0.9937 715.2724 -466.2608)" gradientUnits="userSpaceOnUse">
				<stop  offset="3.030300e-02" style="stop-color:#FEDFCB"/>
				<stop  offset="1" style="stop-color:#F9B69E"/>
			</radialGradient>
			<path style="fill:url(#SVGID_43_);" d="M267.5,298.8c0,0-3.9,4.8-5.7,8c-1,1.7-0.9,2.1-0.5,5.7c0.2,1.7,0.5,2.9,1.4,3
				c0.4,0.1,0.2-0.9,0.2-0.9s0.2,1.7,1.2,1.9c1.1,0.3,0.5-1.1,0.5-1.1s0.3,1.8,1.4,2c1.1,0.2,0.5-1.2,0.5-1.2s0.4,1.9,1.2,2.2
				c0.9,0.3,1-0.3,1-1.5c0-1.5,0.7-2.8,2-5.2c1.4-2.5,2.6-3.7,2.5-6.1c-0.1-2.4,1.8-4.4,1.8-4.4L267.5,298.8z"/>
			<linearGradient id="SVGID_44_" gradientUnits="userSpaceOnUse" x1="264.9191" y1="272.0903" x2="293.3005" y2="272.0903">
				<stop  offset="3.535350e-02" style="stop-color:#138BBD"/>
				<stop  offset="0.2257" style="stop-color:#169AC7"/>
				<stop  offset="0.5946" style="stop-color:#1FC3DF"/>
				<stop  offset="1" style="stop-color:#2AF6FF"/>
			</linearGradient>
			<path style="fill:url(#SVGID_44_);" d="M282.2,239.6c4.9-1.7,9.6,1.3,10.8,6.4c1.2,5.1-1.3,24.3-3.3,29.7
				c-1.9,5.4-14,29.3-14,29.3s-4.2-0.6-6.9-1.7c-2.6-1.2-3.9-3.6-3.9-3.6s8.3-20.6,9.9-25.4c1.6-4.8,1-17,1.5-22.4
				C277,245.3,277.5,241.3,282.2,239.6z"/>
			<path style="opacity:0.3;" d="M252.1,235.6c-0.5,0.6-0.2,2,1.5,2.1c1.7,0.2,5.5-0.3,6.9-0.3c1.4,0,8.4-2.7,8.4-2.7L252.1,235.6z"
				/>
			
				<radialGradient id="SVGID_45_" cx="-186.3682" cy="571.5563" r="17.3389" gradientTransform="matrix(0.997 7.750000e-02 -7.750000e-02 0.997 481.8658 -330.2252)" gradientUnits="userSpaceOnUse">
				<stop  offset="3.030300e-02" style="stop-color:#FEDFCB"/>
				<stop  offset="1" style="stop-color:#F9B69E"/>
			</radialGradient>
			<path style="fill:url(#SVGID_45_);" d="M260.6,232.5c-1.7,1-4.3,1.5-5.6,2.2c-1.4,0.7-2.6,0.3-2.9,0.9c-0.3,0.6-0.1,2.3,3.3,1.6
				c3.4-0.8,5.3-1.3,7.4-1.2c2,0.1,6,0,6.7-1.1c0.7-1.1-0.7-2.6-0.7-2.6L260.6,232.5z"/>
			<radialGradient id="SVGID_46_" cx="255.9133" cy="240.7894" r="8.3911" gradientUnits="userSpaceOnUse">
				<stop  offset="3.030300e-02" style="stop-color:#FEDFCB"/>
				<stop  offset="1" style="stop-color:#F9B69E"/>
			</radialGradient>
			<path style="fill:url(#SVGID_46_);" d="M249.2,242.2c-0.3-0.6,3.1-0.5,4.1-0.1c1,0.4,4.6,1.8,5.4,2.4c0.6,0.4,1.4,1-0.8,1.1
				C253.7,245.8,250.4,244.5,249.2,242.2z"/>
		</g>
		<path style="opacity:0.3;" d="M212.1,152c-6,6-1.8,15,0.2,17c0,0-1.4-3.1-0.1-4c0.2-0.1,0.4-0.2,0.5-0.3c0.7-0.2,1.4,0.1,1.9,0.6
			l1.3,1.4c0,0,0.2-1.5,0.9-4.2c0.3-1.1,1.2-2.1,2.9-2.6C216.4,159.3,211.7,155.1,212.1,152z"/>
		<g>
			<path style="opacity:0.1;" d="M188.4,389.8c-14.7,6.9-20.9,2.9-30.3-2.6c-9.4-5.4-13.4-10.4-2.3-15.8c10.8-5.2,20.9-1.2,30.4,4.2
				C195.5,381.1,196.4,386.1,188.4,389.8z"/>
			<radialGradient id="SVGID_47_" cx="192.704" cy="334.8038" r="68.0684" gradientUnits="userSpaceOnUse">
				<stop  offset="3.030300e-02" style="stop-color:#FEDFCB"/>
				<stop  offset="1" style="stop-color:#F9B69E"/>
			</radialGradient>
			<path style="fill:url(#SVGID_47_);" d="M152.4,285.9c0.2,3.7-0.2,16.8,3,25.1c3.2,8.4-0.4,13.7-1.2,18.2
				c-1.2,7.1-0.5,13.9,0.6,23.3c1.1,9.5,1,14-0.1,16c-1.1,2-0.4,4.9,5.7,6.5c6.1,1.7,13.2,1.7,12.5-3.9c-0.2-1.8-5.4,2.4-7.2-0.4
				c-1.7-2.8-3.8-7.2-2.8-17.2c1-10,2.2-16.2,2.8-21.7c0.6-5.5,1.7-12.3,2.8-19.7c1.1-7.3,2.3-29.2,2.3-29.2L152.4,285.9z"/>
			<radialGradient id="SVGID_48_" cx="197.2768" cy="333.2831" r="56.0422" gradientUnits="userSpaceOnUse">
				<stop  offset="3.030300e-02" style="stop-color:#FEDFCB"/>
				<stop  offset="1" style="stop-color:#F9B69E"/>
			</radialGradient>
			<path style="fill:url(#SVGID_48_);" d="M159,367c0-3,0.8-10.7,0.8-15.8c0-5.1,3.6-22.7,2-26.3c-2.4-5.2,0.9-12.3,0.9-15.1
				c0-2.5-0.2-21.4-0.2-25.5l-10.1,1.5c0.2,3.7-0.2,16.8,3,25.1c3.2,8.4-0.4,13.7-1.2,18.2c-1.2,7.1-0.5,13.9,0.6,23.3
				c1.1,9.5,1,14-0.1,16c-1.1,2-0.4,4.9,5.7,6.5c1.5,0.4,3.1,0.7,4.6,0.9l-1.4-0.7C163.7,375.1,159,370,159,367z"/>
			<path style="fill:#10054D;" d="M154.2,368.4c0,0-2.2,2.5-2,4.5c0.3,2,1.9,4.6,2,6.5c0.1,1.9-0.1,3.4,0,3.4
				c0.1,0.1,1.4,0.2,1.4,0.2l0.6-0.5v-6.9c0,0,3.6-0.4,5.5,1c1.9,1.4,7.4,2.5,9.7,1.5s3.9-8,3.7-9c-0.2-1.1-5.8,1.9-6.7,2.3
				c-0.9,0.4-1.2,0.5-1.2,0.5s2.9-0.8,3.6,0.2c0.7,1.1,0,3.3-2.3,3.7c-2.3,0.4-5.1-2.8-7.6-3.7C158.5,371.3,154.8,369.9,154.2,368.4
				z"/>
			<linearGradient id="SVGID_49_" gradientUnits="userSpaceOnUse" x1="166.7319" y1="262.0755" x2="253.4574" y2="242.6344">
				<stop  offset="9.090910e-02" style="stop-color:#25054D"/>
				<stop  offset="0.4708" style="stop-color:#330A68"/>
				<stop  offset="0.8939" style="stop-color:#45108A"/>
			</linearGradient>
			<polygon style="fill:url(#SVGID_49_);" points="205,246.2 199.4,276.3 181.7,266.1 187.3,236 			"/>
			<linearGradient id="SVGID_50_" gradientUnits="userSpaceOnUse" x1="167.4429" y1="262.2682" x2="250.0401" y2="243.7526">
				<stop  offset="3.535350e-02" style="stop-color:#9D9EB3"/>
				<stop  offset="0.5808" style="stop-color:#D4D1D8"/>
				<stop  offset="1" style="stop-color:#EEEBF2"/>
			</linearGradient>
			<polygon style="fill:url(#SVGID_50_);" points="203.9,247.2 198.3,277.2 181.7,266.1 187.3,236 			"/>
			<linearGradient id="SVGID_51_" gradientUnits="userSpaceOnUse" x1="168.221" y1="261.4985" x2="244.9411" y2="244.3003">
				<stop  offset="9.090910e-02" style="stop-color:#25054D"/>
				<stop  offset="0.4708" style="stop-color:#330A68"/>
				<stop  offset="0.8939" style="stop-color:#45108A"/>
			</linearGradient>
			<polygon style="fill:url(#SVGID_51_);" points="201.9,246.4 196.2,276.5 181.7,266.1 187.3,236 			"/>
			<radialGradient id="SVGID_52_" cx="206.2515" cy="324.4677" r="62.1389" gradientUnits="userSpaceOnUse">
				<stop  offset="3.030300e-02" style="stop-color:#FEDFCB"/>
				<stop  offset="1" style="stop-color:#F9B69E"/>
			</radialGradient>
			<path style="fill:url(#SVGID_52_);" d="M164.2,298.4c1.3,3.5,3,10.6,4.6,15.5c1.6,5,3.5,10.2,2.5,13.8c-0.9,3.6-3.3,9.7-3.3,17.8
				c0,8.2,0.9,25.4-0.3,28c-1.2,2.6-2.3,5-1.7,6.6c0.6,1.6,6.3,2.9,10.7,5.9c4.8,3.1,10.6-3.3,8.3-4.7c-2.3-1.4-2.7,0.3-4.4-0.8
				c-1.7-1.1-5.7-4.5-5.5-8.6c0.2-4.1,4.8-31.2,6.1-37.2c1.3-6,1.9-9.8,2.4-16.7c0.5-6.9,0.7-16.1,0-22.6
				C182.9,288.8,160.5,288.4,164.2,298.4z"/>
			<radialGradient id="SVGID_53_" cx="224.369" cy="322.2114" r="60.5929" gradientUnits="userSpaceOnUse">
				<stop  offset="3.030300e-02" style="stop-color:#FEDFCB"/>
				<stop  offset="1" style="stop-color:#F9B69E"/>
			</radialGradient>
			<path style="fill:url(#SVGID_53_);" d="M177.3,386.3l-4.3-5.4c0,0,0.9-3,0.5-4.7c-0.5-1.7-1.5-2.7-1.5-7.8s4.2-27.9,5.1-31.5
				c0.9-3.6-1.2-7.1-0.9-9.9c0.3-2.9,3.2-11.1,2.4-16.9c-0.5-3.4-1.9-12.6-3.1-19.4c0.8,0.1,1.5,0.2,2.2,0.4
				c-6.6-1.5-16.1,0.5-13.6,7.3c1.3,3.5,3,10.6,4.6,15.5c1.6,5,3.5,10.2,2.5,13.8c-0.9,3.6-3.3,9.7-3.3,17.8c0,8.2,0.9,25.4-0.3,28
				c-1.2,2.6-2.3,5-1.7,6.6c0.6,1.6,6.3,2.9,10.7,5.9c1.3,0.9,2.7,1,4,0.7C179.7,387,178.5,386.9,177.3,386.3z"/>
			<linearGradient id="SVGID_54_" gradientUnits="userSpaceOnUse" x1="150.0042" y1="295.1148" x2="204.2107" y2="295.1148">
				<stop  offset="3.535350e-02" style="stop-color:#9F19AB"/>
				<stop  offset="0.2438" style="stop-color:#AE25B1"/>
				<stop  offset="0.6455" style="stop-color:#D744BF"/>
				<stop  offset="1" style="stop-color:#FF63CE"/>
			</linearGradient>
			<path style="fill:url(#SVGID_54_);" d="M158.6,268.4l23.5,1c0,0,1.5,16.9,2,23.2c0.6,6.3,0.6,26.7,0.6,26.7s-6.6,3.4-12.3,2.3
				c-5.7-1.1-18.8-4.1-18.8-4.1s-0.5-6.3-0.8-12c-0.3-5.9-1.6-18.7,0.4-24.3C155.2,275.6,158.6,268.4,158.6,268.4z"/>
			<linearGradient id="SVGID_55_" gradientUnits="userSpaceOnUse" x1="185.5745" y1="296.1065" x2="133.6315" y2="292.493">
				<stop  offset="0" style="stop-color:#FFFFFF"/>
				<stop  offset="1" style="stop-color:#777576"/>
			</linearGradient>
			<path style="fill:url(#SVGID_55_);" d="M158.6,268.4l23.5,1c0,0,1.5,16.9,2,23.2c0.6,6.3,0.6,26.7,0.6,26.7s-6.6,3.4-12.3,2.3
				c-5.7-1.1-18.8-4.1-18.8-4.1s-0.5-6.3-0.8-12c-0.3-5.9-1.6-18.7,0.4-24.3C155.2,275.6,158.6,268.4,158.6,268.4z"/>
			<path style="fill:#10054D;" d="M166.8,375.4c0,0-2.6,2.4-2,5.2c0.6,2.8,2.1,2.9,2.1,4.9c0,2,0,5.1,0,5.1l1.2,0.5l1.3-0.5v-7.9
				c0,0,3.2,0.9,6.2,3.1c3,2.2,6.7,2.4,8.9,1.3c2.1-1.1,6.2-6.7,5.1-7.8c-1-1.1-8.8,1.2-8.8,1.2s2.9,0.3,3.4,1.8
				c0.5,1.5-2.1,3.4-4.1,2.5c-2-0.9-4.2-3.7-8.1-5.3C168.1,378,167.1,376,166.8,375.4z"/>
			<radialGradient id="SVGID_56_" cx="205.2103" cy="258.6096" r="9.4055" gradientUnits="userSpaceOnUse">
				<stop  offset="3.030300e-02" style="stop-color:#FEDFCB"/>
				<stop  offset="1" style="stop-color:#F9B69E"/>
			</radialGradient>
			<path style="fill:url(#SVGID_56_);" d="M192.7,262.8l5-2.1c0,0,1.8-2.8,3.1-3.2c1.3-0.4,2.1-0.5,2.2-0.9c0.1-0.6,0.2-1,0.2-1
				s1.8-0.3,2,1.5c0.2,1.8-0.5,1.9-0.5,1.9s0.5,0.1,0.6,0.7c0.1,0.6-0.1,1.1-0.4,1.4c-0.3,0.3-0.3,0.3-0.3,0.3s0.3,0.4,0.1,1
				c-0.2,0.7-0.9,1.1-0.9,1.1s0.1,1.3-0.6,1.5s-1.3,0.4-2.2,0.7c-1,0.3-6.5,2.2-6.5,2.2L192.7,262.8z"/>
			<radialGradient id="SVGID_57_" cx="205.2103" cy="258.331" r="9.6898" gradientUnits="userSpaceOnUse">
				<stop  offset="3.030300e-02" style="stop-color:#FEDFCB"/>
				<stop  offset="1" style="stop-color:#F9B69E"/>
			</radialGradient>
			<path style="fill:url(#SVGID_57_);" d="M197.8,261.1c0,0,0-2.7,0.8-4.1c0.8-1.4,1.7-2.9,2-3.4c0.3-0.5,1.1-1.2,1.6-0.7
				c0.4,0.3,0.3,0.6-0.1,2c-0.5,1.4,0,2.2-0.5,3.4C201,259.4,197.8,261.1,197.8,261.1z"/>
			<linearGradient id="SVGID_58_" gradientUnits="userSpaceOnUse" x1="156.5843" y1="301.4959" x2="183.6849" y2="294.5703">
				<stop  offset="3.535350e-02" style="stop-color:#9F19AB"/>
				<stop  offset="0.2438" style="stop-color:#AE25B1"/>
				<stop  offset="0.6455" style="stop-color:#D744BF"/>
				<stop  offset="1" style="stop-color:#FF63CE"/>
			</linearGradient>
			<path style="fill:url(#SVGID_58_);" d="M184.2,292.6c-0.5-5.8-1.8-20.2-2-22.8l-5,0.9c0,0-0.5,18.2-0.6,26.5
				c-0.1,6.5,0.7,19.3,1,24.4c3.9-0.6,7.1-2.3,7.1-2.3S184.7,298.9,184.2,292.6z"/>
			<linearGradient id="SVGID_59_" gradientUnits="userSpaceOnUse" x1="151.6854" y1="252.1014" x2="194.5948" y2="229.9692">
				<stop  offset="3.535350e-02" style="stop-color:#9F19AB"/>
				<stop  offset="0.2438" style="stop-color:#AE25B1"/>
				<stop  offset="0.6455" style="stop-color:#D744BF"/>
				<stop  offset="1" style="stop-color:#FF63CE"/>
			</linearGradient>
			<path style="fill:url(#SVGID_59_);" d="M154.3,229.1c-1.8,4.1-4.6,18.3-3.5,22.6c0.7,2.8,7.3,18.8,7.3,18.8l5.4-7.6L154.3,229.1z
				"/>
			<path style="opacity:0.3;" d="M154.3,229.1c-1.8,4.1-4.6,18.3-3.5,22.6c0.7,2.8,7.3,18.8,7.3,18.8l5.4-7.6L154.3,229.1z"/>
			<linearGradient id="SVGID_60_" gradientUnits="userSpaceOnUse" x1="146.5567" y1="261.9402" x2="204.3716" y2="261.4885">
				<stop  offset="3.535350e-02" style="stop-color:#9F19AB"/>
				<stop  offset="0.2438" style="stop-color:#AE25B1"/>
				<stop  offset="0.6455" style="stop-color:#D744BF"/>
				<stop  offset="1" style="stop-color:#FF63CE"/>
			</linearGradient>
			<path style="fill:url(#SVGID_60_);" d="M173.4,233c2.4,2,10,7.7,11.4,11.9c1.4,4.2,0.1,6.2-0.6,9.5c-0.8,3.6-2.3,6-1.7,12.8
				s2.2,25.4,2.5,27.6c0.3,2.2-2.1,3.1-4.3,3.5c-2.2,0.4-14.2,0.8-20.9-1.7c-6.7-2.6-8.3-3.6-8.3-5.1c0-1.6,0.1-8.8,3.3-15.4
				c3.2-6.7,4.5-13.1,4.2-16.7c-0.3-3.6-6.1-18.7-5.8-24.4c0.3-5.7,2.8-10.7,6.8-9.5C163.9,226.6,173.4,233,173.4,233z"/>
			<path style="opacity:0.17;" d="M170.7,298.4c1.2-1.1,5.7-5.3,5.9-11.5c0.3-7.2-1.1-14-2.7-14.2c-1.7-0.2-3-3-3-5.1
				c0-9.8-2.9-27.1-0.5-29.6c1.1-1.1,3.9-1.7,6.9-1.7c-1.6-1.4-3.1-2.5-3.9-3.2c0,0-9.5-6.4-13.5-7.7c-4-1.3-6.5,3.8-6.8,9.5
				c-0.3,5.7,5.5,20.8,5.8,24.4c0.3,3.6-0.9,10-4.2,16.7c-3.2,6.6-3.3,13.9-3.3,15.4c0,1.6,1.6,2.6,8.3,5.1c5.1,2,13.3,2.2,17.9,2
				C175.7,298.5,173.3,298.5,170.7,298.4z"/>
			<radialGradient id="SVGID_61_" cx="166.7476" cy="216.4453" r="14.1818" gradientUnits="userSpaceOnUse">
				<stop  offset="3.030300e-02" style="stop-color:#FEDFCB"/>
				<stop  offset="1" style="stop-color:#F9B69E"/>
			</radialGradient>
			<path style="fill:url(#SVGID_61_);" d="M164.5,200.3c5.2-1.2,11.8,1.1,13.1,7.3c1.3,6.2,0,13.1-0.8,14.3
				c-1.1,1.8-4.5,1.5-5.4,2.9c-0.9,1.5-1.6,4.7-0.8,5.8s1.9,2.2,1.9,2.2l-8.4-1l-4.8-3c0,0,2.2-4,1.2-5.8c-1-1.7-6.7-6.9-4.9-14.8
				C157.1,201.9,163,200.7,164.5,200.3z"/>
			<linearGradient id="SVGID_62_" gradientUnits="userSpaceOnUse" x1="159.7993" y1="234.9261" x2="167.6284" y2="228.5274">
				<stop  offset="3.535350e-02" style="stop-color:#9D9EB3"/>
				<stop  offset="0.5808" style="stop-color:#D4D1D8"/>
				<stop  offset="1" style="stop-color:#EEEBF2"/>
			</linearGradient>
			<path style="fill:url(#SVGID_62_);" d="M159.8,226.4c0,0,1.5,1.6,4.8,2.2c3.3,0.6,5,0.1,6.1,0.9c1.1,0.8,2.7,3.1,2.7,3.1
				s-2.1-1.7-4.4-1.8c-2.3-0.2-6.7-0.2-8.2-1.3c-1.5-1.1-1.2-1.7-1.2-2C159.4,227.1,159.8,226.4,159.8,226.4z"/>
			<path style="opacity:0.3;" d="M160.2,225.6c0,0-2.8,2.5-2.5,4.8c0.3,2.3,2.7,4.4,6.7,4.1c4.1-0.3,6.4-0.8,8.4,0.1
				c1.8,0.8,5.3,2.5,5.3,2.5s-3.6-5.9-6.7-6.4c-3.1-0.5-7.1-0.1-8.9-1s-3-1.2-3.2-2.4C159.2,226.2,160.2,225.6,160.2,225.6z"/>
			<linearGradient id="SVGID_63_" gradientUnits="userSpaceOnUse" x1="157.9448" y1="231.3754" x2="178.2263" y2="231.3754">
				<stop  offset="3.535350e-02" style="stop-color:#9F19AB"/>
				<stop  offset="0.2438" style="stop-color:#AE25B1"/>
				<stop  offset="0.6455" style="stop-color:#D744BF"/>
				<stop  offset="1" style="stop-color:#FF63CE"/>
			</linearGradient>
			<path style="fill:url(#SVGID_63_);" d="M160.2,225.6c0,0-2.6,1.4-2.3,3.7c0.3,2.3,2.7,4.4,6.7,4.1c4.1-0.3,6.6-0.4,8.5,0.5
				c1.8,0.8,5,3.2,5,3.2s-3.6-5.9-6.7-6.4c-3.1-0.5-7.1-0.1-8.9-1s-3-1.2-3.2-2.4C159.2,226.2,160.2,225.6,160.2,225.6z"/>
			<radialGradient id="SVGID_64_" cx="164.9238" cy="236.4437" r="8.0104" gradientUnits="userSpaceOnUse">
				<stop  offset="0" style="stop-color:#FFFFFF"/>
				<stop  offset="1" style="stop-color:#000000"/>
			</radialGradient>
			<path style="fill:url(#SVGID_64_);" d="M173.6,233.5c-2-0.9-4.5-0.8-8.5-0.5c-4.1,0.3-6.4-1.8-6.8-4.1c-0.1-0.7,0.1-1.4,0.4-1.9
				c-0.5,0.6-0.8,1.4-0.7,2.3c0.3,2.3,2.7,4.4,6.8,4.1c4.1-0.3,6.6-0.4,8.5,0.5c1.8,0.8,5,3.2,5,3.2s-0.3-0.6-0.9-1.3
				C176.2,235,174.7,234,173.6,233.5z"/>
			<linearGradient id="SVGID_65_" gradientUnits="userSpaceOnUse" x1="162.7826" y1="225.2704" x2="168.2764" y2="200.6096">
				<stop  offset="3.535350e-02" style="stop-color:#602213"/>
				<stop  offset="0.571" style="stop-color:#6D310E"/>
				<stop  offset="1" style="stop-color:#7A4108"/>
			</linearGradient>
			<path style="fill:url(#SVGID_65_);" d="M173.1,209c0,0,2-1.7,4.5-1.4c3.4,0.5,0.3-6.6-7.3-8.7c-5.8-1.6-14.1,0.6-15.5,7.3
				c-1.9,9.2,3.2,13.2,3.7,16.6c0.5,3.4,10.8,2.8,9.5-2.6c-0.7-2.7-1-5.2,1.2-5C171.5,215.5,171.6,210.7,173.1,209z"/>
			<linearGradient id="SVGID_66_" gradientUnits="userSpaceOnUse" x1="149.6279" y1="267.0072" x2="186.0631" y2="252.403">
				<stop  offset="3.535350e-02" style="stop-color:#9F19AB"/>
				<stop  offset="0.2438" style="stop-color:#AE25B1"/>
				<stop  offset="0.6455" style="stop-color:#D744BF"/>
				<stop  offset="1" style="stop-color:#FF63CE"/>
			</linearGradient>
			<path style="fill:url(#SVGID_66_);" d="M167.7,244.6c0,4.8,1.8,20.1,2.2,24.2c0.4,4.1,3.1,7.4,6,6.8c2.9-0.6,12.8-4.3,15.3-5.1
				c2.5-0.8,6.9-1.9,6.9-1.9s0.4-2.9-0.5-4.6c-0.9-1.7-2.1-3.1-2.1-3.1s-3.3,1-7,2c-3.3,0.9-10,2.3-10,2.3s0-10,0.8-14.6
				c0.8-4.6,2-9.9-0.6-12.5C175.5,235,167.8,236.2,167.7,244.6z"/>
			<path style="opacity:0.5;fill:#D1D3D4;" d="M192.1,267.6c-2.5,0.8-12.4,4.6-15.3,5.1c-2.9,0.6-5.6-2.8-6-6.8
				c-0.4-4.1-2.2-19.4-2.2-24.2c0-0.6,0.1-1.1,0.1-1.6c-0.6,1.2-1,2.7-1,4.5c0,4.8,1.8,20.1,2.2,24.2c0.4,4.1,3.1,7.4,6,6.8
				c2.9-0.6,12.8-4.3,15.3-5.1c2.5-0.8,6.9-1.9,6.9-1.9s0.2-1.3,0-2.6C196.7,266.3,193.9,267.1,192.1,267.6z"/>
			<path style="opacity:0.3;" d="M172.7,209.6c-8.4,0-12.8-1.4-16.9-5.7c-0.4,0.7-0.7,1.5-0.8,2.3c-1.9,9.2,3.2,13.2,3.7,16.6
				c0.5,3.4,10.8,2.8,9.5-2.6c-0.7-2.7-1-5.2,1.2-5C171.3,215.4,171.5,211.6,172.7,209.6L172.7,209.6z"/>
			<linearGradient id="SVGID_67_" gradientUnits="userSpaceOnUse" x1="157.1359" y1="223.9821" x2="157.1359" y2="206.4409">
				<stop  offset="3.535350e-02" style="stop-color:#602213"/>
				<stop  offset="0.571" style="stop-color:#6D310E"/>
				<stop  offset="1" style="stop-color:#7A4108"/>
			</linearGradient>
			<path style="fill:url(#SVGID_67_);" d="M153.2,209.2c5.2-3.2,7.7,1.5,9.2,5.8c1.5,4.3,2.7,8.1-2.8,9
				C151.9,225.3,147.6,212.6,153.2,209.2z"/>
			<path style="opacity:0.3;" d="M162.4,215c-1.1-3.2-2.8-6.7-5.8-6.8c2.8,2.7,2.7,6.3-1.3,6.6c-2,0.1-3.4-0.2-4.6-0.8
				c-0.3,4.9,3.5,11,8.9,10C165.1,223,163.9,219.2,162.4,215z"/>
		</g>
	</g>
</g>
</svg>
