<svg xmlns="http://www.w3.org/2000/svg" xmlns:xlink="http://www.w3.org/1999/xlink" width="330" height="296" viewBox="0 0 330 296"><defs><linearGradient id="a" x1="0.5" y1="1" x2="0.5" gradientUnits="objectBoundingBox"><stop offset="0" stop-color="#fff" stop-opacity="0"/><stop offset="1"/></linearGradient></defs><g transform="translate(-1231 -1377)"><rect width="330" height="296" transform="translate(1231 1377)" fill="rgba(255,234,234,0)" opacity="0.96"/><g transform="translate(1125.293 1726.205)"><g transform="translate(130.707 -269.163)"><g transform="translate(0.018 7.403)" style="mix-blend-mode:multiply;isolation:isolate"><path d="M151.518-164.545l-20.788,12.18,20.806,12.149L172.322-152.4Z" transform="translate(-130.731 164.545)" fill="url(#a)"/><path d="M151.554-112.524l-20.806-12.151-.018-24.083,20.806,12.149Z" transform="translate(-130.731 160.939)" fill="url(#a)"/><path d="M157.715-112.533l20.786-12.18-.018-24.084L157.7-136.618Z" transform="translate(-136.891 160.948)" fill="url(#a)"/><path d="M160.333-132.441l.008,8.847,2.558-7.255,6.542-6.728Z" transform="translate(-137.493 158.384)" opacity="0.3" fill="url(#a)"/><path d="M163.691-156.379l-7.863-4.771-8.589,4.784,8.591-1.865Z" transform="translate(-134.502 163.769)" opacity="0.3" fill="url(#a)"/></g><path d="M151.495-174.14,130.707-161.96l20.805,12.15L172.3-161.99Z" transform="translate(-130.707 174.14)" fill="#38b9fa"/><path d="M151.53-122.118,130.724-134.27l-.017-24.084,20.805,12.15Z" transform="translate(-130.707 170.534)" fill="#25a3e5"/><path d="M157.69-122.128l20.787-12.181-.017-24.084-20.788,12.18Z" transform="translate(-136.867 170.543)" fill="#58c6ff"/></g><g transform="translate(369.08 -269.373)"><g transform="translate(0.018 7.403)" style="mix-blend-mode:multiply;isolation:isolate"><path d="M460.473-246.471l-20.788,12.18,20.806,12.149,20.786-12.179Z" transform="translate(-439.685 246.471)" fill="url(#a)"/><path d="M460.508-194.45,439.7-206.6l-.017-24.083,20.806,12.149Z" transform="translate(-439.685 242.864)" fill="url(#a)"/><path d="M466.669-194.459l20.786-12.18-.017-24.084-20.786,12.179Z" transform="translate(-445.845 242.873)" fill="url(#a)"/><path d="M469.287-214.367l.007,8.847,2.559-7.255,6.542-6.728Z" transform="translate(-446.447 240.31)" opacity="0.3" fill="url(#a)"/><path d="M472.645-238.3l-7.863-4.771-8.589,4.784,8.59-1.865Z" transform="translate(-443.456 245.695)" opacity="0.3" fill="url(#a)"/></g><path d="M460.448-256.066l-20.787,12.18,20.805,12.15,20.787-12.18Z" transform="translate(-439.661 256.066)" fill="#fa5b37"/><path d="M460.484-204.044,439.678-216.2l-.017-24.084,20.805,12.15Z" transform="translate(-439.661 252.46)" fill="#e64825"/><path d="M466.644-204.053l20.787-12.181-.017-24.084-20.787,12.18Z" transform="translate(-445.822 252.469)" fill="#ff7859"/></g><g transform="translate(162.083 -238.829)"><line x2="30.582" y2="17.932" transform="translate(0 1.199)" fill="none" stroke="#1a1a1a" stroke-linecap="round" stroke-linejoin="round" stroke-width="2.952" opacity="0.4"/><line x2="30.582" y2="17.932" transform="translate(0.09)" fill="none" stroke="#fff" stroke-linecap="round" stroke-linejoin="round" stroke-width="2.97"/></g><g transform="translate(233.253 -301.191)" style="mix-blend-mode:multiply;isolation:isolate"><path d="M300.449-297.3l-36.833,21.591,36.864,21.536,36.832-21.589Z" transform="translate(-263.616 297.305)" fill="url(#a)"/><path d="M300.511-205.087l-36.864-21.54-.031-42.693,36.864,21.536Z" transform="translate(-263.616 290.912)" fill="url(#a)"/><path d="M311.449-205.1,348.28-226.7l-.03-42.693L311.418-247.8Z" transform="translate(-274.554 290.928)" fill="url(#a)"/><path d="M316.092-240.394l.012,15.681,4.534-12.862L332.23-249.5Z" transform="translate(-275.623 286.384)" opacity="0.8" fill="url(#a)"/><path d="M322.031-282.828,308.1-291.286l-15.219,8.479,15.223-3.3Z" transform="translate(-270.312 295.93)" opacity="0.8" fill="url(#a)"/></g><g transform="translate(302.092 -244.907)" style="mix-blend-mode:multiply;isolation:isolate"><path d="M389.777-224.356,352.839-202.71l36.967,21.592,36.945-21.646Z" transform="translate(-352.839 224.356)" fill="url(#a)"/><path d="M389.84-131.908,352.871-153.5l-.032-42.8,36.967,21.592Z" transform="translate(-352.839 217.946)" fill="url(#a)"/><path d="M400.786-131.924l36.943-21.644-.032-42.8-36.945,21.646Z" transform="translate(-363.785 217.962)" fill="url(#a)"/><path d="M405.064-167.32l.011,16.961,4.907-13.911,12.543-12.9Z" transform="translate(-364.77 213.576)" opacity="0.3" fill="url(#a)"/><path d="M411.5-209.939l-15.075-9.148-16.47,9.172,16.471-3.574Z" transform="translate(-359.034 223.152)" opacity="0.3" fill="url(#a)"/></g><g transform="translate(348.064 -238.082)"><line x1="30.582" y2="17.931" transform="translate(0.09 1.199)" fill="none" stroke="#1a1a1a" stroke-linecap="round" stroke-linejoin="round" stroke-width="2.952" opacity="0.4"/><line x1="30.582" y2="17.932" fill="none" stroke="#fff" stroke-linecap="round" stroke-linejoin="round" stroke-width="2.97"/></g><g transform="translate(233.058 -312.03)"><g transform="translate(0 0)"><path d="M389.733-241.365l-36.938,21.646,36.97,21.592,36.945-21.645Z" transform="translate(-352.795 241.365)" fill="#1d7aed"/><path d="M389.8-148.917l-36.967-21.589-.034-42.8,36.97,21.592Z" transform="translate(-352.795 234.955)" fill="#136bd8"/><path d="M400.743-148.932l36.945-21.644-.031-42.8-36.945,21.645Z" transform="translate(-363.742 234.971)" fill="#4a9bff"/></g></g><g transform="translate(221.031 -258.945)"><line x1="36.511" y1="20.9" transform="translate(67.562 1.279)" fill="none" stroke="#1a1a1a" stroke-linecap="round" stroke-linejoin="round" stroke-width="2.952" opacity="0.4"/><line x1="36.51" y1="20.899" transform="translate(67.473 0.081)" fill="none" stroke="#fff" stroke-linecap="round" stroke-linejoin="round" stroke-width="2.97"/><line x1="30.583" y2="17.932" transform="translate(0.09 1.199)" fill="none" stroke="#1a1a1a" stroke-linecap="round" stroke-linejoin="round" stroke-width="2.952" opacity="0.4"/><line x1="30.583" y2="17.932" fill="none" stroke="#fff" stroke-linecap="round" stroke-linejoin="round" stroke-width="2.97"/></g><g transform="translate(302.058 -258.03)"><g transform="translate(0 0)"><path d="M389.733-241.365l-36.938,21.646,36.97,21.592,36.945-21.645Z" transform="translate(-352.795 241.365)" fill="#1d7aed"/><path d="M389.8-148.917l-36.967-21.589-.034-42.8,36.97,21.592Z" transform="translate(-352.795 234.955)" fill="#136bd8"/><path d="M400.743-148.932l36.945-21.644-.031-42.8-36.945,21.645Z" transform="translate(-363.742 234.971)" fill="#4a9bff"/></g></g><line y1="31.763" x2="54.306" transform="translate(263.767 -199.853)" fill="none" stroke="#1a1a1a" stroke-linecap="round" stroke-linejoin="round" stroke-width="2.952" opacity="0.4"/><line y1="31.044" x2="52.985" transform="translate(265.685 -201.427)" fill="none" stroke="#fff" stroke-linecap="round" stroke-linejoin="round" stroke-width="2.97"/><g transform="translate(163.94 -258.021)"><g transform="translate(0.033 13.123)" style="mix-blend-mode:multiply;isolation:isolate"><path d="M300.1-143.987l-36.85,21.592,36.881,21.537,36.848-21.591Z" transform="translate(-263.254 143.987)" fill="url(#a)"/><path d="M300.166-51.77,263.284-73.31,263.254-116l36.881,21.537Z" transform="translate(-263.254 137.593)" fill="url(#a)"/><path d="M311.086-51.786l36.847-21.592-.031-42.693L311.055-94.481Z" transform="translate(-274.174 137.609)" fill="url(#a)"/><path d="M315.728-87.078l.013,15.683,4.537-12.861,11.6-11.927Z" transform="translate(-275.242 133.066)" opacity="0.3" fill="url(#a)"/><path d="M321.681-129.51l-13.938-8.458-15.226,8.481,15.229-3.305Z" transform="translate(-269.939 142.611)" opacity="0.3" fill="url(#a)"/></g><path d="M300.061-161,263.211-139.4l36.881,21.537,36.85-21.591Z" transform="translate(-263.211 160.995)" fill="#fa5b37"/><path d="M300.124-68.778l-36.881-21.54-.031-42.693,36.881,21.537Z" transform="translate(-263.211 154.602)" fill="#e64825"/><path d="M311.044-68.794l36.848-21.593-.029-42.694-36.85,21.591Z" transform="translate(-274.131 154.618)" fill="#ff7859"/></g><line x1="54.306" y1="31.762" transform="translate(221.324 -200.412)" fill="none" stroke="#1a1a1a" stroke-linecap="round" stroke-linejoin="round" stroke-width="2.952" opacity="0.4"/><line x1="52.984" y1="31.046" transform="translate(220.728 -201.987)" fill="none" stroke="#fff" stroke-linecap="round" stroke-linejoin="round" stroke-width="2.97"/><g transform="translate(232.94 -196.021)"><g transform="translate(0.033 13.123)" style="mix-blend-mode:multiply;isolation:isolate"><path d="M300.1-143.987l-36.85,21.592,36.881,21.537,36.848-21.591Z" transform="translate(-263.254 143.987)" fill="url(#a)"/><path d="M300.166-51.77,263.284-73.31,263.254-116l36.881,21.537Z" transform="translate(-263.254 137.593)" fill="url(#a)"/><path d="M311.086-51.786l36.847-21.592-.031-42.693L311.055-94.481Z" transform="translate(-274.174 137.609)" fill="url(#a)"/><path d="M315.728-87.078l.013,15.683,4.537-12.861,11.6-11.927Z" transform="translate(-275.242 133.066)" opacity="0.3" fill="url(#a)"/><path d="M321.681-129.51l-13.938-8.458-15.226,8.481,15.229-3.305Z" transform="translate(-269.939 142.611)" opacity="0.3" fill="url(#a)"/></g><path d="M300.061-161,263.211-139.4l36.881,21.537,36.85-21.591Z" transform="translate(-263.211 160.995)" fill="#fa5b37"/><path d="M300.124-68.778l-36.881-21.54-.031-42.693,36.881,21.537Z" transform="translate(-263.211 154.602)" fill="#e64825"/><path d="M311.044-68.794l36.848-21.593-.029-42.694-36.85,21.591Z" transform="translate(-274.131 154.618)" fill="#ff7859"/></g><g transform="translate(289.573 -143.186)"><line x2="30.582" y2="17.932" transform="translate(0 1.2)" fill="none" stroke="#1a1a1a" stroke-linecap="round" stroke-linejoin="round" stroke-width="2.952" opacity="0.4"/><line x2="30.582" y2="17.932" transform="translate(0.09)" fill="none" stroke="#fff" stroke-linecap="round" stroke-linejoin="round" stroke-width="2.97"/></g><g transform="translate(295.382 -144.219)"><g transform="translate(0.018 7.403)" style="mix-blend-mode:multiply;isolation:isolate"><path d="M364.953-84.26l-20.788,12.18L364.971-59.93l20.786-12.18Z" transform="translate(-344.165 84.26)" fill="url(#a)"/><path d="M364.989-32.238,344.182-44.389l-.017-24.083,20.806,12.149Z" transform="translate(-344.165 80.653)" fill="url(#a)"/><path d="M371.149-32.247l20.786-12.18-.017-24.084-20.786,12.18Z" transform="translate(-350.326 80.662)" fill="url(#a)"/><path d="M373.768-52.156l.007,8.847,2.559-7.254,6.542-6.728Z" transform="translate(-350.928 78.099)" opacity="0.3" fill="url(#a)"/><path d="M377.126-76.093l-7.863-4.771-8.589,4.784,8.59-1.865Z" transform="translate(-347.937 83.484)" opacity="0.3" fill="url(#a)"/></g><path d="M364.929-93.854l-20.787,12.18,20.805,12.15L385.734-81.7Z" transform="translate(-344.142 93.854)" fill="#fa5b37"/><path d="M364.964-41.832,344.159-53.984l-.017-24.083,20.805,12.15Z" transform="translate(-344.142 90.248)" fill="#e64825"/><path d="M371.125-41.841l20.787-12.181-.017-24.084-20.787,12.18Z" transform="translate(-350.302 90.257)" fill="#ff7859"/></g><g transform="translate(150.759 -205.166)"><line x1="30.583" y2="17.932" transform="translate(0.09 1.199)" fill="none" stroke="#1a1a1a" stroke-linecap="round" stroke-linejoin="round" stroke-width="2.952" opacity="0.4"/><line x1="30.583" y2="17.932" fill="none" stroke="#fff" stroke-linecap="round" stroke-linejoin="round" stroke-width="2.97"/></g><g transform="translate(359.387 -204.419)"><line x2="30.583" y2="17.932" transform="translate(0 1.199)" fill="none" stroke="#1a1a1a" stroke-linecap="round" stroke-linejoin="round" stroke-width="2.952" opacity="0.4"/><line x2="30.582" y2="17.932" transform="translate(0.091)" fill="none" stroke="#fff" stroke-linecap="round" stroke-linejoin="round" stroke-width="2.97"/></g><g transform="translate(219.418 -142.76)"><line x1="30.583" y2="17.932" transform="translate(0.09 1.199)" fill="none" stroke="#1a1a1a" stroke-linecap="round" stroke-linejoin="round" stroke-width="2.952" opacity="0.4"/><line x1="30.583" y2="17.932" fill="none" stroke="#fff" stroke-linecap="round" stroke-linejoin="round" stroke-width="2.97"/></g><g transform="translate(130.707 -206.163)"><g transform="translate(0.018 7.403)" style="mix-blend-mode:multiply;isolation:isolate"><path d="M151.518-164.545l-20.788,12.18,20.806,12.149L172.322-152.4Z" transform="translate(-130.731 164.545)" fill="url(#a)"/><path d="M151.554-112.524l-20.806-12.151-.018-24.083,20.806,12.149Z" transform="translate(-130.731 160.939)" fill="url(#a)"/><path d="M157.715-112.533l20.786-12.18-.018-24.084L157.7-136.618Z" transform="translate(-136.891 160.948)" fill="url(#a)"/><path d="M160.333-132.441l.008,8.847,2.558-7.255,6.542-6.728Z" transform="translate(-137.493 158.384)" opacity="0.3" fill="url(#a)"/><path d="M163.691-156.379l-7.863-4.771-8.589,4.784,8.591-1.865Z" transform="translate(-134.502 163.769)" opacity="0.3" fill="url(#a)"/></g><path d="M151.495-174.14,130.707-161.96l20.805,12.15L172.3-161.99Z" transform="translate(-130.707 174.14)" fill="#38b9fa"/><path d="M151.53-122.118,130.724-134.27l-.017-24.084,20.805,12.15Z" transform="translate(-130.707 170.534)" fill="#25a3e5"/><path d="M157.69-122.128l20.787-12.181-.017-24.084-20.788,12.18Z" transform="translate(-136.867 170.543)" fill="#58c6ff"/></g><g transform="translate(201.707 -145.163)"><g transform="translate(0.018 7.403)" style="mix-blend-mode:multiply;isolation:isolate"><path d="M151.518-164.545l-20.788,12.18,20.806,12.149L172.322-152.4Z" transform="translate(-130.731 164.545)" fill="url(#a)"/><path d="M151.554-112.524l-20.806-12.151-.018-24.083,20.806,12.149Z" transform="translate(-130.731 160.939)" fill="url(#a)"/><path d="M157.715-112.533l20.786-12.18-.018-24.084L157.7-136.618Z" transform="translate(-136.891 160.948)" fill="url(#a)"/><path d="M160.333-132.441l.008,8.847,2.558-7.255,6.542-6.728Z" transform="translate(-137.493 158.384)" opacity="0.3" fill="url(#a)"/><path d="M163.691-156.379l-7.863-4.771-8.589,4.784,8.591-1.865Z" transform="translate(-134.502 163.769)" opacity="0.3" fill="url(#a)"/></g><path d="M151.495-174.14,130.707-161.96l20.805,12.15L172.3-161.99Z" transform="translate(-130.707 174.14)" fill="#38b9fa"/><path d="M151.53-122.118,130.724-134.27l-.017-24.084,20.805,12.15Z" transform="translate(-130.707 170.534)" fill="#25a3e5"/><path d="M157.69-122.128l20.787-12.181-.017-24.084-20.788,12.18Z" transform="translate(-136.867 170.543)" fill="#58c6ff"/></g><g transform="translate(368.707 -206.163)"><g transform="translate(0.018 7.403)" style="mix-blend-mode:multiply;isolation:isolate"><path d="M151.518-164.545l-20.788,12.18,20.806,12.149L172.322-152.4Z" transform="translate(-130.731 164.545)" fill="url(#a)"/><path d="M151.554-112.524l-20.806-12.151-.018-24.083,20.806,12.149Z" transform="translate(-130.731 160.939)" fill="url(#a)"/><path d="M157.715-112.533l20.786-12.18-.018-24.084L157.7-136.618Z" transform="translate(-136.891 160.948)" fill="url(#a)"/><path d="M160.333-132.441l.008,8.847,2.558-7.255,6.542-6.728Z" transform="translate(-137.493 158.384)" opacity="0.3" fill="url(#a)"/><path d="M163.691-156.379l-7.863-4.771-8.589,4.784,8.591-1.865Z" transform="translate(-134.502 163.769)" opacity="0.3" fill="url(#a)"/></g><path d="M151.495-174.14,130.707-161.96l20.805,12.15L172.3-161.99Z" transform="translate(-130.707 174.14)" fill="#38b9fa"/><path d="M151.53-122.118,130.724-134.27l-.017-24.084,20.805,12.15Z" transform="translate(-130.707 170.534)" fill="#25a3e5"/><path d="M157.69-122.128l20.787-12.181-.017-24.084-20.788,12.18Z" transform="translate(-136.867 170.543)" fill="#58c6ff"/></g></g></g></svg>