<?xml version="1.0" encoding="utf-8"?>
<!-- Generator: Adobe Illustrator 24.1.2, SVG Export Plug-In . SVG Version: 6.00 Build 0)  -->
<svg version="1.1" id="Layer_1" xmlns="http://www.w3.org/2000/svg" xmlns:xlink="http://www.w3.org/1999/xlink" x="0px" y="0px"
	 viewBox="0 0 522.8 204" style="enable-background:new 0 0 522.8 204;" xml:space="preserve">
<style type="text/css">
	.st0{fill:#FFFFFF;}
</style>
<g id="XMLID_537_">
	<g id="XMLID_546_">
		<polygon id="XMLID_579_" class="st0" points="245.1,160.7 221.9,160.7 221.9,65.8 176.7,65.8 176.7,43.5 290.2,43.5 290.2,65.8 
			245.1,65.8 		"/>
		<path id="XMLID_576_" class="st0" d="M353.7,43.5c15.7,0,24.5,5.5,29.2,10.2c4.6,4.4,9.5,12.2,9.5,25.4c0,13.3-5.1,21.5-9.7,26.5
			c-8.8,9.3-20.6,10.2-27,10.2h-45.1v44.9h-23.4V43.5H353.7z M351.7,93.2c3.3,0,8.8-0.4,12.4-3.3c0.9-0.9,4.4-4.2,4.4-11.1
			c0-6-2.4-8.4-4-10c-3.3-2.9-7.5-3.1-11.7-3.1h-42.2v27.4H351.7z"/>
		<g id="XMLID_548_">
			<path id="XMLID_575_" class="st0" d="M184.1,186.8c-0.2-1-1-2.4-3-2.4c-1.6,0-2.6,1-2.6,2.2c0,1,0.6,1.7,1.8,2l2.2,0.5
				c2.7,0.5,4.2,2.3,4.2,4.4c0,2.4-1.9,4.7-5.4,4.7c-3.9,0-5.7-2.5-5.9-4.7l2.4-0.7c0.2,1.6,1.3,3.1,3.5,3.1c1.8,0,2.8-0.9,2.8-2.1
				c0-1-0.7-1.8-2.1-2.1l-2.2-0.5c-2.3-0.5-3.9-2-3.9-4.3c0-2.6,2.4-4.7,5.2-4.7c3.6,0,5,2.2,5.4,3.9L184.1,186.8z"/>
			<path id="XMLID_572_" class="st0" d="M200.4,182.2c4,0,7.8,3,7.8,8c0,5.1-3.8,8-7.8,8c-4,0-7.8-3-7.8-8
				C192.6,185.1,196.4,182.2,200.4,182.2z M200.4,195.7c2.6,0,5.2-1.8,5.2-5.6c0-3.7-2.6-5.6-5.2-5.6c-2.6,0-5.1,1.8-5.1,5.6
				C195.3,193.9,197.8,195.7,200.4,195.7z"/>
			<polygon id="XMLID_571_" class="st0" points="215.3,197.9 215.3,182.5 224.9,182.5 224.9,185 217.9,185 217.9,189.3 224.2,189.3 
				224.2,191.7 217.9,191.7 217.9,197.9 			"/>
			<polygon id="XMLID_570_" class="st0" points="238.5,185 238.5,197.9 235.9,197.9 235.9,185 230.9,185 230.9,182.5 243.5,182.5 
				243.5,185 			"/>
			<polygon id="XMLID_569_" class="st0" points="267.6,182.5 270.3,182.5 266,197.9 263.3,197.9 259.6,186.3 255.9,197.9 
				253.2,197.9 248.8,182.5 251.6,182.5 254.7,193.7 258.3,182.5 261,182.5 264.6,193.8 			"/>
			<path id="XMLID_566_" class="st0" d="M284.9,194h-6.5l-1.4,3.9h-2.8l6-15.4h3l6,15.4h-2.8L284.9,194z M279.3,191.6h4.7l-2.3-6.3
				L279.3,191.6z"/>
			<path id="XMLID_563_" class="st0" d="M300.1,191.8h-1.9v6.1h-2.6v-15.4h5.9c3,0,4.8,2.1,4.8,4.7c0,2.2-1.3,3.9-3.5,4.4l3.5,6.3
				h-3L300.1,191.8z M301,189.5c1.6,0,2.6-0.9,2.6-2.3c0-1.4-1-2.4-2.6-2.4h-2.8v4.7L301,189.5L301,189.5z"/>
			<polygon id="XMLID_562_" class="st0" points="313.4,197.9 313.4,182.5 322.9,182.5 322.9,184.9 316,184.9 316,189 322.3,189 
				322.3,191.4 316,191.4 316,195.5 322.9,195.5 322.9,197.9 			"/>
			<path id="XMLID_561_" class="st0" d="M347.9,186.8c-0.2-1-1-2.4-3-2.4c-1.6,0-2.6,1-2.6,2.2c0,1,0.6,1.7,1.8,2l2.2,0.5
				c2.7,0.5,4.2,2.3,4.2,4.4c0,2.4-1.9,4.7-5.4,4.7c-3.9,0-5.7-2.5-5.9-4.7l2.4-0.7c0.2,1.6,1.3,3.1,3.5,3.1c1.8,0,2.8-0.9,2.8-2.1
				c0-1-0.7-1.8-2.1-2.1l-2.2-0.5c-2.3-0.5-3.9-2-3.9-4.3c0-2.6,2.4-4.7,5.2-4.7c3.6,0,5,2.2,5.4,3.9L347.9,186.8z"/>
			<path id="XMLID_558_" class="st0" d="M364.2,182.2c4,0,7.8,3,7.8,8c0,5.1-3.8,8-7.8,8c-4,0-7.8-3-7.8-8
				C356.4,185.1,360.2,182.2,364.2,182.2z M364.2,195.7c2.6,0,5.2-1.8,5.2-5.6c0-3.7-2.6-5.6-5.2-5.6c-2.6,0-5.1,1.8-5.1,5.6
				C359.1,193.9,361.7,195.7,364.2,195.7z"/>
			<polygon id="XMLID_557_" class="st0" points="379.2,197.9 379.2,182.5 381.8,182.5 381.8,195.4 388.8,195.4 388.8,197.9 			"/>
			<path id="XMLID_556_" class="st0" d="M395.1,192.5v-10h2.6v9.9c0,2.2,1.2,3.4,3.1,3.4c2,0,3.1-1.2,3.1-3.4v-9.9h2.6v10
				c0,3.7-2.5,5.7-5.7,5.7C397.7,198.2,395.1,196.2,395.1,192.5z"/>
			<polygon id="XMLID_555_" class="st0" points="420.5,185 420.5,197.9 417.9,197.9 417.9,185 412.9,185 412.9,182.5 425.5,182.5 
				425.5,185 			"/>
			<rect id="XMLID_554_" x="432" y="182.5" class="st0" width="2.6" height="15.4"/>
			<path id="XMLID_551_" class="st0" d="M449.5,182.2c4,0,7.8,3,7.8,8c0,5.1-3.8,8-7.8,8s-7.8-3-7.8-8
				C441.7,185.1,445.5,182.2,449.5,182.2z M449.5,195.7c2.6,0,5.2-1.8,5.2-5.6c0-3.7-2.6-5.6-5.2-5.6c-2.6,0-5.1,1.8-5.1,5.6
				C444.4,193.9,447,195.7,449.5,195.7z"/>
			<polygon id="XMLID_550_" class="st0" points="474.7,197.9 467.1,186.2 467.1,197.9 464.5,197.9 464.5,182.5 467.8,182.5 
				474.8,193.4 474.8,182.5 477.4,182.5 477.4,197.9 			"/>
			<path id="XMLID_549_" class="st0" d="M493.1,186.8c-0.2-1-1-2.4-3-2.4c-1.6,0-2.6,1-2.6,2.2c0,1,0.6,1.7,1.8,2l2.2,0.5
				c2.7,0.5,4.2,2.3,4.2,4.4c0,2.4-1.9,4.7-5.4,4.7c-3.9,0-5.7-2.5-5.9-4.7l2.4-0.7c0.2,1.6,1.3,3.1,3.5,3.1c1.8,0,2.8-0.9,2.8-2.1
				c0-1-0.7-1.8-2.1-2.1l-2.2-0.5c-2.3-0.5-3.9-2-3.9-4.3c0-2.6,2.4-4.7,5.2-4.7c3.6,0,5,2.2,5.4,3.9L493.1,186.8z"/>
		</g>
		<path id="XMLID_547_" class="st0" d="M486,99c-7.7-6.9-19.7-10.2-32.1-11.3l-15.7-1.3c-12.2-1.1-16.4-2-19-2.9
			c-1.8-0.7-6.6-2.7-6.6-7.7c0-3.3,1.8-6.9,7.1-9.3c2.9-1.5,7.5-2.9,16.1-2.9c8,0,17,1.5,24.1,4c3.2,1.1,6.4,2.5,9.6,4.1l17.2-17.2
			c-5.5-3.5-11-5.8-17.4-7.9c-11.3-4.2-21.5-5.5-32.3-5.5c-18.6,0-29.6,5.1-36.1,10.4c-6,5.1-12.4,13.1-12.4,26.3
			c0,8.6,2.9,14.2,7.1,18.4c6.9,7.1,18.6,10.8,33.8,11.9l17.3,1.3c5.3,0.7,11.1,0.7,17,3.1c3.5,1.5,9.3,4.4,9.3,11.7
			c0,3.8-1.5,9.1-8.4,12.8c-5.5,3.3-12.8,4.2-19.9,4.2c-10,0-17.9-1.3-26.1-4.6c-3.1-1.3-6.1-2.8-9-4.4L391.9,150
			c5.2,3.3,10.8,5.9,16.9,8.1c10.8,3.8,22.6,5.5,34.7,5.5c10.6,0,27-1.1,39.8-11.5c11.5-9.5,13.9-21,13.9-29
			C497.2,110.7,491,103.2,486,99z"/>
	</g>
	<path id="XMLID_545_" class="st0" d="M142,22.5C129.4,10,111.5,5.2,92.7,7.4c11.1-0.6,20.8,2.4,27.7,9.2
		c18.5,18.2,9.7,57-19.5,86.7c-29.2,29.7-67.9,39.1-86.4,21c-6.9-6.8-10-16.5-9.7-27.6c-1.8,18.9,3.3,36.7,16,49.1
		c26.2,25.8,74.6,19,108-15C162.3,96.7,168.2,48.3,142,22.5z"/>
	<path id="XMLID_543_" class="st0" d="M86.1,8.7C69.6,12,52.7,20.3,38.2,33.6c-0.9,4.3-2.7,20.2,12.7,44.2c3.4-4.5,7.2-8.9,11.5-13
		c19.2-18.9,42.2-29.2,60.9-29.2C114,5.6,89.2,8.2,86.1,8.7z"/>
	<path id="XMLID_540_" class="st0" d="M41.3,17.2c6.8-6.9,16.5-10,27.6-9.7c-18.9-1.8-36.7,3.3-49.1,16c-23,23.4-20.1,64.6,5.2,97
		c5.3,3.7,22.1,11.8,53.8-3.4c-5.7-3.8-11.2-8.3-16.5-13.5C32.5,74.4,23.2,35.7,41.3,17.2z M158.4,97.4c0-0.8-0.1-1.5-0.2-2
		c0,0.1,0,0.3,0,0.4c0,0,0.1,1.3-0.2,3.5c-0.5,4.8-2.1,13.3-7.7,22c-3.8,6.3-9.5,13.1-17.9,19.4l0,0c-15.5,12.2-33.1,17.1-40.3,18.7
		c-0.2,0-0.4,0.1-0.6,0.1c-0.1,0-0.2,0-0.3,0.1c-0.2,0.1-0.5,0.1-0.7,0.1c-0.1,0-0.3,0.1-0.4,0.1c-0.1,0-0.2,0-0.3,0.1
		c-0.8,0.1-1.2,0.2-1.2,0.2c20.9,3.5,40.9-1.4,54.5-15.3C155.1,132.5,160,115.5,158.4,97.4z"/>
	<g id="XMLID_589_">
		<path id="XMLID_590_" class="st0" d="M520.5,154.5c0,6.1-4.9,11-11,11c-6.1,0-11-4.9-11-11c0-6.1,4.9-11,11-11
			C515.6,143.5,520.5,148.5,520.5,154.5z M501,154.5c0,4.7,3.8,8.5,8.5,8.5c4.6,0,8.5-3.8,8.5-8.5c0-4.7-3.8-8.5-8.5-8.5
			C504.8,146,501,149.9,501,154.5z M509.8,149.1c2.3,0,3.8,1.6,3.8,3.6c0,1.5-0.8,2.8-2.3,3.3l2.9,3.9h-2.7l-2.3-3.5h-1.9v3.5h-2.3
			v-10.7L509.8,149.1L509.8,149.1z M509.7,154.4c1.1,0,1.7-0.7,1.7-1.7c0-1.1-0.6-1.7-1.7-1.7h-2.2v3.5L509.7,154.4L509.7,154.4z"/>
	</g>
</g>
</svg>
