<svg xmlns="http://www.w3.org/2000/svg" width="345" height="207" viewBox="0 0 345 207">
  <g id="logo-google-cloud" transform="translate(-225 -1900)">
    <rect id="Rectangle_4098" data-name="Rectangle 4098" width="345" height="207" transform="translate(225 1900)" fill="#fff"/>
    <g id="google-cloud-1" transform="translate(317.952 1938.954)">
      <path id="Path_12069" data-name="Path 12069" d="M369.539,35.292h4.854L388.22,21.465l.68-5.867A62.149,62.149,0,0,0,287.8,45.913a7.53,7.53,0,0,1,4.854-.293l27.648-4.56s1.407-2.327,2.133-2.18a34.493,34.493,0,0,1,47.2-3.587Z" transform="translate(-268.567 0)" fill="#ea4335"/>
      <path id="Path_12070" data-name="Path 12070" d="M1200.4,264.269A62.284,62.284,0,0,0,1181.629,234l-19.4,19.4a34.489,34.489,0,0,1,12.661,27.362v3.447a17.268,17.268,0,1,1,0,34.536h-34.542l-3.447,3.494v20.715l3.447,3.447h34.542a44.921,44.921,0,0,0,25.515-82.132Z" transform="translate(-1061.057 -218.356)" fill="#4285f4"/>
      <path id="Path_12071" data-name="Path 12071" d="M290.122,1508.2h34.542v-27.648H290.122a17.12,17.12,0,0,1-7.134-1.553l-4.854,1.5-13.921,13.828L263,1499.181a44.707,44.707,0,0,0,27.122,9.021Z" transform="translate(-245.421 -1380.35)" fill="#34a853"/>
      <path id="Path_12072" data-name="Path 12072" d="M44.7,571.6a44.918,44.918,0,0,0-27.115,80.525L37.62,632.087a17.269,17.269,0,1,1,22.848-22.848L80.5,589.2A44.9,44.9,0,0,0,44.7,571.6Z" transform="translate(0 -533.444)" fill="#fbbc05"/>
    </g>
  </g>
</svg>
