<svg xmlns="http://www.w3.org/2000/svg" xmlns:xlink="http://www.w3.org/1999/xlink" width="330.043" height="296" viewBox="0 0 330.043 296"><defs><linearGradient id="a" y1="0.5" x2="1" y2="0.5" gradientUnits="objectBoundingBox"><stop offset="0" stop-color="#8b8bff"/><stop offset="0.617" stop-color="#b4b4ff"/></linearGradient><radialGradient id="b" cx="0.5" cy="0.5" r="0.829" gradientTransform="translate(1.125 -1.704) scale(0.585 0.593)" gradientUnits="objectBoundingBox"><stop offset="0" stop-color="#a9c4cc"/><stop offset="0.16" stop-color="#aac5cc" stop-opacity="0.984"/><stop offset="0.301" stop-color="#afc8cf" stop-opacity="0.929"/><stop offset="0.436" stop-color="#b6cdd4" stop-opacity="0.839"/><stop offset="0.567" stop-color="#c1d4da" stop-opacity="0.714"/><stop offset="0.695" stop-color="#cfdee2" stop-opacity="0.553"/><stop offset="0.82" stop-color="#e0eaec" stop-opacity="0.357"/><stop offset="0.941" stop-color="#f4f7f8" stop-opacity="0.125"/><stop offset="1" stop-color="#fff" stop-opacity="0"/></radialGradient><radialGradient id="c" cx="0.5" cy="0.5" r="0.829" gradientTransform="translate(1.075 -1.4) scale(0.585 0.593)" gradientUnits="objectBoundingBox"><stop offset="0" stop-color="#a9c4cc"/><stop offset="0.1" stop-color="#acc6cd" stop-opacity="0.961"/><stop offset="0.256" stop-color="#b5ccd3" stop-opacity="0.855"/><stop offset="0.447" stop-color="#c4d6dc" stop-opacity="0.678"/><stop offset="0.666" stop-color="#d9e5e8" stop-opacity="0.439"/><stop offset="0.905" stop-color="#f3f7f8" stop-opacity="0.129"/><stop offset="1" stop-color="#fff" stop-opacity="0"/></radialGradient><linearGradient id="d" y1="0.5" x2="1" y2="0.5" gradientUnits="objectBoundingBox"><stop offset="0" stop-color="#dce1f2"/><stop offset="1" stop-color="#c1c4e8"/></linearGradient><linearGradient id="f" x1="0.056" y1="0.228" x2="0.868" y2="0.652" gradientUnits="objectBoundingBox"><stop offset="0" stop-color="#fff"/><stop offset="1" stop-color="#ccceee"/></linearGradient><linearGradient id="g" y1="0.5" x2="1" y2="0.5" gradientUnits="objectBoundingBox"><stop offset="0" stop-color="#e7e8f4"/><stop offset="1" stop-color="#bbbffd"/></linearGradient><linearGradient id="h" x1="0" y1="0.5" x2="1" y2="0.5" xlink:href="#f"/><radialGradient id="i" cx="0.5" cy="0.5" r="0.829" gradientTransform="translate(1.104 -1.662) scale(0.585 0.593)" xlink:href="#c"/><radialGradient id="j" cx="0.5" cy="0.5" r="0.829" gradientTransform="translate(1.108 -1.666) scale(0.585 0.593)" xlink:href="#c"/><radialGradient id="k" cx="0.5" cy="0.5" r="0.829" gradientTransform="translate(1.115 -1.718) scale(0.585 0.593)" gradientUnits="objectBoundingBox"><stop offset="0" stop-color="#a9c4cc"/><stop offset="0.15" stop-color="#aac5cc" stop-opacity="0.98"/><stop offset="0.291" stop-color="#afc8cf" stop-opacity="0.925"/><stop offset="0.429" stop-color="#b7cdd4" stop-opacity="0.831"/><stop offset="0.564" stop-color="#c2d5db" stop-opacity="0.702"/><stop offset="0.697" stop-color="#d1dfe3" stop-opacity="0.533"/><stop offset="0.829" stop-color="#e2ebee" stop-opacity="0.325"/><stop offset="0.958" stop-color="#f7f9fa" stop-opacity="0.086"/><stop offset="1" stop-color="#fff" stop-opacity="0"/></radialGradient></defs><g transform="translate(-851 -1377)"><rect width="330" height="296" transform="translate(851 1377)" fill="rgba(255,234,234,0)" opacity="0.96"/><path d="M629.252,329.815,464.262,234.6l-165.01,95.211L464.3,425.047Z" transform="translate(551.792 1234.552)" fill="url(#a)"/><g transform="translate(856.948 1343.697)"><path d="M419.555,299.159c0,7.757-10.756,14.044-24.024,14.044s-24.024-6.287-24.024-14.044,10.756-14.043,24.024-14.043S419.555,291.4,419.555,299.159Z" transform="translate(-129.093 -86.554)" fill="url(#b)" style="mix-blend-mode:multiply;isolation:isolate"/><path d="M112.624,380.854c0,7.757-10.756,14.044-24.025,14.044s-24.024-6.287-24.024-14.044S75.332,366.811,88.6,366.811,112.624,373.1,112.624,380.854Z" transform="translate(-5.253 -119.516)" opacity="0.57" fill="url(#c)" style="mix-blend-mode:multiply;isolation:isolate"/><g transform="translate(51.558 70.599)"><g transform="translate(19.042)"><g transform="translate(0 13.354)"><g transform="translate(0 0)"><g transform="translate(84.74)"><rect width="1.879" height="1.075" transform="matrix(0.542, -0.84, 0.84, 0.542, 0, 1.579)" fill="#d1ccff"/></g><g transform="translate(0.225 4.648)"><path d="M84.924,152.373l-1.067-.125a28.122,28.122,0,0,1,.67-3.663l1.042.265A27.02,27.02,0,0,0,84.924,152.373Zm1.692,12.13-.987.424a28.189,28.189,0,0,1-1.248-3.509l1.035-.29A27,27,0,0,0,86.616,164.5Zm3.924,5.514-.784.735a28.218,28.218,0,0,1-2.365-2.878l.875-.624A26.951,26.951,0,0,0,90.54,170.017Zm-3.826-24.544-.987-.427a21.131,21.131,0,0,1,1.784-3.294l.9.594A20.029,20.029,0,0,0,86.714,145.473ZM139.359,129.2l-.321-1.025c1.163-.364,2.309-.772,3.4-1.214l.4,1C141.723,128.406,140.55,128.824,139.359,129.2Zm-3.567.971c-1.186.277-2.406.517-3.626.712l-.17-1.06c1.194-.193,2.389-.427,3.551-.7Zm10.425-3.749-.49-.957a34.411,34.411,0,0,0,3.117-1.8l.586.9A35.728,35.728,0,0,1,146.217,126.418ZM128.5,131.342c-1.218.112-2.458.185-3.686.218l-.028-1.074c1.2-.032,2.421-.1,3.616-.214Zm23.914-9.009-.7-.815a20.358,20.358,0,0,0,2.5-2.533l.832.681A21.445,21.445,0,0,1,152.417,122.333Zm-31.293,9.205-.636-.027c-1.018-.05-2.029-.082-3-.094l.014-1.074c.988.013,2.012.045,3.043.1l.626.027Zm-30.489,8.043-.771-.749a21.881,21.881,0,0,1,2.835-2.448l.631.87A20.759,20.759,0,0,0,90.636,139.582Zm23.217-8.124c-1.235.046-2.453.125-3.619.236l-.1-1.07c1.186-.113,2.424-.194,3.681-.24Zm-17.477,3.932-.493-.954a29.721,29.721,0,0,1,3.411-1.491l.37,1.009A28.8,28.8,0,0,0,96.376,135.389Zm10.268-3.23c-1.221.2-2.411.45-3.536.736l-.265-1.042c1.155-.293,2.375-.547,3.624-.755ZM157.2,116.644l-.889-.6c.646-.95,1.334-1.971,2.043-3.032l.893.6C158.533,114.669,157.844,115.693,157.2,116.644Zm4.075-6.089-.9-.593c.675-1.019,1.351-2.046,2.012-3.055l.9.589C162.623,108.507,161.947,109.534,161.272,110.555Zm4.019-6.123-.9-.588c.715-1.1,1.389-2.131,2-3.067l.9.585C166.679,102.3,166.006,103.335,165.291,104.432Z" transform="translate(-83.857 -100.777)" fill="#d1ccff"/></g><g transform="translate(0 59.842)"><path d="M84.587,195.167l-1.073.043c-.026-.645-.037-1.287-.033-1.906l1.075.008C84.552,193.914,84.562,194.538,84.587,195.167Z" transform="translate(-83.481 -193.304)" fill="#d1ccff"/></g></g></g><g transform="translate(53.794)"><path d="M216.067,70.6,173.661,92.254l19.249.376Z" transform="translate(-173.661 -70.599)" fill="#d1ccff"/><path d="M205.407,92.622l3.763,7.942L228.876,70.6Z" transform="translate(-186.47 -70.599)" fill="#b7abff"/><path d="M214.45,93.89l-2.735,6.674L231.421,70.6Z" transform="translate(-189.015 -70.599)" fill="#9d95ef"/><path d="M233.271,70.6l-3.05,29.679L216.3,93.89Z" transform="translate(-190.865 -70.599)" fill="#d1ccff"/></g></g><g transform="translate(0 75.246)"><g transform="translate(0 25.872)"><path d="M111.249,255.26l44.264,25.556L95.822,315.279,51.558,289.723Z" transform="translate(-51.558 -246.225)" fill="#45a3d8"/><path d="M114.412,253.972l43.123,24.907L97.844,313.342,54.722,288.435v-7.643Z" transform="translate(-52.834 -245.705)" fill="#efefef"/><path d="M111.249,240.113l44.264,25.556L95.822,300.131,51.558,274.575Z" transform="translate(-51.558 -240.113)" fill="#58aee8"/><path d="M125.762,317.417v9.036l59.691-34.462v-9.036Z" transform="translate(-81.498 -257.399)" fill="#329dd8"/></g><g transform="translate(0 12.936)"><path d="M111.249,233.575l44.264,25.556L95.822,293.593,51.558,268.037Z" transform="translate(-51.558 -224.539)" fill="#45a3d8"/><path d="M114.412,232.287l43.123,24.907L97.844,291.657,54.722,266.749v-7.643Z" transform="translate(-52.834 -224.019)" fill="#efefef"/><path d="M111.249,218.427l44.264,25.556L95.822,278.446,51.558,252.89Z" transform="translate(-51.558 -218.427)" fill="#58aee8"/><path d="M125.762,295.731v9.036L185.453,270.3v-9.036Z" transform="translate(-81.498 -235.713)" fill="#329dd8"/></g><path d="M111.249,211.889l44.264,25.556L95.822,271.907,51.558,246.352Z" transform="translate(-51.558 -202.853)" fill="#45a3d8"/><path d="M114.412,210.6l43.123,24.907L97.844,269.971,54.722,245.064v-7.643Z" transform="translate(-52.834 -202.334)" fill="#efefef"/><path d="M111.249,196.742,155.513,222.3,95.822,256.76,51.558,231.2Z" transform="translate(-51.558 -196.742)" fill="#58aee8"/><path d="M125.762,274.046v9.036l59.691-34.462v-9.036Z" transform="translate(-81.498 -214.027)" fill="#329dd8"/><g transform="translate(33.45 20.791)"><path d="M114.564,235.83l-2.916-1.684-2.343,1.352,3.25,1.877-.7.406-4.219-2.436,6.5-3.751,4.052,2.339-.7.406-3.083-1.78-2.054,1.185,2.916,1.684Z" transform="translate(-107.633 -231.595)" fill="#fff"/><path d="M120.538,242.832l.479-1.382a13.061,13.061,0,0,1,.414-1.241l-.023-.013c-.587.095-1.146.174-2.1.277l-2.329.3-1.113-.642,5.58-.574,1.006-3.125,1.124.649-.533,1.451c-.146.405-.262.717-.409,1.033l.034.019c.6-.1,1.084-.163,1.778-.242l2.548-.288,1.113.642-5.444.508-1,3.275Z" transform="translate(-110.954 -233.547)" fill="#fff"/><path d="M135.794,244.035l-2.282-1.318.713-.412,5.554,3.206-.714.412-2.292-1.324-5.784,3.339-.979-.565Z" transform="translate(-116.662 -235.917)" fill="#fff"/><path d="M143.308,248.574a17.228,17.228,0,0,1,1.993,1c1.036.6,1.539,1.078,1.64,1.559.091.386-.142.764-.644,1.053a3.973,3.973,0,0,1-3.071.141l-.029.017c.405.434.287.9-.21,1.393a7.243,7.243,0,0,0-1.2,1.364l-1-.579a5.909,5.909,0,0,1,1.051-1.185c.674-.647.61-1.073-.239-1.6l-.913-.527-2.815,1.626-.968-.56Zm-1.992,2.267.991.572a3.05,3.05,0,0,0,2.926.264c.838-.484.5-1.1-.51-1.7a6.9,6.9,0,0,0-1.036-.508Z" transform="translate(-119.44 -238.446)" fill="#fff"/><path d="M149.9,258.387l-2.823.73-1-.579,9.047-2.279,1.168.675-3.938,5.229-1.035-.6,1.243-1.643Zm3.115,1.042,1.136-1.5a10.906,10.906,0,0,1,.8-.91L154.93,257c-.5.158-1.015.316-1.555.46l-2.615.662Z" transform="translate(-123.146 -241.546)" fill="#fff"/></g><g transform="translate(15.447 26.604)"><path d="M78.969,245.518a5.45,5.45,0,0,0,2.095,1.992,4.449,4.449,0,0,0,4.278.425c.97-.56.883-1.25-.2-2.495-1.355-1.475-1.686-2.68-.224-3.524,1.617-.933,4.364-.734,6.692.611a5.881,5.881,0,0,1,2.14,1.822l-1.52.385a4.914,4.914,0,0,0-1.782-1.6,4.013,4.013,0,0,0-3.813-.406c-.97.56-.718,1.256.381,2.531,1.349,1.56,1.533,2.644.01,3.524-1.6.925-4.356.935-7.181-.7a6.454,6.454,0,0,1-2.4-2.147Z" transform="translate(-77.454 -241.341)" fill="#fff"/><path d="M96.9,255.03,92.388,256.2l-1.6-.924,14.447-3.64,1.866,1.077-6.288,8.351-1.654-.954,1.984-2.624Zm4.976,1.664,1.814-2.4a17.3,17.3,0,0,1,1.271-1.453l-.035-.02c-.794.253-1.621.5-2.483.735l-4.175,1.056Z" transform="translate(-82.834 -245.493)" fill="#fff"/><path d="M120.922,259.1l1.546.892-9.253,5.342,5.12,2.956-1.123.649-6.666-3.849Z" transform="translate(-90.806 -248.506)" fill="#fff"/><path d="M135.679,273.984l-4.658-2.689-3.741,2.159,5.191,3-1.124.649-6.737-3.889,10.376-5.991,6.47,3.735-1.124.648-4.924-2.842-3.279,1.893,4.657,2.689Z" transform="translate(-96.481 -251.783)" fill="#fff"/></g></g><g transform="translate(149.003 55.063)"><g transform="translate(0 20.082)"><path d="M340.752,208.342l-20.386-11.77-19.021,10.982,20.386,11.77Z" transform="translate(-301.345 -196.572)" fill="#ffd673"/><path d="M316.608,203.24l20.69,11.945-5.994,3.461L310.614,206.7Z" transform="translate(-305.085 -199.262)" fill="#fdf9ff"/><path d="M301.345,236.875V214.982l20.524,11.7V248.93Z" transform="translate(-301.345 -204)" fill="#efb33a"/><path d="M354.655,238.52V216.273l-18.9,10.931v22.247Z" transform="translate(-315.227 -204.521)" fill="#f4c45b"/><path d="M345.293,226.723l5.994-3.461v7.3l-5.994,3.746Z" transform="translate(-319.077 -207.341)" fill="#e8e8e8"/><path d="M351.286,251.309v5.8l-5.994,3.461v-5.748Z" transform="translate(-319.077 -218.658)" fill="#e8e8e8"/></g><g transform="translate(3.433 4.959)"><path d="M333.629,179.143,319.9,171.22l-12.8,7.393,13.724,7.923Z" transform="translate(-307.1 -171.22)" fill="#ffd673"/><path d="M317.375,175.708,331.3,183.75l-4.035,2.33-13.929-8.042Z" transform="translate(-309.618 -173.031)" fill="#fdf9ff"/><path d="M307.1,198.352V183.613l13.816,7.877v14.976Z" transform="translate(-307.1 -176.22)" fill="#efb33a"/><path d="M342.988,199.458V184.482l-12.726,7.359v14.976Z" transform="translate(-316.446 -176.571)" fill="#f4c45b"/><path d="M336.686,191.517l4.035-2.33V194.1l-4.035,2.522Z" transform="translate(-319.037 -178.469)" fill="#e8e8e8"/><path d="M340.721,208.068v3.907l-4.035,2.33v-3.869Z" transform="translate(-319.037 -186.087)" fill="#e8e8e8"/></g><g transform="translate(22.18 32.915)"><path d="M377.933,229.855l-20.386-11.77-19.021,10.981,20.386,11.77Z" transform="translate(-338.527 -218.085)" fill="#ffd673"/><path d="M353.79,224.752,374.48,236.7l-5.994,3.461L347.8,228.213Z" transform="translate(-342.267 -220.775)" fill="#fdf9ff"/><path d="M338.527,258.388V236.494l20.524,11.7v22.247Z" transform="translate(-338.527 -225.513)" fill="#efb33a"/><path d="M391.837,260.032V237.785l-18.9,10.931v22.247Z" transform="translate(-352.409 -226.034)" fill="#f4c45b"/><path d="M382.474,248.235l5.994-3.461v7.3l-5.994,3.746Z" transform="translate(-356.259 -228.854)" fill="#e8e8e8"/><path d="M388.468,272.821v5.8l-5.994,3.461v-5.748Z" transform="translate(-356.259 -240.17)" fill="#e8e8e8"/></g><g transform="translate(25.634 20.948)"><path d="M370.846,205.947l-13.724-7.923-12.8,7.393,13.724,7.923Z" transform="translate(-344.318 -198.023)" fill="#ffd673"/><path d="M354.593,202.512l13.929,8.042-4.035,2.33-13.929-8.042Z" transform="translate(-346.836 -199.834)" fill="#fdf9ff"/><path d="M344.318,225.155V210.417l13.816,7.877V233.27Z" transform="translate(-344.318 -203.024)" fill="#efb33a"/><path d="M380.206,226.262V211.286l-12.726,7.359v14.976Z" transform="translate(-353.664 -203.375)" fill="#f4c45b"/><path d="M373.9,218.321l4.035-2.33v4.916l-4.035,2.522Z" transform="translate(-356.255 -205.273)" fill="#e8e8e8"/><path d="M377.939,234.872v3.907l-4.035,2.33v-3.869Z" transform="translate(-356.255 -212.891)" fill="#e8e8e8"/></g><g transform="translate(15.132)"><path d="M353.24,170.83l-13.724-7.923-12.8,7.393,13.724,7.923Z" transform="translate(-326.712 -162.906)" fill="#ffd673"/><path d="M336.987,167.395l13.929,8.042-4.035,2.33-13.929-8.042Z" transform="translate(-329.229 -164.717)" fill="#fdf9ff"/><path d="M326.712,190.038V175.3l13.816,7.877v14.976Z" transform="translate(-326.712 -167.907)" fill="#efb33a"/><path d="M362.6,191.145V176.169l-12.726,7.359V198.5Z" transform="translate(-336.057 -168.257)" fill="#f4c45b"/><path d="M356.3,183.2l4.035-2.33v4.916l-4.035,2.522Z" transform="translate(-338.649 -170.156)" fill="#e8e8e8"/><path d="M360.332,199.755v3.907l-4.035,2.33v-3.869Z" transform="translate(-338.649 -177.774)" fill="#e8e8e8"/></g></g><g transform="translate(101.806 39.448)"><path d="M265.326,139.581l-3.675-2.526h0a1.921,1.921,0,0,0-2.24.07l-34.286,19.8a6.409,6.409,0,0,0-2.9,5.022v72.742a2.123,2.123,0,0,0,.712,1.783h0l4.1,2.794-.31-3.821,32.692-18.876a6.414,6.414,0,0,0,2.9-5.025v-69.2Z" transform="translate(-222.225 -136.73)" stroke="rgba(0,0,0,0)" stroke-width="1" fill="url(#d)"/><path d="M262.769,142.344l3.016-2.763-3.675-2.526h0a1.921,1.921,0,0,0-2.24.07l-34.286,19.8a6.073,6.073,0,0,0-2.22,2.5l39.405,24.019Z" transform="translate(-222.685 -136.73)" stroke="rgba(0,0,0,0)" stroke-width="1" fill="url(#d)"/><line x1="34.286" y2="19.798" transform="translate(2.899 0.394)" fill="#ca70ef"/><path d="M269,216.1a6.412,6.412,0,0,1-2.9,5.026l-34.286,19.794c-1.6.926-2.9.175-2.9-1.674V166.507a6.418,6.418,0,0,1,2.9-5.027L266.1,141.689c1.6-.925,2.9-.177,2.9,1.673Z" transform="translate(-224.925 -138.57)" stroke="rgba(0,0,0,0)" stroke-width="1" fill="url(#f)"/><path d="M268.143,217.3a5.563,5.563,0,0,1-2.518,4.358l-29.739,17.17c-1.389.8-2.517.152-2.517-1.451v-63.1a5.568,5.568,0,0,1,2.517-4.361l29.739-17.168c1.39-.8,2.518-.152,2.518,1.453Z" transform="translate(-226.721 -143.055)" fill="#0073ff"/><g transform="translate(12.759 16.037)"><path d="M253.913,187.566l-10.3,5.947v-10.3l10.3-5.947Z" transform="translate(-243.613 -169.122)" fill="#d4d2ff"/><path d="M275.961,164.407,263.3,171.719v-.794l12.665-7.312Z" transform="translate(-251.555 -163.613)" fill="#d4d2ff"/><path d="M275.961,168.54,263.3,175.852v-.794l12.665-7.312Z" transform="translate(-251.555 -165.281)" fill="#d4d2ff"/><path d="M275.961,172.672,263.3,179.984v-.794l12.665-7.312Z" transform="translate(-251.555 -166.948)" fill="#d4d2ff"/><path d="M275.961,176.8,263.3,184.117v-.794l12.665-7.312Z" transform="translate(-251.555 -168.616)" fill="#d4d2ff"/><g transform="translate(0 15.724)"><path d="M253.913,213.925l-10.3,5.947v-10.3l10.3-5.947Z" transform="translate(-243.613 -195.481)" fill="#d4d2ff"/><path d="M275.961,190.766,263.3,198.078v-.794l12.665-7.312Z" transform="translate(-251.555 -189.972)" fill="#d4d2ff"/><path d="M275.961,194.9,263.3,202.211v-.794l12.665-7.312Z" transform="translate(-251.555 -191.64)" fill="#d4d2ff"/><path d="M275.961,199.031,263.3,206.343v-.794l12.665-7.312Z" transform="translate(-251.555 -193.307)" fill="#d4d2ff"/><path d="M275.961,203.163,263.3,210.475v-.794l12.665-7.312Z" transform="translate(-251.555 -194.974)" fill="#d4d2ff"/></g><g transform="translate(0 31.447)"><path d="M253.913,240.284l-10.3,5.947v-10.3l10.3-5.947Z" transform="translate(-243.613 -221.84)" fill="#d4d2ff"/><path d="M275.961,217.125,263.3,224.437v-.794l12.665-7.312Z" transform="translate(-251.555 -216.331)" fill="#d4d2ff"/><path d="M275.961,221.257,263.3,228.569v-.794l12.665-7.312Z" transform="translate(-251.555 -217.999)" fill="#d4d2ff"/><path d="M275.961,225.39,263.3,232.7v-.794l12.665-7.312Z" transform="translate(-251.555 -219.666)" fill="#d4d2ff"/><path d="M275.961,229.522,263.3,236.834v-.794l12.665-7.312Z" transform="translate(-251.555 -221.333)" fill="#d4d2ff"/></g><g transform="translate(0 47.171)"><path d="M253.913,266.643l-10.3,5.947v-10.3l10.3-5.947Z" transform="translate(-243.613 -248.199)" fill="#d4d2ff"/><path d="M275.961,243.484,263.3,250.8V250l12.665-7.312Z" transform="translate(-251.555 -242.69)" fill="#d4d2ff"/><path d="M275.961,247.616,263.3,254.928v-.794l12.665-7.312Z" transform="translate(-251.555 -244.358)" fill="#d4d2ff"/><path d="M275.961,251.749,263.3,259.061v-.794l12.665-7.312Z" transform="translate(-251.555 -246.025)" fill="#d4d2ff"/><path d="M275.961,255.881,263.3,263.193V262.4l12.665-7.312Z" transform="translate(-251.555 -247.692)" fill="#d4d2ff"/></g></g><g transform="translate(0.565 36.871)"><path d="M225.285,207.434a.689.689,0,0,1-1.017.676l.128-.161a1.958,1.958,0,0,1-.89-1.54l-.241-7.148a.748.748,0,0,1,1.131-.619h0a1.966,1.966,0,0,1,.889,1.542Z" transform="translate(-223.21 -198.541)" fill="#5f2caf"/><path d="M224.95,207.768c0,.567-.4.8-.887.514h0a1.969,1.969,0,0,1-.891-1.543v-7.251c0-.567.4-.8.891-.512h0a1.959,1.959,0,0,1,.887,1.541Z" transform="translate(-223.172 -198.667)" fill="#925de8"/></g><g transform="translate(0.565 46.624)"><path d="M225.3,223.79c0,.568-.51.986-1,.7l.11-.188a1.965,1.965,0,0,1-.89-1.544l-.22-7.155a.728.728,0,0,1,1.11-.61h0a1.963,1.963,0,0,1,.889,1.543Z" transform="translate(-223.224 -214.89)" fill="#5f2caf"/><path d="M224.95,224.12c0,.568-.4.8-.887.515h0a1.97,1.97,0,0,1-.891-1.543v-7.25c0-.571.4-.8.891-.516h0a1.968,1.968,0,0,1,.887,1.543Z" transform="translate(-223.172 -215.017)" fill="#925de8"/></g><g transform="translate(0.565 85.291)"><path d="M225.3,288.61c0,.569-.51.986-1,.7l.11-.188a1.966,1.966,0,0,1-.89-1.544l-.22-7.156a.727.727,0,0,1,1.11-.609h0a1.962,1.962,0,0,1,.889,1.542Z" transform="translate(-223.224 -279.711)" fill="#5f2caf"/><path d="M224.95,288.941c0,.568-.4.8-.887.515h0a1.968,1.968,0,0,1-.891-1.541v-7.252c0-.568.4-.8.891-.514h0a1.96,1.96,0,0,1,.887,1.541Z" transform="translate(-223.172 -279.839)" fill="#8970f2"/></g><path d="M232.931,171.222a2.143,2.143,0,0,1-1.944,0,.593.593,0,0,1,0-1.122,2.143,2.143,0,0,1,1.944,0A.592.592,0,0,1,232.931,171.222Z" transform="translate(-225.598 -150.1)" fill="#2f2caf"/><path d="M242.283,165.712a2.163,2.163,0,0,1-1.945,0,.592.592,0,0,1,0-1.121,2.159,2.159,0,0,1,1.945,0A.592.592,0,0,1,242.283,165.712Z" transform="translate(-229.371 -147.878)" fill="#2f2caf"/></g><g transform="translate(49.43 107.76)"><path d="M285.266,285.063,239.119,263.58a10.119,10.119,0,0,0-9.154,0l-95.543,50.006v6.669h0a3.194,3.194,0,0,0,1.893,2.677l44.251,25.549a10.119,10.119,0,0,0,9.156,0l93.646-54.066a3.216,3.216,0,0,0,1.9-2.643h0Z" transform="translate(-134.422 -255.781)" fill="url(#g)"/><path d="M203.35,395.215a3.094,3.094,0,0,0,1.4,2.424c.773.446,1.4.084,1.4-.808a3.092,3.092,0,0,0-1.4-2.424C203.977,393.961,203.35,394.323,203.35,395.215Z" transform="translate(-162.233 -308.932)" fill="#5f5096"/><path d="M185.713,385.749a1.962,1.962,0,0,0,.888,1.538l6.854,3.957c.49.283.888.054.888-.513h0a1.963,1.963,0,0,0-.888-1.538l-6.854-3.956c-.49-.283-.888-.054-.888.512Z" transform="translate(-155.117 -305.26)" fill="#5f5096"/><path d="M189.725,337.243a10.116,10.116,0,0,1-9.156,0l-44.251-25.549c-2.528-1.459-2.527-3.826,0-5.285l93.647-54.067a10.117,10.117,0,0,1,9.154,0l44.252,25.549c2.527,1.459,2.527,3.826,0,5.286Z" transform="translate(-134.422 -251.247)" stroke="rgba(0,0,0,0)" stroke-width="1" fill="url(#h)"/><path d="M195.076,337.007l-48.72-28.128,87.887-50.743,48.721,28.13Z" transform="translate(-139.237 -254.026)" fill="#ff7220"/><path d="M343.974,276.622l-10.063-5.81,1.813-2.245,12.137,7.008Z" transform="translate(-214.912 -258.235)" fill="#fff"/><path d="M305.72,256.786a2.046,2.046,0,0,1-1.857,0,.566.566,0,0,1,0-1.073,2.053,2.053,0,0,1,1.857,0A.565.565,0,0,1,305.72,256.786Z" transform="translate(-202.633 -252.96)" fill="#3d3c5b"/><path d="M309.152,258.768a1.232,1.232,0,0,1-1.113,0,.339.339,0,0,1,0-.642,1.23,1.23,0,0,1,1.112,0A.339.339,0,0,1,309.152,258.768Z" transform="translate(-204.38 -253.968)" fill="#3d3c5b"/></g><g transform="translate(49.871 44.623)"><g transform="translate(0 29.428)"><path d="M139.383,212.345c5.629,3.249,14.757,3.249,20.385,0s5.629-8.52,0-11.772-14.756-3.25-20.385,0S133.754,209.094,139.383,212.345Z" transform="translate(-135.161 -196.109)" fill="#e8a50f"/><path d="M139.383,208.945c5.629,3.25,14.757,3.25,20.385,0s5.629-8.519,0-11.77-14.756-3.25-20.385,0S133.754,205.7,139.383,208.945Z" transform="translate(-135.161 -194.737)" fill="#f4cf31"/><g transform="translate(1.764 0.897)"><path d="M141.885,208.965c-2.427-1.4-3.766-3.283-3.766-5.3s1.339-3.9,3.766-5.3a19.61,19.61,0,0,1,17.768,0c2.427,1.4,3.764,3.284,3.764,5.3s-1.337,3.893-3.764,5.3a19.606,19.606,0,0,1-17.768,0Zm.293-10.092c-2.239,1.3-3.474,3-3.475,4.8s1.235,3.5,3.475,4.791a19.038,19.038,0,0,0,17.184,0c2.24-1.294,3.474-3,3.474-4.791s-1.234-3.5-3.474-4.8a19.032,19.032,0,0,0-17.183,0Z" transform="translate(-138.119 -196.241)" fill="#e8a50f"/></g><g transform="translate(7.381 2.916)"><path d="M162.081,208.518l-1.828-1.053a6.816,6.816,0,0,1-5.778-.112c-1.565-.9-1.548-1.948-.477-3.419.88-1.256,1.073-1.9.16-2.422a3.464,3.464,0,0,0-3.374.2,3.5,3.5,0,0,0-1.616,1.643l-1.563-.437a3.643,3.643,0,0,1,1.633-1.675l-1.7-.981,1.105-.639,1.758,1.013a6.55,6.55,0,0,1,5.5.112c1.529.882,1.213,2,.122,3.438-.771,1.055-.861,1.8.124,2.364a4.025,4.025,0,0,0,3.811-.236,3.653,3.653,0,0,0,1.739-1.894l1.617.443a4.253,4.253,0,0,1-1.915,2l1.775,1.023Z" transform="translate(-147.535 -199.625)" fill="#e8a50f"/></g></g><g transform="translate(0 26.753)"><path d="M139.383,207.861c5.629,3.251,14.757,3.251,20.385,0s5.629-8.52,0-11.769-14.756-3.251-20.385,0S133.754,204.612,139.383,207.861Z" transform="translate(-135.161 -191.626)" fill="#e8a50f"/><path d="M139.383,204.462c5.629,3.252,14.757,3.252,20.385,0s5.629-8.521,0-11.772-14.756-3.249-20.385,0S133.754,201.212,139.383,204.462Z" transform="translate(-135.161 -190.253)" fill="#f4cf31"/><g transform="translate(1.764 0.896)"><path d="M141.885,204.48c-2.427-1.4-3.766-3.283-3.766-5.3s1.339-3.9,3.766-5.3a19.591,19.591,0,0,1,17.768,0c2.427,1.4,3.764,3.281,3.764,5.3s-1.337,3.9-3.764,5.3a19.6,19.6,0,0,1-17.768,0Zm.293-10.091c-2.239,1.293-3.474,3-3.475,4.792s1.235,3.5,3.475,4.793a19.028,19.028,0,0,0,17.184,0c2.24-1.294,3.474-3,3.474-4.793s-1.234-3.5-3.474-4.792a19.022,19.022,0,0,0-17.183,0Z" transform="translate(-138.119 -191.755)" fill="#e8a50f"/></g><g transform="translate(7.381 2.914)"><path d="M162.081,204.034l-1.828-1.054a6.826,6.826,0,0,1-5.778-.113c-1.565-.9-1.548-1.948-.477-3.417.88-1.258,1.073-1.9.16-2.424a3.461,3.461,0,0,0-3.374.2,3.506,3.506,0,0,0-1.616,1.643l-1.563-.435a3.631,3.631,0,0,1,1.633-1.674l-1.7-.984,1.105-.639,1.758,1.014a6.55,6.55,0,0,1,5.5.11c1.529.884,1.213,2,.122,3.439-.771,1.055-.861,1.8.124,2.365a4.018,4.018,0,0,0,3.811-.234,3.677,3.677,0,0,0,1.739-1.9l1.617.446a4.252,4.252,0,0,1-1.915,2l1.775,1.027Z" transform="translate(-147.535 -195.139)" fill="#e8a50f"/></g></g><g transform="translate(0 24.078)"><path d="M139.383,203.377c5.629,3.249,14.757,3.249,20.385,0s5.629-8.521,0-11.771-14.756-3.249-20.385,0S133.754,200.126,139.383,203.377Z" transform="translate(-135.161 -187.14)" fill="#e8a50f"/><path d="M139.383,199.977c5.629,3.249,14.757,3.249,20.385,0s5.629-8.522,0-11.772-14.756-3.25-20.385,0S133.754,196.726,139.383,199.977Z" transform="translate(-135.161 -185.768)" fill="#f4cf31"/><g transform="translate(1.764 0.898)"><path d="M141.885,199.995c-2.427-1.4-3.766-3.282-3.766-5.3s1.339-3.9,3.766-5.3a19.62,19.62,0,0,1,17.768,0c2.427,1.4,3.764,3.283,3.764,5.3s-1.337,3.9-3.764,5.3a19.6,19.6,0,0,1-17.768,0Zm.293-10.09c-2.239,1.294-3.474,3-3.475,4.792s1.235,3.5,3.475,4.794a19.029,19.029,0,0,0,17.184,0c2.24-1.293,3.474-3,3.474-4.794s-1.234-3.5-3.474-4.792a19.042,19.042,0,0,0-17.183,0Z" transform="translate(-138.119 -187.273)" fill="#e8a50f"/></g><g transform="translate(7.381 2.914)"><path d="M162.081,199.549l-1.828-1.056a6.831,6.831,0,0,1-5.778-.112c-1.565-.9-1.548-1.946-.477-3.418.88-1.256,1.073-1.895.16-2.424a3.462,3.462,0,0,0-3.374.2,3.52,3.52,0,0,0-1.616,1.644l-1.563-.437a3.638,3.638,0,0,1,1.633-1.673l-1.7-.984,1.105-.639,1.758,1.015a6.544,6.544,0,0,1,5.5.112c1.529.883,1.213,2,.122,3.438-.771,1.055-.861,1.8.124,2.363a4.028,4.028,0,0,0,3.811-.234,3.669,3.669,0,0,0,1.739-1.9l1.617.445a4.246,4.246,0,0,1-1.915,2l1.775,1.023Z" transform="translate(-147.535 -190.653)" fill="#e8a50f"/></g></g><g transform="translate(0 21.403)"><path d="M139.383,198.893c5.629,3.25,14.757,3.25,20.385,0s5.629-8.52,0-11.769-14.756-3.25-20.385,0S133.754,195.642,139.383,198.893Z" transform="translate(-135.161 -182.657)" fill="#e8a50f"/><path d="M139.383,195.492c5.629,3.248,14.757,3.248,20.385,0s5.629-8.519,0-11.771-14.756-3.249-20.385,0S133.754,192.242,139.383,195.492Z" transform="translate(-135.161 -181.285)" fill="#f4cf31"/><g transform="translate(1.764 0.896)"><path d="M141.885,195.513c-2.427-1.4-3.766-3.286-3.766-5.3s1.339-3.9,3.766-5.3a19.6,19.6,0,0,1,17.768,0c2.427,1.4,3.764,3.283,3.764,5.3s-1.337,3.9-3.764,5.3a19.616,19.616,0,0,1-17.768,0Zm.293-10.093c-2.239,1.293-3.474,2.995-3.475,4.792s1.235,3.5,3.475,4.795a19.038,19.038,0,0,0,17.184,0c2.24-1.3,3.474-3,3.474-4.795s-1.234-3.5-3.474-4.792a19.042,19.042,0,0,0-17.183,0Z" transform="translate(-138.119 -182.786)" fill="#e8a50f"/></g><g transform="translate(7.381 2.912)"><path d="M162.081,195.065l-1.828-1.057a6.83,6.83,0,0,1-5.778-.109c-1.565-.9-1.548-1.951-.477-3.42.88-1.258,1.073-1.9.16-2.422a3.458,3.458,0,0,0-3.374.2,3.519,3.519,0,0,0-1.616,1.643l-1.563-.435a3.63,3.63,0,0,1,1.633-1.673l-1.7-.984,1.105-.64,1.758,1.016a6.548,6.548,0,0,1,5.5.111c1.529.883,1.213,2,.122,3.438-.771,1.055-.861,1.8.124,2.364a4.026,4.026,0,0,0,3.811-.233,3.668,3.668,0,0,0,1.739-1.9l1.617.445a4.251,4.251,0,0,1-1.915,2l1.775,1.027Z" transform="translate(-147.535 -186.167)" fill="#e8a50f"/></g></g><g transform="translate(0 18.727)"><path d="M139.383,194.408c5.629,3.249,14.757,3.249,20.385,0s5.629-8.521,0-11.771-14.756-3.25-20.385,0S133.754,191.157,139.383,194.408Z" transform="translate(-135.161 -178.17)" fill="#e8a50f"/><path d="M139.383,191.006c5.629,3.251,14.757,3.251,20.385,0s5.629-8.521,0-11.771-14.756-3.25-20.385,0S133.754,187.757,139.383,191.006Z" transform="translate(-135.161 -176.798)" fill="#f4cf31"/><g transform="translate(1.764 0.896)"><path d="M141.885,191.025c-2.427-1.4-3.766-3.283-3.766-5.3s1.339-3.9,3.766-5.3a19.6,19.6,0,0,1,17.768,0c2.427,1.4,3.764,3.283,3.764,5.3s-1.337,3.9-3.764,5.3a19.6,19.6,0,0,1-17.768,0Zm.293-10.092c-2.239,1.3-3.474,3-3.475,4.794s1.235,3.5,3.475,4.793a19.033,19.033,0,0,0,17.184,0c2.24-1.294,3.474-3,3.474-4.793s-1.234-3.5-3.474-4.794a19.032,19.032,0,0,0-17.183,0Z" transform="translate(-138.119 -178.3)" fill="#e8a50f"/></g><g transform="translate(7.381 2.913)"><path d="M162.081,190.578l-1.828-1.055a6.82,6.82,0,0,1-5.778-.113c-1.565-.9-1.548-1.945-.477-3.417.88-1.257,1.073-1.9.16-2.424a3.471,3.471,0,0,0-3.374.2,3.514,3.514,0,0,0-1.616,1.643l-1.563-.437a3.65,3.65,0,0,1,1.633-1.674l-1.7-.983,1.105-.639L150.4,182.7a6.553,6.553,0,0,1,5.5.11c1.529.882,1.213,2,.122,3.439-.771,1.053-.861,1.8.124,2.364a4.017,4.017,0,0,0,3.811-.235,3.661,3.661,0,0,0,1.739-1.9l1.617.445a4.255,4.255,0,0,1-1.915,2l1.775,1.022Z" transform="translate(-147.535 -181.682)" fill="#e8a50f"/></g></g><g transform="translate(0 16.053)"><path d="M139.383,189.922c5.629,3.25,14.757,3.25,20.385,0s5.629-8.518,0-11.771-14.756-3.249-20.385,0S133.754,186.673,139.383,189.922Z" transform="translate(-135.161 -173.687)" fill="#e8a50f"/><path d="M139.383,186.523c5.629,3.249,14.757,3.249,20.385,0s5.629-8.522,0-11.77-14.756-3.25-20.385,0S133.754,183.272,139.383,186.523Z" transform="translate(-135.161 -172.315)" fill="#f4cf31"/><g transform="translate(1.764 0.895)"><path d="M141.885,186.541c-2.427-1.4-3.766-3.284-3.766-5.3s1.339-3.9,3.766-5.3a19.605,19.605,0,0,1,17.768,0c2.427,1.4,3.764,3.284,3.764,5.3s-1.337,3.9-3.764,5.3a19.611,19.611,0,0,1-17.768,0Zm.293-10.092c-2.239,1.294-3.474,3-3.475,4.792s1.235,3.5,3.475,4.793a19.023,19.023,0,0,0,17.184,0c2.24-1.294,3.474-3,3.474-4.793s-1.234-3.5-3.474-4.792a19.027,19.027,0,0,0-17.183,0Z" transform="translate(-138.119 -173.815)" fill="#e8a50f"/></g><g transform="translate(7.381 2.914)"><path d="M162.081,186.1l-1.828-1.055a6.824,6.824,0,0,1-5.778-.113c-1.565-.9-1.548-1.948-.477-3.416.88-1.26,1.073-1.9.16-2.426a3.463,3.463,0,0,0-3.374.2,3.514,3.514,0,0,0-1.616,1.643l-1.563-.438a3.633,3.633,0,0,1,1.633-1.674l-1.7-.984,1.105-.638,1.758,1.013a6.553,6.553,0,0,1,5.5.111c1.529.885,1.213,2,.122,3.44-.771,1.055-.861,1.795.124,2.365a4.025,4.025,0,0,0,3.811-.235,3.668,3.668,0,0,0,1.739-1.9l1.617.447a4.258,4.258,0,0,1-1.915,2l1.775,1.025Z" transform="translate(-147.535 -177.2)" fill="#e8a50f"/></g></g><g transform="translate(0 13.376)"><path d="M139.383,185.437c5.629,3.249,14.757,3.249,20.385,0s5.629-8.519,0-11.77-14.756-3.25-20.385,0S133.754,182.186,139.383,185.437Z" transform="translate(-135.161 -169.201)" fill="#e8a50f"/><path d="M139.383,182.037c5.629,3.249,14.757,3.249,20.385,0s5.629-8.521,0-11.772-14.756-3.25-20.385,0S133.754,178.786,139.383,182.037Z" transform="translate(-135.161 -167.828)" fill="#f4cf31"/><g transform="translate(1.764 0.897)"><path d="M141.885,182.056c-2.427-1.4-3.766-3.283-3.766-5.3s1.339-3.895,3.766-5.3a19.62,19.62,0,0,1,17.768,0c2.427,1.4,3.764,3.285,3.764,5.3s-1.337,3.9-3.764,5.3a19.6,19.6,0,0,1-17.768,0Zm.293-10.091c-2.239,1.294-3.474,3-3.475,4.791s1.235,3.5,3.475,4.795a19.019,19.019,0,0,0,17.184,0c2.24-1.293,3.474-3,3.474-4.795s-1.234-3.5-3.474-4.791a19.032,19.032,0,0,0-17.183,0Z" transform="translate(-138.119 -169.332)" fill="#e8a50f"/></g><g transform="translate(7.381 2.913)"><path d="M162.081,181.609l-1.828-1.057a6.815,6.815,0,0,1-5.778-.11c-1.565-.9-1.548-1.949-.477-3.419.88-1.257,1.073-1.9.16-2.424a3.467,3.467,0,0,0-3.374.2,3.517,3.517,0,0,0-1.616,1.643l-1.563-.435a3.642,3.642,0,0,1,1.633-1.674l-1.7-.983,1.105-.641,1.758,1.017a6.544,6.544,0,0,1,5.5.11c1.529.885,1.213,2,.122,3.438-.771,1.055-.861,1.8.124,2.366a4.03,4.03,0,0,0,3.811-.235,3.672,3.672,0,0,0,1.739-1.9l1.617.446a4.245,4.245,0,0,1-1.915,2l1.775,1.024Z" transform="translate(-147.535 -172.711)" fill="#e8a50f"/></g></g><g transform="translate(0 10.702)"><path d="M139.383,180.952c5.629,3.252,14.757,3.252,20.385,0s5.629-8.518,0-11.768-14.756-3.249-20.385,0S133.754,177.7,139.383,180.952Z" transform="translate(-135.161 -164.718)" fill="#e8a50f"/><path d="M139.383,177.553c5.629,3.249,14.757,3.249,20.385,0s5.629-8.521,0-11.771-14.756-3.249-20.385,0S133.754,174.3,139.383,177.553Z" transform="translate(-135.161 -163.345)" fill="#f4cf31"/><g transform="translate(1.764 0.894)"><path d="M141.885,177.571c-2.427-1.4-3.766-3.285-3.766-5.3s1.339-3.9,3.766-5.3a19.591,19.591,0,0,1,17.768,0c2.427,1.4,3.764,3.282,3.764,5.3s-1.337,3.9-3.764,5.3a19.6,19.6,0,0,1-17.768,0Zm.293-10.091c-2.239,1.293-3.474,3-3.475,4.791s1.235,3.5,3.475,4.794a19.028,19.028,0,0,0,17.184,0c2.24-1.294,3.474-3,3.474-4.794s-1.234-3.5-3.474-4.791a19.027,19.027,0,0,0-17.183,0Z" transform="translate(-138.119 -164.845)" fill="#e8a50f"/></g><g transform="translate(7.381 2.914)"><path d="M162.081,177.126l-1.828-1.055a6.826,6.826,0,0,1-5.778-.113c-1.565-.9-1.548-1.948-.477-3.418.88-1.256,1.073-1.9.16-2.424a3.46,3.46,0,0,0-3.374.2,3.527,3.527,0,0,0-1.616,1.643l-1.563-.436a3.638,3.638,0,0,1,1.633-1.673l-1.7-.985,1.105-.637,1.758,1.014a6.542,6.542,0,0,1,5.5.111c1.529.882,1.213,2,.122,3.44-.771,1.053-.861,1.794.124,2.362a4.021,4.021,0,0,0,3.811-.233,3.668,3.668,0,0,0,1.739-1.9l1.617.445a4.253,4.253,0,0,1-1.915,2l1.775,1.024Z" transform="translate(-147.535 -168.23)" fill="#e8a50f"/></g></g><g transform="translate(0 8.026)"><path d="M139.383,176.469c5.629,3.248,14.757,3.248,20.385,0s5.629-8.521,0-11.772-14.756-3.249-20.385,0S133.754,173.218,139.383,176.469Z" transform="translate(-135.161 -160.232)" fill="#e8a50f"/><path d="M139.383,173.067c5.629,3.25,14.757,3.25,20.385,0s5.629-8.521,0-11.771-14.756-3.249-20.385,0S133.754,169.817,139.383,173.067Z" transform="translate(-135.161 -158.859)" fill="#f4cf31"/><g transform="translate(1.764 0.895)"><path d="M141.885,173.087c-2.427-1.4-3.766-3.286-3.766-5.3s1.339-3.9,3.766-5.3a19.61,19.61,0,0,1,17.768,0c2.427,1.4,3.764,3.284,3.764,5.3s-1.337,3.9-3.764,5.3a19.621,19.621,0,0,1-17.768,0Zm.293-10.092c-2.239,1.294-3.474,2.995-3.475,4.793s1.235,3.5,3.475,4.792a19.023,19.023,0,0,0,17.184,0c2.24-1.294,3.474-3,3.474-4.792s-1.234-3.5-3.474-4.793a19.022,19.022,0,0,0-17.183,0Z" transform="translate(-138.119 -160.36)" fill="#e8a50f"/></g><g transform="translate(7.381 2.913)"><path d="M162.081,172.639l-1.828-1.056a6.821,6.821,0,0,1-5.778-.11c-1.565-.9-1.548-1.949-.477-3.419.88-1.259,1.073-1.9.16-2.424a3.465,3.465,0,0,0-3.374.2,3.514,3.514,0,0,0-1.616,1.643l-1.563-.435a3.637,3.637,0,0,1,1.633-1.675l-1.7-.982,1.105-.641,1.758,1.016a6.544,6.544,0,0,1,5.5.111c1.529.882,1.213,2,.122,3.438-.771,1.056-.861,1.8.124,2.366a4.026,4.026,0,0,0,3.811-.237,3.661,3.661,0,0,0,1.739-1.9l1.617.447a4.249,4.249,0,0,1-1.915,2l1.775,1.024Z" transform="translate(-147.535 -163.743)" fill="#e8a50f"/></g></g><g transform="translate(0 5.352)"><path d="M139.383,171.983c5.629,3.249,14.757,3.249,20.385,0s5.629-8.521,0-11.771-14.756-3.248-20.385,0S133.754,168.732,139.383,171.983Z" transform="translate(-135.161 -155.749)" fill="#e8a50f"/><path d="M139.383,168.584c5.629,3.249,14.757,3.249,20.385,0s5.629-8.522,0-11.772-14.756-3.247-20.385,0S133.754,165.334,139.383,168.584Z" transform="translate(-135.161 -154.377)" fill="#f4cf31"/><g transform="translate(1.764 0.895)"><path d="M141.885,168.6c-2.427-1.4-3.766-3.282-3.766-5.3s1.339-3.9,3.766-5.3a19.615,19.615,0,0,1,17.768,0c2.427,1.4,3.764,3.283,3.764,5.3s-1.337,3.9-3.764,5.3a19.6,19.6,0,0,1-17.768,0Zm.293-10.09c-2.239,1.293-3.474,3-3.475,4.792s1.235,3.5,3.475,4.794a19.038,19.038,0,0,0,17.184,0c2.24-1.294,3.474-3,3.474-4.794s-1.234-3.5-3.474-4.792a19.037,19.037,0,0,0-17.183,0Z" transform="translate(-138.119 -155.878)" fill="#e8a50f"/></g><g transform="translate(7.381 2.914)"><path d="M162.081,168.156l-1.828-1.054a6.829,6.829,0,0,1-5.778-.112c-1.565-.9-1.548-1.949-.477-3.419.88-1.257,1.073-1.9.16-2.426a3.47,3.47,0,0,0-3.374.2,3.518,3.518,0,0,0-1.616,1.645l-1.563-.437a3.636,3.636,0,0,1,1.633-1.674l-1.7-.984,1.105-.637,1.758,1.013a6.548,6.548,0,0,1,5.5.111c1.529.885,1.213,2,.122,3.438-.771,1.055-.861,1.8.124,2.362a4.02,4.02,0,0,0,3.811-.231,3.675,3.675,0,0,0,1.739-1.9l1.617.446a4.239,4.239,0,0,1-1.915,2l1.775,1.025Z" transform="translate(-147.535 -159.262)" fill="#e8a50f"/></g></g><g transform="translate(0 2.674)"><path d="M139.383,167.5c5.629,3.249,14.757,3.249,20.385,0s5.629-8.519,0-11.769-14.756-3.25-20.385,0S133.754,164.247,139.383,167.5Z" transform="translate(-135.161 -151.261)" fill="#e8a50f"/><path d="M139.383,164.1c5.629,3.249,14.757,3.249,20.385,0s5.629-8.521,0-11.771-14.756-3.25-20.385,0S133.754,160.847,139.383,164.1Z" transform="translate(-135.161 -149.888)" fill="#f4cf31"/><g transform="translate(1.764 0.897)"><path d="M141.885,164.116c-2.427-1.4-3.766-3.283-3.766-5.3s1.339-3.9,3.766-5.3a19.605,19.605,0,0,1,17.768,0c2.427,1.4,3.764,3.284,3.764,5.3s-1.337,3.9-3.764,5.3a19.6,19.6,0,0,1-17.768,0Zm.293-10.09c-2.239,1.293-3.474,3-3.475,4.792s1.235,3.5,3.475,4.793a19.014,19.014,0,0,0,17.184,0c2.24-1.294,3.474-3,3.474-4.793s-1.234-3.5-3.474-4.792a19.027,19.027,0,0,0-17.183,0Z" transform="translate(-138.119 -151.392)" fill="#e8a50f"/></g><g transform="translate(7.381 2.915)"><path d="M162.081,163.67l-1.828-1.054a6.831,6.831,0,0,1-5.778-.113c-1.565-.9-1.548-1.948-.477-3.417.88-1.257,1.073-1.9.16-2.422a3.461,3.461,0,0,0-3.374.2,3.525,3.525,0,0,0-1.616,1.643l-1.563-.435a3.631,3.631,0,0,1,1.633-1.674l-1.7-.985,1.105-.638,1.758,1.013a6.546,6.546,0,0,1,5.5.112c1.529.884,1.213,2,.122,3.438-.771,1.056-.861,1.8.124,2.365a4.027,4.027,0,0,0,3.811-.236,3.658,3.658,0,0,0,1.739-1.9l1.617.448a4.252,4.252,0,0,1-1.915,2l1.775,1.025Z" transform="translate(-147.535 -154.775)" fill="#e8a50f"/></g></g><path d="M139.383,163.015c5.629,3.249,14.757,3.249,20.385,0s5.629-8.521,0-11.772-14.756-3.249-20.385,0S133.754,159.764,139.383,163.015Z" transform="translate(-135.161 -146.777)" fill="#e8a50f"/><path d="M139.383,159.612c5.629,3.25,14.757,3.25,20.385,0s5.629-8.521,0-11.769-14.756-3.251-20.385,0S133.754,156.363,139.383,159.612Z" transform="translate(-135.161 -145.405)" fill="#ffdd50"/><g transform="translate(1.764 0.896)"><path d="M141.885,159.632c-2.427-1.4-3.766-3.284-3.766-5.3s1.339-3.894,3.766-5.3a19.605,19.605,0,0,1,17.768,0c2.427,1.4,3.764,3.281,3.764,5.3s-1.337,3.9-3.764,5.3a19.6,19.6,0,0,1-17.768,0Zm.293-10.092c-2.239,1.293-3.474,3-3.475,4.792s1.235,3.5,3.475,4.8a19.039,19.039,0,0,0,17.184,0c2.24-1.3,3.474-3,3.474-4.8s-1.234-3.5-3.474-4.792a19.037,19.037,0,0,0-17.183,0Z" transform="translate(-138.119 -146.907)" fill="#e8a50f"/></g><g transform="translate(6.038 3.819)"><path d="M145.424,160.074l1.775-1.027a4.251,4.251,0,0,1-1.915-2l1.617-.447a3.666,3.666,0,0,0,1.74,1.9,4.029,4.029,0,0,0,3.811.234c.985-.568.9-1.31.124-2.365-1.092-1.442-1.407-2.555.122-3.439a6.543,6.543,0,0,1,5.5-.11l1.758-1.015,1.105.639-1.7.984a3.635,3.635,0,0,1,1.633,1.674l-1.563.435a3.53,3.53,0,0,0-1.616-1.643,3.46,3.46,0,0,0-3.373-.2c-.913.529-.72,1.167.159,2.425,1.071,1.469,1.088,2.514-.476,3.42a6.842,6.842,0,0,1-5.778.109l-1.828,1.056Z" transform="translate(-145.283 -151.806)" fill="#e8a50f"/></g><path d="M147.538,159.535l-.193,1.37,14.546-8.257-1.623-.34Z" transform="translate(-140.077 -148.19)" fill="#e8a50f"/></g><g transform="translate(34.861 51.668)"><path d="M110.413,157.657l.682-.35a.4.4,0,0,1,.107-.061h0a.656.656,0,0,1,.558.09l45,25.944a1.933,1.933,0,0,1,.874,1.515v34.586a.616.616,0,0,1-.255.566.538.538,0,0,1-.074.033l-.576.381-1.306-1.171.465.194-44.167-25.5a1.932,1.932,0,0,1-.874-1.515V159.085Z" transform="translate(-110.165 -157.215)" fill="#c8c2ff"/><path d="M110,193.058a1.936,1.936,0,0,0,.874,1.515l45.038,26c.483.279.874.054.874-.5V185.484a1.931,1.931,0,0,0-.874-1.515l-45.038-26c-.483-.279-.874-.053-.874.5Z" transform="translate(-109.998 -157.47)" fill="#b7abff"/><path d="M123.7,165.376l-12.832-7.409c-.483-.279-.874-.053-.874.5v9.9c20.572,9.027,36.265,28.813,42.828,50.423l.411.237C148.52,198.688,140.209,178.548,123.7,165.376Z" transform="translate(-109.998 -157.47)" fill="#c8c2ff"/><g transform="translate(2.37 5.71)"><g transform="translate(0.146)"><path d="M115.907,169.486a1.674,1.674,0,0,1-.589-.235,2.117,2.117,0,0,1-1.1-1.763c0-.7.474-.9,1.166-.5a2.288,2.288,0,0,1,.53.405l-.07.194a2.028,2.028,0,0,0-.45-.353c-.523-.3-.87-.169-.87.416a1.63,1.63,0,0,0,.857,1.39,1.317,1.317,0,0,0,.47.179Z" transform="translate(-114.215 -166.788)" fill="#fff"/><path d="M117.653,168.1a4.058,4.058,0,0,1,.553.273,1.84,1.84,0,0,1,.645.554.946.946,0,0,1,.175.524c0,.294-.185.382-.42.326v.01a1.154,1.154,0,0,1,.327.639,5.375,5.375,0,0,0,.172.71l-.3-.172a4.35,4.35,0,0,1-.149-.618.9.9,0,0,0-.447-.691l-.271-.157v.965l-.288-.166Zm.288,1.181.295.17c.308.178.5.122.5-.133a.883.883,0,0,0-.514-.712,1.563,1.563,0,0,0-.285-.138Z" transform="translate(-115.602 -167.316)" fill="#fff"/><path d="M121.791,171.62l-.867-.5v.8l.966.558v.241L120.636,172V169.77l1.2.7v.241l-.916-.529v.7l.867.5Z" transform="translate(-116.806 -167.991)" fill="#fff"/><path d="M123.363,171.394a5.8,5.8,0,0,1,.613.307,2.623,2.623,0,0,1,.9.8,1.737,1.737,0,0,1,.315.981c0,.363-.113.6-.322.68a1.256,1.256,0,0,1-.987-.249c-.205-.119-.377-.228-.523-.329Zm.289,2.136a3.182,3.182,0,0,0,.291.185c.616.355.95.2.95-.4a1.6,1.6,0,0,0-.9-1.381,2.2,2.2,0,0,0-.337-.165Z" transform="translate(-117.906 -168.646)" fill="#fff"/><path d="M127.344,173.642v2.227l-.288-.166v-2.227Z" transform="translate(-119.396 -169.486)" fill="#fff"/><path d="M128.632,174.63l-.679-.392v-.245l1.652.954v.245l-.682-.394v1.983l-.291-.169Z" transform="translate(-119.758 -169.695)" fill="#fff"/><path d="M133.782,179.806a1.647,1.647,0,0,1-.59-.234,2.117,2.117,0,0,1-1.1-1.763c0-.7.474-.9,1.166-.5a2.3,2.3,0,0,1,.53.405l-.07.194a2.006,2.006,0,0,0-.449-.353c-.523-.3-.871-.169-.871.416a1.632,1.632,0,0,0,.857,1.391,1.326,1.326,0,0,0,.47.178Z" transform="translate(-121.427 -170.951)" fill="#fff"/><path d="M135.8,180.346l-.231.567-.3-.172.758-1.789.348.2.761,2.666-.307-.178-.239-.838Zm.732.2-.218-.768c-.05-.174-.083-.325-.116-.472l-.007,0c-.033.113-.069.228-.113.338l-.218.518Z" transform="translate(-122.709 -171.695)" fill="#fff"/><path d="M138.943,180.389a4.023,4.023,0,0,1,.553.273,1.835,1.835,0,0,1,.645.554.947.947,0,0,1,.176.524c0,.294-.185.382-.421.326v.01a1.154,1.154,0,0,1,.327.639,5.579,5.579,0,0,0,.172.71l-.3-.172a4.24,4.24,0,0,1-.149-.618.9.9,0,0,0-.447-.691l-.271-.157v.965l-.289-.166Zm.289,1.181.295.17c.308.178.5.122.5-.133a.883.883,0,0,0-.514-.712,1.584,1.584,0,0,0-.284-.138Z" transform="translate(-124.192 -172.275)" fill="#fff"/><path d="M141.927,182.111a5.8,5.8,0,0,1,.612.307,2.631,2.631,0,0,1,.9.8,1.736,1.736,0,0,1,.315.981c0,.364-.113.6-.322.68a1.257,1.257,0,0,1-.986-.249c-.206-.119-.378-.228-.523-.328Zm.288,2.136a2.915,2.915,0,0,0,.291.184c.616.356.951.206.951-.4a1.6,1.6,0,0,0-.9-1.381,2.2,2.2,0,0,0-.338-.165Z" transform="translate(-125.396 -172.97)" fill="#fff"/></g><g transform="translate(5.165 27.118)"><path d="M124.09,213.847c0,.73-.271.976-.748.7a1.712,1.712,0,0,1-.712-1.515c0-.72.311-.937.748-.685A1.654,1.654,0,0,1,124.09,213.847Zm-1.169-.642a1.278,1.278,0,0,0,.437,1.128c.3.172.44-.093.44-.641a1.25,1.25,0,0,0-.437-1.128C123.107,212.417,122.921,212.621,122.921,213.205Z" transform="translate(-122.63 -212.248)" fill="#fff"/><path d="M126.478,215.761c0-.271.162-.37.427-.329l0-.012a1.055,1.055,0,0,1-.341-.679c0-.34.289-.405.665-.187a1.148,1.148,0,0,1,.626.89c0,.181-.089.325-.354.3v.01a1.212,1.212,0,0,1,.434.806c0,.373-.322.439-.732.2A1.329,1.329,0,0,1,126.478,215.761Zm1.158.656a1.06,1.06,0,0,0-.474-.743c-.252-.073-.387.014-.387.219a.814.814,0,0,0,.431.659C127.468,216.7,127.636,216.638,127.636,216.417Zm-.8-1.537a.925.925,0,0,0,.41.634c.186.044.327-.006.327-.2a.677.677,0,0,0-.364-.561C126.968,214.613,126.835,214.7,126.835,214.88Z" transform="translate(-124.183 -213.127)" fill="#fff"/><path d="M130.524,218.439a1.848,1.848,0,0,0,.235.126.621.621,0,0,0,.45.052.461.461,0,0,0,.285-.407l-.01-.005a.487.487,0,0,1-.507-.061,1.27,1.27,0,0,1-.635-1.025c0-.406.295-.593.735-.339a1.514,1.514,0,0,1,.712,1.317c0,.472-.159.711-.371.794a.83.83,0,0,1-.626-.074,1.934,1.934,0,0,1-.268-.138Zm.106-1.175a.833.833,0,0,0,.415.694c.2.113.347.1.424.02a.122.122,0,0,0,.026-.09,1,1,0,0,0-.44-.9C130.805,216.844,130.63,216.961,130.63,217.264Z" transform="translate(-125.742 -214.029)" fill="#fff"/><path d="M135.039,221.442v-.585l-1-.577v-.191l.96-.817.315.182v1.334l.3.174v.228l-.3-.174v.585Zm0-.813v-.717c0-.112,0-.222.01-.331l-.01-.006a2.745,2.745,0,0,1-.179.214l-.527.427v.007Z" transform="translate(-127.233 -215.082)" fill="#fff"/><path d="M141.5,223l-.821-.474-.083.5a1.475,1.475,0,0,1,.175.088,1.807,1.807,0,0,1,.464.384,1.161,1.161,0,0,1,.307.729c0,.42-.334.541-.8.271a2.105,2.105,0,0,1-.536-.442l.073-.179a1.935,1.935,0,0,0,.461.384c.275.159.51.116.51-.171a1.039,1.039,0,0,0-.619-.833,3.106,3.106,0,0,0-.3-.149l.139-.95,1.03.595Z" transform="translate(-129.721 -216.246)" fill="#fff"/><path d="M145.268,225.349a1.451,1.451,0,0,0-.218-.113c-.458-.188-.7.007-.748.332l.01.005c.1-.076.281-.085.52.052a1.3,1.3,0,0,1,.649,1.068c0,.393-.269.6-.716.344a1.58,1.58,0,0,1-.761-1.355c0-.423.152-.669.364-.758a.9.9,0,0,1,.689.08,1.976,1.976,0,0,1,.212.106Zm-.083,1.191a.877.877,0,0,0-.443-.749c-.176-.1-.338-.086-.417.023a.156.156,0,0,0-.034.11,1.038,1.038,0,0,0,.474.888C145.016,226.958,145.185,226.847,145.185,226.54Z" transform="translate(-131.254 -217.347)" fill="#fff"/><path d="M149.331,227.17v.191l-.938,1.415-.3-.174.934-1.361v-.007l-1.052-.607v-.242Z" transform="translate(-132.855 -217.952)" fill="#fff"/><path d="M151.811,230.533a1.993,1.993,0,0,0,.477.411c.375.216.49.045.487-.135a1,1,0,0,0-.557-.751l-.162-.094v-.218l.162.093c.212.122.481.168.481-.086a.662.662,0,0,0-.378-.542.721.721,0,0,0-.431-.106l-.076-.255a.985.985,0,0,1,.562.159,1.105,1.105,0,0,1,.617.868c0,.221-.133.333-.4.276v.006a1.157,1.157,0,0,1,.48.829c0,.344-.268.49-.784.191a2.194,2.194,0,0,1-.56-.468Z" transform="translate(-134.372 -218.945)" fill="#fff"/><path d="M158.529,232.921l-.007,0-.374-.014-.056-.254.469.02.249.143v2.148l-.282-.163Z" transform="translate(-136.938 -220.479)" fill="#fff"/><path d="M161.6,236.537v-.178l.229-.089c.55-.205.8-.339.8-.662a.767.767,0,0,0-.427-.666.606.606,0,0,0-.456-.082l-.094-.258a.837.837,0,0,1,.61.134,1.235,1.235,0,0,1,.659,1.005c0,.4-.288.551-.741.725l-.173.059v.007l.968.558v.242Z" transform="translate(-138.356 -221.261)" fill="#fff"/><path d="M166.727,237.561l-.821-.474-.083.5a1.54,1.54,0,0,1,.175.088,1.8,1.8,0,0,1,.464.383,1.164,1.164,0,0,1,.308.73c0,.42-.335.54-.8.271a2.092,2.092,0,0,1-.536-.441l.073-.18a1.93,1.93,0,0,0,.46.385c.275.159.51.116.51-.172a1.038,1.038,0,0,0-.619-.833,3.051,3.051,0,0,0-.3-.149l.139-.951,1.03.595Z" transform="translate(-139.9 -222.123)" fill="#fff"/><path d="M170.124,241.7v-.585l-1-.577v-.191l.96-.817.314.182v1.334l.3.174v.228l-.3-.174v.585Zm0-.813v-.717c0-.112,0-.223.01-.331l-.01-.006a2.5,2.5,0,0,1-.179.214l-.527.426v.007Z" transform="translate(-141.389 -223.255)" fill="#fff"/><path d="M175.368,244.134a2,2,0,0,0,.477.41c.375.217.49.045.487-.135a1,1,0,0,0-.557-.75l-.162-.094v-.218l.162.093c.212.122.48.168.48-.086a.661.661,0,0,0-.378-.542.725.725,0,0,0-.429-.107l-.076-.255a.991.991,0,0,1,.563.16,1.1,1.1,0,0,1,.616.867c0,.221-.132.333-.4.276v.007a1.156,1.156,0,0,1,.48.829c0,.344-.268.489-.784.191a2.217,2.217,0,0,1-.56-.468Z" transform="translate(-143.877 -224.433)" fill="#fff"/><path d="M179.21,246.352a1.979,1.979,0,0,0,.477.41c.374.216.49.045.487-.135a1,1,0,0,0-.557-.751l-.162-.093v-.219l.162.094c.212.122.481.168.481-.087a.662.662,0,0,0-.378-.542.719.719,0,0,0-.431-.106l-.076-.256a1,1,0,0,1,.563.16,1.1,1.1,0,0,1,.616.868c0,.221-.132.333-.4.276v.007a1.154,1.154,0,0,1,.48.829c0,.344-.268.49-.784.191a2.193,2.193,0,0,1-.56-.469Z" transform="translate(-145.427 -225.328)" fill="#fff"/><path d="M184.268,247.689l-.821-.474-.083.5a1.6,1.6,0,0,1,.175.088,1.792,1.792,0,0,1,.464.384,1.16,1.16,0,0,1,.308.73c0,.419-.335.54-.8.271a2.1,2.1,0,0,1-.536-.442l.072-.18a1.929,1.929,0,0,0,.46.385c.275.159.511.116.511-.171a1.04,1.04,0,0,0-.619-.833,3.2,3.2,0,0,0-.3-.149l.139-.95,1.03.594Z" transform="translate(-146.978 -226.209)" fill="#fff"/><path d="M188.109,249.907l-.821-.474-.082.5a1.519,1.519,0,0,1,.176.088,1.836,1.836,0,0,1,.463.383,1.165,1.165,0,0,1,.308.73c0,.42-.335.54-.8.271a2.087,2.087,0,0,1-.537-.442l.073-.18a1.918,1.918,0,0,0,.46.385c.275.159.509.116.509-.171a1.035,1.035,0,0,0-.619-.833,2.85,2.85,0,0,0-.3-.149l.14-.951,1.029.595Z" transform="translate(-148.527 -227.104)" fill="#fff"/></g><g transform="translate(0 9.317)"><path d="M131.37,198.893a3.254,3.254,0,0,1-1.133,2.628l3.541,2.044c.436.252.79.1.79-.333v-2.492Z" transform="translate(-120.534 -189.059)" fill="#edba3b"/><path d="M134.568,197.16v-2.631a1.64,1.64,0,0,0-.79-1.247l-3.541-2.044a9.272,9.272,0,0,1,1.138,4.078Z" transform="translate(-120.534 -185.971)" fill="#edba3b"/><path d="M117.164,187.337a3.333,3.333,0,0,1,1.138-2.764l-3.54-2.044c-.437-.252-.79-.1-.79.334v2.631Z" transform="translate(-113.971 -182.407)" fill="#edba3b"/><path d="M113.971,188.4V190.9a1.638,1.638,0,0,0,.79,1.246l3.54,2.044a9.33,9.33,0,0,1-1.133-3.936Z" transform="translate(-113.971 -184.827)" fill="#edba3b"/><path d="M125.688,189.059l-4.5-2.6a3.431,3.431,0,0,0-1.145,2.936,9.2,9.2,0,0,0,1.145,4.258l4.5,2.6a3.431,3.431,0,0,0,1.145-2.936A9.2,9.2,0,0,0,125.688,189.059Z" transform="translate(-116.421 -184.043)" fill="#edba3b"/></g></g><g transform="translate(36.794 28.05)"><g transform="translate(0.659 0.669)"><path d="M173.412,209.471l-.629-.363v-3.749l.629.363Z" transform="translate(-172.783 -205.359)" fill="#edba3b"/><path d="M175.917,210.917l-.629-.363v-3.749l.629.363Z" transform="translate(-173.794 -205.943)" fill="#edba3b"/><path d="M178.422,212.364l-.629-.363v-3.749l.629.363Z" transform="translate(-174.804 -206.526)" fill="#edba3b"/><path d="M180.927,213.81l-.629-.363V209.7l.629.363Z" transform="translate(-175.815 -207.11)" fill="#edba3b"/></g><path d="M171.679,204.238l6.429,3.712-3.215-3.488Z" transform="translate(-171.679 -204.238)" fill="#edba3b"/><path d="M178,214.783l-5.741-3.315V210.7L178,214.016Z" transform="translate(-171.911 -206.846)" fill="#edba3b"/></g></g><g transform="translate(196.779 100.046)"><g transform="translate(0)"><ellipse cx="19.985" cy="18.476" rx="19.985" ry="18.476" transform="translate(0 12.102)" fill="#ffb600"/><path d="M406.3,263.225a5.779,5.779,0,0,0-5.742,2.386c-2.461,3.206,1.939,6.338,8.351,5.741s9.171,6.189,3.5,10.737-21.549,1.64-23.041-7.307S398.915,260.019,406.3,263.225Z" transform="translate(-384.583 -248.006)" fill="#ffce00"/><ellipse cx="2.288" cy="1.469" rx="2.288" ry="1.469" transform="translate(17.588 16.473)" fill="#efa500"/><path d="M426.615,238.315c-9.516.5-12.367,11.268-13.2,16.544-.216,1.374-.294,2.366-.317,2.718a3.348,3.348,0,0,0,.987.149,3.481,3.481,0,0,0,.4-.026c.053-.774.15-1.751.305-2.833a28.387,28.387,0,0,1,1.928-7.273c3.728-8.4,10.29-7.832,10.29-7.832A1.39,1.39,0,0,0,426.615,238.315Z" transform="translate(-394.214 -238.315)" fill="#7a9b00"/></g><g transform="translate(0 1.092)"><path d="M406.764,242.838s-15.708-9.6-25.327,7.453C389.565,252.553,400.3,252.335,406.764,242.838Z" transform="translate(-381.437 -240.146)" fill="#7a9b00"/><path d="M406.764,244.658a68.407,68.407,0,0,0-25.327,7.453C389.565,254.374,400.3,254.155,406.764,244.658Z" transform="translate(-381.437 -241.967)" fill="#8daf00"/></g></g><path d="M289.807,310.277c0,7.757-10.756,14.044-24.025,14.044s-24.024-6.287-24.024-14.044,10.756-14.043,24.024-14.043S289.807,302.52,289.807,310.277Z" transform="translate(-128.301 -161.639)" opacity="0.57" fill="url(#i)" style="mix-blend-mode:multiply;isolation:isolate"/><path d="M315.655,309.275c0,7.757-10.756,14.044-24.025,14.044s-24.024-6.287-24.024-14.044,10.756-14.043,24.024-14.043S315.655,301.518,315.655,309.275Z" transform="translate(-138.73 -161.234)" opacity="0.57" fill="url(#j)" style="mix-blend-mode:multiply;isolation:isolate"/><path d="M361.321,295.342c0,7.757-10.755,14.044-24.024,14.044s-24.024-6.287-24.024-14.044S324.028,281.3,337.3,281.3,361.321,287.585,361.321,295.342Z" transform="translate(-157.155 -155.613)" opacity="0.85" fill="url(#k)" style="mix-blend-mode:multiply;isolation:isolate"/><g transform="translate(66.74 70.74)"><g transform="translate(56.616)"><path d="M267.556,225.238c.378-1,1.6-7.225,1.711-8.06.33-2.475.388-3.235,1.346-4,.279-.223.368-.426.733-.514,2.184-.53,3.1.5,2.378,4.1a101.93,101.93,0,0,1-3.111,10.743c-1.034,2.691-10.2,5.888-10.564,6.449-.77-1.059-.851-1.678-1.7-1.79C261.963,229.049,267.112,226.413,267.556,225.238Z" transform="translate(-258.352 -198.606)" fill="#fcaf90"/><path d="M280.411,216.131c.721-3.595-.01-5.6-2.194-5.07a2.561,2.561,0,0,0-1.008.419c-.957.768-1.421,1.466-1.751,3.941-.058.439-.28,2.554-.532,4.606,1.412.345,3,.69,4.54,1.035C280.008,218.559,280.355,216.411,280.411,216.131Z" transform="translate(-265.039 -197.979)" fill="#70c2ef"/><g transform="translate(7.959)"><path d="M276.046,313.917a5,5,0,0,1-2.189,2.932c-1.738.994-2.632,2.088-1.912,2.908s2.063.622,3.256-.124,3.132-2.436,3.753-2.784-.227-2.833-.227-2.833Z" transform="translate(-271.694 -239.513)" fill="#0c0c3f"/><path d="M303.641,307.251a5,5,0,0,1-.542,3.619c-1.062,1.7-1.333,3.085-.31,3.467s2.112-.428,2.81-1.649,1.608-3.627,1.991-4.227-1.539-2.39-1.539-2.39Z" transform="translate(-283.981 -236.348)" fill="#0c0c3f"/><g transform="translate(2.162 39.084)"><path d="M285.06,256.714s-4.035,11.61-4.371,14.523,1.236,12.275-.248,19.163c-2.021,1.033-2.639.37-2.639.37l-.468-.246s-2.082-15.938-2.013-19.559,1.491-16.258,1.491-16.258Z" transform="translate(-275.319 -254.708)" fill="#100784"/></g><g transform="translate(9.124 39.552)"><path d="M295.788,255.492s-1.617,11.5-1.889,14.42,5.211,10.919,6.387,15.689a3.009,3.009,0,0,1-2.99,1.77l-.545-.777s-7.189-11.84-8.221-15.311c-1.41-4.742-1.541-15.069-1.541-15.069Z" transform="translate(-286.989 -255.492)" fill="#25159b"/></g><path d="M284.871,208.376s7.477,2.2,9.515,6.178-2.066,8.6-2.007,9.883-.242,12.061-.242,12.061a15.839,15.839,0,0,1-10.878,1,8.393,8.393,0,0,1-4.831-3.466s.891-9.422.71-11.884-1.328-8.98,1.028-12.067A17.1,17.1,0,0,1,284.871,208.376Z" transform="translate(-273.604 -196.92)" fill="#58aee8"/><path d="M291.7,203.721l.388,4.437-.682.829a3.079,3.079,0,0,1-3.1,1.074,1.414,1.414,0,0,1-.779-.4h0l-.3-2.458Z" transform="translate(-277.965 -195.051)" fill="#f4a589"/><path d="M282.845,196.789s-1.124,6.778,2.354,8.4c1.439.3,4.482-1.681,4.423-3.9,1.2-.239,1.2-2.518.6-3s-.84.779-.84.779.57-3.058-1.229-3.088A29.939,29.939,0,0,0,282.845,196.789Z" transform="translate(-276.123 -191.927)" fill="#fcaf90"/><path d="M286.694,194.288s-1,1.946-4.34,1.79c-3.157-.148-4.473-2.786-3.65-2.6,2.03.469,4.641-8.082,10.214-2.251,1.825.6,1.268,6.77-.65,7.79-.034-.178-.09-.563-.09-.563a2.446,2.446,0,0,0,.571-1.62c-.09-.854-.3-1.109-.48-1.124s-.555.615-.614.945a3.391,3.391,0,0,0-.03.734l-.449.075a4.816,4.816,0,0,0-.121-1.049C286.95,196.163,286.184,194.873,286.694,194.288Z" transform="translate(-274.426 -189.187)" fill="#181082"/></g><path d="M289.5,231.9c.333-1.015,1.347-6.151,1.422-6.99.224-2.487.246-3.666,1.169-4.474a1.62,1.62,0,0,1,.725-.486c2.159-.625,2.472.469,1.908,4.092-.08.511-.623,6.953-1.908,10.785-.917,2.734-13.19,5.88-13.527,6.455-1.033.024-.42-1.568-.883-2.241C282.705,236.977,289.106,233.09,289.5,231.9Z" transform="translate(-266.443 -201.532)" fill="#fcaf90"/><path d="M300.916,218.319a2.55,2.55,0,0,0-.989.462c-.923.808-1.355,1.526-1.579,4.013-.035.392-.322,2.266-.652,4.255a10.713,10.713,0,0,1,4.73,1.111c.505-2.52.861-4.618.9-4.871C303.891,219.666,303.075,217.694,300.916,218.319Z" transform="translate(-274.227 -200.895)" fill="#70c2ef"/></g><g transform="translate(0 32.504)"><g transform="translate(43.355 60.895)"><g transform="translate(0.114 0.005)"><path d="M236.311,350.441a5.6,5.6,0,0,1,2.7-4.256,1.889,1.889,0,0,1,2.241-.1h0l.92.927-.493.623a5.721,5.721,0,0,1-2.668,3.944,3.35,3.35,0,0,1-.689.3l-.6.755-.986-.985,0,0A1.631,1.631,0,0,1,236.311,350.441Z" transform="translate(-236.311 -345.769)" fill="#a1a1a1"/></g><g transform="translate(0 0)"><ellipse cx="3.587" cy="2.029" rx="3.587" ry="2.029" transform="matrix(0.601, -0.799, 0.799, 0.601, 0, 5.733)" fill="#e8e8e8"/></g></g><g transform="translate(27.946 69.7)"><g transform="translate(0.113 0.004)"><path d="M210.48,365.2a5.6,5.6,0,0,1,2.7-4.255,1.888,1.888,0,0,1,2.241-.1h0l.92.927-.493.623a5.724,5.724,0,0,1-2.668,3.944,3.351,3.351,0,0,1-.69.3l-.6.755-.986-.985,0,0A1.629,1.629,0,0,1,210.48,365.2Z" transform="translate(-210.48 -360.529)" fill="#a1a1a1"/></g><g transform="translate(0 0)"><ellipse cx="3.587" cy="2.029" rx="3.587" ry="2.029" transform="matrix(0.601, -0.799, 0.799, 0.601, 0, 5.733)" fill="#e8e8e8"/></g></g><g transform="translate(22.847 49.943)"><g transform="translate(0.114 0.004)"><path d="M201.932,332.081a5.6,5.6,0,0,1,2.7-4.256,1.888,1.888,0,0,1,2.241-.1h0l.92.928-.493.623a5.721,5.721,0,0,1-2.668,3.944,3.35,3.35,0,0,1-.689.3l-.6.755-.986-.986,0,0A1.63,1.63,0,0,1,201.932,332.081Z" transform="translate(-201.932 -327.408)" fill="#a1a1a1"/></g><g transform="translate(0 0)"><ellipse cx="3.587" cy="2.029" rx="3.587" ry="2.029" transform="matrix(0.601, -0.799, 0.799, 0.601, 0, 5.733)" fill="#e8e8e8"/></g></g><g transform="translate(7.438 58.748)"><g transform="translate(0.113 0.005)"><path d="M176.1,346.841a5.6,5.6,0,0,1,2.7-4.256,1.889,1.889,0,0,1,2.241-.1h0l.92.927-.493.623a5.722,5.722,0,0,1-2.668,3.944,3.353,3.353,0,0,1-.69.3l-.6.755-.986-.985,0,0A1.63,1.63,0,0,1,176.1,346.841Z" transform="translate(-176.101 -342.169)" fill="#a1a1a1"/></g><g transform="translate(0 0)"><ellipse cx="3.587" cy="2.029" rx="3.587" ry="2.029" transform="matrix(0.601, -0.799, 0.799, 0.601, 0, 5.733)" fill="#e8e8e8"/></g></g><g transform="translate(6.268 40.81)"><path d="M174.286,332.623l22.2-12.922v-7.1c.327-.177.671-.345,1.027-.508v8.2l-22.157,12.9,19.727,9.762,24.13-14.1V320h1.027v9.441l-24.7,14.432a.9.9,0,0,1-.855.03L174.327,333.82A.68.68,0,0,1,174.286,332.623Z" transform="translate(-173.948 -312.091)" fill="#d1d1d1"/></g><g transform="translate(20.128 20.281)"><path d="M197.183,307.349l41.475-29.673-3.03,25.261-35.181,20.311Zm40.179-27.483L198.323,307.8l2.842,13.852,33.5-19.342Z" transform="translate(-197.183 -277.676)" fill="#afafaf"/></g><g transform="translate(0 9.522)"><path d="M163.441,289.312l41.474-29.673-2.991,24.9L166.7,305.21Zm40.179-27.483-39.039,27.93,2.842,13.851,33.543-19.7Z" transform="translate(-163.441 -259.639)" fill="#d1d1d1"/></g><g transform="translate(3.262 54.156)"><g transform="translate(0 0)"><rect width="1.026" height="22.851" transform="translate(0 0.905) rotate(-61.832)" fill="#afafaf"/></g></g><g transform="translate(37.526)"><path d="M226.349,277.526l3.55-28.017a.772.772,0,0,1,.319-.533l6.991-4.952a1.889,1.889,0,0,1,1.88-.176l19.141,8.774a.843.843,0,0,1,.149,1.445l-7.106,5.236a.563.563,0,0,0-.224.384l-3.654,29.531-.453.262Zm30.8-24.271-18.691-8.567a.473.473,0,0,0-.471.044l-6.858,4.857a.628.628,0,0,0-.26.434l-3.426,27.036L246.5,288.1l3.571-28.861a.827.827,0,0,1,.33-.564l6.791-5A.241.241,0,0,0,257.148,253.256Z" transform="translate(-226.349 -243.677)" fill="#afafaf"/></g><g transform="translate(41.474 12.686)"><g transform="translate(12.626 7.213)"><rect width="23.306" height="0.317" transform="translate(0 23.15) rotate(-83.373)" fill="#d1d1d1"/></g><g transform="translate(9.469 5.409)"><rect width="23.306" height="0.317" transform="translate(0 23.15) rotate(-83.373)" fill="#d1d1d1"/></g><g transform="translate(6.313 3.606)"><rect width="23.306" height="0.317" transform="translate(0 23.15) rotate(-83.373)" fill="#d1d1d1"/></g><g transform="translate(3.156 1.803)"><rect width="23.306" height="0.317" transform="matrix(0.115, -0.993, 0.993, 0.115, 0, 23.15)" fill="#d1d1d1"/></g><g transform="translate(0 0)"><rect width="23.306" height="0.317" transform="matrix(0.115, -0.993, 0.993, 0.115, 0, 23.15)" fill="#d1d1d1"/></g></g><g transform="translate(5.738 35.221)"><g transform="translate(29.853 0)"><rect width="0.317" height="22.548" transform="matrix(0.51, -0.86, 0.86, 0.51, 0, 0.273)" fill="#d1d1d1"/></g><g transform="translate(27.223 1.656)"><rect width="0.317" height="22.548" transform="matrix(0.51, -0.86, 0.86, 0.51, 0, 0.273)" fill="#d1d1d1"/></g><g transform="translate(24.594 3.312)"><rect width="0.317" height="22.548" transform="matrix(0.51, -0.86, 0.86, 0.51, 0, 0.273)" fill="#d1d1d1"/></g><g transform="translate(21.739 4.828)"><rect width="0.317" height="22.548" transform="matrix(0.51, -0.86, 0.86, 0.51, 0, 0.273)" fill="#d1d1d1"/></g><g transform="translate(18.952 6.416)"><rect width="0.317" height="22.548" transform="matrix(0.51, -0.86, 0.86, 0.51, 0, 0.273)" fill="#d1d1d1"/></g><g transform="translate(16.115 7.944)"><rect width="0.317" height="22.548" transform="matrix(0.51, -0.86, 0.86, 0.51, 0, 0.273)" fill="#d1d1d1"/></g><g transform="translate(13.525 9.621)"><rect width="0.317" height="22.548" transform="matrix(0.51, -0.86, 0.86, 0.51, 0, 0.273)" fill="#d1d1d1"/></g><g transform="translate(10.744 11.138)"><rect width="0.317" height="22.548" transform="matrix(0.51, -0.86, 0.86, 0.51, 0, 0.273)" fill="#d1d1d1"/></g><g transform="translate(8.056 12.801)"><rect width="0.317" height="22.548" transform="matrix(0.51, -0.86, 0.86, 0.51, 0, 0.273)" fill="#d1d1d1"/></g><g transform="translate(5.176 14.314)"><rect width="0.317" height="22.548" transform="matrix(0.51, -0.86, 0.86, 0.51, 0, 0.273)" fill="#d1d1d1"/></g><g transform="translate(2.671 16.011)"><path d="M196.944,341.316l.161-.273L177.7,329.563l-.161.273Z" transform="translate(-177.537 -329.563)" fill="#d1d1d1"/></g><g transform="translate(0 17.634)"><path d="M192.466,344.036l.161-.273-19.407-11.48-.161.273Z" transform="translate(-173.059 -332.283)" fill="#d1d1d1"/></g></g><g transform="translate(1.837 13.675)"><g transform="translate(32.556)"><path d="M221.412,289.321,224,266.638l-.315-.036L221.1,289.285Z" transform="translate(-221.097 -266.602)" fill="#d1d1d1"/></g><g transform="translate(29.965 1.606)"><path d="M217.07,292.014l2.59-22.683-.315-.036-2.59,22.683Z" transform="translate(-216.755 -269.294)" fill="#d1d1d1"/></g><g transform="translate(27.374 3.212)"><path d="M212.727,294.706l2.591-22.683-.315-.036-2.591,22.683Z" transform="translate(-212.412 -271.987)" fill="#d1d1d1"/></g><g transform="translate(24.816 4.819)"><path d="M208.438,297.122,211,274.716l-.316-.036-2.559,22.405Z" transform="translate(-208.122 -274.68)" fill="#d1d1d1"/></g><g transform="translate(22.243 7.176)"><path d="M204.125,300.165l2.455-21.5-.316-.036-2.455,21.5Z" transform="translate(-203.809 -278.631)" fill="#d1d1d1"/></g><g transform="translate(19.647 9.188)"><path d="M199.774,303.181l2.414-21.14-.316-.036-2.414,21.14Z" transform="translate(-199.458 -282.005)" fill="#d1d1d1"/></g><g transform="translate(17.085 10.873)"><path d="M195.479,305.676l2.377-20.811-.316-.037-2.377,20.811Z" transform="translate(-195.163 -284.829)" fill="#d1d1d1"/></g><g transform="translate(14.484 12.809)"><path d="M191.118,308.692l2.351-20.581-.316-.036L190.8,308.655Z" transform="translate(-190.802 -288.075)" fill="#d1d1d1"/></g><g transform="translate(11.913 14.554)"><path d="M186.808,311.306l2.315-20.27-.316-.036-2.315,20.27Z" transform="translate(-186.492 -290.999)" fill="#d1d1d1"/></g><g transform="translate(9.316 16.581)"><path d="M182.454,314.339l2.273-19.905-.316-.036L182.138,314.3Z" transform="translate(-182.138 -294.398)" fill="#d1d1d1"/></g><g transform="translate(6.728 18.38)"><path d="M178.115,317.145l2.249-19.694-.316-.036L177.8,317.108Z" transform="translate(-177.799 -297.414)" fill="#d1d1d1"/></g><g transform="translate(4.164 20.205)"><path d="M173.818,319.747l2.2-19.238-.316-.036-2.2,19.238Z" transform="translate(-173.502 -300.473)" fill="#d1d1d1"/></g><g transform="translate(1.558 21.978)"><path d="M169.45,322.688l2.193-19.206-.316-.036-2.193,19.206Z" transform="translate(-169.134 -303.446)" fill="#d1d1d1"/></g><g transform="translate(0 23.952)"><path d="M166.836,315.445l1.12-8.65-.315-.04-1.12,8.65Z" transform="translate(-166.521 -306.755)" fill="#d1d1d1"/></g></g><g transform="translate(18.029 21.328)"><path d="M224.937,288.772l-16.178-9.34-15.095,8.715,16.178,9.34Z" transform="translate(-193.664 -279.431)" fill="#ffd673"/><path d="M205.777,284.722l16.42,9.48-4.757,2.746-16.42-9.48Z" transform="translate(-196.632 -281.566)" fill="#fdf9ff"/><path d="M193.664,311.416V294.041l16.288,9.286v17.655Z" transform="translate(-193.664 -285.326)" fill="#efb33a"/><path d="M235.971,312.72V295.065l-15,8.675V321.4Z" transform="translate(-204.681 -285.739)" fill="#f4c45b"/><path d="M228.541,303.358l4.757-2.746v5.8l-4.757,2.973Z" transform="translate(-207.736 -287.977)" fill="#e8e8e8"/><path d="M233.3,322.87v4.606l-4.757,2.746v-4.561Z" transform="translate(-207.736 -296.958)" fill="#e8e8e8"/></g><g transform="translate(23.133 12.482)"><path d="M223.274,270.89,212.383,264.6l-10.162,5.867,10.891,6.288Z" transform="translate(-202.221 -264.602)" fill="#ffd673"/><path d="M210.375,268.164l11.054,6.382-3.2,1.849-11.054-6.382Z" transform="translate(-204.219 -266.04)" fill="#fdf9ff"/><path d="M202.221,286.134v-11.7l10.965,6.252v11.885Z" transform="translate(-202.221 -268.571)" fill="#efb33a"/><path d="M230.7,287.013V275.127l-10.1,5.84v11.885Z" transform="translate(-209.637 -268.849)" fill="#f4c45b"/><path d="M225.7,280.71l3.2-1.849v3.9l-3.2,2Z" transform="translate(-211.694 -270.356)" fill="#e8e8e8"/><path d="M228.9,293.845v3.1l-3.2,1.849v-3.071Z" transform="translate(-211.694 -276.401)" fill="#e8e8e8"/></g><g transform="translate(20.128 20.281)"><path d="M197.183,307.349l41.475-29.673-3.03,25.261-35.181,20.311Zm40.179-27.483L198.323,307.8l2.842,13.852,33.5-19.342Z" transform="translate(-197.183 -277.676)" fill="#d1d1d1"/></g><g transform="translate(0 23.798)"><path d="M184.96,283.572a3.62,3.62,0,0,0-.018.937c.007.114,0,.228,0,.342l-20.357,14.565,2.842,13.851L179.63,306.1a3.6,3.6,0,0,0,.92.644L166.7,314.867l-3.263-15.9Z" transform="translate(-163.441 -283.572)" fill="#d1d1d1"/></g><g transform="translate(40.588 10.157)"><g transform="translate(0 0)"><rect width="1.026" height="22.823" transform="translate(0 0.905) rotate(-61.832)" fill="#d1d1d1"/></g></g><g transform="translate(0.331 38.958)"><g transform="translate(0 0)"><rect width="1.026" height="22.823" transform="translate(0 0.905) rotate(-61.832)" fill="#d1d1d1"/></g></g><g transform="translate(3.262 54.156)"><g transform="translate(0 0)"><rect width="1.026" height="22.851" transform="translate(0 0.905) rotate(-61.832)" fill="#d1d1d1"/></g></g><g transform="translate(39.899)"><path d="M259.835,252.622l-19.141-8.774a1.889,1.889,0,0,0-1.88.176l-6.991,4.952a.773.773,0,0,0-.319.533l-1.177,9.287a3.674,3.674,0,0,1,1.018.129l1.128-8.9a.628.628,0,0,1,.26-.434l6.858-4.857a.473.473,0,0,1,.471-.044l18.691,8.567a.241.241,0,0,1,.042.412l-6.791,5a.827.827,0,0,0-.33.564L248.1,288.1l-7.98-4.622a4.356,4.356,0,0,1-.105.835c-.014.064-.036.125-.055.187l8.583,4.983.453-.262,3.654-29.531a.563.563,0,0,1,.224-.384l7.106-5.236A.843.843,0,0,0,259.835,252.622Z" transform="translate(-230.328 -243.677)" fill="#d1d1d1"/></g><g transform="translate(3.549 41.347)"><g transform="translate(13.349 7.392)"><rect width="0.295" height="15.218" transform="translate(0 0.062) rotate(-12.078)" fill="#d1d1d1"/></g><g transform="translate(10.012 5.545)"><rect width="0.295" height="15.217" transform="translate(0 0.062) rotate(-12.078)" fill="#d1d1d1"/></g><g transform="translate(6.675 3.696)"><rect width="0.295" height="15.218" transform="translate(0 0.062) rotate(-12.078)" fill="#d1d1d1"/></g><g transform="translate(3.338 1.848)"><rect width="0.295" height="15.218" transform="translate(0 0.062) rotate(-12.078)" fill="#d1d1d1"/></g><g transform="translate(0 0)"><rect width="0.295" height="15.217" transform="translate(0 0.062) rotate(-12.078)" fill="#d1d1d1"/></g></g><g transform="translate(21.934 24.191)"><g transform="translate(32.556)"><path d="M255.1,306.95l2.59-22.683-.315-.036-2.59,22.683Z" transform="translate(-254.787 -284.23)" fill="#d1d1d1"/></g><g transform="translate(29.965 1.606)"><path d="M250.759,309.642l2.591-22.683-.315-.036-2.591,22.683Z" transform="translate(-250.444 -286.923)" fill="#d1d1d1"/></g><g transform="translate(27.374 3.212)"><path d="M246.416,312.335l2.591-22.683-.315-.036L246.1,312.3Z" transform="translate(-246.101 -289.615)" fill="#d1d1d1"/></g><g transform="translate(24.784 4.819)"><path d="M242.074,315.028l2.59-22.683-.315-.036-2.59,22.683Z" transform="translate(-241.759 -292.308)" fill="#d1d1d1"/></g><g transform="translate(22.194 7.176)"><path d="M237.731,318.228l2.5-21.932-.315-.036-2.5,21.932Z" transform="translate(-237.416 -296.259)" fill="#d1d1d1"/></g><g transform="translate(19.603 9.188)"><path d="M233.389,321.2l2.458-21.526-.315-.036-2.458,21.526Z" transform="translate(-233.073 -299.633)" fill="#d1d1d1"/></g><g transform="translate(17.013 10.873)"><path d="M229.046,323.941l2.449-21.447-.315-.036L228.731,323.9Z" transform="translate(-228.731 -302.458)" fill="#d1d1d1"/></g><g transform="translate(14.422 12.809)"><path d="M224.7,326.857l2.412-21.118-.315-.036-2.412,21.118Z" transform="translate(-224.388 -305.703)" fill="#d1d1d1"/></g><g transform="translate(11.913 14.554)"><path d="M220.5,328.934l2.315-20.27-.315-.036-2.315,20.27Z" transform="translate(-220.182 -308.628)" fill="#d1d1d1"/></g><g transform="translate(9.316 16.581)"><path d="M216.144,331.968l2.273-19.905-.315-.036-2.273,19.905Z" transform="translate(-215.828 -312.026)" fill="#d1d1d1"/></g><g transform="translate(6.728 18.38)"><path d="M211.8,334.773l2.249-19.694-.315-.036-2.249,19.694Z" transform="translate(-211.489 -315.042)" fill="#d1d1d1"/></g><g transform="translate(4.164 20.205)"><path d="M207.508,337.375l2.2-19.238-.316-.036-2.2,19.238Z" transform="translate(-207.192 -318.101)" fill="#d1d1d1"/></g><g transform="translate(1.558 21.978)"><path d="M203.139,340.316l2.193-19.206-.316-.036-2.193,19.206Z" transform="translate(-202.823 -321.074)" fill="#d1d1d1"/></g><g transform="translate(0 23.952)"><path d="M200.525,333.073l1.119-8.65-.315-.04-1.119,8.65Z" transform="translate(-200.211 -324.383)" fill="#d1d1d1"/></g></g></g><path d="M257.357,243.576a10.877,10.877,0,0,1-2.192,1.111c-.652.13-2,.286-2.467,1.33s-.162,1.708.845,2.4,2.953.619,3.294-.175c-.759-.57-.405-.943-.293-1.111s.6.1.812.22,1.2-1.506,1.2-1.506Z" transform="translate(-199.369 -211.132)" fill="#fcaf90"/><path d="M275.183,251.969a22.775,22.775,0,0,1-2.5.9,3.07,3.07,0,0,0-2.368,1.444c-.466,1.044-.261,1.594.746,2.284s2.968.6,3.309-.193c-.712-.435-.511-.861-.347-.979.2-.147.639-.011.852.1s1.2-1.506,1.2-1.506Z" transform="translate(-206.468 -214.519)" fill="#fcaf90"/></g><g transform="translate(170.226 102.001)"><g transform="translate(9.418 59.429)"><path d="M353.445,341.219a5.431,5.431,0,0,1-.381,1.333,6.376,6.376,0,0,0-.353,1.716s1.632,1.642,3.2,2.9,2.766,1.538,3.91,1.265c.546-.109.681-1.171.274-1.633s-4.3-3.188-4.141-4.523A6.8,6.8,0,0,0,353.445,341.219Z" transform="translate(-352.711 -341.219)" fill="#10105b"/><path d="M359.82,349.677c-1.143.273-2.343,0-3.91-1.265-1.414-1.138-2.876-2.58-3.15-2.853-.036.265-.049.461-.049.461s1.632,1.642,3.2,2.9,2.766,1.538,3.91,1.265c.4-.08.574-.664.483-1.155A.726.726,0,0,1,359.82,349.677Z" transform="translate(-352.711 -342.97)" fill="#0c0c3f"/></g><g transform="translate(18.937 52.318)"><path d="M369.405,329.3a5.486,5.486,0,0,1-.382,1.334,6.386,6.386,0,0,0-.354,1.717,17.657,17.657,0,0,1,3.323,2.642c1.513,1.621,2.643,1.8,3.786,1.526.546-.109.682-1.171.274-1.635s-4.3-3.186-4.141-4.521A6.793,6.793,0,0,0,369.405,329.3Z" transform="translate(-368.669 -329.299)" fill="#10105b"/><path d="M375.778,337.758c-1.144.273-2.029.118-3.786-1.6a32.5,32.5,0,0,0-3.273-2.519c-.036.265-.051.543-.051.543a14.865,14.865,0,0,1,2.957,2.328c1.785,1.844,3.009,2.031,4.152,1.759.4-.08.574-.666.484-1.155A.725.725,0,0,1,375.778,337.758Z" transform="translate(-368.669 -331.051)" fill="#0c0c3f"/></g><path d="M343.357,304.895s3.723,3.073,9.361,7.051c-2.149,4.368-3.184,12.6-3.266,13.8,1.227,2.174,2.859,1.195,2.859,1.195s5.288-14.591,6.35-16.227-7.409-8.537-7.409-8.537Z" transform="translate(-339.519 -266.036)" fill="#25159b"/><path d="M359.049,297.154s4.841,3.223,9.871,5.935c-2.485,4.037-3.6,10.231-3.43,11.417,1.552,1.451,2.675.654,2.675.654s5.168-11.447,5.867-13.265-9.972-10.137-9.972-10.137Z" transform="translate(-345.851 -261.834)" fill="#100784"/><g transform="translate(0.401)"><path d="M374.227,289.424a1.222,1.222,0,0,0,.456-.475l-.953.531A4.479,4.479,0,0,0,374.227,289.424Z" transform="translate(-352.176 -260.7)" fill="#e2e2e2" style="mix-blend-mode:multiply;isolation:isolate"/><path d="M369.886,279.38c-3.007,1.05-7.87-6.028-8.788-6.791a2.3,2.3,0,0,1-.585-1.792h-2.247a23.449,23.449,0,0,0,1.756,5.192c.587.8,7.32,7.319,8.941,4.82C367.95,280.289,370.087,280.549,369.886,279.38Z" transform="translate(-345.936 -253.376)" fill="#70c2ef"/><g transform="translate(0.669 28.553)"><path d="M350.029,298.809c-.2-2.229-.465-4.416.08-5.429.464-.866-.256-3.922-.256-3.922l-10.529.41a9.782,9.782,0,0,0,.167,7.324c.932,2.453,6.639,6.283,7.531,6.816C346.693,301.994,347.56,298.236,350.029,298.809Z" transform="translate(-338.719 -289.459)" fill="#25159b"/></g><path d="M352.6,275.688s1.5-16.811-3.1-18.575-8.828,2.436-10.629,6.5-1.162,12.856-1.177,14.742C344.013,282.7,352.783,277.777,352.6,275.688Z" transform="translate(-337.596 -247.689)" fill="#58aee8"/><g transform="translate(5.015)"><path d="M354.368,246s1.15,1.838.122,5.834c-.838,3.238-.937,4.149-2.289,4.284s-4.264-.777-4.665-3.34a2.406,2.406,0,0,1-.892-2.854c.65-1.225,1.106.115,1.106.115s-.026-2.672,1.862-3.646S354.368,246,354.368,246Z" transform="translate(-346.183 -243.301)" fill="#fcaf90"/><path d="M349.751,247.5c.007-.155,1.441,1.89,3.745,1.229a1.415,1.415,0,0,1-.973-.8,2.034,2.034,0,0,0,2.1.681,3.077,3.077,0,0,1-.838-.484,2.276,2.276,0,0,0,1.719.128c-.531-.228-.45-.579-.45-.579s.467.469,1.379-.326c-.369-.049-.333-1.751-1.673-2.977s-2.734-2.439-4.528-2.139c.439-.458.375-.564,1.009-.464a2.593,2.593,0,0,0-2.739.576c-1.395-.535-3.128,1.581-2.26,6.66.014-.128.132-.954.626-1.109s.907.81.795,1.055a11,11,0,0,0-.166,1.694l.638.335s-.2-1.259.254-1.641S349.664,249.434,349.751,247.5Z" transform="translate(-346.004 -241.593)" fill="#181082"/></g></g><g transform="translate(0 13.293)"><path d="M354.317,302.931l15.141-8.744v-.641l-24.419,3.385v.646Z" transform="translate(-340.198 -275.848)" fill="#a0a0a0"/><path d="M354.317,298.665l15.141-8.742-9.276-5.357-15.144,8.742Z" transform="translate(-340.198 -272.224)" fill="#d6d6d6"/><path d="M360.027,293.45c-.642-.047-1.368.11-2.5.131s-1.086-.616-1.13-1.525c-.356.263-.539,1.025-1.145,1.39-.336.2-.5.129-.5.129l-.473-.039a14.518,14.518,0,0,1-5.2-2.172v2.912a25.44,25.44,0,0,0,5.318,1.354,5.248,5.248,0,0,0,2.2.761C359.9,296.328,360.668,293.493,360.027,293.45Z" transform="translate(-341.83 -274.967)" fill="#fcaf90"/><path d="M348.11,281.575c-3.335-1.15-6.571-3.2-7.122-4.024-.427-.645-.193-2.589.072-4.616.22-1.784,1.484-4.034,1.231-6.9,0,0-.2-3.1-2.378-1.868-1.121.636-2.1,4.581-2.643,7.886a43.5,43.5,0,0,0-.3,7.5c0,.82,5.91,3.929,10.134,5.014A4.71,4.71,0,0,1,348.11,281.575Z" transform="translate(-336.923 -263.877)" fill="#70c2ef"/><path d="M375.4,275.412l-15.141,19.454-.494-.263V283.89l15.141-8.741Z" transform="translate(-346.139 -268.425)" fill="#fff"/><path d="M375.732,286.3l-15.14,8.742V284.329l15.141-8.74Z" transform="translate(-346.473 -268.602)" fill="#efefef"/></g></g><g transform="translate(99.31 17.219)"><path d="M262.293,121.849l-40.178,24.926c-1.453.839-4.074-.554-4.074-2.006V127.984a5.454,5.454,0,0,1,2.63-4.148l41.622-24.03c1.452-.839,4.3-.036,4.3,1.416l-1.67,16.479A5.453,5.453,0,0,1,262.293,121.849Z" transform="translate(-218.041 -99.466)" fill="#ffbd23"/><path d="M265.462,123.117l-41.622,24.03c-1.452.839-2.629.341-2.629-1.111V129.252a5.455,5.455,0,0,1,2.629-4.148l41.622-24.03c1.453-.839,2.629-.341,2.629,1.111v16.784A5.454,5.454,0,0,1,265.462,123.117Z" transform="translate(-219.32 -99.95)" fill="#ff7220"/><g transform="translate(7.02 11.943)"><path d="M229.809,154.055a14.22,14.22,0,0,1,1.235-.806,2.414,2.414,0,0,1,1.823-.491c.4.136.634.522.634,1.251a3.945,3.945,0,0,1-.647,2.124,5.726,5.726,0,0,1-1.989,1.8c-.415.239-.762.419-1.055.556Zm.58,3.647a5.3,5.3,0,0,0,.588-.307,3.475,3.475,0,0,0,1.916-3.017c.007-1.067-.595-1.394-1.823-.685a5.708,5.708,0,0,0-.681.453Z" transform="translate(-229.809 -132.891)" fill="#fff"/><path d="M237.836,150.4a.711.711,0,0,1-.374.577c-.207.119-.354.043-.354-.157a.738.738,0,0,1,.367-.579C237.7,150.118,237.836,150.2,237.836,150.4Zm-.654,4.52V151.69l.588-.339v3.234Z" transform="translate(-232.754 -131.872)" fill="#fff"/><path d="M239.618,153.267a1.486,1.486,0,0,0,.774-.214,1.079,1.079,0,0,0,.628-.843c0-.28-.167-.338-.6-.248-.581.128-.855-.034-.855-.422a2.072,2.072,0,0,1,1.115-1.593,1.68,1.68,0,0,1,.794-.258l-.147.512a1.228,1.228,0,0,0-.661.194.981.981,0,0,0-.541.753c0,.267.194.276.615.193.56-.11.848.005.848.487a2.134,2.134,0,0,1-1.209,1.666,1.94,1.94,0,0,1-.908.3Z" transform="translate(-233.707 -131.673)" fill="#fff"/><path d="M246.43,149.584a4.2,4.2,0,0,1-.928.723c-.975.563-1.609.267-1.609-.722a3.36,3.36,0,0,1,1.736-2.72,2.181,2.181,0,0,1,.814-.3l-.133.531a1.458,1.458,0,0,0-.681.239,2.258,2.258,0,0,0-1.142,1.882c0,.749.481.932,1.122.562a3.265,3.265,0,0,0,.721-.576Z" transform="translate(-235.492 -130.412)" fill="#fff"/><path d="M252,144.922a3.219,3.219,0,0,1-1.61,2.646c-.874.5-1.549.253-1.549-.77a3.206,3.206,0,0,1,1.6-2.641C251.373,143.62,252,143.933,252,144.922Zm-2.564,1.513c0,.708.407,1.008.981.676a2.21,2.21,0,0,0,.982-1.823c0-.547-.274-1.084-.968-.684A2.161,2.161,0,0,0,249.436,146.435Z" transform="translate(-237.488 -129.336)" fill="#fff"/><path d="M258.071,141.965c0,.334.007.624.027.866l-.521.3-.033-.508-.014.008a2.685,2.685,0,0,1-1.068,1.217c-.508.293-1.115.363-1.115-.772v-1.891l.588-.339v1.791c0,.614.187.921.721.613a1.885,1.885,0,0,0,.775-.982,1.131,1.131,0,0,0,.053-.331v-1.984l.588-.339Z" transform="translate(-240.113 -127.607)" fill="#fff"/><path d="M261.532,138.746c0-.335-.007-.6-.027-.86l.521-.3.034.515.013-.008a2.629,2.629,0,0,1,1.068-1.225c.447-.258,1.142-.391,1.142.718v1.93l-.588.339V137.99c0-.521-.193-.844-.747-.524a1.83,1.83,0,0,0-.788,1.056,1.074,1.074,0,0,0-.04.3v1.944l-.588.339Z" transform="translate(-242.598 -126.427)" fill="#fff"/><path d="M268.178,132.866v.928l.84-.486v.448l-.84.486v1.744c0,.4.113.563.441.374a2.291,2.291,0,0,0,.34-.237l.027.425a2.665,2.665,0,0,1-.521.381c-.274.158-.493.2-.634.118-.167-.077-.227-.329-.227-.71v-1.763l-.5.289v-.448l.5-.289v-.775Z" transform="translate(-244.856 -124.885)" fill="#fff"/><path d="M275.912,127.891a3.554,3.554,0,0,0-.441.282,3.751,3.751,0,0,0-1.509,2.415l.02-.012a2.827,2.827,0,0,1,1.048-1.107c.768-.443,1.309-.2,1.309.648a2.958,2.958,0,0,1-1.442,2.362c-.929.536-1.536.166-1.536-.964a4.565,4.565,0,0,1,.735-2.381,5.191,5.191,0,0,1,1.388-1.443,4.922,4.922,0,0,1,.428-.28Zm-.167,2.6c0-.621-.354-.792-.9-.479a2.148,2.148,0,0,0-.84,1.02.736.736,0,0,0-.067.3c.013.707.34,1.046.955.691A1.808,1.808,0,0,0,275.745,130.493Z" transform="translate(-247.381 -122.684)" fill="#fff"/><path d="M282.07,126.309a3.449,3.449,0,0,1-1.509,3.163c-.848.49-1.422.026-1.436-1.4a3.534,3.534,0,0,1,1.509-3.13C281.55,124.412,282.07,124.926,282.07,126.309Zm-2.357,1.428c0,1.129.347,1.569.882,1.261a2.58,2.58,0,0,0,.888-2.323c0-1.069-.274-1.612-.881-1.262A2.65,2.65,0,0,0,279.714,127.737Z" transform="translate(-249.707 -121.605)" fill="#fff"/><path d="M286.859,121.847a2.277,2.277,0,0,1-1.041,1.971c-.541.312-1.009.148-1.015-.724a2.3,2.3,0,0,1,1.049-1.961C286.459,120.783,286.859,121.019,286.859,121.847Zm-1.589.957c-.013.563.194.864.561.651a1.457,1.457,0,0,0,.561-1.312c0-.528-.154-.88-.561-.645A1.511,1.511,0,0,0,285.27,122.8Zm.508,2.86,2.551-5.962.374-.216-2.551,5.962Zm3.905-3.651a2.275,2.275,0,0,1-1.034,1.967c-.54.312-1.008.148-1.015-.717a2.307,2.307,0,0,1,1.048-1.968C289.29,120.945,289.683,121.185,289.683,122.014Zm-1.589.957c-.007.559.207.856.567.648a1.457,1.457,0,0,0,.561-1.312c0-.528-.154-.88-.561-.645A1.523,1.523,0,0,0,288.095,122.971Z" transform="translate(-251.998 -119.487)" fill="#fff"/></g></g><g transform="translate(12.815 108.659)"><g transform="translate(0 1.846)"><path d="M110.984,390.428a17.834,17.834,0,0,0,.076,3.188c.2.5,1.381.4,1.821.274,1.455-.413,5.419-3.088,5.332-4.524-.038-.587-.92-1.348-2.189-.4s-2.881,1.54-3.066,1.127S110.984,390.428,110.984,390.428Z" transform="translate(-88.335 -309.379)" fill="#414494"/><path d="M89.038,386.416a18.014,18.014,0,0,0,.094,3.173c.2.505,1.381.4,1.824.273,1.452-.41,5.563-3.06,5.475-4.5-.038-.589-1.2-1.145-3-.146-1.373.766-1.886,1.335-2.071.922S89.038,386.416,89.038,386.416Z" transform="translate(-79.484 -307.826)" fill="#414494"/><path d="M76.822,278.685S73.405,285,73.041,296.214c.611,2.15,5.935.919,6.611,0s.327-5.935.327-5.935h-2.7l.818-5.391Z" transform="translate(-73.041 -265.063)" fill="#fcaf90"/><path d="M79.4,290.537c-.005-.088-.01-.148-.01-.148l-1.068-1.206L77.51,285l-.916-6.031s-2.405,2.789-3.455,10.279C75.4,290.262,77.343,291.23,79.4,290.537Z" transform="translate(-73.081 -265.176)" fill="#ff4343"/><g transform="translate(2.194)"><path d="M85.827,359.385c-.062-.9-1.225-7.23-1.441-11.765a40.933,40.933,0,0,1,.443-8.885,61.33,61.33,0,0,0-2.809-11.765,42.85,42.85,0,0,1-.963-9.846l10.1.424s-.716,8.685-.608,19.485c.02,2.022-1.769,20.211-1.786,22.183a1.98,1.98,0,0,1-2.221.708C85.9,359.795,85.827,359.385,85.827,359.385Z" transform="translate(-78.466 -280.573)" fill="#fcaf90"/><path d="M91.157,317.549l-10.1-.424a42.85,42.85,0,0,0,.963,9.846c.239.928.846,5.157,1.526,9.2,1.711,1.37,5.275,1.055,7.054.462a1.544,1.544,0,0,0,.426-.313C90.97,325.987,91.157,317.549,91.157,317.549Z" transform="translate(-78.466 -280.573)" fill="#414494"/><path d="M98.048,340.173c-.863-2.015-4.646-9.534-5.514-11.432-4.055-7.659-3.445-11.119-3.445-11.119l12.624-.5s1.217,18.452,2.2,22.423c.16.634.666,21.656.8,22.179a1.841,1.841,0,0,1-1.9.724.841.841,0,0,1-.674-.478s-2.977-10.164-3.464-12.628A68.552,68.552,0,0,1,98.048,340.173Z" transform="translate(-81.697 -280.573)" fill="#fcaf90"/><path d="M89.09,317.623s-.61,3.459,3.445,11.119c.7,1.541,2.731,6.195,4.155,9.192,1.762.567,5.764-.329,6.8-1.941-.877-6.335-1.779-18.868-1.779-18.868Z" transform="translate(-81.697 -280.573)" fill="#414494"/><path d="M95.237,255.915a3.069,3.069,0,0,1,2.856,2.217,1.679,1.679,0,0,1,.067,1.018,4.432,4.432,0,0,0,.338,2.326c.489,1.336-.454,3.64-1.341,4.759a1.89,1.89,0,0,1-1.9-.428l-.684,2.412-5.373-1.37a9.915,9.915,0,0,0,0-4.88c-.647-2.962-.407-4.444,1.527-5.434a8.761,8.761,0,0,1,4.51-.622" transform="translate(-81.624 -255.849)" fill="#e8ac8f"/><path d="M97.146,279.891a18.744,18.744,0,0,0-7.366-4.668,24.16,24.16,0,0,0-4.981-1.178,7.693,7.693,0,0,0-6.919,3.12c-.821,1.079-1.962,3.974-.338,8.02s1.182,9.04,1.462,11.068c.357,2.573.3,9.8.3,9.8s.15.538,3.774,1.241c0,0,2.727.468,3.145.511a18.689,18.689,0,0,0,11.507-2.083c-.532-2.992-1.974-9.628-2.547-12.421s1.964-13.411,1.964-13.411" transform="translate(-76.718 -263.174)" fill="#ff6a48"/><path d="M117.406,343.651c-.7-1.411-1.21-2.612-1.627-3.593l-.153.058c.418.984.932,2.189,1.632,3.607a.082.082,0,0,0,.148-.073Z" transform="translate(-92.417 -289.826)" fill="#bcbadf"/><path d="M108.242,297.908s-.24,6.5,0,8.189,4.742,13.115,5.126,15.016-1.392,3.758-3.151,3.028c-.962-.4-.866-.765-.682-1a10.184,10.184,0,0,1,1.25-1.068,48.49,48.49,0,0,0-1.591-5.087c-.558-1.441-3.863-7.819-4.095-11.151s-.891-7.658-.891-7.658Z" transform="translate(-87.81 -272.819)" fill="#e8ac8f"/><path d="M108.626,299.7a74.775,74.775,0,0,1-.935-7.723c.01-1.253.476-3.208.561-4.18.25-2.88-.1-3.788-.989-4.9a2.926,2.926,0,0,0-1.032-.728c-2.335-1.149-3.945.823-4.036,5.067-.013.6-.011,1.246,0,1.912l.521.812s.1,6.924,1.3,10.431c1.081,3.16,3.27,8.749,3.981,10.124a40.42,40.42,0,0,1,1.62,3.767c1.172.236,1.479-1.487,2.144-2.161A126.131,126.131,0,0,1,108.626,299.7Z" transform="translate(-86.994 -266.339)" fill="#fcaf90"/><path d="M108.318,293.035c-.015-.6-.028-1.15-.038-1.621.009-1.253-.113-2.649-.027-3.62.25-2.88-.1-3.788-.989-4.9a2.926,2.926,0,0,0-1.032-.728c-2.335-1.149-3.945.823-4.036,5.067-.013.6-.011,1.246,0,1.912h0s0,2.128.187,4.642A12,12,0,0,0,108.318,293.035Z" transform="translate(-86.994 -266.339)" fill="#ff4343"/></g><g transform="translate(19.759 48.849)"><g transform="translate(3.839)"><path d="M113.607,337.739h0c-.16,0-.3.12-.436.367-.676,1.257-.563,8.81-.558,9.13a.082.082,0,0,0,.082.081h0a.083.083,0,0,0,.081-.084c0-.078-.119-7.83.538-9.05.1-.187.2-.282.291-.282h0c.116,0,.254.123.417.347l.126-.1C113.95,337.882,113.777,337.74,113.607,337.739Z" transform="translate(-112.601 -337.739)" fill="#bcbadf"/></g><g transform="translate(0 2.419)"><path d="M106.165,362.7l4.09,2.22,6.983-20.3-1.584.117-7.7,3.5Z" transform="translate(-106.165 -342.935)" fill="#efb33a"/><path d="M116.864,343.005l-7.7,4.577,2.05,1.417,7.234-5.03Z" transform="translate(-107.375 -342.283)" fill="#dba326"/><path d="M112.772,364.924l10.8-7.345-3.815-12.957-7.352,5Z" transform="translate(-108.682 -342.935)" fill="#f4c45b"/><path d="M119.484,346.125c-.817-1.347-1.965-3.388-2.464-4.33l-.148.071c.5.945,1.652,2.99,2.471,4.343a.082.082,0,0,0,.141-.085Z" transform="translate(-110.485 -341.795)" fill="#bcbadf"/></g></g><g transform="translate(24.461 49.303)"><path d="M114.44,338.689l.244-.189c-.639,1.247-.441,8.969-.439,9.047a.083.083,0,0,1-.081.085h0a.082.082,0,0,1-.083-.081C114.072,347.249,113.9,340.5,114.44,338.689Z" transform="translate(-114.048 -338.5)" fill="#bcbadf"/></g></g><path d="M96.349,260.014l-.016.19-.2,2.4-.335.019s-.149-1.081-.634-1.081-1.081,1.118-1.379,2.983-3.462,1.872-4.788,1.309c-1.14-1.048-.941-4.467-1.251-5.629s2.348-3.547,5.033-2.8A5.622,5.622,0,0,1,96.349,260.014Z" transform="translate(-78.963 -254.573)" fill="#2e3368"/><g transform="translate(8.169)"><path d="M99.01,255.329a6.677,6.677,0,0,1,5.369-.351c2.833,1.113-3.206,4.31-3.206,4.31Z" transform="translate(-91.688 -253.483)" fill="#2e3368"/><path d="M87.593,260.246a7.84,7.84,0,0,0,6.241,0c3.132-1.491,3.494-2.952,3.494-2.952s-.847-3.237-1.7-4.021-5-.845-7.61.975S87.593,260.246,87.593,260.246Z" transform="translate(-86.735 -252.754)" fill="#ffce00"/><path d="M87.807,256.48a10.917,10.917,0,0,0,7.755-1.79,1.06,1.06,0,0,0,0-1.546c-1.155-.654-4.971-.609-7.424,1.1a2.828,2.828,0,0,0-1.093,1.491A1.946,1.946,0,0,0,87.807,256.48Z" transform="translate(-86.86 -252.754)" fill="#ffd93b"/></g></g><g transform="translate(156.668 20.877)"><path d="M345.206,142.352l-19.445-12.377-10.265,1.25-1.126-23.466c0-1.758,2.551-2.773,4.309-1.759l27.195,15.665a6.6,6.6,0,0,1,3.184,5.021v13.519A2.59,2.59,0,0,1,345.206,142.352Z" transform="translate(-314.266 -105.597)" fill="#0dbdeb"/><path d="M344.573,142.656,324.459,131.08,314.2,132.33V108.451c0-1.758,1.425-2.36,3.183-1.345l27.195,15.665a6.6,6.6,0,0,1,3.183,5.021v13.52C347.756,143.068,346.331,143.671,344.573,142.656Z" transform="translate(-314.195 -106.007)" fill="#0073ff"/><g transform="translate(10.332 11.906)"><path d="M331.515,125.556a11.248,11.248,0,0,1,1.572.77,5.512,5.512,0,0,1,1.831,1.541,2.5,2.5,0,0,1,.554,1.5c0,.642-.425.96-1.127.812v.02a3.552,3.552,0,0,1,1.374,2.464.955.955,0,0,1-.564,1.009c-.465.157-1.217-.079-2.3-.707-.594-.343-1.049-.645-1.336-.851Zm.86,3.225.782.452c.91.526,1.444.359,1.444-.283a2.417,2.417,0,0,0-1.464-1.933,5.051,5.051,0,0,0-.762-.381Zm0,3.193a7.6,7.6,0,0,0,.723.457c.89.514,1.711.662,1.711-.307a2.968,2.968,0,0,0-1.722-2.279l-.712-.411Z" transform="translate(-331.515 -125.556)" fill="#fff"/><path d="M341.353,131.087v3.944a3.31,3.31,0,0,0,1.554,3.022c.989.571,1.623.285,1.623-1.189V132.92l.871.5v3.885c0,2.047-1.079,2.264-2.523,1.43a4.655,4.655,0,0,1-2.394-4.229v-3.924Z" transform="translate(-335.133 -127.585)" fill="#fff"/><path d="M352.288,144.062v-2.827l-2.107-5.052.979.565.94,2.381c.257.653.455,1.172.663,1.757l.019.011a11.541,11.541,0,0,1,.673-.985l.959-1.285.979.565-2.236,2.535v2.837Z" transform="translate(-339.046 -129.844)" fill="#fff"/></g></g></g></g></g></svg>