<svg xmlns="http://www.w3.org/2000/svg" xmlns:xlink="http://www.w3.org/1999/xlink" width="330.043" height="296" viewBox="0 0 330.043 296"><defs><linearGradient id="a" y1="0.5" x2="1" y2="0.5" gradientUnits="objectBoundingBox"><stop offset="0" stop-color="#8b8bff"/><stop offset="0.617" stop-color="#b4b4ff"/></linearGradient><clipPath id="b"><rect width="330" height="295" fill="#fff"/></clipPath><linearGradient id="f" x1="-0.219" y1="0.5" x2="1.119" y2="0.5" gradientUnits="objectBoundingBox"><stop offset="0" stop-color="#fff"/><stop offset="0" stop-color="#fefeff"/><stop offset="1" stop-color="#ccceee"/></linearGradient><linearGradient id="k" x1="0.376" y1="0.5" x2="1.01" y2="0.5" gradientUnits="objectBoundingBox"><stop offset="0" stop-color="#fff"/><stop offset="1" stop-color="#ccceee"/></linearGradient><linearGradient id="m" x1="-0.273" x2="8.009" xlink:href="#k"/><linearGradient id="p" x1="1.539" x2="-0.068" xlink:href="#k"/><linearGradient id="ab" x1="-0.033" x2="0.409" xlink:href="#k"/><radialGradient id="ad" cx="-6.323" cy="0.107" r="7.399" gradientTransform="translate(0.099) scale(0.803 1)" gradientUnits="objectBoundingBox"><stop offset="0" stop-color="#01c8ef"/><stop offset="0.089" stop-color="#02bee8"/><stop offset="0.239" stop-color="#07a4d7"/><stop offset="0.429" stop-color="#107bba"/><stop offset="0.446" stop-color="#1177b8"/><stop offset="1" stop-color="#112564"/></radialGradient></defs><g transform="translate(-1231 -1377)"><rect width="330" height="296" transform="translate(1231 1377)" fill="rgba(255,234,234,0)" opacity="0.96"/><path d="M629.252,329.815,464.262,234.6l-165.01,95.211L464.3,425.047Z" transform="translate(931.792 1234.552)" fill="url(#a)"/><g transform="translate(1231 1377)" clip-path="url(#b)"><g transform="translate(-184.374 -8.607)"><g transform="translate(281.204 57.48)"><path d="M333.38,246.587c-6.926,4-18.157,4-25.084,0s-6.927-10.484,0-14.482,18.157-4,25.085,0S340.307,242.588,333.38,246.587Z" transform="translate(-299.416 -101.94)" fill="url(#a)"/><path d="M24.971,0c13.791,0,24.97,6.455,24.97,14.417S38.762,28.834,24.971,28.834,0,22.379,0,14.417,11.18,0,24.971,0Z" transform="translate(140.872 177.077)" fill="url(#a)"/><path d="M313.013,77.594s.463,9.538,1.188,15.949,16.164-4.924,16.164-4.924v-7.3Z" transform="translate(-301.763 -66.068)" fill="#6614cf"/><g transform="translate(0 3.455)"><path d="M323.738,231.872c.232.579,4.232,5.449,8.231,6.666a9.2,9.2,0,0,0,3.675.508,1.211,1.211,0,0,0,.985-1.614,15.2,15.2,0,0,0-7.674-8.458C322.172,225.611,323.738,231.872,323.738,231.872Z" transform="translate(-304.265 -105.129)" fill="#173d7a"/><path d="M320.3,235.53a33.109,33.109,0,0,1,1.971,6.492c.282,1.8-.707,4.146-1.522,5.7a1.664,1.664,0,0,1-2.594.449,9.623,9.623,0,0,1-3.246-6.206c-.464-4.985,0-5.855,0-5.855Z" transform="translate(-302.164 -106.916)" fill="#173d7a"/><path d="M309.342,155.059a94.9,94.9,0,0,0,0,13.245c.522,6.956,2.39,39.488,2.738,47.314,0,0-.174,2.37,4.413,1.848s4.217-3.152,4.217-3.152,6.442-.087,6.645-3.884,6.6-45.342,6.6-60.279Z" transform="translate(-300.839 -86.701)" fill="#d4ecff"/><path d="M343.925,113.977l3.156,4.889,10.849,13.1a2.431,2.431,0,0,1-1.723,1.534c-1.055.249-10.179-8.457-14.12-12.277a3.026,3.026,0,0,1-.416-3.845Z" transform="translate(-308.429 -78.137)" fill="#ffc2b0"/><path d="M336.714,87.689s5.014-.131,6.758,7.116,3.111,16.318,1.593,17.072c-4.557,2.263-7.44-.385-7.44-.385Z" transform="translate(-307.375 -71.913)" fill="#3a367e"/><path d="M330.488,88a4.1,4.1,0,0,0-2.706-.149c-4.271,1.227-20.331,5.939-22.978,8.2-3.058,2.614,4.586,17.3,4.476,22.117s-.653,10.493-1.078,15.729-1,8.106,3.28,10.33,11.593,2.329,17.065-1.841,4.48-7.023,4.252-10.051-2.091-16.12-1.929-19.837a14.07,14.07,0,0,0,3.357-3.857c1.428-2.436-1.1-6.914-2.142-9.826s.591-6.24.267-8.615A2.7,2.7,0,0,0,330.488,88Z" transform="translate(-299.648 -71.912)" fill="#115cbb"/><ellipse cx="6.083" cy="4.829" rx="6.083" ry="4.829" transform="translate(13.025 17.847) rotate(-7.296)" fill="#fff"/><path d="M327.015,94.037c.242,1.891-1.492,3.67-3.874,3.976s-4.508-.981-4.751-2.871,1.492-3.67,3.874-3.976S326.773,92.146,327.015,94.037Z" transform="translate(-303.031 -72.725)" fill="#ffc2b0"/><path d="M325.2,86.337s-2.9-2.384-3.468-1.176-1.039,6.39-1.039,6.39L326.45,93.1l-.874-5.25S326.727,86.869,325.2,86.337Z" transform="translate(-303.581 -71.233)" fill="#ffc2b0"/><circle cx="8.596" cy="8.596" r="8.596" transform="translate(13.116 0.656) rotate(-2.188)" fill="#ffc2b0"/><path d="M321.481,87.107c-.051.27-.1.561-.147.857.579,2.99,5.054,4.3,5.054,4.3l-.662-3.973s.543-.46.389-.921C324.347,86.812,322.118,86.318,321.481,87.107Z" transform="translate(-303.733 -71.678)" fill="#ea9c92"/><circle cx="8.596" cy="8.596" r="8.596" transform="translate(13.116 0.656) rotate(-2.188)" fill="#ffc2b0"/><path d="M299.392,126.378l.962,23,3.363.347,2.189-20.708Z" transform="translate(-298.538 -81.073)" fill="#ffc2b0"/><path d="M312.554,118.969c-1.114-4.912-3.312-15.765-3.312-15.765L308.3,114c1.084,3.2,2.016,6.139,1.977,7.842-.065,2.827-.28,5.951-.531,9.108v.01S313.667,123.881,312.554,118.969Z" transform="translate(-300.648 -75.586)" fill="#3a367e"/><path d="M304.071,98.026s-2.69,1.027-4.212,9.288-2.66,16.534.053,17.6,4.98,1.868,5.778-.341,1.292-12.854,1.393-16.684S307.33,98.782,304.071,98.026Z" transform="translate(-298.273 -74.36)" fill="#115cbb"/><path d="M360.86,136.222a7.215,7.215,0,0,1,2.509,1.682,16.242,16.242,0,0,1,1.714,2.3c.838,1.249,1.544,3.95,1.033,4.287s-3.432-4.522-3.9-3.392,0,2.174-.6,2.191-2.7-4.884-4.353-6.4S360.86,136.222,360.86,136.222Z" transform="translate(-312.163 -83.347)" fill="#ffc2b0"/><path d="M324.308,218.472a13.17,13.17,0,0,0,1.841-.191h0l1.261-50.57Z" transform="translate(-304.437 -90.859)" fill="#396caa"/></g><path d="M300.45,155.4a52.034,52.034,0,0,0-.755,7.089c.134,1.72,1.054,4.557,1.752,4.5s.023-6.916,1.25-6.233,1.356,1.854,1.912,1.44-.969-6.273-.562-8.815S300.45,155.4,300.45,155.4Z" transform="translate(-298.606 -83.828)" fill="#ffc2b0"/><path d="M329.546,78.291c4.312,1.531,5.152.6,5.193.547.04-.26.071-.524.087-.791a8.575,8.575,0,0,0-.287-2.746l-11.188-1.51a12.194,12.194,0,0,0,6.195,4.5Z" transform="translate(-304.211 -65.167)" fill="#ea9c92"/><path d="M332.686,66.808c-1.017-.872-4.684-5.179-11.253-4.162-4.106.635-7.568,3.436-8.335,9.825a14.687,14.687,0,0,0,3.973,11.681,3.53,3.53,0,0,0,.467-.237c1.646-1.083,1.823-1.678,1.823-1.684l.364-3.261a.912.912,0,0,0-.82-.9,1.641,1.641,0,0,1-1.2-.733,1.918,1.918,0,0,1,1.379-3.231,1.448,1.448,0,0,0,1.508-1.072.771.771,0,0,1,1.007-.524c2.147.777,7.438,2.452,10.843,1.488C336.792,72.761,333.7,67.679,332.686,66.808Z" transform="translate(-301.76 -62.492)" fill="#173d7a"/><path d="M331.574,84.55l2.629-.722a6.344,6.344,0,0,1-3.088,2.478c-1.833.5-2.118-1.048-2.118-1.048Z" transform="translate(-305.547 -67.543)" fill="#fff"/></g><g transform="translate(323.217 41.325)"><path d="M419.357,304.7l-59.524-33.941c-2.177-1.257-1.9-3.452.609-4.9l34.249-19.773c2.513-1.452,6.316-1.609,8.493-.353l59.525,33.942c2.177,1.256,1.9,3.452-.61,4.9L427.85,304.348C425.336,305.8,421.534,305.957,419.357,304.7Z" transform="translate(-354.513 -89.519)" fill="url(#a)"/><path d="M466.826,225.795h0V86.832l-55.245-14.46L401.4,66.5c-2.335-1.349-6.414-1.179-9.111.378L382.8,72.356l-29.465-.016,8.725,134.15a2.64,2.64,0,0,0,1.565,2.441l55.13,41.6c2.335,1.348,6.414,1.179,9.111-.378l36.741-21.213C466.163,228.04,466.913,226.878,466.826,225.795Z" transform="translate(-353.323 -47.069)" fill="url(#f)"/><path d="M397.177,65.6a10.515,10.515,0,0,0-4.884,1.281L382.8,72.358l-29.465-.016V211.679a2.641,2.641,0,0,0,1.565,2.442l63.855,36.411a8.24,8.24,0,0,0,4.228.9l.659-140.207Z" transform="translate(-353.321 -47.071)" fill="url(#f)"/><path d="M439.817,264.459a10.384,10.384,0,0,0,7.284-.083V123.21h-7.284Z" transform="translate(-373.799 -60.712)" fill="url(#f)"/><path d="M418.751,105.5,354.9,69.085c-2.336-1.349-2.042-3.7.654-5.26l36.741-21.213c2.7-1.557,6.776-1.726,9.111-.378l63.856,36.411c2.335,1.349,2.042,3.7-.654,5.26l-36.741,21.213C425.166,106.675,421.087,106.844,418.751,105.5Z" transform="translate(-353.319 -41.325)" fill="url(#f)"/><path d="M464.6,88.812l-36.741,21.213c-2.7,1.557-6.776,1.726-9.111.378L354.9,73.991a3.513,3.513,0,0,1-1.165-1.034c-.8,1.291-.439,2.692,1.165,3.618l63.855,36.411c2.335,1.348,6.414,1.179,9.111-.378L464.6,91.4c2.1-1.21,2.732-2.9,1.82-4.226a5.094,5.094,0,0,1-1.82,1.638Z" transform="translate(-353.319 -48.814)" fill="#fafdff"/><g transform="translate(23.987 11.78)"><path d="M428,94.394,385.485,69.75c-1.093-.631-.956-1.733.306-2.461l17.193-9.927a4.742,4.742,0,0,1,4.263-.177l24.792,14.371,17.722,10.273c1.093.631.956,1.733-.306,2.461l-17.193,9.927a4.739,4.739,0,0,1-4.262.177Z" transform="translate(-384.747 -56.759)" fill="#173d7a"/><g transform="translate(17.734 10.878)"><path d="M410.548,74.231l-2.464-1.423c-.151-.087-.132-.24.043-.34l2.378-1.373a.655.655,0,0,1,.59-.024l2.464,1.422c.151.088.132.24-.042.34l-2.379,1.374a.657.657,0,0,1-.59.024Z" transform="translate(-407.982 -71.012)" fill="#d4ecff"/><path d="M421.331,80.431l-2.463-1.422c-.151-.088-.133-.24.042-.34l2.379-1.374a.657.657,0,0,1,.59-.024l2.463,1.423c.151.087.133.24-.042.34l-2.379,1.373a.655.655,0,0,1-.59.024Z" transform="translate(-410.536 -72.48)" fill="#d4ecff"/><path d="M432.115,86.632l-2.464-1.423c-.151-.087-.132-.24.042-.34l2.379-1.373a.652.652,0,0,1,.59-.024l2.464,1.422c.151.087.132.24-.043.34L432.7,86.608a.657.657,0,0,1-.59.024Z" transform="translate(-413.089 -73.948)" fill="#d4ecff"/><path d="M442.9,92.832l-2.464-1.422c-.151-.088-.132-.24.043-.341l2.378-1.373a.657.657,0,0,1,.59-.024l2.464,1.422c.151.088.132.24-.042.341l-2.379,1.373a.654.654,0,0,1-.59.024Z" transform="translate(-415.642 -75.416)" fill="#d4ecff"/></g><path d="M385.485,69.75l.05.029a2.94,2.94,0,0,1,.256-.176l17.193-9.926a4.739,4.739,0,0,1,4.263-.177L449.71,84.115c1.007-.721,1.06-1.7.05-2.286L407.247,57.185a4.739,4.739,0,0,0-4.263.177l-17.193,9.927C384.53,68.017,384.392,69.119,385.485,69.75Z" transform="translate(-384.747 -56.759)" fill="#00173b"/></g><g transform="translate(8.731 48.955)"><path d="M414.4,148.215l-47.183-27.241a5.9,5.9,0,0,1-2.463-4.706v-8.644c0-1.813,1.1-2.647,2.463-1.862L414.4,133a5.9,5.9,0,0,1,2.463,4.705v8.644C416.868,148.166,415.765,149,414.4,148.215Z" transform="translate(-364.759 -105.466)" fill="#645ad2"/><g transform="translate(35.909 25.682)"><path d="M424.276,149.868l-2.217-1.281a1.286,1.286,0,0,1-.537-1.026v-2.368c0-.4.24-.577.537-.406l2.217,1.281a1.285,1.285,0,0,1,.537,1.026v2.368C424.813,149.857,424.573,150.039,424.276,149.868Z" transform="translate(-414.108 -140.443)" fill="#173d7a"/><path d="M414.562,144.259l-2.217-1.28a1.287,1.287,0,0,1-.537-1.026v-2.368c0-.4.24-.577.537-.406l2.217,1.28a1.286,1.286,0,0,1,.537,1.026v2.368C415.1,144.248,414.859,144.43,414.562,144.259Z" transform="translate(-411.808 -139.115)" fill="#173d7a"/></g></g><g transform="translate(8.731 80.186)"><path d="M414.4,189.135l-47.183-27.241a5.9,5.9,0,0,1-2.463-4.705v-8.644c0-1.813,1.1-2.648,2.463-1.862L414.4,173.924a5.9,5.9,0,0,1,2.463,4.706v8.644C416.868,189.087,415.765,189.92,414.4,189.135Z" transform="translate(-364.759 -146.386)" fill="#645ad2"/><g transform="translate(35.909 25.682)"><path d="M424.276,190.788l-2.217-1.28a1.286,1.286,0,0,1-.537-1.026v-2.368c0-.4.24-.577.537-.406l2.217,1.28a1.286,1.286,0,0,1,.537,1.026v2.368C424.813,190.777,424.573,190.959,424.276,190.788Z" transform="translate(-414.108 -181.363)" fill="#173d7a"/><path d="M414.562,185.18l-2.217-1.281a1.286,1.286,0,0,1-.537-1.026V180.5c0-.4.24-.577.537-.406l2.217,1.281a1.285,1.285,0,0,1,.537,1.026v2.368C415.1,185.169,414.859,185.351,414.562,185.18Z" transform="translate(-411.808 -180.035)" fill="#d4ecff"/></g></g><g transform="translate(8.731 111.419)"><path d="M414.4,230.055l-47.183-27.241a5.9,5.9,0,0,1-2.463-4.706v-8.644c0-1.813,1.1-2.647,2.463-1.862L414.4,214.843a5.9,5.9,0,0,1,2.463,4.705v8.644C416.868,230.007,415.765,230.84,414.4,230.055Z" transform="translate(-364.759 -187.307)" fill="#645ad2"/><g transform="translate(35.909 25.682)"><path d="M424.276,231.709l-2.217-1.281a1.286,1.286,0,0,1-.537-1.026v-2.368c0-.4.24-.577.537-.406l2.217,1.281a1.285,1.285,0,0,1,.537,1.026V231.3C424.813,231.7,424.573,231.88,424.276,231.709Z" transform="translate(-414.108 -222.284)" fill="#d4ecff"/><path d="M414.562,226.1l-2.217-1.28a1.287,1.287,0,0,1-.537-1.026v-2.368c0-.4.24-.577.537-.406l2.217,1.28a1.286,1.286,0,0,1,.537,1.026v2.368C415.1,226.089,414.859,226.271,414.562,226.1Z" transform="translate(-411.808 -220.956)" fill="#173d7a"/></g></g><g transform="translate(8.731 142.65)"><path d="M414.4,270.976l-47.183-27.241a5.9,5.9,0,0,1-2.463-4.706v-8.644c0-1.814,1.1-2.648,2.463-1.862L414.4,255.764a5.9,5.9,0,0,1,2.463,4.706v8.644C416.868,270.928,415.765,271.761,414.4,270.976Z" transform="translate(-364.759 -228.227)" fill="#645ad2"/><g transform="translate(35.909 25.682)"><path d="M424.276,272.629l-2.217-1.28a1.287,1.287,0,0,1-.537-1.026v-2.368c0-.4.24-.577.537-.406l2.217,1.28a1.285,1.285,0,0,1,.537,1.026v2.368C424.813,272.618,424.573,272.8,424.276,272.629Z" transform="translate(-414.108 -263.204)" fill="#d4ecff"/><path d="M414.562,267.021l-2.217-1.281a1.286,1.286,0,0,1-.537-1.026v-2.368c0-.4.24-.577.537-.406l2.217,1.281a1.285,1.285,0,0,1,.537,1.026v2.368C415.1,267.01,414.859,267.192,414.562,267.021Z" transform="translate(-411.808 -261.876)" fill="#d4ecff"/></g></g><g transform="translate(79.254 62.356)"><path d="M459.622,152.372l24.172-13.84a5.9,5.9,0,0,0,2.463-4.706v-8.644c0-1.813-1.1-2.647-2.463-1.862l-24.172,13.84a5.9,5.9,0,0,0-2.463,4.705v8.644C457.159,152.323,458.262,153.157,459.622,152.372Z" transform="translate(-457.159 -123.025)" fill="#173d7a"/><path d="M459.622,193.292l24.172-13.84a5.9,5.9,0,0,0,2.463-4.706V166.1c0-1.813-1.1-2.648-2.463-1.862l-24.172,13.84a5.9,5.9,0,0,0-2.463,4.706v8.644C457.159,193.244,458.262,194.078,459.622,193.292Z" transform="translate(-457.159 -132.713)" fill="#ff7220"/><path d="M459.622,234.212l24.172-13.839a5.9,5.9,0,0,0,2.463-4.706v-8.644c0-1.813-1.1-2.647-2.463-1.862L459.622,219a5.9,5.9,0,0,0-2.463,4.705v8.644C457.159,234.164,458.262,235,459.622,234.212Z" transform="translate(-457.159 -142.402)" fill="#173d7a"/><path d="M459.622,275.133l24.172-13.84a5.9,5.9,0,0,0,2.463-4.706v-8.644c0-1.814-1.1-2.648-2.463-1.862l-24.172,13.84a5.9,5.9,0,0,0-2.463,4.706v8.644C457.159,275.085,458.262,275.919,459.622,275.133Z" transform="translate(-457.159 -152.09)" fill="#173d7a"/></g></g><g transform="translate(226.178 177.429)"><path d="M253.251,307.006l-19.034-10.99c-1.169-.675-1.022-1.852.327-2.632l18.379-10.611a5.065,5.065,0,0,1,4.557-.189l19.035,10.99c1.168.675,1.021,1.853-.327,2.632l-18.379,10.611A5.067,5.067,0,0,1,253.251,307.006Z" transform="translate(-227.894 -234.443)" fill="url(#a)"/><g transform="translate(0 26.676)"><path d="M281.115,282.284h0V274.06l-18.441-.011-6.375-3.68a6.345,6.345,0,0,0-5.707.237l-5.947,3.434-18.457-.011v8.459a1.653,1.653,0,0,0,.98,1.529L251,297.779a6.347,6.347,0,0,0,5.707-.237l23.015-13.288A2.26,2.26,0,0,0,281.115,282.284Z" transform="translate(-226.179 -258.199)" fill="url(#k)"/><path d="M253.651,269.8a6.583,6.583,0,0,0-3.06.8l-5.947,3.434-18.457-.011v8.459a1.653,1.653,0,0,0,.98,1.529L251,297.78a5.176,5.176,0,0,0,2.649.566Z" transform="translate(-226.179 -258.201)" fill="url(#f)"/><path d="M228.276,275.343h-2.089V283.8a1.653,1.653,0,0,0,.98,1.529l1.109.64Z" transform="translate(-226.179 -259.511)" fill="url(#m)"/><path d="M259.183,303.7a6.5,6.5,0,0,0,4.562-.052v-9.6h-4.562Z" transform="translate(-233.992 -263.939)" fill="url(#m)"/><path d="M251,285.752l-23.835-13.761c-1.463-.845-1.28-2.32.41-3.3l23.015-13.288a6.343,6.343,0,0,1,5.707-.237l23.836,13.761c1.463.845,1.279,2.32-.41,3.3l-23.015,13.287a6.342,6.342,0,0,1-5.708.233Z" transform="translate(-226.178 -254.601)" fill="url(#f)"/><path d="M252.81,284.072,232.836,272.54c-1.227-.708-1.072-1.944.343-2.761l19.287-11.136a5.315,5.315,0,0,1,4.782-.2l19.975,11.533c1.226.708,1.072,1.944-.343,2.761l-19.287,11.135A5.317,5.317,0,0,1,252.81,284.072Z" transform="translate(-227.558 -255.398)" fill="url(#p)"/><g transform="translate(44.243 21.991)"><path d="M286.071,288.788a2.126,2.126,0,0,1-.962,1.667c-.532.308-.962.059-.962-.556a2.129,2.129,0,0,1,.962-1.668C285.64,287.924,286.071,288.173,286.071,288.788Z" transform="translate(-284.146 -284.523)" fill="#ff7220"/><path d="M290.13,286.445a2.127,2.127,0,0,1-.963,1.667c-.531.308-.962.059-.962-.556a2.131,2.131,0,0,1,.962-1.668C289.7,285.581,290.13,285.83,290.13,286.445Z" transform="translate(-285.107 -283.969)" fill="#ff7220"/><path d="M294.188,284.1a2.128,2.128,0,0,1-.962,1.667c-.532.307-.963.058-.963-.556a2.128,2.128,0,0,1,.963-1.668C293.756,283.238,294.188,283.487,294.188,284.1Z" transform="translate(-286.068 -283.414)" fill="#ff7220"/></g></g><g transform="translate(0 13.338)"><path d="M281.115,264.809h0v-8.225l-18.441-.011-6.375-3.68a6.342,6.342,0,0,0-5.707.237l-5.947,3.433-18.457-.01v8.458a1.653,1.653,0,0,0,.98,1.529L251,280.3a6.342,6.342,0,0,0,5.707-.237l23.015-13.288a2.26,2.26,0,0,0,1.393-1.966Z" transform="translate(-226.179 -240.724)" fill="url(#k)"/><path d="M253.651,252.329a6.583,6.583,0,0,0-3.06.8l-5.947,3.433-18.457-.01v8.458a1.653,1.653,0,0,0,.98,1.529L251,280.3a5.16,5.16,0,0,0,2.649.566Z" transform="translate(-226.179 -240.725)" fill="url(#f)"/><path d="M228.276,257.867h-2.089v8.458a1.653,1.653,0,0,0,.98,1.529l1.109.64Z" transform="translate(-226.179 -242.036)" fill="url(#m)"/><path d="M259.183,286.222a6.5,6.5,0,0,0,4.562-.053v-9.6h-4.562Z" transform="translate(-233.992 -246.463)" fill="url(#m)"/><path d="M251,268.276l-23.835-13.762c-1.463-.844-1.28-2.319.41-3.295l23.015-13.288a6.345,6.345,0,0,1,5.707-.237l23.836,13.762c1.463.844,1.279,2.319-.41,3.295L256.708,268.04a6.342,6.342,0,0,1-5.708.236Z" transform="translate(-226.178 -237.125)" fill="url(#f)"/><path d="M252.81,266.6l-19.974-11.533c-1.227-.708-1.072-1.944.343-2.761l19.287-11.136a5.316,5.316,0,0,1,4.782-.2l19.976,11.53c1.226.708,1.072,1.944-.343,2.761L257.593,266.4a5.317,5.317,0,0,1-4.783.2Z" transform="translate(-227.558 -237.922)" fill="url(#p)"/><g transform="translate(44.243 21.662)"><path d="M286.071,271.312a2.126,2.126,0,0,1-.962,1.668c-.532.307-.962.058-.962-.556a2.126,2.126,0,0,1,.962-1.668C285.64,270.449,286.071,270.7,286.071,271.312Z" transform="translate(-284.146 -266.719)" fill="#ff7220"/><path d="M290.13,268.969a2.128,2.128,0,0,1-.963,1.668c-.531.307-.962.058-.962-.556a2.128,2.128,0,0,1,.962-1.668C289.7,268.106,290.13,268.355,290.13,268.969Z" transform="translate(-285.107 -266.164)" fill="#ff7220"/><ellipse cx="1.361" cy="0.786" rx="1.361" ry="0.786" transform="matrix(0.5, -0.866, 0.866, 0.5, 5.796, 2.358)" fill="#ff7220"/></g></g><path d="M281.115,247.333h0v-8.224l-18.441-.011-6.375-3.68a6.342,6.342,0,0,0-5.707.237l-5.947,3.434-18.457-.011v8.458a1.654,1.654,0,0,0,.98,1.53L251,262.827a6.342,6.342,0,0,0,5.707-.237l23.018-13.29a2.261,2.261,0,0,0,1.39-1.967Z" transform="translate(-226.179 -223.248)" fill="url(#k)"/><path d="M253.651,234.854a6.583,6.583,0,0,0-3.06.8l-5.947,3.434-18.457-.011v8.458a1.654,1.654,0,0,0,.98,1.53L251,262.828a5.169,5.169,0,0,0,2.649.566Z" transform="translate(-226.179 -223.25)" fill="url(#f)"/><path d="M228.276,240.392h-2.089v8.458a1.654,1.654,0,0,0,.98,1.53l1.109.64Z" transform="translate(-226.179 -224.56)" fill="url(#m)"/><path d="M259.183,268.747a6.5,6.5,0,0,0,4.562-.052v-9.6h-4.562Z" transform="translate(-233.992 -228.988)" fill="url(#m)"/><path d="M251,250.8l-23.834-13.76c-1.463-.845-1.28-2.32.41-3.295l23.015-13.288a6.342,6.342,0,0,1,5.707-.237l23.836,13.761c1.463.845,1.279,2.32-.41,3.295l-23.015,13.288A6.342,6.342,0,0,1,251,250.8Z" transform="translate(-226.178 -219.65)" fill="url(#f)"/><path d="M279.724,240.3l-23.015,13.288a6.345,6.345,0,0,1-5.708.237l-23.835-13.762a2.2,2.2,0,0,1-.73-.647,1.533,1.533,0,0,0,.73,2.266L251,255.447a6.342,6.342,0,0,0,5.708-.237l23.015-13.288c1.313-.757,1.711-1.817,1.139-2.647a3.19,3.19,0,0,1-1.138,1.025Z" transform="translate(-226.178 -224.297)" fill="url(#ab)"/><g transform="translate(44.243 21.991)"><path d="M286.071,253.837a2.126,2.126,0,0,1-.962,1.667c-.532.308-.962.059-.962-.556a2.129,2.129,0,0,1,.962-1.668C285.64,252.973,286.071,253.222,286.071,253.837Z" transform="translate(-284.146 -249.572)" fill="#ff7220"/><path d="M290.13,251.494a2.127,2.127,0,0,1-.963,1.667c-.531.307-.962.058-.962-.556a2.13,2.13,0,0,1,.962-1.668C289.7,250.63,290.13,250.879,290.13,251.494Z" transform="translate(-285.107 -249.018)" fill="#ff7220"/><path d="M294.188,249.15a2.128,2.128,0,0,1-.962,1.668c-.532.307-.963.058-.963-.556a2.128,2.128,0,0,1,.963-1.668C293.756,248.287,294.188,248.536,294.188,249.15Z" transform="translate(-286.068 -248.463)" fill="#ff7220"/></g><g transform="translate(14.617 8.408)"><path d="M256.945,245.243,245.791,238.8c-.685-.4-.6-1.086.192-1.542l10.77-6.218a2.972,2.972,0,0,1,2.671-.111l11.154,6.44c.685.4.6,1.085-.192,1.542l-10.77,6.218A2.967,2.967,0,0,1,256.945,245.243Z" transform="translate(-245.329 -230.666)" fill="#173d7a"/><path d="M261.449,242.075l-1.543-.891c-.1-.054-.082-.15.027-.213l1.49-.86a.412.412,0,0,1,.369-.016l1.543.891c.1.054.083.15-.026.213l-1.491.861a.414.414,0,0,1-.369.015Z" transform="translate(-248.765 -232.89)" fill="#ff7220"/><path d="M270.406,251.334l-1.543-.891c-.1-.055-.082-.15.027-.214l1.491-.86a.409.409,0,0,1,.369-.015l1.543.891c.1.055.082.15-.027.214l-1.49.86a.411.411,0,0,1-.37.015Z" transform="translate(-250.886 -235.082)" fill="#ff7220"/><path d="M274.824,248.759l-1.543-.891c-.1-.055-.082-.15.027-.214l1.49-.86a.409.409,0,0,1,.369-.015l1.543.891c.1.055.083.15-.026.214l-1.491.86A.409.409,0,0,1,274.824,248.759Z" transform="translate(-251.932 -234.472)" fill="#ff7220"/><path d="M279.24,246.184l-1.543-.891c-.1-.054-.083-.15.027-.213l1.49-.86a.409.409,0,0,1,.369-.015l1.543.891c.1.055.083.15-.027.214l-1.49.86A.414.414,0,0,1,279.24,246.184Z" transform="translate(-252.977 -233.863)" fill="#ff7220"/><path d="M245.791,238.8l.031.018a1.907,1.907,0,0,1,.16-.111l10.77-6.218a2.968,2.968,0,0,1,2.671-.111l11.123,6.422c.631-.452.664-1.067.031-1.432l-11.154-6.44a2.972,2.972,0,0,0-2.671.111l-10.77,6.218C245.192,237.718,245.106,238.408,245.791,238.8Z" transform="translate(-245.329 -230.666)" fill="#072353"/></g><path d="M246.041,277.558l-9.65-5.571a2.579,2.579,0,0,1-1.077-2.058h0c0-.793.482-1.158,1.077-.814l9.65,5.572a2.58,2.58,0,0,1,1.077,2.058h0C247.117,277.537,246.635,277.9,246.041,277.558Z" transform="translate(-228.341 -231.331)" fill="#173d7a"/><path d="M246.9,277.028l-9.65-5.572a2.578,2.578,0,0,1-1.078-2.058,1.513,1.513,0,0,1,.044-.359c-.514-.187-.907.175-.907.89a2.579,2.579,0,0,0,1.077,2.058l9.65,5.571a.642.642,0,0,0,1.033-.456A1.053,1.053,0,0,1,246.9,277.028Z" transform="translate(-228.341 -231.332)" fill="#072353"/></g><g transform="translate(410.279 114.429)"><path d="M530.437,302.132a4.635,4.635,0,0,1,2.614,4.633,7.809,7.809,0,0,1-.381,2.265c-.538,1.13-2.3,2.68-5.117,1.568s-9.065-6.986-9.3-10.83C517.819,292.626,525.984,300.23,530.437,302.132Z" transform="translate(-479.428 -174.909)" fill="#173d7a"/><path d="M506.906,317.584s.675,4.118.347,4.872-2.287,2.365-5.181,2.017-11.22-3.219-13.074-8.707c-2.875-8.507,16.071.639,16.071.639Z" transform="translate(-472.435 -178.549)" fill="#173d7a"/><path d="M501.694,231.852l-.645,64.276a4.5,4.5,0,0,0,3.5,4.456c.243.041.5.075.782.1a4,4,0,0,0,3.819-1.58,4.711,4.711,0,0,0,.859-2.6l.821-27.438,4.1-24.533,5.667,43.42a3.756,3.756,0,0,0,1.558,2.859,4.35,4.35,0,0,0,2.583.7,4.749,4.749,0,0,0,3.436-1.692,3.442,3.442,0,0,0,.821-2.325l-2.247-26.126-.836-33.323Z" transform="translate(-475.359 -158.639)" fill="#d4ecff"/><path d="M533.171,198.658a2.386,2.386,0,0,1-.353-.027l-10.266-1.591a2.31,2.31,0,1,1,.706-4.565l7.085,1.1-2.418-13.848a2.309,2.309,0,0,1,4.55-.795l2.971,17.021a2.308,2.308,0,0,1-2.274,2.706Z" transform="translate(-479.986 -146.556)" fill="#ffc2b0"/><path d="M524.789,162.337s3.431-.2,7.854,8.909-1.634,11.988-1.634,11.988Z" transform="translate(-480.98 -143.08)" fill="#115cbb"/><path d="M509.08,164.642c.154-.063,9.466-6.059,12.909.216,5.612,10.231,5.282,43.165,3.51,47.431-1.64,3.948-5.736,6.858-8.606,8.5a17.191,17.191,0,0,1-8.352,2.376c-2.91.023-8.489-2.564-8.287-6.368.931-17.5-.615-32.244-2.044-46.554C498.209,170.242,499.994,168.32,509.08,164.642Z" transform="translate(-474.686 -143)" fill="#115cbb"/><g transform="translate(3.352 35.65)"><path d="M488.132,205.536a1.991,1.991,0,0,0,.776-.2,2.419,2.419,0,0,0,1.285-1.846l4.428-12.909c.2-1.333-2.129-6.533-3.316-6.753s-4.2,2.139-4.395,3.471l-1.088,11.534-10.928-5.377c-1.134-.6-2.073-1.812-2.743-.69a2.639,2.639,0,0,0,.6,3.4l14.083,8.959A2.01,2.01,0,0,0,488.132,205.536Z" transform="translate(-471.781 -183.815)" fill="#ffc2b0"/></g><path d="M473,194l-.688-1.681a4.462,4.462,0,0,0-1.1-1.588l-2.883-2.658a.56.56,0,0,0-.828.076h0a.559.559,0,0,0,.036.714l1.2,1.309a.78.78,0,0,1,.16.791l-.459,1.285a1.294,1.294,0,0,0,.221,1.261l2.89,3.5Z" transform="translate(-467.389 -149.139)" fill="#ffc2b0"/><path d="M495.984,172.8s-6.217,4.792-7.171,19.376c0,0-.134,1.617,3.458,2.587a6.3,6.3,0,0,0,6.047-1.808,23,23,0,0,0-2.334-20.155Z" transform="translate(-472.462 -145.557)" fill="#115cbb"/><path d="M511.986,158.075,513,163.932a2.683,2.683,0,0,1-2.194,2.552c-2.231.553-2.921-.887-2.921-.887l-1.009-6.6Z" transform="translate(-476.739 -142.071)" fill="#ffc2b0"/><ellipse cx="8.482" cy="9.527" rx="8.482" ry="9.527" transform="translate(18.869 7.585) rotate(-26.565)" fill="#ffc2b0"/><path d="M502.608,152.839a1.092,1.092,0,0,1-.957-.3c-.436-.444-.615-2.8-1.754-3-1.781-.31-5.4,2.476-6.869-3.5-.763-3.108.624-4.208.321-5.93,0,0,.017.887,8.019-1.046s11.874,4.8,12.656,8.194.095,9.307-5.306,11.033c-.9.286-5.282-2.149-5.253-2.572s1.488-.651,1.074-1.8a1.544,1.544,0,0,0-1.931-1.079Z" transform="translate(-473.405 -137.487)" fill="#173d7a"/><path d="M519.234,249.65l5.667,43.421a3.753,3.753,0,0,0,1.558,2.859,4.237,4.237,0,0,0,.484.273c-1.176-.882-4.612-37.328-5.247-41.382S519.234,249.65,519.234,249.65Z" transform="translate(-479.664 -163.753)" fill="#396caa"/></g><path d="M500.6,198.784v.144a218.943,218.943,0,0,1,.22,25.778,4.836,4.836,0,0,0,1.963,3.857,217.513,217.513,0,0,0,0-33.156,5.547,5.547,0,0,1-2.183,3.377Z" transform="translate(-64.973 -36.481)" fill="#3a367e"/><g transform="translate(302.007 117.636)"><ellipse cx="23.38" cy="13.499" rx="23.38" ry="13.499" transform="translate(5.353 126.219)" fill="url(#a)"/><g transform="translate(4.135 65.117)"><g transform="translate(10.823 63.982)"><path d="M368.387,314.076a14.765,14.765,0,0,0-1.873-.9h.019l-3.6-1.6.272.63a23.262,23.262,0,0,0-8.451-.09l.168-.7-4.239,1.878h.025a14.4,14.4,0,0,0-1.585.773c-5.32,3.072-5.32,8.053,0,11.125s13.947,3.072,19.269,0S373.708,317.148,368.387,314.076Z" transform="translate(-345.129 -310.684)" fill="#173d7a"/><path d="M365.514,316.748a9.979,9.979,0,0,1-9.029,0c-2.493-1.44-2.493-3.774,0-5.214a9.977,9.977,0,0,1,9.029,0C368.007,312.974,368.007,315.308,365.514,316.748Z" transform="translate(-347.375 -310.455)" fill="#335c9f"/></g><g transform="translate(22.193 37.867)"><path d="M362.307,307.4h0a2.17,2.17,0,0,1-2.171-2.17V277.794h4.341v27.438a2.17,2.17,0,0,1-2.17,2.168Z" transform="translate(-360.052 -276.607)" fill="#173d7a"/><path d="M363.807,278.422a3.46,3.46,0,0,1-3.133,0,.955.955,0,0,1,0-1.809,3.465,3.465,0,0,1,3.133,0,.955.955,0,0,1,0,1.809Z" transform="translate(-360.025 -276.239)" fill="#335b9e"/></g><path d="M362.434,270.482h0a1.76,1.76,0,0,1-1.76-1.759V242.931h3.519v25.792A1.759,1.759,0,0,1,362.434,270.482Z" transform="translate(-337.986 -230.486)" fill="#173d7a"/><g transform="translate(36.239 22.374)"><path d="M396.126,259.842v-1.01l1.427-.206,1.6-1.2a1.074,1.074,0,0,1,1.053-.04l1.178.681,1.169-.169v1.023h0a.388.388,0,0,1-.269.308l-3.72,1.657a1.169,1.169,0,0,1-.975-.036l-1.239-.715a.361.361,0,0,1-.211-.3Z" transform="translate(-382.618 -256.255)" fill="#325a9c"/><path d="M396.28,258.245l2.87-2.148a1.074,1.074,0,0,1,1.053-.039l2.141,1.236c.3.173.268.458-.067.608l-3.72,1.657a1.169,1.169,0,0,1-.975-.036l-1.239-.716C396.079,258.655,396.053,258.415,396.28,258.245Z" transform="translate(-382.618 -255.939)" fill="#173d7a"/><g transform="translate(0 1.639)"><path d="M387.247,263.626a2.341,2.341,0,0,0,1.149-.283l4.46-2.576a.515.515,0,1,0-.516-.891l-4.46,2.575a1.477,1.477,0,0,1-1.268,0l-7.413-4.294a.515.515,0,0,0-.514.891l7.413,4.294a2.328,2.328,0,0,0,1.149.284Z" transform="translate(-378.428 -258.087)" fill="#325a9c"/></g></g><path d="M333.707,251.127l7.162-4.163-4.013-1.812-3.433,2.434Z" transform="translate(-331.534 -231.011)" fill="url(#ad)"/><path d="M379.936,240.561a9.334,9.334,0,0,1-1.2-.75l-15.262-11.184c-2.754-2.02-5.592-2.54-7.786-1.427-.057.029-.106.069-.162.1h-.016l-21.078,12.229,1.894.63L343.7,243.5l10.042,7.124,7.925,4.205.359.076c1.848-1.556,3.917-2.892,5.052-5.161,1.962-3.434,7.426-4.417,10.638-7.2.324.206.648.4.972.566a7.211,7.211,0,0,0,1.248-2.549Z" transform="translate(-331.772 -226.625)" fill="#072353"/><path d="M395.193,238.276a1.4,1.4,0,0,0-.865.3h0L373.7,250.513l.754,3.084.773-.369c-1.181,1.842-2.993,3.054-4.634,4.437l2.332.494,20.2-11.754c.093-.04.189-.075.28-.121a5.1,5.1,0,0,0,.778-.495l.035-.021H394.2a7.119,7.119,0,0,0,2.406-5.833v-.243a1.418,1.418,0,0,0-1.413-1.416Z" transform="translate(-340.334 -229.383)" fill="#173d7a"/><g transform="translate(2.656 0.005)"><path d="M365.816,226.631a8.637,8.637,0,0,1,4.05,1.31A8.637,8.637,0,0,0,365.816,226.631Z" transform="translate(-341.86 -226.631)" fill="#eaeaea"/><path d="M367.778,250.088v-.242a1.418,1.418,0,0,0-2.835,0v.242c0,1.9-.6,3.287-1.653,3.82-1.187.6-2.992.159-4.827-1.187L343.2,241.537c-2.348-1.721-4.754-2.342-6.772-1.8l12.6-7.313-14.6,8.473,1.894.63,7.381,3.347L353.745,252l7.925,4.2.359.076c1.848-1.556,3.917-2.892,5.051-5.161a5.987,5.987,0,0,1,.693-.951C367.774,250.14,367.778,250.115,367.778,250.088Z" transform="translate(-334.428 -228.002)" fill="#91b5ef"/></g><g transform="translate(0 11.997)"><path d="M360.839,259.816a9.2,9.2,0,0,1-5.312-2l-15.262-11.184c-1.835-1.344-3.639-1.787-4.828-1.186-1.051.533-1.653,1.925-1.653,3.819a1.418,1.418,0,1,1-2.835,0c0-3,1.169-5.314,3.207-6.348,2.191-1.111,5.03-.591,7.785,1.429L357.2,255.529c1.836,1.345,3.641,1.787,4.828,1.186,1.051-.533,1.653-1.925,1.653-3.819v-.242a1.417,1.417,0,1,1,2.835,0v.242c0,3-1.169,5.314-3.206,6.348a5.426,5.426,0,0,1-2.471.572Z" transform="translate(-330.948 -242.344)" fill="#325a9c"/></g></g><g transform="translate(2.164)"><path d="M351.6,297.848s-2.874-1.449-4.64.709-4.289,7.254-4.366,10.7,2.725,3.21,4.391,2.4,6.533-7.875,6.828-9.259a4.8,4.8,0,0,0-.816-3.619A16.718,16.718,0,0,0,351.6,297.848Z" transform="translate(-331.735 -178.259)" fill="#173d7a"/><path d="M353.53,296.876l.133,2.977a1.689,1.689,0,0,1-.841,1.549,3.318,3.318,0,0,1-2.217.345c-2.165-.348-2.359-.967-2.513-3.944S353.53,296.876,353.53,296.876Z" transform="translate(-333.035 -177.978)" fill="#e8a200"/><g transform="translate(0 52.833)"><path d="M337.817,290.346s-2.874-1.449-4.64.709-4.289,7.254-4.367,10.7,2.725,3.21,4.391,2.4,6.533-7.875,6.828-9.259a4.8,4.8,0,0,0-.816-3.62A16.291,16.291,0,0,0,337.817,290.346Z" transform="translate(-328.471 -229.315)" fill="#173d7a"/><path d="M339.744,289.373l.134,2.978a1.688,1.688,0,0,1-.842,1.549,3.317,3.317,0,0,1-2.217.345c-2.165-.348-2.358-.967-2.513-3.944S339.744,289.373,339.744,289.373Z" transform="translate(-329.771 -229.035)" fill="#e8a200"/><path d="M363.987,216.2c-.851-13.842-14.991,2.036-14.991,2.036l-9.678,9.486-8.715,9.573a8.588,8.588,0,0,0-2.165,6.9l3.525,26.844a2.638,2.638,0,0,0,2.645,2.293,9,9,0,0,0,1.306-.115,3.28,3.28,0,0,0,2.913-3.48l-.644-25.107,18.3-11.033S364.837,230.038,363.987,216.2Z" transform="translate(-328.366 -210.531)" fill="#d4ecff"/></g><path d="M377.772,223.106c-.85-13.842-14.991,2.037-14.991,2.037l-9.678,9.485-8.715,9.573a8.591,8.591,0,0,0-2.164,6.9l3.525,26.844a2.638,2.638,0,0,0,2.645,2.293,9,9,0,0,0,1.306-.115,3.28,3.28,0,0,0,2.913-3.48l-.645-25.107,18.3-11.033S378.623,236.949,377.772,223.106Z" transform="translate(-331.63 -159.334)" fill="#d4ecff"/><path d="M371.446,166.167c10.72,4.444,10.505,10.781,10.505,10.781s-2.1,23.232-1.383,38.747c.3,6.486-34.461,6.981-29.277-10.323,6.113-20.4,3.822-36.92,6.683-39.411S368.673,165.018,371.446,166.167Z" transform="translate(-333.669 -146.829)" fill="#ff7220"/><ellipse cx="4.07" cy="5.529" rx="4.07" ry="5.529" transform="translate(29.502 26.14) rotate(-75.556)" fill="#ffc2b0"/><path d="M374.331,175.436a7.869,7.869,0,0,1-1.958-.253c-3.226-.831-5.338-3.5-4.708-5.944s3.769-3.761,6.994-2.931,5.337,3.5,4.708,5.945h0a4.1,4.1,0,0,1-2.591,2.73,6.562,6.562,0,0,1-2.445.453Zm-1.635-8.355c-1.99,0-3.654.926-4.038,2.413-.488,1.9,1.293,4.007,3.971,4.7a6.1,6.1,0,0,0,3.764-.158A3.1,3.1,0,0,0,378.374,172h0c.488-1.9-1.293-4.006-3.971-4.7a6.854,6.854,0,0,0-1.7-.219Z" transform="translate(-337.644 -147.169)" fill="#fff"/><path d="M372.2,165.349a26.475,26.475,0,0,1-.093,3.827c-.059,1.068,3.681,2.066,4.647,1.1s.58-1.972.812-5.607S372.2,165.349,372.2,165.349Z" transform="translate(-338.723 -146.494)" fill="#ffc2b0"/><path d="M377.568,165.12s-.92,3.37-5.46,4.663l.069-3.063Z" transform="translate(-338.722 -146.946)" fill="#ea9c92"/><circle cx="8.252" cy="8.252" r="8.252" transform="translate(22.335 9.172) rotate(-32.625)" fill="#ffc2b0"/><path d="M371.88,156.387s-4.544,1.946-7.69,1.968-2.452-2.612-2.452-2.612l9.338-1.349Z" transform="translate(-336.252 -144.406)" fill="#ea9c92"/><path d="M362.14,153.8s3.957-1.68,7.429-.979a3.635,3.635,0,0,1,2.1,1.246,1.235,1.235,0,0,0,.635.459c.615.14,1.623-2.415,2.82-2.473s2,.789,1.014,2.36-.65,3.328-.2,3.581,5.24-3.415,1.016-11.784-14.953-3.86-16.623-2.165c0,0-1.758,1.532-3.187.169C357.145,144.217,355.542,156.222,362.14,153.8Z" transform="translate(-335.139 -141.308)" fill="#173d7a"/><path d="M379.488,201.9v6.277a2.559,2.559,0,0,1-.834,1.891l-12.9,11.757,1.465,2.241,17.032-11.408a3.461,3.461,0,0,0,1.41-2.44l1.149-11.891Z" transform="translate(-337.219 -154.808)" fill="#ffc2b0"/><path d="M388.561,176.658s3.912,5.885,5.37,21.371c0,0-6.683,2.161-10.476.934S388.561,176.658,388.561,176.658Z" transform="translate(-341.186 -149.678)" fill="#ff7220"/><path d="M382.309,186.406a109.1,109.1,0,0,0-1.619,12.049,2.459,2.459,0,0,0,1.619,2.375h0Z" transform="translate(-340.754 -151.986)" fill="#ee4822"/></g><g transform="translate(2.061 62.33)"><path d="M366.543,236.327l-2.85-.376-18.4-10.623a2.558,2.558,0,0,0-2.3.1l-13.038,7.524-1.723-.227v1.716h0a.671.671,0,0,0,.4.6l20.852,12.039a2.558,2.558,0,0,0,2.3-.1l14.2-8.2a.927.927,0,0,0,.563-.774h0Z" transform="translate(-328.231 -223.477)" fill="#173d7a"/><path d="M352.719,230.781l-1.307-.754H337.041l-7.085,4.087-1.723-.227V235.6h0a.671.671,0,0,0,.4.6l20.852,12.039a2.158,2.158,0,0,0,1.188.223Z" transform="translate(-328.231 -224.644)" fill="#396caa"/><path d="M329,235.186l-.765-.1V236.8h0a.671.671,0,0,0,.4.6l.368.212Z" transform="translate(-328.231 -225.841)" fill="#5793ce"/><path d="M356.347,253.082a2.671,2.671,0,0,0,1.955-.121v-2.919h-1.955Z" transform="translate(-334.888 -229.382)" fill="#274f89"/><path d="M349.48,244.861l-20.852-12.038c-.589-.341-.515-.936.166-1.329l14.2-8.195a2.559,2.559,0,0,1,2.3-.1l20.851,12.039c.59.34.516.936-.165,1.329l-14.2,8.194a2.554,2.554,0,0,1-2.3.1Z" transform="translate(-328.231 -222.974)" fill="url(#f)"/><path d="M350.129,244.4l-17.338-10.01c-.491-.283-.429-.778.137-1.1l7.608-4.278a2.129,2.129,0,0,1,1.914-.08l17.338,10.011c.49.283.429.778-.137,1.1l-7.609,4.279a2.128,2.128,0,0,1-1.913.083Z" transform="translate(-329.232 -224.338)" fill="#594dc2"/></g><path d="M348.525,222.658l-.216,1.439a10.644,10.644,0,0,0,.094,3.689l.257,1.268a1.782,1.782,0,0,0,1.428,1.4h0a.984.984,0,0,0,1.154-.859l.344-3.075s.787,1.03,1.166,1.03-.425-3.08-1.284-4.823S348.525,222.658,348.525,222.658Z" transform="translate(-330.895 -160.398)" fill="#ffc2b0"/><path d="M355.275,191.576,353.038,196a8.7,8.7,0,0,0-.916,3.361l-.972,15.146-2.943-.07-1.336-17.009a6.237,6.237,0,0,1,.076-1.572l1.526-8.625Z" transform="translate(-330.578 -152.182)" fill="#ffc2b0"/><g transform="translate(0 53.311)"><path d="M348.248,243.219l-1.749-2.282-18.386-10.645a2.555,2.555,0,0,1-1.065-2.042l.015-15.053-1.057-1.38.994-.575h0a.672.672,0,0,1,.721.041l20.836,12.064a2.559,2.559,0,0,1,1.065,2.042l-.018,16.394a.929.929,0,0,1-.39.874h0Z" transform="translate(-325.643 -211.157)" fill="#173d7a"/><path d="M335.533,234.588l-1.307-.756-7.17-12.454.007-8.18-1.057-1.38.994-.575h0a.672.672,0,0,1,.721.041l20.836,12.064a2.156,2.156,0,0,1,.785.918Z" transform="translate(-325.643 -211.157)" fill="#396caa"/><path d="M326.475,212.429l-.469-.612.994-.575h0a.672.672,0,0,1,.721.041l.367.213Z" transform="translate(-325.643 -211.157)" fill="#5793ce"/><path d="M355.138,227.3a2.673,2.673,0,0,1,.871,1.755l-2.036,1.175L353,228.541Z" transform="translate(-332.033 -214.98)" fill="#274f89"/><path d="M347.453,224.1l-20.836-12.064c-.59-.341-1.069.02-1.069.807l-.018,16.393a2.559,2.559,0,0,0,1.065,2.042l20.836,12.064c.59.341,1.069-.02,1.069-.806l.018-16.394A2.559,2.559,0,0,0,347.453,224.1Z" transform="translate(-325.53 -211.335)" fill="url(#f)"/></g><path d="M365.546,231.356l-.334.691a4.635,4.635,0,0,1-1.742,1.93l-2.07,1.276a2.06,2.06,0,0,1-2.113.049l-.07-.043a1.245,1.245,0,0,1-.176-1.913l2.163-2.223s-1.215.931-1.555.556c-.25-.275,1.178-1.616,2.274-1.659a4.327,4.327,0,0,0,2.157-.9Z" transform="translate(-333.378 -162.098)" fill="#ffc2b0"/><path d="M357.04,166.334s-7.929,8.627-11.127,16.542a16.184,16.184,0,0,0,9.348,6.8C361.9,191.593,357.04,166.334,357.04,166.334Z" transform="translate(-330.356 -147.233)" fill="#ff7220"/><path d="M355.664,192.4l1.285-12.414-3.028,11.631A17.115,17.115,0,0,0,355.664,192.4Z" transform="translate(-332.252 -150.465)" fill="#ee4822"/><path d="M367.612,163.871l-2.131-.585a5.145,5.145,0,0,0,2.5,2.008c1.484.408,1.716-.85,1.716-.85Z" transform="translate(-334.989 -146.512)" fill="#fff"/></g></g></g></g></svg>