<?xml version="1.0" encoding="utf-8"?>
<!-- Generator: Adobe Illustrator 22.0.1, SVG Export Plug-In . SVG Version: 6.00 Build 0)  -->
<svg version="1.1" id="Layer_1" xmlns="http://www.w3.org/2000/svg" xmlns:xlink="http://www.w3.org/1999/xlink" x="0px" y="0px"
	 width="88px" height="88px" viewBox="0 0 88 88" style="enable-background:new 0 0 88 88;" xml:space="preserve">
<style type="text/css">
	.st0{fill:none;}
	.st1{fill:url(#SVGID_1_);}
	.st2{fill:url(#SVGID_2_);}
	.st3{fill:url(#SVGID_3_);}
	.st4{fill:url(#SVGID_4_);}
	.st5{fill:url(#SVGID_5_);}
	.st6{fill:url(#SVGID_6_);}
	.st7{fill:url(#SVGID_7_);}
	.st8{fill:url(#SVGID_8_);}
</style>
<g transform="translate(-827 -3073)">
	<path class="st0" d="M871,3073c24.3,0,44,19.7,44,44s-19.7,44-44,44s-44-19.7-44-44S846.7,3073,871,3073z"/>
	<g transform="translate(851.73 3091.563)">
		
			<linearGradient id="SVGID_1_" gradientUnits="userSpaceOnUse" x1="-1082.9275" y1="4978.8843" x2="-1081.8965" y2="4977.8462" gradientTransform="matrix(35.4206 0 0 -7.854 38359.9844 39143.1367)">
			<stop  offset="0" style="stop-color:#087BE2"/>
			<stop  offset="1" style="stop-color:#0C0F60"/>
		</linearGradient>
		<path class="st1" d="M33.6,39.5c0.4,0.3,0.8,0.5,1.2,0.8c0.7,0.6,0.8,1.6,0.3,2.3c-0.4,0.7-0.9,1.3-1.7,1.7
			c-1.3,0.7-2.6,1.2-4.1,1.5c-1.6,0.4-3.1,0.7-4.7,0.9c-2.8,0.4-5.7,0.5-8.6,0.4c-1.4,0-3-0.1-4.4-0.2c-1.6-0.1-3.2-0.3-4.8-0.7
			c-1.5-0.3-3-0.7-4.4-1.3c-0.8-0.3-1.5-0.8-2-1.5C0,42.8-0.1,42,0.2,41.3c0.2-0.3,0.5-0.6,0.9-0.9c0.8-0.5,1.8-0.9,2.8-1
			c1.1-0.2,2.1-0.2,3.2,0c0.1,0,0.1,0,0.2,0.1l1.7,1H7.3c-0.7,0-1.4,0.2-2.1,0.5c-0.1,0.1-0.3,0.2-0.4,0.3c-0.3,0.2-0.4,0.7-0.2,1
			c0,0,0,0,0.1,0.1c0.3,0.4,0.7,0.6,1.2,0.8c1.2,0.5,2.5,0.8,3.7,1c1.1,0.2,2.3,0.3,3.4,0.4c1.9,0.2,3.8,0.3,5.7,0.2
			c1.8,0,3.5-0.1,5.2-0.2c1.7-0.2,3.5-0.5,5.2-0.9c1.1-0.2,2.1-0.6,3-1.2c0.5-0.3,0.9-0.7,1.2-1.1c0.3-0.5,0.4-1,0.2-1.5
			C33.6,39.7,33.5,39.6,33.6,39.5L33.6,39.5"/>
		
			<linearGradient id="SVGID_2_" gradientUnits="userSpaceOnUse" x1="-1027.4382" y1="5481.1826" x2="-1026.4072" y2="5480.1445" gradientTransform="matrix(12.6284 0 0 -26.298 12987.1367 144142.6406)">
			<stop  offset="0" style="stop-color:#087BE2"/>
			<stop  offset="1" style="stop-color:#0C0F60"/>
		</linearGradient>
		<path class="st2" d="M22.8,0c0.2,0.3,0.4,0.7,0.5,1.1c0.6,1,0.8,2.1,0.8,3.3c0,1.1-0.3,2.2-0.9,3.2c-0.7,1.4-1.6,2.6-2.8,3.6
			c-1.1,1.2-2.3,2.4-3.5,3.6c-0.7,0.7-1.2,1.5-1.5,2.4c-0.2,0.7-0.2,1.5,0,2.2c0.9,2.3,2.1,4.5,3.4,6.6c0.1,0.1,0.1,0.1,0.1,0.2
			c-0.1-0.1-0.2-0.1-0.3-0.2c-1.6-1.1-3.1-2.5-4.4-4c-1-1-1.8-2.2-2.3-3.5c-0.4-0.9-0.5-1.9-0.3-2.9c0.2-0.8,0.5-1.5,1-2.1
			c0.8-1.1,1.8-2.1,2.9-3c1.3-1.1,2.8-2.3,4.1-3.4c1-0.9,1.9-1.9,2.6-3C22.7,3.5,23,2.6,23,1.6c0-0.5-0.1-1-0.2-1.5L22.8,0L22.8,0"
			/>
		
			<linearGradient id="SVGID_3_" gradientUnits="userSpaceOnUse" x1="-1071.7389" y1="4630.0576" x2="-1070.7079" y2="4629.0195" gradientTransform="matrix(25.9181 0 0 -5.282 27780.1016 24481.6602)">
			<stop  offset="0" style="stop-color:#087BE2"/>
			<stop  offset="1" style="stop-color:#0C0F60"/>
		</linearGradient>
		<path class="st3" d="M13.5,25.5c-0.4,0.1-0.8,0.2-1.2,0.3c-0.8,0.2-1.7,0.5-2.4,1c-0.2,0.1-0.5,0.3-0.7,0.5
			c-0.2,0.2-0.1,0.4,0.1,0.4c0.4,0.1,0.8,0.2,1.2,0.3c2.7,0.2,5.4,0.3,8,0.2c1.7,0,3.3-0.1,5-0.3c1.5-0.1,3.1-0.3,4.6-0.5
			c0.4,0,0.7-0.1,1.1-0.2c-0.1,0.1-0.2,0.2-0.3,0.2c-0.8,0.5-1.5,1.1-2.3,1.8c-0.4,0.3-0.8,0.5-1.3,0.5c-1.7,0.2-3.3,0.4-4.8,0.7
			c-1.1,0.1-2.2,0.2-3.3,0.2c-1.3,0.1-2.6,0.1-4.1,0.1c-1.5,0-3.1-0.1-4.6-0.2c-1.1-0.1-2.2-0.3-3.3-0.7c-0.5-0.1-0.9-0.3-1.3-0.7
			c-0.5-0.4-0.7-1.2-0.2-1.7c0.1-0.1,0.2-0.2,0.2-0.2c0.4-0.4,1-0.7,1.5-0.8c1-0.3,2.1-0.5,3.2-0.7c1.5-0.2,3-0.3,4.5-0.2L13.5,25.5
			L13.5,25.5"/>
		
			<linearGradient id="SVGID_4_" gradientUnits="userSpaceOnUse" x1="-1018.6406" y1="5392.645" x2="-1017.6096" y2="5391.6069" gradientTransform="matrix(11.4558 0 0 -18.601 11689.0576 100316.9766)">
			<stop  offset="0" style="stop-color:#087BE2"/>
			<stop  offset="1" style="stop-color:#0C0F60"/>
		</linearGradient>
		<path class="st4" d="M20.6,27.5c0.2-0.2,0.4-0.5,0.7-0.8c0.5-0.5,0.8-1,1-1.7c0.3-0.8,0.2-1.7-0.2-2.4c-0.3-0.5-0.8-1.2-1.1-1.8
			c-0.5-0.7-1-1.6-1.3-2.4c-0.2-0.7-0.3-1.4-0.2-2.1c0.2-2,1.3-3.7,3-4.7c1.4-1,3-1.7,4.6-2.1c1.3-0.3,2.6-0.6,3.9-0.7
			c-0.1,0-0.1,0.1-0.2,0.1l-4.3,3c-0.8,0.6-1.5,1.3-2.2,2.1c-0.2,0.3-0.5,0.6-0.7,0.9c-0.5,0.7-0.6,1.7-0.2,2.5
			c0.2,0.5,0.5,1.1,0.8,1.7l1,2c0.5,1.3,0.3,2.8-0.5,4c-0.8,1-1.8,1.7-3,2.2C21.2,27.3,20.9,27.4,20.6,27.5L20.6,27.5"/>
		
			<linearGradient id="SVGID_5_" gradientUnits="userSpaceOnUse" x1="-1059.9884" y1="4568.6514" x2="-1058.9574" y2="4567.6138" gradientTransform="matrix(20.2545 0 0 -4.994 21476.3848 22847.2676)">
			<stop  offset="0" style="stop-color:#087BE2"/>
			<stop  offset="1" style="stop-color:#0C0F60"/>
		</linearGradient>
		<path class="st5" d="M11.2,31.1l-0.3,0.3c-0.3,0.4-0.3,0.8,0.1,1.1c0.4,0.3,0.9,0.5,1.4,0.5c1,0.2,2,0.3,3.1,0.3
			c1.3,0,2.6,0,4-0.1c1.7-0.1,3.3-0.4,5-0.9h0.2c1,0.5,1.9,1.2,2.9,1.8h0.1c-0.3,0.1-0.5,0.2-0.9,0.3c-1.6,0.6-3.3,1-5,1.2
			c-1.9,0.3-3.7,0.4-5.6,0.3c-2,0-3.9-0.2-5.8-0.8c-0.8-0.2-1.6-0.5-2.3-1c-0.1-0.1-0.2-0.2-0.3-0.2c-0.4-0.3-0.4-0.9-0.1-1.3
			c0,0,0.1-0.1,0.1-0.1c0.4-0.5,1-0.9,1.7-1.2C10,31.3,10.6,31.2,11.2,31.1"/>
		
			<linearGradient id="SVGID_6_" gradientUnits="userSpaceOnUse" x1="-1052.5691" y1="4507.7056" x2="-1051.5381" y2="4506.6675" gradientTransform="matrix(17.8008 0 0 -4.7376 18745.3164 21392.5391)">
			<stop  offset="0" style="stop-color:#087BE2"/>
			<stop  offset="1" style="stop-color:#0C0F60"/>
		</linearGradient>
		<path class="st6" d="M26.9,39.1c-0.3,0.2-0.8,0.3-1.1,0.5c-1.1,0.5-2.4,0.9-3.6,1.1c-2.2,0.4-4.4,0.6-6.6,0.5
			c-1.5,0-2.9-0.2-4.3-0.7c-0.6-0.2-1.2-0.5-1.8-0.9c-0.4-0.4-0.5-1-0.2-1.5c0.3-0.6,0.9-1.1,1.5-1.3c0.6-0.2,1.2-0.3,1.8-0.3
			c-0.1,0.1-0.1,0.2-0.2,0.3c-0.1,0.3-0.1,0.6,0.1,0.8c0.3,0.2,0.7,0.3,1.1,0.4c1.2,0.2,2.4,0.3,3.6,0.2c1.2,0,2.4-0.2,3.6-0.4
			c0.8-0.2,1.6-0.4,2.4-0.7h0.2C24.7,37.6,25.8,38.3,26.9,39.1L26.9,39.1"/>
		
			<linearGradient id="SVGID_7_" gradientUnits="userSpaceOnUse" x1="-1080.2145" y1="4870.8086" x2="-1079.1835" y2="4869.7705" gradientTransform="matrix(32.576 0 0 -6.824 35198.375 33281.7383)">
			<stop  offset="0" style="stop-color:#087BE2"/>
			<stop  offset="1" style="stop-color:#0C0F60"/>
		</linearGradient>
		<path class="st7" d="M39.1,43.9c0,0.7-0.3,1.4-0.7,2c-0.6,0.6-1.2,1.2-1.9,1.8c-1.5,0.9-3.2,1.6-4.9,2c-1.4,0.4-2.8,0.6-4.3,0.8
			c-1.9,0.2-3.8,0.3-5.7,0.3c-1.3,0-2.6-0.1-3.9-0.2c-2.5-0.2-4.9-0.7-7.3-1.3c-1.3-0.3-2.6-0.8-3.9-1.3l-0.1-0.1
			c0.3,0.1,0.7,0.1,1,0.2c1.4,0.2,3,0.5,4.4,0.8c1.1,0.2,2.3,0.3,3.4,0.3c2,0.2,4.1,0.2,6.2,0.1c1.1,0,2.2-0.1,3.3-0.2
			c1.7-0.1,3.3-0.4,5-0.8c1.8-0.4,3.6-1,5.3-1.8c1.4-0.6,2.7-1.5,3.9-2.5C39,44,39,44,39.1,43.9"/>
		
			<linearGradient id="SVGID_8_" gradientUnits="userSpaceOnUse" x1="-979.6077" y1="5173.6309" x2="-978.5767" y2="5172.5928" gradientTransform="matrix(8.1162 0 0 -10.7896 7979.4702 55847.4102)">
			<stop  offset="0" style="stop-color:#087BE2"/>
			<stop  offset="1" style="stop-color:#0C0F60"/>
		</linearGradient>
		<path class="st8" d="M30.2,26.6c0.4-0.2,0.8-0.4,1.2-0.7c0.7-0.3,1.5-0.5,2.3-0.4c1.8-0.1,3.3,1.2,3.5,3c0.4,2.3-0.6,4.6-2.5,5.8
			c-1.4,0.9-3,1.6-4.6,1.9c-0.2,0-0.3,0.1-0.5,0.1h-0.3c0.1-0.1,0.1-0.1,0.2-0.1c1.2-0.9,2.3-1.9,3.3-3.1c0.7-0.9,1.3-1.9,1.5-3
			c0.2-0.6,0.2-1.2,0-1.8c-0.3-0.8-1-1.4-1.8-1.8c-0.7-0.3-1.4-0.3-2.1-0.1C30.3,26.6,30.2,26.6,30.2,26.6L30.2,26.6"/>
	</g>
</g>
</svg>
