<?xml version="1.0" encoding="utf-8"?>
<!-- Generator: Adobe Illustrator 22.0.1, SVG Export Plug-In . SVG Version: 6.00 Build 0)  -->
<svg version="1.1" id="Layer_1" xmlns="http://www.w3.org/2000/svg" xmlns:xlink="http://www.w3.org/1999/xlink" x="0px" y="0px"
	 width="88px" height="88px" viewBox="0 0 88 88" style="enable-background:new 0 0 88 88;" xml:space="preserve">
<style type="text/css">
	.st0{fill:none;}
	.st1{fill:url(#SVGID_1_);}
</style>
<path class="st0" d="M44,0c24.3,0,44,19.7,44,44S68.3,88,44,88S0,68.3,0,44S19.7,0,44,0z"/>
<linearGradient id="SVGID_1_" gradientUnits="userSpaceOnUse" x1="-1060.8499" y1="5597.9814" x2="-1059.8188" y2="5596.9434" gradientTransform="matrix(38.7072 0 0 -48.652 41088.0781 272371.9062)">
	<stop  offset="0" style="stop-color:#087BE2"/>
	<stop  offset="1" style="stop-color:#0C0F60"/>
</linearGradient>
<path class="st1" d="M63.1,37.1c-6.4,0-25.6,0.2-28.8,0.2c-0.4,0-0.5-0.1-0.5-0.5c0.2-2.6,0.4-5.2,0.7-7.8c0-0.4,0.2-0.4,0.6-0.4
	c3,0,15.4-0.2,18.3-0.2c0.5,0,0.8,0.1,0.9,0.7c0.2,1.1,0.5,2.2,0.9,3.3c0.1,0.3,0.2,0.5,0.7,0.5h7.5c0.4,0,0.5-0.1,0.4-0.5
	c-0.9-4-1.7-8-2.5-12c-0.1-0.3-0.2-0.5-0.7-0.5c-5.5,0-27.8,0.1-33,0.1c-0.4,0-0.9-0.1-0.9,0.5c-0.2,4.2-0.5,8.4-0.8,12.5
	c-0.2,3.9-0.4,7.8-0.8,11.8c-0.1,0.9,0.2,1,1,1h27.6c0.5,0,0.8,0.2,0.7,0.8c-0.3,3.2-0.7,6.5-1,9.7c0,0.5-0.2,0.8-0.8,0.9
	c-2.9,0.8-5.9,1.5-8.8,2.3c-3.1-0.8-6.2-1.7-9.2-2.4c-0.4-0.1-0.5-0.3-0.5-0.8c-0.1-1.9-0.3-3.7-0.4-5.6c0-0.5-0.2-0.7-0.7-0.7h-7.3
	c-0.4,0-0.5,0.1-0.5,0.7l1,12.2c0,0.5,0.1,0.8,0.7,0.9c5.7,1.7,11.4,3.2,17.2,4.7c0.1,0,11.4-3.2,17.1-4.7c0.3,0,0.4-0.2,0.4-0.5
	c0.1-1.7,0.3-3.4,0.4-5.2c0.7-6.7,1.2-13.4,1.9-20.1C63.7,37.3,63.7,37.1,63.1,37.1z"/>
</svg>
