<?xml version="1.0" encoding="utf-8"?>
<!-- Generator: Adobe Illustrator 22.0.1, SVG Export Plug-In . SVG Version: 6.00 Build 0)  -->
<svg version="1.1" id="Layer_1" xmlns="http://www.w3.org/2000/svg" xmlns:xlink="http://www.w3.org/1999/xlink" x="0px" y="0px"
	 width="88px" height="88px" viewBox="0 0 88 88" style="enable-background:new 0 0 88 88;" xml:space="preserve">
<style type="text/css">
	.st0{fill:none;}
	.st1{fill:url(#SVGID_1_);}
	.st2{fill:url(#SVGID_2_);}
</style>
<g transform="translate(-1403 -3073)">
	<path class="st0" d="M1447,3073c24.3,0,44,19.7,44,44s-19.7,44-44,44s-44-19.7-44-44S1422.7,3073,1447,3073z"/>
	<g transform="translate(1422.571 3092.379)">
		
			<linearGradient id="SVGID_1_" gradientUnits="userSpaceOnUse" x1="-1084.792" y1="5582.7515" x2="-1083.761" y2="5581.7134" gradientTransform="matrix(45.8 0 0 -50.4693 49683.5547 281757.3125)">
			<stop  offset="0" style="stop-color:#087BE2"/>
			<stop  offset="1" style="stop-color:#0C0F60"/>
		</linearGradient>
		<path class="st1" d="M20.8,0.5c1.3-0.7,2.8-0.7,4.1,0c6.3,3.6,12.6,7.1,18.9,10.7c1.2,0.7,2,2,2,3.3v21.4c0,1.4-0.8,2.8-2.1,3.4
			c-6.3,3.5-12.5,7.1-18.8,10.6c-1.3,0.7-2.9,0.7-4.2-0.1c-1.9-1.1-3.8-2.2-5.6-3.3c-0.4-0.2-0.8-0.5-1.1-0.8c0.2-0.3,0.7-0.4,1-0.5
			c0.8-0.3,1.5-0.6,2.2-1c0.2-0.1,0.4-0.1,0.6,0c1.6,0.9,3.2,1.9,4.8,2.8c0.3,0.2,0.7-0.1,1-0.2c6.1-3.5,12.3-7,18.5-10.4
			c0.2-0.1,0.4-0.4,0.3-0.6c0-7.1,0-14.1,0-21.2c0-0.3-0.1-0.5-0.4-0.7c-6.2-3.5-12.5-7-18.7-10.6c-0.2-0.2-0.5-0.2-0.7,0
			C16.3,7,10,10.5,3.8,14c-0.3,0.1-0.4,0.4-0.4,0.7c0,7.1,0,14.1,0,21.2c0,0.2,0.1,0.5,0.3,0.6c1.7,0.9,3.3,1.9,5,2.8
			c0.9,0.6,2.1,0.7,3.1,0.4c0.9-0.3,1.5-1.2,1.5-2.2c0-7,0-14,0-21c0-0.3,0.2-0.5,0.5-0.5c0,0,0,0,0.1,0c0.8,0,1.6,0,2.4,0
			c0.3,0,0.5,0.3,0.5,0.6c0,0,0,0,0,0.1c0,7.1,0,14.1,0,21.2c0.1,2-0.8,3.8-2.5,4.9c-2.2,1-4.8,1-6.9-0.2c-1.8-0.9-3.6-2-5.4-3
			c-1.3-0.7-2.1-2-2.1-3.4V14.5c0-1.4,0.8-2.7,2-3.4C8.3,7.6,14.6,4.1,20.8,0.5z"/>
		
			<linearGradient id="SVGID_2_" gradientUnits="userSpaceOnUse" x1="-1052.6648" y1="5419.7495" x2="-1051.6338" y2="5418.7114" gradientTransform="matrix(19.4766 0 0 -20.4957 20520.873 111097.1719)">
			<stop  offset="0" style="stop-color:#087BE2"/>
			<stop  offset="1" style="stop-color:#0C0F60"/>
		</linearGradient>
		<path class="st2" d="M26.3,15.4c2.7-0.2,5.7-0.1,8.1,1.2c1.9,1.1,3,3.1,3,5.3c-0.1,0.3-0.3,0.5-0.6,0.4c-0.8,0-1.6,0-2.4,0
			c-0.3,0-0.6-0.3-0.6-0.6c-0.2-1-0.8-2-1.7-2.5c-1.5-0.6-3.1-0.8-4.8-0.7c-1.2,0-2.4,0.3-3.4,0.8c-0.7,0.6-1,1.5-0.7,2.4
			c0.3,0.6,1,0.8,1.5,1c3.3,0.9,6.8,0.8,10,1.9c1.4,0.4,2.5,1.4,3.1,2.8c0.7,1.9,0.3,4.1-1,5.6c-1.1,1.2-2.6,2-4.2,2.3
			c-2.1,0.4-4.3,0.5-6.4,0.3c-2-0.1-4-0.9-5.6-2.1c-1.3-1.2-2-2.9-1.9-4.7c0-0.3,0.3-0.5,0.6-0.5c0.8,0,1.6,0,2.4,0
			c0.3,0,0.6,0.2,0.6,0.5c0,0,0,0,0,0c0.1,1,0.6,1.9,1.4,2.5c1.6,1,3.7,1,5.5,1c1.5-0.1,3.3-0.1,4.5-1.1c0.6-0.6,0.9-1.5,0.7-2.4
			c-0.2-0.7-0.9-1-1.6-1.2c-3.3-1-6.8-0.7-10-1.8c-1.4-0.4-2.5-1.4-3.1-2.7c-0.8-2-0.3-4.2,1.1-5.7C22.3,16.2,24.3,15.4,26.3,15.4
			L26.3,15.4z"/>
	</g>
</g>
</svg>
