<?xml version="1.0" encoding="utf-8"?>
<!-- Generator: Adobe Illustrator 22.0.1, SVG Export Plug-In . SVG Version: 6.00 Build 0)  -->
<svg version="1.1" id="Layer_1" xmlns="http://www.w3.org/2000/svg" xmlns:xlink="http://www.w3.org/1999/xlink" x="0px" y="0px"
	 width="88px" height="88px" viewBox="0 0 88 88" style="enable-background:new 0 0 88 88;" xml:space="preserve">
<style type="text/css">
	.st0{fill:none;}
	.st1{fill:url(#Path_3072_1_);}
	.st2{fill:url(#Path_3073_1_);}
	.st3{fill:url(#Path_3074_1_);}
	.st4{fill:url(#Path_3075_1_);}
	.st5{fill:url(#Path_3076_1_);}
	.st6{fill:url(#Path_3077_1_);}
</style>
<g id="tech-dart" transform="translate(11734 -9885)">
	<path id="Path_12049" class="st0" d="M-11690,9885c24.3,0,44,19.7,44,44c0,24.3-19.7,44-44,44s-44-19.7-44-44
		C-11734,9904.7-11714.3,9885-11690,9885z"/>
	<g id="dart" transform="translate(-11714.75 9904.25)">
		
			<linearGradient id="Path_3072_1_" gradientUnits="userSpaceOnUse" x1="-1074.3865" y1="5532.646" x2="-1073.3555" y2="5531.6079" gradientTransform="matrix(32.006 0 0 -34.824 34391.918 192684.7656)">
			<stop  offset="0" style="stop-color:#087BE2"/>
			<stop  offset="1" style="stop-color:#0C0F60"/>
		</linearGradient>
		<path id="Path_3072" class="st1" d="M13.5,13.5l-3.2-3.2l0,23.1l0,1.1c0,0.6,0.1,1.1,0.3,1.7l25.3,8.9l6.3-2.8v0L13.5,13.5"/>
		
			<linearGradient id="Path_3073_1_" gradientUnits="userSpaceOnUse" x1="-1073.9235" y1="5273.6523" x2="-1072.8925" y2="5272.6143" gradientTransform="matrix(31.701 0 0 -13.372 34054.2148 70555.7969)">
			<stop  offset="0" style="stop-color:#087BE2"/>
			<stop  offset="1" style="stop-color:#0C0F60"/>
		</linearGradient>
		<path id="Path_3073" class="st2" d="M10.6,36.2L10.6,36.2C10.6,36.1,10.6,36.1,10.6,36.2C10.6,36.1,10.6,36.2,10.6,36.2z
			 M42.3,42.3l-6.3,2.8l-25.3-8.9c0.5,1.9,1.4,3.6,2.7,5.1l8.3,8.2l18.4,0L42.3,42.3L42.3,42.3z"/>
		
			<linearGradient id="Path_3074_1_" gradientUnits="userSpaceOnUse" x1="-1005.3718" y1="5477.0996" x2="-1004.3408" y2="5476.0615" gradientTransform="matrix(10.5939 0 0 -25.884 10651.6904 141777.4062)">
			<stop  offset="0" style="stop-color:#087BE2"/>
			<stop  offset="1" style="stop-color:#0C0F60"/>
		</linearGradient>
		<path id="Path_3074" class="st3" d="M0.4,25.2c-0.8,0.9-0.4,2.7,0.9,4L7,34.9l3.6,1.3c-0.2-0.5-0.2-1.1-0.3-1.7l0-1.1l0-23.1
			L0.4,25.2z"/>
		
			<linearGradient id="Path_3075_1_" gradientUnits="userSpaceOnUse" x1="-1076.8134" y1="5518.7769" x2="-1075.7823" y2="5517.7388" gradientTransform="matrix(34.825 0 0 -32.011 37516.0859 176666.5625)">
			<stop  offset="0" style="stop-color:#087BE2"/>
			<stop  offset="1" style="stop-color:#0C0F60"/>
		</linearGradient>
		<path id="Path_3075" class="st4" d="M36.2,10.6c-0.5-0.1-1.1-0.2-1.7-0.3l-1.1,0H10.3l32,32l0,0l2.8-6.3L36.2,10.6"/>
		
			<linearGradient id="Path_3076_1_" gradientUnits="userSpaceOnUse" x1="-1024.7717" y1="5517.019" x2="-1023.7407" y2="5515.981" gradientTransform="matrix(13.051 0 0 -31.717 13410.8887 174992.7344)">
			<stop  offset="0" style="stop-color:#087BE2"/>
			<stop  offset="1" style="stop-color:#0C0F60"/>
		</linearGradient>
		<path id="Path_3076" class="st5" d="M36.1,10.6L36.1,10.6L36.1,10.6C36.1,10.6,36.1,10.6,36.1,10.6L36.1,10.6z M41.2,13.3
			c-1.4-1.3-3.2-2.2-5.1-2.7l8.9,25.4l-2.8,6.3l0,0l6.9-2.2l0-18.8L41.2,13.3z"/>
		
			<linearGradient id="Path_3077_1_" gradientUnits="userSpaceOnUse" x1="-1066.2471" y1="5162.3687" x2="-1065.2161" y2="5161.3306" gradientTransform="matrix(25.877 0 0 -10.5756 27599.459 54596.082)">
			<stop  offset="0" style="stop-color:#087BE2"/>
			<stop  offset="1" style="stop-color:#0C0F60"/>
		</linearGradient>
		<path id="Path_3077" class="st6" d="M34.9,7l-5.7-5.7c-1.3-1.3-3.1-1.7-4-0.9l-14.9,9.9h23.1l1.1,0c0.6,0,1.1,0.1,1.7,0.3L34.9,7z
			"/>
	</g>
</g>
</svg>
