<?xml version="1.0" encoding="utf-8"?>
<!-- Generator: Adobe Illustrator 22.0.1, SVG Export Plug-In . SVG Version: 6.00 Build 0)  -->
<svg version="1.1" id="Layer_1" xmlns="http://www.w3.org/2000/svg" xmlns:xlink="http://www.w3.org/1999/xlink" x="0px" y="0px"
	 width="88px" height="88px" viewBox="0 0 88 88" style="enable-background:new 0 0 88 88;" xml:space="preserve">
<style type="text/css">
	.st0{fill:none;}
	.st1{fill:url(#Path_1482_1_);}
</style>
<g id="tech-xamarin" transform="translate(-650.015 -3048.064)">
	<path id="Path_288" class="st0" d="M694,3048.1c24.3,0,44,19.7,44,44s-19.7,44-44,44s-44-19.7-44-44S669.7,3048.1,694,3048.1z"/>
	
		<linearGradient id="Path_1482_1_" gradientUnits="userSpaceOnUse" x1="-409.6734" y1="8619.6455" x2="-408.6424" y2="8618.6074" gradientTransform="matrix(37.1546 0 0 -39.612 15896.7559 344513.625)">
		<stop  offset="0" style="stop-color:#087BE2"/>
		<stop  offset="1" style="stop-color:#0C0F60"/>
	</linearGradient>
	<path id="Path_1482" class="st1" d="M676.1,3072.3h6.4c0.3,0,0.5,0.2,0.7,0.4l10.7,19c0.1,0.1,0.1,0.2,0.1,0.3c0-0.1,0-0.2,0.1-0.3
		l10.7-19c0.1-0.2,0.4-0.4,0.7-0.4h6.3c0.4,0,0.8,0.4,0.8,0.8c0,0.1,0,0.3-0.1,0.4l-10.2,18.6l10.5,18.6c0.2,0.4,0.1,0.9-0.3,1.1
		c-0.1,0.1-0.2,0.1-0.4,0.1h-6.3c-0.3,0-0.5-0.2-0.7-0.4l-10.7-19c0-0.1-0.1-0.2-0.1-0.3c0,0.1,0,0.2-0.1,0.3l-10.7,19
		c-0.1,0.2-0.4,0.4-0.7,0.4h-6.3c-0.5,0-0.8-0.4-0.8-0.9c0-0.1,0-0.2,0.1-0.3l10.2-18.6l-10.5-18.6
		C675.3,3073,675.5,3072.5,676.1,3072.3C676,3072.3,676,3072.3,676.1,3072.3L676.1,3072.3z"/>
</g>
</svg>
