<?xml version="1.0" encoding="utf-8"?>
<!-- Generator: Adobe Illustrator 22.0.1, SVG Export Plug-In . SVG Version: 6.00 Build 0)  -->
<svg version="1.1" id="Layer_1" xmlns="http://www.w3.org/2000/svg" xmlns:xlink="http://www.w3.org/1999/xlink" x="0px" y="0px"
	 width="88px" height="88px" viewBox="0 0 88 88" style="enable-background:new 0 0 88 88;" xml:space="preserve">
<style type="text/css">
	.st0{fill:none;}
	.st1{fill:url(#SVGID_1_);}
</style>
<g transform="translate(-359 -3231.968)">
	<path class="st0" d="M403,3232c24.3,0,44,19.7,44,44s-19.7,44-44,44s-44-19.7-44-44S378.7,3232,403,3232z"/>
	
		<linearGradient id="SVGID_1_" gradientUnits="userSpaceOnUse" x1="-707.3117" y1="8849.8115" x2="-706.2807" y2="8848.7734" gradientTransform="matrix(48.0019 0 0 -58.7522 34331.418 523192.625)">
		<stop  offset="0" style="stop-color:#7B7B7B"/>
		<stop  offset="1" style="stop-color:#0C0F60"/>
	</linearGradient>
	<path class="st1" d="M381.6,3246.9h42.8c0.7,0,1.4,0.3,1.9,0.8c0.5,0.5,0.8,1.2,0.8,1.9v10.6c0,0.7-0.3,1.4-0.8,1.9
		c-0.5,0.5-1.2,0.8-1.9,0.8h-42.8c-0.7,0-1.4-0.3-1.9-0.8c-0.5-0.5-0.8-1.2-0.8-1.9v-10.6c0-0.7,0.3-1.4,0.8-1.9
		C380.2,3247.2,380.9,3246.9,381.6,3246.9z M381.6,3268.3h42.8c0.7,0,1.4,0.3,1.9,0.8c0.5,0.5,0.8,1.2,0.8,1.9v10.8
		c0,0.7-0.3,1.4-0.8,1.9c-0.5,0.5-1.2,0.8-1.9,0.8h-42.8c-0.7,0-1.4-0.3-1.9-0.8c-0.5-0.5-0.8-1.2-0.8-1.9v-10.8
		c0-0.7,0.3-1.4,0.8-1.9C380.2,3268.6,380.9,3268.3,381.6,3268.3z M381.6,3289.7h42.8c0.7,0,1.4,0.3,1.9,0.8
		c0.5,0.5,0.8,1.2,0.8,1.9v10.6c0,0.7-0.3,1.4-0.8,1.9c-0.5,0.5-1.2,0.8-1.9,0.8h-42.8c-0.7,0-1.4-0.3-1.9-0.8
		c-0.5-0.5-0.8-1.2-0.8-1.9v-10.6c0-0.7,0.3-1.4,0.8-1.9C380.2,3289.9,380.9,3289.7,381.6,3289.7z M395,3257.7h2.6v-5.4H395V3257.7z
		 M395,3278.9h2.6v-5.2H395V3278.9z M395,3300.3h2.6v-5.4H395V3300.3z M384.4,3252.3v5.4h5.2v-5.4H384.4z M384.4,3273.7v5.2h5.2
		v-5.2H384.4z M384.4,3294.9v5.4h5.2v-5.4H384.4z"/>
</g>
</svg>
