<svg xmlns="http://www.w3.org/2000/svg" xmlns:xlink="http://www.w3.org/1999/xlink" width="88" height="88" viewBox="0 0 88 88">
  <defs>
    <linearGradient id="linear-gradient" x2="1.031" y2="1.038" gradientUnits="objectBoundingBox">
      <stop offset="0" stop-color="#7b7b7b"/>
      <stop offset="1" stop-color="#0c0f60"/>
    </linearGradient>
  </defs>
  <g id="tech-language" transform="translate(12454 -10406.969)">
    <path id="Path_12036" data-name="Path 12036" d="M44,0A44,44,0,1,1,0,44,44,44,0,0,1,44,0Z" transform="translate(-12454 10406.969)" fill="rgba(255,255,255,0)"/>
    <path id="Path_12053" data-name="Path 12053" d="M13.4-12v5.6H7.932V7.4A5.4,5.4,0,0,1,6.3,11.372,5.4,5.4,0,0,1,2.333,13,5.4,5.4,0,0,1,6.3,14.628,5.4,5.4,0,0,1,7.932,18.6V32.4H13.4V38H7.932a5.4,5.4,0,0,1-3.971-1.628A5.4,5.4,0,0,1,2.333,32.4V21.333A5.4,5.4,0,0,0,.706,17.362a5.4,5.4,0,0,0-3.971-1.628H-6V10.266h2.734A5.4,5.4,0,0,0,.706,8.638,5.4,5.4,0,0,0,2.333,4.667V-6.4a5.4,5.4,0,0,1,1.628-3.971A5.4,5.4,0,0,1,7.932-12Zm16.667,0a5.4,5.4,0,0,1,3.971,1.628A5.4,5.4,0,0,1,35.667-6.4V4.667a5.4,5.4,0,0,0,1.628,3.971,5.4,5.4,0,0,0,3.971,1.628H44v5.469H41.266a5.558,5.558,0,0,0-5.6,5.6V32.4a5.558,5.558,0,0,1-5.6,5.6H24.6V32.4h5.469V18.6a5.558,5.558,0,0,1,5.6-5.6A5.4,5.4,0,0,1,31.7,11.372,5.4,5.4,0,0,1,30.068,7.4V-6.4H24.6V-12Z" transform="translate(-12429 10438)" fill="url(#linear-gradient)"/>
  </g>
</svg>
