<?xml version="1.0" encoding="utf-8"?>
<!-- Generator: Adobe Illustrator 22.0.1, SVG Export Plug-In . SVG Version: 6.00 Build 0)  -->
<svg version="1.1" id="Layer_1" xmlns="http://www.w3.org/2000/svg" xmlns:xlink="http://www.w3.org/1999/xlink" x="0px" y="0px"
	 width="88px" height="88px" viewBox="0 0 88 88" style="enable-background:new 0 0 88 88;" xml:space="preserve">
<style type="text/css">
	.st0{fill:none;}
	.st1{fill:url(#SVGID_1_);}
	.st2{fill:url(#SVGID_2_);}
</style>
<path class="st0" d="M44,0c24.3,0,44,19.7,44,44S68.3,88,44,88S0,68.3,0,44S19.7,0,44,0z"/>
<linearGradient id="SVGID_1_" gradientUnits="userSpaceOnUse" x1="-1071.502" y1="5611.1387" x2="-1070.4709" y2="5610.1006" gradientTransform="matrix(62.2412 0 0 -54.9072 66705.7656 308107.5312)">
	<stop  offset="0" style="stop-color:#087BE2"/>
	<stop  offset="1" style="stop-color:#0C0F60"/>
</linearGradient>
<path class="st1" d="M45.2,22.3c0.7-0.6,1.4-1.2,2.2-1.8c2.2-1.8,4.7-3.3,7.3-4.3c1.5-0.6,3.2-0.7,4.8-0.3c1.8,0.5,3.2,1.9,3.7,3.6
	c0.6,1.5,0.9,3,0.9,4.6c0.1,2.9-0.2,5.7-0.9,8.5c0,0,0,0.1,0,0.2c0.3,0.1,0.6,0.2,0.9,0.3c2.8,0.9,5.5,2.1,7.9,3.7
	c1.3,0.8,2.4,1.9,3.2,3.2c1.4,1.9,1.4,4.4,0,6.3c-1.1,1.5-2.5,2.8-4.1,3.8c-2.4,1.4-4.9,2.6-7.6,3.4c-0.1,0-0.2,0.1-0.3,0.1
	c0.2,0.8,0.3,1.5,0.4,2.3c0.6,2.8,0.6,5.8,0.2,8.6c-0.2,1.1-0.6,2.3-1.1,3.3c-1.1,2.1-3.4,3.2-5.8,2.8c-2.5-0.4-4.8-1.3-6.8-2.8
	c-1.5-1-3-2.2-4.4-3.4c-0.2-0.2-0.4-0.3-0.5-0.5c-1.1,0.9-2.1,1.8-3.2,2.6c-2,1.6-4.2,2.8-6.6,3.6c-1.3,0.5-2.7,0.6-4.1,0.4
	c-2-0.4-3.7-1.8-4.3-3.8c-0.6-1.5-0.9-3.1-0.9-4.7c-0.1-2.8,0.2-5.6,0.9-8.3c0-0.1,0-0.1,0-0.2c-0.9-0.3-1.8-0.6-2.7-0.9
	c-2.7-0.9-5.3-2.4-7.5-4.2c-0.6-0.5-1.2-1.1-1.7-1.8c-1.7-2-1.6-4.9,0-6.9c1.2-1.5,2.7-2.8,4.4-3.7c2.2-1.2,4.4-2.2,6.8-3
	c0.6-0.2,0.6-0.2,0.5-0.8c-0.6-2.4-0.8-4.9-0.8-7.4c0-1.7,0.3-3.4,0.8-5c1.2-3.3,3.8-4.7,7.2-4c2.5,0.6,4.8,1.7,6.9,3.2
	C42.5,20.1,43.8,21.2,45.2,22.3z M45.5,33c-1.7,0.1-3.7,0.2-5.8,0.3c-0.2,0-0.3,0.1-0.5,0.3c-2.1,2.9-3.9,6.1-5.4,9.3
	c-0.1,0.2-0.1,0.4,0,0.6c1.5,3.2,3.3,6.3,5.4,9.2c0.1,0.1,0.3,0.2,0.5,0.3c3.6,0.3,7.2,0.3,10.8,0c0.2,0,0.4-0.1,0.5-0.3
	c2.1-3,3.9-6.1,5.4-9.3c0.1-0.1,0.1-0.3,0-0.5c-1.6-3.3-3.4-6.4-5.5-9.4c-0.1-0.1-0.3-0.2-0.4-0.2C49,33.2,47.5,33.1,45.5,33
	L45.5,33z M29.9,54.3C29.9,54.3,29.8,54.3,29.9,54.3c-0.7,2.8-1,5.6-0.8,8.4c0.1,1.2,0.4,2.4,0.9,3.5c0.5,1.1,1.5,1.7,2.7,1.6
	c1.2-0.1,2.4-0.4,3.5-0.9c2.3-1.1,4.5-2.6,6.4-4.4c0.2-0.2,0.4-0.4,0.5-0.5c-1.7-2.1-3.4-4.2-5.1-6.2c-0.1-0.1-0.3-0.2-0.5-0.2
	c-1-0.1-1.9-0.2-2.9-0.4C33.1,54.9,31.5,54.6,29.9,54.3z M47.2,24.3c0,0.1,0.1,0.1,0.1,0.2c1.8,1.9,3.5,3.9,5,6
	c0.1,0.1,0.3,0.2,0.4,0.2c1.9,0.3,3.8,0.6,5.8,0.9c0.7,0.1,1.3,0.3,2,0.4c0.8-3,1-6.2,0.7-9.3c-0.1-1-0.4-1.9-0.9-2.8
	c-0.3-0.7-1-1.2-1.8-1.4c-0.8-0.1-1.7-0.1-2.5,0.2c-2.1,0.7-4.1,1.7-5.9,3.1C49.2,22.6,48.2,23.5,47.2,24.3L47.2,24.3z M62.6,50.8
	c2.8-0.8,5.5-2,7.9-3.7c0.9-0.6,1.7-1.4,2.4-2.3c0.8-1,0.8-2.4,0-3.4c-0.4-0.6-0.9-1.1-1.5-1.6c-2.1-1.7-4.5-2.9-7-3.8
	c-0.6-0.2-1.2-0.4-1.8-0.6c0,0.1-0.1,0.1-0.1,0.2c-0.7,2.5-1.6,4.9-2.7,7.2c-0.1,0.2,0,0.3,0,0.5c0.4,1,0.9,2,1.3,3.1
	C61.6,47.9,62.1,49.3,62.6,50.8z M27.8,50.8c0-0.1,0.1-0.2,0.1-0.2c0.7-2.4,1.6-4.8,2.6-7.2c0.1-0.2,0-0.4,0-0.6
	c-0.8-2-1.6-4.1-2.3-6.1c-0.1-0.4-0.2-0.8-0.4-1.2c-0.1,0-0.1,0-0.2,0c-2.5,0.7-4.8,1.8-7,3.1c-1.2,0.7-2.3,1.7-3.1,2.8
	c-0.8,1-0.8,2.4,0,3.4c0.5,0.6,1,1.2,1.6,1.7C21.7,48.5,24.7,49.9,27.8,50.8L27.8,50.8z M29.8,32c0.1,0,0.2,0,0.3,0
	c2.5-0.6,5-1,7.5-1.3c0.2,0,0.5-0.2,0.6-0.4c1.6-1.9,3.1-3.8,4.7-5.6c0.1-0.1,0.2-0.2,0.3-0.3c-1.6-1.5-3.4-2.9-5.3-4
	c-1.4-0.9-3.1-1.6-4.8-1.8c-1.4-0.4-2.8,0.4-3.3,1.7c-0.4,1-0.7,2-0.8,3c-0.2,1.9-0.1,3.8,0.2,5.7C29.4,30,29.6,31,29.8,32L29.8,32z
	 M47.2,61.9c1.7,1.6,3.6,3,5.6,4.2c1.3,0.8,2.7,1.3,4.2,1.6c1.5,0.5,3.2-0.4,3.6-2c0,0,0-0.1,0-0.1c0.4-1.2,0.6-2.4,0.7-3.6
	c0.1-2-0.1-3.9-0.4-5.9c-0.1-0.6-0.3-1.3-0.4-1.9l-0.2,0c-2.4,0.4-4.9,0.9-7.3,1.3c-0.3,0-0.6,0.2-0.8,0.5c-0.9,1.2-1.8,2.3-2.7,3.4
	C48.7,60.3,48,61.1,47.2,61.9z M45.2,26.3l-3.5,4.1h7.1L45.2,26.3z M41.6,55.9l3.6,4.1l3.5-4.1H41.6z M30.5,34.7l1.8,5.1l3.5-6.1
	L30.5,34.7z M58.1,46.5l-3.5,6.1l5.3-1L58.1,46.5z M58.1,39.7l1.7-5l-5.2-1L58.1,39.7z M30.5,51.6l5.3,1l-3.5-6L30.5,51.6z"/>
<linearGradient id="SVGID_2_" gradientUnits="userSpaceOnUse" x1="-993.8224" y1="5221.9746" x2="-992.7914" y2="5220.9365" gradientTransform="matrix(11.442 0 0 -11.442 11410.3418 59787.2539)">
	<stop  offset="0" style="stop-color:#087BE2"/>
	<stop  offset="1" style="stop-color:#0C0F60"/>
</linearGradient>
<path class="st2" d="M39,43.1c0-3.2,2.6-5.7,5.7-5.7c3.2,0,5.7,2.6,5.7,5.7c0,3.2-2.6,5.7-5.7,5.7C41.6,48.9,39,46.3,39,43.1z"/>
</svg>
