<?xml version="1.0" encoding="utf-8"?>
<!-- Generator: Adobe Illustrator 22.0.1, SVG Export Plug-In . SVG Version: 6.00 Build 0)  -->
<svg version="1.1" id="Layer_1" xmlns="http://www.w3.org/2000/svg" xmlns:xlink="http://www.w3.org/1999/xlink" x="0px" y="0px"
	 width="88px" height="88px" viewBox="0 0 88 88" style="enable-background:new 0 0 88 88;" xml:space="preserve">
<style type="text/css">
	.st0{fill:none;}
	.st1{fill:url(#Path_3055_1_);}
	.st2{fill:url(#Path_3056_1_);}
	.st3{fill:url(#Path_3057_1_);}
	.st4{fill:url(#Path_3058_1_);}
	.st5{fill:url(#Path_3059_1_);}
	.st6{fill:url(#Path_3060_1_);}
	.st7{fill:url(#Path_3061_1_);}
</style>
<g id="tech-apache" transform="translate(12310 -9659)">
	<path id="Path_12044" class="st0" d="M-12266,9659c24.3,0,44,19.7,44,44c0,24.3-19.7,44-44,44s-44-19.7-44-44
		C-12310,9678.7-12290.3,9659-12266,9659z"/>
	<g id="apache-seeklogo.com" transform="translate(-12280.438 9674.125)">
		
			<linearGradient id="Path_3055_1_" gradientUnits="userSpaceOnUse" x1="-989.7781" y1="4970.7598" x2="-988.7471" y2="4969.7217" gradientTransform="matrix(8.4548 0 0 -7.7301 8388.5938 38424.3945)">
			<stop  offset="0" style="stop-color:#087BE2"/>
			<stop  offset="1" style="stop-color:#0C0F60"/>
		</linearGradient>
		<path id="Path_3055" class="st1" d="M24.6,0.3c-1.6,1.2-3,2.6-4.2,4.2v0.1L22,7.6L22,7.6c1.1-1.6,2.2-3,3.5-4.4
			c0.1-0.1,0.1-0.1,0.1-0.1c0,0-0.1,0.1-0.1,0.1c-1.2,1.4-2.3,2.9-3.3,4.5l0.2,0c0,0,4.1-0.4,6.1-0.7l0.1-0.1
			C29.3,3.3,28,1.7,28,1.7S26.5-0.8,24.6,0.3z"/>
		
			<linearGradient id="Path_3056_1_" gradientUnits="userSpaceOnUse" x1="-989.12" y1="5292.3936" x2="-988.089" y2="5291.3555" gradientTransform="matrix(8.414 0 0 -13.852 8336.1953 73314.5469)">
			<stop  offset="0" style="stop-color:#087BE2"/>
			<stop  offset="1" style="stop-color:#0C0F60"/>
		</linearGradient>
		<path id="Path_3056" class="st2" d="M17.2,15.7c0.5-0.9,1-1.9,1.5-2.7c0.5-0.9,1.1-1.8,1.6-2.7c0,0,0.1-0.1,0.1-0.2
			c0.5-0.9,1.1-1.7,1.6-2.5l-1.7-3.1C20.3,4.7,20.1,4.8,20,5c-0.5,0.6-1,1.2-1.5,1.9c-0.6,0.8-1.2,1.6-1.8,2.4
			c-0.6,0.8-1.1,1.6-1.7,2.5c-0.5,0.7-1,1.5-1.4,2.3c0,0,0,0.1-0.1,0.1v0.1l2.1,4.1l0.1,0C16.2,17.5,16.7,16.6,17.2,15.7z"/>
		
			<linearGradient id="Path_3057_1_" gradientUnits="userSpaceOnUse" x1="-1018.3485" y1="5469.4839" x2="-1017.3175" y2="5468.4458" gradientTransform="matrix(10.867 0 0 -24.566 11071.3145 134377.3906)">
			<stop  offset="0" style="stop-color:#087BE2"/>
			<stop  offset="1" style="stop-color:#0C0F60"/>
		</linearGradient>
		<path id="Path_3057" class="st3" d="M8.2,35.7c0.4-1,0.8-1.9,1.2-2.9c0.4-0.9,0.8-1.9,1.2-2.9s0.8-1.9,1.2-2.9s0.9-2,1.3-2.9
			s0.9-1.9,1.3-2.9c0.2-0.3,0.3-0.7,0.5-1c0.3-0.6,0.6-1.2,0.9-1.7c0,0,0-0.1,0-0.1l-2.2-4.2l-0.1,0.2c-0.5,0.8-1,1.7-1.5,2.5
			c-0.5,0.9-1,1.7-1.5,2.6c-0.4,0.8-0.8,1.5-1.2,2.3c-0.1,0.2-0.1,0.3-0.2,0.5c-0.5,1-0.9,1.9-1.3,2.8c-0.4,1-0.8,2-1.1,2.9
			c-0.2,0.6-0.4,1.2-0.6,1.7c-0.1,0.5-0.3,1-0.4,1.4c-0.3,1.1-0.6,2.2-0.8,3.4l0,0.1L7,38.6l0.1,0c0.3-0.8,0.6-1.5,0.9-2.3
			C8,36.1,8.1,35.9,8.2,35.7z"/>
		
			<linearGradient id="Path_3058_1_" gradientUnits="userSpaceOnUse" x1="-964.1592" y1="5457.3496" x2="-963.1282" y2="5456.3115" gradientTransform="matrix(7.051 0 0 -23.334 6797.9771 127377.3047)">
			<stop  offset="0" style="stop-color:#087BE2"/>
			<stop  offset="1" style="stop-color:#0C0F60"/>
		</linearGradient>
		<path id="Path_3058" class="st4" d="M4.9,34.6c-0.3,1.3-0.5,2.7-0.6,4.1c0,0,0,0.1,0,0.1c-0.7-0.9-1.5-1.6-2.5-2.1
			c1.3,1.6,2.1,3.5,2.4,5.6c-0.9,0.1-1.9-0.1-2.7-0.5c0.6,0.7,1.4,1.1,2.3,1.4c-1.2,0.2-2.3,0.8-3.2,1.6c1.2-0.6,2.5-0.8,3.8-0.7
			C3,48.2,1.5,52.9,0,57.7c0.4-0.1,0.7-0.4,0.9-0.9c0.3-0.9,2-6.7,4.8-14.4c0.1-0.2,0.2-0.4,0.2-0.7c0-0.1,0-0.1,0.1-0.2
			c0.3-0.8,0.6-1.6,0.9-2.5c0.1-0.2,0.1-0.4,0.2-0.6v0l-2.1-4.3C4.9,34.5,4.9,34.5,4.9,34.6z"/>
		
			<linearGradient id="Path_3059_1_" gradientUnits="userSpaceOnUse" x1="-1031.6891" y1="5222.3306" x2="-1030.6581" y2="5221.2925" gradientTransform="matrix(12.536 0 0 -11.814 12949.4297 61703.4922)">
			<stop  offset="0" style="stop-color:#087BE2"/>
			<stop  offset="1" style="stop-color:#0C0F60"/>
		</linearGradient>
		<path id="Path_3059" class="st5" d="M22.2,7.7c-0.5,0.7-1,1.6-1.6,2.5c0,0-0.1,0.1-0.1,0.1c-0.5,0.8-1,1.7-1.6,2.7
			c-0.5,0.9-1,1.8-1.5,2.8c-0.5,0.9-0.9,1.8-1.4,2.8l0.1,0l5.2-0.6l0.1-0.1c1.2-0.5,2.2-1.3,3-2.4c0.2-0.3,0.4-0.5,0.6-0.8
			c0.6-0.9,1.1-1.8,1.6-2.8c0.5-0.9,0.9-1.8,1.2-2.7c0.2-0.5,0.3-1,0.5-1.4c0.1-0.4,0.2-0.7,0.2-1.1C26.5,7.3,24.4,7.5,22.2,7.7z"/>
		
			<linearGradient id="Path_3060_1_" gradientUnits="userSpaceOnUse" x1="-1054.179" y1="5444.2686" x2="-1053.1479" y2="5443.2305" gradientTransform="matrix(16.915 0 0 -22.129 17839.0254 120493.2969)">
			<stop  offset="0" style="stop-color:#087BE2"/>
			<stop  offset="1" style="stop-color:#0C0F60"/>
		</linearGradient>
		<path id="Path_3060" class="st6" d="M15.9,19.1c-0.2,0.4-0.4,0.8-0.6,1.2c-0.2,0.4-0.4,0.9-0.6,1.3c-0.1,0.2-0.2,0.5-0.3,0.7
			c-0.3,0.7-0.6,1.4-1,2.2c-0.4,0.9-0.8,1.9-1.2,2.9c-0.4,0.9-0.8,1.9-1.2,2.9c-0.4,1-0.8,1.9-1.2,3C9.5,34.1,9.1,35,8.7,36
			c0,0,0,0.1-0.1,0.1c-0.4,1-0.7,1.9-1.1,2.9c0,0,0,0.1,0,0.1l0.1,0L9.2,39l0.1,0c0,0-0.1-0.1-0.1-0.1c2.5-0.5,4.9-1.8,6.6-3.7
			c0.9-1,1.6-2,2.3-3.1c0.5-1,1-2,1.5-3c0.4-1,0.8-2,1.2-3.2c-0.5,0.3-1.1,0.5-1.6,0.6c-0.1,0-0.2,0-0.3,0.1s-0.2,0-0.3,0.1
			c1.8-0.7,3.3-2.2,4-3.9c-0.7,0.5-1.5,0.8-2.3,1c-0.1,0-0.3,0.1-0.4,0.1c0,0-0.1,0-0.1,0c0.6-0.2,1.2-0.6,1.7-1
			c0.1-0.1,0.2-0.2,0.3-0.2c0.1-0.1,0.3-0.3,0.4-0.4c0.1-0.1,0.2-0.2,0.3-0.3c0.2-0.2,0.4-0.5,0.5-0.7c0.1-0.1,0.1-0.2,0.2-0.2
			c0.1-0.1,0.1-0.2,0.2-0.4c0.3-0.5,0.5-1,0.7-1.5c0.1-0.2,0.2-0.4,0.2-0.6c0-0.1,0-0.1,0.1-0.2c0.1-0.2,0.1-0.4,0.2-0.6
			c0.1-0.2,0.1-0.4,0.1-0.6c-0.1,0.1-0.1,0.1-0.2,0.2c-0.8,0.4-1.6,0.7-2.4,0.8l1.6-0.2L21.8,18c-0.1,0-0.2,0-0.3,0.1
			c0,0-1.8,0.2-5.4,0.6C16.1,18.8,16,18.9,15.9,19.1z"/>
		
			<linearGradient id="Path_3061_1_" gradientUnits="userSpaceOnUse" x1="-1010.1826" y1="5108.8774" x2="-1009.1516" y2="5107.8394" gradientTransform="matrix(10.052 0 0 -9.54 10160.4258 48775.2383)">
			<stop  offset="0" style="stop-color:#087BE2"/>
			<stop  offset="1" style="stop-color:#0C0F60"/>
		</linearGradient>
		<path id="Path_3061" class="st7" d="M7.4,39.6c-0.3,0.8-0.6,1.6-0.9,2.4c0,0,0,0,0,0c0,0.1-0.1,0.2-0.1,0.3
			c-0.2,0.6-0.4,1-0.7,2.2c0.7,0.5,1.3,1.1,1.6,1.9c0-0.9-0.4-1.8-1.1-2.4c3.1,0.1,5.8-0.7,7.2-2.9c0.1-0.2,0.2-0.4,0.3-0.6
			c-0.7,0.9-1.8,1.3-2.9,1.1l0,0c1.8-0.6,3.2-1.9,4.2-3.4c0.2-0.4,0.5-0.8,0.7-1.2c-1.6,1.8-4.1,2.6-6.4,2.1l-1.7,0.2
			C7.5,39.3,7.4,39.4,7.4,39.6z"/>
	</g>
</g>
</svg>
