<svg xmlns="http://www.w3.org/2000/svg" xmlns:xlink="http://www.w3.org/1999/xlink" width="88" height="88" viewBox="0 0 88 88">
  <defs>
    <linearGradient id="linear-gradient" x2="1.031" y2="1.038" gradientUnits="objectBoundingBox">
      <stop offset="0" stop-color="#087be2"/>
      <stop offset="1" stop-color="#0c0f60"/>
    </linearGradient>
  </defs>
  <g id="tech-vuejs" transform="translate(-770 -3523)">
    <path id="Path_379" data-name="Path 379" d="M44,0A44,44,0,1,1,0,44,44,44,0,0,1,44,0Z" transform="translate(770 3523)" fill="rgba(0,29,255,0)"/>
    <g id="Group_4703" data-name="Group 4703" transform="translate(273.978 2931.335)">
      <path id="Path_402" data-name="Path 402" d="M565.018,613.675c.02.08-.033.133-.068.192q-4.268,7.393-8.538,14.786L547.5,644.1q-3.65,6.323-7.3,12.647c-.044.077-.094.152-.158.256-.264-.455-.514-.884-.763-1.314q-4.174-7.227-8.349-14.454-4.77-8.262-9.538-16.523-3.14-5.437-6.281-10.873c-.024-.042-.056-.079-.084-.118.047-.088.128-.039.19-.04q4.913,0,9.826,0c.02.044.038.09.062.133q1.527,2.65,3.057,5.3,1.37,2.375,2.741,4.749t2.745,4.748q1.4,2.421,2.792,4.842,1.472,2.549,2.944,5.1c.213.368.429.736.66,1.134.192-.331.369-.632.543-.934q1.313-2.274,2.624-4.549,1.377-2.384,2.754-4.767l2.615-4.53q1.373-2.375,2.744-4.749,1.314-2.274,2.625-4.549c.368-.639.732-1.28,1.1-1.921Z" stroke="rgba(0,0,0,0)" stroke-width="1" fill="url(#linear-gradient)"/>
      <path id="Subtraction_1" data-name="Subtraction 1" d="M-252.96-2901.325h0l-.2-.348-.08-.137c-.128-.219-.253-.433-.377-.647q-1.473-2.547-2.944-5.1l-1.03-1.786-.2-.349-.131-.228-1.43-2.48q-.678-1.175-1.358-2.349l-.058-.1-.1-.178q-.613-1.059-1.225-2.119-1.273-2.2-2.543-4.408l-.014-.024-.183-.317-2.563-4.44h9.24c1.734,3.007,3.54,6.134,5.1,8.828.006.011.012.023.018.035a.218.218,0,0,0,.1.119l.016-.025c.02-.031.04-.063.059-.095l.48-.83q2.32-4.016,4.638-8.032h9.233q-.138.244-.278.487l-.256.445c-.8,1.391-1.66,2.879-2.625,4.55q-.8,1.382-1.6,2.762l-.178.308-.97,1.678-1.138,1.972-.072.124-1.405,2.435-2.754,4.766q-.656,1.136-1.311,2.273l-.1.178-.108.187-1.1,1.911c-.113.2-.228.392-.346.6l-.2.337Z" transform="translate(793 3540)" stroke="rgba(0,0,0,0)" stroke-width="1" fill="url(#linear-gradient)"/>
    </g>
  </g>
</svg>
