<?xml version="1.0" encoding="utf-8"?>
<!-- Generator: Adobe Illustrator 22.0.1, SVG Export Plug-In . SVG Version: 6.00 Build 0)  -->
<svg version="1.1" id="Layer_1" xmlns="http://www.w3.org/2000/svg" xmlns:xlink="http://www.w3.org/1999/xlink" x="0px" y="0px"
	 width="88px" height="88px" viewBox="0 0 88 88" style="enable-background:new 0 0 88 88;" xml:space="preserve">
<style type="text/css">
	.st0{fill:none;}
	.st1{fill:url(#SVGID_1_);}
	.st2{fill:url(#SVGID_2_);}
	.st3{fill:url(#SVGID_3_);}
	.st4{fill:url(#SVGID_4_);}
	.st5{fill:url(#SVGID_5_);}
	.st6{fill:#FFFFFF;}
</style>
<g transform="translate(-1115 -3299)">
	<circle class="st0" cx="1159" cy="3343" r="44"/>
	<g transform="translate(1141.125 3318.25)">
		
			<linearGradient id="SVGID_1_" gradientUnits="userSpaceOnUse" x1="-1055.1199" y1="5562.6992" x2="-1054.0889" y2="5561.6611" gradientTransform="matrix(18.16 0 0 -42.72 19161.6699 237643.6562)">
			<stop  offset="0" style="stop-color:#087BE2"/>
			<stop  offset="1" style="stop-color:#0C0F60"/>
		</linearGradient>
		<path class="st1" d="M0,6.8v36c0,3.7,8.1,6.8,18.2,6.8V6.8H0z"/>
		
			<linearGradient id="SVGID_2_" gradientUnits="userSpaceOnUse" x1="-1056.0349" y1="5562.7339" x2="-1055.0039" y2="5561.6958" gradientTransform="matrix(18.43 0 0 -42.743 19480.6445 237774.5938)">
			<stop  offset="0" style="stop-color:#087BE2"/>
			<stop  offset="1" style="stop-color:#0C0F60"/>
		</linearGradient>
		<path class="st2" d="M17.9,49.5h0.3c10,0,18.2-3.1,18.2-6.8v-36H17.9V49.5z"/>
		
			<linearGradient id="SVGID_3_" gradientUnits="userSpaceOnUse" x1="-1085.1394" y1="5278.0996" x2="-1084.1084" y2="5277.0615" gradientTransform="matrix(36.32 0 0 -13.514 39412.3398 71328.2109)">
			<stop  offset="0" style="stop-color:#087BE2"/>
			<stop  offset="1" style="stop-color:#0C0F60"/>
		</linearGradient>
		<path class="st3" d="M36.3,6.8c0,3.7-8.1,6.8-18.2,6.8S0,10.5,0,6.8S8.1,0,18.2,0S36.3,3,36.3,6.8"/>
		
			<linearGradient id="SVGID_4_" gradientUnits="userSpaceOnUse" x1="-1077.4341" y1="5067.8022" x2="-1076.4031" y2="5066.7642" gradientTransform="matrix(28.894 0 0 -8.978 31135.1309 45500.5742)">
			<stop  offset="0" style="stop-color:#087BE2"/>
			<stop  offset="1" style="stop-color:#0C0F60"/>
		</linearGradient>
		<path class="st4" d="M32.6,6.4c0,2.4-6.5,4.5-14.4,4.5S3.7,8.9,3.7,6.4c0-2.4,6.5-4.5,14.4-4.5S32.6,3.9,32.6,6.4"/>
		
			<linearGradient id="SVGID_5_" gradientUnits="userSpaceOnUse" x1="-1077.4895" y1="4912.4863" x2="-1076.4585" y2="4911.4482" gradientTransform="matrix(28.894 0 0 -7.195 31135.1328 35347.6211)">
			<stop  offset="0" style="stop-color:#087BE2"/>
			<stop  offset="1" style="stop-color:#0C0F60"/>
		</linearGradient>
		<path class="st5" d="M29.6,9.1c1.9-0.8,3-1.7,3-2.7c0-2.4-6.5-4.5-14.4-4.5S3.7,3.9,3.7,6.4c0,1.1,1.1,2,3,2.7
			c3.7-1.2,7.6-1.8,11.4-1.7C22,7.2,25.9,7.8,29.6,9.1"/>
		<path class="st6" d="M4.5,32.5V30C5,30.4,5.4,30.7,6,30.9c0.5,0.2,1,0.3,1.6,0.3c0.3,0,0.5,0,0.8-0.1c0.2,0,0.4-0.1,0.6-0.2
			c0.1-0.1,0.3-0.2,0.3-0.4c0.1-0.1,0.1-0.3,0.1-0.4c0-0.2,0-0.4-0.2-0.6c-0.1-0.2-0.3-0.4-0.5-0.5c-0.2-0.2-0.5-0.3-0.8-0.4L7,28
			c-0.7-0.3-1.4-0.8-1.9-1.3c-0.4-0.6-0.7-1.2-0.7-1.9c0-0.5,0.1-1,0.3-1.5c0.2-0.4,0.5-0.8,0.9-1.1C6,21.9,6.5,21.7,7,21.6
			c0.5-0.1,1.1-0.2,1.7-0.2c0.5,0,1,0,1.5,0.1c0.4,0,0.8,0.2,1.2,0.3v2.4c-0.2-0.1-0.4-0.2-0.6-0.3c-0.2-0.1-0.4-0.2-0.7-0.2
			l-0.7-0.2c-0.2,0-0.4-0.1-0.7,0c-0.3,0-0.5,0-0.8,0c-0.2,0-0.4,0.1-0.6,0.2L7.1,24C7,24.1,7,24.3,7,24.5c0,0.2,0.1,0.4,0.2,0.5
			c0.1,0.2,0.3,0.3,0.4,0.4c0.2,0.2,0.4,0.3,0.7,0.4l0.9,0.4c0.4,0.2,0.8,0.4,1.2,0.6c0.3,0.2,0.6,0.4,0.9,0.7
			c0.3,0.3,0.5,0.6,0.6,0.9c0.1,0.4,0.2,0.8,0.2,1.2c0,0.5-0.1,1.1-0.3,1.6c-0.2,0.4-0.6,0.8-1,1.1c-0.4,0.3-0.9,0.5-1.4,0.6
			c-0.5,0.1-1.1,0.2-1.7,0.2c-0.6,0-1.2,0-1.7-0.2C5.4,32.9,5,32.8,4.5,32.5L4.5,32.5z M18.5,33.2c-1.5,0-2.9-0.6-3.9-1.6
			c-1-1.1-1.6-2.6-1.5-4.2c-0.1-1.6,0.5-3.1,1.5-4.3c1-1.1,2.5-1.7,4-1.7c1.4,0,2.8,0.5,3.8,1.6c1,1.2,1.5,2.7,1.5,4.2
			c0.1,1.6-0.5,3.1-1.5,4.3l-0.2,0.2l2.8,2.8h-3.5L20,33C19.5,33.2,19,33.2,18.5,33.2L18.5,33.2z M18.6,23.7c-0.8,0-1.6,0.4-2.1,1
			c-0.6,0.8-0.8,1.7-0.8,2.7c0,0.9,0.2,1.9,0.8,2.7c0.5,0.6,1.2,1,2,1c0.8,0,1.6-0.3,2-0.9c0.5-0.8,0.8-1.7,0.8-2.7
			c0-1-0.2-2-0.8-2.8C20.1,24,19.3,23.6,18.6,23.7L18.6,23.7z M32.3,33h-6.6V21.6h2.5v9.3h4.1L32.3,33L32.3,33z"/>
	</g>
</g>
</svg>
