<?xml version="1.0" encoding="utf-8"?>
<!-- Generator: Adobe Illustrator 22.0.1, SVG Export Plug-In . SVG Version: 6.00 Build 0)  -->
<svg version="1.1" id="Layer_1" xmlns="http://www.w3.org/2000/svg" xmlns:xlink="http://www.w3.org/1999/xlink" x="0px" y="0px"
	 width="88px" height="88px" viewBox="0 0 88 88" style="enable-background:new 0 0 88 88;" xml:space="preserve">
<style type="text/css">
	.st0{fill:none;}
	.st1{fill:url(#SVGID_1_);}
	.st2{fill:url(#SVGID_2_);}
	.st3{fill:url(#SVGID_3_);}
	.st4{fill:url(#SVGID_4_);}
</style>
<g transform="translate(-683 -3299)">
	<path class="st0" d="M727,3299c24.3,0,44,19.7,44,44s-19.7,44-44,44s-44-19.7-44-44S702.7,3299,727,3299z"/>
	<g transform="translate(694 3316.188)">
		<g transform="translate(28.556)">
			
				<linearGradient id="SVGID_1_" gradientUnits="userSpaceOnUse" x1="-1070.4513" y1="5369.5654" x2="-1069.4203" y2="5368.5273" gradientTransform="matrix(18.7652 0 0 -17.2071 20088.582 92408.2578)">
				<stop  offset="0" style="stop-color:#087BE2"/>
				<stop  offset="1" style="stop-color:#0C0F60"/>
			</linearGradient>
			<path class="st1" d="M18.6,15.1l-6.5,2.1l-5.6,2.5L5,20.1c-0.4,0.4-0.8,0.8-1.3,1.2c-0.5,0.4-1,0.8-1.3,1.1
				c-0.5,0.4-0.9,0.8-1.3,1.3c-0.4,0.5-0.7,1-0.9,1.6C-0.1,26,0,26.9,0.5,27.6c0.9,1.2,2.1,2.1,3.5,2.7c1,0.4,2,0.8,3.1,1
				c2.2,0.5,4.4,0.8,6.6,0.9c0.3,0,0.6,0,0.9,0c0.2-0.4,0.4-0.8,0.6-1.2c1-1.9,1.7-4,2.3-6.1c0.3-1.4,0.5-2.8,0.6-4.2
				c0-0.5,0-2.1,0-2.6c0-0.8-0.1-1.5-0.2-2.3c0-0.1,0-0.1,0-0.2c0.3-0.1,0.6-0.2,0.9-0.3L18.6,15.1L18.6,15.1L18.6,15.1z M17.1,15.9
				c0.1,0.8,0.2,1.6,0.3,2.4c0,0.1,0,0.2,0,0.3c0,0-0.8-0.5-1.4-0.8c-0.5-0.3-1.4-0.9-1.6-1c0,0,0,0,0.4-0.2
				C15.5,16.4,17.1,15.9,17.1,15.9L17.1,15.9z M13.8,17c0.2,0.1,0.3,0.1,0.4,0.2c1,0.6,1.9,1.2,3,1.6c0.2,0.1,0.2,0-0.2,0.3
				c-1.1,0.7-2.2,1.3-3.4,1.8c-0.2,0.1-0.4,0.2-0.4,0.2c0-0.1,0-0.2,0.1-0.3c0.3-1.1,0.5-2.3,0.5-3.4C13.8,17,13.8,17,13.8,17
				C13.8,17,13.8,17,13.8,17L13.8,17z M13.2,17.3c0,0.5,0,0.9,0,1.4c-0.1,0.7-0.2,1.4-0.4,2.1c0,0.1-0.1,0.2-0.1,0.3
				c-0.3-0.3-0.6-0.6-0.9-0.9c-0.4-0.4-0.7-0.8-0.9-1.3c-0.1-0.2-0.2-0.4-0.3-0.7C10.6,18.2,13.1,17.2,13.2,17.3L13.2,17.3z
				 M10,18.5C10,18.5,10,18.5,10,18.5c0,0.1,0.1,0.1,0.1,0.2c0.2,0.5,0.5,1,0.8,1.5c0.3,0.4,0.7,0.8,1.1,1.2
				c0.1,0.1,0.2,0.2,0.2,0.2s0,0-0.8,0.3c-0.9,0.4-1.9,0.7-3.1,1.1l-0.8,0.3c0,0,0,0,0.1-0.2c0.7-1.2,1.4-2.5,1.9-3.9
				c0.1-0.2,0.2-0.4,0.2-0.5C9.8,18.6,9.8,18.6,10,18.5C9.9,18.5,9.9,18.5,10,18.5L10,18.5z M9,18.9c-0.1,0.3-0.3,0.7-0.5,1
				c-0.5,0.9-1,1.8-1.7,2.9c-0.1,0.2-0.2,0.4-0.2,0.4s0,0-0.1-0.1c-0.2-0.4-0.3-0.7-0.4-1.1c-0.1-0.5-0.1-1,0-1.5
				c0.1-0.3,0.1-0.3,0.2-0.4C7,19.9,9,18.9,9,18.9L9,18.9z M17.4,19.3v0.2c0,1.2-0.1,2.5-0.3,3.7c0,0.2-0.1,0.3-0.1,0.4
				s-0.1,0-0.3-0.1c-0.8-0.2-1.5-0.6-2.2-1c-0.4-0.2-0.8-0.4-1.1-0.7c0,0,0.2-0.1,0.4-0.2c0.9-0.5,1.8-1,2.7-1.6
				C16.8,19.7,17.2,19.4,17.4,19.3L17.4,19.3z M5.3,20.7c0,0,0,0,0,0.2c0,0.1,0,0.4-0.1,0.5c0,0.7,0.1,1.4,0.4,2
				c0.1,0.1,0.1,0.2,0.2,0.4c0,0-3.3,1-4.3,1.3L1,25.2c0,0,0,0,0-0.1c0.2-0.9,0.7-1.8,1.4-2.4c0.5-0.5,1-0.9,1.6-1.2
				C4.5,21.2,5.2,20.7,5.3,20.7C5.3,20.7,5.3,20.7,5.3,20.7L5.3,20.7z M12.9,22.1c0.1,0,0.2,0.1,0.3,0.1c1.2,0.7,2.4,1.1,3.7,1.5
				l0.1,0l-0.2,0.1c-0.6,0.4-2.8,1.2-5,2.1c-0.3,0.1-0.6,0.2-0.7,0.3c0,0-0.1,0-0.1,0c0,0,0.1-0.2,0.2-0.4c0.6-1.1,1.1-2.3,1.5-3.5
				C12.9,22.2,12.9,22.1,12.9,22.1L12.9,22.1z M12.1,22.3c0,0.1,0,0.2-0.1,0.2c-0.5,1.2-1.1,2.3-1.7,3.4c-0.2,0.3-0.3,0.6-0.3,0.6
				s-0.2-0.1-0.3-0.2c-1-0.6-1.8-1.3-2.6-2.2l-0.1-0.1l0.4-0.1c1.5-0.4,2.9-0.9,4.3-1.5C12,22.4,12.1,22.3,12.1,22.3L12.1,22.3z
				 M17,24L17,24c0,0.1-0.2,1.1-0.4,1.8c-0.2,0.6-0.3,1.1-0.6,1.9c-0.1,0.4-0.2,0.7-0.2,0.7c0,0,0,0-0.1,0c-1.4-0.2-2.7-0.6-4-1.1
				c-0.3-0.1-0.8-0.4-0.9-0.4c0.2-0.1,0.4-0.2,0.7-0.3c2.2-1,4.5-2.1,5.3-2.5C16.8,24.1,16.9,24,17,24L17,24z M5.8,24.4
				c0,0-0.6,0.9-1.5,2.1c-0.3,0.4-0.7,0.9-0.8,1.1s-0.3,0.5-0.4,0.7l-0.2,0.3l-0.2-0.2c-0.3-0.3-0.6-0.6-0.9-0.9
				c-0.4-0.5-0.7-1-0.8-1.6c-0.1-0.2-0.1-0.4,0-0.4c0.1,0,1.4-0.3,2.6-0.6c0.7-0.2,1.5-0.3,1.7-0.4S5.8,24.4,5.8,24.4L5.8,24.4z
				 M6.5,24.6l0.2,0.2c0.7,0.7,1.4,1.4,2.3,1.9c0.1,0,0.2,0.1,0.3,0.2c0,0-3,1.1-4.4,1.6c-0.8,0.3-1.4,0.5-1.4,0.5
				c0,0-0.1,0-0.1-0.1l-0.1-0.1l0.1-0.2c0.5-0.7,1-1.4,2.3-2.9L6.5,24.6z M10.4,27.4c0,0,0.2,0.1,0.5,0.2c0.6,0.2,1.2,0.4,1.8,0.6
				c0.9,0.2,1.8,0.4,2.7,0.5c0.1,0,0.2,0,0.1,0s-0.8,0.3-1.3,0.4c-0.8,0.3-3.4,1-5.5,1.6c-0.4,0.1-0.7,0.2-0.7,0.2
				c-0.1,0-0.1,0-0.2-0.1c0.1-0.1,0.2-0.2,0.3-0.3c0.7-0.9,1.4-1.7,2-2.7C10.2,27.6,10.4,27.4,10.4,27.4L10.4,27.4z M9.5,27.4
				c0,0-0.3,0.6-0.9,1.5c-0.3,0.4-0.5,0.9-0.6,1c-0.1,0.2-0.2,0.4-0.3,0.5l-0.1,0.2l-0.1,0c-0.2,0-1.4-0.5-1.7-0.6
				c-0.4-0.2-0.8-0.3-1.1-0.5c-0.3-0.1-0.6-0.3-0.8-0.5c0,0,0.7-0.2,1.5-0.4c2.1-0.6,3.3-0.9,4.1-1.2C9.3,27.5,9.4,27.5,9.5,27.4
				L9.5,27.4z M15.6,28.9L15.6,28.9c0,0-0.8,2.2-1.1,2.9C14.5,32,14.4,32,14.4,32c-0.1,0-1.2-0.2-1.9-0.3c-1.2-0.2-3.3-0.5-3.8-0.7
				l-0.1,0l0.7-0.2c1.6-0.4,2.3-0.5,3.1-0.8c1-0.3,1.9-0.7,2.9-1.1C15.4,28.9,15.5,28.9,15.6,28.9L15.6,28.9z"/>
			
				<linearGradient id="SVGID_2_" gradientUnits="userSpaceOnUse" x1="-1021.7744" y1="4775.7905" x2="-1020.7434" y2="4774.7524" gradientTransform="matrix(10.2001 0 0 -6.11 10427.2559 29179.9766)">
				<stop  offset="0" style="stop-color:#087BE2"/>
				<stop  offset="1" style="stop-color:#0C0F60"/>
			</linearGradient>
			<path class="st2" d="M11.9,0c-1,0.3-2,0.7-3,1.1c-1.2,0.5-2.3,1-3.4,1.7C5.3,3,5.1,3.2,4.9,3.4c0,0.1,0,0.1,0,0.2l0.7,0.6
				l1.6,0.5l3.7,0.7l4.2,0.7l0-0.4c0,0,0,0,0,0l-0.6-0.1l-0.1-0.2c-0.6-1-1.2-2.3-1.6-3.1c-0.3-0.6-0.5-1.3-0.7-2C12,0,12,0,11.9,0
				L11.9,0L11.9,0z M11.9,0.2L11.9,0.2c0,0,0,0.1,0,0.3c0.1,0.7,0.2,1.4,0.5,2.1c0.2,0.5,0.2,0.5,0,0.4C11.9,2.9,9.6,2.5,8,2.3
				c-0.3,0-0.5-0.1-0.5-0.1c0,0,1.2-0.6,1.7-0.9C9.9,1,11.7,0.3,11.9,0.2L11.9,0.2z M7.2,2.4l0.2,0.1c1.7,0.5,3.4,0.8,5.1,1l0.3,0
				c-0.1,0.1-0.2,0.1-0.3,0.2c-0.7,0.3-1.5,0.8-2,1.1c-0.1,0.1-0.2,0.1-0.3,0.2c0,0-0.1,0-0.2,0l-0.2,0L9.2,4.4
				C8.3,3.6,7.7,2.9,7.4,2.7L7.2,2.4z M7,2.6l0.7,0.9c0.4,0.5,0.8,0.9,0.8,1c0.1,0.1,0.1,0.1,0.1,0.2c0,0-1-0.2-1.5-0.3
				S6.4,4.2,6,4.1L5.8,4V3.9C5.8,3.6,6.2,3.1,7,2.6L7,2.6z M12.8,3.8c0,0,0,0,0.1,0.2c0.2,0.4,0.7,1.4,0.8,1.5c0,0.1,0.1,0.1-0.6,0
				C11.5,5.2,11,5.1,11,5.1C11,5,11,5,11.1,5c0.5-0.3,1-0.6,1.5-1C12.7,3.9,12.8,3.8,12.8,3.8C12.8,3.7,12.8,3.8,12.8,3.8L12.8,3.8z
				"/>
			
				<linearGradient id="SVGID_3_" gradientUnits="userSpaceOnUse" x1="-1088.4553" y1="5398.9351" x2="-1087.4243" y2="5397.897" gradientTransform="matrix(27.083 0 0 -18.917 29478.084 102137.1016)">
				<stop  offset="0" style="stop-color:#087BE2"/>
				<stop  offset="1" style="stop-color:#0C0F60"/>
			</linearGradient>
			<path class="st3" d="M5,3.4C4.9,3.5,4.9,3.7,5,3.8C5.1,4,5.2,4.2,5.4,4.3c0,0,2.2,2.1,2.4,2.4C9,8,9.6,9.7,9.6,11.4
				c0,1.2-0.2,2.4-0.8,3.5c-1,2.2-3.2,4.7-6.5,7.4l0.5-0.2c0.6-0.4,1.1-0.7,1.7-1c2.6-1.4,5.3-2.6,8.1-3.6
				c5.3-1.9,10.8-3.4,16.4-4.4l0.4-0.1l-0.1-0.1c-0.3-0.5-0.6-0.9-1-1.4c-1-1.2-2.1-2.2-3.5-2.9c-2.4-1.2-4.9-2.1-7.5-2.5
				c-0.6-0.1-1.9-0.3-2.9-0.5C12.3,5.3,10.8,5,9.2,4.8c-0.6-0.1-1.4-0.2-2-0.4C6.8,4.3,6.4,4.2,5.9,4.1C5.6,3.9,5.1,3.8,5,3.4z
				 M6.2,4.6c0.1,0,0.1,0,0.2,0.1c0.2,0.1,0.4,0.1,0.7,0.2C7.3,4.9,7.5,5,7.8,5c0.3,0.1,0.5,0.1,0.5,0.1c0,0,0.5,1.6,0.7,2.2
				c0.1,0.2,0.1,0.4,0.1,0.4C9.1,7.8,9,7.7,9,7.6C8.3,6.5,7.5,5.6,6.5,4.8C6.4,4.7,6.3,4.7,6.2,4.6L6.2,4.6z M8.6,5.2
				c0.1,0,0.2,0,0.3,0c0.8,0.2,2.3,0.5,3.3,0.6c0.1,0,0.2,0,0.3,0.1c0,0-0.1,0.1-0.1,0.1c-0.2,0.1-0.8,0.5-1,0.6
				c-0.5,0.3-1,0.7-1.4,1.1C9.8,7.9,9.6,8,9.6,8s0-0.1-0.1-0.2C9.4,7,9.1,6.2,8.7,5.5C8.7,5.4,8.6,5.3,8.6,5.2
				C8.6,5.3,8.6,5.2,8.6,5.2z M12.9,6.1C12.9,6.2,13,6.4,13,6.6c0.2,0.7,0.3,1.5,0.2,2.2c0,0.1,0,0.3,0,0.4l0,0L13,9.2
				c-0.5-0.2-1.4-0.4-2.1-0.6c-0.4-0.1-0.8-0.2-0.8-0.2c0.3-0.3,0.6-0.6,0.9-0.9C11.6,7,12.2,6.5,12.9,6.1z M13.2,6.1
				c0,0,2,0.3,2.9,0.5c0.7,0.1,1.7,0.3,1.7,0.4c0,0-0.1,0.1-0.4,0.2c-1.1,0.5-2.2,1.1-3.2,1.7c-0.2,0.2-0.5,0.3-0.5,0.3
				c0-0.1,0-0.2,0-0.3c0-0.9-0.2-1.8-0.5-2.7C13.2,6.2,13.2,6.2,13.2,6.1L13.2,6.1z M18.4,7.1c0,0.2-0.1,0.4-0.1,0.6
				c-0.3,1-0.7,1.9-1.2,2.8c-0.1,0.1-0.1,0.2-0.2,0.3c-0.1,0-0.2-0.1-0.3-0.2c-0.6-0.4-1.3-0.7-1.9-0.9c-0.2-0.1-0.4-0.2-0.4-0.2
				c0,0,1.5-1.1,2.4-1.6C17.3,7.7,18.4,7.1,18.4,7.1L18.4,7.1z M18.7,7.2c0,0,0.9,0.2,1.4,0.4c1.1,0.3,2.2,0.7,3.3,1.2l0.4,0.2
				L23.6,9c-1.9,0.4-3.8,1-5.6,1.7c-0.1,0.1-0.3,0.1-0.3,0.1c0-0.1,0.1-0.2,0.1-0.2c0.5-1,0.8-2.1,0.9-3.3
				C18.7,7.3,18.7,7.2,18.7,7.2L18.7,7.2z M9.9,9.2c0,0,0.7,0.1,1.1,0.2c0.6,0.2,1.7,0.6,1.7,0.6c0,0-0.1,0.1-0.3,0.3
				c-0.6,0.5-1.3,1.1-2,1.8c-0.2,0.2-0.4,0.4-0.4,0.4s0,0,0-0.1c0.1-1,0.1-2-0.1-2.9C9.9,9.3,9.9,9.2,9.9,9.2z M24.2,9.2
				C24,9.5,23.8,9.8,23.6,10c-0.3,0.4-0.7,1-1.7,2.2c-0.5,0.6-1.1,1.4-1.3,1.6s-0.4,0.4-0.4,0.4c-0.1-0.1-0.1-0.1-0.1-0.2
				c-0.5-0.8-1.2-1.6-2-2.2c-0.1-0.1-0.3-0.3-0.4-0.3c0,0-0.1-0.1-0.1-0.1c0,0,0.8-0.4,1.5-0.6c1.1-0.4,2.6-1,3.7-1.3
				C23.5,9.4,24.2,9.2,24.2,9.2L24.2,9.2z M24.5,9.3c0.1,0,0.2,0.1,0.3,0.1c1.2,0.7,2.3,1.5,3.3,2.5c0.3,0.3,0.9,0.9,0.9,0.9
				s-0.2,0-0.5,0c-2.4,0.2-4.8,0.6-7.2,1.2c-0.2,0-0.3,0.1-0.3,0.1s0.2-0.2,0.4-0.4c1.2-1.1,2.2-2.4,3-3.9
				C24.4,9.6,24.5,9.3,24.5,9.3L24.5,9.3z M13.7,10.4c0.1,0,0.7,0.3,1.2,0.6c0.4,0.2,1.1,0.6,1.1,0.6c0,0-0.2,0.1-0.5,0.3
				c-0.9,0.5-1.7,0.9-2.5,1.4c-0.2,0.1-0.4,0.3-0.4,0.3s0,0,0.1-0.3c0.5-0.8,0.8-1.8,1-2.7C13.6,10.5,13.6,10.4,13.7,10.4L13.7,10.4
				z M13,10.6c-0.1,0.3-0.2,0.6-0.3,0.9c-0.2,0.7-0.5,1.3-0.9,2c-0.1,0.1-0.2,0.3-0.3,0.4l-0.1,0.2l-0.3-0.3
				c-0.3-0.3-0.6-0.5-0.9-0.7c-0.1,0-0.2-0.1-0.2-0.1c0,0,0.8-0.8,1.5-1.3C12,11.3,13,10.5,13,10.6L13,10.6z M16.9,12.2l0.2,0.2
				c0.6,0.4,1.1,0.8,1.7,1.2c0.3,0.2,0.8,0.7,0.9,0.8l0.1,0.1l-0.4,0.1c-2.2,0.6-4,1.2-6,1.9c-0.2,0.1-0.4,0.2-0.4,0.2
				s-0.1,0,0.4-0.4c1.2-1.1,2.3-2.4,3.3-3.8L16.9,12.2L16.9,12.2z M15.9,12.4c0,0-0.7,1-1.1,1.5c-0.5,0.6-1.3,1.7-1.9,2.4
				c-0.2,0.3-0.5,0.5-0.5,0.5s0-0.1,0-0.2c0-0.6-0.1-1.2-0.4-1.8c-0.1-0.2-0.1-0.3-0.1-0.3c0.1-0.1,1.5-0.9,2.4-1.4
				C14.9,12.9,15.9,12.4,15.9,12.4L15.9,12.4z M9.7,13.9c0.1,0,0.2,0.1,0.3,0.1c0.3,0.2,0.6,0.4,0.8,0.6c-0.1,0.1-0.2,0.2-0.3,0.2
				C10.1,15.2,9.4,15.7,9,16c-0.4,0.3-0.4,0.4-0.4,0.3c0.5-0.7,0.8-1.4,1.1-2.1C9.6,14.1,9.7,14,9.7,13.9L9.7,13.9z M11.4,15.2
				c0,0,0.1,0,0.2,0.2c0.3,0.4,0.5,0.9,0.5,1.4l0,0.1l-0.7,0.3c-1.2,0.5-2.3,0.9-3,1.3c-0.2,0.1-0.6,0.3-0.8,0.4s-0.4,0.2-0.4,0.2
				s0.2-0.1,0.3-0.3c1.4-1,2.6-2.1,3.7-3.4C11.2,15.3,11.3,15.2,11.4,15.2L11.4,15.2z M10.6,15.4c-0.3,0.4-0.6,0.7-0.9,1
				c-0.9,0.9-1.9,1.8-3,2.4l-0.3,0.2c0,0,0,0,0.5-0.6c0.3-0.3,0.6-0.6,0.8-1C7.9,17.3,8,17.1,8.2,17C8.9,16.5,10.6,15.4,10.6,15.4
				L10.6,15.4z"/>
		</g>
		
			<linearGradient id="SVGID_4_" gradientUnits="userSpaceOnUse" x1="-1083.5463" y1="5345.9507" x2="-1082.5153" y2="5344.9126" gradientTransform="matrix(65.9952 0 0 -16.0532 71505.7578 85857.7969)">
			<stop  offset="0" style="stop-color:#087BE2"/>
			<stop  offset="1" style="stop-color:#0C0F60"/>
		</linearGradient>
		<path class="st4" d="M11.9,41.7c-0.1,0-0.2,0-0.3,0c-1.8-0.1-3.4,0.9-4.2,2.5c-0.7,1.5-0.7,3.2,0,4.7c0.8,1.4,2.2,2.3,3.9,2.4
			c0.4,0.1,0.7,0.3,1.5,1.1l1,1h1.8l-1.2-1.1c-0.4-0.4-0.8-0.7-1.2-1.1c0.2-0.1,0.4-0.2,0.6-0.2c1.1-0.3,1.9-1,2.4-2
			c0.4-0.6,0.6-1.4,0.6-2.2C16.8,43.6,15,41.7,11.9,41.7L11.9,41.7z M13.4,49.9c-0.9,0.4-2,0.4-3,0.2c-0.9-0.3-1.7-1-2.1-2
			c-0.4-1.2-0.4-2.4,0.1-3.6c0.6-1.2,1.9-1.9,3.2-1.9c1.8-0.2,3.4,1.2,3.6,3c0,0.2,0,0.3,0,0.5C15.5,47.9,14.8,49.3,13.4,49.9
			L13.4,49.9z M44.4,44.4c-0.7,0-1.3,0.3-1.7,0.8l-0.3,0.4v-1.1h-1.3V51h1.3v-2.1c0-1.9,0-2.1,0.3-2.7c0.3-0.7,1.1-1.1,1.8-0.9
			l0.5,0.1v-1.1L44.4,44.4L44.4,44.4z M36.7,44.3c-0.3,0-0.5,0-0.8,0.1c-1.6,0.3-2.7,1.8-2.7,3.4c-0.1,1,0.3,1.9,1,2.6
			c1.3,1,3,1.2,4.4,0.6c0.3-0.1,0.6-0.2,0.6-0.2v-1l-0.6,0.3c-1.4,0.5-2.5,0.5-3.3-0.1c-0.5-0.5-0.8-1.1-0.9-1.7h5.2v-0.9
			c0.1-1.5-1.1-2.8-2.6-2.9C37,44.3,36.9,44.3,36.7,44.3L36.7,44.3z M34.6,47.2c0.1-0.6,0.4-1.2,0.9-1.6c0.3-0.2,0.7-0.3,1.1-0.3
			c0.4,0,0.8,0.1,1.1,0.3c0.4,0.4,0.7,1,0.8,1.5L34.6,47.2L34.6,47.2L34.6,47.2z M3.3,46c-1.4-0.8-2-1.3-2-1.9
			c0.2-1.8,2.7-1.5,4.1-0.9l0-1.2c-0.6-0.2-1.2-0.3-1.8-0.3c-1.7,0-2.8,0.5-3.3,1.5c-0.7,1.5-0.1,2.6,2.3,3.8
			c1.3,0.7,1.9,1.3,1.9,1.9c0,1.3-1.8,1.8-3.7,1c-0.4-0.2-0.7-0.3-0.7-0.3c0,0.4-0.1,0.9,0,1.3c0.5,0.2,1,0.3,1.5,0.4
			c2.2,0.4,4.1-0.5,4.3-2C5.9,47.8,5.4,47.1,3.3,46L3.3,46L3.3,46z M55.9,44.3c-0.3,0-0.5,0-0.8,0.1c-1.6,0.3-2.7,1.8-2.7,3.4
			c-0.1,1,0.3,1.9,1,2.6c1.3,1,3,1.2,4.4,0.6c0.3-0.1,0.6-0.2,0.6-0.2v-1l-0.6,0.3c-1.4,0.5-2.5,0.5-3.3-0.1
			c-0.5-0.5-0.8-1.1-0.9-1.7h5.2v-0.9c0.1-1.5-1.1-2.8-2.6-2.9C56.2,44.3,56,44.3,55.9,44.3L55.9,44.3L55.9,44.3z M53.8,47.2
			c0.1-0.6,0.4-1.2,0.9-1.6c0.3-0.2,0.7-0.3,1.1-0.3c0.4,0,0.8,0.1,1.1,0.3c0.4,0.4,0.7,1,0.8,1.6L53.8,47.2L53.8,47.2L53.8,47.2z
			 M29.9,46c-1.4-0.8-2-1.3-2-1.9c0.2-1.8,2.7-1.5,4.1-0.9l0-1.2c-0.6-0.2-1.2-0.3-1.8-0.3c-1.7,0-2.8,0.5-3.3,1.5
			c-0.7,1.5-0.1,2.6,2.3,3.8c1.3,0.7,1.9,1.3,1.9,1.9c0,1.3-1.8,1.8-3.7,1c-0.4-0.2-0.7-0.3-0.7-0.3c0,0.4-0.1,0.9,0,1.3
			c0.5,0.2,1,0.3,1.4,0.4c2.2,0.4,4.1-0.5,4.3-2C32.6,47.9,32,47.1,29.9,46L29.9,46L29.9,46z M63.5,44.3c-0.7,0-1.3,0.3-1.7,0.8
			l-0.3,0.4v-1.1h-1.3V51h1.3v-2.1c0-1.9,0-2.1,0.3-2.7c0.3-0.7,1.1-1.1,1.8-0.9l0.5,0.1v-1.1L63.5,44.3L63.5,44.3z M19.6,46v-4.2
			h-1.3V51h5.5V50h-4.2L19.6,46L19.6,46z M49.9,47.3l-1.1,2.5l-1-2.5l-1.1-2.8h-1.3c0.9,2.2,1.8,4.4,2.8,6.6c0.4,0,0.8,0,1.2,0
			l1.5-3.2l1.5-3.3h-1.3C51.1,44.5,50.5,45.8,49.9,47.3L49.9,47.3L49.9,47.3z M22.6,39.3c0.2,0,0.4-0.1,0.5-0.2
			c0.1-0.1,0.2-0.3,0.2-0.5c0-0.2-0.1-0.4-0.2-0.5C23,38,22.8,38,22.6,38c-0.2,0-0.4,0.1-0.5,0.2c-0.1,0.1-0.2,0.3-0.2,0.5
			c0,0.2,0.1,0.4,0.2,0.5C22.2,39.2,22.4,39.3,22.6,39.3L22.6,39.3z M22.1,38.2c0.3-0.2,0.7-0.2,0.9,0c0.1,0.1,0.2,0.3,0.2,0.4
			c0,0.2-0.1,0.3-0.2,0.4c-0.1,0.1-0.3,0.2-0.5,0.2c-0.2,0-0.3-0.1-0.5-0.2C22,38.9,22,38.8,22,38.6C22,38.5,22,38.3,22.1,38.2
			L22.1,38.2z M22.5,38.7L22.5,38.7c0.1,0,0.2,0.1,0.3,0.1l0.1,0.2H23l-0.1-0.2c-0.1-0.1-0.1-0.1-0.2-0.2c0.1,0,0.1,0,0.2-0.1
			c0,0,0.1-0.1,0.1-0.2c0-0.1,0-0.1-0.1-0.2c-0.1,0-0.2-0.1-0.3-0.1h-0.3V39h0.1L22.5,38.7L22.5,38.7z M22.5,38.3h0.1
			c0.1,0,0.1,0,0.2,0c0,0,0,0.1,0,0.1c0,0.1-0.1,0.1-0.2,0.1h-0.1L22.5,38.3L22.5,38.3z M0.8,38.6c0-0.3,0-0.5,0-0.6h0
			c0,0.1,0.1,0.2,0.1,0.3l1.3,2.5h0.2l1.3-2.5c0-0.1,0.1-0.2,0.1-0.3h0c0,0.2,0,0.5,0,0.6v2.2h0.4v-3.3H3.6l-1.2,2.3
			c0,0.1-0.1,0.2-0.2,0.4h0c0-0.1-0.1-0.3-0.2-0.4L1,37.5H0.4v3.3h0.4L0.8,38.6L0.8,38.6L0.8,38.6z M5.1,38.6h0.4v2H5.1L5.1,38.6z
			 M5.3,37.9c0.1,0,0.1,0,0.2-0.1c0.1,0,0.1-0.1,0.1-0.2c0-0.1,0-0.1-0.1-0.2c-0.1,0-0.1-0.1-0.2-0.1c-0.1,0-0.1,0-0.2,0.1
			C5,37.5,5,37.6,5,37.6c0,0.1,0,0.1,0.1,0.2C5.1,37.8,5.2,37.9,5.3,37.9L5.3,37.9L5.3,37.9z M8.1,40.7v-0.4
			c-0.2,0.1-0.4,0.2-0.6,0.2c-0.2,0-0.5-0.1-0.7-0.2c-0.2-0.2-0.3-0.4-0.2-0.6c0-0.5,0.3-0.9,0.8-0.9c0,0,0.1,0,0.1,0
			c0.2,0,0.4,0.1,0.6,0.2v-0.4c-0.2-0.1-0.4-0.1-0.6-0.1c-0.4,0-0.7,0.1-1,0.4c-0.2,0.2-0.4,0.6-0.4,0.9c0,0.3,0.1,0.6,0.3,0.8
			c0.2,0.2,0.6,0.3,0.9,0.3C7.6,40.9,7.9,40.8,8.1,40.7L8.1,40.7z M9.2,39.6c0-0.2,0.1-0.5,0.2-0.6c0.1-0.1,0.3-0.2,0.4-0.2
			c0.1,0,0.2,0,0.3,0.1v-0.4c-0.1,0-0.2,0-0.3,0c-0.1,0-0.3,0-0.4,0.1c-0.1,0.1-0.2,0.2-0.3,0.4h0v-0.5H8.8v2.3h0.4L9.2,39.6
			L9.2,39.6z M11.6,40.9c0.4,0,0.7-0.1,1-0.3c0.5-0.5,0.5-1.3,0-1.8c-0.3-0.2-0.6-0.3-0.9-0.3c-0.3,0-0.7,0.1-1,0.3
			c-0.3,0.2-0.4,0.6-0.4,0.9c0,0.3,0.1,0.6,0.3,0.9C10.9,40.7,11.3,40.9,11.6,40.9L11.6,40.9L11.6,40.9z M11,39
			c0.2-0.2,0.4-0.2,0.6-0.2c0.2,0,0.5,0.1,0.6,0.2c0.2,0.2,0.2,0.4,0.2,0.7c0,0.2-0.1,0.5-0.2,0.7c-0.2,0.2-0.4,0.3-0.6,0.2
			c-0.5,0-0.8-0.3-0.9-0.8c0,0,0-0.1,0-0.1C10.7,39.4,10.8,39.1,11,39L11,39z M14.8,40.7c0.2-0.1,0.2-0.3,0.2-0.5
			c0-0.2-0.1-0.3-0.2-0.4c-0.1-0.1-0.3-0.2-0.5-0.3c-0.1,0-0.3-0.1-0.4-0.2c-0.1-0.1-0.1-0.1-0.1-0.2c0-0.1,0-0.2,0.1-0.2
			c0.1-0.1,0.2-0.1,0.3-0.1c0.2,0,0.4,0.1,0.6,0.2v-0.4c-0.2-0.1-0.4-0.1-0.6-0.1c-0.2,0-0.5,0.1-0.7,0.2c-0.2,0.1-0.3,0.3-0.3,0.5
			c0,0.2,0.1,0.3,0.2,0.4c0.1,0.1,0.3,0.2,0.5,0.3c0.2,0.1,0.3,0.1,0.4,0.2c0.1,0.1,0.1,0.1,0.1,0.2c0,0.2-0.2,0.3-0.5,0.3
			c-0.2,0-0.5-0.1-0.7-0.2v0.4c0.2,0.1,0.4,0.1,0.6,0.1C14.3,40.9,14.5,40.8,14.8,40.7L14.8,40.7z M16.8,38.4c-0.3,0-0.7,0.1-1,0.3
			c-0.3,0.2-0.4,0.6-0.4,0.9c0,0.3,0.1,0.6,0.3,0.9c0.6,0.5,1.3,0.5,1.9,0c0.2-0.2,0.4-0.6,0.4-0.9c0-0.3-0.1-0.7-0.3-0.9
			C17.4,38.5,17.1,38.4,16.8,38.4L16.8,38.4z M17.6,39.6c0,0.2-0.1,0.5-0.2,0.7c-0.2,0.2-0.4,0.3-0.6,0.2c-0.5,0-0.8-0.3-0.9-0.8
			c0,0,0-0.1,0-0.1c0-0.5,0.3-0.9,0.7-0.9c0.1,0,0.1,0,0.2,0c0.2,0,0.5,0.1,0.6,0.2C17.5,39.1,17.6,39.4,17.6,39.6L17.6,39.6
			L17.6,39.6z M18.7,40.8h0.4v-2h0.6v-0.3h-0.6v-0.4c0-0.3,0.1-0.5,0.4-0.5c0.1,0,0.2,0,0.3,0.1v-0.3c-0.1,0-0.2,0-0.3,0
			c-0.2,0-0.4,0.1-0.6,0.2c-0.2,0.1-0.3,0.4-0.3,0.6v0.4h-0.4v0.3h0.4L18.7,40.8L18.7,40.8z M20.5,40.2c0,0.3,0.2,0.6,0.5,0.7
			c0.1,0,0.1,0,0.2,0c0.1,0,0.3,0,0.4-0.1v-0.3c-0.1,0.1-0.2,0.1-0.3,0.1c-0.1,0-0.2,0-0.3-0.1c-0.1-0.1-0.1-0.2-0.1-0.3v-1.3h0.7
			v-0.3h-0.7v-0.7c-0.1,0-0.3,0.1-0.4,0.1v0.6H20v0.3h0.5L20.5,40.2L20.5,40.2z M65.8,44.5c-0.1-0.1-0.3-0.2-0.5-0.2
			c-0.2,0-0.4,0.1-0.5,0.2c-0.1,0.1-0.2,0.3-0.2,0.5c0,0.2,0.1,0.3,0.2,0.5c0.2,0.1,0.3,0.2,0.5,0.2c0.2,0,0.4-0.1,0.5-0.2
			c0.1-0.1,0.2-0.3,0.2-0.5C66,44.7,65.9,44.6,65.8,44.5L65.8,44.5z M65.7,45.3c-0.3,0.2-0.7,0.2-0.9,0c-0.1-0.1-0.2-0.3-0.2-0.4
			c0-0.2,0.1-0.3,0.2-0.4c0.3-0.2,0.7-0.2,0.9,0c0.1,0.1,0.2,0.3,0.2,0.4C65.9,45.1,65.8,45.3,65.7,45.3L65.7,45.3z M65.3,45
			c0.1,0,0.1,0,0.2-0.1c0,0,0.1-0.1,0.1-0.2c0-0.1,0-0.1-0.1-0.2c-0.1,0-0.2-0.1-0.3-0.1h-0.3v0.8h0.1V45h0.1c0.1,0,0.1,0.1,0.2,0.1
			l0.1,0.2h0.2l-0.1-0.2C65.4,45,65.4,45,65.3,45L65.3,45z M65.2,44.9h-0.1v-0.3h0.1c0.1,0,0.1,0,0.2,0c0,0,0,0.1,0,0.1
			C65.4,44.8,65.4,44.9,65.2,44.9L65.2,44.9z M41.7,38.4h0.1v-0.8h0.3v-0.1h-0.7v0.1h0.3L41.7,38.4L41.7,38.4z M42.4,37.7
			c0-0.1,0-0.1,0-0.2C42.4,37.6,42.4,37.6,42.4,37.7l0.4,0.6h0.1l0.4-0.7c0,0,0-0.1,0-0.1c0,0.1,0,0.1,0,0.2v0.6h0.1v-0.9h-0.2
			l-0.3,0.7c0,0,0,0.1,0,0.1h0c0,0,0-0.1,0-0.1l-0.3-0.7h-0.2v0.9h0.1L42.4,37.7L42.4,37.7L42.4,37.7z"/>
	</g>
</g>
</svg>
