<svg xmlns="http://www.w3.org/2000/svg" xmlns:xlink="http://www.w3.org/1999/xlink" width="88" height="88" viewBox="0 0 88 88">
  <defs>
    <linearGradient id="linear-gradient" x2="1.031" y2="1.038" gradientUnits="objectBoundingBox">
      <stop offset="0" stop-color="#087be2"/>
      <stop offset="1" stop-color="#0c0f60"/>
    </linearGradient>
  </defs>
  <g id="tech-jsf" transform="translate(-440 -3523)">
    <path id="Path_379" data-name="Path 379" d="M44,0A44,44,0,1,1,0,44,44,44,0,0,1,44,0Z" transform="translate(440 3523)" fill="rgba(0,29,255,0)"/>
    <g id="Group_4700" data-name="Group 4700" transform="translate(-151.691 3362.997)">
      <path id="Path_388" data-name="Path 388" d="M666.2,203.493c-.076-.946-.251-1.03-1.142-.865-2.5.463-5,.914-7.5,1.372q-6.725,1.231-13.452,2.456c-.4.072-.621.17-.689.637a3.046,3.046,0,0,1-4.047,2.719.621.621,0,0,0-.844.352,58.757,58.757,0,0,0-5.494,14.02c-.135.544.1.538.483.535,1.135-.008,2.27,0,3.4,0q3.945.007,7.872-.358a40.31,40.31,0,0,0,9.423-1.79C663.458,219.392,666.91,212.282,666.2,203.493Z" transform="translate(-18.596 -18.808)" fill="url(#linear-gradient)"/>
      <path id="Path_389" data-name="Path 389" d="M658.117,180.381c-.034-.409-.386-.4-.7-.36-.192.025-.384.049-.575.083-2.014.352-4.026.716-6.042,1.058-8.829,1.5-17.616,3.207-26.346,5.207a1.691,1.691,0,0,1-1.465-.222,2.25,2.25,0,0,0-2.51.006,2,2,0,0,0-1.123,2.217,2.917,2.917,0,0,1-.649,2.508c-.287.473-.579.944-.841,1.43-4.943,9.17-6.883,19.072-7.171,29.377a31.2,31.2,0,0,0,.149,3.4.565.565,0,0,0,.609.548c.446-.006.192-.374.185-.563a71.623,71.623,0,0,1,.991-15.375,54.132,54.132,0,0,1,6.994-19.038c.284-.462.463-.582,1.008-.307a2.4,2.4,0,0,0,3.5-2.478c-.048-.508.1-.671.579-.765,7.538-1.486,15.069-3,22.608-4.48,3.389-.664,6.794-1.25,10.187-1.893C657.717,180.7,658.153,180.816,658.117,180.381Z" fill="url(#linear-gradient)"/>
      <path id="Path_390" data-name="Path 390" d="M669.136,196.655a28.793,28.793,0,0,0-1.622-7.088c-.056-.43-.328-.242-.558-.2-2.524.454-5.05.9-7.572,1.359-1.317.242-1.248-.019-1.112,1.449a25.617,25.617,0,0,1-.516,8.064c-1.337,5.924-5.006,9.867-10.475,12.18-4.749,2.008-9.838,2.4-14.91,2.736-2.978.2-5.967.246-8.952.181-.72-.016-.95.249-1.084.889a56.461,56.461,0,0,0-.946,6.3,27.751,27.751,0,0,0-.219,4.766c-.128,1.8,0,3.591.035,5.387a1.277,1.277,0,0,0,.988,1.375,35.147,35.147,0,0,0,15.923,1.82,34.171,34.171,0,0,0,17.505-7.136,35.577,35.577,0,0,0,11.821-16.3A35.012,35.012,0,0,0,669.136,196.655Z" transform="translate(-8.692 -7.743)" fill="url(#linear-gradient)"/>
    </g>
  </g>
</svg>
