<svg xmlns="http://www.w3.org/2000/svg" xmlns:xlink="http://www.w3.org/1999/xlink" width="88" height="88" viewBox="0 0 88 88">
  <defs>
    <linearGradient id="linear-gradient" x2="1.031" y2="1.038" gradientUnits="objectBoundingBox">
      <stop offset="0" stop-color="#7b7b7b"/>
      <stop offset="1" stop-color="#0c0f60"/>
    </linearGradient>
  </defs>
  <g id="tech-framework" transform="translate(12454 -10519.969)">
    <path id="Path_12036" data-name="Path 12036" d="M44,0A44,44,0,1,1,0,44,44,44,0,0,1,44,0Z" transform="translate(-12454 10519.969)" fill="rgba(255,255,255,0)"/>
    <path id="Path_12054" data-name="Path 12054" d="M25.881,26.518a5.519,5.519,0,0,0,4.129-1.73,5.93,5.93,0,0,0,0-8.259,5.794,5.794,0,0,0-8.259,0,5.93,5.93,0,0,0,0,8.259A5.519,5.519,0,0,0,25.881,26.518ZM38.27,22.277l3.571,2.79a.632.632,0,0,1,.112,1l-3.237,5.8a.937.937,0,0,1-1.116.335l-4.129-1.674a11.578,11.578,0,0,1-2.79,1.674l-.67,4.353a.763.763,0,0,1-.781.781h-6.7q-.67,0-.781-.781l-.67-4.353a15.406,15.406,0,0,1-2.79-1.674L14.163,32.21a.87.87,0,0,1-.614,0,.706.706,0,0,1-.391-.335l-3.348-5.8a.7.7,0,0,1,.223-1l3.46-2.79L13.381,20.6l.112-1.562-3.46-2.79a.819.819,0,0,1-.223-1.116l3.348-5.692A.677.677,0,0,1,13.549,9a.87.87,0,0,1,.614,0l4.129,1.786a12.581,12.581,0,0,1,2.79-1.674l.67-4.464a.716.716,0,0,1,.781-.67h6.7a.757.757,0,0,1,.558.223.643.643,0,0,1,.223.446l.67,4.464a9.936,9.936,0,0,1,2.79,1.674L37.6,9a.9.9,0,0,1,1.116.446l3.237,5.692a.742.742,0,0,1-.112,1.116L38.27,19.04l.112,1.563ZM4.006,1.741A3.563,3.563,0,0,0,6.629.681a3.563,3.563,0,0,0,1.06-2.623,3.751,3.751,0,0,0-1.06-2.679A3.473,3.473,0,0,0,4.006-5.737,3.653,3.653,0,0,0,1.328-4.621,3.653,3.653,0,0,0,.212-1.942,3.473,3.473,0,0,0,1.328.681,3.751,3.751,0,0,0,4.006,1.741ZM11.93-.937,14.274.848a.558.558,0,0,1,0,.67L12.154,5.2a.441.441,0,0,1-.67.223l-2.679-1-1.674,1-.446,2.9a.527.527,0,0,1-.558.446H1.886q-.558,0-.558-.446l-.446-2.9L-.9,4.42l-2.679,1a.441.441,0,0,1-.67-.223L-6.373,1.518a.486.486,0,0,1,.112-.67L-4.029-.937V-3.058L-6.262-4.844q-.335-.223-.112-.67L-4.253-9.2a.441.441,0,0,1,.67-.223l2.679,1,1.786-1,.446-2.79q0-.446.558-.446H6.127a.527.527,0,0,1,.558.446l.446,2.79,1.674,1,2.679-1a.441.441,0,0,1,.67.223l2.121,3.683q.223.446,0,.67L11.93-3.058l.112,1.116Z" transform="translate(-12428 10552)" fill="url(#linear-gradient)"/>
  </g>
</svg>
