<?xml version="1.0" encoding="utf-8"?>
<!-- Generator: Adobe Illustrator 22.0.1, SVG Export Plug-In . SVG Version: 6.00 Build 0)  -->
<svg version="1.1" id="Layer_1" xmlns="http://www.w3.org/2000/svg" xmlns:xlink="http://www.w3.org/1999/xlink" x="0px" y="0px"
	 width="88px" height="88px" viewBox="0 0 88 88" style="enable-background:new 0 0 88 88;" xml:space="preserve">
<style type="text/css">
	.st0{fill:none;}
	.st1{fill:url(#SVGID_1_);}
</style>
<g transform="translate(-971 -3299)">
	<path class="st0" d="M1015,3299c24.3,0,44,19.7,44,44s-19.7,44-44,44s-44-19.7-44-44S990.7,3299,1015,3299z"/>
	
		<linearGradient id="SVGID_1_" gradientUnits="userSpaceOnUse" x1="-101.4859" y1="8357.084" x2="-100.4549" y2="8356.0459" gradientTransform="matrix(66 0 0 -8.5811 7681 75051.4219)">
		<stop  offset="0" style="stop-color:#087BE2"/>
		<stop  offset="1" style="stop-color:#0C0F60"/>
	</linearGradient>
	<path class="st1" d="M1010.5,3344.5h4.4l-2.3-3.7l-4.2,6.7h-1.9l5.1-8.1c0.2-0.3,0.6-0.5,1-0.5c0.4,0,0.8,0.2,1,0.5l5.2,8.1h-1.9
		l-0.9-1.5h-4.4L1010.5,3344.5L1010.5,3344.5z M1030.5,3346v-7h-1.6v7.7c0,0.2,0.1,0.4,0.2,0.6c0.2,0.2,0.4,0.2,0.6,0.2h7.5l1-1.5
		L1030.5,3346L1030.5,3346z M1003.5,3344.7c1.6,0,2.9-1.3,2.9-2.9s-1.3-2.9-2.9-2.9l0,0h-7.2v8.5h1.6v-7h5.4c0.8,0,1.4,0.6,1.4,1.4
		c0,0.8-0.6,1.4-1.4,1.4l-4.6,0l4.9,4.3h2.4l-3.3-2.8H1003.5z M986.2,3347.5c-2.3,0-4.2-1.9-4.2-4.2s1.9-4.2,4.2-4.2h4.9
		c2.3,0,4.2,1.9,4.2,4.2s-1.9,4.2-4.2,4.2H986.2z M991.1,3346c1.5,0,2.8-1.2,2.8-2.8s-1.2-2.8-2.8-2.8h-4.7c-1.5,0-2.8,1.2-2.8,2.8
		s1.2,2.8,2.8,2.8H991.1z M1022.1,3347.5c-2.3,0-4.2-1.9-4.2-4.2s1.9-4.2,4.2-4.2h5.9l-1,1.5h-4.8c-1.5,0-2.8,1.2-2.8,2.8
		s1.2,2.8,2.8,2.8l0,0h5.9l-1,1.5H1022.1z M1042.1,3346c-1.2,0-2.3-0.8-2.6-2h7l1-1.5h-7.9c0.3-1.2,1.4-2,2.6-2h4.8l1-1.5h-5.9
		c-2.3,0-4.2,1.9-4.2,4.2s1.9,4.2,4.2,4.2h5l1-1.5L1042.1,3346L1042.1,3346z"/>
</g>
</svg>
