<?xml version="1.0" encoding="utf-8"?>
<!-- Generator: Adobe Illustrator 22.0.1, SVG Export Plug-In . SVG Version: 6.00 Build 0)  -->
<svg version="1.1" id="Layer_1" xmlns="http://www.w3.org/2000/svg" xmlns:xlink="http://www.w3.org/1999/xlink" x="0px" y="0px"
	 width="88px" height="88px" viewBox="0 0 88 88" style="enable-background:new 0 0 88 88;" xml:space="preserve">
<style type="text/css">
	.st0{fill:none;}
	.st1{fill:url(#SVGID_1_);}
</style>
<circle class="st0" cx="44" cy="44" r="44"/>
<linearGradient id="SVGID_1_" gradientUnits="userSpaceOnUse" x1="-1069.1528" y1="5609.0005" x2="-1068.1218" y2="5607.9624" gradientTransform="matrix(54.8706 0 0 -53.7851 58681.6836 301697.5938)">
	<stop  offset="0" style="stop-color:#087BE2"/>
	<stop  offset="1" style="stop-color:#0C0F60"/>
</linearGradient>
<path class="st1" d="M16.5,17.1l47,49.8c0.9,0.6,2.1,0.6,2.8-0.2c0.7-0.7,0.8-1.8,0.3-2.6L16.5,17.1z M31.4,21.8l35.8,38.6
	c0.9,0.6,2.1,0.6,2.8-0.2c0.7-0.7,0.8-1.8,0.3-2.6L31.4,21.8z M21,31.9l35.8,38.6c0.9,0.6,2.1,0.6,2.8-0.2c0.7-0.7,0.8-1.8,0.3-2.6
	L21,31.9z M44,25.8l25,27c0.6,0.4,1.4,0.4,2-0.1c0.5-0.5,0.6-1.3,0.2-1.8L44,25.8L44,25.8z M24.4,43.5l25,27c0.6,0.4,1.4,0.4,2-0.1
	c0.5-0.5,0.6-1.3,0.2-1.8L24.4,43.5z M56.9,31.7l11.3,12.3c0.3,0.2,0.7,0.2,1-0.1c0.2-0.2,0.3-0.6,0.1-0.9L56.9,31.7z M30.7,55.9
	L42,68.2c0.3,0.2,0.7,0.2,1-0.1c0.2-0.2,0.3-0.6,0.1-0.9L30.7,55.9z"/>
</svg>
