<svg xmlns="http://www.w3.org/2000/svg" xmlns:xlink="http://www.w3.org/1999/xlink" width="88" height="88" viewBox="0 0 88 88">
  <defs>
    <linearGradient id="linear-gradient" x2="1.031" y2="1.038" gradientUnits="objectBoundingBox">
      <stop offset="0" stop-color="#087be2"/>
      <stop offset="1" stop-color="#0c0f60"/>
    </linearGradient>
  </defs>
  <g id="tech-thymeleaf" transform="translate(-550 -3523)">
    <path id="Path_379" data-name="Path 379" d="M44,0A44,44,0,1,1,0,44,44,44,0,0,1,44,0Z" transform="translate(550 3523)" fill="rgba(0,29,255,0)"/>
    <g id="Group_4701" data-name="Group 4701" transform="translate(137.018 3753.249)">
      <path id="Path_391" data-name="Path 391" d="M481.886-206.717a3.472,3.472,0,0,0-3.418-2.532h-.073q-21.412,0-42.824,0a3.493,3.493,0,0,0-3.4,2.226,3.137,3.137,0,0,0-.177,1q-.013,19.448-.006,38.9a3.318,3.318,0,0,0,3.061,3.18,1.155,1.155,0,0,1,.161.044h43.543l.4-.082a3.334,3.334,0,0,0,2.782-2.7.95.95,0,0,1,.049-.146v-39.5C481.95-206.459,481.917-206.588,481.886-206.717Zm-37.968,28.288-.04.013c-.066-.114-.137-.227-.2-.344a7.506,7.506,0,0,1-.764-5.178,6.633,6.633,0,0,1,3.535-4.373,25.562,25.562,0,0,1,4.5-1.876l.589-.2q.587-.2,1.169-.415t1.158-.433q.864-.332,1.715-.685l.566-.238q.565-.24,1.124-.489t1.113-.507q.554-.258,1.1-.525t1.091-.544a71.8,71.8,0,0,0,6.319-3.634q.766-.494,1.52-1.007c.789-.537,1.574-1.079,2.376-1.609-.034.039-.065.08-.1.116a90.466,90.466,0,0,1-8.413,7.272q-.522.4-1.05.793-.792.59-1.6,1.166-2.682,1.921-5.5,3.7-2.227,1.409-4.444,2.83-.738.475-1.473.954a19.331,19.331,0,0,0-3.228,2.64,3.812,3.812,0,0,0-1.057,2.429C443.924-178.526,443.921-178.477,443.917-178.428Zm30.519-24.332-1.318,2.545q-1.318,2.545-2.638,5.089-.66,1.272-1.323,2.543-.608,1.167-1.239,2.323-.158.289-.319.577-.321.576-.65,1.147c-.659,1.142-1.349,2.27-2.081,3.376q-.549.83-1.132,1.643-.233.324-.468.647l-.236.322q-.237.321-.478.64t-.488.633q-.247.315-.5.625-.508.62-1.048,1.218-.407.448-.838.879a18.482,18.482,0,0,1-1.852,1.631l-.179.134q-.54.4-1.117.75-.482.291-.992.542-.2.1-.414.194a12.246,12.246,0,0,1-1.532.565,8.293,8.293,0,0,1-7.543-1.153,2.858,2.858,0,0,1-.463-4.375,19.257,19.257,0,0,1,3.975-3.2c2.168-1.388,4.362-2.743,6.517-4.147q.462-.3.921-.605.489-.324.975-.653,3.882-2.63,7.478-5.557,3.138-2.568,6.016-5.4.183-.181.364-.363.362-.365.717-.735t.708-.742c.353-.372.706-.744,1.062-1.114l.128-.13.047.019C474.476-202.851,474.459-202.8,474.437-202.761Z" stroke="rgba(0,0,0,0)" stroke-width="1" fill="url(#linear-gradient)"/>
    </g>
  </g>
</svg>
