<?xml version="1.0" encoding="utf-8"?>
<!-- Generator: Adobe Illustrator 22.0.1, SVG Export Plug-In . SVG Version: 6.00 Build 0)  -->
<svg version="1.1" id="Layer_1" xmlns="http://www.w3.org/2000/svg" xmlns:xlink="http://www.w3.org/1999/xlink" x="0px" y="0px"
	 width="88px" height="88px" viewBox="0 0 88 88" style="enable-background:new 0 0 88 88;" xml:space="preserve">
<style type="text/css">
	.st0{fill:none;}
	.st1{fill:url(#cordova_1_);}
</style>
<g id="tech-cordova" transform="translate(12166 -9659)">
	<path id="Path_12046" class="st0" d="M-12122,9659c24.3,0,44,19.7,44,44c0,24.3-19.7,44-44,44s-44-19.7-44-44
		C-12166,9678.7-12146.3,9659-12122,9659z"/>
	
		<linearGradient id="cordova_1_" gradientUnits="userSpaceOnUse" x1="-13233.0322" y1="15253.5029" x2="-13232.002" y2="15252.4648" gradientTransform="matrix(49.5 0 0 -47.25 642886.75 730409.125)">
		<stop  offset="0" style="stop-color:#087BE2"/>
		<stop  offset="1" style="stop-color:#0C0F60"/>
	</linearGradient>
	<path id="cordova" class="st1" d="M-12101.8,9726.9h-8l0.6-6.8h-3.9l-0.6,6.8h-16.6l-0.6-6.8h-3.9l0.6,6.8h-8l-4.5-29.2l11.2-18h27
		l11.2,18L-12101.8,9726.9z M-12110.8,9688.6h-7.2l0.5,3.4h-9l0.5-3.4h-7.2l-4.5,9l2.2,18h27l2.2-18L-12110.8,9688.6z
		 M-12114.7,9709.7c-0.6,0-1.1-1.9-1.1-4.2c0-2.3,0.5-4.2,1.1-4.2s1.1,1.9,1.1,4.2C-12113.6,9707.8-12114.1,9709.7-12114.7,9709.7z
		 M-12128.9,9710c-0.6,0-1.1-1.9-1.1-4.2c0-2.3,0.5-4.2,1.1-4.2s1.1,1.9,1.1,4.2C-12127.8,9708.1-12128.3,9710-12128.9,9710
		L-12128.9,9710z"/>
</g>
</svg>
