<?xml version="1.0" encoding="utf-8"?>
<!-- Generator: Adobe Illustrator 22.0.1, SVG Export Plug-In . SVG Version: 6.00 Build 0)  -->
<svg version="1.1" id="Layer_1" xmlns="http://www.w3.org/2000/svg" xmlns:xlink="http://www.w3.org/1999/xlink" x="0px" y="0px"
	 width="88px" height="88px" viewBox="0 0 88 88" style="enable-background:new 0 0 88 88;" xml:space="preserve">
<style type="text/css">
	.st0{fill:none;}
	.st1{fill:url(#SVGID_1_);}
	.st2{fill:url(#SVGID_2_);}
</style>
<g transform="translate(-1115 -3073)">
	<circle class="st0" cx="1159" cy="3117" r="44"/>
	<g transform="translate(1125.638 3105.102)">
		
			<linearGradient id="SVGID_1_" gradientUnits="userSpaceOnUse" x1="-1072.3492" y1="5440.3901" x2="-1071.3182" y2="5439.3521" gradientTransform="matrix(40.0549 0 0 -23.3218 42956.918 126877.2734)">
			<stop  offset="0" style="stop-color:#087BE2"/>
			<stop  offset="1" style="stop-color:#0C0F60"/>
		</linearGradient>
		<path class="st1" d="M4.7,7.1C4.6,7.1,4.6,7,4.6,6.9l0.6-0.8C5.3,6,5.5,5.9,5.6,5.9h10.9c0.1,0,0.2,0.1,0.1,0.2L16,6.9
			C16,7,15.8,7.1,15.7,7.1L4.7,7.1z M0.1,9.9C0,9.9,0,9.8,0,9.7l0.6-0.8C0.8,8.8,0.9,8.7,1,8.7h13.9c0.1,0,0.1,0,0.2,0.1
			c0,0,0,0,0,0.1l-0.2,0.7c0,0.1-0.2,0.2-0.3,0.2L0.1,9.9z M7.5,12.7c-0.1,0-0.2-0.1-0.1-0.2l0.4-0.8c0.1-0.1,0.2-0.2,0.3-0.2h6.1
			c0.1,0,0.2,0.1,0.2,0.2l-0.1,0.7c0,0.1-0.1,0.2-0.2,0.2L7.5,12.7z M39.1,6.5c-1.9,0.5-3.2,0.9-5.1,1.3C33.5,8,33.5,8,33.1,7.6
			c-0.4-0.5-0.9-0.9-1.4-1.2c-1.8-0.9-3.9-0.7-5.5,0.5c-2,1.2-3.2,3.4-3.1,5.8c0,2.4,1.7,4.4,4.1,4.8c2,0.3,3.9-0.5,5.2-2
			c0.3-0.3,0.5-0.7,0.8-1.1h-5.9c-0.6,0-0.8-0.4-0.6-0.9c0.4-0.9,1.1-2.5,1.6-3.3c0.1-0.3,0.4-0.5,0.8-0.5h11.1
			C40,10.4,40,11.2,39.9,12c-0.3,2.2-1.2,4.2-2.5,6c-2,2.8-5.2,4.7-8.7,5.2c-2.9,0.5-5.8-0.3-8.2-2c-2.2-1.6-3.6-4.1-3.9-6.8
			c-0.4-3.2,0.6-6.4,2.6-8.9c2.1-2.8,5.1-4.7,8.5-5.3c2.8-0.6,5.7-0.1,8.1,1.5c1.6,1,2.8,2.5,3.5,4.3C39.5,6.3,39.4,6.4,39.1,6.5z"
			/>
		
			<linearGradient id="SVGID_2_" gradientUnits="userSpaceOnUse" x1="-1054.6868" y1="5437.8965" x2="-1053.6558" y2="5436.8584" gradientTransform="matrix(24.2279 0 0 -23.0924 25591.1289 125574.1172)">
			<stop  offset="0" style="stop-color:#087BE2"/>
			<stop  offset="1" style="stop-color:#0C0F60"/>
		</linearGradient>
		<path class="st2" d="M49.1,23.3c-2.7,0-5.3-0.9-7.4-2.7c-1.8-1.5-2.9-3.6-3.3-5.9c-0.5-3.3,0.4-6.6,2.5-9.2c2-2.8,5.1-4.6,8.5-5.1
			c3-0.7,6.1-0.1,8.7,1.6c2.4,1.5,3.9,4,4.3,6.8c0.6,3.8-0.7,7.7-3.5,10.3c-2,2-4.5,3.4-7.3,3.9C50.7,23.2,49.9,23.2,49.1,23.3z
			 M56.4,11.1c0-0.3,0-0.7-0.1-1c-0.4-2.7-3-4.6-5.8-4.1c-0.2,0-0.3,0.1-0.4,0.1c-2.7,0.5-4.8,2.6-5.3,5.3c-0.6,2.3,0.6,4.8,2.8,5.7
			c1.6,0.7,3.4,0.7,5-0.2C54.8,15.8,56.3,13.6,56.4,11.1L56.4,11.1z"/>
	</g>
</g>
</svg>
