<svg xmlns="http://www.w3.org/2000/svg" xmlns:xlink="http://www.w3.org/1999/xlink" width="88" height="88" viewBox="0 0 88 88">
  <defs>
    <linearGradient id="linear-gradient" x2="1.031" y2="1.038" gradientUnits="objectBoundingBox">
      <stop offset="0" stop-color="#087be2"/>
      <stop offset="1" stop-color="#0c0f60"/>
    </linearGradient>
  </defs>
  <g id="tech-restful-api" transform="translate(-660 -3523)">
    <path id="Path_379" data-name="Path 379" d="M44,0A44,44,0,1,1,0,44,44,44,0,0,1,44,0Z" transform="translate(660 3523)" fill="rgba(0,29,255,0)"/>
    <g id="Group_4702" data-name="Group 4702" transform="translate(86.079 2821.012)">
      <path id="Path_392" data-name="Path 392" d="M600.271,753.034c.012-.365-.089-.539-.488-.506-.351.029-.709-.019-1.06.012-.434.038-.576-.114-.567-.555.027-1.3-.039-2.612.024-3.914a2.393,2.393,0,0,0-1.607-2.756,2.3,2.3,0,0,0,1.607-2.537c-.061-1.344.01-2.693-.026-4.038-.014-.522.145-.664.662-.655,1.458.026,1.442,0,1.459-1.45.006-.465-.086-.692-.612-.638-.453.047-.915.007-1.373.01a2.08,2.08,0,0,0-2.227,2.216c0,1.346.014,2.693-.013,4.039a1.982,1.982,0,0,1-1.87,1.965c-1.249.124-1.222.125-1.257,1.423-.015.542.128.7.688.7a2.213,2.213,0,0,1,2.466,2.567c-.067,1.177-.017,2.36-.012,3.541a2.041,2.041,0,0,0,1.477,2.063l0,.126h2.75C600.281,754.109,600.253,753.571,600.271,753.034Z" stroke="rgba(0,0,0,0)" stroke-width="1" fill="url(#linear-gradient)"/>
      <path id="Path_393" data-name="Path 393" d="M940.118,744.361l-.624-.019a2.174,2.174,0,0,1-2.4-2.444c0-1.223,0-2.446,0-3.669a2.07,2.07,0,0,0-2.143-2.176c-.5-.007-1,.024-1.5-.009-.435-.029-.569.116-.568.556,0,1.526-.016,1.55,1.507,1.528.521-.008.62.175.612.642-.026,1.513,0,3.026-.014,4.539a2.066,2.066,0,0,0,.929,1.735c.171.131.431.126.572.356a2.205,2.205,0,0,0-1.508,2.4c.053,1.034.024,2.073.006,3.109-.009.532.228,1.2-.109,1.559-.319.338-.989.105-1.5.1-.4,0-.5.142-.49.51.018.537-.01,1.076-.018,1.614h2.625a.428.428,0,0,1,.018-.107,2.016,2.016,0,0,0,1.581-2.037c.008-1.222,0-2.443,0-3.665,0-1.65.686-2.378,2.343-2.5.228-.016.457-.017.685-.024h0l.061,0,.061-.009v-1.991A.283.283,0,0,0,940.118,744.361Z" transform="translate(-297.319 -0.045)" stroke="rgba(0,0,0,0)" stroke-width="1" fill="url(#linear-gradient)"/>
      <path id="Path_394" data-name="Path 394" d="M666.032,791.971c-.126-.216-.105-.326.106-.495a1.589,1.589,0,0,0,.637-1.9,1.644,1.644,0,0,0-1.657-1.079c-.582-.018-1.165.013-1.746-.01-.352-.014-.479.1-.469.458.021.744.006,1.49.006,2.235s.011,1.49,0,2.235c-.007.355.024.572.49.57s.512-.2.489-.564a5.257,5.257,0,0,1,0-.93c.026-.224-.194-.609.261-.624.361-.012.785-.177,1,.354.213.514.521.987.773,1.486.224.445.662.322.926.221.369-.142-.006-.407-.087-.585C666.549,792.869,666.291,792.418,666.032,791.971Zm-.182-1.494a.8.8,0,0,1-.646.6c-1.058.265-1.333.052-1.326-1.037.006-.893-.117-.8.857-.806a1.127,1.127,0,0,1,.912.258A.987.987,0,0,1,665.85,790.477Z" transform="translate(-61.206 -45.912)" stroke="rgba(0,0,0,0)" stroke-width="1" fill="url(#linear-gradient)"/>
      <path id="Path_395" data-name="Path 395" d="M737.6,790.133c-.452-.208-.928-.362-1.387-.556a.714.714,0,0,1-.509-.825.794.794,0,0,1,.814-.645c.507-.03.97.066,1.137.641.143.492.558.35.823.271.343-.1.141-.414.047-.622a2.2,2.2,0,0,0-3.193-.659,1.385,1.385,0,0,0-.04,2.284,2.924,2.924,0,0,0,.939.477c.354.12.706.248,1.047.4a.693.693,0,0,1,.4.773.664.664,0,0,1-.554.59,1.209,1.209,0,0,1-1.578-.688c-.21-.462-.59-.248-.853-.2-.3.054-.093.349-.035.514a2.074,2.074,0,0,0,2.08,1.188c.083,0,.167,0,.25,0a1.672,1.672,0,0,0,1.652-1.176A1.5,1.5,0,0,0,737.6,790.133Z" transform="translate(-123.853 -44.899)" stroke="rgba(0,0,0,0)" stroke-width="1" fill="url(#linear-gradient)"/>
      <path id="Path_396" data-name="Path 396" d="M823.2,788.827c-.111-.3-.3-.343-.577-.341s-.489.027-.568.344a5.889,5.889,0,0,1-.235.641c-.508,1.336-1.021,2.669-1.516,4.009-.051.139-.271.328.005.473.321.168.891-.026.946-.383.12-.782.588-.948,1.272-.848a1.019,1.019,0,0,0,.312,0c.633-.106,1.034.094,1.134.778.044.3.184.566.566.463.318.012.648.068.454-.433Q824.083,791.183,823.2,788.827Zm-.925,1.845c.1-.29.2-.579.349-1l.787,2.26C821.806,792.053,821.806,792.053,822.275,790.672Z" transform="translate(-198.757 -45.915)" stroke="rgba(0,0,0,0)" stroke-width="1" fill="url(#linear-gradient)"/>
      <path id="Path_397" data-name="Path 397" d="M866.693,788.493c-.643-.028-1.288.012-1.931-.013-.376-.015-.453.151-.446.479.016.744.005,1.488.005,2.232s.013,1.488-.006,2.232c-.01.372.058.553.5.556.477,0,.474-.235.477-.576,0-.45-.192-1.017.085-1.319s.863-.082,1.312-.111a1.648,1.648,0,0,0,1.741-1.7A1.675,1.675,0,0,0,866.693,788.493Zm-.028,2.726a.646.646,0,0,1-.187,0c-.383-.051-1,.191-1.1-.119a3.533,3.533,0,0,1-.037-1.711c.061-.343.512-.074.682-.144a3.5,3.5,0,0,1,.711.008.939.939,0,0,1,.781,1.044A.906.906,0,0,1,866.665,791.219Z" transform="translate(-237.365 -45.909)" stroke="rgba(0,0,0,0)" stroke-width="1" fill="url(#linear-gradient)"/>
      <path id="Path_398" data-name="Path 398" d="M705.4,793.208c-.333.012-.666,0-1,0-1.343,0-1.343,0-1.261-1.33a.378.378,0,0,0,0-.062c-.028-.278.118-.357.373-.352.5.01,1-.01,1.5.006.3.01.4-.112.393-.4s-.122-.357-.38-.352c-.478.011-.958-.017-1.435.009-.363.019-.488-.123-.453-.467a2.508,2.508,0,0,0,0-.558c-.05-.4.136-.5.5-.48.561.024,1.124,0,1.686.008.245,0,.442,0,.449-.343s-.143-.414-.448-.41c-.874.014-1.749.022-2.622,0-.4-.012-.5.145-.484.508.021.724.006,1.45.006,2.175,0,.787.009,1.574,0,2.361-.005.307.081.45.42.444.915-.017,1.831-.014,2.747,0,.3,0,.4-.113.392-.4S705.658,793.2,705.4,793.208Z" transform="translate(-95.594 -45.905)" stroke="rgba(0,0,0,0)" stroke-width="1" fill="url(#linear-gradient)"/>
      <path id="Path_399" data-name="Path 399" d="M774.547,789.256c.256-.01.379-.08.382-.355s-.09-.407-.395-.4c-1.207.012-2.415.01-3.623,0-.273,0-.426.055-.426.373s.134.4.417.381c.207-.014.419.021.624-.007.521-.071.763.076.7.659a16.394,16.394,0,0,0-.012,1.677c0,.6.013,1.2,0,1.8-.011.367,0,.613.5.612.54,0,.48-.306.479-.643,0-.87-.012-1.741,0-2.611.008-.471-.192-1.046.094-1.385C773.546,789.056,774.116,789.272,774.547,789.256Z" transform="translate(-155.301 -45.925)" stroke="rgba(0,0,0,0)" stroke-width="1" fill="url(#linear-gradient)"/>
      <path id="Path_400" data-name="Path 400" d="M905.3,788.46c-.325,0-.487.062-.482.44q.028,2.321,0,4.643c-.005.411.219.4.51.409.324.01.5-.056.488-.437-.024-.783-.007-1.568-.007-2.352,0-.743-.02-1.487.008-2.229C905.835,788.528,905.657,788.455,905.3,788.46Z" transform="translate(-272.792 -45.892)" stroke="rgba(0,0,0,0)" stroke-width="1" fill="url(#linear-gradient)"/>
      <path id="Path_401" data-name="Path 401" d="M802.923,810.344c-.435.014-.871.013-1.306,0-.287-.009-.339.139-.341.383s.083.385.357.368c.206-.013.414,0,.622,0,.228,0,.457-.011.684,0,.291.018.335-.141.338-.383C803.28,810.456,803.2,810.335,802.923,810.344Z" transform="translate(-182.23 -65.032)" stroke="rgba(0,0,0,0)" stroke-width="1" fill="url(#linear-gradient)"/>
    </g>
  </g>
</svg>
