<?xml version="1.0" encoding="utf-8"?>
<!-- Generator: Adobe Illustrator 22.0.1, SVG Export Plug-In . SVG Version: 6.00 Build 0)  -->
<svg version="1.1" id="Layer_1" xmlns="http://www.w3.org/2000/svg" xmlns:xlink="http://www.w3.org/1999/xlink" x="0px" y="0px"
	 width="88px" height="88px" viewBox="0 0 88 88" style="enable-background:new 0 0 88 88;" xml:space="preserve">
<style type="text/css">
	.st0{fill:none;}
	.st1{fill:url(#SVGID_1_);}
	.st2{fill:#FFFFFF;}
</style>
<g transform="translate(-827 -3525)">
	<path class="st0" d="M871,3525c24.3,0,44,19.7,44,44s-19.7,44-44,44s-44-19.7-44-44S846.7,3525,871,3525z"/>
	<g transform="translate(842.125 3549.063)">
		
			<linearGradient id="SVGID_1_" gradientUnits="userSpaceOnUse" x1="-1085.303" y1="5550.3604" x2="-1084.272" y2="5549.3223" gradientTransform="matrix(57.8587 0 0 -40.4212 62794.207 224352.3125)">
			<stop  offset="0" style="stop-color:#087BE2"/>
			<stop  offset="1" style="stop-color:#0C0F60"/>
		</linearGradient>
		<path class="st1" d="M24,4.4c1.9-2,4.6-3.1,7.3-3.1c3.7,0,7.1,2,8.9,5.3c1.6-0.7,3.3-1.1,5-1.1c6.9,0,12.6,5.6,12.6,12.6
			s-5.6,12.6-12.6,12.6l0,0c-0.8,0-1.6-0.1-2.5-0.2c-2.4,4.2-7.6,5.9-11.9,3.7c-2.2,5.3-8.3,7.7-13.6,5.5c-2.6-1.1-4.7-3.3-5.7-6
			c-0.7,0.1-1.3,0.2-2,0.2C4.3,33.8-0.1,29.3,0,24c0-3.4,1.9-6.6,4.8-8.3C2.4,10,5,3.4,10.7,0.9C15.4-1.1,20.9,0.3,24,4.4"/>
		<path class="st2" d="M8.4,21c0,0.1,0,0.1,0,0.1c0.1,0.1,0.2,0.1,0.3,0.2c0.5,0.3,1.1,0.4,1.7,0.4c1.2,0,1.9-0.6,1.9-1.6v0
			c0-0.9-0.8-1.3-1.6-1.5l-0.1,0c-0.6-0.2-1.1-0.4-1.1-0.7v0c0-0.3,0.3-0.6,0.8-0.6c0.5,0,1,0.1,1.5,0.4c0,0,0.1,0.1,0.2,0
			c0-0.1,0.2-0.6,0.2-0.6c0-0.1,0-0.1-0.1-0.1c-0.5-0.3-1.1-0.5-1.7-0.5h-0.1c-0.9-0.1-1.7,0.5-1.8,1.5c0,0,0,0.1,0,0.1v0
			c0,1,0.8,1.3,1.6,1.5l0.1,0c0.6,0.2,1.1,0.3,1.1,0.7v0c0,0.4-0.3,0.6-0.8,0.6c-0.5,0-1.1-0.1-1.5-0.4c-0.1,0-0.1-0.1-0.2-0.1
			c0,0-0.1,0-0.1,0c0,0,0,0,0,0L8.4,21z M25.7,21c0,0.1,0,0.1,0,0.1c0.1,0.1,0.2,0.1,0.3,0.2c0.5,0.3,1.1,0.4,1.7,0.4
			c1.2,0,1.9-0.6,1.9-1.6v0c0-0.9-0.8-1.3-1.6-1.5l-0.1,0c-0.6-0.2-1.1-0.4-1.1-0.7v0c0-0.3,0.3-0.6,0.8-0.6c0.5,0,1,0.1,1.5,0.4
			c0,0,0.1,0.1,0.2,0c0-0.1,0.2-0.6,0.2-0.6c0-0.1,0-0.1-0.1-0.1c-0.5-0.3-1.1-0.5-1.7-0.5h-0.1c-0.9-0.1-1.7,0.5-1.8,1.5
			c0,0,0,0.1,0,0.1v0c0,1,0.8,1.3,1.6,1.5l0.1,0c0.6,0.2,1.1,0.3,1.1,0.7v0c0,0.4-0.3,0.6-0.8,0.6c-0.5,0-1.1-0.1-1.5-0.4
			c-0.1,0-0.1-0.1-0.2-0.1c0,0-0.1,0-0.1,0c0,0,0,0,0,0L25.7,21z M37.5,19c0,0.5-0.1,0.9-0.3,1.3c-0.2,0.3-0.6,0.5-1,0.5
			c-0.4,0-0.7-0.2-1-0.5c-0.4-0.8-0.4-1.8,0-2.7c0.2-0.3,0.6-0.5,1-0.5c0.4,0,0.7,0.1,1,0.5C37.5,18,37.6,18.5,37.5,19 M38.5,17.9
			c-0.1-0.3-0.2-0.6-0.4-0.9c-0.2-0.2-0.5-0.4-0.8-0.6c-0.7-0.3-1.4-0.3-2.1,0c-0.3,0.1-0.6,0.3-0.8,0.6c-0.2,0.3-0.4,0.5-0.4,0.9
			c-0.2,0.7-0.2,1.4,0,2.1c0.1,0.3,0.2,0.6,0.5,0.9c0.2,0.2,0.5,0.4,0.8,0.6c0.7,0.3,1.4,0.3,2.1,0c0.3-0.1,0.6-0.3,0.8-0.6
			c0.2-0.3,0.4-0.5,0.4-0.9C38.7,19.3,38.7,18.6,38.5,17.9 M46.7,20.6c0,0-0.1-0.1-0.1-0.1c0,0,0,0,0,0c-0.1,0.1-0.3,0.1-0.5,0.1
			c-0.2,0-0.4,0-0.5,0c-0.4,0-0.8-0.1-1.1-0.4c-0.3-0.4-0.5-0.9-0.4-1.4c0-0.5,0.1-0.9,0.4-1.3c0.3-0.3,0.7-0.5,1.1-0.5
			c0.4,0,0.7,0,1,0.1c0,0,0.1,0,0.1-0.1c0.1-0.2,0.2-0.4,0.2-0.7c0,0,0-0.1-0.1-0.1c0,0,0,0,0,0c-0.2-0.1-0.4-0.1-0.7-0.2
			c-0.2,0-0.5-0.1-0.7,0c-0.4,0-0.8,0.1-1.1,0.2c-0.3,0.1-0.6,0.3-0.8,0.6c-0.2,0.3-0.4,0.5-0.5,0.9c-0.1,0.3-0.2,0.7-0.2,1.1
			c0,0.7,0.2,1.4,0.7,2c0.5,0.5,1.2,0.8,2,0.7c0.5,0,1-0.1,1.4-0.2c0,0,0.1-0.1,0-0.1L46.7,20.6z M48.4,18.4c0-0.3,0.1-0.5,0.3-0.8
			c0.2-0.3,0.6-0.5,1-0.5c0.4,0,0.7,0.2,0.9,0.5c0.1,0.2,0.2,0.5,0.2,0.8H48.4z M51.7,17.7c-0.1-0.3-0.2-0.6-0.4-0.8
			c-0.2-0.2-0.4-0.4-0.6-0.5c-0.3-0.1-0.6-0.2-1-0.2c-0.4,0-0.8,0.1-1.1,0.2c-0.3,0.1-0.6,0.3-0.8,0.6c-0.2,0.3-0.4,0.6-0.5,0.9
			c-0.1,0.3-0.1,0.7-0.1,1.1c0,0.4,0,0.7,0.2,1.1c0.2,0.7,0.7,1.2,1.3,1.4c0.4,0.1,0.8,0.2,1.2,0.2c0.6,0,1.2-0.1,1.7-0.3
			c0,0,0.1-0.1,0-0.2l-0.2-0.6c0-0.1-0.1-0.1-0.1-0.1c-0.4,0.2-0.9,0.3-1.4,0.2c-0.8,0.1-1.4-0.4-1.5-1.2c0-0.1,0-0.2,0-0.3h3.3
			c0.1,0,0.1,0,0.1-0.1C51.9,18.7,51.9,18.2,51.7,17.7 M21.6,18.4c0-0.3,0.1-0.5,0.3-0.8c0.2-0.3,0.6-0.5,1-0.5
			c0.4,0,0.7,0.2,0.9,0.5c0.1,0.2,0.2,0.5,0.2,0.8H21.6z M24.9,17.7c-0.1-0.3-0.2-0.6-0.4-0.8c-0.2-0.2-0.4-0.4-0.6-0.5
			c-0.3-0.1-0.6-0.2-1-0.2c-0.4,0-0.8,0.1-1.1,0.2c-0.3,0.1-0.6,0.3-0.8,0.6c-0.2,0.3-0.4,0.6-0.5,0.9c-0.1,0.3-0.1,0.7-0.1,1.1
			c0,0.4,0,0.7,0.2,1.1c0.2,0.7,0.7,1.2,1.3,1.4c0.4,0.1,0.8,0.2,1.2,0.2c0.6,0,1.2-0.1,1.7-0.3c0,0,0.1-0.1,0-0.2l-0.2-0.6
			c0-0.1-0.1-0.1-0.1-0.1c-0.4,0.2-0.9,0.3-1.4,0.2c-0.8,0.1-1.4-0.4-1.5-1.2c0-0.1,0-0.2,0-0.3h3.3c0.1,0,0.1,0,0.1-0.1
			C25.1,18.7,25,18.2,24.9,17.7 M14.4,20.6c-0.1-0.1-0.1-0.1-0.2-0.2c-0.1-0.1-0.1-0.3-0.1-0.4c0-0.3,0.1-0.5,0.3-0.6
			c0.3-0.2,0.6-0.3,1-0.2c0.3,0,0.6,0,0.9,0.1v1.5l0,0c-0.3,0.1-0.6,0.1-0.9,0.1C15,20.9,14.7,20.8,14.4,20.6 M15.7,18.3
			c-0.1,0-0.3,0-0.5,0c-0.3,0-0.6,0-0.8,0.1c-0.3,0.1-0.5,0.2-0.7,0.3C13.2,19,13,19.5,13,20c0,0.3,0,0.5,0.2,0.8
			c0.1,0.2,0.2,0.4,0.4,0.5c0.2,0.1,0.4,0.2,0.7,0.3c0.3,0.1,0.6,0.1,0.9,0.1c0.3,0,0.7,0,1-0.1c0.3-0.1,0.7-0.1,0.8-0.2
			c0.1,0,0.2,0,0.2-0.1c0,0,0.1-0.1,0.1-0.1v-3.1c0-0.5-0.1-1.1-0.5-1.5c-0.4-0.3-1-0.5-1.5-0.5c-0.3,0-0.6,0-0.9,0.1
			c-0.4,0.1-0.7,0.2-1,0.4c0,0-0.1,0.1,0,0.1l0.2,0.6c0,0,0.1,0.1,0.1,0.1c0,0,0,0,0,0c0,0,0,0,0.1,0c0.5-0.2,1-0.3,1.5-0.3
			c0.3,0,0.6,0.1,0.8,0.2c0.2,0.1,0.3,0.4,0.3,0.8v0.1C16,18.3,15.7,18.3,15.7,18.3 M42.7,16.5c0,0,0-0.1,0-0.1c0,0,0,0,0,0
			c-0.2-0.1-0.4-0.1-0.6-0.1c-0.3,0-0.6,0-0.9,0.1c-0.2,0.1-0.4,0.2-0.6,0.4v-0.4c0-0.1,0-0.1-0.1-0.1h0h-0.9c-0.1,0-0.1,0-0.1,0.1
			l0,0v5c0,0.1,0,0.1,0.1,0.1h0h0.9c0.1,0,0.1,0,0.1-0.1l0,0V19c0-0.3,0-0.6,0.1-0.9c0.1-0.2,0.2-0.4,0.3-0.5
			c0.1-0.1,0.3-0.2,0.4-0.2c0.1,0,0.3-0.1,0.4-0.1c0.1,0,0.2,0,0.4,0c0.1,0,0.1,0,0.1-0.1C42.5,17.1,42.6,16.6,42.7,16.5"/>
		<path class="st2" d="M34.4,14.2c-0.1,0-0.2-0.1-0.3-0.1c-0.2,0-0.3,0-0.5,0c-0.5,0-1,0.2-1.4,0.5c-0.4,0.4-0.6,1-0.7,1.5l0,0.2
			h-0.8c-0.1,0-0.1,0-0.1,0.1l-0.1,0.7c0,0.1,0,0.1,0.1,0.1h0.7l-0.8,4.2c0,0.3-0.1,0.6-0.2,0.8c-0.1,0.2-0.1,0.3-0.2,0.5
			C30.1,22.9,30,23,29.9,23c-0.1,0-0.3,0.1-0.4,0.1c-0.1,0-0.2,0-0.3,0c-0.1,0-0.1,0-0.2-0.1c0,0-0.1,0-0.1,0.1c0,0,0,0,0,0
			c0,0.1-0.2,0.6-0.2,0.7c0,0.1,0,0.1,0,0.1c0,0,0,0,0,0c0.1,0,0.2,0.1,0.3,0.1c0.2,0,0.3,0.1,0.5,0c0.3,0,0.6,0,0.8-0.1
			c0.2-0.1,0.5-0.2,0.6-0.4c0.2-0.2,0.3-0.5,0.4-0.7c0.1-0.4,0.2-0.7,0.3-1.1l0.8-4.3h1.1c0.1,0,0.1,0,0.1-0.1l0.1-0.7
			c0-0.1,0-0.1-0.1-0.1h-1.1c0-0.3,0.1-0.5,0.2-0.8c0.1-0.1,0.1-0.3,0.2-0.4c0.1-0.1,0.2-0.1,0.3-0.2c0.1,0,0.2-0.1,0.4-0.1
			c0.1,0,0.2,0,0.3,0c0.1,0,0.1,0,0.2,0c0.1,0,0.1,0,0.1-0.1l0.3-0.7C34.5,14.3,34.5,14.2,34.4,14.2C34.4,14.2,34.4,14.2,34.4,14.2
			 M19.5,21.5c0,0.1,0,0.1-0.1,0.1l0,0h-0.9c-0.1,0-0.1,0-0.1-0.1v0v-7.1c0-0.1,0-0.1,0.1-0.1l0,0h0.9c0.1,0,0.1,0,0.1,0.1v0V21.5z"
			/>
	</g>
</g>
</svg>
