<?xml version="1.0" encoding="utf-8"?>
<!-- Generator: Adobe Illustrator 22.0.1, SVG Export Plug-In . SVG Version: 6.00 Build 0)  -->
<svg version="1.1" id="Layer_1" xmlns="http://www.w3.org/2000/svg" xmlns:xlink="http://www.w3.org/1999/xlink" x="0px" y="0px"
	 width="88px" height="88px" viewBox="0 0 88 88" style="enable-background:new 0 0 88 88;" xml:space="preserve">
<style type="text/css">
	.st0{fill:none;}
	.st1{fill:url(#Path_3064_1_);}
	.st2{fill:url(#Path_3065_1_);}
	.st3{fill:url(#Path_3066_1_);}
</style>
<g id="tech-flutter" transform="translate(11590 -9659)">
	<path id="Path_12050" class="st0" d="M-11546,9659c24.3,0,44,19.7,44,44c0,24.3-19.7,44-44,44s-44-19.7-44-44
		C-11590,9678.7-11570.3,9659-11546,9659z"/>
	<g id="flutter-logo" transform="translate(-11566.992 9679.587)">
		<g id="Group_11538">
			
				<linearGradient id="Path_3064_1_" gradientUnits="userSpaceOnUse" x1="-1072.0198" y1="5412.1587" x2="-1070.9888" y2="5411.1206" gradientTransform="matrix(27.189 0 0 -20.034 29156.5859 108456.0312)">
				<stop  offset="0" style="stop-color:#087BE2"/>
				<stop  offset="1" style="stop-color:#0C0F60"/>
			</linearGradient>
			<path id="Path_3064" class="st1" d="M24.1,47.6L11.2,34.8l7.1-7.2l20.1,20H24.1z"/>
			
				<linearGradient id="Path_3065_1_" gradientUnits="userSpaceOnUse" x1="-1071.769" y1="5409.7461" x2="-1070.738" y2="5408.708" gradientTransform="matrix(27.11 0 0 -19.854 29068.5801 107425.8047)">
				<stop  offset="0" style="stop-color:#087BE2"/>
				<stop  offset="1" style="stop-color:#0C0F60"/>
			</linearGradient>
			<path id="Path_3065" class="st2" d="M11,34.8L23.8,22h14.3L18.3,41.9L11,34.8z"/>
			
				<linearGradient id="Path_3066_1_" gradientUnits="userSpaceOnUse" x1="-1083.4183" y1="5511.0767" x2="-1082.3873" y2="5510.0386" gradientTransform="matrix(38.157 0 0 -30.912 41341.8789 170356.8906)">
				<stop  offset="0" style="stop-color:#087BE2"/>
				<stop  offset="1" style="stop-color:#0C0F60"/>
			</linearGradient>
			<path id="Path_3066" class="st3" d="M0,23.7l7.2,7.2L38.2,0H23.7L0,23.7z"/>
		</g>
	</g>
</g>
</svg>
