<svg xmlns="http://www.w3.org/2000/svg" xmlns:xlink="http://www.w3.org/1999/xlink" width="88" height="88" viewBox="0 0 88 88">
  <defs>
    <linearGradient id="linear-gradient" x2="1.031" y2="1.038" gradientUnits="objectBoundingBox">
      <stop offset="0" stop-color="#087be2"/>
      <stop offset="1" stop-color="#0c0f60"/>
    </linearGradient>
  </defs>
  <g id="tech-jsp-servlet" transform="translate(-330 -3523)">
    <path id="Path_379" data-name="Path 379" d="M44,0A44,44,0,1,1,0,44,44,44,0,0,1,44,0Z" transform="translate(330 3523)" fill="rgba(0,29,255,0)"/>
    <g id="java-14" transform="translate(351.483 3536.63)">
      <path id="Path_383" data-name="Path 383" d="M60.356,236.211s-2.287,1.33,1.628,1.78a34.244,34.244,0,0,0,12.392-.526,21.572,21.572,0,0,0,3.293,1.608c-11.715,5.021-26.514-.291-17.312-2.862m-1.432-6.552s-2.565,1.9,1.352,2.3a48.343,48.343,0,0,0,15.989-.768,7.1,7.1,0,0,0,2.463,1.5c-14.165,4.142-29.942.327-19.8-3.038" transform="translate(-45.624 -189.559)" fill="url(#linear-gradient)"/>
      <path id="Path_384" data-name="Path 384" d="M131.309,87.306c2.887,3.323-.758,6.314-.758,6.314s7.33-3.784,3.964-8.522c-3.144-4.419-5.555-6.614,7.5-14.184,0,0-20.488,5.117-10.7,16.392" transform="translate(-105.94 -58.32)" fill="url(#linear-gradient)"/>
      <path id="Path_385" data-name="Path 385" d="M40.864,205.909S42.556,207.3,39,208.382c-6.762,2.049-28.146,2.667-34.086.082-2.135-.929,1.869-2.218,3.129-2.489a8.118,8.118,0,0,1,2.064-.232c-2.375-1.673-15.349,3.285-6.59,4.7,23.887,3.874,43.543-1.744,37.347-4.539M15.831,187.721s-10.877,2.584-3.852,3.521a81.684,81.684,0,0,0,14.387-.154c4.5-.379,9.021-1.187,9.021-1.187a19.1,19.1,0,0,0-2.736,1.464c-11.045,2.9-32.383,1.554-26.24-1.418a20.581,20.581,0,0,1,9.419-2.226m19.512,10.906c11.228-5.835,6.037-11.441,2.413-10.686a8.4,8.4,0,0,0-1.284.345,2.046,2.046,0,0,1,.959-.74c7.168-2.52,12.682,7.433-2.314,11.375a.973.973,0,0,0,.226-.294" transform="translate(0 -154.41)" fill="url(#linear-gradient)"/>
      <path id="Path_386" data-name="Path 386" d="M96.435.37s6.218,6.221-5.9,15.786c-9.716,7.673-2.215,12.048,0,17.046-5.671-5.117-9.833-9.621-7.041-13.814C87.59,13.234,98.944,10.251,96.435.37" transform="translate(-67.861)" fill="url(#linear-gradient)"/>
      <path id="Path_387" data-name="Path 387" d="M54.9,318.507c10.778.69,27.328-.383,27.72-5.482,0,0-.753,1.933-8.907,3.469a88.611,88.611,0,0,1-27.273.419s1.378,1.14,8.461,1.594" transform="translate(-37.965 -258.48)" fill="url(#linear-gradient)"/>
    </g>
  </g>
</svg>
