<?xml version="1.0" encoding="utf-8"?>
<!-- Generator: Adobe Illustrator 22.0.1, SVG Export Plug-In . SVG Version: 6.00 Build 0)  -->
<svg version="1.1" id="Layer_1" xmlns="http://www.w3.org/2000/svg" xmlns:xlink="http://www.w3.org/1999/xlink" x="0px" y="0px"
	 width="88px" height="88px" viewBox="0 0 88 88" style="enable-background:new 0 0 88 88;" xml:space="preserve">
<style type="text/css">
	.st0{fill:none;}
	.st1{fill:url(#SVGID_1_);}
</style>
<g transform="translate(-683 -3073)">
	<path class="st0" d="M727,3073c24.3,0,44,19.7,44,44s-19.7,44-44,44s-44-19.7-44-44S702.7,3073,727,3073z"/>
	<g transform="translate(697.438 3099.813)">
		
			<linearGradient id="SVGID_1_" gradientUnits="userSpaceOnUse" x1="-1084.9921" y1="5521.9507" x2="-1083.9611" y2="5520.9126" gradientTransform="matrix(59.0028 0 0 -34.1306 64016.957 188467.5781)">
			<stop  offset="0" style="stop-color:#087BE2"/>
			<stop  offset="1" style="stop-color:#0C0F60"/>
		</linearGradient>
		<path class="st1" d="M57.6,3.4L57.6,3.4c0.1,0,0.3-0.1,0.3-0.2C58,3.1,58,3,58,2.9c0-0.1-0.1-0.3-0.2-0.3
			c-0.2-0.1-0.3-0.2-0.6-0.2h-0.5v2H57V3.4h0.2c0.1,0,0.2,0.1,0.3,0.3l0.2,0.4h0.3l-0.2-0.3C57.8,3.7,57.7,3.5,57.6,3.4z M57.3,3.3
			H57V2.6h0.2c0.2,0,0.3,0,0.3,0.1c0.1,0.1,0.1,0.1,0.1,0.2C57.8,3.2,57.7,3.3,57.3,3.3L57.3,3.3z M57.5,1.8c-0.4,0-0.8,0.1-1.1,0.4
			c-0.3,0.3-0.5,0.7-0.4,1.1c0,0.4,0.1,0.8,0.4,1.1c0.3,0.3,0.7,0.5,1.1,0.4c0.4,0,0.8-0.1,1.1-0.4C58.9,4.1,59,3.7,59,3.3
			c0-0.4-0.1-0.8-0.4-1.1C58.2,1.9,57.9,1.8,57.5,1.8L57.5,1.8z M58.4,4.4c-0.3,0.3-0.6,0.4-1,0.4c-0.4,0-0.8-0.1-1-0.4
			c-0.3-0.3-0.4-0.6-0.4-1c0-0.4,0.1-0.8,0.4-1c0.3-0.3,0.6-0.4,1-0.4c0.4,0,0.8,0.1,1,0.4c0.3,0.3,0.4,0.6,0.4,1
			C58.8,3.8,58.7,4.1,58.4,4.4L58.4,4.4z M8,3.4V1.8l0,0C8.1,2,8.2,2.3,8.3,2.6L11.1,9h0.4l2.9-6.4c0.1-0.3,0.2-0.5,0.2-0.8l0,0
			c0,0.7-0.1,1.2-0.1,1.7v5.6h1V0.8h-1.2l-2.6,5.8c-0.1,0.2-0.2,0.6-0.4,1l0,0c-0.1-0.3-0.3-0.7-0.3-1L8.4,0.8H7v8.4h1V3.4z
			 M18.3,1.5c0.2,0,0.3-0.1,0.4-0.2c0.1-0.1,0.2-0.3,0.2-0.4c0-0.2-0.1-0.3-0.2-0.4c-0.1-0.1-0.3-0.2-0.4-0.2
			c-0.2,0-0.3,0.1-0.4,0.2c-0.1,0.1-0.2,0.3-0.2,0.4c0,0.2,0.1,0.3,0.2,0.4C17.9,1.5,18.1,1.5,18.3,1.5L18.3,1.5z M17.7,9h1V3.1h-1
			V9z M23,9.1c0.6,0,1.2-0.1,1.7-0.4V7.8c-0.4,0.3-0.9,0.5-1.4,0.6c-0.6,0-1.1-0.2-1.4-0.7c-0.4-0.5-0.6-1.1-0.6-1.7
			c0-0.6,0.2-1.3,0.6-1.8c0.4-0.5,1-0.7,1.5-0.7c0.5,0,1,0.1,1.4,0.4v-1c-0.4-0.2-0.9-0.3-1.4-0.3c-0.9,0-1.7,0.3-2.3,0.9
			c-0.6,0.7-0.9,1.5-0.9,2.4c-0.1,0.8,0.2,1.5,0.8,2.1C21.4,8.8,22.2,9.2,23,9.1L23,9.1z M27.7,3.3c-0.3,0.2-0.6,0.6-0.7,1l0,0V3.1
			h-1V9h1V5.9c0-0.6,0.1-1.2,0.4-1.7c0.2-0.3,0.6-0.6,1-0.6c0.3,0,0.5,0.1,0.8,0.2V3c-0.2,0-0.4-0.1-0.6-0.1
			C28.4,2.9,28,3.1,27.7,3.3L27.7,3.3z M32.6,9.1c0.8,0,1.6-0.3,2.2-0.9c0.6-0.6,0.8-1.5,0.8-2.3c0.1-0.8-0.2-1.7-0.8-2.3
			c-0.5-0.6-1.3-0.9-2.1-0.9c-0.8-0.1-1.6,0.2-2.2,0.8c-0.6,0.7-0.9,1.5-0.9,2.4c-0.1,0.8,0.2,1.6,0.8,2.2
			C30.9,8.8,31.7,9.2,32.6,9.1L32.6,9.1z M31.3,4.3c0.4-0.4,0.9-0.6,1.4-0.6c0.5,0,1,0.2,1.4,0.6c0.4,0.5,0.6,1.1,0.5,1.8
			c0.1,0.6-0.1,1.2-0.4,1.7c-0.3,0.5-0.9,0.7-1.4,0.7c-0.5,0-1.1-0.2-1.4-0.6c-0.4-0.5-0.6-1.1-0.5-1.7C30.6,5.5,30.8,4.8,31.3,4.3
			L31.3,4.3z M39.7,8.6c0.3-0.3,0.5-0.8,0.6-1.2c0-0.4-0.1-0.8-0.4-1.1c-0.3-0.3-0.7-0.5-1.1-0.7c-0.4-0.2-0.8-0.3-0.9-0.6
			c-0.2-0.2-0.2-0.4-0.2-0.7c0-0.2,0.1-0.4,0.3-0.6c0.2-0.1,0.5-0.2,0.8-0.2c0.5,0,1,0.1,1.3,0.4v-1c-0.4-0.2-0.9-0.4-1.3-0.3
			c-0.6-0.1-1.1,0.1-1.5,0.6c-0.4,0.3-0.6,0.7-0.5,1.2c0,0.4,0.1,0.8,0.3,1.1c0.3,0.3,0.7,0.5,1.1,0.7c0.4,0.2,0.8,0.4,1,0.6
			s0.2,0.3,0.2,0.6c0,0.6-0.3,0.9-1.1,0.9c-0.6,0-1.1-0.2-1.5-0.5v1C37.1,8.9,37.6,9,38.1,9C38.7,9.2,39.3,9,39.7,8.6L39.7,8.6z
			 M46.3,8.3c0.6-0.6,0.8-1.5,0.8-2.3c0.1-0.8-0.2-1.7-0.8-2.3c-0.5-0.6-1.3-0.9-2.1-0.9C43.4,2.7,42.6,3,42,3.5
			c-0.6,0.7-0.9,1.5-0.9,2.4c-0.1,0.8,0.2,1.6,0.8,2.2C42.5,8.7,43.2,9,44,9C44.9,9.2,45.8,8.9,46.3,8.3L46.3,8.3z M42.3,6.1
			c0-0.6,0.2-1.3,0.6-1.8c0.4-0.4,0.9-0.6,1.4-0.6c0.5,0,1,0.2,1.4,0.6c0.4,0.5,0.6,1.1,0.6,1.8c0.1,0.6-0.1,1.2-0.4,1.7
			c-0.3,0.5-0.9,0.7-1.4,0.7c-0.5,0-1.1-0.2-1.4-0.6C42.4,7.4,42.2,6.7,42.3,6.1L42.3,6.1z M48.8,9h1V3.8h1.4V3.1h-1.4V2.2
			c0-0.9,0.3-1.3,1-1.3c0.2,0,0.5,0,0.7,0.1V0.1C51.2,0,51,0,50.7,0c-0.5,0-1,0.1-1.3,0.4c-0.5,0.4-0.7,1-0.7,1.5v1h-1v0.9h1L48.8,9
			z M52.7,7.4c0,1.2,0.5,1.8,1.5,1.8c0.3,0,0.6-0.1,0.9-0.2V8.1c-0.2,0.1-0.4,0.2-0.7,0.2c-0.2,0-0.5-0.1-0.7-0.2
			c-0.2-0.3-0.2-0.6-0.2-0.9V3.8h1.5V3.1h-1.5V1.3l-1,0.3v1.4h-1v0.8h1v3.5H52.7z M1.7,30.6c-0.5,0-0.9,0.2-1.2,0.6
			C0.1,31.5,0,31.9,0,32.4c0,0.4,0.1,0.9,0.4,1.2c0.3,0.3,0.8,0.5,1.2,0.6c0.5,0,0.9-0.2,1.2-0.6c0.3-0.3,0.5-0.8,0.6-1.2
			c0-0.5-0.2-0.9-0.6-1.2C2.5,30.8,2.1,30.6,1.7,30.6z M22.2,27.3c0,1.1,0,2.1,0.1,3.2h-0.1c-0.2-0.5-0.5-1-0.9-1.4l-11-17.3H7v22
			h2.6v-16c0-1,0-2-0.1-3h0.1c0.2,0.6,0.4,1,0.7,1.4l11.3,17.5h3.1v-22h-2.5L22.2,27.3z M32.3,23.8h7.9v-2.3h-7.9v-7.3h8.6v-2.3
			H29.7v22h11.7v-2.5h-9v-7.6L32.3,23.8z M43.7,14.1h6.4v19.6h2.5V14.1h6.3v-2.3H43.7L43.7,14.1z"/>
	</g>
</g>
</svg>
