<?xml version="1.0" encoding="utf-8"?>
<!-- Generator: Adobe Illustrator 22.0.1, SVG Export Plug-In . SVG Version: 6.00 Build 0)  -->
<svg version="1.1" id="Layer_1" xmlns="http://www.w3.org/2000/svg" xmlns:xlink="http://www.w3.org/1999/xlink" x="0px" y="0px"
	 width="640px" height="480px" viewBox="0 0 640 480" style="enable-background:new 0 0 640 480;" xml:space="preserve">
<style type="text/css">
	.st0{fill:#F54F78;}
	.st1{fill:#F22A5C;}
	.st2{enable-background:new    ;}
	.st3{fill:#FBFBFF;}
	.st4{fill:#47E098;}
	.st5{fill:#37C47D;}
	.st6{fill:#FDD026;}
	.st7{fill:#FDB201;}
	.st8{fill:#26DAE3;}
	.st9{fill:#00BCC2;}
	.st10{fill:#FF6A44;}
	.st11{fill:#E5EEFD;}
	.st12{fill:#B6CCF3;}
	.st13{fill:#C3D7F8;}
	.st14{fill:#FFC032;}
	.st15{fill:#2B2B2B;}
	.st16{fill:#FDC637;}
	.st17{fill:#FB648E;}
	.st18{fill:#EE5D82;}
</style>
<g>
	<g>
		<g>
			<g id="block-copy-9_10_">
				<g id="Rectangle-Copy-2_10_">
					<g>
						<path id="path-8_20_" class="st0" d="M310.5,392.8c3.6-2.1,9.4-2.1,13,0l48.2,28c3.6,2.1,3.6,5.5,0,7.5L323.9,456
							c-3.6,2.1-9.4,2.1-13,0l-48-28c-3.6-2.1-3.6-5.5,0-7.6L310.5,392.8z"/>
					</g>
				</g>
				<path class="st1" d="M374.5,424.7c-0.1,1.3-1,2.6-2.7,3.6L323.9,456c-1.8,1-4.2,1.6-6.5,1.5h-0.1c-2.3,0-4.7-0.5-6.4-1.6l-48-28
					c-1.8-1-2.7-2.4-2.7-3.8v0.4v2.8l0.1,1c0.2,1,1,1.9,2.4,2.7l48.5,28.2c1.7,1,3.9,1.5,6.2,1.5c2.3,0,4.6-0.5,6.3-1.5l48.4-27.9
					c1.9-1.1,2.3-2.2,2.4-4L374.5,424.7C374.5,424.6,374.5,424.5,374.5,424.7z"/>
			</g>
		</g>
		<g>
			<g class="st2">
				<g>
					<path class="st3" d="M330.3,420l-14.5,8.5l2.4,1.4l-3.4,2l-10.4-5.9l3.4-2l2.6,1.5l9.5-5.6l-3.8-0.8l1.6-2.4
						c0.5,0.1,1.1,0.2,1.6,0.3c0.5,0.1,1.1,0.2,1.6,0.2c0.6,0.1,1.3,0.1,2,0.1c0.8,0,1.6,0,2.7-0.1L330.3,420z"/>
				</g>
			</g>
		</g>
	</g>
	<g>
		<g>
			<g id="block-copy-9_8_">
				<g id="Rectangle-Copy-2_8_">
					<g>
						<path id="path-8_9_" class="st4" d="M462,177.9c3.6-2.1,9.4-2.1,13,0l48.2,28c3.6,2.1,3.6,5.5,0,7.5l-47.9,27.7
							c-3.6,2.1-9.4,2.1-13,0l-48-28c-3.6-2.1-3.6-5.5,0-7.6L462,177.9z"/>
					</g>
				</g>
				<path class="st5" d="M525.9,209.8c-0.1,1.3-1,2.6-2.7,3.6l-47.9,27.7c-1.8,1-4.2,1.6-6.5,1.5h-0.1c-2.3,0-4.7-0.5-6.4-1.6
					l-48-28c-1.8-1-2.7-2.4-2.7-3.8v0.4v2.8l0.1,1c0.2,1,1,1.9,2.4,2.7l48.5,28.2c1.7,1,3.9,1.5,6.2,1.5c2.3,0,4.6-0.5,6.3-1.5
					l48.4-27.9c1.9-1.1,2.3-2.2,2.4-4L525.9,209.8C525.9,209.7,525.9,209.6,525.9,209.8z"/>
			</g>
		</g>
		<g>
			<g class="st2">
				<g>
					<path class="st3" d="M467.1,215l1.4,0.8l-3.4,2l-8.4-4.8l3.4-2l1.6,0.9l1.7-1l-7.5-4.2l3.7-2.2l16.7-1.2l5.4,3l-10.1,5.9
						l1.4,0.8l-2.8,1.6l-1.4-0.8L467.1,215z M466.2,209.3l4.7-2.8l-8.6,0.6L466.2,209.3"/>
				</g>
			</g>
		</g>
	</g>
	<g>
		<g>
			<g id="block-copy-9_3_">
				<g id="Rectangle-Copy-2_3_">
					<g>
						<path id="path-8_7_" class="st6" d="M463.4,270.8c3.6-2.1,9.4-2.1,13,0l48.2,28c3.6,2.1,3.6,5.5,0,7.5L476.8,334
							c-3.6,2.1-9.4,2.1-13,0l-48-28c-3.6-2.1-3.6-5.5,0-7.6L463.4,270.8z"/>
					</g>
				</g>
				<path class="st7" d="M527.4,302.7c-0.1,1.3-1,2.6-2.7,3.6L476.8,334c-1.8,1-4.2,1.6-6.5,1.5h-0.1c-2.3,0-4.7-0.5-6.4-1.6l-48-28
					c-1.8-1-2.7-2.4-2.7-3.8v0.4v2.8l0.1,1c0.2,1,1,1.9,2.4,2.7l48.5,28.2c1.7,1,3.9,1.5,6.2,1.5c2.3,0,4.6-0.5,6.3-1.5l48.4-27.9
					c1.9-1.1,2.3-2.2,2.4-4L527.4,302.7C527.4,302.7,527.4,302.5,527.4,302.7z"/>
			</g>
		</g>
		<g>
			<g class="st2">
				<g>
					<path class="st3" d="M479.4,296.8c1.1,0.6,1.9,1.2,2.4,1.8c0.6,0.6,0.9,1.2,1,1.8c0.1,0.6-0.1,1.2-0.4,1.7
						c-0.4,0.6-1,1.1-1.8,1.6c-0.4,0.3-0.9,0.5-1.4,0.6c-0.5,0.1-1,0.2-1.4,0.3c-0.5,0-0.9,0.1-1.3,0.1c-0.4,0-0.8,0-1.1-0.1
						c0.1,0.2,0.1,0.5,0.1,0.8c0,0.3,0,0.6-0.1,1c-0.1,0.3-0.3,0.7-0.6,1.1c-0.3,0.4-0.7,0.7-1.3,1.1c-1,0.6-2,0.9-3.1,1.1
						c-1.1,0.2-2.3,0.2-3.4,0.1c-1.1-0.1-2.3-0.3-3.3-0.7c-1.1-0.4-2.1-0.8-2.9-1.3c-0.6-0.4-1.2-0.8-1.6-1.2
						c-0.5-0.4-0.8-0.9-1.1-1.4c-0.3-0.5-0.5-0.9-0.5-1.4c-0.1-0.4-0.1-0.9,0.1-1.2l5.4-0.1c0,0.6,0.1,1.1,0.3,1.6
						c0.2,0.5,0.7,0.9,1.4,1.4c0.7,0.4,1.5,0.6,2.2,0.7c0.8,0,1.4-0.1,2.1-0.5c0.7-0.4,1-0.8,0.9-1.2c-0.1-0.4-0.5-0.8-1.2-1.1
						l-1.9-1.1l3-1.8l1.9,1.1c0.6,0.4,1.3,0.6,2,0.6c0.7,0.1,1.4-0.1,1.9-0.4c0.3-0.2,0.6-0.4,0.7-0.6c0.1-0.2,0.2-0.5,0.1-0.7
						c-0.1-0.2-0.2-0.4-0.4-0.6c-0.2-0.2-0.4-0.4-0.7-0.5c-0.5-0.3-1.2-0.5-2-0.6c-0.8-0.1-1.7-0.2-2.6-0.2l0.5-3.2c0.5,0,1,0,1.7,0
						c0.7,0.1,1.4,0.2,2.1,0.3c0.7,0.1,1.5,0.3,2.2,0.5C478.2,296.2,478.8,296.5,479.4,296.8z"/>
				</g>
			</g>
		</g>
	</g>
	<g>
		<g>
			<g id="block-copy-9_7_">
				<g id="Rectangle-Copy-2_7_">
					<g>
						<path id="path-8_8_" class="st8" d="M111,283c3.6-2.1,9.4-2.1,13,0l48.2,28c3.6,2.1,3.6,5.5,0,7.5l-47.9,27.7
							c-3.6,2.1-9.4,2.1-13,0l-48-28c-3.6-2.1-3.6-5.5,0-7.6L111,283z"/>
					</g>
				</g>
				<path class="st9" d="M174.9,314.9c-0.1,1.3-1,2.6-2.7,3.6l-47.9,27.7c-1.8,1-4.2,1.6-6.5,1.6h-0.1c-2.3,0-4.7-0.5-6.4-1.6
					l-48-28c-1.8-1-2.7-2.4-2.7-3.8v0.4v2.8l0.1,1c0.2,1,1,1.9,2.4,2.7l48.5,28.2c1.7,1,3.9,1.5,6.2,1.5c2.3,0,4.6-0.5,6.3-1.5
					l48.4-27.9c1.9-1.1,2.3-2.2,2.4-4L174.9,314.9C174.9,314.9,174.9,314.8,174.9,314.9z"/>
			</g>
		</g>
		<g>
			<g class="st2">
				<g>
					<path class="st3" d="M128.9,308.3c0.9,0.5,1.5,1,2,1.6c0.5,0.6,0.8,1.2,0.8,1.8c0.1,0.6-0.1,1.2-0.5,1.8
						c-0.4,0.6-1,1.1-1.9,1.7c-0.7,0.4-1.5,0.8-2.1,1c-0.7,0.2-1.4,0.3-2.2,0.4c-0.8,0.1-1.6,0-2.5,0c-0.9-0.1-1.9-0.2-3-0.3
						c-0.5-0.1-1.1-0.1-1.8-0.2c-0.7-0.1-1.4-0.1-2-0.1c-0.7,0-1.3,0-2,0c-0.6,0-1.1,0.1-1.5,0.1l4.6,2.6l2-1.2l4.4,2.5l-5.4,3.2
						l-14-8l3.7-2.2c1-0.1,1.8-0.2,2.4-0.3c0.7-0.1,1.3-0.1,1.9-0.2c0.6,0,1.2,0,1.8,0c0.6,0,1.3,0,2,0.1c0.9,0,1.8,0.1,2.6,0.2
						c0.9,0.1,1.7,0.2,2.5,0.3c0.8,0.1,1.5,0.1,2.2,0c0.6,0,1.2-0.2,1.6-0.4c0.6-0.4,0.9-0.8,0.7-1.1c-0.2-0.4-0.6-0.7-1.2-1.1
						c-0.3-0.2-0.7-0.3-1.2-0.4c-0.4-0.1-0.9-0.2-1.3-0.2c-0.5,0-0.9-0.1-1.4,0c-0.5,0-0.9,0-1.3,0l0.1-3.3c2-0.1,3.8,0,5.5,0.4
						C126.1,307,127.6,307.5,128.9,308.3z"/>
				</g>
			</g>
		</g>
	</g>
	<path class="st10" d="M548.8,131.6c0,2.4-1.6,4.8-4.7,6.6c-6.3,3.6-16.4,3.6-22.7,0l-100-57.9c-17.9-10.4-47.1-10.4-65.2,0
		c-9,5.2-13.5,12-13.5,18.8l0.2,54.4c0-6.9,4.5-13.7,13.5-18.8c18-10.4,47.2-10.4,65.2,0l100,57.9c6.2,3.6,16.4,3.6,22.7,0
		c3.2-1.8,4.7-4.2,4.7-6.6L548.8,131.6z"/>
	<g>
		<g>
			<g class="st2">
				<g>
					<polygon class="st11" points="517.1,163.1 496.4,151.1 503,147.5 523.6,159.4 					"/>
				</g>
				<g>
					<polygon class="st12" points="517.1,163.1 517,168.1 496.3,156.2 496.4,151.1 					"/>
				</g>
				<g>
					<polygon class="st13" points="523.6,159.4 523.6,164.5 517,168.1 517.1,163.1 					"/>
				</g>
			</g>
		</g>
		<g>
			<g class="st2">
				<g>
					<polygon class="st11" points="510.4,171.8 489.8,159.9 496.3,156.2 517,168.1 					"/>
				</g>
				<g>
					<polygon class="st12" points="510.4,171.8 510.3,176.8 489.7,164.9 489.8,159.9 					"/>
				</g>
				<g>
					<polygon class="st13" points="517,168.1 516.9,173.2 510.3,176.8 510.4,171.8 					"/>
				</g>
			</g>
		</g>
		<g>
			<g class="st2">
				<g>
					<polygon class="st11" points="503.8,180.5 483.1,168.6 489.7,164.9 510.3,176.8 					"/>
				</g>
				<g>
					<polygon class="st12" points="503.8,180.5 503.7,185.6 483,173.6 483.1,168.6 					"/>
				</g>
				<g>
					<polygon class="st13" points="510.3,176.8 510.3,181.9 503.7,185.6 503.8,180.5 					"/>
				</g>
			</g>
		</g>
		<g>
			<g class="st2">
				<g>
					<polygon class="st11" points="497.1,189.2 476.5,177.3 483,173.6 503.7,185.6 					"/>
				</g>
				<g>
					<polygon class="st12" points="497.1,189.2 497,194.3 476.4,182.4 476.5,177.3 					"/>
				</g>
				<g>
					<polygon class="st13" points="503.7,185.6 503.6,190.6 497,194.3 497.1,189.2 					"/>
				</g>
			</g>
		</g>
		<g>
			<g class="st2">
				<g>
					<polygon class="st11" points="490.5,197.9 469.8,186 476.4,182.4 497,194.3 					"/>
				</g>
				<g>
					<polygon class="st12" points="490.5,197.9 490.4,203 469.7,191.1 469.8,186 					"/>
				</g>
				<g>
					<polygon class="st13" points="497,194.3 497,199.3 490.4,203 490.5,197.9 					"/>
				</g>
			</g>
		</g>
	</g>
	<path class="st10" d="M417.6,191.3c0-6.8-4.5-13.7-13.6-18.9l-70.8-41.1c-15.1-8.8-22.6-20.3-22.7-31.8l0.2,54.4
		c0,11.5,7.6,23,22.7,31.8l70.8,41.1c9,5.3,13.5,12.1,13.6,18.9L417.6,191.3z"/>
	<path class="st10" d="M449.7,191.1c0,11.7-7.6,23.3-23,32.2c-30.5,17.6-80,17.6-110.4,0l-70.8-41.1c-17.9-10.4-47.1-10.4-65.2,0
		c-9,5.2-13.5,12-13.5,18.8l0.2,54.4c0-6.9,4.5-13.7,13.5-18.8c18-10.4,47.2-10.4,65.2,0l70.8,41.1c30.4,17.6,79.9,17.6,110.4,0
		c15.4-8.9,23.1-20.6,23-32.2L449.7,191.1z"/>
	<path class="st10" d="M241.7,293.1c0-6.8-4.5-13.7-13.6-18.9l-70.8-41.1c-15.1-8.8-22.6-20.3-22.7-31.8l0.2,54.4
		c0,11.5,7.6,23,22.7,31.8l70.8,41.1c9,5.3,13.5,12.1,13.6,18.9L241.7,293.1z"/>
	<g>
		<path class="st10" d="M135.7,318.7l0.2,54.4c0,2.4,1.6,4.7,4.7,6.5c30.4,17.6,79.9,17.6,110.5,0c15.4-8.9,23-20.6,23-32.2
			l-0.2-54.4c0,11.7-7.6,23.3-23,32.2c-30.6,17.6-80.1,17.6-110.5,0C137.2,323.4,135.7,321.1,135.7,318.7z"/>
	</g>
	<g>
		<path class="st14" d="M333.6,67.2c-30.5,17.6-30.7,46.3-0.4,64l70.8,41.1c18.1,10.5,18,27.5,0,37.9c-18,10.4-47.3,10.4-65.2,0
			l-70-40.7c-31.1-18.1-80.7-18.1-111.2-0.5c-30.6,17.6-30.7,46.3-0.4,64l70.8,41.1c18.1,10.5,18,27.5,0,37.9
			c-18,10.4-47.2,10.4-65.2,0c-6.2-3.6-16.4-3.6-22.7,0c-6.3,3.6-6.3,9.5-0.1,13.1c30.4,17.6,79.9,17.6,110.5,0
			c30.6-17.6,30.7-46.3,0.4-64l-70.2-40.8c-18.7-10.9-18.6-27.8-0.6-38.2c18-10.4,47.2-10.4,65.2,0l70.8,41.1
			c30.4,17.6,79.9,17.6,110.4,0c30.6-17.6,30.7-46.3,0.4-64l-70.2-40.8c-18.7-10.9-18.6-27.8-0.6-38.2c18-10.4,47.2-10.4,65.2,0
			l100,57.9c6.2,3.6,16.4,3.6,22.7,0c6.3-3.6,6.3-9.5,0.1-13.1l-99.2-57.4C413.8,49.6,364.2,49.6,333.6,67.2z"/>
	</g>
	<g>
		<g>
			<g class="st2">
				<g>
					<polygon class="st11" points="161.4,278.1 140.7,266.2 147.3,262.5 168,274.4 					"/>
				</g>
				<g>
					<polygon class="st12" points="161.4,278.1 161.3,283.1 140.7,271.2 140.7,266.2 					"/>
				</g>
				<g>
					<polygon class="st13" points="168,274.4 167.9,279.5 161.3,283.1 161.4,278.1 					"/>
				</g>
			</g>
		</g>
		<g>
			<g class="st2">
				<g>
					<polygon class="st11" points="154.7,286.8 134.1,274.9 140.7,271.2 161.3,283.1 					"/>
				</g>
				<g>
					<polygon class="st12" points="154.7,286.8 154.7,291.9 134,279.9 134.1,274.9 					"/>
				</g>
				<g>
					<polygon class="st13" points="161.3,283.1 161.2,288.2 154.7,291.9 154.7,286.8 					"/>
				</g>
			</g>
		</g>
		<g>
			<g class="st2">
				<g>
					<polygon class="st11" points="148.1,295.5 127.4,283.6 134,279.9 154.7,291.8 					"/>
				</g>
				<g>
					<polygon class="st12" points="148.1,295.5 148,300.6 127.4,288.7 127.4,283.6 					"/>
				</g>
				<g>
					<polygon class="st13" points="154.7,291.8 154.6,296.9 148,300.6 148.1,295.5 					"/>
				</g>
			</g>
		</g>
		<g>
			<g class="st2">
				<g>
					<polygon class="st11" points="141.4,304.2 120.8,292.3 127.4,288.7 148,300.6 					"/>
				</g>
				<g>
					<polygon class="st12" points="141.4,304.2 141.4,309.3 120.7,297.4 120.8,292.3 					"/>
				</g>
				<g>
					<polygon class="st13" points="148,300.6 147.9,305.6 141.4,309.3 141.4,304.2 					"/>
				</g>
			</g>
		</g>
	</g>
	<g>
		<g>
			<g class="st2">
				<g>
					<polygon class="st11" points="424.3,267 445,255.1 438.4,251.5 417.7,263.4 					"/>
				</g>
				<g>
					<polygon class="st12" points="424.3,267 424.4,272.1 445,260.2 445,255.1 					"/>
				</g>
				<g>
					<polygon class="st13" points="417.7,263.4 417.8,268.5 424.4,272.1 424.3,267 					"/>
				</g>
			</g>
		</g>
		<g>
			<g class="st2">
				<g>
					<polygon class="st11" points="431,275.8 451.6,263.9 445,260.2 424.4,272.1 					"/>
				</g>
				<g>
					<polygon class="st12" points="431,275.8 431,280.8 451.7,268.9 451.6,263.9 					"/>
				</g>
				<g>
					<polygon class="st13" points="424.4,272.1 424.5,277.2 431,280.8 431,275.8 					"/>
				</g>
			</g>
		</g>
		<g>
			<g class="st2">
				<g>
					<polygon class="st11" points="437.6,284.5 458.3,272.6 451.7,268.9 431,280.8 					"/>
				</g>
				<g>
					<polygon class="st12" points="437.6,284.5 437.7,289.6 458.3,277.6 458.3,272.6 					"/>
				</g>
				<g>
					<polygon class="st13" points="431,280.8 431.1,285.9 437.7,289.6 437.6,284.5 					"/>
				</g>
			</g>
		</g>
		<g>
			<g class="st2">
				<g>
					<polygon class="st11" points="444.3,293.2 464.9,281.3 458.3,277.6 437.7,289.5 					"/>
				</g>
				<g>
					<polygon class="st12" points="444.3,293.2 444.3,298.3 465,286.4 464.9,281.3 					"/>
				</g>
				<g>
					<polygon class="st13" points="437.7,289.5 437.8,294.6 444.3,298.3 444.3,293.2 					"/>
				</g>
			</g>
		</g>
	</g>
	<g>
		<g class="st2">
			<g>
				<polygon class="st11" points="165,212.5 167,217.7 169,222.8 171,220 173,217.1 169,214.8 				"/>
			</g>
			<polygon class="st12" points="171,220 173,217.1 177.5,214.5 173.5,220.2 169,222.8 			"/>
			<polygon class="st15" points="169.6,209.8 177.5,214.5 173,217.1 169,214.8 165,212.5 			"/>
		</g>
		<g>
			<path class="st12" d="M156.9,159.4l36.5,21.3c0.3,0.2,0.5,0.6,0.5,0.9l-0.1,42.2c0,0.2-0.1,0.3-0.1,0.3l-4.4,2.6
				c0.1-0.1,0.1-0.2,0.1-0.3l0.1-42.2c0-0.3-0.2-0.7-0.5-0.9L152.5,162L156.9,159.4z"/>
			<path class="st11" d="M152.1,204.6c0,0.3,0.2,0.7,0.5,0.9l36.3,21.2c0.3,0.2,0.5,0,0.5-0.3l0.1-42.2c0-0.3-0.2-0.7-0.5-0.9
				l-36.3-21.2c-0.3-0.2-0.5,0-0.5,0.3L152.1,204.6z M188.4,225.2"/>
		</g>
		<polyline class="st13" points="189,183.3 152.5,162 156.9,159.4 193.4,180.7 		"/>
		<g>
			<g>
				<path class="st9" d="M170.8,183c-1.2-0.7-2.3-1.1-3.3-1.3c-3.9-0.7-6.6,2-6.7,6.9c0,5,2.7,10.8,6.6,14.6c1,1,2.1,1.9,3.3,2.6
					c1.2,0.7,2.3,1.1,3.3,1.3c3.9,0.7,6.6-1.9,6.7-6.9c0-5-2.7-10.8-6.6-14.7C173.1,184.5,172,183.6,170.8,183z"/>
			</g>
			<g>
				<path class="st8" d="M170.8,189.1c-0.5-0.3-1.1-0.5-1.5-0.6c-1.8-0.3-3.1,0.9-3.1,3.2c0,2.3,1.3,5,3.1,6.8
					c0.5,0.5,1,0.9,1.5,1.2c0.5,0.3,1.1,0.5,1.5,0.6c1.8,0.3,3.1-0.9,3.1-3.2c0-2.3-1.3-5-3.1-6.8
					C171.9,189.8,171.4,189.4,170.8,189.1z"/>
			</g>
		</g>
	</g>
	<g>
		<g class="st2">
			<g>
				<polygon class="st11" points="422.6,204.1 420.7,209.3 418.7,214.5 416.7,211.6 414.7,208.8 418.7,206.4 				"/>
			</g>
			<polygon class="st12" points="416.7,211.6 414.7,208.8 410.2,206.1 414.2,211.8 418.7,214.5 			"/>
			<polygon class="st15" points="418.1,201.5 410.2,206.1 414.7,208.8 418.7,206.4 422.6,204.1 			"/>
		</g>
		<g>
			<path class="st12" d="M430.8,151l-36.5,21.3c-0.3,0.2-0.5,0.6-0.5,0.9l0.1,42.2c0,0.2,0.1,0.3,0.1,0.3l4.4,2.6
				c-0.1-0.1-0.1-0.2-0.1-0.3l-0.1-42.2c0-0.3,0.2-0.7,0.5-0.9l36.5-21.3L430.8,151z"/>
			<path class="st11" d="M435.5,154c0-0.3-0.2-0.5-0.5-0.3l-36.3,21.2c-0.3,0.2-0.5,0.6-0.5,0.9l0.1,42.2c0,0.3,0.2,0.5,0.5,0.3
				l36.3-21.2c0.3-0.2,0.5-0.6,0.5-0.9L435.5,154z M399.3,216.8"/>
		</g>
		<polyline class="st13" points="398.7,174.9 435.2,153.6 430.8,151 394.3,172.3 		"/>
		<g>
			<path class="st16" d="M416.8,171.2c0.3-0.2,0.6-0.2,0.7,0.1l3.3,5.7c0.1,0.2,0.3,0.3,0.6,0.2l7.3-3c0.6-0.3,0.9,0.5,0.4,1.3
				l-5.3,8.9c-0.2,0.3-0.3,0.7-0.2,0.9l1.3,7.6c0.1,0.5-0.3,1.2-0.8,1.5c-0.1,0.1-0.2,0.1-0.4,0.1l-6.5-0.2c-0.1,0-0.2,0-0.4,0.1
				c-0.1,0.1-0.3,0.2-0.4,0.3l-6.5,7.7c-0.1,0.1-0.2,0.2-0.4,0.3c-0.5,0.3-0.9,0-0.8-0.6l1.2-9.1c0-0.3,0-0.6-0.2-0.7l-5.3-2.9
				c-0.5-0.3-0.2-1.3,0.4-1.8l7.3-5.4c0.3-0.2,0.5-0.5,0.6-0.8l3.2-9.5C416.3,171.6,416.6,171.3,416.8,171.2z"/>
		</g>
	</g>
	<g>
		<g class="st2">
			<g>
				<polygon class="st11" points="247.4,304.6 245.4,309.8 243.4,314.9 241.4,312.1 239.4,309.2 243.4,306.9 				"/>
			</g>
			<polygon class="st12" points="241.4,312.1 239.4,309.2 234.9,306.6 238.9,312.3 243.4,314.9 			"/>
			<polygon class="st15" points="242.9,302 234.9,306.6 239.4,309.2 243.4,306.9 247.4,304.6 			"/>
		</g>
		<g>
			<path class="st12" d="M255.5,251.5L219,272.8c-0.3,0.2-0.5,0.6-0.5,0.9l0.1,42.2c0,0.2,0.1,0.3,0.1,0.3l4.4,2.6
				c-0.1-0.1-0.1-0.2-0.1-0.3l-0.1-42.2c0-0.3,0.2-0.7,0.5-0.9l36.5-21.3L255.5,251.5z"/>
			<path class="st11" d="M260.2,254.5c0-0.3-0.2-0.5-0.5-0.3l-36.3,21.2c-0.3,0.2-0.5,0.6-0.5,0.9l0.1,42.2c0,0.3,0.2,0.5,0.5,0.3
				l36.3-21.2c0.3-0.2,0.5-0.6,0.5-0.9L260.2,254.5z M224,317.3"/>
		</g>
		<polyline class="st13" points="223.4,275.4 259.9,254.1 255.5,251.5 219,272.8 		"/>
		<g id="Onboarding_2_">
			<g class="st2">
				<g>
					<path class="st17" d="M254.1,288.9l0.1,0l1,0.5l-1,2.6l-1.3,0.4l-0.1,0c-0.8,1.5-1.8,2.8-3,3.9l0,0.2l-0.3,1.8l-2,1.2l-0.4-1.4
						l0-0.2c-1.2,0.4-2.3,0.3-3.1-0.2l-0.1,0.2l-1.3,1.2l-1-1.4l1-1.7l0.1-0.2c-0.2-0.5-0.3-1.2-0.3-1.9c0-0.7,0.1-1.5,0.2-2.2
						l-0.1,0l-1-0.5l1-2.6l1.3-0.4l0.1,0c0.8-1.5,1.8-2.8,3-3.9l0-0.2l0.3-1.8l2-1.2l0.4,1.4l0,0.2c1.2-0.4,2.3-0.3,3.1,0.2l0.1-0.2
						l1.3-1.2l1,1.4l-1,1.7l-0.1,0.2c0.2,0.5,0.3,1.2,0.3,1.9C254.3,287.4,254.2,288.1,254.1,288.9z M248.4,294.1
						c1.8-1.1,3.3-3.7,3.3-5.9c0-2.1-1.6-3-3.4-1.9c-1.8,1.1-3.3,3.7-3.2,5.9C245,294.4,246.6,295.2,248.4,294.1"/>
				</g>
				<g>
					<path class="st1" d="M239.5,293.3l0.1,0l1,0.5l-1,2.6l-1.3,0.3l-0.1,0c-0.6,1.2-1.5,2.3-2.4,3.1l0,0.2l-0.3,1.7l-2,1.2
						l-0.4-1.3l0-0.2c-1,0.3-1.8,0.2-2.5-0.2l-0.1,0.2l-1.3,1.2l-1-1.4l1-1.7l0.1-0.2c-0.1-0.5-0.2-1-0.2-1.5c0-0.6,0.1-1.2,0.2-1.8
						l-0.1,0l-1-0.5l1-2.6l1.3-0.3l0.1,0c0.6-1.2,1.5-2.3,2.4-3.1l0-0.2l0.3-1.7l2-1.2l0.4,1.3l0,0.2c1-0.3,1.8-0.2,2.5,0.2l0.1-0.2
						l1.3-1.2l1,1.4l-1,1.7l-0.1,0.2c0.1,0.4,0.2,1,0.2,1.5C239.6,292.1,239.6,292.7,239.5,293.3z M234.4,297.8
						c1.5-0.9,2.6-3,2.6-4.7c0-1.7-1.2-2.4-2.7-1.5c-1.5,0.9-2.6,3-2.6,4.7C231.7,298,232.9,298.7,234.4,297.8"/>
				</g>
				<g>
					<path class="st18" d="M248.6,276.9l0.1,0l1,0.5l-1,2.6l-1.3,0.4l-0.1,0c-0.6,1.2-1.5,2.3-2.4,3.1l0,0.2l-0.3,1.8l-2,1.2
						l-0.4-1.4l0-0.2c-1,0.3-1.8,0.2-2.5-0.2l-0.1,0.2l-1.3,1.2l-1-1.4l1-1.7l0.1-0.2c-0.1-0.5-0.2-1-0.2-1.5c0-0.6,0.1-1.2,0.2-1.8
						l-0.1,0l-1-0.5l1-2.6l1.3-0.3l0.1,0c0.7-1.2,1.5-2.3,2.4-3.1l0-0.2l0.3-1.8l2-1.2l0.4,1.4l0,0.2c1-0.3,1.8-0.2,2.5,0.2l0.1-0.2
						l1.3-1.2l1,1.4l-1,1.7l-0.1,0.2c0.1,0.5,0.2,1,0.2,1.5C248.7,275.7,248.7,276.3,248.6,276.9z M243.5,281.4
						c1.5-0.9,2.6-3,2.6-4.7c0-1.7-1.2-2.4-2.7-1.5c-1.5,0.9-2.6,3-2.6,4.7C240.8,281.6,242,282.3,243.5,281.4"/>
				</g>
			</g>
		</g>
	</g>
	<g>
		<g class="st2">
			<g>
				<polygon class="st11" points="512.6,115.2 514.6,120.3 516.7,125.5 518.6,122.6 520.6,119.7 516.6,117.5 				"/>
			</g>
			<polygon class="st12" points="518.6,122.6 520.6,119.7 525.1,117.1 521.1,122.8 516.7,125.5 			"/>
			<polygon class="st15" points="517.1,112.5 525.1,117.1 520.6,119.7 516.6,117.5 512.6,115.2 			"/>
		</g>
		<g>
			<path class="st12" d="M503.9,62.2l36.7,20.9c0.3,0.2,0.5,0.6,0.5,0.9l0.4,42.1c0,0.2-0.1,0.3-0.1,0.3l-4.4,2.7
				c0.1-0.1,0.1-0.2,0.1-0.3l-0.4-42.1c0-0.3-0.2-0.7-0.5-0.9l-36.7-20.9L503.9,62.2z"/>
			<path class="st11" d="M499.6,107.5c0,0.3,0.2,0.7,0.5,0.9l36.5,20.8c0.3,0.2,0.5,0,0.5-0.3l-0.4-42.1c0-0.3-0.2-0.7-0.5-0.9
				L499.7,65c-0.3-0.2-0.5,0-0.5,0.3L499.6,107.5z M536,127.6"/>
		</g>
		<polyline class="st13" points="536.2,85.8 499.5,64.9 503.9,62.2 540.5,83.1 		"/>
		<g>
			<path class="st4" d="M508.8,82.9c2.9-1.7,7.6,1,10.5,6c1.4,2.5,2.2,5.1,2.2,7.3c0,1.5-0.4,2.9-1.1,3.8l1.7,2.9l0.5-0.3l4.2,7.3
				c0.5,0.8,0.7,1.7,0.7,2.5c0,0.7-0.2,1.3-0.7,1.6c-1,0.6-2.6-0.3-3.5-2l-4.2-7.3l0.5-0.3l-1.7-2.9c-2.9,0.3-6.6-2.2-9.1-6.5
				c-1.4-2.5-2.2-5.1-2.2-7.3C506.6,85.5,507.3,83.7,508.8,82.9z M519.3,95.1c0-3.4-2.4-7.6-5.3-9.3c-2.9-1.7-5.3-0.3-5.3,3.1
				c0,3.4,2.4,7.6,5.3,9.2C517,99.9,519.3,98.5,519.3,95.1"/>
		</g>
	</g>
	<g>
		<g class="st2">
			<g>
				<polygon class="st11" points="259.5,170.2 261,174 262.4,177.8 263.9,175.7 265.4,173.6 262.4,171.9 				"/>
			</g>
			<polygon class="st12" points="263.9,175.7 265.4,173.6 268.6,171.7 265.7,175.8 262.4,177.8 			"/>
			<polygon class="st15" points="262.8,168.3 268.6,171.7 265.4,173.6 262.4,171.9 259.5,170.2 			"/>
		</g>
		<g>
			<path class="st12" d="M253.6,131.5l26.6,15.5c0.2,0.1,0.4,0.4,0.4,0.7l0,30.8c0,0.1,0,0.2-0.1,0.2l-3.2,1.9
				c0.1,0,0.1-0.1,0.1-0.2l0-30.8c0-0.2-0.2-0.5-0.4-0.7l-26.6-15.5L253.6,131.5z"/>
			<path class="st11" d="M250.1,164.5c0,0.2,0.2,0.5,0.4,0.6l26.5,15.4c0.2,0.1,0.4,0,0.4-0.2l0-30.8c0-0.2-0.2-0.5-0.4-0.7
				l-26.5-15.4c-0.2-0.1-0.4,0-0.4,0.2L250.1,164.5z M276.6,179.5"/>
		</g>
		<polyline class="st13" points="277,148.9 250.3,133.4 253.6,131.5 280.2,147 		"/>
		<g>
			<path class="st0" d="M271.9,162.4c0.4-0.2,0.5-0.6,0.3-0.9c0,0-6.6-10.2-6.7-10.5c-0.1-0.3-0.6-0.2-0.6,0l0,2.4
				c0,0.1-0.1,0.2-0.2,0.1l-7.4-4.1c-0.4-0.2-0.9,0.1-0.9,0.5l0,6.7c0,0.2,0.1,0.4,0.3,0.5l7.9,4.4c0.2,0.1,0.3,0.3,0.3,0.5l0,2.2
				c0,0.4,0.5,0.7,0.9,0.6L271.9,162.4z"/>
		</g>
	</g>
	<g>
		<g class="st2">
			<g>
				<polygon class="st11" points="351.2,65.5 349.8,69.2 348.3,73 346.9,70.9 345.4,68.9 348.3,67.2 				"/>
			</g>
			<polygon class="st12" points="346.9,70.9 345.4,68.9 342.1,66.9 345,71.1 348.3,73 			"/>
			<polygon class="st15" points="347.9,63.5 342.1,66.9 345.4,68.9 348.3,67.2 351.2,65.5 			"/>
		</g>
		<g>
			<path class="st12" d="M357.2,26.7l-26.6,15.5c-0.2,0.1-0.4,0.4-0.4,0.7l0,30.8c0,0.1,0,0.2,0.1,0.2l3.2,1.9
				c-0.1,0-0.1-0.1-0.1-0.2l0-30.8c0-0.2,0.2-0.5,0.4-0.7l26.6-15.5L357.2,26.7z"/>
			<path class="st11" d="M360.6,28.9c0-0.2-0.2-0.3-0.4-0.2l-26.5,15.4c-0.2,0.1-0.4,0.4-0.4,0.7l0,30.8c0,0.2,0.2,0.3,0.4,0.2
				l26.5-15.4c0.2-0.1,0.4-0.4,0.4-0.6L360.6,28.9z M334.2,74.7"/>
		</g>
		<polyline class="st13" points="333.8,44.1 360.4,28.6 357.2,26.7 330.6,42.2 		"/>
		<g>
			<path class="st6" d="M355.2,46.8c0.4,0.1,0.5,0.6,0.3,0.9c0,0-6.5,10.3-6.6,10.6c-0.1,0.3-0.6,0.2-0.6,0l0-2.4
				c0-0.1-0.1-0.2-0.2-0.1l-7.3,4.2c-0.4,0.2-0.9-0.1-0.9-0.5l-0.1-6.7c0-0.2,0.1-0.4,0.3-0.5l7.8-4.5c0.2-0.1,0.3-0.3,0.3-0.5
				l0-2.2c0-0.4,0.4-0.7,0.9-0.6L355.2,46.8z"/>
		</g>
	</g>
	<g>
		<g>
			<g class="st2">
				<g>
					<polygon class="st11" points="245.3,353.8 266,341.8 259.4,338.2 238.7,350.1 					"/>
				</g>
				<g>
					<polygon class="st12" points="245.3,353.8 245.4,358.8 266,346.9 266,341.8 					"/>
				</g>
				<g>
					<polygon class="st13" points="238.7,350.1 238.8,355.2 245.4,358.8 245.3,353.8 					"/>
				</g>
			</g>
		</g>
		<g>
			<g class="st2">
				<g>
					<polygon class="st11" points="252,362.5 272.6,350.6 266,346.9 245.4,358.8 					"/>
				</g>
				<g>
					<polygon class="st12" points="252,362.5 252,367.5 272.7,355.6 272.6,350.6 					"/>
				</g>
				<g>
					<polygon class="st13" points="245.4,358.8 245.4,363.9 252,367.5 252,362.5 					"/>
				</g>
			</g>
		</g>
		<g>
			<g class="st2">
				<g>
					<polygon class="st11" points="258.6,371.2 279.3,359.3 272.7,355.6 252,367.5 					"/>
				</g>
				<g>
					<polygon class="st12" points="258.6,371.2 258.7,376.3 279.3,364.3 279.3,359.3 					"/>
				</g>
				<g>
					<polygon class="st13" points="252,367.5 252.1,372.6 258.7,376.3 258.6,371.2 					"/>
				</g>
			</g>
		</g>
		<g>
			<g class="st2">
				<g>
					<polygon class="st11" points="265.3,379.9 285.9,368 279.3,364.3 258.7,376.2 					"/>
				</g>
				<g>
					<polygon class="st12" points="265.3,379.9 265.3,385 286,373.1 285.9,368 					"/>
				</g>
				<g>
					<polygon class="st13" points="258.7,376.2 258.7,381.3 265.3,385 265.3,379.9 					"/>
				</g>
			</g>
		</g>
		<g>
			<g class="st2">
				<g>
					<polygon class="st11" points="271.9,388.6 292.6,376.7 286,373.1 265.3,385 					"/>
				</g>
				<g>
					<polygon class="st12" points="271.9,388.6 272,393.7 292.6,381.8 292.6,376.7 					"/>
				</g>
				<g>
					<polygon class="st13" points="265.3,385 265.4,390 272,393.7 271.9,388.6 					"/>
				</g>
			</g>
		</g>
		<g>
			<g class="st2">
				<g>
					<polygon class="st11" points="278.6,397.3 299.2,385.4 292.6,381.8 272,393.7 					"/>
				</g>
				<g>
					<polygon class="st12" points="278.6,397.3 278.6,402.4 299.3,390.5 299.2,385.4 					"/>
				</g>
				<g>
					<polygon class="st13" points="272,393.7 272.1,398.8 278.6,402.4 278.6,397.3 					"/>
				</g>
			</g>
		</g>
		<g>
			<g class="st2">
				<g>
					<polygon class="st11" points="285.2,406.1 305.9,394.1 299.3,390.5 278.6,402.4 					"/>
				</g>
				<g>
					<polygon class="st12" points="285.2,406.1 285.3,411.1 305.9,399.2 305.9,394.1 					"/>
				</g>
				<g>
					<polygon class="st13" points="278.6,402.4 278.7,407.5 285.3,411.1 285.2,406.1 					"/>
				</g>
			</g>
		</g>
		<g>
			<g class="st2">
				<g>
					<polygon class="st11" points="291.9,414.8 312.5,402.9 305.9,399.2 285.3,411.1 					"/>
				</g>
				<g>
					<polygon class="st12" points="291.9,414.8 291.9,419.8 312.6,407.9 312.5,402.9 					"/>
				</g>
				<g>
					<polygon class="st13" points="285.3,411.1 285.4,416.2 291.9,419.8 291.9,414.8 					"/>
				</g>
			</g>
		</g>
	</g>
</g>
</svg>
