<?xml version="1.0" encoding="utf-8"?>
<!-- Generator: Adobe Illustrator 22.0.1, SVG Export Plug-In . SVG Version: 6.00 Build 0)  -->
<svg version="1.1" id="Layer_1" xmlns="http://www.w3.org/2000/svg" xmlns:xlink="http://www.w3.org/1999/xlink" x="0px" y="0px"
	 width="640px" height="480px" viewBox="0 0 640 480" style="enable-background:new 0 0 640 480;" xml:space="preserve">
<style type="text/css">
	.st0{opacity:0.2;enable-background:new    ;}
	.st1{fill:url(#SVGID_1_);}
	.st2{fill:url(#SVGID_2_);}
	.st3{opacity:0.5;}
	.st4{fill:#FFFFFF;}
	.st5{fill:#7000FF;}
	.st6{opacity:0.5;fill:#882BFF;enable-background:new    ;}
	.st7{fill:#087BE2;}
	.st8{fill:#FF9768;}
	.st9{fill:#E5E5E5;}
	.st10{opacity:0.5;fill:#FFD063;enable-background:new    ;}
	.st11{fill:#FFE048;}
	.st12{fill:url(#SVGID_3_);}
	.st13{fill:#F8F8F8;}
	.st14{fill:#8EF5D9;}
	.st15{fill:url(#SVGID_4_);}
	.st16{fill:url(#SVGID_5_);}
	.st17{fill:url(#SVGID_6_);}
	.st18{fill:#FF647B;}
	.st19{fill:#FF4964;}
	.st20{fill:#FF8092;}
	.st21{fill:#F9F9F9;}
	.st22{fill:#0DBDEB;}
	.st23{fill:#009FC9;}
	.st24{fill:#45D0D5;}
	.st25{fill:#24C8CE;}
	.st26{fill:#66D8DD;}
	.st27{fill:#E6E6E6;}
	.st28{fill:#8B30FF;}
	.st29{fill:#4B4B8D;}
	.st30{fill:#15156B;}
	.st31{fill:#49D1D6;}
	.st32{fill:#5BD6DA;}
	.st33{fill:#7CDEE2;}
	.st34{fill:#8BE2E5;}
	.st35{fill:#FFB798;}
	.st36{fill:url(#SVGID_7_);}
	.st37{fill:url(#SVGID_8_);}
	.st38{fill:#004CA8;}
	.st39{fill:#6EEED9;}
	.st40{fill:url(#SVGID_9_);}
	.st41{fill:#F5CDBD;}
	.st42{fill:#FFC19F;}
	.st43{fill:#7777A9;}
	.st44{fill:url(#SVGID_10_);}
	.st45{fill:url(#SVGID_11_);}
	.st46{fill:url(#SVGID_12_);}
	.st47{fill:#D8422A;}
	.st48{fill:url(#SVGID_13_);}
	.st49{fill:url(#SVGID_14_);}
	.st50{fill:url(#SVGID_15_);}
	.st51{fill:#F2F2F2;}
	.st52{fill:#8526FF;}
	.st53{fill:#D2E4FF;}
	.st54{opacity:0.5;fill:#FF647B;enable-background:new    ;}
	.st55{opacity:0.5;fill:#8526FF;enable-background:new    ;}
	.st56{opacity:0.5;fill:#45D0D5;enable-background:new    ;}
</style>
<g transform="translate(0 0)">
	<g transform="translate(71.831 137.095)">
		<path class="st0" d="M420,168.7c6.7,3.9,6.8,10.2,0.1,14.1l-161.9,94.1c-6.7,3.9-17.6,3.9-24.4,0L71,182.8
			c-6.7-3.9-6.8-10.2-0.1-14.1l161.9-94.1c6.7-3.9,17.6-3.9,24.4,0L420,168.7z"/>
		
			<linearGradient id="SVGID_1_" gradientUnits="userSpaceOnUse" x1="-883.0493" y1="5819.5088" x2="-882.3205" y2="5819.5088" gradientTransform="matrix(492.966 0 0 -162.1449 435379.125 943745.3125)">
			<stop  offset="1.200000e-02" style="stop-color:#C7E8E8"/>
			<stop  offset="1" style="stop-color:#CFEBEB"/>
		</linearGradient>
		<path class="st1" d="M420.1,89.7l-161.9,94.1c-6.7,3.9-17.6,3.9-24.4,0L71,89.7c-3.4-2-5.1-4.5-5.1-7.1c0,5.9,0,8.2,0,14.1
			c0,2.6,1.7,5.2,5.1,7.1l162.9,94.1c6.7,3.9,17.7,3.9,24.4,0l161.9-94.1c3.3-1.9,5-4.5,5-7c0-5.8,0-8.2,0.1-14.1
			C425.1,85.2,423.4,87.8,420.1,89.7z"/>
		
			<linearGradient id="SVGID_2_" gradientUnits="userSpaceOnUse" x1="-883.0491" y1="5833.4653" x2="-882.3203" y2="5833.4653" gradientTransform="matrix(492.8978 0 0 -285.5071 435318.8125 1665578.25)">
			<stop  offset="1.200000e-02" style="stop-color:#D4EBEB"/>
			<stop  offset="1" style="stop-color:#E1F5F5"/>
		</linearGradient>
		<path class="st2" d="M420,75.6c6.7,3.9,6.8,10.2,0.1,14.1l-161.9,94.1c-6.7,3.9-17.6,3.9-24.4,0L71,89.7
			c-6.7-3.9-6.8-10.2-0.1-14.1l161.9-94.1c6.7-3.9,17.6-3.9,24.4,0L420,75.6z"/>
		<g class="st3">
			<path class="st4" d="M246.1,187.1c-4.3,0.1-8.6-0.9-12.4-3L70.7,90.1c-3.4-2-5.3-4.6-5.3-7.5c0-2.8,1.8-5.5,5.2-7.4l161.9-94.1
				c7.8-4,17-4,24.8,0l162.9,94.1c3.4,2,5.3,4.6,5.3,7.5c0,2.8-1.8,5.5-5.2,7.4l-161.9,94.1C254.7,186.2,250.4,187.2,246.1,187.1z
				 M244.9-21c-4.2-0.1-8.3,0.9-11.9,2.9L71.1,75.9c-3.1,1.8-4.8,4.2-4.8,6.7c0,2.5,1.7,4.9,4.9,6.7l162.9,94.1
				c7.5,3.8,16.4,3.8,23.9,0l161.9-94.1c3.1-1.8,4.8-4.2,4.8-6.7c0-2.5-1.7-4.9-4.8-6.7L256.9-18.1C253.2-20.1,249.1-21.1,244.9-21
				L244.9-21z"/>
		</g>
		<path class="st5" d="M65.8,96.7l0,0.3c0,0.3,0.1,0.6,0.1,0.9c0.3,1.1,0.8,2.2,1.6,3.1c0.3,0.3,0.5,0.6,0.8,0.9
			c0.3,0.3,0.7,0.6,1,0.9c0.8,0.6,1.7,1.1,2.6,1.6c1.9,1.1,4.2,2.4,6.6,3.8c10,5.7,24.2,13.7,41.3,23.4c17,9.8,36.9,21.1,58.2,33.3
			c10.6,6.1,21.6,12.4,32.8,18.9c5.6,3.2,11.2,6.5,16.9,9.7l4.2,2.4c1.4,0.8,2.8,1.6,4.2,2.3c2.9,1.2,6.1,1.8,9.2,1.8
			c3.2,0.1,6.3-0.4,9.3-1.4c1.5-0.6,2.9-1.3,4.2-2.1l4.2-2.5c5.6-3.3,11.3-6.5,16.8-9.8c11.2-6.5,22.1-12.8,32.7-19
			c21.3-12.2,41.1-23.7,58.1-33.5c17-9.8,31.3-17.9,41.2-23.5c2.5-1.4,4.7-2.7,6.6-3.8c0.9-0.5,1.8-1,2.6-1.6
			c0.7-0.5,1.3-1.1,1.9-1.7c0.8-0.9,1.3-1.9,1.6-3.1c0.1-0.3,0.1-0.6,0.1-0.9c0-0.2,0-0.3,0-0.3s0,0.1,0,0.3c0,0.3,0,0.6-0.1,0.9
			c-0.2,1.2-0.8,2.2-1.5,3.1c-0.5,0.7-1.2,1.3-1.9,1.8c-0.8,0.6-1.7,1.2-2.6,1.7l-6.6,3.9c-9.9,5.8-23.9,14.2-40.8,24.1
			s-36.7,21.5-57.9,33.9c-10.6,6.2-21.6,12.6-32.7,19.1c-5.6,3.2-11.2,6.5-16.8,9.8l-4.2,2.5c-1.4,0.9-2.9,1.6-4.5,2.2
			c-3.2,1.1-6.6,1.6-9.9,1.6c-3.4,0-6.8-0.7-9.9-2c-0.8-0.3-1.5-0.7-2.3-1.1l-2.1-1.2l-4.2-2.5c-5.6-3.3-11.3-6.5-16.8-9.8l-32.7-19
			c-21.2-12.4-41-23.9-58-33.8c-16.9-9.9-31-18.2-40.9-24c-2.5-1.5-4.7-2.7-6.6-3.9c-0.9-0.5-1.8-1.1-2.6-1.7
			c-0.4-0.3-0.7-0.6-1-0.9c-0.3-0.3-0.6-0.6-0.8-0.9c-0.8-0.9-1.3-2-1.5-3.1c-0.1-0.3-0.1-0.6-0.1-0.9L65.8,96.7z"/>
	</g>
	<g transform="translate(416.536)">
		<path class="st6" d="M29.9,81.9l-54.3-31.4V15.3l54.3,31.4V81.9z"/>
		<path class="st7" d="M-28,52.6L26.3,84V48.9L-28,17.5V52.6z"/>
		<g transform="translate(14.494 23.227)">
			<path class="st8" d="M-24.6,36.8c6.6,3.8,12,0.7,12-6.9s-5.4-17-12-20.8v5.7c3.9,2.2,7,7.7,7,12.2c0,4.5-3.2,6.3-7,4.1
				c-1.7-1.1-3.2-2.5-4.3-4.2l-3,2.8C-30.1,32.5-27.5,35-24.6,36.8z"/>
		</g>
		<g transform="translate(8.136 20.983)">
			<path class="st9" d="M-25.6,31.8l3-2.8c-1.7-2.3-2.6-5.1-2.7-8c0-4.5,3.2-6.3,7-4.1v-5.7c-6.6-3.8-12-0.7-12,6.9
				C-30.2,22.5-28.5,27.5-25.6,31.8z"/>
		</g>
		<g transform="translate(49.406 43.551)">
			<path class="st9" d="M-26.7,11.3l-11.6-6.7V3.5l11.6,6.7V11.3z"/>
			<path class="st9" d="M-26.7,14.9l-14.7-8.5V5.3l14.7,8.5V14.9z"/>
			<path class="st9" d="M-26.7,18.5L-41.4,10V8.9l14.7,8.5V18.5z"/>
			<path class="st9" d="M-26.7,22.1l-14.7-8.5v-1.1l14.7,8.5V22.1z"/>
			<path class="st9" d="M-26.7,25.6l-14.7-8.5v-1.1l14.7,8.5V25.6z"/>
			<path class="st9" d="M-26.7,29.2l-14.7-8.5v-1.1l14.7,8.5V29.2z"/>
			<path class="st9" d="M-26.7,32.8l-14.7-8.5v-1.1l14.7,8.5V32.8z"/>
		</g>
		<path class="st4" d="M-28,17.5c2.3,1.2,4.6,2.5,6.9,3.7s4.6,2.5,6.9,3.8c4.6,2.5,9.1,5.1,13.7,7.7l6.8,3.9l6.8,3.9l6.8,3.9l6.8,4
			l0.3,0.2l0,0.4l-0.1,8.8l-0.1,8.8c-0.1,2.9-0.1,5.9-0.2,8.8s-0.1,5.9-0.3,8.8c-0.1-2.9-0.2-5.9-0.3-8.8c-0.1-2.9-0.1-5.9-0.2-8.8
			l-0.1-8.8l-0.1-8.8l0.3,0.6l-6.8-3.9l-6.8-3.9l-6.8-3.9l-6.8-4c-4.5-2.7-9-5.3-13.5-8c-2.2-1.3-4.5-2.7-6.7-4.1
			C-23.6,20.2-25.8,18.9-28,17.5z"/>
	</g>
	<g transform="translate(529.574 90.577)">
		<path class="st6" d="M-0.8,57.3l-54.3-31.4V-9.2l54.3,31.4L-0.8,57.3z"/>
		<path class="st7" d="M-4.3,59.4l-54.3-31.4V-7.1l54.3,31.4L-4.3,59.4z"/>
		<path class="st4" d="M-58.7-7.1c2.3,1.2,4.6,2.5,6.9,3.7s4.6,2.5,6.9,3.8c4.6,2.5,9.1,5.1,13.7,7.7l6.8,3.9l6.8,3.9l6.8,3.9l6.8,4
			l0.3,0.2v0.4l-0.1,8.8l-0.1,8.8c-0.1,2.9-0.1,5.9-0.2,8.8c-0.1,2.9-0.1,5.9-0.3,8.8c-0.1-2.9-0.2-5.9-0.3-8.8s-0.1-5.9-0.2-8.8
			l-0.1-8.8L-5,24.3l0.3,0.6l-6.8-3.9l-6.8-3.9l-6.8-3.9l-6.8-4c-4.5-2.7-9-5.3-13.5-8c-2.2-1.3-4.5-2.7-6.7-4.1
			C-54.2-4.3-56.5-5.7-58.7-7.1z"/>
		<path class="st10" d="M-54.7,16.6c0,0,6.9,7.1,9.3,8c2.7,1,6.6-2.5,9.3-1.5c2.3,0.9,6.9,7,9.3,7.7c2.9,0.9,6.4-4,9.3-3
			c2.4,0.9,9.3,8.6,9.3,8.6V52l-46.3-26.7L-54.7,16.6z"/>
		<path class="st11" d="M-54.5,16.3c0,0,0.8,0.7,2.1,2c0.7,0.6,1.5,1.4,2.5,2.2c1,0.8,2,1.7,3.2,2.5c0.3,0.2,0.6,0.4,0.8,0.5
			c0.1,0.1,0.3,0.1,0.4,0.2l0,0l0,0c-0.1,0,0,0,0,0l0,0l0.1,0l0.2,0.1c0.1,0,0.2,0,0.4,0c0.1,0,0.2,0,0.4,0c0.3,0,0.5-0.1,0.8-0.1
			c1.1-0.3,2.1-0.8,3.3-1.3c0.6-0.3,1.3-0.5,1.9-0.6c0.4-0.1,0.8-0.1,1.2-0.1c0.2,0,0.5,0.1,0.7,0.1l0.2,0.1l0,0c0,0-0.1,0,0.1,0
			l0,0l0.1,0l0.3,0.1c0.2,0.1,0.5,0.3,0.8,0.5c0.2,0.2,0.5,0.3,0.7,0.5c0.4,0.4,0.8,0.7,1.3,1.1c0.8,0.8,1.6,1.5,2.3,2.3
			c0.8,0.8,1.5,1.5,2.2,2.1c0.2,0.1,0.4,0.3,0.5,0.4c0.2,0.1,0.3,0.2,0.5,0.3c0.1,0.1,0.3,0.2,0.4,0.2l0,0c0,0,0.1,0-0.1,0h0l0,0
			l0.1,0l0.3,0.1c0.6,0,1.1-0.1,1.7-0.3c0.6-0.2,1.1-0.5,1.6-0.8c1-0.7,2.1-1.2,3.3-1.6c0.7-0.2,1.4-0.2,2-0.1l0.3,0.1
			c-0.1,0,0.1,0,0.1,0l0,0l0,0l0.1,0l0.1,0.1l0.2,0.1c0.1,0.1,0.2,0.1,0.3,0.2c0.4,0.2,0.7,0.5,1.1,0.8c1.1,1,2.2,2,3.3,3.1
			c0.9,1,1.7,1.8,2.4,2.6c0.6,0.7,1.1,1.3,1.5,1.7s0.5,0.6,0.5,0.6l-0.2,0.5c0,0-0.7-0.8-2.1-2.1c-0.7-0.7-1.5-1.5-2.4-2.3
			s-2-1.8-3.1-2.7c-0.3-0.2-0.5-0.4-0.8-0.5c-0.1,0-0.1-0.1-0.2-0.1l-0.2-0.1l-0.1-0.1l-0.1,0l0,0l0,0c0,0,0.1,0,0.1,0l-0.2,0
			c-0.5-0.1-1,0-1.5,0.2c-1.1,0.5-2.1,1.1-3,1.8c-0.5,0.4-1.1,0.7-1.7,1c-0.7,0.4-1.5,0.5-2.3,0.5l-0.3-0.1l-0.1,0l0,0h0
			c-0.2,0-0.1,0-0.1,0l-0.1,0c-0.3-0.1-0.5-0.2-0.8-0.4c-0.2-0.1-0.5-0.3-0.7-0.5c-0.2-0.2-0.4-0.3-0.7-0.5
			c-0.9-0.7-1.7-1.5-2.4-2.3c-0.8-0.8-1.5-1.5-2.3-2.2c-0.4-0.3-0.7-0.7-1.1-1c-0.2-0.1-0.3-0.3-0.5-0.4c-0.2-0.1-0.2-0.2-0.4-0.3
			l-0.3-0.1l-0.1,0l0,0c0.1,0.1,0,0,0.1,0h0l-0.1,0c-0.1,0-0.3-0.1-0.4-0.1c-0.3,0-0.6,0-0.9,0c-0.6,0.1-1.2,0.2-1.8,0.5
			c-1.1,0.4-2.3,0.8-3.5,1.1c-0.3,0.1-0.6,0.1-1,0.1c-0.4,0-0.7,0-1.1-0.1l-0.2-0.1l-0.1,0l0,0l-0.1,0l0,0l-0.1,0
			c-0.2-0.1-0.4-0.2-0.6-0.3c-0.4-0.2-0.7-0.5-1-0.7c-1.2-0.9-2.3-1.9-3.3-2.9c-0.9-0.9-1.8-1.7-2.4-2.4c-1.3-1.4-2.1-2.2-2.1-2.2
			L-54.5,16.3z"/>
	</g>
	
		<linearGradient id="SVGID_3_" gradientUnits="userSpaceOnUse" x1="-809.1519" y1="5943.604" x2="-807.9479" y2="5943.604" gradientTransform="matrix(201.5746 0 0 -116.546 163384.1406 692890.625)">
		<stop  offset="1.200000e-02" style="stop-color:#D4EBEB"/>
		<stop  offset="1" style="stop-color:#E1F5F5"/>
	</linearGradient>
	<path class="st12" d="M462.8,229.6c-2.4,1.9-34.6-17-75.1-40.4s-74-42.4-71.6-44.3c2.4-1.9,34.9,16.9,75.4,40.3
		S465.2,227.7,462.8,229.6z"/>
	<g transform="translate(321.256 22.681)">
		<path class="st6" d="M143.9,187c0,3.1-2.2,4.4-4.9,2.9l-131.6-76c-2.9-1.9-4.8-5.1-4.9-8.6V12.7c0-3.1,2.2-4.4,4.9-2.9l131.6,76
			c2.9,1.9,4.8,5.1,4.9,8.6V187z"/>
		<path class="st13" d="M139.3,189.3c0,3.1-2.2,4.4-4.9,2.9l-131.6-76c-2.9-1.9-4.8-5.1-4.9-8.6V15c0-3.1,2.2-4.4,4.9-2.9l131.6,76
			c2.9,1.9,4.8,5.1,4.9,8.6L139.3,189.3z"/>
		<path class="st7" d="M135.2,187.6L1.9,110.7v-94l133.2,76.9V187.6z"/>
		<g transform="translate(16.38 123.073)">
			<path class="st14" d="M-1.7-11.1l-4.9-2.9v-10.2l4.9,2.9L-1.7-11.1z"/>
			<g transform="translate(22.225 0.661)">
				<path class="st14" d="M-7.7-2.4l-4.9-2.9v-19.1l4.9,2.9V-2.4z"/>
			</g>
			<g transform="translate(44.45 0.586)">
				<path class="st14" d="M-13.7,7l-4.9-2.9v-28.5l4.9,2.9L-13.7,7z"/>
			</g>
			<g transform="translate(66.675 19.686)">
				<path class="st14" d="M-19.8-2.7l-4.9-2.9v-23.9l4.9,2.9L-19.8-2.7z"/>
			</g>
			<g transform="translate(88.9 15.556)">
				<path class="st14" d="M-25.8,10.8l-4.9-2.9v-36.3l4.9,2.9L-25.8,10.8z"/>
			</g>
			<g transform="translate(111.125 19.53)">
				<path class="st14" d="M-31.8,16.1l-4.9-2.9v-42.8l4.9,2.9L-31.8,16.1z"/>
			</g>
			<g transform="translate(133.35 37.533)">
				<path class="st14" d="M-37.8,7.5l-4.9-2.9v-39l4.9,2.9V7.5z"/>
			</g>
			<g transform="translate(155.577 29.713)">
				<path class="st14" d="M-43.9,24.7l-4.9-2.9v-54l4.9,2.9V24.7z"/>
			</g>
		</g>
		<path class="st11" d="M12.2,92.8c0,0,1.8,0.1,4.9,0.2c1.6,0.1,3.5,0.1,5.7,0.2l3.5,0.1c0.6,0,1.2,0.1,1.9,0.1c0.3,0,0.6,0,1,0
			l0.9-0.1c2.6-0.2,5.3-0.7,8.3-0.9c1.6-0.1,3.3,0,4.9,0.4c0.2,0,0.5,0.1,0.7,0.2l0.4,0.1l0.2,0.1l0.1,0l0.1,0.1l0.7,0.4
			c0.2,0.1,0.5,0.3,0.7,0.5c1,0.7,1.9,1.5,2.8,2.3c1.8,1.7,3.6,3.5,5.4,5.3c0.9,0.9,1.8,1.8,2.7,2.6c0.9,0.8,1.8,1.5,2.8,2.2
			c0.2,0.1,0.4,0.3,0.7,0.4l0.3,0.2l0.3,0.1c0.2,0.1,0.5,0.1,0.7,0.2l0.6,0.1c0.8,0,1.7,0,2.5-0.2c1.6-0.3,3.2-0.8,4.7-1.3
			c1.6-0.5,3.1-1.1,4.7-1.5c0.8-0.2,1.7-0.3,2.6-0.3c0.9,0,1.8,0.1,2.7,0.1c3.7,0.2,7.3,0.8,10.9,1.8c0.5,0.1,0.9,0.3,1.4,0.5
			l0.7,0.3L93,107l0.2,0.1l0,0l0.1,0l0.1,0.1l0.7,0.4l0.7,0.5c0.5,0.3,0.9,0.7,1.4,1.1c1.8,1.5,3.4,3.1,5.1,4.7
			c1.6,1.5,3.2,3,4.7,4.3c0.7,0.6,1.5,1.1,2.3,1.6c0.3,0.2,0.7,0.4,1.1,0.5c0,0,0.1,0,0,0l0.1,0l0.1,0l0.3,0.1
			c0.2,0,0.4,0.1,0.5,0.1c0.3,0,0.6,0,0.9,0c0.3,0,0.6-0.1,0.9-0.1c0.6-0.1,1.1-0.2,1.7-0.4c1-0.3,2-0.7,2.9-1.2
			c1.8-0.9,3.3-1.7,4.6-2.3c1-0.5,2-1,3-1.3c0.3-0.1,0.6-0.2,0.9-0.2l0.3-0.1c0.1,0,0.2,0.1,0.2,0.2c0.1,0.1,0,0.2,0,0.2h0
			c0,0-0.1,0-0.3,0.1c-0.3,0.1-0.6,0.2-0.8,0.3c-1,0.4-2,0.9-3,1.4c-1.2,0.7-2.7,1.6-4.5,2.5c-0.9,0.5-1.9,0.9-2.9,1.3
			c-1.2,0.5-2.4,0.7-3.7,0.6c-0.2,0-0.4-0.1-0.5-0.1l-0.3,0l-0.1,0l-0.1,0c0,0-0.1,0-0.1,0c-0.4-0.1-0.8-0.3-1.2-0.5
			c-0.9-0.5-1.7-1.1-2.4-1.7c-1.6-1.3-3.2-2.8-4.8-4.3c-1.6-1.5-3.3-3.1-5-4.6c-0.4-0.3-0.9-0.7-1.3-1l-0.6-0.4l-0.7-0.4
			c-0.4-0.2-0.9-0.4-1.3-0.6c-0.4-0.2-0.9-0.3-1.3-0.5c-3.5-1-7.1-1.6-10.7-1.7c-0.9-0.1-1.8-0.1-2.7-0.1c-0.8,0-1.6,0.1-2.4,0.3
			c-1.6,0.4-3.1,1-4.7,1.5c-1.6,0.6-3.2,1-4.8,1.3c-0.9,0.2-1.8,0.2-2.7,0.2l-0.7-0.1c-0.2,0-0.5-0.1-0.7-0.2l-0.2-0.1l-0.1,0l0,0
			c0,0-0.1,0-0.1,0l-0.4-0.2c-0.3-0.1-0.5-0.3-0.8-0.4c-1.1-0.7-2.1-1.5-3-2.3c-1-0.9-1.9-1.8-2.8-2.7c-1.8-1.8-3.6-3.6-5.3-5.3
			c-0.8-0.8-1.7-1.5-2.6-2.2c-0.2-0.1-0.4-0.3-0.6-0.4l-0.7-0.4l0,0c0,0-0.1,0,0,0l-0.1,0l-0.2-0.1l-0.3-0.1
			c-0.2-0.1-0.4-0.1-0.6-0.2c-1.6-0.4-3.2-0.5-4.7-0.4c-3,0.1-5.7,0.6-8.3,0.7l-1,0.1c-0.3,0-0.6,0-1,0c-0.6,0-1.3-0.1-1.9-0.1
			L23,93.9l-5.7-0.4l-5-0.3c-0.1,0-0.2-0.1-0.2-0.2C12,92.9,12.1,92.8,12.2,92.8z"/>
		<g transform="translate(157.306 120.225)">
			<path class="st8" d="M-44.8-23.4l13.2,7.6v6.2l-3.5-4l-9.7-5.6L-44.8-23.4z"/>
		</g>
		<g transform="translate(135.023 125.125)">
			<path class="st8" d="M-38.8-24.7l13.2,7.6v6.2l-3.5-4l-9.7-5.6V-24.7z"/>
		</g>
		<g transform="translate(112.8 101.713)">
			<path class="st8" d="M-32.8-18.4l13.2,7.6v6.2l-3.5-4l-9.7-5.6L-32.8-18.4z"/>
		</g>
		<g transform="translate(90.571 103.707)">
			<path class="st8" d="M-26.7-18.9l13.2,7.6v6.2l-3.5-4l-9.7-5.6L-26.7-18.9z"/>
		</g>
		<g transform="translate(68.35 104.203)">
			<path class="st8" d="M-20.7-19.1l13.2,7.6v6.2l-3.5-4l-9.7-5.6L-20.7-19.1z"/>
		</g>
		<g transform="translate(45.479 80.35)">
			<path class="st8" d="M-14.5-12.6L-1.3-5v6.2l-3.5-4l-9.7-5.6L-14.5-12.6z"/>
		</g>
		<g transform="translate(23.898 82.058)">
			<path class="st8" d="M-8.7-13.1L4.5-5.4v6.2l-3.5-4l-9.7-5.6L-8.7-13.1z"/>
		</g>
	</g>
	<g transform="translate(136.738 97.003)">
		
			<linearGradient id="SVGID_4_" gradientUnits="userSpaceOnUse" x1="-935.3703" y1="5735.4878" x2="-934.6415" y2="5735.4878" gradientTransform="matrix(58.528 0 0 -33.901 54846.7734 194506.8594)">
			<stop  offset="1.200000e-02" style="stop-color:#D4EBEB"/>
			<stop  offset="1" style="stop-color:#E1F5F5"/>
		</linearGradient>
		<path class="st15" d="M101.5,68.1l21.3-12.4l21.4,12.3l-21.3,12.4L101.5,68.1z"/>
		
			<linearGradient id="SVGID_5_" gradientUnits="userSpaceOnUse" x1="-935.1992" y1="5735.6724" x2="-934.4704" y2="5735.6724" gradientTransform="matrix(58.528 0 0 -33.9041 54809.8477 194546.1719)">
			<stop  offset="1.200000e-02" style="stop-color:#D4EBEB"/>
			<stop  offset="1" style="stop-color:#E1F5F5"/>
		</linearGradient>
		<path class="st16" d="M74.5,83.6l21.3-12.4l21.4,12.3L95.9,96L74.5,83.6z"/>
		
			<linearGradient id="SVGID_6_" gradientUnits="userSpaceOnUse" x1="-935.0298" y1="5735.8315" x2="-934.301" y2="5735.8315" gradientTransform="matrix(58.5291 0 0 -33.9021 54774.2656 194555.6562)">
			<stop  offset="1.200000e-02" style="stop-color:#D4EBEB"/>
			<stop  offset="1" style="stop-color:#E1F5F5"/>
		</linearGradient>
		<path class="st17" d="M47.9,98.9l21.3-12.4l21.4,12.3l-21.3,12.4L47.9,98.9z"/>
		<g transform="translate(81.291)">
			<path class="st18" d="M57.1-2l-0.2,70l-15.5,9l0.2-70L57.1-2z"/>
			<path class="st19" d="M41.6,7l-0.2,70l-15.6-9L26-2L41.6,7z"/>
			<path class="st20" d="M57.1-2L41.6,7L26-2l15.5-9L57.1-2z"/>
			<path class="st21" d="M42,7l-0.4,70c0,0.1-0.1,0.2-0.2,0.2c-0.1,0-0.2-0.1-0.2-0.2l0-70c0-0.2,0.2-0.4,0.4-0.4
				C41.8,6.7,42,6.8,42,7L42,7z"/>
			<path class="st21" d="M41.4,6.7L57-2.1c0.1,0,0.2,0,0.2,0.1c0,0.1,0,0.2-0.1,0.2l0,0L41.8,7.3c-0.2,0.1-0.4,0-0.5-0.1
				C41.2,7,41.3,6.8,41.4,6.7L41.4,6.7z"/>
			<path class="st21" d="M41.4,7.3L25.9-1.8c-0.1,0-0.1-0.1-0.1-0.2c0-0.1,0.1-0.1,0.2-0.1l15.7,8.8C41.9,6.8,42,7,41.9,7.2
				C41.8,7.4,41.6,7.4,41.4,7.3L41.4,7.3L41.4,7.3z"/>
		</g>
		<g transform="translate(44.435 59.234)">
			<path class="st22" d="M67-18l-0.1,42l-15.5,9l0.1-42L67-18z"/>
			<path class="st23" d="M51.6-9l-0.1,42l-15.6-9L36-18L51.6-9z"/>
			<path class="st22" d="M67-18L51.6-9L36-18l15.5-9L67-18z"/>
			<path class="st21" d="M51.9-9l-0.3,42c0,0.1-0.1,0.2-0.2,0.2c-0.1,0-0.2-0.1-0.2-0.2L51.2-9c0-0.2,0.2-0.4,0.4-0.4
				C51.8-9.4,51.9-9.2,51.9-9L51.9-9z"/>
			<path class="st21" d="M51.4-9.3L67-18.2c0.1,0,0.2,0,0.2,0.1c0,0.1,0,0.2-0.1,0.2l0,0L51.7-8.7c-0.2,0.1-0.4,0.1-0.5-0.1
				C51.1-9,51.2-9.2,51.4-9.3C51.4-9.3,51.4-9.3,51.4-9.3L51.4-9.3z"/>
			<path class="st21" d="M51.4-8.7l-15.5-9.2c-0.1,0-0.1-0.1-0.1-0.2c0-0.1,0.1-0.1,0.2-0.1l15.7,8.8C51.9-9.2,52-9,51.9-8.8
				C51.8-8.7,51.6-8.6,51.4-8.7L51.4-8.7z"/>
		</g>
		<g transform="translate(7.647 61.843)">
			<path class="st24" d="M77-18.7l-0.2,56l-15.5,9l0.2-56L77-18.7z"/>
			<path class="st25" d="M61.5-9.7l-0.2,56l-15.6-9l0.2-56L61.5-9.7z"/>
			<path class="st26" d="M77-18.7l-15.5,9l-15.6-9l15.5-9L77-18.7z"/>
			<path class="st21" d="M61,46.3l0.3-56c0-0.1,0.1-0.2,0.2-0.2c0.1,0,0.2,0.1,0.2,0.2l0,56c0,0.2-0.2,0.4-0.4,0.4
				C61.2,46.7,61,46.5,61,46.3L61,46.3z"/>
			<path class="st21" d="M61.4-10l15.6-8.8c0.1,0,0.2,0,0.2,0.1c0,0.1,0,0.2-0.1,0.2l0,0L61.7-9.4c-0.2,0.1-0.4,0.1-0.5-0.1
				C61.1-9.7,61.2-9.9,61.4-10C61.3-10,61.3-10,61.4-10L61.4-10z"/>
			<path class="st21" d="M61.4-9.4l-15.5-9.2c-0.1,0-0.1-0.1-0.1-0.2c0-0.1,0.1-0.1,0.2-0.1l0,0L61.7-10c0.2,0.1,0.2,0.3,0.1,0.5
				C61.8-9.4,61.5-9.3,61.4-9.4L61.4-9.4z"/>
		</g>
	</g>
	<g transform="translate(0 309.742)">
		<path class="st27" d="M126.4,31.6c7.7,4.5,7.8,11.7,0.1,16.2s-20.2,4.5-27.9,0s-7.8-11.7-0.1-16.2S118.7,27.1,126.4,31.6z"/>
		<path class="st28" d="M130.6,13.7c0,8.2,0,16.4-0.1,24.6c0,2.7-1.8,5.3-5.3,7.4c-7.1,4.1-18.6,4.1-25.7,0
			c-3.6-2.1-5.4-4.8-5.4-7.5c0-8.2,0-16.4,0.1-24.6c0,2.7,1.8,5.4,5.4,7.5c7.1,4.1,18.6,4.1,25.7,0
			C128.9,19.1,130.6,16.4,130.6,13.7z"/>
		<path class="st29" d="M125.3,6.2c7.1,4.1,7.2,10.8,0.1,14.9s-18.6,4.1-25.7,0s-7.2-10.8-0.1-14.9C106.7,2.1,118.2,2.1,125.3,6.2z"
			/>
		<path class="st28" d="M124.8,16.1c-0.8,1.2-1.8,2.2-3.1,2.9c-5.1,2.9-13.3,2.9-18.4,0c-1.3-0.7-2.4-1.7-3.2-3
			c-1.5-2.6-0.5-5.6,3.1-7.7c5.1-2.9,13.3-2.9,18.4,0C125.3,10.4,126.3,13.5,124.8,16.1z"/>
		<path class="st30" d="M124.8,16.1c-0.8,1.2-1.8,2.2-3.1,2.9c-5.1,2.9-13.3,2.9-18.4,0c-1.6,0.1-3.1-1.1-3.2-2.7
			c-0.1-1.6,1.1-3.1,2.7-3.2c0.1,0,0.2,0,0.4,0c5.1-2.9,13.3-2.9,18.4,0C123,13.8,124.1,14.8,124.8,16.1z"/>
		<path class="st31" d="M112.4,19c0,0,0-0.3,0-1c0-0.6,0-1.6,0-2.8c0-1.2,0-2.6,0-4.3c0-0.8,0-1.7,0-2.6c0-0.9,0-1.9,0-2.9
			c0-2,0-4.3,0-6.6c0-1.2,0-2.4,0-3.6c0-1.2,0-2.5,0-3.8c0-2.6,0-5.2,0.1-7.9s0.1-5.4,0.1-8.1c0.1-2.7,0.1-5.4,0.2-8.1
			c0.1-2.7,0.1-5.3,0.2-7.9c0.1-2.6,0.2-5,0.2-7.4c0.1-2.3,0.2-4.6,0.2-6.6c0.1-2,0.2-3.9,0.2-5.6c0.1-1.7,0.2-3.1,0.2-4.3
			c0-1.2,0.1-2.1,0.1-2.8c0-0.6,0-1,0-1v-0.1c0-0.3,0.2-0.5,0.5-0.4c0.2,0,0.4,0.2,0.4,0.4c0,0,0,0.3,0.1,1s0.1,1.6,0.2,2.8
			c0.1,1.2,0.1,2.7,0.2,4.3s0.1,3.5,0.2,5.6c0,2,0.1,4.3,0.1,6.6s0.1,4.8,0.1,7.4c0,2.6,0,5.2,0,7.9c0,2.7-0.1,5.4-0.1,8.1
			c0,2.7-0.1,5.5-0.2,8.1c-0.1,2.7-0.1,5.3-0.2,7.9c0,1.3-0.1,2.5-0.1,3.8c0,1.2-0.1,2.4-0.2,3.6c-0.1,1.2-0.1,2.3-0.2,3.4
			c-0.1,1.1-0.1,2.2-0.2,3.2c-0.1,1-0.1,2-0.2,2.9c-0.1,0.9-0.1,1.8-0.2,2.6s-0.1,1.6-0.2,2.3c-0.1,0.7-0.1,1.4-0.2,2
			c-0.1,1.2-0.2,2.1-0.3,2.8c-0.1,0.6-0.1,1-0.1,1c0,0.3-0.3,0.4-0.5,0.4C112.6,19.4,112.4,19.2,112.4,19L112.4,19z"/>
		<path class="st25" d="M112.8,18.4c0,0,0-0.2,0-0.7c0-0.5,0-1.1,0-2c0-0.9,0-1.9,0.1-3.1s0.1-2.6,0.1-4c0-0.7,0.1-1.5,0.1-2.3
			c0-0.8,0.1-1.6,0.1-2.5c0.1-1.7,0.2-3.5,0.3-5.3s0.3-3.7,0.4-5.7c0.2-1.9,0.3-3.9,0.5-5.9c0.1-1,0.2-2,0.3-2.9
			c0.1-1,0.2-1.9,0.3-2.9c0.2-1.9,0.4-3.8,0.7-5.7s0.5-3.6,0.7-5.3c0.2-1.7,0.5-3.3,0.8-4.7c0.2-1.5,0.5-2.8,0.7-4
			c0.1-0.6,0.2-1.1,0.4-1.7c0.1-0.5,0.2-1,0.3-1.4s0.2-0.8,0.3-1.1s0.2-0.6,0.3-0.8c0.2-0.5,0.2-0.7,0.2-0.7
			c0.1-0.2,0.4-0.4,0.6-0.3c0.2,0.1,0.3,0.3,0.3,0.5l0,0c0,0,0,0.2-0.1,0.7s-0.2,1.1-0.3,1.9c-0.1,0.4-0.1,0.9-0.2,1.4
			c0,0.5-0.1,1.1-0.2,1.7c-0.1,0.6-0.1,1.2-0.2,1.9c-0.1,0.7-0.1,1.4-0.2,2.1c-0.2,2.9-0.5,6.4-0.8,10c-0.2,1.8-0.3,3.7-0.5,5.7
			c-0.2,1.9-0.4,3.9-0.5,5.8c-0.1,1-0.2,2-0.3,2.9c-0.1,1-0.2,1.9-0.3,2.9c-0.2,1.9-0.4,3.8-0.6,5.7s-0.4,3.6-0.6,5.3
			c-0.1,0.8-0.2,1.7-0.3,2.4c-0.1,0.8-0.2,1.6-0.3,2.3c-0.1,0.7-0.2,1.4-0.3,2.1c-0.1,0.7-0.2,1.3-0.3,1.9c-0.2,1.2-0.3,2.2-0.4,3.1
			s-0.2,1.5-0.3,2l-0.1,0.7c-0.1,0.3-0.3,0.4-0.6,0.4C113,18.8,112.9,18.6,112.8,18.4L112.8,18.4z"/>
		<path class="st25" d="M115.3,16.3c0,0,0-0.3,0.1-0.8c0-0.5,0.1-1.3,0.2-2.3c0.1-1,0.2-2.2,0.4-3.6c0.1-0.7,0.2-1.4,0.3-2.2
			c0.1-0.8,0.2-1.6,0.3-2.5s0.3-1.8,0.4-2.7c0.1-0.9,0.3-1.9,0.5-2.9c0.3-2,0.7-4,1-6.2c0.4-2.1,0.8-4.3,1.2-6.6s0.9-4.5,1.4-6.8
			s1-4.5,1.5-6.7s1.1-4.4,1.6-6.5c0.5-2.1,1.1-4.1,1.7-6c0.6-1.9,1.1-3.7,1.7-5.4c0.6-1.7,1.1-3.2,1.6-4.5c0.5-1.3,1-2.5,1.5-3.4
			c0.4-0.7,0.8-1.4,1.2-2.1l0.2-0.3c0.1-0.1,0.1-0.2,0.2-0.2c0.1-0.1,0.1-0.2,0.1-0.2c0.2-0.2,0.5-0.2,0.7,0
			c0.2,0.2,0.2,0.4,0.1,0.6l0,0l-0.1,0.2c0,0.1-0.1,0.1-0.1,0.2s-0.1,0.2-0.2,0.3c-0.3,0.7-0.6,1.4-0.9,2.1
			c-0.3,0.9-0.7,2.1-1.1,3.4c-0.4,1.3-0.8,2.9-1.2,4.5c-0.4,1.7-0.9,3.5-1.3,5.4c-0.5,1.9-0.9,4-1.4,6.1c-0.5,2.1-0.9,4.3-1.4,6.5
			c-0.5,2.2-1,4.5-1.4,6.7c-1,4.5-1.9,9-2.8,13.2c-0.5,2.1-0.9,4.2-1.3,6.1c-0.2,1-0.4,1.9-0.6,2.8c-0.2,0.9-0.4,1.8-0.6,2.6
			c-1.5,6.8-2.5,11.3-2.5,11.3c-0.1,0.3-0.3,0.4-0.6,0.4C115.4,16.7,115.2,16.5,115.3,16.3L115.3,16.3z"/>
		<path class="st25" d="M111,16.4c0,0-0.1-0.3-0.1-0.8c-0.1-0.5-0.2-1.3-0.3-2.2c-0.1-0.9-0.3-2.1-0.5-3.4c-0.1-0.7-0.2-1.4-0.3-2.1
			c-0.1-0.7-0.2-1.5-0.3-2.3c-0.1-0.8-0.2-1.7-0.3-2.5c-0.1-0.9-0.2-1.8-0.3-2.7c-0.2-1.9-0.4-3.8-0.6-5.9
			c-0.4-4.1-0.8-8.4-1.2-12.7c-0.4-4.3-0.9-8.6-1.3-12.7c-0.2-2-0.5-4-0.7-5.8c-0.2-1.8-0.5-3.6-0.7-5.2c-0.1-0.8-0.3-1.6-0.4-2.3
			c-0.1-0.7-0.3-1.4-0.4-2.1c-0.1-0.6-0.3-1.2-0.4-1.8c-0.1-0.5-0.3-1.1-0.4-1.5c-0.3-0.9-0.4-1.6-0.6-2.1c-0.2-0.5-0.3-0.7-0.3-0.7
			l0,0c-0.1-0.2,0-0.5,0.3-0.6c0.2-0.1,0.5,0,0.6,0.2l0.4,0.7c0.1,0.2,0.3,0.5,0.4,0.9c0.1,0.4,0.3,0.7,0.5,1.2
			c0.2,0.5,0.4,1,0.6,1.5c0.2,0.6,0.4,1.2,0.6,1.8c0.2,0.6,0.4,1.3,0.6,2.1c0.2,0.7,0.4,1.5,0.6,2.3c0.4,1.6,0.8,3.4,1.1,5.2
			c0.2,0.9,0.3,1.9,0.5,2.9c0.1,0.5,0.2,1,0.2,1.5c0.1,0.5,0.2,1,0.2,1.5c0.3,2,0.6,4.1,0.9,6.3c0.1,1.1,0.3,2.1,0.4,3.2
			c0.1,1.1,0.2,2.2,0.3,3.3c0.2,2.2,0.4,4.3,0.6,6.5c0.2,2.1,0.3,4.3,0.5,6.3c0.1,1,0.1,2,0.2,3c0,1,0.1,1.9,0.1,2.9
			c0,0.9,0.1,1.8,0.1,2.7c0,0.9,0.1,1.7,0.1,2.6c0,0.8,0.1,1.6,0.1,2.3s0,1.5,0.1,2.1c0,1.3,0,2.5,0.1,3.4s0,1.7,0,2.2
			c0,0.5,0,0.8,0,0.8l0,0c0,0.3-0.2,0.5-0.5,0.5C111.3,16.8,111.1,16.6,111,16.4L111,16.4z"/>
		<path class="st25" d="M109.9,16.4c0,0-0.3-1.1-0.8-3.1c-0.3-1-0.6-2.2-0.9-3.6l-0.5-2.2l-0.6-2.4c-0.2-0.8-0.4-1.7-0.6-2.6
			c-0.2-0.9-0.4-1.9-0.7-2.8c-0.5-1.9-0.9-4-1.5-6.1c-1-4.2-2-8.7-3.1-13.2l-1.6-6.7c-0.5-2.2-1.1-4.4-1.6-6.5
			c-0.3-1.1-0.5-2.1-0.8-3.1c-0.3-1-0.5-2-0.8-3c-0.2-1-0.5-1.9-0.7-2.8c-0.2-0.9-0.5-1.8-0.7-2.6c-0.2-0.8-0.5-1.6-0.7-2.4
			l-0.7-2.1c-0.2-0.7-0.4-1.3-0.6-1.9c-0.2-0.6-0.4-1.1-0.6-1.6c-0.2-0.5-0.4-0.9-0.5-1.2c-0.1-0.2-0.1-0.3-0.2-0.5
			c-0.1-0.1-0.1-0.3-0.2-0.4L91.3-55l0,0c-0.1-0.2,0-0.5,0.2-0.6c0.2-0.1,0.5,0,0.6,0.2l0.5,0.7l0.3,0.4c0.1,0.1,0.2,0.3,0.3,0.5
			c0.2,0.3,0.4,0.8,0.7,1.2l0.8,1.5c0.3,0.6,0.5,1.2,0.8,1.8c0.3,0.7,0.6,1.4,0.9,2.1c0.3,0.7,0.6,1.5,0.9,2.4
			c0.3,0.8,0.6,1.7,0.9,2.6c0.3,0.9,0.6,1.8,0.9,2.8c0.6,1.9,1.2,3.9,1.8,6c0.6,2.1,1.2,4.3,1.8,6.5s1.1,4.5,1.7,6.7
			c0.3,1.1,0.5,2.3,0.8,3.4s0.5,2.3,0.8,3.4c0.5,2.2,0.9,4.4,1.4,6.6c0.2,1.1,0.4,2.1,0.6,3.1c0.2,1,0.4,2,0.6,3s0.4,1.9,0.5,2.9
			c0.2,0.9,0.3,1.8,0.4,2.7c0.3,1.7,0.5,3.3,0.7,4.7c0.2,1.4,0.4,2.6,0.5,3.6s0.2,1.8,0.3,2.3c0.1,0.5,0.1,0.8,0.1,0.8
			c0,0.3-0.2,0.5-0.4,0.5C110.2,16.8,110,16.7,109.9,16.4L109.9,16.4z"/>
		<path class="st32" d="M111.1,18c0,0-0.1-0.3-0.2-0.7l-0.3-0.8c-0.1-0.3-0.3-0.7-0.4-1.2l-1.2-3.1l-1.6-4.1l-8.8-21.9
			c-1.6-4-3.2-7.9-4.7-11.7c-0.8-1.9-1.5-3.7-2.2-5.4c-0.7-1.7-1.4-3.3-2-4.8c-0.6-1.5-1.2-2.8-1.8-4c-0.3-0.6-0.5-1.1-0.8-1.6
			c-0.2-0.5-0.5-1-0.7-1.4c-0.2-0.4-0.4-0.8-0.6-1.1c-0.2-0.3-0.3-0.6-0.5-0.8C85.2-44.8,85-45,85-45l0,0c-0.1-0.2-0.1-0.5,0.1-0.7
			c0.2-0.1,0.5-0.1,0.6,0.1l0.5,0.6c0.2,0.2,0.4,0.5,0.6,0.8s0.5,0.6,0.7,1c0.3,0.4,0.6,0.8,0.9,1.3c0.3,0.5,0.6,1,1,1.6
			c0.7,1.1,1.4,2.4,2.1,3.9c0.7,1.4,1.5,3,2.3,4.7s1.6,3.4,2.5,5.3s1.7,3.7,2.5,5.7s1.7,3.9,2.5,5.9c0.8,2,1.6,4,2.3,6
			s1.5,3.9,2.2,5.8s1.3,3.7,1.9,5.5c0.6,1.7,1.1,3.4,1.6,5c0.5,1.5,0.9,3,1.3,4.2c0.2,0.6,0.3,1.2,0.5,1.8s0.3,1.1,0.4,1.5l0.3,1.2
			c0.1,0.4,0.1,0.7,0.2,0.9c0.1,0.5,0.1,0.8,0.1,0.8l0,0c0,0.3-0.2,0.5-0.4,0.5C111.4,18.4,111.2,18.3,111.1,18L111.1,18z"/>
		<path class="st25" d="M108.7,16.6c0,0-0.1-0.1-0.2-0.3c-0.2-0.2-0.4-0.5-0.6-1c-0.5-0.8-1.3-2-2.1-3.5c-0.4-0.7-0.9-1.5-1.4-2.4
			s-1-1.7-1.5-2.7c-0.5-0.9-1-1.9-1.5-2.9c-0.5-1-1-2-1.6-3l-1.5-3c-0.5-1-1-2-1.5-2.9c-0.9-1.9-1.8-3.6-2.6-5.1
			c-0.4-0.7-0.7-1.4-1.1-2s-0.6-1.1-0.9-1.5c-0.1-0.2-0.2-0.4-0.3-0.5c-0.1-0.1-0.2-0.3-0.3-0.4c-0.1-0.2-0.2-0.3-0.2-0.3l0-0.1
			c-0.2-0.2-0.1-0.5,0.1-0.7c0.2-0.1,0.4-0.1,0.6,0l0.3,0.3c0.1,0.1,0.3,0.2,0.4,0.3c0.1,0.1,0.3,0.3,0.5,0.5
			c0.4,0.4,0.8,0.8,1.2,1.4c0.4,0.6,0.9,1.2,1.4,1.9c0.5,0.7,1,1.5,1.6,2.3s1.1,1.7,1.6,2.6c0.5,0.9,1.1,1.9,1.7,2.8
			c0.5,1,1.1,2,1.6,3c0.5,1,1,2,1.5,3s1,2,1.4,3s0.9,1.9,1.2,2.8s0.7,1.7,1.1,2.5c0.6,1.6,1.1,2.9,1.4,3.9c0.2,0.5,0.3,0.8,0.4,1.1
			l0.1,0.4c0.1,0.3-0.1,0.5-0.3,0.6C109,16.8,108.8,16.7,108.7,16.6L108.7,16.6z"/>
		<path class="st33" d="M107.4,18.6c0,0-0.3-0.3-0.7-0.9c-0.2-0.3-0.5-0.7-0.8-1.1c-0.3-0.4-0.6-0.9-1-1.4c-0.7-1-1.5-2.3-2.4-3.6
			c-0.4-0.7-0.8-1.4-1.3-2.1c-0.4-0.7-0.9-1.4-1.3-2.2c-0.4-0.7-0.8-1.4-1.3-2.2c-0.4-0.7-0.8-1.4-1.2-2.1c-0.4-0.7-0.8-1.3-1.1-2
			s-0.7-1.2-1-1.7c-0.6-1.1-1.2-1.9-1.6-2.5c-0.2-0.3-0.4-0.5-0.5-0.7L93.2-4l0,0C93-4.3,93-4.6,93.2-4.7c0.2-0.1,0.4-0.1,0.5,0
			L94-4.6c0.3,0.2,0.5,0.3,0.8,0.5c0.3,0.2,0.7,0.5,1.1,0.9c0.4,0.4,0.8,0.8,1.3,1.3c1,1.1,1.9,2.3,2.8,3.5c0.5,0.7,0.9,1.3,1.4,2
			l0.7,1.1l0.7,1.1c0.4,0.7,0.9,1.5,1.3,2.2s0.8,1.5,1.1,2.2c0.4,0.7,0.7,1.4,1,2.1c0.3,0.7,0.6,1.3,0.8,1.9
			c0.5,1.2,0.9,2.2,1.1,2.9c0.1,0.4,0.2,0.6,0.3,0.8s0.1,0.3,0.1,0.3c0.1,0.3-0.1,0.5-0.3,0.6C107.8,18.8,107.6,18.8,107.4,18.6
			L107.4,18.6z"/>
		<path class="st25" d="M116.1,17.9c0,0,0-0.2,0-0.5c0-0.4,0.1-0.9,0.2-1.5c0.1-0.6,0.2-1.4,0.4-2.3c0.1-0.4,0.2-0.9,0.2-1.4
			c0.1-0.5,0.2-1,0.3-1.6c0.1-0.5,0.2-1.1,0.3-1.7c0.1-0.6,0.3-1.2,0.4-1.8c0.3-1.2,0.6-2.6,0.9-3.9c0.3-1.3,0.7-2.7,1-4.1
			s0.8-2.8,1.2-4.3c0.2-0.7,0.4-1.4,0.6-2.1c0.2-0.7,0.4-1.4,0.6-2.1c0.4-1.4,0.8-2.8,1.3-4.1c0.4-1.3,0.9-2.6,1.3-3.8
			s0.9-2.3,1.3-3.4c0.4-1,0.8-2,1.2-2.8c0.4-0.8,0.7-1.6,1-2.1c0.2-0.3,0.3-0.6,0.4-0.8c0.1-0.2,0.3-0.4,0.3-0.6
			c0.2-0.3,0.3-0.5,0.3-0.5c0.2-0.2,0.5-0.3,0.7-0.1c0.2,0.1,0.2,0.4,0.2,0.6l0,0.1c0,0-0.1,0.2-0.2,0.4c-0.1,0.2-0.1,0.3-0.2,0.6
			c-0.1,0.2-0.2,0.5-0.3,0.8c-0.1,0.3-0.2,0.6-0.3,1c-0.1,0.4-0.2,0.8-0.3,1.2c-0.2,0.9-0.5,1.8-0.8,2.9c-0.6,2.1-1.2,4.6-1.9,7.3
			c-0.4,1.3-0.7,2.7-1.1,4.1s-0.8,2.8-1.2,4.2c-0.4,1.4-0.8,2.8-1.2,4.2s-0.8,2.8-1.2,4.1c-0.2,0.7-0.4,1.3-0.6,1.9
			s-0.4,1.3-0.6,1.9c-0.2,0.6-0.4,1.2-0.5,1.8c-0.2,0.6-0.4,1.1-0.5,1.6c-0.3,1.1-0.6,2-0.9,2.9c-0.3,0.9-0.5,1.6-0.7,2.2
			c-0.2,0.6-0.4,1.1-0.5,1.4l-0.2,0.5v0c-0.1,0.3-0.4,0.4-0.6,0.3C116.2,18.3,116.1,18.1,116.1,17.9L116.1,17.9z"/>
		<path class="st33" d="M118.3,16.2c0,0,0-0.1,0-0.3s0.1-0.4,0.1-0.8c0.1-0.6,0.4-1.6,0.7-2.6c0.2-0.5,0.3-1.1,0.5-1.7
			c0.2-0.6,0.4-1.2,0.7-1.9c0.2-0.6,0.5-1.3,0.8-2s0.6-1.3,0.9-2c0.3-0.7,0.6-1.3,1-2c0.3-0.7,0.7-1.3,1-1.9
			c0.4-0.6,0.7-1.2,1.1-1.7c0.3-0.5,0.7-1,1-1.5s0.7-0.9,1-1.2c0.2-0.2,0.3-0.3,0.4-0.5c0.1-0.1,0.3-0.3,0.4-0.4s0.3-0.2,0.4-0.3
			c0.1-0.1,0.2-0.2,0.3-0.2l0.3-0.2c0.2-0.1,0.5-0.1,0.7,0.1c0.1,0.2,0.1,0.4,0,0.5l0,0.1c0,0,0,0.1-0.1,0.2
			c-0.1,0.1-0.2,0.3-0.3,0.6L128.9-3c-0.1,0.2-0.2,0.4-0.3,0.6L128-1.1c-0.4,1-0.9,2.2-1.5,3.4c-0.3,0.6-0.6,1.3-0.8,1.9
			c-0.1,0.3-0.3,0.7-0.4,1l-0.5,1c-0.3,0.7-0.6,1.3-0.9,2c-0.3,0.6-0.6,1.3-0.9,1.9c-0.3,0.6-0.6,1.2-0.9,1.8
			c-0.3,0.6-0.6,1.1-0.9,1.6c-0.6,1-1,1.7-1.4,2.3c-0.2,0.3-0.3,0.5-0.4,0.6l-0.2,0.2l0,0c-0.2,0.2-0.5,0.3-0.7,0.1c0,0,0,0,0,0
			C118.4,16.5,118.3,16.4,118.3,16.2z"/>
		<path class="st31" d="M111,19.1c0,0-0.2-0.9-0.5-2.5c-0.2-0.8-0.4-1.8-0.6-2.9c-0.1-0.6-0.2-1.1-0.3-1.8c-0.1-0.6-0.2-1.3-0.4-2
			c-0.1-0.7-0.3-1.4-0.4-2.1s-0.3-1.5-0.4-2.3c-0.3-1.6-0.6-3.2-0.9-4.9s-0.6-3.5-0.9-5.3c-0.3-1.8-0.6-3.6-0.9-5.5
			c-0.6-3.7-1.2-7.3-1.7-10.8c-0.3-1.7-0.5-3.4-0.8-4.9c-0.3-1.6-0.5-3.1-0.7-4.4c-0.2-1.4-0.5-2.6-0.7-3.7
			c-0.2-1.1-0.4-2.1-0.6-2.8c-0.1-0.4-0.2-0.7-0.3-1c-0.1-0.3-0.1-0.5-0.2-0.7l-0.2-0.6l0,0c-0.1-0.2,0.1-0.5,0.3-0.6
			c0.2-0.1,0.5,0,0.6,0.2l0.3,0.6c0.1,0.2,0.2,0.5,0.4,0.8c0.1,0.3,0.3,0.6,0.4,1c0.3,0.8,0.6,1.7,1,2.8c0.3,1.1,0.7,2.3,1.1,3.7
			c0.4,1.4,0.7,2.8,1.1,4.4s0.7,3.2,1.1,4.9c0.2,0.9,0.4,1.7,0.5,2.6s0.3,1.8,0.5,2.7c0.3,1.8,0.6,3.6,0.9,5.5s0.6,3.7,0.8,5.5
			s0.5,3.6,0.7,5.3c0.1,0.9,0.2,1.7,0.3,2.6c0.1,0.8,0.2,1.7,0.3,2.4c0.1,0.8,0.2,1.6,0.2,2.3s0.1,1.5,0.2,2.2
			c0.1,1.4,0.2,2.7,0.3,3.8s0.2,2.1,0.2,2.9c0,0.8,0.1,1.5,0.1,1.9c0,0.4,0,0.7,0,0.7c0,0.3-0.2,0.5-0.4,0.5
			C111.3,19.5,111.1,19.3,111,19.1L111,19.1z"/>
		<path class="st31" d="M109.9,19.2c0,0-0.4-0.6-0.9-1.8c-0.3-0.6-0.6-1.2-1-2c-0.2-0.4-0.4-0.8-0.6-1.3c-0.2-0.4-0.4-0.9-0.7-1.4
			c-0.2-0.5-0.5-1-0.7-1.5s-0.5-1.1-0.8-1.6c-0.5-1.1-1.1-2.3-1.6-3.6c-0.5-1.2-1.1-2.5-1.7-3.8c-0.6-1.3-1.1-2.6-1.7-4
			s-1.1-2.7-1.7-4S97.5-8.3,97-9.6c-1-2.5-2-4.8-2.8-6.8c-0.4-1-0.8-1.9-1.1-2.7c-0.4-0.8-0.6-1.5-0.9-2.1c-0.1-0.3-0.3-0.5-0.4-0.7
			s-0.2-0.4-0.3-0.5c-0.2-0.3-0.2-0.4-0.2-0.4l0,0c-0.1-0.2,0-0.5,0.2-0.6c0.2-0.1,0.4-0.1,0.6,0.1c0,0,0.1,0.1,0.4,0.4
			c0.1,0.1,0.3,0.3,0.4,0.5c0.2,0.2,0.3,0.4,0.5,0.7c0.4,0.5,0.8,1.2,1.3,1.9c0.5,0.8,1,1.6,1.5,2.6c0.5,1,1.1,2,1.7,3.1
			c0.6,1.1,1.2,2.3,1.7,3.5c0.6,1.2,1.2,2.5,1.8,3.8s1.2,2.6,1.7,4c0.6,1.3,1.1,2.7,1.7,4c0.5,1.3,1,2.6,1.5,3.9
			c0.2,0.6,0.5,1.3,0.7,1.9c0.2,0.6,0.4,1.2,0.6,1.8c0.2,0.6,0.4,1.2,0.6,1.7c0.2,0.6,0.4,1.1,0.5,1.6c0.4,1,0.7,2,0.9,2.8
			c0.3,0.8,0.5,1.6,0.7,2.2c0.2,0.6,0.3,1.1,0.4,1.4c0.1,0.3,0.1,0.5,0.1,0.5c0.1,0.3-0.1,0.5-0.3,0.6
			C110.3,19.5,110.1,19.4,109.9,19.2L109.9,19.2z"/>
		<path class="st31" d="M114,17.9c0,0,0-0.2,0-0.6c0-0.4,0-1,0-1.7c0-0.7,0-1.6,0.1-2.6s0.1-2.2,0.2-3.4c0-0.6,0.1-1.3,0.1-1.9
			c0.1-0.7,0.1-1.4,0.2-2.1s0.1-1.4,0.2-2.2c0.1-0.7,0.1-1.5,0.2-2.3c0.2-1.5,0.3-3.1,0.5-4.8c0.2-1.6,0.4-3.3,0.6-4.9
			s0.5-3.3,0.7-4.9c0.1-0.8,0.3-1.6,0.4-2.4s0.3-1.6,0.4-2.3s0.3-1.5,0.4-2.3s0.3-1.5,0.4-2.2c0.3-1.4,0.6-2.7,0.9-3.9
			c0.3-1.2,0.6-2.3,0.9-3.3c0.3-1,0.6-1.8,0.9-2.5c0.1-0.3,0.3-0.7,0.4-0.9c0.1-0.2,0.2-0.5,0.3-0.7l0.3-0.6
			c0.1-0.2,0.4-0.3,0.6-0.2c0.2,0.1,0.3,0.3,0.2,0.6l0,0.1c0,0-0.1,0.2-0.2,0.5c-0.1,0.2-0.1,0.4-0.2,0.7c-0.1,0.3-0.1,0.6-0.2,0.9
			c-0.2,0.7-0.3,1.5-0.5,2.5c-0.2,1-0.3,2.1-0.5,3.3c-0.2,1.2-0.4,2.5-0.6,3.9c-0.2,1.4-0.4,2.9-0.6,4.4c-0.4,3.1-0.8,6.3-1.3,9.6
			c-0.2,1.6-0.4,3.3-0.7,4.9c-0.2,1.6-0.5,3.2-0.7,4.7s-0.5,3-0.7,4.4c-0.1,0.7-0.2,1.4-0.3,2s-0.2,1.3-0.3,1.9
			c-0.1,0.6-0.2,1.2-0.3,1.8c-0.1,0.6-0.2,1.1-0.3,1.6c-0.2,1-0.3,1.9-0.5,2.6c-0.1,0.7-0.3,1.3-0.3,1.7S115,18,115,18
			c-0.1,0.3-0.3,0.4-0.6,0.4C114.2,18.3,114.1,18.1,114,17.9L114,17.9z"/>
		<path class="st31" d="M114.7,18.3c0,0,0-0.1,0.1-0.4c0-0.3,0.1-0.6,0.2-1.1s0.2-1.1,0.3-1.7c0.1-0.7,0.3-1.4,0.5-2.2
			c0.4-1.6,1-3.5,1.6-5.5c0.3-1,0.7-2,1.1-3s0.8-2.1,1.3-3.1c0.5-1,0.9-2,1.4-3s1-1.9,1.5-2.9s1.1-1.8,1.6-2.6
			c0.3-0.4,0.6-0.8,0.8-1.2c0.3-0.4,0.6-0.7,0.8-1.1c0.3-0.3,0.5-0.6,0.8-0.9c0.3-0.3,0.5-0.6,0.8-0.8c0.4-0.4,0.9-0.8,1.4-1.2
			c0.3-0.2,0.6-0.5,1-0.7l0.4-0.2c0.2-0.1,0.5-0.1,0.7,0.2c0.1,0.2,0.1,0.4-0.1,0.6l0,0l-0.3,0.3c-0.1,0.1-0.2,0.2-0.3,0.3
			s-0.2,0.3-0.4,0.5c-0.3,0.3-0.6,0.8-1,1.3l-0.6,0.9c-0.2,0.3-0.4,0.6-0.6,1c-0.2,0.3-0.4,0.7-0.6,1.1c-0.2,0.4-0.4,0.8-0.6,1.2
			c-0.2,0.4-0.4,0.8-0.7,1.3l-0.7,1.3c-0.4,0.9-0.9,1.9-1.3,2.8c-0.2,0.5-0.4,1-0.7,1.5s-0.4,1-0.7,1.5l-1.3,3c-0.4,1-0.8,2-1.2,2.9
			c-0.4,0.9-0.8,1.9-1.2,2.7c-0.4,0.9-0.7,1.7-1.1,2.4c-0.7,1.5-1.2,2.8-1.6,3.7c-0.4,0.9-0.6,1.4-0.6,1.4l0,0
			c-0.1,0.2-0.4,0.3-0.6,0.2C114.7,18.7,114.6,18.5,114.7,18.3L114.7,18.3z"/>
		<path class="st32" d="M112.4,20.5c0,0,0-0.3-0.1-0.8c-0.1-0.5-0.1-1.3-0.2-2.3c-0.1-1-0.2-2.2-0.3-3.5c-0.1-0.7-0.1-1.4-0.2-2.2
			s-0.1-1.6-0.2-2.4c-0.1-0.8-0.1-1.7-0.2-2.6s-0.1-1.8-0.2-2.8c-0.1-1.9-0.3-3.9-0.4-6s-0.2-4.3-0.4-6.5s-0.2-4.4-0.3-6.7
			c-0.2-4.5-0.4-8.9-0.6-13.1c-0.1-2.1-0.2-4.1-0.3-6c-0.1-1.9-0.2-3.7-0.3-5.4c-0.1-0.8-0.1-1.6-0.1-2.4c0-0.8-0.1-1.5-0.1-2.2
			s-0.1-1.3-0.2-1.9c-0.1-0.6-0.1-1.1-0.2-1.6s-0.1-0.9-0.2-1.3c-0.1-0.4-0.1-0.7-0.1-0.9c-0.1-0.5-0.2-0.8-0.2-0.8l0-0.1
			c-0.1-0.3,0.1-0.5,0.4-0.6c0.2,0,0.5,0.1,0.5,0.3c0,0,0.1,0.3,0.3,0.8c0.1,0.3,0.2,0.6,0.3,1c0.1,0.4,0.2,0.8,0.3,1.3
			c0.1,0.5,0.2,1,0.3,1.6s0.2,1.2,0.3,1.9c0.1,0.7,0.2,1.4,0.3,2.2c0.1,0.8,0.2,1.6,0.3,2.4c0.2,1.7,0.4,3.5,0.6,5.4
			c0.2,1.9,0.4,3.9,0.6,6c0.2,2.1,0.3,4.3,0.5,6.5c0.1,1.1,0.1,2.2,0.2,3.3c0.1,1.1,0.1,2.2,0.2,3.4c0.1,2.2,0.2,4.5,0.3,6.7
			s0.2,4.4,0.2,6.5c0.1,2.1,0.1,4.1,0.1,6.1c0,1,0,1.9,0,2.8c0,0.9,0,1.8,0,2.6c0,1.7,0,3.2,0,4.6s0,2.6-0.1,3.5
			c0,1-0.1,1.7-0.1,2.3l0,0.8c0,0.3-0.2,0.5-0.5,0.5C112.7,20.9,112.5,20.7,112.4,20.5L112.4,20.5z"/>
		<path class="st33" d="M112.5,18.7c0,0,0-0.1,0-0.4c0-0.2,0.1-0.6,0.1-1c0.1-0.8,0.4-2,0.7-3.4c0.2-0.7,0.3-1.5,0.5-2.3
			s0.4-1.6,0.7-2.5c0.2-0.9,0.5-1.7,0.8-2.6c0.3-0.9,0.6-1.8,0.9-2.7c0.3-0.9,0.6-1.8,1-2.6c0.3-0.9,0.7-1.7,1-2.5
			c0.4-0.8,0.7-1.6,1.1-2.3c0.3-0.7,0.7-1.4,1-2s0.7-1.1,1-1.6c0.2-0.2,0.3-0.5,0.4-0.6c0.1-0.2,0.3-0.4,0.4-0.5
			c0.1-0.1,0.2-0.3,0.4-0.4c0.1-0.1,0.2-0.2,0.3-0.3l0.2-0.2c0.2-0.2,0.4-0.1,0.6,0c0,0,0.1,0.1,0.1,0.1c0.1,0.2,0.1,0.5,0,0.7
			l0,0.1c0,0,0,0.1-0.1,0.3c-0.1,0.2-0.2,0.5-0.3,0.8c-0.1,0.2-0.1,0.4-0.2,0.6c-0.1,0.2-0.2,0.5-0.3,0.7c-0.2,0.5-0.4,1.1-0.6,1.8
			c-0.4,1.3-0.9,2.8-1.5,4.5c-0.3,0.8-0.6,1.7-0.8,2.5c-0.1,0.4-0.3,0.9-0.4,1.3L119,5.6c-0.3,0.9-0.6,1.7-0.9,2.6s-0.6,1.7-0.9,2.5
			c-0.3,0.8-0.6,1.6-0.9,2.3c-0.3,0.7-0.6,1.4-0.9,2.1c-0.6,1.3-1,2.3-1.4,3c-0.2,0.4-0.3,0.6-0.4,0.8c-0.1,0.2-0.2,0.3-0.2,0.3l0,0
			c-0.1,0.2-0.3,0.3-0.5,0.2c-0.1,0-0.1,0-0.1-0.1C112.5,19.2,112.4,19,112.5,18.7z"/>
		<path class="st33" d="M109.7,20.1c0,0-0.2-0.4-0.5-1.1c-0.1-0.3-0.3-0.8-0.5-1.2s-0.4-1-0.6-1.6c-0.4-1.2-0.9-2.6-1.4-4.1
			c-0.2-0.8-0.5-1.5-0.7-2.3c-0.2-0.8-0.5-1.6-0.7-2.4c-0.2-0.8-0.4-1.6-0.7-2.4l-0.6-2.3c-0.2-0.8-0.4-1.5-0.6-2.2
			s-0.4-1.3-0.5-1.9c-0.3-1.2-0.6-2.2-0.9-2.8c-0.1-0.3-0.2-0.6-0.3-0.8c-0.1-0.2-0.1-0.3-0.1-0.3l0-0.1c-0.1-0.2,0-0.5,0.3-0.6
			c0.2-0.1,0.4,0,0.5,0.1l0.2,0.2c0.2,0.2,0.4,0.5,0.6,0.7c0.2,0.3,0.5,0.7,0.8,1.2s0.6,1,0.9,1.6c0.7,1.3,1.3,2.7,1.8,4
			c0.3,0.8,0.6,1.5,0.8,2.3c0.1,0.4,0.3,0.8,0.4,1.2c0.1,0.4,0.2,0.8,0.4,1.2c0.2,0.8,0.5,1.6,0.7,2.5c0.2,0.8,0.4,1.6,0.6,2.4
			c0.2,0.8,0.3,1.5,0.4,2.3c0.1,0.7,0.2,1.4,0.3,2c0.2,1.3,0.3,2.3,0.3,3.1c0,0.4,0,0.7,0,0.9c0,0.2,0,0.3,0,0.3
			c0,0.3-0.2,0.5-0.5,0.5C110,20.4,109.8,20.3,109.7,20.1L109.7,20.1z"/>
		<path class="st33" d="M112.5,19.6c0,0,0-0.1-0.1-0.4c0-0.3-0.1-0.6-0.1-1.1c-0.1-0.5-0.1-1.1-0.2-1.7c-0.1-0.7-0.1-1.4-0.1-2.3
			c-0.1-1.7-0.1-3.6,0-5.7c0-1,0.1-2.1,0.2-3.2c0.1-1.1,0.2-2.2,0.3-3.3c0.1-1.1,0.3-2.2,0.5-3.3s0.4-2.2,0.6-3.2c0.2-1,0.5-2,0.8-3
			c0.1-0.5,0.3-0.9,0.4-1.4c0.2-0.4,0.3-0.8,0.5-1.2c0.2-0.4,0.3-0.8,0.5-1.1c0.2-0.4,0.3-0.7,0.5-1c0.3-0.5,0.6-1.1,1-1.6
			c0.2-0.3,0.5-0.6,0.7-0.9l0.3-0.3c0.2-0.2,0.5-0.2,0.7,0c0.2,0.1,0.2,0.4,0.1,0.6l0,0l-0.2,0.3c-0.1,0.1-0.1,0.2-0.2,0.4
			s-0.1,0.4-0.2,0.6c-0.2,0.4-0.4,1-0.6,1.6l-0.3,1c-0.1,0.4-0.2,0.7-0.3,1.1s-0.2,0.8-0.3,1.2c-0.1,0.4-0.2,0.9-0.3,1.3
			s-0.2,0.9-0.3,1.4s-0.2,1-0.2,1.5c-0.1,1-0.3,2-0.4,3.1c-0.1,0.5-0.1,1.1-0.2,1.6s-0.1,1.1-0.2,1.6c-0.1,1.1-0.2,2.2-0.4,3.2
			c-0.1,1.1-0.2,2.1-0.3,3.1c-0.1,1-0.2,2-0.3,2.9c-0.1,0.9-0.2,1.8-0.3,2.6c-0.2,1.6-0.3,3-0.5,4c-0.1,1-0.2,1.5-0.2,1.5v0
			c0,0.3-0.3,0.4-0.5,0.4C112.7,19.9,112.5,19.8,112.5,19.6L112.5,19.6z"/>
		<path class="st34" d="M94.3,33c2.6,2.3,2.6-0.8,5.6,0.8c2.5,1.3,3.4,4.7,6.2,5.3c2.6,0.6,3.8-2.3,6.4-2.3c2.6,0,3.9,2.9,6.4,2.3
			c2.8-0.7,3.6-4,6.2-5.3c2.9-1.5,3,1.5,5.6-0.8v-6.2c-2.6,2.3-2.6-0.8-5.6,0.8c-2.5,1.3-3.4,4.7-6.2,5.3c-2.6,0.6-3.8-2.3-6.4-2.3
			c-2.6,0-3.9,2.9-6.4,2.3c-2.8-0.7-3.6-4-6.2-5.3c-2.9-1.5-3,1.5-5.6-0.8V33z"/>
	</g>
	<g transform="translate(533.706 199.672)">
		<path class="st35" d="M-55.1-13.3c-2.1-2.7-4.4-7.3-4.7-10.7s3.9-10.7,5.4-10.7s3.9,9.3,3.9,9.3s1.6-0.7,2.8,0s0.1,7,0,8.9
			c0,0-1.3,2.8-3,3.1C-52.1-13.1-53.6-13.1-55.1-13.3z"/>
		
			<linearGradient id="SVGID_7_" gradientUnits="userSpaceOnUse" x1="-1328.5582" y1="5688.7915" x2="-1327.8295" y2="5688.7915" gradientTransform="matrix(53.0027 0 0 -52.6212 70571.6797 299353.9062)">
			<stop  offset="0" style="stop-color:#82E0E3"/>
			<stop  offset="1" style="stop-color:#24C8CE"/>
		</linearGradient>
		<path class="st36" d="M-23.9,17.8c0,0-8.9,4.4-12.6,4.2c-3.1-0.2-7.5-5-8.6-7.5c-1.1-2.5-9.4-22.1-10.6-26.6c1.5-4,7.9-4.6,8.9-4
			c0.8,0.4,7.6,17.5,12.1,20.1c1.2,0.1,7-5,10.7-5.5c3.5-0.3,6.7,2.3,7,5.9c0,0.3,0,0.6,0,0.9C-17.2,10.9-23.9,17.8-23.9,17.8z"/>
		<path class="st4" d="M-55.7-12.2c0,0,0-0.2,0.1-0.5c0-0.2,0.1-0.4,0.1-0.5c0.1-0.2,0.2-0.5,0.3-0.7c0.2-0.2,0.3-0.5,0.5-0.7
			c0.2-0.2,0.4-0.5,0.7-0.7c0.5-0.4,1.1-0.8,1.8-1c1.2-0.5,2.5-0.7,3.7-0.5c0.4,0,0.8,0.1,1.2,0.3c0.1,0,0.2,0.1,0.3,0.2l0.1,0.1
			l-0.1,0c-0.1,0-0.2,0-0.3,0c-0.1,0-0.3,0.1-0.5,0.1s-0.4,0.1-0.6,0.1c-0.2,0.1-0.5,0.1-0.7,0.2c-0.3,0.1-0.5,0.2-0.8,0.2
			c-0.3,0.1-0.6,0.2-0.9,0.3c-0.3,0.1-0.6,0.2-0.9,0.3c-0.3,0.1-0.6,0.2-0.8,0.4c-0.3,0.1-0.5,0.3-0.8,0.4c-0.3,0.1-0.5,0.3-0.7,0.4
			c-0.2,0.1-0.4,0.3-0.6,0.4c-0.2,0.1-0.3,0.3-0.5,0.4c-0.1,0.1-0.3,0.2-0.4,0.4C-55.6-12.3-55.7-12.2-55.7-12.2z"/>
		<path class="st0" d="M-34.9,192.1c13.2,7.6,34.7,7.6,48,0c13.2-7.6,13.2-20,0-27.7s-34.7-7.6-48,0S-48.1,184.5-34.9,192.1z"/>
		<path class="st30" d="M-12.4,159.2c0.4,1,1.2,5.6,0.4,6.6s-4.7,2.7-6.6,1.9c-2.4,2.1-5.7,6.5-11.7,7.4s-5.9-2.3-5-4.1
			c0.9-1.8,10.7-12.8,12.3-13.7c1.6-0.9,5-1.9,6.1-1.5C-15.8,156.2-12.4,159.2-12.4,159.2z"/>
		<path class="st27" d="M-12,157.3l-0.4,1.9c-2,0.7-4.1,0.9-6.2,0.5c-1.7-0.3-3.2-1.2-4.4-2.4v-1.2c0,0,5.3-2.2,7.2-1.6
			C-13.9,155.1-12,157.3-12,157.3z"/>
		<path class="st30" d="M18.4,172.9c0.7,0.4,1.3,4.6,1,5.7c-0.4,1.2-2.5,3.7-3.9,3.2c0,0-3.2,9.7-7,10.8c-1.4,0.4-6.7,1.3-6.6-1.6
			c0.1-2.9,4.3-15.4,5.1-17.7s4.7-2.4,5.7-2.4S18.4,172.9,18.4,172.9z"/>
		<path class="st27" d="M18.4,170.6v2.2c0,0-3.2,2-6.2,1.9c-1.8-0.1-3.6-0.5-5.3-1.4v-1.5c0,0,2.4-2.8,4.5-2.6
			C13.8,169.6,16.1,170.1,18.4,170.6z"/>
		
			<linearGradient id="SVGID_8_" gradientUnits="userSpaceOnUse" x1="-1334.8752" y1="5757.7085" x2="-1334.8752" y2="5757.0005" gradientTransform="matrix(64.6479 0 0 -163.8342 86292.75 943363.1875)">
			<stop  offset="0" style="stop-color:#0073FF"/>
			<stop  offset="1" style="stop-color:#115CBB"/>
		</linearGradient>
		<path class="st37" d="M19.3,169.6c-0.2,1.5-8.6,5.7-13.8,1.4h0c-0.2-0.2-0.4-0.4-0.6-0.6c-0.6-1.3-3.7-30.2-4.7-35.7
			s-6.3-41.4-7.2-41.4s-2.4,32.2-2.4,35.2c0,3-1.4,27.7-2.3,28.5c-0.8,0.8-9.9,2.5-12.8-2.6c-0.2-1.8-2.3-35.7-2.5-41.4
			c-0.2-5.7-1.4-48.8-0.7-50.3c8.2-3.8,14.5-9.6,19.7-9.2c3.6,0.3,14.2,6.7,20.4,10.6c2.8,1.7,4.6,3,4.6,3
			c0.8,3.5,1.5,48.4,0.8,58.6C18.3,140.1,19.6,167.7,19.3,169.6z"/>
		<path class="st38" d="M19.3,169.6c-0.2,1.5-8.6,5.7-13.8,1.4c7.4,2.7,11.7-5.2,11.4-9.5c-0.4-4.3-1.4-30.6-1.4-37S14.2,85,13.9,80
			c-0.4-5.9-2.5-7.7-6.6-6.4s-8.8-1.3-8.8-1.3c4.5-3.1,9.2-5.8,14.1-8.1c2.8,1.7,4.6,3,4.6,3c0.8,3.5,1.5,48.4,0.8,58.6
			C18.3,140.1,19.6,167.7,19.3,169.6z"/>
		<path class="st39" d="M-24-1.5c0,0-7.7,10.4-8.1,13.7c-0.5,3.3,0,8.9,0,8.9l4.4-1.7L-24-1.5z"/>
		
			<linearGradient id="SVGID_9_" gradientUnits="userSpaceOnUse" x1="-1334.1603" y1="5738.9321" x2="-1334.889" y2="5738.9321" gradientTransform="matrix(72.3804 0 0 -104.6575 96702.5703 600656.5)">
			<stop  offset="0" style="stop-color:#24C8CE"/>
			<stop  offset="1" style="stop-color:#82E0E3"/>
		</linearGradient>
		<path class="st40" d="M21.3,36.7c-0.4,1.8-0.7,3.7-1.1,5.5c-1.4,7.1-2.4,13.6-2.5,15.7c-0.1,2.7-0.1,8-0.5,9.1
			C13.9,69.5,6.5,72.3,2,72.5c-2.6-0.1-5.2-0.5-7.7-1.1c-8-1.7-19.2-5.2-21.8-8.6c-0.1-0.6-0.1-1.1-0.2-1.7
			c-0.1-2.2-0.2-5.9-0.2-9.9c-0.1-4.9-0.1-10.2-0.3-13c-0.4-5.8-1.9-16.5-2-22.9c-0.1-4.8,5.5-16.4,6.3-16.8
			c4.7-2.6,14.4-2.2,14.4-2.2l16,5C9.3,3.7,19,12.7,20.8,16S23.2,27.7,21.3,36.7z"/>
		<path class="st35" d="M6.3-5.8v7.1c0,1.4-2.8,3.9-6.8,3.9S-7.4,3-7.8,2.4c-0.4-0.6,0-5.7,0-5.7L6.3-5.8z"/>
		<path class="st41" d="M0.8-1.8c0,0-3.4,5.9-7.1,5.4h0c-0.6-0.3-1.1-0.7-1.5-1.2c-0.4-0.6,0-5.7,0-5.7l2.6-0.5
			C-3.1-3.5-1-2.8,0.8-1.8z"/>
		<path class="st4" d="M6.3,1.2c0,0,0,0.1,0,0.2c0,0.2,0,0.4-0.1,0.6C6.2,2.3,6.1,2.5,5.9,2.8C5.8,3.1,5.5,3.4,5.3,3.7
			C4.9,4,4.6,4.3,4.2,4.5C3.8,4.8,3.4,5,2.9,5.2C2.7,5.3,2.4,5.4,2.2,5.5C1.9,5.6,1.7,5.6,1.4,5.7C0.9,5.8,0.3,5.9-0.2,5.9l-0.2,0
			h-0.1l-0.1,0l-0.1,0l-0.4,0l-0.8-0.1c-0.5-0.1-1.1-0.2-1.6-0.3c-0.5-0.2-0.9-0.3-1.4-0.5c-0.4-0.2-0.8-0.4-1.1-0.6
			c-0.3-0.2-0.6-0.4-0.9-0.7C-7,3.5-7.2,3.3-7.4,3c-0.1-0.1-0.2-0.3-0.3-0.4l-0.1-0.2l0.2,0.1c0.1,0.1,0.3,0.2,0.4,0.3
			C-6.9,3-6.7,3.1-6.5,3.2c0.3,0.1,0.6,0.2,0.9,0.4c0.3,0.1,0.7,0.2,1.1,0.4C-4,4-3.5,4.1-3.1,4.2c0.4,0.1,0.9,0.1,1.4,0.2l0.8,0
			l0.4,0l0.1,0h0h0h0h0h0l0.2,0c0.5,0,0.9,0,1.4-0.1C1.6,4.3,2.1,4.2,2.5,4c0.4-0.1,0.8-0.3,1.2-0.4c0.4-0.2,0.7-0.4,1-0.6
			C5,2.9,5.3,2.7,5.5,2.4C5.7,2.3,5.9,2.1,6,1.9c0.1-0.1,0.2-0.3,0.2-0.4C6.3,1.3,6.3,1.2,6.3,1.2z"/>
		<path class="st42" d="M-13.2-23.2c-0.7,4.9-1,17.6,2.4,20c4.5,3.1,8.2,2.7,9.1,2.3c1.3-0.5,6.6-2.2,8.3-3.5s6.9-16.8-1.1-19.4
			S-13.2-23.2-13.2-23.2z"/>
		<path class="st30" d="M-6.2-20.5C-2-20.3,4.5-18.9,4.5-13c0,2-1,6.7,1.5,9.2C7.6-5,13.1-12,14.4-15.7c1.2-3.5,2.3-9.9,1.4-13.5
			c-0.5-1.9-4.2-8-8.1-8.9c-9.7-2.2-16.7,1.2-20.8,3.3c-2.3,1.2-3.9,4.3-3.6,5.8c0.4,1.5,0.6,5.8,3.8,6.9
			C-10.7-21.3-8.5-20.8-6.2-20.5z"/>
		<path class="st42" d="M3-15.9c0,0,1.3-3.5,3-2.4s1.6,7.9-2.2,7.8C-0.1-10.6,3-15.9,3-15.9z"/>
		<path class="st39" d="M20.2,42.2c-1.4,7.1-2.4,13.6-2.5,15.7c-0.1,2.7-0.1,8-0.5,9.1C13.9,69.5,6.5,72.3,2,72.5
			c-2.6-0.1-5.2-0.5-7.7-1.1c0,0,13.6-1.9,14.7-5.5c1.1-3.6-7.7-13.7-8.1-16.2c-0.4-2.5,4.6-26,9-33c0,0,12.8,4.8,11.9,17.7
			C21.7,35.4,20,40.8,20.2,42.2z"/>
		<path class="st38" d="M-6.9,93.3c-0.8,0-2.4,32.2-2.4,35.2c0,3-1.4,27.7-2.3,28.5c-0.8,0.8-9.9,2.5-12.8-2.6
			c8.7,5.1,11.7-1.3,11.5-4.9c-0.2-3.6,1.6-37.2,2.1-44.2s2.2-19.9,2.2-19.9L-6.9,93.3z"/>
		<path class="st30" d="M-43.2,25.6l19.5,11.1l7.1,13l-18.3-9.6L-43.2,25.6z"/>
		<path class="st43" d="M-43.2,25.5c1.7,0.9,3.3,1.7,4.9,2.6c1.6,0.9,3.3,1.8,4.9,2.7l4.9,2.7l4.9,2.8l0.1,0l0,0.1
			c1.2,2.2,2.3,4.3,3.5,6.5c1.2,2.2,2.3,4.4,3.4,6.6l-0.2,0.1c-1.2-2.1-2.5-4.3-3.7-6.4c-1.2-2.1-2.4-4.3-3.6-6.5l0.1,0.1l-4.9-2.7
			l-4.9-2.8c-1.6-0.9-3.2-1.9-4.8-2.8c-1.6-0.9-3.2-1.9-4.8-2.9L-43.2,25.5z"/>
		<path class="st35" d="M-14.5,47.8l-6.4-1.1c0,0-2.8-4.6-4-5c-1.3-0.4-4-1.5-4.4,0.4c-0.4,2,0.1,6.2,2,7.5c1.9,1.3,5.3,3.9,6.5,4
			c1.5,0.1,5.3,0.9,5.3,0.9s1.8-1.6,1.7-3.5C-13.8,49.9-14,48.8-14.5,47.8z"/>
		
			<linearGradient id="SVGID_10_" gradientUnits="userSpaceOnUse" x1="-1330.1604" y1="5702.3589" x2="-1330.8594" y2="5702.2524" gradientTransform="matrix(53.74 0 0 -60.436 71618.2031 344642.5312)">
			<stop  offset="0" style="stop-color:#82E0E3"/>
			<stop  offset="1" style="stop-color:#24C8CE"/>
		</linearGradient>
		<path class="st44" d="M21.7,17.5c-2-5-10.7-4.8-12.7,0.7S3.3,42,3.6,45.3c-2.8,1-17.3,1.3-19.1,1.5c0.9,2.6,0.5,5.6-1.1,7.8
			c3.8,2.9,26.4,4.8,27.7,1.8C12.6,52.9,26,28.5,21.7,17.5z"/>
		<path class="st4" d="M-15.6,46.8c0,0,0.1,0.1,0.2,0.3c0.1,0.1,0.1,0.2,0.2,0.4c0.1,0.2,0.2,0.3,0.3,0.5c0.2,0.4,0.3,0.9,0.4,1.4
			c0,0.3,0.1,0.5,0.1,0.8c0,0.3,0,0.5-0.1,0.8l-0.1,0.4c0,0.1-0.1,0.3-0.1,0.4c-0.1,0.3-0.1,0.5-0.2,0.8c-0.1,0.2-0.2,0.5-0.3,0.7
			c-0.1,0.2-0.2,0.4-0.4,0.5c-0.2,0.3-0.4,0.5-0.7,0.7c-0.1,0.1-0.2,0.1-0.3,0.2c0,0,0-0.1,0.1-0.4c0-0.1,0.1-0.3,0.1-0.4
			c0-0.1,0.1-0.3,0.1-0.5c0-0.2,0.1-0.4,0.1-0.6c0-0.2,0.1-0.4,0.1-0.6c0.1-0.2,0.1-0.5,0.1-0.7c0-0.2,0.1-0.5,0.1-0.7
			c0-0.2,0.1-0.5,0.1-0.7c0-0.2,0-0.5,0.1-0.7c0-0.2,0-0.4,0-0.6c0-0.2,0-0.4,0.1-0.6s0-0.4,0-0.5c0-0.2,0-0.3,0-0.4
			C-15.6,46.9-15.6,46.8-15.6,46.8z"/>
	</g>
	<g transform="translate(148.573 280.807)">
		<path class="st0" d="M103,174.8c-13.2,7.6-34.7,7.6-48,0s-13.2-20,0-27.7s34.7-7.6,48,0S116.3,167.1,103,174.8z"/>
		<path class="st30" d="M49.4,155.4c-0.3,1.6-0.6,5.2,0.6,6.7c1.2,1.5,6.2,1.7,7.8,1.2c1.6-0.6,8.8-12.7,9.6-15.7
			c0.8-3-1-4.6-6.2-2.4c-5.1,2.2-11.1,6.9-11.1,6.9L49.4,155.4z"/>
		<path class="st35" d="M49.4,155.4c0,0,2.2,1.9,4.3,1.6c2.1-0.2,7.4-1,9.2-6.3c-3.6-2.1-12.7,1.4-12.7,1.4L49.4,155.4z"/>
		<path class="st30" d="M107.2,166.6c-0.4,0.8-11.4,10.3-13.9,11.3c-2.5,1.1-7-1.1-8-2.4c-1-1.3-0.5-6-0.5-6s3.8,3.2,7.2,1.7
			c3.4-1.5,9.6-5.6,9.8-6.9c0.3-1.3-2.6-2.7-2.6-2.7c1.3-0.3,7.2-1.2,8-0.3C108.1,162.3,107.6,165.7,107.2,166.6z"/>
		<path class="st35" d="M101.8,164.4c-0.2,1.2-6.4,5.3-9.8,6.9c-3.4,1.5-7.2-1.7-7.2-1.7s0.3-1.9,0.5-3s3.2-2.7,5.1-3
			c1.9-0.2,8.8-1.9,8.8-1.9S102.1,163.1,101.8,164.4z"/>
		
			<linearGradient id="SVGID_11_" gradientUnits="userSpaceOnUse" x1="-948.522" y1="5681.9766" x2="-948.3186" y2="5681.3599" gradientTransform="matrix(67.7875 0 0 -200.7917 64375.75 1141039.375)">
			<stop  offset="0" style="stop-color:#087BE2"/>
			<stop  offset="1" style="stop-color:#115CBB"/>
		</linearGradient>
		<path class="st45" d="M98.5,105.3c-0.3,8.8-1.5,59.4-1.5,59.4c-2.9,3.5-7.9,4.4-11.8,2.2c-0.1-0.1-0.3-0.2-0.4-0.2
			c-0.7-5.8-3-49.3-3-51.6s-9.4-37.2-9.4-37.2s-2.9,25.8-3.4,29c-0.5,3.3-5.8,42-6,43.9c-2.6,3.5-10,4.8-13.8,1.3
			c-0.5-7.4,4.1-48.2,4.3-50.3c0.2-2.1-3.2-42.6-3.6-48.8c-0.2-3.5,0.1-6.9,0.8-10.3c0.7-3.4,3.3-5.7,4.5-7.6
			c2.4-3.9,3.4-6.4,2.9-8.9s4.2-5.9,9.9-3.5C73.4,25,94,32,94,32c-0.1,3.3,0.1,6.5,0.7,9.8c0.8,4.8,2.1,8.4,2.4,12.7
			C97.5,61.2,98.8,96.4,98.5,105.3z"/>
		<path class="st38" d="M98.5,105.3c-0.3,8.8-1.5,59.4-1.5,59.4c-2.9,3.5-7.9,4.4-11.8,2.2c0.3-0.2,0.6-0.3,1-0.2c6.3,0,9-4,8.8-7.7
			c-0.2-3.7-0.3-48.3,0-51.6c0.2-3.2-0.6-40.2-1.1-46c-0.5-5.7-3.4-7-6.6-6.4c-3.4,0.4-6.9-0.2-9.9-1.8c0,0,4-6.8,7.2-9.1
			c2.1-1.5,6.3-2.6,10.3-2.2c0.8,4.8,2.1,8.4,2.4,12.7C97.5,61.2,98.8,96.4,98.5,105.3z"/>
		
			<linearGradient id="SVGID_12_" gradientUnits="userSpaceOnUse" x1="-912.395" y1="5624.6118" x2="-911.9744" y2="5624.6118" gradientTransform="matrix(19.7727 0 0 -62.926 18199.8984 353936.9375)">
			<stop  offset="4.000000e-03" style="stop-color:#FF9158"/>
			<stop  offset="1" style="stop-color:#FF4964"/>
		</linearGradient>
		<path class="st46" d="M45.9-20.4c-1.7,4.8-1.6,32.5,0,36.3s13.2,9.5,13.2,9.5L45.9-20.4z"/>
		<path class="st47" d="M47.5,2.5c0,0,1.9,16.2,5.1,19.3c0,0,4.7,2.7,4.7,2.7L47.5,2.5z"/>
		
			<linearGradient id="SVGID_13_" gradientUnits="userSpaceOnUse" x1="-947.9484" y1="5659.7114" x2="-947.2196" y2="5659.7114" gradientTransform="matrix(71.3564 0 0 -108.3196 67802.0469 613071.3125)">
			<stop  offset="0" style="stop-color:#FF6A48"/>
			<stop  offset="0.996" style="stop-color:#FF9158"/>
			<stop  offset="1" style="stop-color:#FF9158"/>
		</linearGradient>
		<path class="st48" d="M96.5,17.4C95,22.5,94,32,94,32c0.5,4.6,1.6,11.9,1.4,14.6c-2.7,3.3-11.1,7.1-18.2,6.5S53,46.7,50.6,42.6
			c2.3-9.7,5.1-13.3,5.1-17.7c-0.4-3.6-1.9-6.2-2.9-8c-3.1-6.5-5.3-13.3-6.7-20.4c-1.7-9.6-1-16,0-17.4c1-1.4,4.2-3.7,5.5-3.8
			c1.3-0.1,13.7-1,13.7-1l14.5,5.9c3.3,3,15.3,13.4,15.8,16.4c0.7,4.2,1.2,8.5,1.4,12.8C97.2,12.5,97.1,15.5,96.5,17.4z"/>
		<path class="st35" d="M82.2-25.1v7.7c0,0.9-3.9,2.8-7.7,2c-3.8-0.9-8-4-8-4.7v-7.2c0,0,6.3-3.5,7.9-2.4
			C75.9-28.7,82.2-25.1,82.2-25.1z"/>
		<path class="st41" d="M82.2-25.1v7.4c0,0-4.1-2.2-6-5.2S82.2-25.1,82.2-25.1z"/>
		<path class="st4" d="M82.2-17.4c0,0.1,0,0.1,0,0.2c-0.1,0.2-0.2,0.4-0.3,0.5c-0.2,0.2-0.4,0.4-0.7,0.6c-0.3,0.2-0.7,0.4-1,0.6
			c-0.4,0.2-0.9,0.4-1.3,0.5c-1.1,0.3-2.2,0.4-3.3,0.4c-0.3,0-0.6-0.1-0.9-0.1l-0.2,0l-0.1,0l-0.1,0l-0.1,0l-0.4-0.1
			c-0.6-0.2-1.1-0.4-1.7-0.6c-0.5-0.2-1-0.5-1.5-0.8c-0.4-0.3-0.9-0.5-1.3-0.8c-0.4-0.3-0.7-0.6-1.1-0.9c-0.5-0.4-1-0.9-1.4-1.5
			c-0.1-0.2-0.2-0.3-0.3-0.5c0-0.1,0-0.1,0-0.2c0,0.1,0.1,0.1,0.1,0.2c0.1,0.1,0.3,0.3,0.4,0.4c0.5,0.4,1.1,0.7,1.7,1l1.2,0.6
			c0.4,0.2,0.9,0.4,1.3,0.6c0.5,0.2,0.9,0.4,1.4,0.6c0.5,0.2,1,0.4,1.5,0.5l0.4,0.1l0.1,0l0,0h0h0l0,0l0.2,0
			c0.2,0.1,0.5,0.1,0.8,0.1c0.5,0.1,1,0.1,1.5,0.1c0.5,0,1,0,1.4-0.1c0.5-0.1,0.9-0.1,1.3-0.2c0.4-0.1,0.7-0.2,1.1-0.3
			c0.3-0.1,0.5-0.2,0.8-0.3c0.2-0.1,0.3-0.2,0.4-0.3C82.2-17.3,82.2-17.3,82.2-17.4z"/>
		<path class="st42" d="M86.5-46.7c0.7,2,2.7,14.3,1,18.8c-1.7,4.5-2.7,7.8-9.8,5.5s-9.8-2.8-9.3-9.2S86.5-46.7,86.5-46.7z"/>
		<path class="st30" d="M89-44.5c0.9-0.5,0.8-11-5.4-14.4c-6.2-3.4-16.6-2.2-20.6,3.1c-6.1-1.5-11.3,2.4-13.1,9.1s3.7,13.6,8.2,12.5
			c1,4.8,6.5,12.1,9.3,12.5c2.8,0.4,9.1-1.6,9.4-7.3c0.3-5.8,3.6-12.6,5.4-13.8C84.3-44.3,88.5-44.2,89-44.5z"/>
		<path class="st42" d="M79.2-34.2c0,0-1.8-6-4.2-3.8s0.1,9.9,2.6,9.1C80.1-29.6,79.2-34.2,79.2-34.2z"/>
		<path class="st35" d="M136.1,21.3c1.8-1.6,3-5.4,4.5-5.9s2.8,0.3,2.4,1.9c2.2-1.8,6.3-3.3,7.5-2.3s-0.1,9-2.5,11
			c-2.4,2.1-6.7,2-8.3,2.8L136.1,21.3z"/>
		<path class="st47" d="M96.5,17.4C95,22.5,94,32,94,32c0.5,4.6,1.6,11.9,1.4,14.6c-2.7,3.3-11.1,7.1-18.2,6.5
			c14.1-4.3,14.1-14,14.1-16.1c0-7.6-4.1-12.7-7.1-19.9c-3-7.2-1.8-15,0-18.8c0,0,7.5,5.7,12.9,10.9C97.2,12.5,97.1,15.5,96.5,17.4z
			"/>
		
			<linearGradient id="SVGID_14_" gradientUnits="userSpaceOnUse" x1="-949.2036" y1="5627.853" x2="-948.4749" y2="5627.853" gradientTransform="matrix(77.4487 0 0 -65.387 73712.7344 368006.9688)">
			<stop  offset="0" style="stop-color:#FF6A48"/>
			<stop  offset="0.996" style="stop-color:#FF9158"/>
			<stop  offset="1" style="stop-color:#FF9158"/>
		</linearGradient>
		<path class="st49" d="M94.5-4.5c-2.7-1.5-9.5,0-10.7,3.9s0.8,11.3,2.5,14.3s19.6,26.2,21.9,27.5s7.8,1.7,10.2,1
			c2.4-0.8,19.6-10.8,21.1-11.8c1-2.5-0.1-5.7-1-7c-0.8-1-1.9-1.9-3-2.5c0,0-7.8,2.5-11.2,4.2c-3.4,1.7-8.7,4.7-9.5,4.4
			c-0.9-0.2-3.7-5.9-4.8-8.3S100,3.2,98.5,0.1C97.6-1.8,96.2-3.4,94.5-4.5z"/>
		<path class="st4" d="M139.4,30.4c0,0,0-0.2,0-0.5c0-0.2,0-0.4,0-0.6c0-0.2-0.1-0.4-0.1-0.7c0-0.2-0.1-0.5-0.1-0.8
			c-0.1-0.6-0.3-1.2-0.4-1.8c-0.1-0.3-0.2-0.6-0.3-0.9c-0.1-0.3-0.2-0.6-0.4-0.9c-0.1-0.1-0.1-0.3-0.2-0.4l0-0.1l0,0l0,0v0
			c0.1,0.1,0,0,0,0l0,0l-0.1-0.1l-0.1-0.2c-0.1-0.1-0.2-0.2-0.3-0.4c-0.1-0.1-0.2-0.2-0.3-0.3c-0.2-0.2-0.4-0.4-0.6-0.6
			c-0.7-0.7-1.2-1.3-1.2-1.3c0.2,0,0.3,0.1,0.5,0.1c0.4,0.1,0.8,0.3,1.2,0.5c0.3,0.1,0.5,0.3,0.8,0.5c0.3,0.2,0.6,0.4,0.8,0.7
			l0.2,0.2l0.1,0.1l0.1,0.2c0.1,0.2,0.2,0.3,0.3,0.5c0.2,0.3,0.3,0.7,0.5,1c0.1,0.4,0.2,0.7,0.3,1.1c0.1,0.4,0.1,0.7,0.2,1.1
			c0,0.3,0,0.7,0,1c0,0.3-0.1,0.6-0.1,0.9c-0.1,0.3-0.2,0.5-0.2,0.8c-0.1,0.2-0.2,0.3-0.3,0.5C139.5,30.2,139.4,30.4,139.4,30.4z"/>
		<path class="st38" d="M72.4,77.8c0,0-2.9,25.8-3.4,29c-0.5,3.3-5.8,42-6,43.9c-2.6,3.5-10,4.8-13.8,1.3c7.1,1.8,11.5-2.9,12.1-6.9
			c0.6-4,4.4-33.2,4.7-37.3c0.4-4.1,2.9-39.4,2.9-39.4L72.4,77.8z"/>
	</g>
	<g transform="translate(223.935 213.506)">
		
			<linearGradient id="SVGID_15_" gradientUnits="userSpaceOnUse" x1="-1031.1061" y1="5716.3154" x2="-1030.3772" y2="5716.3154" gradientTransform="matrix(143.6289 0 0 -89.2699 148120.8438 510295.7812)">
			<stop  offset="1.200000e-02" style="stop-color:#D4EBEB"/>
			<stop  offset="1" style="stop-color:#E1F5F5"/>
		</linearGradient>
		<path class="st50" d="M76.6,33.4c-4.6,0-9.1-0.4-13.7-1.1c-7.8-1.2-15.3-3.7-22.2-7.6C30.1,18.7,24.2,10.2,24.2,0.9
			c0.1-5,1.7-9.8,4.8-13.8c3.2-4.1,7.1-7.6,11.7-10.1c3.2-1.8,6.5-3.3,10-4.5c8.4-2.8,17.1-4.2,25.9-4.2c13.5,0,26.2,3.1,35.9,8.7
			c10.6,6.1,16.5,14.6,16.5,23.9s-5.8,17.7-16.5,23.9c-3.2,1.8-6.5,3.3-10,4.5C94.1,32.1,85.4,33.5,76.6,33.4z"/>
		<path class="st19" d="M123.4-16V0.9c0,6.9-4.6,13.8-13.7,19.1c-2.9,1.6-5.9,3-9,4.1v-5.5L52.4-0.2v-38.5L123.4-16z"/>
		<path class="st51" d="M123.4-16V0.9c0,6.9-4.6,13.8-13.7,19.1c-2.9,1.6-5.9,3-9,4.1v-5.5L52.4-0.2v-38.5L123.4-16z"/>
		<path class="st25" d="M76.5-10v24.9L63.8,27c-7.1-1.1-14-3.4-20.4-6.9C34.3,14.8,29.7,7.8,29.7,0.9V-9.6l3.7,0l19-0.2L76.5-10z"/>
		<path class="st51" d="M76.5-10v24.9L63.8,27c-7.1-1.1-14-3.4-20.4-6.9C34.3,14.8,29.7,7.8,29.7,0.9V-9.6l3.7,0l19-0.2L76.5-10z"/>
		<path class="st5" d="M100.7,18.6v5.5C89.5,28,76,29,63.8,27v-5.5c0,0,0,0,0,0c0.4-0.1,13.3-3.6,18.4-3.9
			C87.5,17.3,100.7,18.6,100.7,18.6z"/>
		<path class="st51" d="M100.7,18.6v5.5C89.5,28,76,29,63.8,27v-5.5c0,0,0,0,0,0c0.4-0.1,13.3-3.6,18.4-3.9
			C87.5,17.3,100.7,18.6,100.7,18.6z"/>
		<path class="st52" d="M100.7,18.6c-11.6,4-24.9,4.8-36.9,2.8l12.8-26L100.7,18.6z"/>
		<path class="st24" d="M63.8,16c-11.1-1.8-21-6-27.4-12.1C23-8.9,30.2-25.5,52.4-33.2L76.5-10L63.8,16z"/>
		<path class="st18" d="M100.7,7.7L52.4-38.7c22.2-7.7,51-3.5,64.3,9.3S122.9,0,100.7,7.7z"/>
	</g>
	<g transform="translate(398.599 280.028)">
		<path class="st53" d="M19.1-25.4c-1.2,0.6-2.5,0.6-3.7,0l-37.8-21.8c-1-0.6-1-1.5,0-2.1l18.7-10.8c1.2-0.6,2.5-0.6,3.7,0
			l37.8,21.8c1,0.6,1,1.5,0,2.1L19.1-25.4z"/>
		<g transform="translate(10.46 6.039)">
			<path class="st18" d="M17.7-42.7l-31.2-18l2.7-1.6l31.2,18L17.7-42.7z"/>
			<path class="st54" d="M12.2-39.5l-25.6-14.8l1.3-0.8l25.6,14.8L12.2-39.5z"/>
			<path class="st54" d="M8.7-37.5l-31.2-18l1.3-0.8l31.2,18L8.7-37.5z"/>
			<path class="st54" d="M5.2-35.4l-31.2-18l1.3-0.8l31.2,18L5.2-35.4z"/>
		</g>
	</g>
	<g transform="translate(349.032 308.593)">
		<path class="st53" d="M32.5-33.2c-1.2,0.6-2.5,0.6-3.7,0L-9-55c-1-0.6-1-1.5,0-2.1L9.7-67.9c1.2-0.6,2.5-0.6,3.7,0l37.8,21.8
			c1,0.6,1,1.5,0,2.1L32.5-33.2z"/>
		<g transform="translate(10.459 6.038)">
			<path class="st52" d="M31.2-50.4L0-68.4L2.7-70l31.2,18L31.2-50.4z"/>
			<path class="st55" d="M25.6-47.3L0-62.1l1.3-0.8L27-48L25.6-47.3z"/>
			<path class="st55" d="M22.1-45.2L-9-63.2l1.3-0.8l31.2,18L22.1-45.2z"/>
			<path class="st55" d="M18.6-43.2l-31.2-18l1.3-0.8l31.2,18L18.6-43.2z"/>
		</g>
	</g>
	<g transform="translate(299.465 337.155)">
		<path class="st53" d="M45.9-40.9c-1.2,0.6-2.5,0.6-3.7,0L4.5-62.7c-1-0.6-1-1.5,0-2.1l18.7-10.8c1.2-0.6,2.5-0.6,3.7,0l37.8,21.8
			c1,0.6,1,1.5,0,2.1L45.9-40.9z"/>
		<g transform="translate(10.46 6.04)">
			<path class="st24" d="M44.6-58.2l-31.2-18l2.7-1.6l31.2,18L44.6-58.2z"/>
			<path class="st56" d="M39.1-55L13.4-69.8l1.3-0.8l25.6,14.8L39.1-55z"/>
			<path class="st56" d="M35.6-53L4.4-71l1.3-0.8l31.2,18L35.6-53z"/>
			<path class="st56" d="M32-50.9l-31.2-18l1.3-0.8l31.2,18L32-50.9z"/>
		</g>
	</g>
</g>
</svg>
