<?xml version="1.0" encoding="utf-8"?>
<!-- Generator: Adobe Illustrator 24.2.1, SVG Export Plug-In . SVG Version: 6.00 Build 0)  -->
<svg version="1.1" id="Layer_1" xmlns="http://www.w3.org/2000/svg" xmlns:xlink="http://www.w3.org/1999/xlink" x="0px" y="0px"
	 width="200px" height="200px" viewBox="0 0 200 200" style="enable-background:new 0 0 200 200;" xml:space="preserve">
<style type="text/css">
	.st0{fill:url(#Rectangle_2480-2_1_);}
	.st1{opacity:0.2;}
	.st2{fill:#FFFFFF;}
</style>
<radialGradient id="Rectangle_2480-2_1_" cx="-720.251" cy="786.8483" r="0.498" gradientTransform="matrix(1.229658e-14 -200.8183 200.8183 1.229658e-14 -157913.5469 -144539.5781)" gradientUnits="userSpaceOnUse">
	<stop  offset="0" style="stop-color:#FF9F8A"/>
	<stop  offset="1" style="stop-color:#FF7657"/>
</radialGradient>
<rect id="Rectangle_2480-2" class="st0" width="200" height="200"/>
<g class="st1">
	<path class="st2" d="M169.2,100.6l-12.9,12.9l-26.7-26.7c1.6-2.9,1.1-6.7-1.4-9.1c-0.3-0.3-0.5-0.5-0.8-0.7
		c-0.1-0.1-0.1-0.1-0.2-0.2c-0.3-0.2-0.6-0.4-0.9-0.5c0,0,0,0,0,0c-0.3-0.2-0.6-0.3-1-0.4c-0.1,0-0.1,0-0.2-0.1
		c-0.3-0.1-0.7-0.2-1.1-0.3L123,59.2c0.3,0.2,0.6,0.3,0.9,0.4c0.6,0.1,1.2,0,1.7-0.4c0.1-0.1,0.2-0.2,0.3-0.2c0.8-0.8,0.9-2,0.2-2.9
		l-4.1-5.7c0,0,0-0.1-0.1-0.1c0-0.1-0.1-0.1-0.1-0.2c-0.1-0.1-0.1-0.1-0.2-0.2c0,0-0.1-0.1-0.1-0.1c-0.1-0.1-0.2-0.1-0.3-0.2
		c0,0,0,0-0.1,0c-0.3-0.2-0.7-0.2-1-0.2c0,0,0,0,0,0c-0.1,0-0.2,0-0.3,0c0,0-0.1,0-0.1,0c-0.1,0-0.2,0-0.3,0.1c0,0,0,0,0,0
		c0,0,0,0,0,0c-0.1,0-0.2,0.1-0.3,0.2c0,0-0.1,0-0.1,0.1c-0.1,0.1-0.2,0.2-0.4,0.3c-0.1,0.1-0.2,0.2-0.3,0.3c0,0,0,0.1-0.1,0.1
		c0,0.1-0.1,0.1-0.1,0.2l-3.2,6.5c-0.3,0.5-0.3,1.2-0.1,1.7c0.2,0.6,0.6,1,1.1,1.3c0.8,0.4,1.8,0.3,2.5-0.3l1.1,16.2
		c-0.9,0.4-1.7,0.9-2.4,1.6c-3,3-3,8,0,11c0.1,0.1,0.2,0.2,0.3,0.2l-8.4,21c-2.2-0.1-4.4,0.6-6,2.2c-2.8,2.8-3,7.1-0.7,10.1l-13,18
		c-2.7-0.9-5.8-0.3-8,1.8c-3,3-3,8,0,11c1.4,1.4,3.2,2.1,5,2.2c0,0,0.1,0,0.1,0c0.3,0,0.6,0,0.9,0c0,0,0.1,0,0.1,0
		c0.3,0,0.6-0.1,0.9-0.1c0.1,0,0.2-0.1,0.3-0.1c0.2-0.1,0.4-0.1,0.6-0.2c0.1,0,0.2-0.1,0.3-0.1c0.3-0.1,0.5-0.2,0.8-0.4l12.4,12.4
		l-2.3,2.3c-0.9,0.9-0.9,2.3,0,3.2s2.3,0.9,3.2,0l68.5-68.5c0.9-0.9,0.9-2.3,0-3.2C171.5,99.8,170.1,99.8,169.2,100.6z M88.7,145
		C88.8,145,88.8,145,88.7,145c0.2,0.2,0.3,0.3,0.4,0.4c1.3,1.3,1.3,3.3,0,4.6c-0.1,0.1-0.3,0.3-0.5,0.4c0,0-0.1,0.1-0.1,0.1
		c-0.1,0.1-0.3,0.1-0.4,0.2c0,0-0.1,0-0.1,0.1c-0.2,0.1-0.3,0.1-0.5,0.1c-0.1,0-0.2,0-0.3,0c-0.1,0-0.1,0-0.2,0c-0.1,0-0.2,0-0.4,0
		c0,0,0,0,0,0c-0.3,0-0.6-0.1-0.9-0.2c0,0,0,0-0.1,0c-0.4-0.2-0.8-0.4-1.1-0.7c-1.3-1.3-1.3-3.3,0-4.6
		C85.7,144.2,87.5,144.1,88.7,145z M94,150.8C94,150.8,94,150.8,94,150.8c0.9-2.1,0.9-4.5-0.1-6.5c0-0.1,0-0.1-0.1-0.2
		c-0.1-0.1-0.1-0.2-0.2-0.4c-0.1-0.1-0.1-0.2-0.2-0.3c-0.1-0.1-0.1-0.2-0.2-0.3c-0.1-0.1-0.1-0.2-0.2-0.2l13-18
		c0.6,0.2,1.3,0.4,2,0.4c0.1,0,0.2,0,0.4,0c0.2,0,0.4,0,0.6,0c0.2,0,0.3,0,0.5,0c0.2,0,0.5-0.1,0.7-0.1c0.1,0,0.3-0.1,0.4-0.1
		c0.2,0,0.4-0.1,0.5-0.2c0.1,0,0.2-0.1,0.4-0.1c0.3-0.1,0.5-0.2,0.8-0.4l16.5,16.5l-22.7,22.7l-12.4-12.4
		C93.8,151.1,93.9,151,94,150.8z M113.4,111.6C113.4,111.6,113.4,111.5,113.4,111.6l8.2-20.7c1.2,0.2,2.4,0.1,3.5-0.3
		c0.1,0,0.1,0,0.2-0.1c0.2-0.1,0.4-0.2,0.6-0.2c0.1,0,0.1-0.1,0.2-0.1c0.1,0,0.2-0.1,0.3-0.1l26.7,26.7L132,137.8l-16.5-16.5
		c1.6-2.9,1.1-6.7-1.4-9.1C113.9,111.9,113.7,111.8,113.4,111.6z M122.2,80c0,0,0.1,0,0.1,0c0.5-0.1,1,0,1.4,0.1c0,0,0,0,0.1,0
		c0.2,0.1,0.4,0.2,0.5,0.3c0,0,0.1,0,0.1,0.1c0.2,0.1,0.4,0.3,0.6,0.4c1.3,1.3,1.3,3.3,0,4.6c-0.1,0.1-0.3,0.3-0.5,0.4
		c-0.1,0-0.1,0.1-0.2,0.1c-0.1,0.1-0.2,0.1-0.3,0.2c-0.1,0-0.2,0.1-0.3,0.1c-0.1,0-0.1,0-0.2,0.1c-0.8,0.2-1.6,0.1-2.3-0.2
		c0,0-0.1,0-0.1,0c-0.3-0.1-0.5-0.3-0.8-0.5c-1.3-1.3-1.3-3.3,0-4.6C121,80.4,121.6,80.1,122.2,80z M109.8,114.6
		C109.8,114.6,109.8,114.6,109.8,114.6c0.5,0.2,0.9,0.4,1.2,0.7c1.3,1.3,1.3,3.3,0,4.6c-0.2,0.2-0.3,0.3-0.5,0.4
		c0,0-0.1,0.1-0.2,0.1c-0.1,0.1-0.2,0.1-0.4,0.2c-0.1,0-0.1,0-0.2,0.1c-0.1,0-0.2,0.1-0.4,0.1c-0.1,0-0.2,0-0.3,0
		c-0.1,0-0.2,0-0.3,0c-0.1,0-0.2,0-0.3,0c-0.1,0-0.1,0-0.2,0c-0.1,0-0.3,0-0.4-0.1c0,0,0,0-0.1,0c-0.4-0.1-0.7-0.3-1-0.5
		c0,0,0,0,0,0c-0.1-0.1-0.2-0.2-0.3-0.3c-1.3-1.3-1.3-3.3,0-4.6C107.3,114.5,108.6,114.2,109.8,114.6z"/>
	<path class="st2" d="M69,131.1l7.9-7.9l8.2,8.2c0.9,0.9,2.3,0.9,3.2,0c0.9-0.9,0.9-2.3,0-3.2l-8.2-8.2l1.7-1.7
		c0.9-0.9,0.9-2.3,0-3.2s-2.3-0.9-3.2,0l-3.3,3.3l-6.3,6.3l-4.6-38l38,4.6l-6.3,6.3l-3.3,3.3c-0.9,0.9-0.9,2.3,0,3.2s2.3,0.9,3.2,0
		l1.7-1.7l1.9,1.9c0.9,0.9,2.3,0.9,3.2,0s0.9-2.3,0-3.2l-1.9-1.9l7.9-7.9c0.6-0.6,0.8-1.5,0.5-2.3c-0.3-0.8-1-1.4-1.9-1.5l-45.5-5.6
		c-0.7-0.1-1.3,0.2-1.9,0.7c-0.5,0.5-0.8,1.2-0.7,1.9l5.6,45.5c0.1,0.9,0.7,1.6,1.5,1.9C67.4,131.9,68.4,131.7,69,131.1z"/>
	<path class="st2" d="M79.1,72l6-1c0.3,0,0.6,0.1,0.7,0.4l2.8,5.4c1,2.1,3.2,3.1,5.5,2.8c1.1-0.2,2.1-0.7,2.9-1.5s1.3-1.8,1.5-2.9
		l1-6c0-0.1,0.1-0.3,0.2-0.4s0.2-0.2,0.4-0.2l6-1c1.1-0.2,2.1-0.7,2.9-1.5c0.8-0.8,1.3-1.8,1.5-2.9c0.4-2.3-0.7-4.4-2.8-5.5
		l-5.4-2.8c-0.3-0.1-0.4-0.4-0.4-0.7l1-6c0.4-2.3-0.7-4.4-2.8-5.5c-2.1-1-4.4-0.7-6.1,1l-4.3,4.3c-0.2,0.2-0.5,0.3-0.8,0.1l-5.4-2.8
		c-2.1-1-4.4-0.7-6.1,1s-2,4-1,6.1l2.8,5.4c0.1,0.3,0.1,0.6-0.1,0.8l-4.3,4.3c-1.6,1.6-2,4-1,6.1C74.7,71.3,76.8,72.4,79.1,72z
		 M80.3,50.6c-0.2-0.3-0.1-0.6,0.1-0.8c0.2-0.2,0.5-0.3,0.8-0.1l5.4,2.8c2,1,4.5,0.6,6.1-1l4.3-4.3c0.2-0.2,0.5-0.3,0.8-0.1
		c0.3,0.2,0.4,0.4,0.4,0.7l-1,6c-0.4,2.2,0.8,4.4,2.8,5.5l5.4,2.8c0.3,0.2,0.4,0.4,0.4,0.7c0,0.1-0.1,0.3-0.2,0.4
		c-0.1,0.1-0.2,0.2-0.4,0.2l-6,1c-1.1,0.2-2.1,0.7-2.9,1.5c-0.8,0.8-1.3,1.8-1.5,2.9l-1,6c0,0.2-0.1,0.3-0.2,0.4
		c-0.1,0.1-0.3,0.2-0.4,0.2c-0.3,0.1-0.6-0.1-0.7-0.4l-2.8-5.4c-1-2-3.2-3.1-5.5-2.8l-6,1c-0.3,0.1-0.6-0.1-0.7-0.4
		c-0.2-0.3-0.1-0.6,0.1-0.8l4.3-4.3c1.6-1.6,2-4,1-6.1L80.3,50.6z"/>
</g>
</svg>
