<?xml version="1.0" encoding="utf-8"?>
<!-- Generator: Adobe Illustrator 22.0.1, SVG Export Plug-In . SVG Version: 6.00 Build 0)  -->
<svg version="1.1" id="Layer_1" xmlns="http://www.w3.org/2000/svg" xmlns:xlink="http://www.w3.org/1999/xlink" x="0px" y="0px"
	 width="1920px" height="912px" viewBox="0 0 1920 912" style="enable-background:new 0 0 1920 912;" xml:space="preserve">
<style type="text/css">
	.st0{fill:none;}
	.st1{clip-path:url(#SVGID_2_);}
	.st2{clip-path:url(#SVGID_5_);fill:url(#SVGID_6_);}
	.st3{clip-path:url(#SVGID_5_);}
	.st4{opacity:0.12;}
	.st5{fill:url(#SVGID_9_);}
	.st6{opacity:0.32;}
	.st7{fill:url(#SVGID_10_);}
	.st8{opacity:0.16;}
	.st9{fill:url(#SVGID_11_);}
	.st10{fill:none;stroke:#FFFFFF;stroke-width:1.6;stroke-miterlimit:10;}
	.st11{opacity:0.22;}
	.st12{clip-path:url(#SVGID_13_);}
	.st13{fill:#FFFFFF;}
	.st14{clip-path:url(#SVGID_15_);}
</style>
<pattern  y="912" width="1315.5" height="1315.5" patternUnits="userSpaceOnUse" id="pattern-2" viewBox="0 -1315.5 1315.5 1315.5" style="overflow:visible;">
	<g>
		<rect x="0" y="-1315.5" class="st0" width="1315.5" height="1315.5"/>
		<g transform="scale(0.828)">
			
				<image style="overflow:visible;enable-background:new    ;" width="1200" height="800" id="image_2_" xlink:href="1332F251EF93F97.png"  transform="matrix(1.0967 0 0 -1.0967 0 -308.3142)">
			</image>
		</g>
	</g>
</pattern>
<g>
	<defs>
		<polygon id="SVGID_1_" points="1920,912 0,912 0,217.7 960,688.2 1920,217.7 		"/>
	</defs>
	<clipPath id="SVGID_2_">
		<use xlink:href="#SVGID_1_"  style="overflow:visible;"/>
	</clipPath>
	<g class="st1">
		<defs>
			<polygon id="SVGID_3_" points="0,-368 1920,-368 1920,912 0,912 			"/>
		</defs>
		<pattern  id="SVGID_4_" xlink:href="#pattern-2" patternTransform="matrix(-1 0 0 -1 -12003.5303 -19553.5117)">
		</pattern>
		<use xlink:href="#SVGID_3_"  style="overflow:visible;fill:url(#SVGID_4_);"/>
		<clipPath id="SVGID_5_">
			<use xlink:href="#SVGID_3_"  style="overflow:visible;"/>
		</clipPath>
		<linearGradient id="SVGID_6_" gradientUnits="userSpaceOnUse" x1="85.6778" y1="842.2089" x2="1900.0796" y2="-341.0947">
			<stop  offset="0" style="stop-color:#24408A"/>
			<stop  offset="0.3141" style="stop-color:#24418B"/>
			<stop  offset="0.4954" style="stop-color:#25468F"/>
			<stop  offset="0.6429" style="stop-color:#274D95"/>
			<stop  offset="0.7721" style="stop-color:#2C589E"/>
			<stop  offset="0.8884" style="stop-color:#3166AA"/>
			<stop  offset="0.9958" style="stop-color:#3877BC"/>
			<stop  offset="1" style="stop-color:#3978BD"/>
		</linearGradient>
		<polygon class="st2" points="0,-368 1920,-368 1920,912 0,912 		"/>
		<g class="st3">
			<defs>
				
					<rect id="SVGID_7_" x="0" y="-368" transform="matrix(-1 -1.224647e-16 1.224647e-16 -1 1920 543.9994)" width="1920" height="1280"/>
			</defs>
			<clipPath id="SVGID_8_">
				<use xlink:href="#SVGID_7_"  style="overflow:visible;"/>
			</clipPath>
		</g>
		<g class="st3">
			<g class="st4">
				
					<image style="overflow:visible;opacity:0.66;" width="2737" height="1191" xlink:href="1332F251EF93F95.png"  transform="matrix(1 0 0 1 -525.4 21.6)">
				</image>
				<g>
					<linearGradient id="SVGID_9_" gradientUnits="userSpaceOnUse" x1="-499.3628" y1="604.5038" x2="2159.9397" y2="604.5038">
						<stop  offset="0" style="stop-color:#262D39"/>
						<stop  offset="6.281644e-02" style="stop-color:#222933"/>
						<stop  offset="0.4346" style="stop-color:#101217"/>
						<stop  offset="0.7596" style="stop-color:#040506"/>
						<stop  offset="1" style="stop-color:#000000"/>
					</linearGradient>
					<path class="st5" d="M-410.7,273.3c166.7-78.7,335-157.9,514.8-198.5s374.4-40.1,541.7,37.3
						c136.4,63.1,245.1,171.9,360.5,268.3c115.3,96.4,248.4,185.1,398.4,193.9c109.8,6.4,216.9-30.7,325.3-49.8
						c108.4-19.1,231.2-16.2,313.9,56.4c85.5,75,102.1,199.7,113.1,312.9c5.3,54.1,7.9,116.1-30.4,154.6
						c-32.1,32.2-81.9,36.5-127.4,38.9c-306.5,16.2-613,32.3-919.5,48.5c-415.2,21.9-832.5,43.8-1246-0.1
						c-116.8-12.4-249.7-40.9-306-144c-42.6-78.1-26.3-173.8-8.8-261.1c30.4-151.5,60.8-303.1,91.2-454.6"/>
				</g>
			</g>
			<g class="st6">
				
					<image style="overflow:visible;opacity:0.66;" width="2742" height="950" xlink:href="1332F251EF93F9B.png"  transform="matrix(1 0 0 1 -384.4 -512.4)">
				</image>
				<g>
					<linearGradient id="SVGID_10_" gradientUnits="userSpaceOnUse" x1="-358.1306" y1="-50.4915" x2="2305.7302" y2="-50.4915">
						<stop  offset="0" style="stop-color:#262D39"/>
						<stop  offset="6.281644e-02" style="stop-color:#222933"/>
						<stop  offset="0.4346" style="stop-color:#101217"/>
						<stop  offset="0.7596" style="stop-color:#040506"/>
						<stop  offset="1" style="stop-color:#000000"/>
					</linearGradient>
					<path class="st7" d="M-358.1-100.4c150.3,310.9,506.7,508.7,850.1,471.5c197.7-21.4,383.3-112,581.4-129.8
						c290.1-26.2,570,105.2,859.3,138.8c89.9,10.4,188,9.4,262-42.7c89.6-63.1,119-185,109.3-294.2
						c-17.3-194.7-143.3-376.2-319.7-460.3c-166.8-79.6-360.2-72.8-544.9-64.4c-298.9,13.6-597.8,27.2-896.7,40.8
						c-163.6,7.4-328.9,15.1-486.6,59.1c-157.8,44-309.6,128.2-404.7,261.5"/>
				</g>
			</g>
			<g class="st8">
				
					<image style="overflow:visible;opacity:0.66;" width="2929" height="1013" xlink:href="1332F251EF93F9D.png"  transform="matrix(1 0 0 1 -340.4 -173.4)">
				</image>
				<g>
					<linearGradient id="SVGID_11_" gradientUnits="userSpaceOnUse" x1="-277.4578" y1="332.8916" x2="2573.1917" y2="332.8916">
						<stop  offset="0" style="stop-color:#262D39"/>
						<stop  offset="6.281644e-02" style="stop-color:#222933"/>
						<stop  offset="0.4346" style="stop-color:#101217"/>
						<stop  offset="0.7596" style="stop-color:#040506"/>
						<stop  offset="1" style="stop-color:#000000"/>
					</linearGradient>
					<path class="st9" d="M-133.4-106.6c131.2-53.8,282.6-23.7,413,32C410.1-19,529.6,61,662.2,111.3
						c217.8,82.6,456.9,80.6,689.8,86.8c304.6,8.1,608.8,32,910.9,71.7c76.4,10,156.2,22.5,218,68.6c77,57.5,111.5,166.1,81.9,257.5
						c-36.3,112.1-154,180.9-270.6,198.4c-116.5,17.6-234.7-5.6-351.6-20.7c-264-34.1-532.2-27.2-795.5-66.2
						C975.1,682.2,808.7,638.1,642.6,594c-199-52.8-398.1-105.6-597.1-158.4c-67.8-18-136.7-36.4-196.8-72.8
						c-60.1-36.3-111.2-93.6-123.3-162.8C-294.5,86-208-16.4-127.8-99.9"/>
				</g>
			</g>
		</g>
		<g class="st3">
			<g>
				<g>
					<line class="st10" x1="547" y1="541.5" x2="291.1" y2="797.4"/>
					<line class="st10" x1="1742" y1="452" x2="1486.1" y2="707.9"/>
					<line class="st10" x1="480.6" y1="440.2" x2="341.7" y2="568.2"/>
					<line class="st10" x1="99" y1="771.8" x2="-54.6" y2="925.4"/>
					<line class="st10" x1="1671" y1="719.7" x2="1415.1" y2="975.6"/>
				</g>
			</g>
			
				<ellipse transform="matrix(0.7071 -0.7071 0.7071 0.7071 -159.2042 365.874)" class="st10" cx="362" cy="375.1" rx="13" ry="13"/>
			
				<ellipse transform="matrix(0.2306 -0.9731 0.9731 0.2306 4.0969 1307.4373)" class="st10" cx="828.8" cy="651.1" rx="13" ry="13"/>
			<ellipse transform="matrix(0.229 -0.9734 0.9734 0.229 305.1555 1897.275)" class="st10" cx="1350.2" cy="756" rx="13" ry="13"/>
		</g>
		<g class="st3">
			<g>
				<g>
					<g>
						<g class="st11">
							<defs>
								
									<ellipse id="SVGID_12_" transform="matrix(0.7071 -0.7071 0.7071 0.7071 -377.6704 217.1562)" class="st11" cx="73.3" cy="564.5" rx="155.7" ry="155.7"/>
							</defs>
							<clipPath id="SVGID_13_">
								<use xlink:href="#SVGID_12_"  style="overflow:visible;"/>
							</clipPath>
							<g class="st12">
								<rect x="-103.7" y="436.9" class="st13" width="353.9" height="12.5"/>
								<g>
									<rect x="-103.7" y="379.6" class="st13" width="353.9" height="12.5"/>
									<rect x="-103.7" y="408.3" class="st13" width="353.9" height="12.5"/>
									<rect x="-103.7" y="465.5" class="st13" width="353.9" height="12.5"/>
									<rect x="-103.7" y="494.1" class="st13" width="353.9" height="12.5"/>
									<rect x="-103.7" y="522.8" class="st13" width="353.9" height="12.5"/>
									<rect x="-103.7" y="551.4" class="st13" width="353.9" height="12.5"/>
									<rect x="-103.7" y="580" class="st13" width="353.9" height="12.5"/>
									<rect x="-103.7" y="608.7" class="st13" width="353.9" height="12.5"/>
									<rect x="-103.7" y="637.3" class="st13" width="353.9" height="12.5"/>
									<rect x="-103.7" y="665.9" class="st13" width="353.9" height="12.5"/>
									<rect x="-103.7" y="694.5" class="st13" width="353.9" height="12.5"/>
									<rect x="-103.7" y="723.2" class="st13" width="353.9" height="12.5"/>
								</g>
							</g>
						</g>
						<g class="st11">
							<defs>
								<circle id="SVGID_14_" class="st11" cx="1909.4" cy="753.6" r="95.9"/>
							</defs>
							<clipPath id="SVGID_15_">
								<use xlink:href="#SVGID_14_"  style="overflow:visible;"/>
							</clipPath>
							<g class="st14">
								<rect x="1800.4" y="675" class="st13" width="218.1" height="7.7"/>
								<g>
									<rect x="1800.4" y="639.7" class="st13" width="218.1" height="7.7"/>
									<rect x="1800.4" y="657.3" class="st13" width="218.1" height="7.7"/>
									<rect x="1800.4" y="692.6" class="st13" width="218.1" height="7.7"/>
									<rect x="1800.4" y="710.3" class="st13" width="218.1" height="7.7"/>
									<rect x="1800.4" y="727.9" class="st13" width="218.1" height="7.7"/>
									<rect x="1800.4" y="745.5" class="st13" width="218.1" height="7.7"/>
									<rect x="1800.4" y="763.2" class="st13" width="218.1" height="7.7"/>
									<rect x="1800.4" y="780.8" class="st13" width="218.1" height="7.7"/>
									<rect x="1800.4" y="798.5" class="st13" width="218.1" height="7.7"/>
									<rect x="1800.4" y="816.1" class="st13" width="218.1" height="7.7"/>
									<rect x="1800.4" y="833.7" class="st13" width="218.1" height="7.7"/>
									<rect x="1800.4" y="851.4" class="st13" width="218.1" height="7.7"/>
								</g>
							</g>
						</g>
					</g>
				</g>
			</g>
		</g>
	</g>
</g>
</svg>
