<?xml version="1.0" encoding="utf-8"?>
<!-- Generator: Adobe Illustrator 22.0.1, SVG Export Plug-In . SVG Version: 6.00 Build 0)  -->
<svg version="1.1" id="Layer_1" xmlns="http://www.w3.org/2000/svg" xmlns:xlink="http://www.w3.org/1999/xlink" x="0px" y="0px"
	 width="200px" height="200px" viewBox="0 0 200 200" style="enable-background:new 0 0 200 200;" xml:space="preserve">
<style type="text/css">
	.st0{fill:url(#Rectangle_2480-2_1_);}
	.st1{opacity:0.2;}
	.st2{fill:#FFFFFF;}
</style>
<radialGradient id="Rectangle_2480-2_1_" cx="140.9351" cy="-141.5708" r="0.498" gradientTransform="matrix(1.229658e-14 -200.8183 -200.8183 -1.229658e-14 -28330.0176 28402.3438)" gradientUnits="userSpaceOnUse">
	<stop  offset="0" style="stop-color:#FF9F8A"/>
	<stop  offset="1" style="stop-color:#FF7657"/>
</radialGradient>
<rect id="Rectangle_2480-2" class="st0" width="200" height="200"/>
<g id="pPqmVJ_1_" class="st1">
	<g>
		<g>
			<path class="st2" d="M117.9,40.1c1.2,1.5,2.4,3,3.6,4.5c7.4,9.6,12.1,20.5,13.9,32.5c0.2,1.5,0.8,2.4,2.2,3.2
				c7.9,4.8,12,11.9,12.1,21.1c0.1,6.1,0,12.2,0,18.4c0,2-0.8,2.7-2.8,2.7c-7.3,0-14.7,0-22,0c-0.9,0-1.5,0.3-2,1
				c-2.2,3-4.5,5.8-6.7,8.8c-0.8,1.1-1.8,1.6-3.1,1.5c-0.4,0-0.9-0.1-1.6-0.2c0.1,0.6,0.2,1,0.2,1.4c0,7.8,0,15.7-0.1,23.5
				c0,0.7-0.2,1.5-0.6,2.1c-0.4,0.7-1.3,1-2.1,0.7c-0.6-0.3-1.1-0.9-1.5-1.5c-0.2-0.3-0.1-0.9-0.1-1.4c0-7.8,0-15.6,0.1-23.4
				c0-0.4,0.1-0.8,0.2-1.1c-5.2,0-10.2,0-15.6,0c0.1,0.2,0.2,0.6,0.2,1c0,5.4,0,10.7,0.1,16.1c0,0.5,0,0.9-0.1,1.4
				c-0.2,0.9-1.1,1.6-2,1.6c-1,0-1.8-0.6-2-1.6c-0.1-0.4-0.1-0.9-0.1-1.4c0-5.4,0-10.7,0-16.1c0-0.4,0.1-0.8,0.2-1.4
				c-3.1,0.9-4.4-0.8-5.8-2.8c-1.7-2.5-3.7-4.8-5.5-7.3c-0.6-0.8-1.2-1.1-2.2-1.1c-7.2,0-14.5,0-21.7,0c-2.3,0-3-0.7-3-3
				c0-6.2-0.2-12.5,0.1-18.7c0.3-9.5,4.8-16.6,13.2-21.1c0.6-0.3,0.8-0.8,0.9-1.4c1.5-10.4,5-20,10.7-28.7c1.9-3,4.3-5.7,6.4-8.6
				c0.2-0.3,0.4-0.6,0.6-0.9c1.7-1.7,3.3-3.3,5-5c0.2-0.2,0.5-0.3,0.7-0.5c3.3-3,6.9-5.5,10.7-7.8c0.9-0.6,1.8-0.8,2.8-0.2
				c2,1.3,4,2.5,5.9,3.9c2,1.4,3.9,3,5.8,4.6C114.6,36.8,116.3,38.5,117.9,40.1z M88.3,40c-6.5,6.4-11.7,14.1-15,22.3
				c-7.5,18.5-7.2,37,1.2,55.2c0.3,0.5,0.5,0.8,1.2,0.8c16.3,0,32.5,0,48.8,0c0.6,0,0.9-0.2,1.1-0.7c0.8-1.9,1.6-3.7,2.3-5.5
				c5.5-15,5.7-30.2,0.5-45.3c-5.1-14.9-14.3-26.7-27.6-35.3c-0.6-0.4-1-0.3-1.5,0C95.1,34,91.3,37.1,88.3,40z M54.5,118.1
				c5.2,0,10.3,0,15.5,0c-4.8-10.6-6.9-21.7-6.3-33.6c-4.6,3.1-7.5,7.2-8.6,12.3c-0.4,2-0.5,4-0.6,6.1
				C54.4,108,54.5,113.1,54.5,118.1z M145.5,118c0,0,0-0.1,0-0.3c0-5.4,0-10.9,0-16.3c0-4-1.1-7.8-3.3-11.1
				c-1.5-2.3-3.4-4.2-5.8-5.7c0.6,11.8-1.6,22.9-6.3,33.5C135.2,118,140.3,118,145.5,118z M81.8,122.8c1.5,2,3.1,4.2,4.8,6.3
				c0.2,0.3,0.7,0.5,1.1,0.5c8.2,0,16.4,0,24.6,0c0.3,0,0.8-0.1,1-0.4c1.7-2.1,3.3-4.3,4.8-6.3C106,122.8,93.9,122.8,81.8,122.8z"/>
			<path class="st2" d="M98,175.8c-0.1-1-0.2-1.9-0.2-2.9c0-7.1,0-14.2,0-21.3c0-2.1,0.7-3.1,2.2-3c1.4,0,2.1,1,2.1,3
				c0,7.1,0,14.2,0,21.3c0,1-0.1,1.9-0.2,2.9c-0.7,0.7-1.3,1.3-2,2C99.3,177.1,98.7,176.5,98,175.8z"/>
			<path class="st2" d="M88.8,159c0.8-0.8,2.2-0.8,3,0c0.8,0.8,0.8,2.2,0,3c-0.8,0.8-2.2,0.8-3,0C88,161.2,88,159.8,88.8,159z"/>
			<path class="st2" d="M91.4,85.9c-1.9,0-3.7,0.1-5.4,0.1c-2.5,0-3.4-1.6-2.2-3.7c4.7-8.1,9.4-16.3,14.1-24.4c1.1-2,3-2,4.2,0
				c4.7,8.1,9.4,16.2,14.1,24.3c1.3,2.2,0.4,3.8-2.1,3.8c-1.7,0-3.5,0-5.6,0c0.1,0.5,0.3,0.9,0.3,1.3c0,6.7,0,13.3,0,20
				c0,2-0.7,3-2.1,3c-1.4,0-2.2-1-2.2-3c0-7.5,0-15,0-22.6c0-2.3,0.7-3,3-3c1.1,0,2.2,0.1,3.6,0.2c-3.8-6.5-7.3-12.7-11-19
				c-3.7,6.3-7.2,12.5-11,19c1.5-0.1,2.7-0.1,4-0.1c1.8,0,2.6,0.8,2.6,2.6c0,4.4,0,8.9,0,13.3c0,1-0.3,2-1.4,2.3
				c-0.7,0.2-1.7,0-2.1-0.4c-0.5-0.4-0.7-1.4-0.7-2.1c-0.1-3.4,0-6.7,0-10.1C91.3,86.9,91.4,86.5,91.4,85.9z"/>
			<path class="st2" d="M95,109.5c-0.8,0.8-2.2,0.8-3,0.1c-0.8-0.8-0.8-2.3,0-3.1c0.8-0.8,2.2-0.8,3,0
				C95.8,107.3,95.8,108.7,95,109.5z"/>
		</g>
	</g>
</g>
</svg>
