<?xml version="1.0" encoding="utf-8"?>
<!-- Generator: Adobe Illustrator 22.0.1, SVG Export Plug-In . SVG Version: 6.00 Build 0)  -->
<svg version="1.1" id="Layer_1" xmlns="http://www.w3.org/2000/svg" xmlns:xlink="http://www.w3.org/1999/xlink" x="0px" y="0px"
	 width="200px" height="200px" viewBox="0 0 200 200" style="enable-background:new 0 0 200 200;" xml:space="preserve">
<style type="text/css">
	.st0{fill:url(#Rectangle_2480-2_1_);}
	.st1{opacity:0.2;}
	.st2{fill:#FFFFFF;}
</style>
<radialGradient id="Rectangle_2480-2_1_" cx="140.9351" cy="-141.5708" r="0.498" gradientTransform="matrix(1.229658e-14 -200.8183 -200.8183 -1.229658e-14 -28330.0176 28402.3438)" gradientUnits="userSpaceOnUse">
	<stop  offset="0" style="stop-color:#FF9F8A"/>
	<stop  offset="1" style="stop-color:#FF7657"/>
</radialGradient>
<rect id="Rectangle_2480-2" class="st0" width="200" height="200"/>
<g class="st1">
	<path class="st2" d="M134.5,56.7c2.9,2.9,5.8,5.8,8.8,8.8c0.2,1.1-0.2,1.9-1.1,2.7c-1.7,1.6-3.3,3.3-5,5c4.3,6,7,12.6,8.1,19.8
		c2.8,0,5.5,0,8.1,0c2.4,0,2.8,0.5,2.8,2.8c0,2.8,0,5.6,0,8.5c0,2.3-0.5,2.8-2.8,2.8c-2.7,0-5.4,0-8.2,0c-1.2,7.3-3.9,13.9-8.1,19.8
		c1.7,1.7,3.3,3.4,5,5c0.8,0.8,1.2,1.6,1.1,2.7c-2.9,2.9-5.8,5.8-8.8,8.8c-1.1,0.2-1.9-0.2-2.7-1.1c-1.6-1.7-3.3-3.3-5-5
		c-6,4.3-12.6,7-19.8,8.1c0,2.9,0,5.6,0,8.4c0,2.1-0.5,2.6-2.6,2.6c-2.9,0-5.9,0-8.8,0c-2.2,0-2.7-0.5-2.7-2.7c0-2.7,0-5.5,0-8.3
		c-7.3-1.2-13.9-3.9-19.8-8.1c-1.7,1.7-3.4,3.3-5,5c-0.8,0.8-1.6,1.3-2.7,1.1c-2.9-2.9-5.8-5.8-8.8-8.8c-0.2-1.1,0.2-1.9,1.1-2.7
		c1.7-1.6,3.3-3.3,5-5c-4.3-6-7-12.6-8.1-19.8c-2.9,0-5.7,0-8.5,0c-1.9,0-2.5-0.6-2.5-2.4c0-3,0-6,0-8.9c0-2.2,0.5-2.7,2.7-2.7
		c2.7,0,5.5,0,7.9,0c1.1-3.6,2-7.1,3.3-10.4c1.3-3.3,3.2-6.3,4.9-9.6c-1.5-1.5-3.1-3.2-4.8-4.8c-0.8-0.8-1.3-1.6-1.1-2.7
		c2.9-2.9,5.8-5.8,8.8-8.8c1.1-0.2,1.9,0.2,2.7,1.1c1.6,1.7,3.3,3.3,5,5c6-4.3,12.6-7,19.8-8.1c0-2.8,0-5.6,0-8.3
		c0-2.2,0.5-2.7,2.7-2.7c2.9,0,5.8,0,8.7,0c2.2,0,2.7,0.5,2.7,2.7c0,2.7,0,5.5,0,8.3c7.3,1.2,13.8,3.9,19.8,8.1c1.7-1.7,3.4-3.3,5-5
		C132.6,57,133.4,56.5,134.5,56.7z M138.9,133.7c-1.8-1.8-3.5-3.5-5.2-5.2c-1-1-1.1-1.8-0.2-2.9c4.6-6,7.3-12.8,8.3-20.3
		c0.2-1.4,0.8-1.9,2.2-1.9c2.5,0,5,0,7.6,0c0.3,0,0.6,0,0.7,0c0-2.3,0-4.4,0-6.7c-2.5,0-5.1,0-7.7,0c-2.1,0-2.5-0.4-2.8-2.5
		c-1-7.1-3.6-13.5-7.9-19.3c-1.3-1.7-1.3-2.3,0.2-3.8c1.6-1.6,3.2-3.2,4.7-4.7c-1.8-1.8-3.5-3.5-5.2-5.2c-1.7,1.7-3.3,3.3-4.9,4.9
		c-1.3,1.3-2,1.3-3.4,0.3c-5.7-4.3-12.2-7-19.3-8.1c-2.4-0.4-2.7-0.6-2.7-3.1c0-2.6,0-5.2,0-7.6c-2.3,0-4.5,0-6.7,0
		c0,2.6,0,5.4,0,8.1c0,1.7-0.5,2.2-2.2,2.5c-2.5,0.5-5,1-7.5,1.7c-4.5,1.4-8.7,3.6-12.4,6.5c-1.3,1-2.1,0.9-3.3-0.3
		c-0.8-0.8-1.6-1.6-2.3-2.3c-0.9-0.9-1.8-1.8-2.6-2.6c-1.8,1.8-3.5,3.5-5.2,5.2c1.7,1.7,3.4,3.4,5.1,5.1c1,1,1.1,1.8,0.2,2.9
		c-4.6,6-7.3,12.8-8.3,20.3c-0.2,1.4-0.8,1.9-2.2,1.9c-2.5,0-5,0-7.6,0c-0.3,0-0.7,0-0.7,0c0,2.3,0,4.4,0,6.7c2.4,0,5,0,7.6,0
		c2.2,0,2.6,0.3,2.9,2.6c1,7.1,3.6,13.4,7.9,19.2c1.3,1.7,1.3,2.3-0.2,3.8c-1.6,1.6-3.2,3.2-4.7,4.7c1.8,1.8,3.5,3.5,5.2,5.2
		c1.7-1.7,3.4-3.4,5.1-5.1c1-1,1.8-1.1,3-0.2c1,0.7,2,1.4,3,2.1c5.2,3.3,10.9,5.3,17,6.2c1.8,0.2,2.2,0.8,2.2,2.5c0,0.6,0,1.1,0,1.7
		c0,2.2,0,4.3,0,6.3c2.3,0,4.5,0,6.7,0c0-2.6,0-5.3,0-8c0-1.9,0.4-2.2,2.3-2.6c2.8-0.6,5.6-1.2,8.3-2c4.2-1.3,8-3.5,11.4-6.1
		c1.3-1,2.1-0.9,3.2,0.2c0.9,0.9,1.7,1.7,2.6,2.6c0.8,0.8,1.6,1.6,2.5,2.5C135.5,137.1,137.1,135.5,138.9,133.7z"/>
	<path class="st2" d="M123.3,45.6c-0.8,0.8-1.7,1.7-2.6,2.6c0.9,0.9,1.7,1.7,2.6,2.6c-0.9,0.9-1.7,1.7-2.6,2.6
		c-0.8-0.8-1.6-1.6-2.5-2.5c-0.9,0.9-1.7,1.7-2.6,2.6c-0.9-0.9-1.7-1.7-2.6-2.6c0.8-0.8,1.6-1.6,2.5-2.5c-0.9-0.9-1.7-1.7-2.6-2.6
		c0.9-0.9,1.7-1.7,2.6-2.6c0.8,0.8,1.6,1.6,2.5,2.5c0.9-0.9,1.8-1.8,2.6-2.6C121.6,43.8,122.5,44.7,123.3,45.6z"/>
	<path class="st2" d="M44.3,78c0.8,0.8,1.7,1.7,2.6,2.6c0.9-0.9,1.7-1.7,2.6-2.6c0.9,0.9,1.7,1.7,2.6,2.6c-0.8,0.8-1.6,1.6-2.5,2.5
		c0.9,0.9,1.7,1.7,2.6,2.6c-0.9,0.9-1.7,1.7-2.6,2.6c-0.8-0.8-1.6-1.6-2.5-2.5c-0.9,0.9-1.7,1.7-2.6,2.6c-0.9-0.9-1.7-1.7-2.6-2.6
		c0.8-0.8,1.6-1.6,2.5-2.5c-0.9-0.9-1.8-1.8-2.6-2.6C42.5,79.7,43.4,78.8,44.3,78z"/>
	<path class="st2" d="M119.4,158.3c-0.8-0.8-1.7-1.7-2.6-2.6c-0.9,0.9-1.7,1.7-2.6,2.6c-0.9-0.9-1.7-1.7-2.6-2.6
		c0.8-0.8,1.6-1.6,2.5-2.5c-0.9-0.9-1.7-1.7-2.6-2.6c0.9-0.9,1.7-1.7,2.6-2.6c0.8,0.8,1.6,1.6,2.5,2.5c0.9-0.9,1.7-1.7,2.6-2.6
		c0.9,0.9,1.7,1.7,2.6,2.6c-0.8,0.8-1.6,1.6-2.5,2.5c0.9,0.9,1.8,1.8,2.6,2.6C121.2,156.6,120.3,157.5,119.4,158.3z"/>
	<path class="st2" d="M74.1,125.9C59.8,111.7,59.8,88.4,74,74.2c14.4-14.4,37.6-14.4,52,0c14.3,14.3,14.2,37.5-0.2,51.9
		C111.6,140.2,88.3,140.2,74.1,125.9z M76.6,123.3c12.8,12.9,33.8,13,46.6,0.2c13-12.9,13-33.9,0.1-46.8
		c-12.8-12.8-33.7-12.8-46.5-0.1C63.8,89.5,63.7,110.4,76.6,123.3z"/>
	<path class="st2" d="M104.7,114c0.4,1.1,0.7,2.2,1.1,3.4c-6.5,1.9-12.4,1-17.5-3.3c-5.6-4.7-7.7-10.8-6.2-17.9
		c1.4-6.7,5.6-11.1,12-13.6c0.4,1.2,0.8,2.3,1.1,3.4C85.8,89.8,84,99,86.2,105C88.6,111.5,95.9,116.5,104.7,114z"/>
	<path class="st2" d="M116.8,114.2c-0.9,0.9-1.7,1.7-2.5,2.5c-0.3-0.2-0.5-0.4-0.8-0.7c-4.9-4.9-9.8-9.8-14.6-14.7
		c-0.4-0.4-0.7-1-0.7-1.4c0-9.2,0-18.4,0-27.6c0-0.3,0-0.5,0.1-0.8c1.2,0,2.3,0.1,3.6,0.1c0,0.3,0,0.7,0,1.1c0,8.4,0,16.8,0,25.2
		c0,0.9,0.2,1.5,0.9,2.2c4.4,4.3,8.8,8.7,13.1,13.1C116.1,113.5,116.4,113.8,116.8,114.2z"/>
	<path class="st2" d="M79.2,120.6c-11.1-10.8-11.7-29.7,0-41.3c0.8,0.8,1.6,1.6,2.5,2.5c-4.8,5-7.4,11.1-7.4,18.1
		c0,7,2.6,13,7.4,18.1C80.9,118.9,80.1,119.8,79.2,120.6z"/>
	<path class="st2" d="M118.4,81.7c0.7-0.7,1.5-1.5,2.3-2.3c10.9,9.8,12.1,29.7,0,41.2c-0.8-0.8-1.6-1.6-2.4-2.4
		C128.2,106.1,128.2,94,118.4,81.7z"/>
	<path class="st2" d="M107.8,74.1c0.9,0.9,1.7,1.7,2.5,2.5c-0.8,0.8-1.7,1.7-2.5,2.5c-0.8-0.8-1.6-1.6-2.5-2.5
		C106.1,75.8,106.9,75,107.8,74.1z"/>
	<path class="st2" d="M115.6,74.1c0.9,0.9,1.6,1.6,2.5,2.5c-0.8,0.8-1.6,1.6-2.5,2.5c-0.8-0.8-1.6-1.6-2.5-2.5
		C113.9,75.8,114.7,75,115.6,74.1z"/>
	<path class="st2" d="M86.9,123.4c-0.8,0.8-1.6,1.6-2.5,2.5c-0.8-0.8-1.7-1.7-2.5-2.5c0.8-0.8,1.6-1.6,2.5-2.5
		C85.2,121.7,86.1,122.5,86.9,123.4z"/>
</g>
</svg>
