<?xml version="1.0" encoding="utf-8"?>
<!-- Generator: Adobe Illustrator 24.2.1, SVG Export Plug-In . SVG Version: 6.00 Build 0)  -->
<svg version="1.1" id="Layer_1" xmlns="http://www.w3.org/2000/svg" xmlns:xlink="http://www.w3.org/1999/xlink" x="0px" y="0px"
	 width="210px" height="210px" viewBox="0 0 210 210" style="enable-background:new 0 0 210 210;" xml:space="preserve">
<style type="text/css">
	.st0{fill:#FFFFFF;}
	.st1{fill:none;stroke:#EF7C00;stroke-width:3;stroke-miterlimit:10;}
</style>
<g id="client-orb" transform="translate(-281 -7853)">
	<rect id="_1_5nQ4JqJKoHzlp_a3jmFhZA" x="281" y="7853" class="st0" width="210" height="210"/>
	<g transform="translate(-452.91 -204.49)">
		<g>
			<path class="st1" d="M803.1,8151.8c-16.5-4.9-21.9-21.2-17.5-35.2c4.8-15.3,20.6-20.2,33.4-18.4c13.2,1.9,28.9,12.7,24.1,36.4
				C838.9,8155.5,815.9,8155.6,803.1,8151.8L803.1,8151.8z"/>
			<path class="st1" d="M828,8166c-18-3.6-30.8-21.6-23-41.6c7.4-18.9,28.9-19.5,40-13.7c11.8,6.1,23.4,22.6,17.4,40.3
				C856.9,8167.4,839.6,8168.3,828,8166z"/>
			<path class="st1" d="M844.1,8182.7c-17.1-3.8-29-21.9-20.6-39.5c8.8-18.3,24.9-22.3,37.7-16.6c14.2,6.4,18.5,23.2,14.2,36.8
				C871.4,8175.9,861.4,8186.6,844.1,8182.7z"/>
			<path class="st1" d="M860.4,8166.2c-19.5-2.9-30.6-24.4-24-40.8c6.5-16.4,22.5-19.3,36.4-15.4c14,3.9,24.3,17.2,20.2,35.5
				C888.9,8163.7,872.4,8168,860.4,8166.2z"/>
			<path class="st1" d="M847.3,8139.9c-19.3,0.3-32.5-17.7-31.9-32.9c0.6-13.9,9.2-26.8,29.2-26.7c21.3,0.1,30.6,13.8,30.6,31
				C875.3,8127.2,864.3,8139.7,847.3,8139.9L847.3,8139.9z"/>
		</g>
		<path d="M841.2,8193.3h-4.3c-1.7,0-3,1.3-3,3v49c0,1.7,1.3,3,3,3h0h4.3c1.7,0,3-1.3,3-3c0,0,0,0,0,0v-20c0-0.6-0.2-1.2-0.6-1.7
			c-0.7-0.9-2.8-3.8-2.8-3.8l-2.6,2l2.1,2.9c0.3,0.4,0.5,0.9,0.5,1.4v18.2c0,0.4-0.3,0.8-0.8,0.8h-1.9c-0.4,0-0.7-0.3-0.8-0.8v-46.9
			c0-0.4,0.3-0.8,0.8-0.8h1.9c0.4,0,0.7,0.3,0.8,0.7c0,0,0,0,0,0v20.5h3.5v-21.5C844.2,8194.6,842.9,8193.3,841.2,8193.3
			C841.2,8193.3,841.2,8193.3,841.2,8193.3L841.2,8193.3z"/>
		<path d="M813.3,8237.8c0,0.4-0.3,0.7-0.8,0.8h-1.9c-0.4,0-0.8-0.3-0.8-0.8v-44.5h-3.5v45.6c0,1.7,1.3,3,3,3c0,0,0,0,0,0h0.4v6.5
			h3.5v-6.5h0.4c1.7,0,3-1.3,3-3l0,0v-45.6h-3.5L813.3,8237.8z"/>
		<path d="M871.7,8196.3c0-1.7-1.3-3-3-3l0,0h-3.6c-0.7,0-1.5,0.3-2,0.8c-0.6-0.5-1.3-0.8-2-0.8h-3.6c-1.7,0-3,1.3-3,3v45.6h3.5
			v-44.5c0-0.4,0.3-0.8,0.8-0.8h1.9c0.4,0,0.7,0.3,0.8,0.7c0,0,0,0,0,0v51h3.5v-51c0-0.4,0.3-0.8,0.8-0.8h1.9c0.4,0,0.7,0.3,0.8,0.7
			c0,0,0,0,0,0v51h3.5L871.7,8196.3L871.7,8196.3z"/>
		<path d="M851.1,8244.3v-51h-3.5v52c0,1.7,1.3,3,3,3l0,0h7.4v-3.3h-6.1C851.4,8245,851.1,8244.7,851.1,8244.3L851.1,8244.3z"/>
		<path d="M827.5,8193.3h-7.4v55h3.5v-27.5c0.2,0.2,2.1,2.8,2.9,3.9c0.3,0.4,0.5,0.9,0.5,1.4v22.1h3.5v-23c0-0.6-0.2-1.2-0.5-1.7
			c-0.7-0.9-2.1-2.8-2.1-2.8s1.4-1.9,2.1-2.8c0.4-0.5,0.6-1.1,0.5-1.7v-20C830.5,8194.6,829.2,8193.3,827.5,8193.3L827.5,8193.3z
			 M827,8215.4c0,0.5-0.2,1-0.5,1.4c-0.8,1.1-2.7,3.7-2.9,3.9v-24.2h2.6c0.4,0,0.7,0.3,0.8,0.7c0,0,0,0,0,0V8215.4z"/>
	</g>
</g>
</svg>
