<svg xmlns="http://www.w3.org/2000/svg" width="210" height="210" viewBox="0 0 210 210">
  <defs>
    <style>
      .cls-1 {
        fill: #fff;
      }

      .cls-2 {
        fill: #3599cc;
      }

      .cls-3 {
        fill: #33669a;
      }

      .cls-4 {
        fill: #6d9d31;
      }

      .cls-5 {
        fill: #9aca3c;
      }
    </style>
  </defs>
  <g id="client-orb" transform="translate(-281 -7853)">
    <rect id="_1_5nQ4JqJKoHzlp_a3jmFhZA" data-name="1_5nQ4JqJKoHzlp_a3jmFhZA" class="cls-1" width="210" height="210" transform="translate(281 7853)"/>
    <g id="Layer_2" data-name="Layer 2" transform="translate(309.984 7921.416)">
      <g id="Layer_1" data-name="Layer 1" transform="translate(0.016 0)">
        <path id="Path_31" data-name="Path 31" class="cls-2" d="M85.851,0c-.875,0-1.733.042-2.591.109C88.64.247,94,1.729,98.022,5.066a28.766,28.766,0,0,1,7.146,8.792l4.3-4.3A33.84,33.84,0,0,0,85.851,0" transform="translate(-48.409 0)"/>
        <path id="Path_32" data-name="Path 32" class="cls-3" d="M124.1,22.87l-4.3,4.3c1.675,3.266,2.336,6.192,2.123,7.808a12.643,12.643,0,0,0-.31,4.283c.293,1.218,1.838,2.8,2.931,4.421s3.295,4.388,3.349,5.384-.331,1.386-1.507,1.842-2.227.486-2.282,1.583c-.059,1.256.62,1.482.712,2.424.071.812-.226.917-.837,1.181a7.2,7.2,0,0,1-1.888.419s2.591.368,2.386,1.432-1.75,1.4-1.85,2.261a31.352,31.352,0,0,1,.548,4.777c-.109,2.813-1.938,3.554-6.184,3.073-4.048-.465-6.954-.519-7.368,1.712-.255,1.415-.121,3.768-.594,6.451l-.6,4.04a33.94,33.94,0,0,0,15.658-57.385" transform="translate(-63.042 -13.295)"/>
        <path id="Path_33" data-name="Path 33" class="cls-2" d="M83.878,4.814C79.432,1.125,73.21-.084,67.32.338A19.649,19.649,0,0,1,78.373,4.471C84.38,9.465,86.591,16,86.252,18.571a10.817,10.817,0,0,0-.264,3.646,3.91,3.91,0,0,0,.561,1.139l5.681-5.673A24.445,24.445,0,0,0,83.878,4.8" transform="translate(-39.143 -0.15)"/>
        <path id="Path_34" data-name="Path 34" class="cls-3" d="M81.9,48.251a11.679,11.679,0,0,1,.276-3.91,7.557,7.557,0,0,0-.167-2.391l-5.581,5.618c.523.8,1.285,1.675,1.876,2.6.9,1.361,2.755,3.7,2.792,4.538s-.28,1.168-1.256,1.553-1.842.419-1.88,1.34c-.05,1.055.523,1.256.59,2.051.063.682-.18.762-.678.988a5.811,5.811,0,0,1-1.578.352s2.164.31,2,1.2-1.465,1.181-1.545,1.9a27.4,27.4,0,0,1,.452,4.032c-.1,2.374-1.612,3-5.158,2.591-3.383-.385-5.807-.444-6.154,1.444-.218,1.193-.1,3.173-.494,5.443,0,.092-.594,4.027-.611,4.12a111.822,111.822,0,0,1-15.21-5c6.029,4.425,20.313,9.717,20.313,9.717,0-.1.645-4.358.657-4.459.419-2.458.306-4.605.54-5.89.377-2.043,3.006-1.989,6.665-1.566,3.835.419,5.484-.234,5.585-2.809a29.1,29.1,0,0,0-.49-4.358c.088-.787,1.474-1.055,1.675-2.064s-2.156-1.306-2.156-1.306a6.091,6.091,0,0,0,1.7-.385c.54-.239.8-.327.737-1.063-.075-.862-.695-1.076-.645-2.219.046-1.009.963-1.038,2.039-1.449s1.4-.779,1.356-1.675-2.047-3.446-3.014-4.915-2.361-2.931-2.629-4.036" transform="translate(-28.824 -24.387)"/>
        <path id="Path_35" data-name="Path 35" class="cls-4" d="M38.538,99.32,20.72,117.138a36.712,36.712,0,0,0,6.841,6.28,36.3,36.3,0,0,0,21.72,6.627c.084,0-13.933-2.051-17.613-12.731,21.536,14.2,33.492,6.795,33.492,6.795-7.515-1.453,1.52-15.85-26.627-24.78" transform="translate(-12.052 -57.739)"/>
        <path id="Path_36" data-name="Path 36" class="cls-5" d="M5.406,59.988a19.585,19.585,0,0,1-2.328-6.313c-.1-.59-.184-1.193-.239-1.8A36.448,36.448,0,0,0,8.7,89.549L26.5,71.735c-1.876-.594-3.914-1.168-6.142-1.708C11.535,67.649,7.189,63.969,5.406,59.979" transform="translate(-0.016 -30.154)"/>
        <path id="Path_37" data-name="Path 37" class="cls-2" d="M194.5,70.941v-2.06c0-8.624,4.4-13.782,13.1-14.628v-5.1c-5.769,0-11.136,2.4-13.1,6.623V50.247H189.52V75.923Z" transform="translate(-110.183 -28.573)"/>
        <path id="Path_38" data-name="Path 38" class="cls-3" d="M189.52,106.186v20.552H194.5V101.2Z" transform="translate(-110.183 -58.832)"/>
        <path id="Path_39" data-name="Path 39" class="cls-3" d="M303.291,77.443A19.442,19.442,0,0,1,306,87.491c0,11.019-8.13,19.334-18.89,19.334a18.563,18.563,0,0,1-10.178-3.035l-3.873,3.868a22.42,22.42,0,0,0,13.535,4.279c13.941,0,24.42-10.4,24.42-24.282a24.215,24.215,0,0,0-4.187-13.774Z" transform="translate(-158.748 -42.95)"/>
        <path id="Path_40" data-name="Path 40" class="cls-2" d="M273.436,21.158c-7.774,0-14.2,3.211-18.17,9.043V1H250.28V68.487h4.986V60.533a19.7,19.7,0,0,0,4.551,4.764l3.873-3.868a19.455,19.455,0,0,1-8.813-16.3,18.809,18.809,0,0,1,19.074-18.9,18.419,18.419,0,0,1,16.1,8.834l3.525-3.5a24.133,24.133,0,0,0-20.137-10.4" transform="translate(-145.505 -0.581)"/>
      </g>
    </g>
  </g>
</svg>
