<svg xmlns="http://www.w3.org/2000/svg" width="210" height="210" viewBox="0 0 210 210">
  <defs>
    <style>
      .cls-1 {
        fill: #fff;
      }

      .cls-2 {
        fill: #00bacc;
      }
    </style>
  </defs>
  <g id="client-codestream" transform="translate(-521 -7853)">
    <rect id="_0d7491b73c7f31029d3657a3edda467a" data-name="0d7491b73c7f31029d3657a3edda467a" class="cls-1" width="210" height="210" transform="translate(521 7853)"/>
    <g id="Codestream" transform="translate(547.012 7947)">
      <path id="Path_41" data-name="Path 41" d="M181.064,21.451a12.731,12.731,0,0,0-2.444-.731c-.821-.16-1.591-.336-2.287-.524a5.866,5.866,0,0,1-1.611-.665.864.864,0,0,1-.43-.806c0-.391,0-1.478,2.737-1.478,2.518,0,2.937.985,3.03,1.728l.066.524h3.4l-.074-.669a4.774,4.774,0,0,0-1.689-3.23,6.976,6.976,0,0,0-4.575-1.412,7.432,7.432,0,0,0-4.6,1.208,4.184,4.184,0,0,0-1.67,3.519,3.492,3.492,0,0,0,.872,2.491,5.537,5.537,0,0,0,1.99,1.333,13.435,13.435,0,0,0,2.436.712c.821.16,1.588.34,2.28.536a5.721,5.721,0,0,1,1.6.7.954.954,0,0,1,.442.876,1.319,1.319,0,0,1-1,1.314,4.985,4.985,0,0,1-1.11.285,6.115,6.115,0,0,1-2.589-.117A2.416,2.416,0,0,1,174,24.869l-.055-.544H170.51l.035.637a5.017,5.017,0,0,0,1.889,3.75,7.5,7.5,0,0,0,4.986,1.588,8.014,8.014,0,0,0,4.653-1.22,4.3,4.3,0,0,0,1.846-3.719,3.64,3.64,0,0,0-.864-2.542,5.56,5.56,0,0,0-1.99-1.369Z" transform="translate(-103.843 -8.641)"/>
      <path id="Path_42" data-name="Path 42" d="M213.123,2.14h-3.375V7.317H206.8V10.43h2.948V22.974h3.375V10.43h3.324V7.317h-3.324Z" transform="translate(-125.943 -1.303)"/>
      <path id="Path_43" data-name="Path 43" d="M243.307,14.787h-.747A5.893,5.893,0,0,0,240,15.3a6.37,6.37,0,0,0-2.151,1.564v-1.85H234.47V30.659h3.375V23.714A6.119,6.119,0,0,1,239.1,19.8a4.016,4.016,0,0,1,3.339-1.65h.864Z" transform="translate(-142.794 -9.004)"/>
      <path id="Path_44" data-name="Path 44" d="M313.984,15.778a6.44,6.44,0,0,0-4.43-1.564,7.28,7.28,0,0,0-5.682,2.37,8.29,8.29,0,0,0-2.057,5.693,8.286,8.286,0,0,0,2.061,5.693,7.167,7.167,0,0,0,5.537,2.366,6.725,6.725,0,0,0,4.571-1.564V30.1h3.371V14.457h-3.371Zm.113,6.487a5.138,5.138,0,0,1-1.173,3.484,3.969,3.969,0,0,1-3.218,1.4,4.176,4.176,0,0,1-3.3-1.415,4.989,4.989,0,0,1-1.208-3.472,5,5,0,0,1,1.2-3.472,4.2,4.2,0,0,1,3.308-1.419,3.973,3.973,0,0,1,3.242,1.408,5.13,5.13,0,0,1,1.15,3.484Z" transform="translate(-183.804 -8.654)"/>
      <path id="Path_45" data-name="Path 45" d="M367.456,16.6a6,6,0,0,0-1.916-1.329,5.689,5.689,0,0,0-2.26-.465,5.9,5.9,0,0,0-2.108.356,6.3,6.3,0,0,0-2.831,2.029,5.7,5.7,0,0,0-1.623-1.529,5.568,5.568,0,0,0-3-.856,5.474,5.474,0,0,0-3.789,1.337V15.027H346.56V30.668h3.375V21.44a3.355,3.355,0,0,1,.974-2.577,3.167,3.167,0,0,1,2.327-.9,2.737,2.737,0,0,1,2.119.9,3.7,3.7,0,0,1,.86,2.549v9.275h3.375V21.44a3.355,3.355,0,0,1,.974-2.577,3.171,3.171,0,0,1,2.327-.9,2.737,2.737,0,0,1,2.119.9,3.7,3.7,0,0,1,.884,2.549v9.275h3.371V21.35A6.718,6.718,0,0,0,367.456,16.6Z" transform="translate(-211.054 -9.013)"/>
      <path id="Path_46" data-name="Path 46" d="M270.477,25.343A3.774,3.774,0,0,1,267,27.138a4.274,4.274,0,0,1-3.109-1.173,4.5,4.5,0,0,1-1.29-2.26h12V22.25a8.129,8.129,0,0,0-2.072-5.7,8.063,8.063,0,0,0-11.406,0,8.145,8.145,0,0,0-2.065,5.7,8.012,8.012,0,0,0,2.158,5.7,7.6,7.6,0,0,0,5.756,2.346,7.492,7.492,0,0,0,4.571-1.322,7.582,7.582,0,0,0,2.585-3.449l.074-.184Zm-6.589-6.9a4.536,4.536,0,0,1,5.889,0A4.336,4.336,0,0,1,271,20.495H262.66A4.3,4.3,0,0,1,263.888,18.446Z" transform="translate(-157.767 -8.639)"/>
      <path id="Path_47" data-name="Path 47" class="cls-2" d="M6.059,17.756a5.173,5.173,0,0,1,2.112-.391,3.437,3.437,0,0,1,2.1.673,3.871,3.871,0,0,1,1.357,1.76l.152.391h3.566l-.242-.782a7.2,7.2,0,0,0-2.651-3.75,7.946,7.946,0,0,0-4.743-1.443A7.32,7.32,0,0,0,2.09,16.56a8.125,8.125,0,0,0-2.1,5.7,8.141,8.141,0,0,0,2.1,5.7,7.316,7.316,0,0,0,5.619,2.346,7.957,7.957,0,0,0,4.751-1.447A7.2,7.2,0,0,0,15.1,25.115l.242-.782H11.779l-.152.391A3.84,3.84,0,0,1,10.27,26.48a3.414,3.414,0,0,1-2.1.665,4.453,4.453,0,0,1-3.543-1.419,4.923,4.923,0,0,1-1.263-3.468,4.942,4.942,0,0,1,1.267-3.476,4.114,4.114,0,0,1,1.427-1.024Z" transform="translate(0 -8.653)"/>
      <path id="Path_48" data-name="Path 48" class="cls-2" d="M50.026,14.183a7.468,7.468,0,0,0-5.7,2.346,8.129,8.129,0,0,0-2.068,5.7,8.145,8.145,0,0,0,2.072,5.7,7.472,7.472,0,0,0,5.7,2.346,7.484,7.484,0,0,0,5.7-2.346,8.157,8.157,0,0,0,2.061-5.682,8.145,8.145,0,0,0-2.068-5.7A7.468,7.468,0,0,0,50.026,14.183Zm3.238,11.547a4.44,4.44,0,0,1-6.479,0,5.158,5.158,0,0,1-1.173-3.484,5.15,5.15,0,0,1,1.173-3.488,4.436,4.436,0,0,1,6.479,0,5.15,5.15,0,0,1,1.173,3.484,5.138,5.138,0,0,1-1.173,3.484Z" transform="translate(-25.734 -8.634)"/>
      <path id="Path_49" data-name="Path 49" class="cls-2" d="M97.168,7.124A6.428,6.428,0,0,0,92.742,5.56,7.28,7.28,0,0,0,87.06,7.93,8.294,8.294,0,0,0,85,13.611,8.29,8.29,0,0,0,87.06,19.3a7.163,7.163,0,0,0,5.533,2.366,6.722,6.722,0,0,0,4.571-1.564v1.326h3.375V0H97.164ZM96.124,17.1a3.957,3.957,0,0,1-3.238,1.4,4.192,4.192,0,0,1-3.308-1.415,5.009,5.009,0,0,1-1.2-3.472,4.993,4.993,0,0,1,1.2-3.472A4.2,4.2,0,0,1,92.886,8.72a3.973,3.973,0,0,1,3.242,1.408A5.15,5.15,0,0,1,97.3,13.611,5.138,5.138,0,0,1,96.124,17.1Z" transform="translate(-51.765)"/>
      <path id="Path_50" data-name="Path 50" class="cls-2" d="M139.186,25.343a3.783,3.783,0,0,1-3.472,1.795,4.278,4.278,0,0,1-3.128-1.173,4.532,4.532,0,0,1-1.29-2.26h12V22.25a8.129,8.129,0,0,0-2.072-5.7,8.063,8.063,0,0,0-11.406,0,8.145,8.145,0,0,0-2.065,5.7,8.012,8.012,0,0,0,2.158,5.7,7.605,7.605,0,0,0,5.756,2.346,7.492,7.492,0,0,0,4.567-1.322,7.617,7.617,0,0,0,2.589-3.449l.07-.184Zm-6.608-6.9a4.536,4.536,0,0,1,5.889,0,4.3,4.3,0,0,1,1.228,2.049h-8.329A4.3,4.3,0,0,1,132.578,18.446Z" transform="translate(-77.802 -8.639)"/>
    </g>
  </g>
</svg>
