<svg xmlns="http://www.w3.org/2000/svg" xmlns:xlink="http://www.w3.org/1999/xlink" width="330" height="296" viewBox="0 0 330 296">
  <defs>
    <clipPath id="clip-path">
      <rect id="Rectangle_2924" data-name="Rectangle 2924" width="330" height="296" fill="#fff"/>
    </clipPath>
    <linearGradient id="linear-gradient" y1="0.5" x2="1" y2="0.5" gradientUnits="objectBoundingBox">
      <stop offset="0" stop-color="#8b8bff"/>
      <stop offset="0.617" stop-color="#b4b4ff"/>
    </linearGradient>
    <linearGradient id="linear-gradient-2" x1="-0.219" y1="0.5" x2="1.119" y2="0.5" gradientUnits="objectBoundingBox">
      <stop offset="0" stop-color="#fff"/>
      <stop offset="0" stop-color="#fefeff"/>
      <stop offset="1" stop-color="#ccceee"/>
    </linearGradient>
    <linearGradient id="linear-gradient-21" y1="0.517" x2="1.119" y2="0.5" gradientUnits="objectBoundingBox">
      <stop offset="0" stop-color="#fff"/>
      <stop offset="1" stop-color="#ccceee"/>
    </linearGradient>
    <linearGradient id="linear-gradient-33" x1="-0.049" y1="0.385" x2="1.799" y2="0.715" gradientUnits="objectBoundingBox">
      <stop offset="0" stop-color="#f9b233"/>
      <stop offset="1" stop-color="#e6007e"/>
    </linearGradient>
    <linearGradient id="linear-gradient-34" x1="0.649" y1="-0.131" x2="0.175" y2="1.616" xlink:href="#linear-gradient-33"/>
    <radialGradient id="radial-gradient" cx="0.5" cy="0.5" r="1.104" gradientTransform="matrix(0.453, 0, 0, -0.453, 17.414, 138.806)" gradientUnits="objectBoundingBox">
      <stop offset="0" stop-color="#972a74"/>
      <stop offset="0.041" stop-color="#8a266a"/>
      <stop offset="0.194" stop-color="#601a49"/>
      <stop offset="0.35" stop-color="#3d112f"/>
      <stop offset="0.507" stop-color="#22091a"/>
      <stop offset="0.667" stop-color="#0f040b"/>
      <stop offset="0.829" stop-color="#030102"/>
      <stop offset="1"/>
    </radialGradient>
    <radialGradient id="radial-gradient-2" cx="0.469" cy="0.417" r="0.864" gradientTransform="matrix(-0.658, -0.485, -0.121, 0.289, -86.942, -319.22)" gradientUnits="objectBoundingBox">
      <stop offset="0" stop-color="#4b61b8"/>
      <stop offset="0.128" stop-color="#38488a"/>
      <stop offset="0.267" stop-color="#273260"/>
      <stop offset="0.409" stop-color="#19203d"/>
      <stop offset="0.552" stop-color="#0e1222"/>
      <stop offset="0.697" stop-color="#06080f"/>
      <stop offset="0.845" stop-color="#010103"/>
      <stop offset="1"/>
    </radialGradient>
    <radialGradient id="radial-gradient-3" cx="0.437" cy="0.788" r="1.13" gradientTransform="matrix(-0.33, 0, 0, 1, 0.623, 0)" gradientUnits="objectBoundingBox">
      <stop offset="0" stop-color="#fff"/>
      <stop offset="1"/>
    </radialGradient>
    <radialGradient id="radial-gradient-4" cx="0.559" cy="0.323" r="0.454" gradientTransform="matrix(-1.239, 0, 0, 1, 1.265, 0)" xlink:href="#radial-gradient-3"/>
  </defs>
  <g id="cloud-solution-1" clip-path="url(#clip-path)">
    <g id="Group_11404" data-name="Group 11404" transform="translate(24.098 -342.852)">
      <path id="Path_11556" data-name="Path 11556" d="M23.386,503.721l94.409,49.133,133.761-81.188-89.58-52.448Z" transform="translate(12.905 66.965)" fill="url(#linear-gradient)"/>
      <g id="Group_11358" data-name="Group 11358" transform="translate(40.06 410.524)">
        <g id="Group_11315" data-name="Group 11315" transform="translate(126.119 24.646)">
          <g id="Group_11314" data-name="Group 11314" style="isolation: isolate">
            <g id="Group_11311" data-name="Group 11311" transform="translate(42.992 24.824)">
              <path id="Path_11557" data-name="Path 11557" d="M84.064,485.839l3.184-1.847.209-73.966-3.182,1.853Z" transform="translate(-84.064 -410.026)" fill="url(#linear-gradient-2)"/>
            </g>
            <g id="Group_11312" data-name="Group 11312" transform="translate(0.203)">
              <path id="Path_11558" data-name="Path 11558" d="M112.046,427.991l3.182-1.853L72.233,401.313l-3.187,1.847Z" transform="translate(-69.046 -401.313)" fill="url(#linear-gradient-2)"/>
            </g>
            <g id="Group_11313" data-name="Group 11313" transform="translate(0 1.847)">
              <path id="Path_11559" data-name="Path 11559" d="M69.178,401.962l-.2,73.969,42.992,24.821.211-73.96Z" transform="translate(-68.975 -401.962)" fill="url(#linear-gradient-2)"/>
            </g>
          </g>
        </g>
        <g id="Group_11321" data-name="Group 11321" transform="translate(19.045 87.588)">
          <g id="Group_11320" data-name="Group 11320" style="isolation: isolate">
            <g id="Group_11317" data-name="Group 11317" transform="translate(42.998 24.824)">
              <g id="Group_11316" data-name="Group 11316">
                <path id="Path_11560" data-name="Path 11560" d="M46.485,507.931l3.182-1.842.213-73.971-3.187,1.853Z" transform="translate(-46.485 -432.118)" fill="url(#linear-gradient-2)"/>
              </g>
            </g>
            <g id="Group_11318" data-name="Group 11318" transform="translate(0.211)">
              <path id="Path_11561" data-name="Path 11561" d="M74.461,450.082l3.187-1.853-43-24.824-3.184,1.853Z" transform="translate(-31.467 -423.405)" fill="url(#linear-gradient-2)"/>
            </g>
            <g id="Group_11319" data-name="Group 11319" transform="translate(0 1.853)">
              <path id="Path_11562" data-name="Path 11562" d="M31.6,424.056l-.211,73.96,43,24.824.207-73.96Z" transform="translate(-31.393 -424.056)" fill="url(#linear-gradient-2)"/>
            </g>
          </g>
        </g>
        <g id="Group_11326" data-name="Group 11326" transform="translate(0 21.58)">
          <g id="Group_11325" data-name="Group 11325">
            <g id="Group_11322" data-name="Group 11322" transform="translate(0 72.864)">
              <path id="Path_11563" data-name="Path 11563" d="M24.708,425.811l.007,4.708,55.44,32.208-.018-4.7Z" transform="translate(-24.708 -425.811)" fill="url(#linear-gradient-2)"/>
            </g>
            <g id="Group_11323" data-name="Group 11323" transform="translate(55.428 32.22)">
              <path id="Path_11564" data-name="Path 11564" d="M44.163,484.41l.018,4.7,126.188-72.853-.006-4.708Z" transform="translate(-44.163 -411.546)" fill="url(#linear-gradient-2)"/>
            </g>
            <g id="Group_11324" data-name="Group 11324">
              <path id="Path_11565" data-name="Path 11565" d="M24.708,473.1l55.428,32.22,126.2-72.864L150.9,400.237Z" transform="translate(-24.708 -400.237)" fill="url(#linear-gradient-2)"/>
            </g>
          </g>
        </g>
        <g id="Group_11341" data-name="Group 11341" transform="translate(79.194)">
          <g id="Group_11328" data-name="Group 11328" transform="translate(14.449 45.544)">
            <g id="Group_11327" data-name="Group 11327">
              <path id="Path_11566" data-name="Path 11566" d="M57.576,428.609l14.595,8.483,34.578-19.963-14.592-8.481Z" transform="translate(-57.576 -408.648)" fill="url(#linear-gradient)"/>
            </g>
          </g>
          <g id="Group_11340" data-name="Group 11340">
            <g id="Group_11333" data-name="Group 11333" transform="translate(16.221 49.364)">
              <g id="Group_11329" data-name="Group 11329" transform="translate(0 13.834)">
                <path id="Path_11567" data-name="Path 11567" d="M58.2,414.845l.008,2.07L68.317,422.8l0-2.081Z" transform="translate(-58.198 -414.845)" fill="url(#linear-gradient-2)"/>
              </g>
              <g id="Group_11330" data-name="Group 11330" transform="translate(10.115 5.879)">
                <path id="Path_11568" data-name="Path 11568" d="M61.748,425.878l0,2.081L85.718,414.12l-.007-2.067Z" transform="translate(-61.748 -412.053)" fill="url(#linear-gradient-2)"/>
              </g>
              <g id="Group_11331" data-name="Group 11331">
                <path id="Path_11569" data-name="Path 11569" d="M58.2,423.823l10.115,5.871,23.963-13.826-10.115-5.879Z" transform="translate(-58.198 -409.989)" fill="url(#linear-gradient-2)"/>
              </g>
              <g id="Group_11332" data-name="Group 11332">
                <path id="Path_11570" data-name="Path 11570" d="M58.2,423.823l34.078-7.955h0l-10.115-5.879Z" transform="translate(-58.198 -409.989)" fill="url(#linear-gradient-2)"/>
              </g>
            </g>
            <g id="Group_11337" data-name="Group 11337" transform="translate(23.715 36.059)">
              <g id="Group_11334" data-name="Group 11334" transform="translate(0 9.404)">
                <path id="Path_11571" data-name="Path 11571" d="M62.677,428.364l-1.8-1.046-.052-18.7,1.8,1.043Z" transform="translate(-60.828 -408.62)" fill="url(#linear-gradient-2)"/>
              </g>
              <g id="Group_11335" data-name="Group 11335">
                <path id="Path_11572" data-name="Path 11572" d="M62.626,415.767l-1.8-1.043,16.278-9.4,1.795,1.049Z" transform="translate(-60.828 -405.319)" fill="url(#linear-gradient-2)"/>
              </g>
              <g id="Group_11336" data-name="Group 11336" transform="translate(1.798 1.049)">
                <path id="Path_11573" data-name="Path 11573" d="M77.734,405.687l.052,18.7-16.275,9.4-.052-18.7Z" transform="translate(-61.459 -405.687)" fill="url(#linear-gradient-2)"/>
              </g>
            </g>
            <path id="Path_11574" data-name="Path 11574" d="M61.676,439.617l-1.735-.484L52.5,402.462l1.733.484Z" transform="translate(-52.504 -374.544)" fill="url(#linear-gradient-2)"/>
            <path id="Path_11575" data-name="Path 11575" d="M54.238,421.065l-1.733-.484,48.366-27.918,1.729.479Z" transform="translate(-52.504 -392.663)" fill="url(#linear-gradient-2)"/>
            <path id="Path_11576" data-name="Path 11576" d="M101.474,392.831l7.437,36.671-48.36,27.924-7.439-36.671Z" transform="translate(-51.379 -392.352)" fill="url(#linear-gradient-21)"/>
            <path id="Path_11577" data-name="Path 11577" d="M98.866,393.858l6.6,33.032-44.776,25.9-6.868-33.458Z" transform="translate(-50.065 -390.453)" fill="#645ad2"/>
            <path id="Path_11578" data-name="Path 11578" d="M86.646,397.648l4.3,21.5L61.792,436.019l-4.47-21.788Z" transform="translate(-43.596 -383.446)" fill="#defcff"/>
            <path id="Path_11579" data-name="Path 11579" d="M78.219,400.151l.181.957L62.073,410.98l-.178-.94Z" transform="translate(-35.14 -378.816)" fill="#ff7220"/>
            <path id="Path_11580" data-name="Path 11580" d="M78.072,399.248l.193.96-16.337,9.866-.174-.929Z" transform="translate(-35.399 -380.487)" fill="#ff7220"/>
            <path id="Path_11581" data-name="Path 11581" d="M78.652,402.189l.186.963L62.5,413.017l-.174-.935Z" transform="translate(-34.345 -375.05)" fill="#ff7220"/>
            <path id="Path_11582" data-name="Path 11582" d="M78.508,401.285l.189.96-16.337,9.866-.174-.935Z" transform="translate(-34.6 -376.72)" fill="#ff7220"/>
            <path id="Path_11583" data-name="Path 11583" d="M56.97,402.632l.359,1.823-2.467,1.43-.383-1.844Z" transform="translate(-48.852 -374.23)" fill="#ff7220"/>
            <path id="Path_11584" data-name="Path 11584" d="M57.362,404.284l.36,1.82-2.467,1.436-.383-1.85Z" transform="translate(-48.124 -371.174)" fill="#ff7220"/>
            <path id="Path_11585" data-name="Path 11585" d="M57.711,406.065l.366,1.822-2.475,1.43-.378-1.842Z" transform="translate(-47.477 -367.882)" fill="#ff7220"/>
            <path id="Path_11586" data-name="Path 11586" d="M58,407.687l.364,1.823-2.465,1.43-.39-1.85Z" transform="translate(-46.95 -364.883)" fill="#ff7220"/>
            <g id="Group_11338" data-name="Group 11338" transform="translate(16.276 27.679)">
              <path id="Path_11587" data-name="Path 11587" d="M58.217,406.4l7.633-4.023,1.912,9.821-7.641,4.029Zm2.057,8.354,6.841-3.6a2.975,2.975,0,0,0-2.71-2.282,2.759,2.759,0,0,0,.026-1.111c-.217-1.1-1.108-1.627-1.98-1.162a2.757,2.757,0,0,0-1.2,2.841,1.854,1.854,0,0,0,.422.886,6.33,6.33,0,0,0-1.4,4.43Z" transform="translate(-58.217 -402.378)" fill="#ff7220"/>
            </g>
            <g id="Group_11339" data-name="Group 11339" transform="translate(18.316 31.73)">
              <path id="Path_11588" data-name="Path 11588" d="M61.127,403.968c.872-.464,1.764.066,1.98,1.162a2.759,2.759,0,0,1-.026,1.111,2.975,2.975,0,0,1,2.71,2.282l-6.841,3.6a6.33,6.33,0,0,1,1.4-4.43,1.854,1.854,0,0,1-.422-.886A2.757,2.757,0,0,1,61.127,403.968Z" transform="translate(-58.933 -403.8)" fill="#ffbd23"/>
            </g>
          </g>
        </g>
        <g id="Group_11357" data-name="Group 11357" transform="translate(28.253 29.198)">
          <g id="Group_11343" data-name="Group 11343" transform="translate(14.77 45.057)">
            <g id="Group_11342" data-name="Group 11342">
              <path id="Path_11589" data-name="Path 11589" d="M39.809,438.686,54.4,447.172,88.981,427.2l-14.595-8.478Z" transform="translate(-39.809 -418.726)" fill="url(#linear-gradient)"/>
            </g>
          </g>
          <g id="Group_11356" data-name="Group 11356">
            <g id="Group_11348" data-name="Group 11348" transform="translate(16.225 49.37)">
              <g id="Group_11344" data-name="Group 11344" transform="translate(0 13.831)">
                <path id="Path_11590" data-name="Path 11590" d="M40.32,425.094v2.078l10.121,5.874,0-2.073Z" transform="translate(-40.32 -425.094)" fill="url(#linear-gradient-2)"/>
              </g>
              <g id="Group_11345" data-name="Group 11345" transform="translate(10.117 5.876)">
                <path id="Path_11591" data-name="Path 11591" d="M43.871,436.135l0,2.073,23.964-13.831-.008-2.076Z" transform="translate(-43.871 -422.302)" fill="url(#linear-gradient-2)"/>
              </g>
              <g id="Group_11346" data-name="Group 11346">
                <path id="Path_11592" data-name="Path 11592" d="M40.32,434.07l10.117,5.879L74.4,426.116l-10.111-5.876Z" transform="translate(-40.32 -420.239)" fill="url(#linear-gradient-2)"/>
              </g>
              <g id="Group_11347" data-name="Group 11347">
                <path id="Path_11593" data-name="Path 11593" d="M40.32,434.07,74.4,426.116h0l-10.111-5.876Z" transform="translate(-40.32 -420.239)" fill="url(#linear-gradient-2)"/>
              </g>
            </g>
            <g id="Group_11353" data-name="Group 11353" transform="translate(23.721 36.07)">
              <g id="Group_11349" data-name="Group 11349" transform="translate(0 9.402)">
                <path id="Path_11594" data-name="Path 11594" d="M44.8,438.606,43,437.571l-.049-18.7,1.79,1.043Z" transform="translate(-42.951 -418.871)" fill="url(#linear-gradient-2)"/>
              </g>
              <g id="Group_11350" data-name="Group 11350">
                <path id="Path_11595" data-name="Path 11595" d="M44.741,426.016l-1.79-1.043,16.275-9.4,1.8,1.041Z" transform="translate(-42.951 -415.571)" fill="url(#linear-gradient-2)"/>
              </g>
              <g id="Group_11352" data-name="Group 11352" transform="translate(1.79 1.041)">
                <g id="Group_11351" data-name="Group 11351">
                  <path id="Path_11596" data-name="Path 11596" d="M59.86,415.937l.056,18.7-16.282,9.393-.054-18.692Z" transform="translate(-43.579 -415.937)" fill="url(#linear-gradient-2)"/>
                </g>
              </g>
            </g>
            <path id="Path_11597" data-name="Path 11597" d="M43.8,449.865l-1.736-.487-7.436-36.666,1.732.481Z" transform="translate(-34.625 -384.788)" fill="url(#linear-gradient-2)"/>
            <path id="Path_11598" data-name="Path 11598" d="M36.357,431.316l-1.732-.481,48.367-27.924,1.731.487Z" transform="translate(-34.625 -402.911)" fill="url(#linear-gradient-2)"/>
            <path id="Path_11599" data-name="Path 11599" d="M83.6,403.082l7.441,36.671L42.673,467.672,35.233,431Z" transform="translate(-33.501 -402.595)" fill="url(#linear-gradient-21)"/>
            <path id="Path_11600" data-name="Path 11600" d="M80.981,404.106l6.609,33.037-44.78,25.9-6.864-33.449Z" transform="translate(-32.182 -400.701)" fill="#645ad2"/>
            <path id="Path_11601" data-name="Path 11601" d="M68.768,407.9l4.3,21.507L43.914,446.275l-4.471-21.791Z" transform="translate(-25.717 -393.694)" fill="#defcff"/>
            <path id="Path_11602" data-name="Path 11602" d="M60.341,410.4l.182.954-16.33,9.869-.178-.932Z" transform="translate(-17.261 -389.057)" fill="#ff721f"/>
            <path id="Path_11603" data-name="Path 11603" d="M60.2,409.5l.184.96-16.331,9.858-.179-.927Z" transform="translate(-17.52 -390.729)" fill="#ff7220"/>
            <path id="Path_11604" data-name="Path 11604" d="M60.773,412.438l.182.966-16.334,9.863-.174-.932Z" transform="translate(-16.462 -385.296)" fill="#ff7220"/>
            <path id="Path_11605" data-name="Path 11605" d="M60.631,411.536l.186.96L44.483,422.36l-.175-.932Z" transform="translate(-16.72 -386.962)" fill="#ff7220"/>
            <path id="Path_11606" data-name="Path 11606" d="M39.087,412.881l.369,1.822-2.472,1.43-.384-1.845Z" transform="translate(-30.973 -384.476)" fill="#ff7220"/>
            <path id="Path_11607" data-name="Path 11607" d="M39.486,414.534l.36,1.825-2.469,1.43-.384-1.848Z" transform="translate(-30.247 -381.419)" fill="#ff7220"/>
            <path id="Path_11608" data-name="Path 11608" d="M39.833,416.315l.366,1.823-2.476,1.427-.379-1.848Z" transform="translate(-29.597 -378.125)" fill="#ff7220"/>
            <path id="Path_11609" data-name="Path 11609" d="M40.12,417.938l.364,1.822-2.472,1.43-.381-1.845Z" transform="translate(-29.066 -375.125)" fill="#ff7220"/>
            <g id="Group_11354" data-name="Group 11354" transform="translate(16.274 27.685)">
              <path id="Path_11610" data-name="Path 11610" d="M40.337,416.651l7.633-4.023,1.915,9.824-7.636,4.02ZM42.4,425l6.838-3.6a3,3,0,0,0-2.718-2.291,2.692,2.692,0,0,0,.037-1.108c-.222-1.1-1.108-1.621-1.983-1.157a2.751,2.751,0,0,0-1.208,2.832,1.889,1.889,0,0,0,.416.886A6.348,6.348,0,0,0,42.4,425Z" transform="translate(-40.337 -412.628)" fill="#ff7220"/>
            </g>
            <g id="Group_11355" data-name="Group 11355" transform="translate(18.321 31.737)">
              <path id="Path_11611" data-name="Path 11611" d="M43.248,414.22c.875-.464,1.761.057,1.983,1.157a2.692,2.692,0,0,1-.037,1.108,3,3,0,0,1,2.718,2.291l-6.838,3.6a6.348,6.348,0,0,1,1.382-4.436,1.889,1.889,0,0,1-.416-.886A2.751,2.751,0,0,1,43.248,414.22Z" transform="translate(-41.056 -414.05)" fill="#ffbd23"/>
            </g>
          </g>
        </g>
      </g>
      <g id="Group_11377" data-name="Group 11377" transform="translate(137.698 468.533)">
        <g id="Group_11376" data-name="Group 11376" style="isolation: isolate">
          <g id="Group_11371" data-name="Group 11371" transform="translate(0 24.986)">
            <path id="Path_11636" data-name="Path 11636" d="M58.978,421.793l.006,2.323,12.38,7.192-.007-2.32Z" transform="translate(-58.978 -421.793)" fill="#82a5b5"/>
          </g>
          <g id="Group_11372" data-name="Group 11372" transform="translate(12.379 7.195)">
            <path id="Path_11637" data-name="Path 11637" d="M63.323,440.534l.007,2.32L106.6,417.87l-.006-2.321Z" transform="translate(-63.323 -415.549)" fill="#5b737e"/>
          </g>
          <g id="Group_11373" data-name="Group 11373">
            <path id="Path_11638" data-name="Path 11638" d="M58.978,438.009l12.379,7.2,43.276-24.986-12.38-7.2Z" transform="translate(-58.978 -413.023)" fill="#92b8ca"/>
          </g>
          <g id="Group_11374" data-name="Group 11374" transform="translate(2.924 1.758)">
            <path id="Path_11639" data-name="Path 11639" d="M60,436.473l4.208,2.446,40.052-22.974-4.494-2.3Z" transform="translate(-60.004 -413.641)" fill="#abcfdd"/>
          </g>
          <g id="Group_11375" data-name="Group 11375" transform="translate(9.196 5.064)">
            <path id="Path_11640" data-name="Path 11640" d="M62.206,437.633l4.208,2.446L106.466,417.1l-4.493-2.3Z" transform="translate(-62.206 -414.801)" fill="#abcfdd"/>
          </g>
        </g>
      </g>
      <g id="Group_11403" data-name="Group 11403" transform="translate(144.935 444.624)">
        <path id="Path_11654" data-name="Path 11654" d="M111.421,414.763c-4.336-1.057-7.986,12.089-15.075,21.75L80.271,425.692c-4.4,2.02-2.789,2.992-2.789,2.992A43.355,43.355,0,0,0,95.238,445.12v-.006a6.355,6.355,0,0,0,3.331.521c8.106-4.04,12.65-12.334,16.274-22.565C117.438,415.746,111.421,414.763,111.421,414.763Z" transform="translate(-32.529 -386.009)" fill="#efb185"/>
        <path id="Path_11655" data-name="Path 11655" d="M97.248,413.815s14.434,3.371,0,24.48c0,0-9.872,1.479-12.117-7.809C85.131,430.485,89.96,412.977,97.248,413.815Z" transform="translate(-17.855 -387.705)" fill="#ff7220"/>
        <path id="Path_11656" data-name="Path 11656" d="M86.32,422.719s-5.781-7.163-12.354-6.428c0,0-.219,1.974,2.533,3.049a5.464,5.464,0,0,1,3.476,4.165c-.068.393-2.325.359-3.331.293s-2.4,1.419.009,1.886,6.433,2.051,8.866,1.718C85.519,427.4,88.226,424.693,86.32,422.719Z" transform="translate(-38.509 -383.169)" fill="#ffc2b0"/>
        <path id="Path_11657" data-name="Path 11657" d="M108.259,448.114a1.515,1.515,0,0,1-.892,1.256L78.9,465.8a3.833,3.833,0,0,1-.983.382l-.028.006a5.213,5.213,0,0,1-1.1.131h-.057a4.832,4.832,0,0,1-1.054-.131l-.114-.017a4.124,4.124,0,0,1-.94-.37,1.723,1.723,0,0,1-.33-.236.121.121,0,0,1-.051-.04,1.416,1.416,0,0,1-.268-.291l-.011-.014a1.83,1.83,0,0,1-.154-.3l-.014-.046a1.456,1.456,0,0,1-.054-.308v.028l.011,2.1a.663.663,0,0,0,.023.177c.006.046.017.077.023.114l.011.04.011.023a.648.648,0,0,0,.088.171.271.271,0,0,0,.04.068c.017.023.026.046.04.068a.2.2,0,0,1,.037.048,1.659,1.659,0,0,0,.182.194l.014.011c.066.06.145.111.214.165s.1.08.154.117c.02,0,.023.009.034.011a3.462,3.462,0,0,0,.67.3c.091.028.188.051.282.077a.6.6,0,0,1,.1.023c.066.009.128.034.191.04.128.023.256.043.382.057s.228.023.333.023H76.9a2.435,2.435,0,0,0,.285-.017c.094-.006.2-.02.3-.023s.208-.04.3-.06.208-.043.311-.068c.131-.046.251-.088.373-.128a3.423,3.423,0,0,0,.433-.219l28.471-16.437a1.509,1.509,0,0,0,.9-1.248Z" transform="translate(-38.931 -324.228)" fill="#242626"/>
        <path id="Path_11658" data-name="Path 11658" d="M108.814,464.5a.172.172,0,0,1-.026.051,1.388,1.388,0,0,1-.131.271c-.011.011-.02.034-.037.046a1.609,1.609,0,0,1-.242.279,1.976,1.976,0,0,1-.219.154.989.989,0,0,1-.177.125,3.424,3.424,0,0,1-.923.362,1.256,1.256,0,0,0-.151.031,4.428,4.428,0,0,1-1.023.122h-.077a4.648,4.648,0,0,1-1.066-.122.255.255,0,0,0-.074-.014,3.772,3.772,0,0,1-.972-.379L75.237,449a1.526,1.526,0,0,1-.9-1.254l-.011,2.1a1.537,1.537,0,0,0,.9,1.259L103.7,467.544a3.24,3.24,0,0,0,.436.208c.123.043.242.083.368.123.066.014.125.031.185.046h.028c.034.011.066.026.1.034.105.014.2.043.3.051s.2.02.3.037.2.006.3.006a.656.656,0,0,0,.105,0h.205a2.277,2.277,0,0,0,.33-.023c.131-.017.256-.028.382-.051.057-.011.108-.029.171-.043l.137-.031c.088-.026.18-.04.268-.068a3.8,3.8,0,0,0,.664-.288c.017-.011.02-.023.034-.023.063-.04.1-.077.16-.111.071-.054.142-.108.205-.16l.017-.011a1.769,1.769,0,0,0,.191-.2c.014-.014.02-.037.034-.048s.023-.043.034-.051c.011-.037.04-.051.051-.08a1.073,1.073,0,0,0,.083-.182l.006-.026.017-.034a.851.851,0,0,1,.029-.108,1.153,1.153,0,0,0,.014-.171l.009-2.114V464.2A1.023,1.023,0,0,1,108.814,464.5Z" transform="translate(-37.831 -324.91)" fill="#242626"/>
        <g id="Group_11394" data-name="Group 11394" transform="translate(36.507 121.089)">
          <path id="Path_11659" data-name="Path 11659" d="M107.97,464.076a1.317,1.317,0,0,1,.006,2.484,4.68,4.68,0,0,1-4.285,0L75.23,450.132a1.314,1.314,0,0,1-.011-2.49,4.747,4.747,0,0,1,4.279,0Z" transform="translate(-74.331 -447.132)" fill="#3b3f3f"/>
        </g>
        <path id="Path_11660" data-name="Path 11660" d="M70.72,443.633s-3.627,1.211-2.353,3.2,6.128,4.519,6.915,5.769,5.134,5.507,6.183,4.858,4.1-.462,2.812-5.932S75.646,442.559,70.72,443.633Z" transform="translate(-49.355 -332.872)" fill="#111114"/>
        <path id="Path_11661" data-name="Path 11661" d="M70.08,430.1s-5.826,2.4.98,31.8l3.573,15.468s3.769,5.738,11.7.011l-3.912-32.289Z" transform="translate(-49.98 -357.543)" fill="#29383d"/>
        <path id="Path_11662" data-name="Path 11662" d="M87.755,449.859s2.4,5.148-2.023,6.892-3.365-1.251-12.995,2.3-11.328-1.43-11.214-2.6,6.487-3.915,8.59-4.71,7.764-3.068,7.764-3.068l10.063-.447Z" transform="translate(-61.518 -324.015)" fill="#111114"/>
        <path id="Path_11663" data-name="Path 11663" d="M65.9,432.764s-4.268,2.017,2.316,30.619c3.57,15.474,3.576,15.468,3.576,15.468s3.775,5.727,11.713.011l-3.918-32.292Z" transform="translate(-55.924 -352.612)" fill="#29383d"/>
        <path id="Path_11664" data-name="Path 11664" d="M72.481,440.751l-3.735-1.909,3.39,30.742a14.9,14.9,0,0,0,3.6-1.96Z" transform="translate(-48.153 -341.373)" fill="#243135"/>
        <path id="Path_11665" data-name="Path 11665" d="M76.827,444.7l-4.855-4.613,3.878,20.4a15.593,15.593,0,0,0,2.692-1.593Z" transform="translate(-42.188 -339.067)" fill="#243135"/>
        <g id="Group_11395" data-name="Group 11395" transform="translate(34.804 122.148)">
          <path id="Path_11666" data-name="Path 11666" d="M74.623,464.445a1.312,1.312,0,0,0-.009,2.482,4.669,4.669,0,0,0,4.279,0L107.365,450.5c1.188-.7,1.194-1.8.011-2.479a4.712,4.712,0,0,0-4.288,0Z" transform="translate(-73.734 -447.504)" fill="#3b3f3f"/>
        </g>
        <g id="Group_11396" data-name="Group 11396" transform="translate(50.044 107.271)">
          <path id="Path_11667" data-name="Path 11667" d="M86.459,444.435v-.02a1.8,1.8,0,0,0-1.063-1.5,5.753,5.753,0,0,0-5.22-.017,1.714,1.714,0,0,0-1.054,1.8,1.245,1.245,0,0,1-.04-.262v.029l.06,21.106a1.328,1.328,0,0,0,.023.211l.04.134a.134.134,0,0,1,.011.048l.011.026a.871.871,0,0,0,.1.211c.02.031.04.066.06.094a.511.511,0,0,1,.048.077c.017.017.023.031.04.048a1.731,1.731,0,0,0,.231.248l.017.017a2.925,2.925,0,0,0,.3.211c.051.04.094.083.154.122l.037.026a4.652,4.652,0,0,0,.806.353c.105.031.214.049.319.08a1.245,1.245,0,0,1,.177.048c.066.011.128.026.194.04a3.843,3.843,0,0,0,.476.071,3.781,3.781,0,0,0,.41.023c.071,0,.137,0,.217,0l.017,0c.043,0,.094,0,.142,0,.125,0,.248,0,.368-.017a3.445,3.445,0,0,0,.362-.043,3.671,3.671,0,0,0,.368-.063c.04-.009.083-.026.131-.034l.034,0a1.726,1.726,0,0,0,.222-.057,4.754,4.754,0,0,0,.453-.154,4.363,4.363,0,0,0,.533-.256,1.821,1.821,0,0,0,1.08-1.524Zm-6.479,1.379h0c.06.04.114.085.179.123C80.094,445.9,80.04,445.854,79.98,445.814Zm-.826-.969a1.362,1.362,0,0,0,.142.279,1.342,1.342,0,0,1-.142-.276Zm.217.413a2.331,2.331,0,0,0,.182.2c-.06-.068-.128-.131-.182-.2Z" transform="translate(-79.083 -442.282)" fill="#111114"/>
        </g>
        <path id="Path_11668" data-name="Path 11668" d="M100.427,468.92a1.953,1.953,0,0,0-.242-.39l-.009-.02c-.1-.131-.214-.268-.35-.419-.085-.1-.2-.222-.311-.33-.066-.068-.14-.143-.214-.214-.276-.274-.607-.573-.966-.886-.071-.054-.154-.123-.231-.182-.33-.285-.692-.578-1.091-.892a2.175,2.175,0,0,1-.2-.162c-.45-.345-.946-.712-1.453-1.086-.125-.091-.262-.188-.4-.293-.459-.33-.94-.672-1.445-1.02-.1-.071-.191-.131-.285-.2-.581-.393-1.185-.806-1.809-1.211-.191-.128-.382-.239-.567-.37-.57-.376-1.151-.749-1.749-1.128-.105-.06-.2-.122-.3-.182-.689-.433-1.4-.875-2.117-1.3-.194-.122-.393-.239-.6-.362-.746-.447-1.51-.9-2.285-1.348-1.14-.661-2.257-1.285-3.333-1.869a1.6,1.6,0,0,0-.182-.094c-1.014-.556-1.992-1.077-2.935-1.553a1.815,1.815,0,0,1-.256-.134c-.917-.456-1.775-.88-2.587-1.259-.077-.037-.157-.077-.242-.111-.818-.382-1.578-.724-2.282-1.011-.054-.023-.108-.048-.165-.068-.49-.2-.937-.376-1.365-.533-.091-.034-.188-.066-.276-.094-.4-.148-.786-.273-1.123-.362-.074-.028-.131-.034-.211-.057-.18-.043-.359-.085-.519-.111-.094-.014-.2-.037-.288-.046a.72.72,0,0,0-.131-.014,2.831,2.831,0,0,0-.376-.006v.006a.718.718,0,0,0-.279.085l.02-.011L98.347,431.62l.046-.017a.314.314,0,0,1,.074-.026.605.605,0,0,0,.1-.023H98.6l.026-.006.057-.006a1.432,1.432,0,0,1,.222,0,.41.41,0,0,1,.08.011,1.187,1.187,0,0,1,.137.017c.054.006.1.006.16.011a.9.9,0,0,0,.105.028c.174.037.365.071.578.125a.365.365,0,0,1,.111.031l.043.011c.345.094.738.214,1.154.365.074.028.154.057.231.08.436.162.9.342,1.413.55a.122.122,0,0,0,.034.017c.026.009.048.026.074.031.712.3,1.473.635,2.291,1.017.1.04.208.094.308.142.781.359,1.61.766,2.47,1.208.131.068.265.125.41.205.886.45,1.8.937,2.741,1.439.128.08.239.134.356.2,1.066.578,2.157,1.185,3.285,1.838.772.45,1.533.9,2.274,1.345.2.117.4.239.6.365.721.425,1.422.86,2.108,1.288.108.071.217.14.322.211.59.37,1.168.741,1.729,1.1.188.134.385.254.57.379.621.407,1.219.812,1.792,1.2.117.077.225.154.336.228.479.333.937.661,1.385.977.145.114.3.222.447.328.5.359.969.718,1.41,1.063.1.068.171.142.271.208.365.285.692.561,1,.818.091.077.2.162.285.242.348.3.655.581.929.843.014.02.046.034.06.057a2.723,2.723,0,0,1,.234.248c.08.08.168.165.239.245a.4.4,0,0,1,.051.063h0a3.045,3.045,0,0,1,.228.262.953.953,0,0,1,.083.105l.009.026.026.023c.034.046.057.1.1.145l.034.057c.02.031.029.057.046.08a.412.412,0,0,0,.031.06.428.428,0,0,0,.023.054l.028.06a.349.349,0,0,1,.02.057.161.161,0,0,0,.017.057l.009.048,0,.051.006.037a.314.314,0,0,1-.157.282l-31.072,18.055a.317.317,0,0,0,.162-.282.785.785,0,0,0-.088-.325Z" transform="translate(-50.901 -354.878)" fill="#173d7a"/>
        <g id="Group_11397" data-name="Group 11397" transform="translate(16.205 94.717)">
          <path id="Path_11669" data-name="Path 11669" d="M83.91,445.2c-9.231-5.325-16.7-8.448-16.7-6.955s7.462,7.012,16.69,12.34,16.719,8.439,16.727,6.955S93.144,450.535,83.91,445.2Z" transform="translate(-67.206 -437.876)" fill="#325a9c"/>
        </g>
        <path id="Path_11670" data-name="Path 11670" d="M127.063,447s-1.048,14.773-17.223,10.342-27.329-8.758-27.329-8.758-20.636-14.229-12.5-17.864C70.012,430.719,77.519,423.2,127.063,447Z" transform="translate(-49.325 -358.479)" fill="#29383d"/>
        <path id="Path_11671" data-name="Path 11671" d="M127.063,447s-1.048,14.773-17.223,10.342-27.329-8.758-27.329-8.758-20.636-14.229-12.5-17.864C70.012,430.719,77.519,423.2,127.063,447Z" transform="translate(-49.325 -358.479)" fill="#29383d"/>
        <path id="Path_11672" data-name="Path 11672" d="M124.453,449.242s-1.04,14.781-17.22,10.342-34.594-13.847-34.594-13.847-13.379-9.131-5.231-12.761C67.408,432.977,74.909,425.449,124.453,449.242Z" transform="translate(-55.493 -354.309)" fill="#29383d"/>
        <path id="Path_11673" data-name="Path 11673" d="M67.4,432.972c-1.986.886-2.687,2.1-2.613,3.427,12.667.105,40.742,9.727,40.742,9.727l.231-5.24C72.941,427.451,67.4,432.972,67.4,432.972Z" transform="translate(-55.485 -354.304)" fill="#354751"/>
        <path id="Path_11674" data-name="Path 11674" d="M70.682,430.462c-1.994.886-2.69,2.106-2.621,3.433,12.673.108,40.754,9.73,40.754,9.73l.231-5.242C76.221,424.949,70.682,430.462,70.682,430.462Z" transform="translate(-49.428 -358.94)" fill="#304047"/>
        <path id="Path_11675" data-name="Path 11675" d="M114.674,413.842s6.864,3.59,2.7,15.291-7.08,19.266-6.94,23.651,1.467,19.2,2.328,22.223c0,0,.966,9.718-21.309,15.049,0,0-18.277,1.484-15.041-10.462s4.784-31.312,4.416-35.936-2.96-13.921,8.707-19.93S107.3,413.235,114.674,413.842Z" transform="translate(-34.686 -387.703)" fill="#ff7220"/>
        <path id="Path_11676" data-name="Path 11676" d="M80.829,435.839c.368,4.624-1.18,23.992-4.416,35.936-2.242,8.285,5.849,10.106,11.026,10.451,1.769-5.331-.846-14.941,3.234-26.565,5.034-14.36,4.561-23.933,2.168-31.682-1.553-5.02-4.55-5.22-6.678-5.963C78.419,423.924,80.5,431.716,80.829,435.839Z" transform="translate(-34.685 -379.884)" fill="#ff7220"/>
        <path id="Path_11677" data-name="Path 11677" d="M101.306,474.971c-.86-3.026-2.185-17.833-2.328-22.223s2.878-11.915,6.94-23.651c3.832-11.086-.336-14.092-2.7-15.291-1.328,5.744-21.383,7.8-20.987,11.667.459,4.3,5.73,8.428,5.886,16.126s-1.071,19.078-2.53,24.742c-1.276,4.926-.926,16.9.094,22.075C102.109,482.957,101.306,474.971,101.306,474.971Z" transform="translate(-23.229 -387.667)" fill="#ff7220"/>
        <g id="Group_11398" data-name="Group 11398" transform="translate(54.761)">
          <path id="Path_11678" data-name="Path 11678" d="M94.859,412.111s-.86,6.134,1.174,10.035c1.852,3.53-12.7,6.425-12.986,3.182a13.858,13.858,0,0,0-.519-11.938C80.767,410.062,94.859,412.111,94.859,412.111Z" transform="translate(-77.711 -391.955)" fill="#ffc2b0"/>
          <path id="Path_11679" data-name="Path 11679" d="M94.911,421.115c-1.516-2.895-1.43-7.026-1.285-8.958l-10.684,5.037,0,.037c.387.1,7.5,2.054,8.941,7.225C94.076,423.6,95.578,422.4,94.911,421.115Z" transform="translate(-76.664 -390.716)" fill="#f2baa9"/>
          <path id="Path_11680" data-name="Path 11680" d="M82.942,407.217s-2.37,5.539-2.011,10.356c.382,5.191-.416,6.223-.128,8.525.114.991.16,2.47,1.105,3.419,1.573,1.567,4.852,2.214,9.345.661,5.436-1.858,11.271-9.171,9.094-15.89S91.176,401.938,82.942,407.217Z" transform="translate(-80.739 -403.706)" fill="#ffc2b0"/>
          <path id="Path_11681" data-name="Path 11681" d="M99.3,421.5c-2.04-6.052-7.271-13.359-7.214-13.738.037-.234-1.727-1.387-3.727-2.621a12.072,12.072,0,0,0-6.077,2.074,29.771,29.771,0,0,0-1.188,3.578c1.256,1.467,3.843,3.148,4.208,4.373a15.629,15.629,0,0,1-.633,9.16c-.889,1.9,2.521,4.786,1.758,6.479a.445.445,0,0,0-.034.231,14.828,14.828,0,0,0,4.2-.86A15.594,15.594,0,0,0,99.3,421.5Z" transform="translate(-80.079 -403.699)" fill="#f2baa9"/>
          <path id="Path_11682" data-name="Path 11682" d="M81.008,405.824a6.9,6.9,0,0,0,3.806,7.171c2.8,1.442,2.462,6.006,2.3,6.852s-1.057,4.684-.721,5.18c.641.966,2.917-1.955,3.966-1.727,2.672.57,1.581,3.054-.917,5.627-2.644,2.738,4.16,4.011,7.362,1.775,1.707-1.191,2.336-1.9,4.618-6.242,3.333-6.322,3.65-13.989-3.824-18.232S85.666,407.769,81.008,405.824Z" transform="translate(-80.36 -404.632)" fill="#221101"/>
          <path id="Path_11683" data-name="Path 11683" d="M96.8,430.7c1.707-1.191,2.336-1.9,4.618-6.242,3.333-6.322,3.65-13.989-3.824-18.232s-11.935,1.541-16.593-.4a6.894,6.894,0,0,0,.009,1.923c2.379.433,8.909,1.849,10.536,4.7,2.006,3.5,4.339,2.436,4.086,6.738-.254,4.148.712,9.6-6.305,11.81C91.886,432.913,95.559,431.577,96.8,430.7Z" transform="translate(-80.357 -404.632)" fill="#341c09"/>
        </g>
        <g id="Group_11401" data-name="Group 11401" transform="translate(49.327 50.171)">
          <g id="Group_11400" data-name="Group 11400" transform="translate(0 21.976)">
            <g id="Group_11399" data-name="Group 11399">
              <path id="Path_11684" data-name="Path 11684" d="M87.438,430.03c-.96-.989-3.573,7.781-5.846,19.582s-3.371,22.155-2.41,23.141,3.576-7.79,5.855-19.582S88.4,431.016,87.438,430.03Z" transform="translate(-78.831 -429.954)" fill="#325a9c"/>
            </g>
          </g>
          <path id="Path_11685" data-name="Path 11685" d="M118.345,423.344a2.433,2.433,0,0,0-.04-.333,1.137,1.137,0,0,0-.029-.177.282.282,0,0,1-.023-.08.166.166,0,0,0-.028-.08.26.26,0,0,0-.014-.077l-.028-.066-.014-.034-.017-.034-.017-.031-.009-.034c-.014-.006-.014-.014-.02-.023l-.023-.028-.02-.017-.006-.011-.023-.023a.4.4,0,0,0-.043-.031l-.037-.02-.048,0h-.031l-.04,0a.089.089,0,0,0-.037.014l-.031.017-.043.02,0,.006L86.655,444.285h.011l0-.011a.339.339,0,0,1,.168-.057h0a.256.256,0,0,1,.154.077L87,444.3l.02.023c0,.006.011.011.014.028l.023.023.011.026.017.034c0,.017.011.028.011.04l.023.034a.337.337,0,0,0,.02.065.18.18,0,0,1,.023.066l.02.08a.454.454,0,0,0,.023.094c.011.057.023.111.037.179.017.094.028.205.046.331.313,3.04-.764,12.052-2.7,22.106-2.049,10.613-4.371,18.784-5.516,19.588l30.773-17.984c1.137-.809,3.755-12.969,5.8-23.579C117.59,435.407,118.67,426.392,118.345,423.344Z" transform="translate(-78.384 -422.241)" fill="#173d7a"/>
        </g>
        <g id="Group_11402" data-name="Group 11402" transform="translate(11.266 38.284)">
          <path id="Path_11686" data-name="Path 11686" d="M74.751,432.027s-11.211-4.411-8.986-10.636c.356-1,1.57-2.35,3.222.1s6.818,3.977,7.029,6.425C76.016,427.915,77.1,433.451,74.751,432.027Z" transform="translate(-65.472 -414.301)" fill="#ffc2b0"/>
          <path id="Path_11687" data-name="Path 11687" d="M102.331,419.048c-4.345-1.063-8.006,12.086-15.086,21.753L71.168,429.983c-4.393,2.02-2.786,2.983-2.786,2.983a43.365,43.365,0,0,0,17.753,16.442V449.4a6.28,6.28,0,0,0,3.331.518c8.106-4.034,12.647-12.331,16.28-22.559C108.343,420.031,102.331,419.048,102.331,419.048Z" transform="translate(-60.624 -416.369)" fill="#ffc2b0"/>
          <path id="Path_11688" data-name="Path 11688" d="M88.149,418.1s14.434,3.379,0,24.485c0,0-9.869,1.473-12.12-7.807C76.029,434.777,80.864,417.257,88.149,418.1Z" transform="translate(-45.952 -418.069)" fill="#ff7220"/>
          <path id="Path_11689" data-name="Path 11689" d="M68.295,423.305s-.581-2.467,0-2.7,3.362,4.875,2.98,6.413S68.295,423.305,68.295,423.305Z" transform="translate(-60.731 -413.401)" fill="#ffc2b0"/>
        </g>
      </g>
      <g id="Group_11406" data-name="Group 11406" transform="translate(40.23 359.287)">
        <path id="Path_9868" data-name="Path 9868" d="M346.319,155.839a9.47,9.47,0,0,1,4.052-1.349c0-.086-.012-.165-.012-.252,0-12.265,8.664-27.209,19.353-33.38,8.594-4.962,15.871-2.728,18.4,4.711a19.26,19.26,0,0,1,2.02-1.368c7.047-4.069,12.76-.811,12.76,7.275s-5.713,17.94-12.76,22.009l-43.809,25.293c-5.52,3.186-10,.635-10-5.7S340.8,159.027,346.319,155.839Z" transform="translate(-316.808 -105.341)" fill="url(#linear-gradient-33)"/>
        <path id="Path_9869" data-name="Path 9869" d="M341.886,158.555c0-6.335,4.475-14.054,9.995-17.241a9.477,9.477,0,0,1,4.052-1.349c0-.086-.012-.165-.012-.252,0-12.265,8.664-27.209,19.353-33.38,6-3.465,11.226-3,14.9-.544l6.173,3.524c3.488-1.81,6.607-1.8,8.8-.279l18.493,10.748c-2.25-.981-5.2-.662-8.441,1.207a19.253,19.253,0,0,0-2.02,1.368c-2.524-7.439-9.8-9.673-18.4-4.711-10.688,6.171-19.353,21.115-19.353,33.38,0,.087.011.165.012.252a9.469,9.469,0,0,0-4.052,1.349c-5.52,3.187-10,10.906-10,17.24,0,2.68.8,4.68,2.146,5.857l-18.422-10.567.01-.018C343.139,164.2,341.886,161.906,341.886,158.555Z" transform="translate(-341.886 -102.13)" fill="url(#linear-gradient-34)"/>
        <ellipse id="Ellipse_249" data-name="Ellipse 249" cx="15.518" cy="7.026" rx="15.518" ry="7.026" transform="translate(58.414 24.795) rotate(-157.66)" fill="url(#radial-gradient)" style="mix-blend-mode: color-dodge;isolation: isolate"/>
        <path id="Path_9870" data-name="Path 9870" d="M412.052,161.58c-1.127,2.032,2.95,6.449,9.107,9.865s4.357,1.347,5.485-.686,4.756-3.258-1.4-6.674S413.18,159.548,412.052,161.58Z" transform="translate(-401.307 -114.812)" fill="url(#radial-gradient-2)" style="mix-blend-mode: color-dodge;isolation: isolate"/>
        <path id="Path_9871" data-name="Path 9871" d="M342.391,125.828a19.25,19.25,0,0,0-2.02,1.367c-.147-.432-.314-.844-.492-1.242a17.731,17.731,0,0,1,1.548-1.026c4.447-2.568,8.36-2.212,10.643.429C349.729,123.579,346.265,123.591,342.391,125.828Z" transform="translate(-268.749 -106.453)" fill="url(#radial-gradient-3)" style="mix-blend-mode: screen;isolation: isolate"/>
        <path id="Path_9872" data-name="Path 9872" d="M369.461,155.344A9.456,9.456,0,0,1,373.513,154c0-.086-.012-.165-.012-.252,0-12.264,8.664-27.209,19.353-33.38,6.566-3.791,12.354-3.371,15.85.35-3.548-2.862-8.893-2.91-14.886.55-10.688,6.171-19.353,21.116-19.353,33.38,0,.088.011.165.012.252a9.463,9.463,0,0,0-4.052,1.349c-5.52,3.187-10,10.906-10,17.24A8.148,8.148,0,0,0,362,178.738c-1.574-1.118-2.539-3.225-2.539-6.154C359.466,166.25,363.941,158.531,369.461,155.344Z" transform="translate(-340.593 -105.232)" fill="url(#radial-gradient-4)" style="mix-blend-mode: screen;isolation: isolate"/>
      </g>
    </g>
  </g>
</svg>
