<svg xmlns="http://www.w3.org/2000/svg" xmlns:xlink="http://www.w3.org/1999/xlink" width="327.576" height="260.902" viewBox="0 0 327.576 260.902">
  <defs>
    <linearGradient id="linear-gradient" x1="0.22" y1="0.422" x2="1.257" y2="0.422" gradientUnits="objectBoundingBox">
      <stop offset="0" stop-color="#ff6143"/>
      <stop offset="0.556" stop-color="#ffb614"/>
      <stop offset="1" stop-color="#ffda00"/>
    </linearGradient>
    <linearGradient id="linear-gradient-2" x1="0.2" y1="0.288" x2="1.236" y2="0.288" xlink:href="#linear-gradient"/>
    <linearGradient id="linear-gradient-3" x1="-0.576" y1="-2.159" x2="0.401" y2="-2.159" gradientUnits="objectBoundingBox">
      <stop offset="0" stop-color="#662d90"/>
      <stop offset="1" stop-color="#00adee"/>
    </linearGradient>
    <linearGradient id="linear-gradient-4" x1="0.782" y1="1.13" x2="0.232" y2="0.28" xlink:href="#linear-gradient"/>
    <linearGradient id="linear-gradient-5" x1="0" y1="0.5" x2="1" y2="0.5" xlink:href="#linear-gradient"/>
    <linearGradient id="linear-gradient-8" x1="1.068" y1="-0.042" x2="2.978" y2="-0.042" xlink:href="#linear-gradient"/>
  </defs>
  <g id="Group_4940" data-name="Group 4940" opacity="0.8">
    <path id="Path_96" data-name="Path 96" d="M268.826,270.3c17-7.289,33.58-17.789,42.633-33.969,19.459-34.781-3.457-78.748-42.934-80.5-13.338-.593-27.417.559-39.316-5.569-11.656-6-18.95-17.835-26.348-28.7-12.582-18.473-27.455-35.969-46.646-47.334C113.788,49.1,59.319,65.858,44.3,114.43c-8.679,28.069-1.037,58.442,10,84.763,15.178,36.185,43.205,64.421,79.871,78.425C176.683,293.854,227.773,287.905,268.826,270.3Z" transform="translate(-5.417 -46.358)" opacity="0.5" fill="url(#linear-gradient)"/>
    <path id="Path_97" data-name="Path 97" d="M266.738,281.344c17-7.289,33.581-17.789,42.633-33.969,19.46-34.781-3.457-78.748-42.934-80.5-13.338-.593-27.417.559-39.316-5.569-11.656-6-18.949-17.835-26.348-28.7-12.58-18.473-27.455-35.969-46.646-47.334-42.427-25.122-96.9-8.368-111.915,40.2-8.681,28.069-1.038,58.442,10,84.765,15.178,36.184,43.205,64.421,79.871,78.423C174.6,304.9,225.686,298.952,266.738,281.344Z" transform="translate(-6.378 -41.272)" opacity="0.275" fill="url(#linear-gradient-2)"/>
    <path id="Path_98" data-name="Path 98" d="M269.432,281.883c16.995-7.29,33.58-17.789,42.631-33.969,19.46-34.781-3.457-78.748-42.934-80.5-13.338-.593-27.417.559-39.315-5.569-11.657-6-18.95-17.836-26.349-28.7-12.58-18.473-27.454-35.97-46.646-47.334-42.427-25.124-96.9-8.368-111.915,40.2-8.679,28.069-1.037,58.442,10,84.763C70.085,246.964,98.113,275.2,134.777,289.2,177.287,305.44,228.378,299.491,269.432,281.883Z" transform="translate(-5.138 -41.024)" opacity="0.5" fill="url(#linear-gradient-3)"/>
    <path id="Path_99" data-name="Path 99" d="M275.625,264.39C292.62,257.1,309.2,246.6,318.257,230.42c19.459-34.781-3.457-78.748-42.935-80.5-13.337-.593-27.417.559-39.315-5.569-11.656-6-18.95-17.836-26.348-28.7-12.582-18.473-27.455-35.97-46.646-47.334-42.427-25.122-96.9-8.368-111.917,40.2-8.679,28.069-1.037,58.442,10,84.763,15.177,36.185,43.205,64.421,79.871,78.425C183.482,287.947,234.572,282,275.625,264.39Z" transform="translate(-2.287 -49.078)" fill="none" stroke="#707070" stroke-miterlimit="10" stroke-width="1" opacity="0.275"/>
    <path id="Path_100" data-name="Path 100" d="M184.316,260.015c20.453-10.752,38.748-34.427,64.7-30.262,24.8,3.981,50.756,33.911,75.907,14.636,15.026-11.515,14.522-31.55,7.324-47.265-5.985-13.069-16.967-22.486-27.577-31.712a119,119,0,0,1-27.587-34.634c-6.575-12.547-12.2-26.5-23.83-35.351-10.736-8.168-25.048-9.8-38.022-5.592-37.212,12.084-53.395,71.578-95.751,69.732-19.162-.835-35.945-17.142-55.118-13.8-12.116,2.11-22.956,12.365-28.348,25.1-8.132,19.2-4.581,44.756,6.966,61.956C62.526,261.94,98.7,274.331,132.6,273.408a123.5,123.5,0,0,0,49.808-12.428Q183.367,260.515,184.316,260.015Z" transform="translate(-9.539 -34.867)" fill="url(#linear-gradient-4)" style="mix-blend-mode: multiply;isolation: isolate"/>
    <path id="Path_101" data-name="Path 101" d="M140.782,83.189c5.018,6.782,14.115,10.4,22.286,6.829,10.483-4.576,14.407-18.273,9.344-28.21-10.934-21.462-41.26-6.065-34.657,15.419A19.822,19.822,0,0,0,140.782,83.189Z" transform="translate(38.912 -51.49)" fill="url(#linear-gradient-5)"/>
    <path id="Path_102" data-name="Path 102" d="M30.643,211.679c5.017,6.782,14.115,10.4,22.285,6.829,10.483-4.576,14.407-18.271,9.344-28.21-10.934-21.461-41.26-6.065-34.657,15.421A19.835,19.835,0,0,0,30.643,211.679Z" transform="translate(-11.799 7.671)" fill="url(#linear-gradient-5)" style="mix-blend-mode: multiply;isolation: isolate"/>
    <path id="Path_103" data-name="Path 103" d="M73.819,173.973c13.131,17.749,36.94,27.2,58.324,17.87,27.436-11.975,37.705-47.82,24.455-73.827-28.618-56.166-107.982-15.872-90.7,40.356A51.935,51.935,0,0,0,73.819,173.973Z" transform="translate(5.133 -33.292)" opacity="0.358" fill="url(#linear-gradient-5)" style="mix-blend-mode: multiply;isolation: isolate"/>
    <path id="Path_104" data-name="Path 104" d="M156.931,103.808c3.648,2.823,8.393,3.219,11.185-.133,3.584-4.3,2.343-12.43-2.007-16.963-9.392-9.789-19.292,3.823-11.784,14.375A12.955,12.955,0,0,0,156.931,103.808Z" transform="translate(45.752 -36.824)" fill="url(#linear-gradient-8)" style="mix-blend-mode: multiply;isolation: isolate"/>
    <path id="Path_105" data-name="Path 105" d="M18.227,135.692c2.2,3.431,6.188,5.258,9.769,3.454,4.6-2.315,6.316-9.242,4.1-14.267-4.793-10.855-18.087-3.068-15.193,7.8A10.657,10.657,0,0,0,18.227,135.692Z" transform="translate(-16.492 -20.102)" fill="url(#linear-gradient-5)"/>
    <path id="Path_106" data-name="Path 106" d="M193.005,136.17a6.962,6.962,0,0,0,8.267,2.532c3.889-1.7,5.345-6.779,3.467-10.465-4.057-7.962-15.308-2.251-12.859,5.72A7.361,7.361,0,0,0,193.005,136.17Z" transform="translate(64.103 -17.916)" fill="url(#linear-gradient-5)" style="mix-blend-mode: multiply;isolation: isolate"/>
    <path id="Path_107" data-name="Path 107" d="M32.66,135.959a2.955,2.955,0,0,0,3.511,1.076,3.306,3.306,0,0,0,1.472-4.444c-1.723-3.381-6.5-.957-5.461,2.429A3.134,3.134,0,0,0,32.66,135.959Z" transform="translate(-9.335 -14.897)" fill="none" stroke="#707070" stroke-miterlimit="10" stroke-width="1"/>
    <path id="Path_108" data-name="Path 108" d="M22.966,108.574a7.514,7.514,0,0,0,8.929,2.712c4.193-1.843,5.751-7.331,3.714-11.305-4.4-8.581-16.528-2.386-13.862,6.21A7.955,7.955,0,0,0,22.966,108.574Z" transform="translate(-14.247 -31.058)" fill="none" stroke="#707070" stroke-miterlimit="10" stroke-width="1"/>
    <path id="Path_109" data-name="Path 109" d="M173.626,206.9a7.1,7.1,0,0,0,8.428,2.583c3.964-1.731,5.449-6.911,3.533-10.668-4.134-8.116-15.6-2.293-13.106,5.832A7.5,7.5,0,0,0,173.626,206.9Z" transform="translate(55.168 14.545)" fill="none" stroke="#707070" stroke-miterlimit="10" stroke-width="2.4"/>
    <path id="Path_110" data-name="Path 110" d="M166.708,77.3a2.96,2.96,0,0,0,3.511,1.076,3.308,3.308,0,0,0,1.472-4.446c-1.722-3.381-6.5-.955-5.459,2.43A3.1,3.1,0,0,0,166.708,77.3Z" transform="translate(52.385 -41.904)" fill="none" stroke="#707070" stroke-miterlimit="10" stroke-width="1"/>
    <path id="Path_111" data-name="Path 111" d="M86.573,230.434a2.957,2.957,0,0,0,3.511,1.076,3.306,3.306,0,0,0,1.472-4.444c-1.723-3.382-6.5-.957-5.461,2.429A3.134,3.134,0,0,0,86.573,230.434Z" transform="translate(15.488 28.601)" fill="none" stroke="#707070" stroke-miterlimit="10" stroke-width="1"/>
    <path id="Path_112" data-name="Path 112" d="M214.9,118.465a2.957,2.957,0,0,0,3.511,1.075,3.306,3.306,0,0,0,1.472-4.444c-1.722-3.381-6.5-.955-5.459,2.43A3.1,3.1,0,0,0,214.9,118.465Z" transform="translate(74.571 -22.952)" fill="none" stroke="#707070" stroke-miterlimit="10" stroke-width="1"/>
    <path id="Path_113" data-name="Path 113" d="M128.306,62.169a3.812,3.812,0,0,0,4.739,1.583c2.23-1.062,3.064-4.237,1.988-6.541-2.325-4.977-8.774-1.406-7.371,3.575A4.794,4.794,0,0,0,128.306,62.169Z" transform="translate(34.603 -49.958)" fill="url(#linear-gradient-5)"/>
  </g>
</svg>
