<svg id="cs-solution-02" xmlns="http://www.w3.org/2000/svg" width="278.53" height="242.639" viewBox="0 0 278.53 242.639">
  <g id="Group_4632" data-name="Group 4632" transform="translate(0 32.677)">
    <g id="Group_4629" data-name="Group 4629" transform="translate(0 103.334)">
      <path id="Path_127" data-name="Path 127" d="M315.457,251.159a104.994,104.994,0,0,1-104.219-92.268l3.269-.394A101.7,101.7,0,0,0,415.6,163.928a23.564,23.564,0,0,1,23.335-19.4h48.5v3.294h-48.5a20.275,20.275,0,0,0-20.09,16.674A104.761,104.761,0,0,1,315.457,251.159Z" transform="translate(-211.238 -144.531)"/>
    </g>
    <g id="Group_4630" data-name="Group 4630" transform="translate(0.01)">
      <path id="Path_128" data-name="Path 128" d="M214.513,174.449l-3.269-.4c6.18-50.47,49.082-90.1,99.8-92.176A105.282,105.282,0,0,1,417.45,161.809l-3.2.781A102.034,102.034,0,0,0,311.175,85.162C262.055,87.176,220.5,125.56,214.513,174.449Z" transform="translate(-211.244 -81.781)"/>
    </g>
    <g id="Group_4631" data-name="Group 4631" transform="translate(262.523 91.304)">
      <path id="Path_129" data-name="Path 129" d="M372.984,164.581l-2.329-2.329L382,150.9l-11.35-11.349,2.329-2.328L386.662,150.9Z" transform="translate(-370.655 -137.226)"/>
    </g>
  </g>
  <path id="Path_130" data-name="Path 130" d="M322.336,96.262a34.324,34.324,0,1,0-42.627,33.271l8.3,11,8.3-11A34.306,34.306,0,0,0,322.336,96.262Z" transform="translate(-183.782 -61.938)" fill="#f251c4"/>
  <g id="Group_4633" data-name="Group 4633" transform="translate(87.056 20.468)">
    <path id="Path_131" data-name="Path 131" d="M266.272,98.731a7.788,7.788,0,0,1-2.169-5.792V82.273a7.744,7.744,0,0,1,2.169-5.755,8.952,8.952,0,0,1,11.641,0,7.712,7.712,0,0,1,2.189,5.755V92.939a7.755,7.755,0,0,1-2.189,5.792,8.946,8.946,0,0,1-11.641,0Zm7.872-3.162a3.383,3.383,0,0,0,.772-2.335V82.016a3.315,3.315,0,0,0-.772-2.317,2.659,2.659,0,0,0-2.06-.846,2.6,2.6,0,0,0-2.042.846,3.362,3.362,0,0,0-.753,2.317V93.234a3.431,3.431,0,0,0,.753,2.335,2.573,2.573,0,0,0,2.042.865A2.628,2.628,0,0,0,274.143,95.569Z" transform="translate(-264.103 -74.367)"/>
    <path id="Path_132" data-name="Path 132" d="M275.589,100.321a.425.425,0,0,1-.128-.313V96.441a.708.708,0,0,1,.221-.515q4.449-5.111,7.392-8.863,2.648-3.421,2.648-5.406a2.882,2.882,0,0,0-.7-2.04,2.685,2.685,0,0,0-3.732,0,2.731,2.731,0,0,0-.718,1.968V82.8a.439.439,0,0,1-.441.441h-4.377a.439.439,0,0,1-.44-.441V81.068a6.5,6.5,0,0,1,2.391-4.837,8.433,8.433,0,0,1,5.553-1.82,8.6,8.6,0,0,1,4.063.919,6.608,6.608,0,0,1,2.7,2.574,7.293,7.293,0,0,1,.957,3.715,8.758,8.758,0,0,1-.7,3.4,17.108,17.108,0,0,1-2.133,3.585q-1.067,1.435-2.538,3.182t-2.943,3.4l-.514.588a.118.118,0,0,0-.038.147.149.149,0,0,0,.148.074h8.716a.439.439,0,0,1,.441.441v3.567a.439.439,0,0,1-.441.441H275.9A.425.425,0,0,1,275.589,100.321Z" transform="translate(-256.852 -74.338)"/>
  </g>
  <g id="Group_4679" data-name="Group 4679" transform="translate(50.667 -56.574)">
    <path id="Path_234" data-name="Path 234" d="M77.566,180.189H19.332a1.228,1.228,0,0,1,0-2.455H77.566a1.228,1.228,0,0,1,0,2.455Z" transform="translate(1.788 5.462)"/>
    <path id="Path_235" data-name="Path 235" d="M23.18,179.554a3.36,3.36,0,0,1-3.356-3.357V167.93a3.356,3.356,0,0,1,6.713,0V176.2A3.36,3.36,0,0,1,23.18,179.554Zm0-12.525a.9.9,0,0,0-.9.9V176.2a.9.9,0,1,0,1.8,0V167.93A.9.9,0,0,0,23.18,167.029Z" transform="translate(2.501)"/>
    <path id="Path_236" data-name="Path 236" d="M31.856,179.554A3.36,3.36,0,0,1,28.5,176.2V167.93a3.356,3.356,0,1,1,6.712,0V176.2A3.36,3.36,0,0,1,31.856,179.554Zm0-12.525a.9.9,0,0,0-.9.9V176.2a.9.9,0,1,0,1.8,0V167.93A.9.9,0,0,0,31.856,167.029Z" transform="translate(6.103)"/>
    <path id="Path_237" data-name="Path 237" d="M40.533,179.554a3.36,3.36,0,0,1-3.356-3.357V167.93a3.356,3.356,0,0,1,6.713,0V176.2A3.36,3.36,0,0,1,40.533,179.554Zm0-12.525a.9.9,0,0,0-.9.9V176.2a.9.9,0,1,0,1.8,0V167.93A.9.9,0,0,0,40.533,167.029Z" transform="translate(9.704)"/>
    <path id="Path_238" data-name="Path 238" d="M49.209,179.554a3.36,3.36,0,0,1-3.355-3.357V167.93a3.356,3.356,0,1,1,6.712,0V176.2A3.36,3.36,0,0,1,49.209,179.554Zm0-12.525a.9.9,0,0,0-.9.9V176.2a.9.9,0,1,0,1.8,0V167.93A.9.9,0,0,0,49.209,167.029Z" transform="translate(13.305)"/>
    <path id="Path_239" data-name="Path 239" d="M57.886,179.554A3.36,3.36,0,0,1,54.53,176.2V167.93a3.356,3.356,0,0,1,6.713,0V176.2A3.36,3.36,0,0,1,57.886,179.554Zm0-12.525a.9.9,0,0,0-.9.9V176.2a.9.9,0,1,0,1.8,0V167.93A.9.9,0,0,0,57.886,167.029Z" transform="translate(16.906)"/>
    <path id="Path_240" data-name="Path 240" d="M81.521,222.1H18.953a5.162,5.162,0,0,1-5.156-5.156V175.688a5.162,5.162,0,0,1,5.156-5.156h4.6a1.229,1.229,0,0,1,1.228,1.228v1.964a.9.9,0,1,0,1.8,0V171.76a1.229,1.229,0,0,1,1.228-1.228h8.02a1.228,1.228,0,0,1,1.228,1.228v1.964a.9.9,0,1,0,1.8,0V171.76a1.228,1.228,0,0,1,1.228-1.228h8.02a1.229,1.229,0,0,1,1.228,1.228v1.964a.9.9,0,1,0,1.8,0V171.76a1.229,1.229,0,0,1,1.228-1.228h8.022a1.228,1.228,0,0,1,1.227,1.228v1.964a.9.9,0,1,0,1.8,0V171.76a1.228,1.228,0,0,1,1.228-1.228h8.02a1.229,1.229,0,0,1,1.228,1.228v1.964a.9.9,0,1,0,1.8,0V171.76a1.229,1.229,0,0,1,1.228-1.228h4.6a5.162,5.162,0,0,1,5.156,5.156v41.254A5.162,5.162,0,0,1,81.521,222.1ZM18.953,172.987a2.706,2.706,0,0,0-2.7,2.7v41.254a2.7,2.7,0,0,0,2.7,2.7H81.521a2.7,2.7,0,0,0,2.7-2.7V175.688a2.7,2.7,0,0,0-2.7-2.7H78.149v.737a3.356,3.356,0,1,1-6.713,0v-.737H65.871v.737a3.356,3.356,0,1,1-6.712,0v-.737H53.594v.737a3.356,3.356,0,1,1-6.713,0v-.737H41.315v.737a3.356,3.356,0,1,1-6.712,0v-.737H29.038v.737a3.356,3.356,0,1,1-6.713,0v-.737Z" transform="translate(0 2.473)"/>
    <path id="Path_241" data-name="Path 241" d="M27.451,185.655H21.588a1.228,1.228,0,1,1,0-2.455h5.863a1.228,1.228,0,1,1,0,2.455Z" transform="translate(2.724 7.731)"/>
    <path id="Path_242" data-name="Path 242" d="M27.451,191.189H21.588a1.228,1.228,0,1,1,0-2.455h5.863a1.228,1.228,0,1,1,0,2.455Z" transform="translate(2.724 10.027)"/>
    <path id="Path_243" data-name="Path 243" d="M27.451,196.724H21.588a1.228,1.228,0,0,1,0-2.457h5.863a1.228,1.228,0,0,1,0,2.457Z" transform="translate(2.724 12.324)"/>
    <path id="Path_244" data-name="Path 244" d="M27.451,202.258H21.588a1.228,1.228,0,1,1,0-2.457h5.863a1.228,1.228,0,1,1,0,2.457Z" transform="translate(2.724 14.621)"/>
    <path id="Path_245" data-name="Path 245" d="M35.576,185.655H29.713a1.228,1.228,0,1,1,0-2.455h5.863a1.228,1.228,0,1,1,0,2.455Z" transform="translate(6.096 7.731)"/>
    <path id="Path_246" data-name="Path 246" d="M35.576,191.189H29.713a1.228,1.228,0,1,1,0-2.455h5.863a1.228,1.228,0,1,1,0,2.455Z" transform="translate(6.096 10.027)"/>
    <path id="Path_247" data-name="Path 247" d="M35.576,196.724H29.713a1.228,1.228,0,0,1,0-2.457h5.863a1.228,1.228,0,0,1,0,2.457Z" transform="translate(6.096 12.324)"/>
    <path id="Path_248" data-name="Path 248" d="M35.576,202.258H29.713a1.228,1.228,0,1,1,0-2.457h5.863a1.228,1.228,0,1,1,0,2.457Z" transform="translate(6.096 14.621)"/>
    <path id="Path_249" data-name="Path 249" d="M43.7,185.655H37.837a1.228,1.228,0,0,1,0-2.455H43.7a1.228,1.228,0,1,1,0,2.455Z" transform="translate(9.468 7.731)"/>
    <path id="Path_250" data-name="Path 250" d="M43.7,191.189H37.837a1.228,1.228,0,0,1,0-2.455H43.7a1.228,1.228,0,1,1,0,2.455Z" transform="translate(9.468 10.027)"/>
    <path id="Path_251" data-name="Path 251" d="M43.7,196.724H37.837a1.228,1.228,0,0,1,0-2.457H43.7a1.228,1.228,0,0,1,0,2.457Z" transform="translate(9.468 12.324)"/>
    <path id="Path_252" data-name="Path 252" d="M43.7,202.258H37.837a1.228,1.228,0,0,1,0-2.457H43.7a1.228,1.228,0,1,1,0,2.457Z" transform="translate(9.468 14.621)"/>
    <path id="Path_253" data-name="Path 253" d="M51.824,185.655H45.962a1.228,1.228,0,0,1,0-2.455h5.863a1.228,1.228,0,1,1,0,2.455Z" transform="translate(12.841 7.731)"/>
    <path id="Path_254" data-name="Path 254" d="M51.824,191.189H45.962a1.228,1.228,0,0,1,0-2.455h5.863a1.228,1.228,0,1,1,0,2.455Z" transform="translate(12.841 10.027)"/>
    <path id="Path_255" data-name="Path 255" d="M51.824,196.724H45.962a1.228,1.228,0,0,1,0-2.457h5.863a1.228,1.228,0,0,1,0,2.457Z" transform="translate(12.841 12.324)"/>
    <path id="Path_256" data-name="Path 256" d="M51.824,202.258H45.962a1.228,1.228,0,0,1,0-2.457h5.863a1.228,1.228,0,1,1,0,2.457Z" transform="translate(12.841 14.621)"/>
    <path id="Path_257" data-name="Path 257" d="M59.95,185.655H54.087a1.228,1.228,0,1,1,0-2.455H59.95a1.228,1.228,0,0,1,0,2.455Z" transform="translate(16.212 7.731)"/>
    <path id="Path_258" data-name="Path 258" d="M59.95,191.189H54.087a1.228,1.228,0,1,1,0-2.455H59.95a1.228,1.228,0,0,1,0,2.455Z" transform="translate(16.212 10.027)"/>
    <path id="Path_259" data-name="Path 259" d="M59.95,196.724H54.087a1.228,1.228,0,0,1,0-2.457H59.95a1.228,1.228,0,0,1,0,2.457Z" transform="translate(16.212 12.324)"/>
    <path id="Path_260" data-name="Path 260" d="M59.95,202.258H54.087a1.228,1.228,0,1,1,0-2.457H59.95a1.228,1.228,0,0,1,0,2.457Z" transform="translate(16.212 14.621)"/>
  </g>
</svg>
