<svg id="cs-solution-02" xmlns="http://www.w3.org/2000/svg" width="278.53" height="242.639" viewBox="0 0 278.53 242.639">
  <g id="Group_4632" data-name="Group 4632" transform="translate(0 32.677)">
    <g id="Group_4629" data-name="Group 4629" transform="translate(0 103.334)">
      <path id="Path_127" data-name="Path 127" d="M315.457,251.159a104.994,104.994,0,0,1-104.219-92.268l3.269-.394A101.7,101.7,0,0,0,415.6,163.928a23.564,23.564,0,0,1,23.335-19.4h48.5v3.294h-48.5a20.275,20.275,0,0,0-20.09,16.674A104.761,104.761,0,0,1,315.457,251.159Z" transform="translate(-211.238 -144.531)"/>
    </g>
    <g id="Group_4630" data-name="Group 4630" transform="translate(0.01)">
      <path id="Path_128" data-name="Path 128" d="M214.513,174.449l-3.269-.4c6.18-50.47,49.082-90.1,99.8-92.176A105.282,105.282,0,0,1,417.45,161.809l-3.2.781A102.034,102.034,0,0,0,311.175,85.162C262.055,87.176,220.5,125.56,214.513,174.449Z" transform="translate(-211.244 -81.781)"/>
    </g>
    <g id="Group_4631" data-name="Group 4631" transform="translate(262.523 91.304)">
      <path id="Path_129" data-name="Path 129" d="M372.984,164.581l-2.329-2.329L382,150.9l-11.35-11.349,2.329-2.328L386.662,150.9Z" transform="translate(-370.655 -137.226)"/>
    </g>
  </g>
  <path id="Path_130" data-name="Path 130" d="M322.336,96.262a34.324,34.324,0,1,0-42.627,33.271l8.3,11,8.3-11A34.306,34.306,0,0,0,322.336,96.262Z" transform="translate(-183.782 -61.938)" fill="#f251c4"/>
  <g id="Group_4633" data-name="Group 4633" transform="translate(87.056 20.468)">
    <path id="Path_131" data-name="Path 131" d="M266.272,98.731a7.788,7.788,0,0,1-2.169-5.792V82.273a7.744,7.744,0,0,1,2.169-5.755,8.952,8.952,0,0,1,11.641,0,7.712,7.712,0,0,1,2.189,5.755V92.939a7.755,7.755,0,0,1-2.189,5.792,8.946,8.946,0,0,1-11.641,0Zm7.872-3.162a3.383,3.383,0,0,0,.772-2.335V82.016a3.315,3.315,0,0,0-.772-2.317,2.659,2.659,0,0,0-2.06-.846,2.6,2.6,0,0,0-2.042.846,3.362,3.362,0,0,0-.753,2.317V93.234a3.431,3.431,0,0,0,.753,2.335,2.573,2.573,0,0,0,2.042.865A2.628,2.628,0,0,0,274.143,95.569Z" transform="translate(-264.103 -74.367)"/>
    <path id="Path_132" data-name="Path 132" d="M275.589,100.321a.425.425,0,0,1-.128-.313V96.441a.708.708,0,0,1,.221-.515q4.449-5.111,7.392-8.863,2.648-3.421,2.648-5.406a2.882,2.882,0,0,0-.7-2.04,2.685,2.685,0,0,0-3.732,0,2.731,2.731,0,0,0-.718,1.968V82.8a.439.439,0,0,1-.441.441h-4.377a.439.439,0,0,1-.44-.441V81.068a6.5,6.5,0,0,1,2.391-4.837,8.433,8.433,0,0,1,5.553-1.82,8.6,8.6,0,0,1,4.063.919,6.608,6.608,0,0,1,2.7,2.574,7.293,7.293,0,0,1,.957,3.715,8.758,8.758,0,0,1-.7,3.4,17.108,17.108,0,0,1-2.133,3.585q-1.067,1.435-2.538,3.182t-2.943,3.4l-.514.588a.118.118,0,0,0-.038.147.149.149,0,0,0,.148.074h8.716a.439.439,0,0,1,.441.441v3.567a.439.439,0,0,1-.441.441H275.9A.425.425,0,0,1,275.589,100.321Z" transform="translate(-256.852 -74.338)"/>
  </g>
  <g id="Group_4685" data-name="Group 4685" transform="translate(56.948 -88.644)">
    <path id="Path_317" data-name="Path 317" d="M53.662,217.891a1.207,1.207,0,0,1,0-2.414,1.016,1.016,0,0,0,0-2.032H45.124a1.206,1.206,0,1,1,0-2.412h8.538a3.429,3.429,0,0,1,0,6.859Z" transform="translate(25.424 16.507)"/>
    <path id="Path_318" data-name="Path 318" d="M51.646,220.346a1.207,1.207,0,0,1,0-2.414,1.015,1.015,0,1,0,0-2.03H47.614a1.207,1.207,0,0,1,0-2.414h4.032a3.429,3.429,0,0,1,0,6.858Z" transform="translate(27.44 18.495)"/>
    <path id="Path_319" data-name="Path 319" d="M50.716,222.8h-3.1a1.207,1.207,0,0,1,0-2.414h3.1a1.015,1.015,0,1,0,0-2.03h-3.1a1.207,1.207,0,0,1,0-2.414h3.1a3.429,3.429,0,1,1,0,6.858Z" transform="translate(27.44 20.484)"/>
    <path id="Path_320" data-name="Path 320" d="M51.251,225.259H43.493a1.206,1.206,0,1,1,0-2.412h7.758a1.016,1.016,0,0,0,0-2.032h-.3a1.207,1.207,0,0,1,0-2.414h.3a3.429,3.429,0,0,1,0,6.859Z" transform="translate(24.103 22.472)"/>
    <path id="Path_321" data-name="Path 321" d="M48.053,236.06a25.626,25.626,0,0,1-10.7-2.465,1.2,1.2,0,0,1-.695-1.093v-14.43a1.207,1.207,0,0,1,.988-1.187,14.467,14.467,0,0,0,11.3-9.955A2.775,2.775,0,0,1,54,206.5c2.834,5.221-.252,10.916-.384,11.156a1.207,1.207,0,0,1-2.114-1.167c.025-.047,2.571-4.794.375-8.838a.333.333,0,0,0-.34-.181.341.341,0,0,0-.313.239,16.817,16.817,0,0,1-12.161,11.339v12.671a22.988,22.988,0,0,0,8.985,1.925,1.206,1.206,0,1,1,0,2.412Z" transform="translate(19.544 11.67)"/>
    <path id="Path_322" data-name="Path 322" d="M42.113,230.323h-9.5a1.207,1.207,0,0,1,0-2.414h8.3V213.273h-8.3a1.207,1.207,0,1,1,0-2.414h9.5a1.208,1.208,0,0,1,1.207,1.207v17.05A1.208,1.208,0,0,1,42.113,230.323Z" transform="translate(15.291 16.367)"/>
    <path id="Path_323" data-name="Path 323" d="M47.9,261.873a35.385,35.385,0,0,1,0-70.771,1.208,1.208,0,0,1,1.207,1.207v68.357A1.208,1.208,0,0,1,47.9,261.873Zm-1.207-68.335a32.972,32.972,0,0,0,0,65.9Z" transform="translate(0 0.371)"/>
    <path id="Path_324" data-name="Path 324" d="M39.939,261.873c-9.864,0-17.59-15.545-17.59-35.385S30.074,191.1,39.939,191.1a1.208,1.208,0,0,1,1.207,1.207v68.357A1.208,1.208,0,0,1,39.939,261.873Zm-1.207-68.248c-7.687,1.388-13.969,15.872-13.969,32.863s6.281,31.475,13.969,32.863Z" transform="translate(7.962 0.371)"/>
    <path id="Path_325" data-name="Path 325" d="M47.9,236.115c-19.843,0-35.385-7.727-35.385-17.59s15.543-17.59,35.385-17.59a1.208,1.208,0,0,1,1.207,1.207v32.765A1.207,1.207,0,0,1,47.9,236.115Zm-1.207-32.754c-17.34.3-31.764,7.125-31.764,15.165s14.425,14.861,31.764,15.166Z" transform="translate(0 8.333)"/>
    <path id="Path_326" data-name="Path 326" d="M45.52,214.092a2.4,2.4,0,0,1-1.424-.472l-2.032-1.473-2.043,1.475a2.426,2.426,0,0,1-3.731-2.711l.776-2.389-2.036-1.486a2.425,2.425,0,0,1,1.426-4.387h2.51l.785-2.4a2.425,2.425,0,0,1,4.613,0l.775,2.389,2.521.007a2.425,2.425,0,0,1,1.424,4.387l-2.03,1.475.773,2.4a2.437,2.437,0,0,1-2.305,3.181Zm-3.462-4.363a2.42,2.42,0,0,1,1.424.463l2.032,1.475-.76-2.4a2.416,2.416,0,0,1,.879-2.709l2.032-1.477c-.007-.018-2.517-.018-2.517-.018a2.417,2.417,0,0,1-2.305-1.676L42.068,201l-.8,2.389a2.418,2.418,0,0,1-2.305,1.676h-2.51l2.025,1.493a2.423,2.423,0,0,1,.881,2.711l-.776,2.389,2.047-1.464A2.421,2.421,0,0,1,42.059,209.729Z" transform="translate(17.416 6.424)"/>
    <path id="Path_327" data-name="Path 327" d="M52.766,206.158a2.422,2.422,0,0,1-1.426-.472l-2.03-1.475-2.043,1.475a2.425,2.425,0,0,1-3.731-2.711l.776-2.387L42.276,199.1a2.425,2.425,0,0,1,1.426-4.387h2.51L47,192.32a2.425,2.425,0,0,1,4.613,0l.775,2.387,2.521.007a2.425,2.425,0,0,1,1.424,4.387l-2.03,1.475.773,2.4a2.386,2.386,0,0,1-.881,2.711A2.413,2.413,0,0,1,52.766,206.158ZM49.3,201.793a2.413,2.413,0,0,1,1.424.465l2.032,1.475-.762-2.4a2.424,2.424,0,0,1,.881-2.711l2.032-1.477c-.007-.018-2.517-.018-2.517-.018a2.415,2.415,0,0,1-2.305-1.676l-.776-2.387-.8,2.387a2.415,2.415,0,0,1-2.305,1.676H43.7l2.025,1.495a2.421,2.421,0,0,1,.881,2.711l-.776,2.387,2.047-1.464A2.417,2.417,0,0,1,49.3,201.793Z" transform="translate(23.283)"/>
    <path id="Path_328" data-name="Path 328" d="M38.533,232.257a1.207,1.207,0,0,1-1.207-1.207v-6.592a1.207,1.207,0,0,1,2.414,0v6.592A1.206,1.206,0,0,1,38.533,232.257Z" transform="translate(20.088 26.4)"/>
    <path id="Path_329" data-name="Path 329" d="M45.465,230.381a1.208,1.208,0,0,1-1.207-1.207v-4.2a1.207,1.207,0,1,1,2.414,0v4.2A1.208,1.208,0,0,1,45.465,230.381Z" transform="translate(25.7 26.817)"/>
    <path id="Path_330" data-name="Path 330" d="M48.431,207.67a1.208,1.208,0,0,1-1.207-1.207v-4.026a1.207,1.207,0,0,1,2.414,0v4.026A1.207,1.207,0,0,1,48.431,207.67Z" transform="translate(28.101 8.571)"/>
    <path id="Path_331" data-name="Path 331" d="M37.861,200.276a1.207,1.207,0,0,1-1.207-1.207V193.41a1.207,1.207,0,0,1,2.414,0v5.659A1.208,1.208,0,0,1,37.861,200.276Z" transform="translate(19.544 1.262)"/>
  </g>
</svg>
