<svg id="cs-solution-01" xmlns="http://www.w3.org/2000/svg" width="279.292" height="242.639" viewBox="0 0 279.292 242.639">
  <g id="Group_4599" data-name="Group 4599" transform="translate(0 32.678)">
    <g id="Group_4597" data-name="Group 4597">
      <path id="Path_40" data-name="Path 40" d="M165.3,291.743a104.982,104.982,0,0,1-4.413-209.872,105.3,105.3,0,0,1,106.411,79.937l-3.2.781A101.7,101.7,0,0,0,63.619,185.244a101.7,101.7,0,0,0,201.819,19.269,23.568,23.568,0,0,1,23.336-19.4h48.5v3.294h-48.5a20.278,20.278,0,0,0-20.092,16.674A104.76,104.76,0,0,1,165.3,291.743Z" transform="translate(-60.314 -81.782)"/>
    </g>
    <g id="Group_4598" data-name="Group 4598" transform="translate(263.285 91.303)">
      <path id="Path_41" data-name="Path 41" d="M222.523,164.581l-2.329-2.329,11.35-11.35-11.35-11.349,2.329-2.328L236.2,150.9Z" transform="translate(-220.194 -137.226)"/>
    </g>
  </g>
  <path id="Path_42" data-name="Path 42" d="M171.868,96.262a34.324,34.324,0,1,0-42.628,33.271l8.3,11,8.3-11A34.306,34.306,0,0,0,171.868,96.262Z" transform="translate(-32.563 -61.938)" fill="#f4be14"/>
  <g id="Group_4600" data-name="Group 4600" transform="translate(91.448 20.468)">
    <path id="Path_43" data-name="Path 43" d="M118.015,98.731a7.788,7.788,0,0,1-2.169-5.792V82.273a7.744,7.744,0,0,1,2.169-5.755,8.949,8.949,0,0,1,11.639,0,7.705,7.705,0,0,1,2.189,5.755V92.939a7.749,7.749,0,0,1-2.189,5.792,8.944,8.944,0,0,1-11.639,0Zm7.87-3.162a3.375,3.375,0,0,0,.774-2.335V82.016a3.308,3.308,0,0,0-.774-2.317,2.653,2.653,0,0,0-2.058-.846,2.6,2.6,0,0,0-2.042.846,3.362,3.362,0,0,0-.753,2.317V93.234a3.431,3.431,0,0,0,.753,2.335,2.569,2.569,0,0,0,2.042.865A2.622,2.622,0,0,0,125.885,95.569Z" transform="translate(-115.846 -74.367)"/>
    <path id="Path_44" data-name="Path 44" d="M130.649,74.59h4.45a.425.425,0,0,1,.313.128.43.43,0,0,1,.128.313V99.893a.439.439,0,0,1-.441.441h-4.3a.439.439,0,0,1-.441-.441V79.629a.25.25,0,0,0-.054-.148.1.1,0,0,0-.128-.036l-3.017.588-.147.038q-.331,0-.331-.405V76.54a.522.522,0,0,1,.331-.515L130.1,74.7A1.557,1.557,0,0,1,130.649,74.59Z" transform="translate(-108.841 -74.223)"/>
  </g>
  <g id="Group_4683" data-name="Group 4683" transform="translate(-376.42 -61.069)">
    <path id="Path_290" data-name="Path 290" d="M491.032,192.526a1.305,1.305,0,0,1-1.305-1.307v-4.351a1.306,1.306,0,1,1,2.612,0v4.351A1.306,1.306,0,0,1,491.032,192.526Z" transform="translate(24.501 13.169)"/>
    <path id="Path_291" data-name="Path 291" d="M470.995,202.3a9.081,9.081,0,1,1,9.081-9.082A9.091,9.091,0,0,1,470.995,202.3Zm0-15.549a6.468,6.468,0,1,0,6.469,6.467A6.475,6.475,0,0,0,470.995,186.755Z" transform="translate(10.654 12.425)"/>
    <path id="Path_292" data-name="Path 292" d="M490.759,214.792h-4.217a1.306,1.306,0,1,1,0-2.612h2.91v-.866a15.382,15.382,0,0,0-11.339-14.873,8.857,8.857,0,0,1-8.21,0,15.382,15.382,0,0,0-11.34,14.873v.866h3.417a1.306,1.306,0,1,1,0,2.612h-4.722a1.305,1.305,0,0,1-1.307-1.307v-2.171a17.99,17.99,0,0,1,13.823-17.538,1.294,1.294,0,0,1,.97.146,6.284,6.284,0,0,0,6.529,0,1.294,1.294,0,0,1,.969-.146,17.989,17.989,0,0,1,13.824,17.538v2.171A1.306,1.306,0,0,1,490.759,214.792Z" transform="translate(7.64 17.116)"/>
    <path id="Path_293" data-name="Path 293" d="M488.68,186.361a7.114,7.114,0,1,1,7.113-7.115A7.122,7.122,0,0,1,488.68,186.361Zm0-11.616a4.5,4.5,0,1,0,4.5,4.5A4.506,4.506,0,0,0,488.68,174.745Z" transform="translate(20.376 6.482)"/>
    <path id="Path_294" data-name="Path 294" d="M503.445,195.69H478.419a1.306,1.306,0,0,1-1.307-1.307v-1.621a13.767,13.767,0,0,1,10.58-13.422,1.294,1.294,0,0,1,.969.145,4.358,4.358,0,0,0,4.54,0,1.293,1.293,0,0,1,.969-.145,13.767,13.767,0,0,1,10.58,13.422v1.621A1.306,1.306,0,0,1,503.445,195.69Zm-23.721-2.612h22.414v-.316A11.162,11.162,0,0,0,494.033,182a6.977,6.977,0,0,1-6.2,0,11.164,11.164,0,0,0-8.107,10.759Z" transform="translate(18.125 10.032)"/>
    <path id="Path_295" data-name="Path 295" d="M482.428,192.526a1.306,1.306,0,0,1-1.307-1.307v-4.351a1.307,1.307,0,1,1,2.613,0v4.351A1.306,1.306,0,0,1,482.428,192.526Z" transform="translate(20.251 13.169)"/>
    <path id="Path_296" data-name="Path 296" d="M472.686,179.461a1.3,1.3,0,0,1-1.305-1.305V173.8a1.306,1.306,0,0,1,2.612,0v4.352A1.305,1.305,0,0,1,472.686,179.461Z" transform="translate(15.404 6.676)"/>
    <path id="Path_297" data-name="Path 297" d="M470.335,173.3a7.114,7.114,0,1,1,7.113-7.113A7.122,7.122,0,0,1,470.335,173.3Zm0-11.614a4.5,4.5,0,1,0,4.5,4.5A4.506,4.506,0,0,0,470.335,161.682Z" transform="translate(11.314)"/>
    <path id="Path_298" data-name="Path 298" d="M485.1,182.625H460.071a1.3,1.3,0,0,1-1.305-1.305V179.7a13.767,13.767,0,0,1,10.578-13.424,1.312,1.312,0,0,1,.971.145,4.358,4.358,0,0,0,4.54,0,1.3,1.3,0,0,1,.969-.145A13.767,13.767,0,0,1,486.4,179.7v1.621A1.3,1.3,0,0,1,485.1,182.625Zm-23.721-2.612h22.414V179.7a11.162,11.162,0,0,0-8.107-10.761,7,7,0,0,1-6.2,0,11.162,11.162,0,0,0-8.107,10.761Z" transform="translate(9.063 3.624)"/>
    <path id="Path_299" data-name="Path 299" d="M464.082,179.461a1.306,1.306,0,0,1-1.307-1.305V173.8a1.307,1.307,0,0,1,2.613,0v4.352A1.306,1.306,0,0,1,464.082,179.461Z" transform="translate(11.123 6.676)"/>
    <path id="Path_300" data-name="Path 300" d="M445.736,192.526a1.306,1.306,0,0,1-1.307-1.307v-4.351a1.306,1.306,0,1,1,2.612,0v4.351A1.305,1.305,0,0,1,445.736,192.526Z" transform="translate(2.026 13.169)"/>
    <path id="Path_301" data-name="Path 301" d="M451.987,186.361a7.114,7.114,0,1,1,7.115-7.115A7.122,7.122,0,0,1,451.987,186.361Zm0-11.616a4.5,4.5,0,1,0,4.5,4.5A4.507,4.507,0,0,0,451.987,174.745Z" transform="translate(2.251 6.482)"/>
    <path id="Path_302" data-name="Path 302" d="M466.753,195.69H441.725a1.305,1.305,0,0,1-1.305-1.307v-1.621A13.766,13.766,0,0,1,451,179.34a1.3,1.3,0,0,1,.971.145,4.358,4.358,0,0,0,4.54,0,1.292,1.292,0,0,1,.969-.145,13.767,13.767,0,0,1,10.58,13.422v1.621A1.306,1.306,0,0,1,466.753,195.69Zm-23.721-2.612h22.414v-.316A11.162,11.162,0,0,0,457.339,182a7.013,7.013,0,0,1-6.2,0,11.162,11.162,0,0,0-8.107,10.759Z" transform="translate(0 10.032)"/>
    <path id="Path_303" data-name="Path 303" d="M454.34,192.526a1.305,1.305,0,0,1-1.305-1.307v-4.351a1.306,1.306,0,1,1,2.612,0v4.351A1.306,1.306,0,0,1,454.34,192.526Z" transform="translate(6.277 13.169)"/>
    <path id="Path_304" data-name="Path 304" d="M466.966,219.113a3.071,3.071,0,0,1-1.811-.6,3.038,3.038,0,0,1-1.12-3.446l.888-2.734a.466.466,0,0,0-.17-.525l-2.326-1.689a3.082,3.082,0,0,1,1.813-5.575h2.874a.469.469,0,0,0,.447-.325l.888-2.734a3.082,3.082,0,0,1,5.862,0l.888,2.734a.467.467,0,0,0,.446.325h2.875a3.082,3.082,0,0,1,1.811,5.575l-2.326,1.689a.468.468,0,0,0-.17.525l.888,2.734a3.082,3.082,0,0,1-4.744,3.446l-2.324-1.689a.465.465,0,0,0-.551,0l-2.327,1.691A3.075,3.075,0,0,1,466.966,219.113Zm-2.726-11.956a.47.47,0,0,0-.276.851l2.324,1.688a3.076,3.076,0,0,1,1.12,3.446l-.888,2.735a.469.469,0,0,0,.723.524l2.326-1.691a3.07,3.07,0,0,1,3.623,0l2.323,1.688a.468.468,0,0,0,.723-.522l-.888-2.735a3.079,3.079,0,0,1,1.12-3.446l2.326-1.688a.47.47,0,0,0-.276-.851h-2.875a3.075,3.075,0,0,1-2.931-2.129l-.888-2.734a.469.469,0,0,0-.893,0l-.888,2.735a3.073,3.073,0,0,1-2.931,2.129Z" transform="translate(10.268 19.956)"/>
  </g>
</svg>
