<svg xmlns="http://www.w3.org/2000/svg" xmlns:xlink="http://www.w3.org/1999/xlink" width="330" height="296" viewBox="0 0 330 296">
  <defs>
    <clipPath id="clip-path">
      <rect id="Rectangle_2924" data-name="Rectangle 2924" width="330" height="296" fill="#fff"/>
    </clipPath>
    <linearGradient id="linear-gradient" x1="0.003" y1="0.568" x2="1.001" y2="0.432" gradientUnits="objectBoundingBox">
      <stop offset="0" stop-color="#ff5b00"/>
      <stop offset="1" stop-color="#ff8100"/>
    </linearGradient>
    <linearGradient id="linear-gradient-2" x1="0" y1="0.5" x2="1" y2="0.5" xlink:href="#linear-gradient"/>
    <linearGradient id="linear-gradient-3" x1="-7.146" y1="0.935" x2="-6.204" y2="1.802" gradientUnits="objectBoundingBox">
      <stop offset="0" stop-color="#8b8bff"/>
      <stop offset="0.617" stop-color="#b4b4ff"/>
    </linearGradient>
    <linearGradient id="linear-gradient-4" x1="-1.205" y1="0.095" x2="-0.258" y2="0.095" gradientUnits="objectBoundingBox">
      <stop offset="0" stop-color="#7c76f3"/>
      <stop offset="1" stop-color="#594dc2"/>
    </linearGradient>
    <linearGradient id="linear-gradient-5" x1="0" y1="0.5" x2="1" y2="0.5" xlink:href="#linear-gradient-3"/>
    <linearGradient id="linear-gradient-6" x1="0.208" y1="-0.117" x2="0.853" y2="0.972" xlink:href="#linear-gradient-4"/>
    <linearGradient id="linear-gradient-7" x1="0.102" y1="0.021" x2="1.447" y2="1.64" xlink:href="#linear-gradient-3"/>
    <linearGradient id="linear-gradient-8" x1="1.867" y1="1.198" x2="1.22" y2="0.875" gradientUnits="objectBoundingBox">
      <stop offset="0.075" stop-color="#7378d1"/>
      <stop offset="1" stop-color="#594dc2"/>
    </linearGradient>
    <linearGradient id="linear-gradient-9" x1="0" y1="0.5" x2="1" y2="0.5" xlink:href="#linear-gradient-4"/>
    <linearGradient id="linear-gradient-10" x1="0.591" y1="0.547" x2="1.276" y2="1.72" xlink:href="#linear-gradient-4"/>
    <linearGradient id="linear-gradient-11" y1="0.5" x2="1" y2="0.5" gradientUnits="objectBoundingBox">
      <stop offset="0" stop-color="#fff"/>
      <stop offset="1" stop-color="#ccceee"/>
    </linearGradient>
    <linearGradient id="linear-gradient-12" x1="1.362" y1="1.828" x2="0.539" y2="0.504" xlink:href="#linear-gradient-4"/>
    <linearGradient id="linear-gradient-13" x1="0.698" y1="0.643" x2="-0.389" y2="-0.574" gradientUnits="objectBoundingBox">
      <stop offset="0" stop-color="#5457d4" stop-opacity="0"/>
      <stop offset="1" stop-color="#302c8b"/>
    </linearGradient>
    <linearGradient id="linear-gradient-14" x1="-2.242" y1="0.753" x2="-1.597" y2="-0.386" xlink:href="#linear-gradient-13"/>
    <linearGradient id="linear-gradient-15" x1="-24.51" y1="5.715" x2="-23.841" y2="5.715" gradientUnits="objectBoundingBox">
      <stop offset="0" stop-color="#f59f7c"/>
      <stop offset="1" stop-color="#f5d3ac"/>
    </linearGradient>
    <linearGradient id="linear-gradient-16" x1="0.871" y1="0.156" x2="0.144" y2="0.836" xlink:href="#linear-gradient-4"/>
    <linearGradient id="linear-gradient-17" x1="-28.304" y1="0.611" x2="-27.748" y2="1.021" xlink:href="#linear-gradient-15"/>
    <linearGradient id="linear-gradient-18" x1="-16.63" y1="0.5" x2="-15.631" y2="0.5" xlink:href="#linear-gradient-15"/>
    <linearGradient id="linear-gradient-19" x1="0.718" y1="0.507" x2="1.413" y2="0.672" xlink:href="#linear-gradient-4"/>
    <linearGradient id="linear-gradient-20" x1="-21.748" y1="0.153" x2="-22.501" y2="0.661" xlink:href="#linear-gradient-4"/>
    <linearGradient id="linear-gradient-22" x1="-21.168" y1="0.5" x2="-20.168" y2="0.5" xlink:href="#linear-gradient-4"/>
    <linearGradient id="linear-gradient-23" x1="-14.064" y1="0.476" x2="-16.495" y2="0.54" xlink:href="#linear-gradient-4"/>
    <linearGradient id="linear-gradient-24" x1="-8.484" y1="0.459" x2="-9.741" y2="0.517" xlink:href="#linear-gradient-4"/>
    <linearGradient id="linear-gradient-25" x1="-25.136" y1="0.5" x2="-24.136" y2="0.5" gradientUnits="objectBoundingBox">
      <stop offset="0" stop-color="#fff"/>
      <stop offset="1" stop-color="#c9deff"/>
    </linearGradient>
    <linearGradient id="linear-gradient-26" x1="0.185" y1="-0.103" x2="0.767" y2="0.987" xlink:href="#linear-gradient-4"/>
    <linearGradient id="linear-gradient-27" x1="1.081" y1="0.326" x2="0.058" y2="0.572" xlink:href="#linear-gradient-15"/>
  </defs>
  <g id="devops-management-1" clip-path="url(#clip-path)">
    <g id="Group_11184" data-name="Group 11184" transform="translate(-11.426 -34.199)">
      <path id="Path_11002" data-name="Path 11002" d="M306.431,284.272h0V274.223h-1.812c-4.078-13.094-14.873-25.627-32.4-35.747-45.687-26.377-119.759-26.377-165.446,0-17.529,10.12-28.324,22.654-32.4,35.747H72.51v10.049h.054c-.9,17.934,10.5,36.036,34.211,49.724,45.687,26.377,119.76,26.378,165.446,0C295.93,320.308,307.33,302.206,306.431,284.272Z" transform="translate(-8.055 -55.862)" fill-rule="evenodd" fill="url(#linear-gradient)"/>
      <path id="Path_11003" data-name="Path 11003" d="M399.377,172.424,347.719,142.6c-3.776-2.18-6.837-8.028-6.837-13.063V98.141c0-5.034,3.061-7.349,6.837-5.168L399.377,122.8c3.776,2.18,6.837,8.028,6.837,13.063v31.395C406.214,172.29,403.153,174.6,399.377,172.424Z" transform="translate(-107.055 -9.182)" fill="url(#linear-gradient-2)"/>
      <g id="Group_11171" data-name="Group 11171" transform="translate(254.486 127.724)">
        <path id="Path_11004" data-name="Path 11004" d="M394.36,183.656c.609,2.581-.483,5.268-1.92,7.5a15.26,15.26,0,0,1-6.265,5.82,8.812,8.812,0,0,1-8.3-.318c-2.877-1.869-4.026-5.544-4.221-8.969a11.146,11.146,0,0,1,.75-5.265c1.042-2.288,3.079-3.95,4.284-6.151.952-1.738,1.27-3.76,2.221-5.475,2.6-4.687,9.374-6.327,14.152-7.729-.892.262-1.708,5.062-1.771,5.915-.128,1.743.452,2.82.9,4.417a7.1,7.1,0,0,1-.033,4.406C393.562,180.213,393.788,181.226,394.36,183.656Z" transform="translate(-373.617 -163.065)" fill="url(#linear-gradient-3)"/>
        <path id="Path_11005" data-name="Path 11005" d="M391.665,170.044a14.605,14.605,0,0,0-4.784,6.991c-.492,1.819-.483,3.745-.973,5.565a29.639,29.639,0,0,1-1.739,4.256,35.893,35.893,0,0,0-1.34,25.344" transform="translate(-376.389 -165.639)" fill="none" stroke="#707070" stroke-miterlimit="10" stroke-width="1"/>
        <g id="Group_11170" data-name="Group 11170" transform="translate(8.048 17.413)">
          <path id="Path_11006" data-name="Path 11006" d="M392.453,211c-.867-4.276-1.5-10.159,2.638-13.114,1.184-.846,2.748-1,3.961-1.8a19.021,19.021,0,0,0,1.995-1.811,15.785,15.785,0,0,1,5.669-2.786c4.145-1.383,8.979-.82,13.188.162,3.589.837,6.358,4.481,8.206,7.492-1.026-1.672-6.044.24-7.084,1.024-2.218,1.67-3.47,4.757-5.041,6.972a23.972,23.972,0,0,1-7.4,6.463c-2.748,1.646-5.838,3-9.036,2.817S393.09,214.137,392.453,211Z" transform="translate(-388.378 -190.656)" fill="url(#linear-gradient-4)"/>
          <path id="Path_11007" data-name="Path 11007" d="M418.139,196.777a32.547,32.547,0,0,0-21.555,10.554A41.538,41.538,0,0,0,386.369,229.3" transform="translate(-386.369 -192.914)" fill="none" stroke="#707070" stroke-miterlimit="10" stroke-width="1"/>
        </g>
      </g>
      <path id="Path_11008" data-name="Path 11008" d="M96.454,181.274l64.552-37.269c3.123-1.8,5.654-6.639,5.654-10.8V95.985c0-4.163-2.531-6.077-5.654-4.274L96.454,128.98c-3.123,1.8-5.654,6.639-5.654,10.8V177C90.8,181.164,93.331,183.077,96.454,181.274Z" transform="translate(-14.802 -8.769)" fill="#ff7220"/>
      <ellipse id="Ellipse_254" data-name="Ellipse 254" cx="116.988" cy="67.543" rx="116.988" ry="67.543" transform="translate(64.455 150.816)" fill="url(#linear-gradient-5)"/>
      <g id="Group_11173" data-name="Group 11173" transform="translate(50.674 171.178)">
        <path id="Path_11009" data-name="Path 11009" d="M84.476,254.325c.683,3,3.192,5.244,5.826,6.835a17.719,17.719,0,0,0,9.5,2.87,10.229,10.229,0,0,0,8.493-4.569c2.045-3.416,1.368-7.832-.176-11.5a12.933,12.933,0,0,0-3.469-5.105c-2.253-1.852-5.224-2.546-7.6-4.225-1.879-1.326-3.241-3.27-5.108-4.574-5.1-3.56-13-1.811-18.694-.836,1.063-.182,4.363,4.405,4.863,5.262,1.024,1.751.968,3.169,1.315,5.063a8.239,8.239,0,0,0,2.282,4.576C83.551,250.329,83.832,251.5,84.476,254.325Z" transform="translate(-59 -231.919)" fill="url(#linear-gradient-6)"/>
        <path id="Path_11010" data-name="Path 11010" d="M86.985,236.269a16.945,16.945,0,0,1,8.554,4.846c1.441,1.645,2.415,3.657,3.854,5.3a34.435,34.435,0,0,0,3.984,3.548A41.654,41.654,0,0,1,117.7,275.7" transform="translate(-64.069 -233.524)" fill="none" stroke="#707070" stroke-miterlimit="10" stroke-width="1"/>
        <g id="Group_11172" data-name="Group 11172" transform="translate(0 22.46)">
          <path id="Path_11011" data-name="Path 11011" d="M93.892,280.944c-1.278-4.9-3.624-11.351-9.441-12.322-1.665-.278-3.375.358-5.05.139a22.083,22.083,0,0,1-3-.869,18.313,18.313,0,0,0-7.33-.011c-5.026.673-9.778,3.727-13.664,6.9-3.313,2.7-4.341,7.913-4.731,12,.216-2.266,6.423-2.833,7.905-2.548,3.164.61,6.044,3.189,8.812,4.7A27.823,27.823,0,0,0,78.4,291.884c3.7.314,7.613.145,10.855-1.674S94.83,284.541,93.892,280.944Z" transform="translate(-50.674 -267.507)" fill="#ff7220"/>
          <path id="Path_11012" data-name="Path 11012" d="M60.092,282.418a37.77,37.77,0,0,1,27.851,0A48.2,48.2,0,0,1,109.8,300.112" transform="translate(-54.148 -272.026)" fill="none" stroke="#707070" stroke-miterlimit="10" stroke-width="1"/>
        </g>
      </g>
      <path id="Path_11013" data-name="Path 11013" d="M279.495,147.532l-51.659-29.825c-3.776-2.18-6.837-8.028-6.837-13.063V73.25c0-5.034,3.061-7.349,6.837-5.169l51.659,29.825c3.775,2.18,6.837,8.029,6.837,13.063v31.394C286.331,147.4,283.27,149.712,279.495,147.532Z" transform="translate(-62.831)" fill="url(#linear-gradient-7)"/>
      <g id="Group_11183" data-name="Group 11183" transform="translate(88.359 75.951)">
        <g id="Group_11178" data-name="Group 11178" transform="translate(0 0)">
          <g id="Group_11177" data-name="Group 11177">
            <g id="Group_11176" data-name="Group 11176">
              <path id="Path_11014" data-name="Path 11014" d="M153.66,322.714l-8.132-43.182-.006-.018-13.282-70.485L110.386,299.8l1.055.317,6.346,1.9,14.453,4.31L146.7,318.7l7.394,6.333Zm-21.42-17.946-20.055-5.992.006-.013,20.049-83.3,12.185,64.682.006.018,7.87,41.768Z" transform="translate(-110.386 -128.247)" fill="url(#linear-gradient-8)"/>
              <path id="Path_11015" data-name="Path 11015" d="M145.482,283.913l-32.238,18.612,20.052-83.3Z" transform="translate(-111.44 -132.01)" fill="url(#linear-gradient-9)"/>
              <path id="Path_11016" data-name="Path 11016" d="M209.513,318.685" transform="translate(-146.953 -168.699)" fill="none" stroke="#b8bed4" stroke-miterlimit="10" stroke-width="3"/>
              <path id="Path_11017" data-name="Path 11017" d="M153.351,363.514,133.29,346.349l-20.055-5.992,1.8-1.036,30.442-17.574Z" transform="translate(-111.437 -169.828)" fill="url(#linear-gradient-10)"/>
              <g id="Group_11175" data-name="Group 11175" transform="translate(21.858)">
                <path id="Path_11018" data-name="Path 11018" d="M283.685,81.03l-121.869,71-.631.365-5.9,3.438-.624.366-2.555,1.486-.625.366-6.23,3.625-.23.136.251,1.364.158.839,21.231,113.615.208,1.105,140.86-82.248Zm-28.7,21.3c1.12-.661,2.254-.05,2.541,1.363a3.745,3.745,0,0,1-1.507,3.754c-1.12.668-2.254.05-2.534-1.356A3.753,3.753,0,0,1,254.982,102.326Zm-10.343,6.129c1.12-.66,2.254-.05,2.541,1.364a3.74,3.74,0,0,1-1.508,3.754c-1.12.66-2.254.05-2.541-1.356A3.772,3.772,0,0,1,244.639,108.455Zm-10.343,6.13c1.113-.661,2.254-.05,2.541,1.364a3.754,3.754,0,0,1-1.515,3.753c-1.112.661-2.254.05-2.533-1.356A3.744,3.744,0,0,1,234.3,114.585Zm-10.343,6.129c1.112-.668,2.254-.057,2.541,1.364a3.757,3.757,0,0,1-1.515,3.754c-1.113.66-2.254.05-2.534-1.356A3.738,3.738,0,0,1,223.953,120.715Zm-10.35,6.13c1.12-.668,2.254-.057,2.541,1.364a3.766,3.766,0,0,1-1.508,3.754c-1.12.66-2.254.05-2.541-1.357A3.751,3.751,0,0,1,213.6,126.845Zm-10.343,6.122c1.12-.66,2.254-.05,2.541,1.364a3.746,3.746,0,0,1-1.507,3.754c-1.12.667-2.254.057-2.541-1.357A3.757,3.757,0,0,1,203.26,132.967ZM192.917,139.1c1.112-.66,2.254-.05,2.533,1.364a3.732,3.732,0,0,1-1.507,3.754c-1.12.668-2.254.057-2.534-1.356A3.745,3.745,0,0,1,192.917,139.1Zm-10.343,6.13c1.113-.66,2.254-.051,2.534,1.364a3.738,3.738,0,0,1-1.507,3.754c-1.113.66-2.254.05-2.534-1.357A3.744,3.744,0,0,1,182.574,145.226Zm-10.35,6.129c1.12-.66,2.254-.05,2.541,1.364a3.764,3.764,0,0,1-1.507,3.754c-1.12.661-2.254.05-2.541-1.356A3.745,3.745,0,0,1,172.224,151.356Zm-10.343,6.13a1.53,1.53,0,0,1,1.916.143,2.248,2.248,0,0,1,.618,1.221,3.918,3.918,0,0,1-.259,2.247c.007.007,0,.007-.007.014a3.242,3.242,0,0,1-1.234,1.493,1.543,1.543,0,0,1-1.572.093,1.71,1.71,0,0,1-.783-.883,2.3,2.3,0,0,1-.186-.567A3.739,3.739,0,0,1,161.881,157.486Zm-11.9,8.871a3.628,3.628,0,0,1,1.558-2.742,1.521,1.521,0,0,1,1.795.043,1.876,1.876,0,0,1,.617.89,2.735,2.735,0,0,1,.122.43,3.739,3.739,0,0,1-1.507,3.754c-1.12.66-2.254.05-2.541-1.357-.015-.086-.029-.179-.044-.273A3.282,3.282,0,0,1,149.98,166.357Zm116.378-65.043c-1.113.668-2.254.057-2.533-1.357a3.744,3.744,0,0,1,1.507-3.761c1.12-.66,2.254-.05,2.541,1.364A3.751,3.751,0,0,1,266.358,101.314ZM276.7,95.191c-1.113.66-2.247.05-2.534-1.364a3.745,3.745,0,0,1,1.507-3.754c1.12-.668,2.254-.057,2.541,1.364A3.755,3.755,0,0,1,276.7,95.191Z" transform="translate(-145.021 -81.03)" fill="url(#linear-gradient-11)"/>
                <path id="Path_11019" data-name="Path 11019" d="M240.253,217.4l-6.979,4.134c-.8.475-1.642-.1-1.879-1.274l-1.659-8.243a2.968,2.968,0,0,1,1.021-2.992l6.979-4.134c.8-.474,1.642.1,1.879,1.274l1.658,8.243A2.967,2.967,0,0,1,240.253,217.4Z" transform="translate(-176.249 -126.661)" fill="none" stroke="#bfc2ec" stroke-miterlimit="10" stroke-width="1"/>
                <path id="Path_11020" data-name="Path 11020" d="M262.332,204.323l-6.979,4.134c-.8.475-1.642-.1-1.879-1.274l-1.658-8.243a2.969,2.969,0,0,1,1.02-2.992l6.979-4.134c.8-.474,1.642.1,1.879,1.275l1.659,8.242A2.968,2.968,0,0,1,262.332,204.323Z" transform="translate(-184.394 -121.836)" fill="none" stroke="#bfc2ec" stroke-miterlimit="10" stroke-width="1"/>
                <path id="Path_11021" data-name="Path 11021" d="M284.41,191.243l-6.979,4.134c-.8.475-1.642-.1-1.879-1.274l-1.658-8.243a2.967,2.967,0,0,1,1.021-2.992l6.979-4.134c.8-.474,1.642.1,1.879,1.275l1.659,8.242A2.967,2.967,0,0,1,284.41,191.243Z" transform="translate(-192.538 -117.01)" fill="none" stroke="#bfc2ec" stroke-miterlimit="10" stroke-width="1"/>
                <path id="Path_11022" data-name="Path 11022" d="M306.489,178.163,299.51,182.3c-.8.475-1.642-.1-1.879-1.274l-1.658-8.242a2.966,2.966,0,0,1,1.021-2.992l6.979-4.134c.8-.475,1.642.1,1.879,1.274l1.658,8.242A2.966,2.966,0,0,1,306.489,178.163Z" transform="translate(-200.683 -112.186)" fill="#ff7220"/>
                <path id="Path_11023" data-name="Path 11023" d="M179.268,282.748l-6.979,4.134c-.8.474-1.642-.1-1.879-1.274l-1.658-8.243a2.966,2.966,0,0,1,1.021-2.992l6.979-4.134c.8-.474,1.641.1,1.879,1.274l1.658,8.243A2.966,2.966,0,0,1,179.268,282.748Z" transform="translate(-153.752 -150.766)" fill="none" stroke="#bfc2ec" stroke-miterlimit="10" stroke-width="1"/>
                <path id="Path_11024" data-name="Path 11024" d="M201.347,269.668l-6.979,4.134c-.8.475-1.642-.1-1.879-1.274l-1.659-8.243a2.968,2.968,0,0,1,1.021-2.992l6.978-4.134c.8-.474,1.642.1,1.879,1.274l1.658,8.243A2.967,2.967,0,0,1,201.347,269.668Z" transform="translate(-161.897 -145.941)" fill="none" stroke="#bfc2ec" stroke-miterlimit="10" stroke-width="1"/>
                <path id="Path_11025" data-name="Path 11025" d="M223.425,256.588l-6.978,4.134c-.8.475-1.642-.1-1.879-1.274l-1.658-8.243a2.969,2.969,0,0,1,1.021-2.992l6.979-4.134c.8-.474,1.642.1,1.879,1.275l1.659,8.242A2.967,2.967,0,0,1,223.425,256.588Z" transform="translate(-170.041 -141.116)" fill="none" stroke="#bfc2ec" stroke-miterlimit="10" stroke-width="1"/>
                <path id="Path_11026" data-name="Path 11026" d="M245.5,243.508l-6.979,4.134c-.8.475-1.641-.1-1.879-1.274l-1.658-8.242a2.966,2.966,0,0,1,1.02-2.992L242.988,231c.8-.475,1.642.1,1.879,1.274l1.658,8.242A2.966,2.966,0,0,1,245.5,243.508Z" transform="translate(-178.186 -136.291)" fill="none" stroke="#bfc2ec" stroke-miterlimit="10" stroke-width="1"/>
                <path id="Path_11027" data-name="Path 11027" d="M267.583,230.428l-6.979,4.134c-.8.475-1.642-.1-1.879-1.274l-1.658-8.242a2.966,2.966,0,0,1,1.021-2.992l6.979-4.134c.8-.475,1.642.1,1.879,1.274l1.658,8.243A2.967,2.967,0,0,1,267.583,230.428Z" transform="translate(-186.331 -131.466)" fill="none" stroke="#bfc2ec" stroke-miterlimit="10" stroke-width="1"/>
                <path id="Path_11028" data-name="Path 11028" d="M289.662,217.349l-6.979,4.134c-.8.474-1.642-.1-1.879-1.275l-1.659-8.242a2.967,2.967,0,0,1,1.021-2.992l6.978-4.134c.8-.475,1.642.1,1.879,1.274l1.658,8.243A2.968,2.968,0,0,1,289.662,217.349Z" transform="translate(-194.475 -126.641)" fill="none" stroke="#bfc2ec" stroke-miterlimit="10" stroke-width="1"/>
                <path id="Path_11029" data-name="Path 11029" d="M311.74,204.269l-6.978,4.134c-.8.474-1.642-.1-1.879-1.275l-1.658-8.242a2.969,2.969,0,0,1,1.021-2.992l6.979-4.134c.8-.475,1.642.1,1.879,1.274l1.659,8.243A2.968,2.968,0,0,1,311.74,204.269Z" transform="translate(-202.62 -121.815)" fill="none" stroke="#bfc2ec" stroke-miterlimit="10" stroke-width="1"/>
                <path id="Path_11030" data-name="Path 11030" d="M184.519,308.853l-6.979,4.134c-.8.475-1.642-.1-1.879-1.274L174,303.47a2.968,2.968,0,0,1,1.021-2.992L182,296.344c.8-.475,1.642.1,1.879,1.274l1.659,8.242A2.967,2.967,0,0,1,184.519,308.853Z" transform="translate(-155.689 -160.396)" fill="none" stroke="#bfc2ec" stroke-miterlimit="10" stroke-width="1"/>
                <path id="Path_11031" data-name="Path 11031" d="M206.6,295.773l-6.979,4.134c-.8.475-1.642-.1-1.879-1.274l-1.658-8.242A2.966,2.966,0,0,1,197.1,287.4l6.979-4.134c.8-.475,1.642.1,1.879,1.274l1.658,8.242A2.966,2.966,0,0,1,206.6,295.773Z" transform="translate(-163.834 -155.571)" fill="none" stroke="#bfc2ec" stroke-miterlimit="10" stroke-width="1"/>
                <path id="Path_11032" data-name="Path 11032" d="M228.677,282.694l-6.979,4.134c-.8.474-1.642-.1-1.879-1.275l-1.658-8.242a2.966,2.966,0,0,1,1.021-2.992l6.979-4.134c.8-.475,1.642.1,1.879,1.274L229.7,279.7A2.967,2.967,0,0,1,228.677,282.694Z" transform="translate(-171.979 -150.746)" fill="#ff7220"/>
                <path id="Path_11033" data-name="Path 11033" d="M250.756,269.614l-6.979,4.134c-.8.474-1.642-.1-1.879-1.274l-1.659-8.243a2.968,2.968,0,0,1,1.021-2.992l6.978-4.134c.8-.475,1.642.1,1.879,1.274l1.658,8.243A2.969,2.969,0,0,1,250.756,269.614Z" transform="translate(-180.123 -145.921)" fill="none" stroke="#bfc2ec" stroke-miterlimit="10" stroke-width="1"/>
                <path id="Path_11034" data-name="Path 11034" d="M272.834,256.534l-6.979,4.134c-.8.474-1.642-.1-1.879-1.274l-1.658-8.243a2.967,2.967,0,0,1,1.02-2.992l6.979-4.134c.8-.474,1.642.1,1.879,1.274l1.659,8.243A2.967,2.967,0,0,1,272.834,256.534Z" transform="translate(-188.268 -141.096)" fill="none" stroke="#bfc2ec" stroke-miterlimit="10" stroke-width="1"/>
                <path id="Path_11035" data-name="Path 11035" d="M294.913,243.454l-6.979,4.134c-.8.475-1.642-.1-1.879-1.274l-1.658-8.243a2.966,2.966,0,0,1,1.02-2.992l6.979-4.134c.8-.474,1.642.1,1.879,1.274l1.658,8.243A2.966,2.966,0,0,1,294.913,243.454Z" transform="translate(-196.413 -136.271)" fill="none" stroke="#bfc2ec" stroke-miterlimit="10" stroke-width="1"/>
                <path id="Path_11036" data-name="Path 11036" d="M316.992,230.374l-6.979,4.134c-.8.475-1.642-.1-1.879-1.274l-1.658-8.243A2.967,2.967,0,0,1,307.5,222l6.979-4.134c.8-.474,1.642.1,1.879,1.275l1.658,8.242A2.966,2.966,0,0,1,316.992,230.374Z" transform="translate(-204.557 -131.446)" fill="none" stroke="#bfc2ec" stroke-miterlimit="10" stroke-width="1"/>
                <path id="Path_11037" data-name="Path 11037" d="M189.771,334.959l-6.979,4.134c-.8.474-1.642-.1-1.879-1.275l-1.659-8.242a2.967,2.967,0,0,1,1.021-2.992l6.979-4.134c.8-.475,1.642.1,1.879,1.274l1.658,8.243A2.967,2.967,0,0,1,189.771,334.959Z" transform="translate(-157.626 -170.026)" fill="none" stroke="#bfc2ec" stroke-miterlimit="10" stroke-width="1"/>
                <path id="Path_11038" data-name="Path 11038" d="M211.85,321.879l-6.979,4.134c-.8.474-1.642-.1-1.879-1.274l-1.659-8.243a2.969,2.969,0,0,1,1.021-2.992l6.979-4.134c.8-.475,1.642.1,1.879,1.274l1.658,8.243A2.969,2.969,0,0,1,211.85,321.879Z" transform="translate(-165.771 -165.201)" fill="none" stroke="#bfc2ec" stroke-miterlimit="10" stroke-width="1"/>
                <path id="Path_11039" data-name="Path 11039" d="M233.928,308.8l-6.979,4.134c-.8.475-1.641-.1-1.879-1.274l-1.658-8.243a2.967,2.967,0,0,1,1.021-2.992l6.979-4.134c.8-.474,1.642.1,1.879,1.274l1.659,8.243A2.968,2.968,0,0,1,233.928,308.8Z" transform="translate(-173.916 -160.376)" fill="none" stroke="#bfc2ec" stroke-miterlimit="10" stroke-width="1"/>
                <path id="Path_11040" data-name="Path 11040" d="M256.007,295.719l-6.979,4.134c-.8.475-1.641-.1-1.879-1.274l-1.658-8.243a2.967,2.967,0,0,1,1.021-2.992l6.979-4.134c.8-.474,1.642.1,1.879,1.275l1.658,8.242A2.966,2.966,0,0,1,256.007,295.719Z" transform="translate(-182.061 -155.551)" fill="none" stroke="#bfc2ec" stroke-miterlimit="10" stroke-width="1"/>
                <path id="Path_11041" data-name="Path 11041" d="M278.086,282.639l-6.979,4.134c-.8.475-1.642-.1-1.879-1.274l-1.659-8.243a2.968,2.968,0,0,1,1.021-2.992l6.979-4.134c.8-.475,1.642.1,1.879,1.274l1.658,8.242A2.966,2.966,0,0,1,278.086,282.639Z" transform="translate(-190.205 -150.726)" fill="none" stroke="#bfc2ec" stroke-miterlimit="10" stroke-width="1"/>
                <path id="Path_11042" data-name="Path 11042" d="M300.165,269.559l-6.979,4.134c-.8.475-1.642-.1-1.879-1.274l-1.659-8.242a2.968,2.968,0,0,1,1.021-2.992l6.979-4.134c.8-.475,1.642.1,1.879,1.274l1.658,8.242A2.968,2.968,0,0,1,300.165,269.559Z" transform="translate(-198.35 -145.901)" fill="none" stroke="#bfc2ec" stroke-miterlimit="10" stroke-width="1"/>
                <path id="Path_11043" data-name="Path 11043" d="M322.243,256.48l-6.979,4.134c-.8.474-1.642-.1-1.879-1.275l-1.658-8.242a2.967,2.967,0,0,1,1.021-2.992l6.979-4.134c.8-.475,1.642.1,1.879,1.274l1.659,8.243A2.968,2.968,0,0,1,322.243,256.48Z" transform="translate(-206.494 -141.076)" fill="none" stroke="#bfc2ec" stroke-miterlimit="10" stroke-width="1"/>
                <path id="Path_11044" data-name="Path 11044" d="M195.022,361.064l-6.979,4.134c-.8.475-1.642-.1-1.879-1.274l-1.658-8.243a2.966,2.966,0,0,1,1.021-2.992l6.979-4.134c.8-.474,1.642.1,1.879,1.275l1.659,8.242A2.968,2.968,0,0,1,195.022,361.064Z" transform="translate(-159.564 -179.656)" fill="none" stroke="#bfc2ec" stroke-miterlimit="10" stroke-width="1"/>
                <path id="Path_11045" data-name="Path 11045" d="M217.1,347.984l-6.979,4.134c-.8.475-1.641-.1-1.879-1.274l-1.658-8.243a2.967,2.967,0,0,1,1.021-2.992l6.979-4.134c.8-.474,1.642.1,1.879,1.275l1.658,8.242A2.966,2.966,0,0,1,217.1,347.984Z" transform="translate(-167.708 -174.831)" fill="none" stroke="#bfc2ec" stroke-miterlimit="10" stroke-width="1"/>
                <path id="Path_11046" data-name="Path 11046" d="M239.18,334.9l-6.979,4.134c-.8.475-1.642-.1-1.879-1.274l-1.659-8.243a2.968,2.968,0,0,1,1.021-2.992l6.979-4.134c.8-.475,1.642.1,1.879,1.274l1.658,8.242A2.966,2.966,0,0,1,239.18,334.9Z" transform="translate(-175.853 -170.006)" fill="none" stroke="#bfc2ec" stroke-miterlimit="10" stroke-width="1"/>
                <path id="Path_11047" data-name="Path 11047" d="M261.259,321.825l-6.979,4.134c-.8.475-1.642-.1-1.879-1.274l-1.659-8.242a2.968,2.968,0,0,1,1.02-2.992l6.979-4.134c.8-.475,1.642.1,1.879,1.274l1.658,8.243A2.969,2.969,0,0,1,261.259,321.825Z" transform="translate(-183.998 -165.181)" fill="none" stroke="#bfc2ec" stroke-miterlimit="10" stroke-width="1"/>
                <path id="Path_11048" data-name="Path 11048" d="M283.337,308.745l-6.979,4.134c-.8.474-1.642-.1-1.879-1.275l-1.658-8.242a2.966,2.966,0,0,1,1.02-2.992l6.979-4.134c.8-.475,1.642.1,1.879,1.274l1.659,8.243A2.968,2.968,0,0,1,283.337,308.745Z" transform="translate(-192.142 -160.356)" fill="#ff7220"/>
                <line id="Line_42" data-name="Line 42" y1="55.381" x2="93.483" transform="translate(10.336 48.033)" fill="none" stroke="#bfc2ec" stroke-miterlimit="10" stroke-width="1"/>
                <path id="Path_11049" data-name="Path 11049" d="M288.2,148.079l11.444-6.78,1.229,6.107-11.444,6.78Z" transform="translate(-197.84 -103.263)" fill="#ff7220"/>
                <line id="Line_43" data-name="Line 43" y1="15.951" x2="26.924" transform="translate(108.999 29.014)" fill="none" stroke="#bfc2ec" stroke-miterlimit="10" stroke-width="1"/>
                <line id="Line_44" data-name="Line 44" y1="15.951" x2="26.925" transform="translate(110.702 37.48)" fill="none" stroke="#bfc2ec" stroke-miterlimit="10" stroke-width="1"/>
                <line id="Line_45" data-name="Line 45" y1="15.951" x2="26.924" transform="translate(112.405 45.947)" fill="none" stroke="#bfc2ec" stroke-miterlimit="10" stroke-width="1"/>
                <line id="Line_46" data-name="Line 46" y1="15.951" x2="26.924" transform="translate(114.108 54.413)" fill="none" stroke="#bfc2ec" stroke-miterlimit="10" stroke-width="1"/>
                <line id="Line_47" data-name="Line 47" y1="15.951" x2="26.925" transform="translate(115.812 62.88)" fill="none" stroke="#bfc2ec" stroke-miterlimit="10" stroke-width="1"/>
                <line id="Line_48" data-name="Line 48" y1="15.951" x2="26.925" transform="translate(117.515 71.346)" fill="none" stroke="#bfc2ec" stroke-miterlimit="10" stroke-width="1"/>
                <line id="Line_49" data-name="Line 49" y1="15.951" x2="26.924" transform="translate(119.218 79.813)" fill="none" stroke="#bfc2ec" stroke-miterlimit="10" stroke-width="1"/>
                <line id="Line_50" data-name="Line 50" y1="15.951" x2="26.925" transform="translate(120.921 88.279)" fill="none" stroke="#bfc2ec" stroke-miterlimit="10" stroke-width="1"/>
                <line id="Line_51" data-name="Line 51" y1="15.951" x2="26.925" transform="translate(122.624 96.746)" fill="none" stroke="#bfc2ec" stroke-miterlimit="10" stroke-width="1"/>
                <line id="Line_52" data-name="Line 52" y1="15.951" x2="26.924" transform="translate(124.327 105.212)" fill="none" stroke="#bfc2ec" stroke-miterlimit="10" stroke-width="1"/>
                <line id="Line_53" data-name="Line 53" y1="15.951" x2="26.924" transform="translate(126.03 113.679)" fill="none" stroke="#bfc2ec" stroke-miterlimit="10" stroke-width="1"/>
                <g id="Group_11174" data-name="Group 11174" transform="translate(6.656 58.872)">
                  <text id="_1" data-name="1" transform="matrix(0.975, -0.223, 0.223, 0.975, 51.495, 26)" fill="#3d3d3d" font-size="1" font-family="Oswald-Regular, Oswald" letter-spacing="0.05em"><tspan x="-0.198" y="0">1</tspan></text>
                  <text id="_2" data-name="2" transform="matrix(0.975, -0.223, 0.223, 0.975, 65.037, 18.861)" fill="#3d3d3d" font-size="2" font-family="Oswald-Regular, Oswald" letter-spacing="0.05em"><tspan x="-0.478" y="0">2</tspan></text>
                  <text id="_3" data-name="3" transform="matrix(0.975, -0.223, 0.223, 0.975, 78.971, 10.606)" fill="#3d3d3d" font-size="2" font-family="Oswald-Regular, Oswald" letter-spacing="0.05em"><tspan x="-0.477" y="0">3</tspan></text>
                  <text id="_4" data-name="4" transform="matrix(0.975, -0.223, 0.223, 0.975, 92.906, 2.351)" fill="#3d3d3d" font-size="2" font-family="Oswald-Regular, Oswald" letter-spacing="0.05em"><tspan x="-0.483" y="0">4</tspan></text>
                  <text id="_8" data-name="8" transform="matrix(0.975, -0.223, 0.223, 0.975, 54.41, 43.555)" fill="#3d3d3d" font-size="2" font-family="Oswald-Regular, Oswald" letter-spacing="0.05em"><tspan x="-0.499" y="0">8</tspan></text>
                  <text id="_9" data-name="9" transform="matrix(0.975, -0.223, 0.223, 0.975, 68.12, 34.326)" fill="#3d3d3d" font-size="1" font-family="Oswald-Regular, Oswald" letter-spacing="0.05em"><tspan x="-0.251" y="0">9</tspan></text>
                  <text id="_7" data-name="7" transform="matrix(0.975, -0.223, 0.223, 0.975, 40.868, 50.694)" fill="#3d3d3d" font-size="1" font-family="Oswald-Regular, Oswald" letter-spacing="0.05em"><tspan x="-0.193" y="0">7</tspan></text>
                  <text id="_6" data-name="6" transform="matrix(0.975, -0.223, 0.223, 0.975, 26.442, 59.016)" fill="#3d3d3d" font-size="1" font-family="Oswald-Regular, Oswald" letter-spacing="0.05em"><tspan x="-0.252" y="0">6</tspan></text>
                  <text id="_5" data-name="5" transform="matrix(0.975, -0.223, 0.223, 0.975, 12.204, 68.558)" fill="#3d3d3d" font-size="2" font-family="Oswald-Regular, Oswald" letter-spacing="0.05em"><tspan x="-0.476" y="0">5</tspan></text>
                  <text id="_10" data-name="10" transform="matrix(0.975, -0.223, 0.223, 0.975, 83.084, 28.913)" fill="#3d3d3d" font-size="3" font-family="Oswald-Regular, Oswald" letter-spacing="0.05em"><tspan x="-1.445" y="0">10</tspan></text>
                  <text id="_11" data-name="11" transform="matrix(0.975, -0.223, 0.223, 0.975, 97.019, 20.657)" fill="#3d3d3d" font-size="3" font-family="Oswald-Regular, Oswald" letter-spacing="0.05em"><tspan x="-1.263" y="0">11</tspan></text>
                  <text id="_15" data-name="15" transform="matrix(0.975, -0.223, 0.223, 0.975, 58.562, 62.053)" fill="#3d3d3d" font-size="3" font-family="Oswald-Regular, Oswald" letter-spacing="0.05em"><tspan x="-1.383" y="0">15</tspan></text>
                  <text id="_16" data-name="16" transform="matrix(0.975, -0.223, 0.223, 0.975, 72.496, 53.799)" fill="#3d3d3d" font-size="3" font-family="Oswald-Regular, Oswald" letter-spacing="0.05em"><tspan x="-1.424" y="0">16</tspan></text>
                  <text id="_14" data-name="14" transform="matrix(0.975, -0.223, 0.223, 0.975, 44.628, 70.308)" fill="#3d3d3d" font-size="3" font-family="Oswald-Regular, Oswald" letter-spacing="0.05em"><tspan x="-1.393" y="0">14</tspan></text>
                  <text id="_13" data-name="13" transform="matrix(0.975, -0.223, 0.223, 0.975, 30.818, 78.49)" fill="#3d3d3d" font-size="3" font-family="Oswald-Regular, Oswald" letter-spacing="0.05em"><tspan x="-1.385" y="0">13</tspan></text>
                  <text id="_12" data-name="12" transform="matrix(0.975, -0.223, 0.223, 0.975, 16.356, 87.057)" fill="#3d3d3d" font-size="3" font-family="Oswald-Regular, Oswald" letter-spacing="0.05em"><tspan x="-1.386" y="0">12</tspan></text>
                  <text id="_17" data-name="17" transform="matrix(0.975, -0.223, 0.223, 0.975, 86.43, 45.544)" fill="#3d3d3d" font-size="3" font-family="Oswald-Regular, Oswald" letter-spacing="0.05em"><tspan x="-1.248" y="0">17</tspan></text>
                  <text id="_18" data-name="18" transform="matrix(0.975, -0.223, 0.223, 0.975, 100.365, 37.289)" fill="#3d3d3d" font-size="3" font-family="Oswald-Regular, Oswald" letter-spacing="0.05em"><tspan x="-1.418" y="0">18</tspan></text>
                  <text id="_22" data-name="22" transform="matrix(0.975, -0.223, 0.223, 0.975, 60.844, 76.872)" fill="#3d3d3d" font-size="2" font-family="Oswald-Regular, Oswald" letter-spacing="0.05em"><tspan x="-1.006" y="0">22</tspan></text>
                  <text id="_23" data-name="23" transform="matrix(0.975, -0.223, 0.223, 0.975, 74.778, 68.617)" fill="#3d3d3d" font-size="2" font-family="Oswald-Regular, Oswald" letter-spacing="0.05em"><tspan x="-1.005" y="0">23</tspan></text>
                  <text id="_21" data-name="21" transform="matrix(0.975, -0.223, 0.223, 0.975, 47.973, 86.935)" fill="#3d3d3d" font-size="3" font-family="Oswald-Regular, Oswald" letter-spacing="0.05em"><tspan x="-1.386" y="0">21</tspan></text>
                  <text id="_20" data-name="20" transform="matrix(0.975, -0.223, 0.223, 0.975, 33.1, 93.308)" fill="#3d3d3d" font-size="2" font-family="Oswald-Regular, Oswald" letter-spacing="0.05em"><tspan x="-1.045" y="0">20</tspan></text>
                  <text id="_19" data-name="19" transform="matrix(0.975, -0.223, 0.223, 0.975, 19.7, 103.684)" fill="#3d3d3d" font-size="3" font-family="Oswald-Regular, Oswald" letter-spacing="0.05em"><tspan x="-1.422" y="0">19</tspan></text>
                  <text id="_29" data-name="29" transform="matrix(0.975, -0.223, 0.223, 0.975, 64.073, 92.921)" fill="#3d3d3d" font-size="2" font-family="Oswald-Regular, Oswald" letter-spacing="0.05em"><tspan x="-1.03" y="0">29</tspan></text>
                  <text id="_30" data-name="30" transform="matrix(0.975, -0.223, 0.223, 0.975, 78.007, 84.666)" fill="#3d3d3d" font-size="2" font-family="Oswald-Regular, Oswald" letter-spacing="0.05em"><tspan x="-1.044" y="0">30</tspan></text>
                  <text id="_28" data-name="28" transform="matrix(0.975, -0.223, 0.223, 0.975, 50.139, 101.175)" fill="#3d3d3d" font-size="2" font-family="Oswald-Regular, Oswald" letter-spacing="0.05em"><tspan x="-1.027" y="0">28</tspan></text>
                  <text id="_27" data-name="27" transform="matrix(0.975, -0.223, 0.223, 0.975, 37.391, 111.165)" fill="#3d3d3d" font-size="3" font-family="Oswald-Regular, Oswald" letter-spacing="0.05em"><tspan x="-1.371" y="0">27</tspan></text>
                  <text id="_26" data-name="26" transform="matrix(0.975, -0.223, 0.223, 0.975, 21.867, 117.924)" fill="#3d3d3d" font-size="2" font-family="Oswald-Regular, Oswald" letter-spacing="0.05em"><tspan x="-1.031" y="0">26</tspan></text>
                  <text id="_24" data-name="24" transform="matrix(0.975, -0.223, 0.223, 0.975, 88.712, 60.362)" fill="#3d3d3d" font-size="2" font-family="Oswald-Regular, Oswald" letter-spacing="0.05em"><tspan x="-1.011" y="0">24</tspan></text>
                  <text id="_25" data-name="25" transform="matrix(0.975, -0.223, 0.223, 0.975, 102.647, 52.107)" fill="#3d3d3d" font-size="2" font-family="Oswald-Regular, Oswald" letter-spacing="0.05em"><tspan x="-1.004" y="0">25</tspan></text>
                  <text id="JANUARY" transform="matrix(0.975, -0.223, 0.223, 0.975, 11.088, 32.202)" fill="#ff7220" font-size="5" font-family="Oswald-Medium, Oswald" font-weight="500" letter-spacing="0.05em"><tspan x="-9.537" y="0">JANUARY</tspan></text>
                </g>
              </g>
            </g>
            <path id="Path_11050" data-name="Path 11050" d="M133.29,346.349l14.943-8.6-2.751-16-32.247,18.61Z" transform="translate(-111.437 -169.828)" fill="url(#linear-gradient-12)"/>
          </g>
          <path id="Path_11051" data-name="Path 11051" d="M151.695,201.026c-.151-.251-.3-.5-.466-.74a9.981,9.981,0,0,0-3.137-3.05,4.917,4.917,0,0,0-2.383-.725,2.8,2.8,0,0,0-2.232,1.048,4.364,4.364,0,0,0-.832,2.784,10.31,10.31,0,0,0,1.486,5c.086.151.179.294.266.438l-.251-1.364.23-.136a9.192,9.192,0,0,1-1.012-3.934,3.642,3.642,0,0,1,.675-2.333,2.058,2.058,0,0,1,1.672-.782,4.117,4.117,0,0,1,2.024.631,9.132,9.132,0,0,1,2.871,2.792c.165.237.323.481.467.733a9.554,9.554,0,0,1,1.392,4.629c0,.086,0,.165-.007.244a3.5,3.5,0,0,1-.668,2.1,2.032,2.032,0,0,1-1.672.775,3.193,3.193,0,0,1-1.012-.172,3.282,3.282,0,0,0,0,.747,3.671,3.671,0,0,0,1.012.143,2.77,2.77,0,0,0,2.232-1.041,3.619,3.619,0,0,0,.725-1.658,5.722,5.722,0,0,0,.107-1.134A10.285,10.285,0,0,0,151.695,201.026Z" transform="translate(-122.286 -123.63)" fill="#bfc2ec"/>
          <path id="Path_11052" data-name="Path 11052" d="M168.447,193.827c-.151-.251-.3-.5-.467-.74a10.108,10.108,0,0,0-.861-1.112,8.878,8.878,0,0,0-2.275-1.938,4.915,4.915,0,0,0-2.383-.725,2.8,2.8,0,0,0-2.232,1.048,4.363,4.363,0,0,0-.832,2.784,8.8,8.8,0,0,0,.567,3l.624-.366a8.212,8.212,0,0,1-.474-2.634,3.641,3.641,0,0,1,.675-2.333,2.059,2.059,0,0,1,1.672-.783,4.121,4.121,0,0,1,2.025.632,8.229,8.229,0,0,1,2,1.679,9.5,9.5,0,0,1,.868,1.113c.165.237.323.481.466.732a10.362,10.362,0,0,1,1.277,3.388,6.732,6.732,0,0,1,.115,1.242c0,.086,0,.165-.007.244a3.5,3.5,0,0,1-.668,2.1,2.032,2.032,0,0,1-1.672.775,3.15,3.15,0,0,1-1-.172,1.71,1.71,0,0,0,.783.883c.072.007.151.007.222.007a2.77,2.77,0,0,0,2.232-1.041,2.551,2.551,0,0,0,.352-.553c.007-.007.014-.007.007-.014a3.694,3.694,0,0,0,.366-1.091,5.673,5.673,0,0,0,.108-1.134A10.283,10.283,0,0,0,168.447,193.827Z" transform="translate(-128.465 -120.974)" fill="#bfc2ec"/>
          <path id="Path_11053" data-name="Path 11053" d="M184.861,184.193c-.151-.251-.3-.5-.466-.74a10.252,10.252,0,0,0-.861-1.113,8.885,8.885,0,0,0-2.275-1.938,4.908,4.908,0,0,0-2.383-.725,2.8,2.8,0,0,0-2.232,1.048,4.365,4.365,0,0,0-.832,2.785,8.8,8.8,0,0,0,.567,3l.625-.366a8.218,8.218,0,0,1-.474-2.634,3.644,3.644,0,0,1,.675-2.333,2.059,2.059,0,0,1,1.672-.783,4.112,4.112,0,0,1,2.024.632,8.2,8.2,0,0,1,2,1.679,9.5,9.5,0,0,1,.868,1.113c.165.237.323.481.466.732a10.363,10.363,0,0,1,1.277,3.388,6.787,6.787,0,0,1,.115,1.242c0,.086,0,.165-.007.244a3.492,3.492,0,0,1-.668,2.1,2.031,2.031,0,0,1-1.672.776,3.15,3.15,0,0,1-1-.172,1.708,1.708,0,0,0,.783.883c.071.007.151.007.222.007a2.772,2.772,0,0,0,2.232-1.041,2.58,2.58,0,0,0,.352-.553c.008-.007.015-.007.008-.014a3.7,3.7,0,0,0,.366-1.091,5.678,5.678,0,0,0,.108-1.134A10.277,10.277,0,0,0,184.861,184.193Z" transform="translate(-134.52 -117.42)" fill="#bfc2ec"/>
          <path id="Path_11054" data-name="Path 11054" d="M201.275,174.558c-.151-.251-.3-.5-.466-.739a10.186,10.186,0,0,0-.861-1.113,8.888,8.888,0,0,0-2.275-1.938,4.909,4.909,0,0,0-2.383-.725,2.8,2.8,0,0,0-2.232,1.048,4.366,4.366,0,0,0-.832,2.785,8.8,8.8,0,0,0,.567,3l.625-.366a8.218,8.218,0,0,1-.474-2.634,3.64,3.64,0,0,1,.675-2.333,2.056,2.056,0,0,1,1.672-.783,4.112,4.112,0,0,1,2.024.632,8.189,8.189,0,0,1,2,1.679,9.318,9.318,0,0,1,.868,1.113c.165.237.323.481.467.732a10.365,10.365,0,0,1,1.277,3.388,6.787,6.787,0,0,1,.115,1.242c0,.086,0,.165-.007.244a3.493,3.493,0,0,1-.668,2.1,2.031,2.031,0,0,1-1.672.775,3.132,3.132,0,0,1-1-.172,1.7,1.7,0,0,0,.782.883,2.191,2.191,0,0,0,.223.008,2.772,2.772,0,0,0,2.232-1.041,2.6,2.6,0,0,0,.352-.553c.008-.007.015-.007.008-.015a3.693,3.693,0,0,0,.366-1.091,5.717,5.717,0,0,0,.107-1.133A10.285,10.285,0,0,0,201.275,174.558Z" transform="translate(-140.575 -113.867)" fill="#bfc2ec"/>
          <path id="Path_11055" data-name="Path 11055" d="M217.689,164.924c-.151-.251-.3-.5-.466-.739a10.189,10.189,0,0,0-.861-1.113,8.889,8.889,0,0,0-2.275-1.938,4.919,4.919,0,0,0-2.383-.725,2.8,2.8,0,0,0-2.232,1.048,4.36,4.36,0,0,0-.832,2.785,8.8,8.8,0,0,0,.567,3l.624-.366a8.209,8.209,0,0,1-.473-2.634,3.644,3.644,0,0,1,.675-2.333,2.058,2.058,0,0,1,1.672-.782,4.112,4.112,0,0,1,2.024.632,8.2,8.2,0,0,1,2,1.679,9.445,9.445,0,0,1,.868,1.113c.165.237.323.481.466.732a10.353,10.353,0,0,1,1.278,3.388,6.778,6.778,0,0,1,.115,1.241c0,.086,0,.165-.008.244a3.493,3.493,0,0,1-.667,2.1,2.033,2.033,0,0,1-1.672.775,3.133,3.133,0,0,1-1-.172,1.707,1.707,0,0,0,.782.883c.072.007.151.007.223.007a2.771,2.771,0,0,0,2.232-1.041,2.583,2.583,0,0,0,.352-.552c.007-.008.015-.008.007-.015a3.675,3.675,0,0,0,.366-1.091,5.671,5.671,0,0,0,.108-1.134A10.285,10.285,0,0,0,217.689,164.924Z" transform="translate(-146.63 -110.312)" fill="#bfc2ec"/>
          <path id="Path_11056" data-name="Path 11056" d="M234.1,155.29c-.151-.251-.3-.5-.467-.74a10.161,10.161,0,0,0-.861-1.112A8.881,8.881,0,0,0,230.5,151.5a4.915,4.915,0,0,0-2.382-.725,2.8,2.8,0,0,0-2.232,1.048,4.36,4.36,0,0,0-.833,2.784,8.8,8.8,0,0,0,.567,3l.624-.366a8.21,8.21,0,0,1-.473-2.634,3.642,3.642,0,0,1,.675-2.333,2.058,2.058,0,0,1,1.672-.782,4.117,4.117,0,0,1,2.024.631,8.218,8.218,0,0,1,2,1.68,9.445,9.445,0,0,1,.868,1.112c.165.237.323.481.466.732a10.363,10.363,0,0,1,1.278,3.388,6.79,6.79,0,0,1,.115,1.242c0,.086,0,.165-.008.244a3.5,3.5,0,0,1-.667,2.1,2.033,2.033,0,0,1-1.672.775,3.153,3.153,0,0,1-1.005-.172,1.71,1.71,0,0,0,.783.883c.072.007.151.007.223.007a2.771,2.771,0,0,0,2.232-1.041,2.571,2.571,0,0,0,.352-.553c.007-.007.015-.007.007-.014a3.675,3.675,0,0,0,.366-1.091,5.672,5.672,0,0,0,.108-1.134A10.283,10.283,0,0,0,234.1,155.29Z" transform="translate(-152.685 -106.758)" fill="#bfc2ec"/>
          <path id="Path_11057" data-name="Path 11057" d="M250.516,145.655c-.15-.251-.3-.5-.466-.739a10.175,10.175,0,0,0-.861-1.113,8.877,8.877,0,0,0-2.275-1.937,4.909,4.909,0,0,0-2.383-.725,2.8,2.8,0,0,0-2.232,1.048,4.365,4.365,0,0,0-.832,2.785,8.8,8.8,0,0,0,.567,3l.624-.366a8.218,8.218,0,0,1-.474-2.634,3.64,3.64,0,0,1,.675-2.333,2.057,2.057,0,0,1,1.672-.783,4.114,4.114,0,0,1,2.025.632,8.226,8.226,0,0,1,2,1.679,9.5,9.5,0,0,1,.868,1.113c.165.237.323.481.466.732a10.361,10.361,0,0,1,1.277,3.388,6.729,6.729,0,0,1,.115,1.242c0,.086,0,.165-.007.244a3.492,3.492,0,0,1-.668,2.1,2.031,2.031,0,0,1-1.672.776,3.15,3.15,0,0,1-1-.172,1.71,1.71,0,0,0,.783.883c.072.007.151.007.222.007a2.772,2.772,0,0,0,2.232-1.041,2.588,2.588,0,0,0,.352-.553c.007-.007.014-.007.007-.015a3.682,3.682,0,0,0,.366-1.091,5.675,5.675,0,0,0,.108-1.134A10.281,10.281,0,0,0,250.516,145.655Z" transform="translate(-158.74 -103.204)" fill="#bfc2ec"/>
          <path id="Path_11058" data-name="Path 11058" d="M266.93,136.021c-.151-.251-.3-.5-.466-.739a10.19,10.19,0,0,0-.861-1.113,8.889,8.889,0,0,0-2.275-1.938,4.907,4.907,0,0,0-2.383-.725,2.8,2.8,0,0,0-2.232,1.048,4.365,4.365,0,0,0-.832,2.785,8.8,8.8,0,0,0,.567,3l.625-.366a8.217,8.217,0,0,1-.474-2.634,3.644,3.644,0,0,1,.675-2.333,2.057,2.057,0,0,1,1.672-.783,4.112,4.112,0,0,1,2.024.632,8.19,8.19,0,0,1,2,1.679,9.389,9.389,0,0,1,.869,1.113c.165.237.322.481.466.732a10.349,10.349,0,0,1,1.277,3.388,6.782,6.782,0,0,1,.115,1.242c0,.086,0,.165-.007.244a3.493,3.493,0,0,1-.668,2.1,2.031,2.031,0,0,1-1.672.775,3.132,3.132,0,0,1-1-.172,1.7,1.7,0,0,0,.783.883,2.173,2.173,0,0,0,.222.008,2.772,2.772,0,0,0,2.232-1.041,2.579,2.579,0,0,0,.352-.553c.008-.007.014-.007.008-.015a3.692,3.692,0,0,0,.366-1.091,5.672,5.672,0,0,0,.107-1.133A10.279,10.279,0,0,0,266.93,136.021Z" transform="translate(-164.795 -99.651)" fill="#bfc2ec"/>
          <path id="Path_11059" data-name="Path 11059" d="M283.344,126.387c-.151-.251-.3-.5-.466-.739a10.193,10.193,0,0,0-.861-1.113,8.888,8.888,0,0,0-2.275-1.938,4.917,4.917,0,0,0-2.383-.725,2.8,2.8,0,0,0-2.232,1.048,4.365,4.365,0,0,0-.832,2.785,8.8,8.8,0,0,0,.567,3l.625-.367a8.21,8.21,0,0,1-.474-2.634,3.644,3.644,0,0,1,.675-2.333,2.058,2.058,0,0,1,1.672-.782,4.112,4.112,0,0,1,2.024.632,8.19,8.19,0,0,1,2,1.679,9.326,9.326,0,0,1,.868,1.113c.165.237.323.481.467.732A10.365,10.365,0,0,1,284,130.134a6.778,6.778,0,0,1,.115,1.241c0,.086,0,.165-.007.244a3.493,3.493,0,0,1-.668,2.1,2.032,2.032,0,0,1-1.672.775,3.132,3.132,0,0,1-1-.172,1.7,1.7,0,0,0,.782.883c.072.007.151.007.223.007A2.77,2.77,0,0,0,284,134.167a2.584,2.584,0,0,0,.352-.552c.008-.008.014-.008.008-.015a3.693,3.693,0,0,0,.366-1.091,5.72,5.72,0,0,0,.107-1.134A10.285,10.285,0,0,0,283.344,126.387Z" transform="translate(-170.85 -96.096)" fill="#bfc2ec"/>
          <path id="Path_11060" data-name="Path 11060" d="M299.758,116.753c-.151-.251-.3-.5-.466-.74a10.24,10.24,0,0,0-.861-1.112,8.888,8.888,0,0,0-2.275-1.938,4.912,4.912,0,0,0-2.383-.725,2.8,2.8,0,0,0-2.232,1.048,4.36,4.36,0,0,0-.832,2.784,8.8,8.8,0,0,0,.567,3l.624-.366a8.211,8.211,0,0,1-.473-2.634,3.642,3.642,0,0,1,.675-2.333,2.057,2.057,0,0,1,1.672-.782,4.11,4.11,0,0,1,2.024.631,8.217,8.217,0,0,1,2,1.68,9.445,9.445,0,0,1,.868,1.112c.165.237.323.481.466.732a10.362,10.362,0,0,1,1.278,3.388,6.773,6.773,0,0,1,.115,1.241c0,.086,0,.165-.008.244a3.5,3.5,0,0,1-.667,2.1,2.033,2.033,0,0,1-1.672.775,3.15,3.15,0,0,1-1-.172,1.707,1.707,0,0,0,.782.883c.072.007.151.007.223.007a2.771,2.771,0,0,0,2.232-1.041,2.572,2.572,0,0,0,.352-.553c.007-.007.014-.007.007-.014a3.674,3.674,0,0,0,.366-1.091,5.671,5.671,0,0,0,.108-1.134A10.285,10.285,0,0,0,299.758,116.753Z" transform="translate(-176.905 -92.542)" fill="#bfc2ec"/>
          <path id="Path_11061" data-name="Path 11061" d="M316.171,107.119c-.151-.251-.3-.5-.467-.74a10.169,10.169,0,0,0-.861-1.113,8.878,8.878,0,0,0-2.276-1.937,4.908,4.908,0,0,0-2.382-.725,2.8,2.8,0,0,0-2.232,1.048,4.362,4.362,0,0,0-.833,2.785,8.8,8.8,0,0,0,.567,3l.624-.366a8.216,8.216,0,0,1-.473-2.634,3.64,3.64,0,0,1,.675-2.333,2.058,2.058,0,0,1,1.672-.783,4.112,4.112,0,0,1,2.024.632,8.214,8.214,0,0,1,2,1.679,9.5,9.5,0,0,1,.868,1.113c.165.237.323.481.466.732a10.363,10.363,0,0,1,1.278,3.388,6.785,6.785,0,0,1,.115,1.242c0,.086,0,.165-.008.244a3.5,3.5,0,0,1-.667,2.1,2.033,2.033,0,0,1-1.672.776,3.154,3.154,0,0,1-1.005-.172,1.713,1.713,0,0,0,.783.883c.072.007.151.007.223.007a2.772,2.772,0,0,0,2.232-1.041,2.588,2.588,0,0,0,.352-.553c.007-.007.015-.007.007-.015a3.664,3.664,0,0,0,.366-1.091,5.675,5.675,0,0,0,.108-1.134A10.283,10.283,0,0,0,316.171,107.119Z" transform="translate(-182.959 -88.988)" fill="#bfc2ec"/>
          <path id="Path_11062" data-name="Path 11062" d="M332.585,97.484c-.15-.251-.3-.5-.466-.739a10.187,10.187,0,0,0-.861-1.113,8.889,8.889,0,0,0-2.275-1.938,4.907,4.907,0,0,0-2.383-.725,2.8,2.8,0,0,0-2.232,1.048,4.365,4.365,0,0,0-.832,2.785,8.8,8.8,0,0,0,.567,3l.624-.366a8.218,8.218,0,0,1-.474-2.634,3.644,3.644,0,0,1,.675-2.333,2.057,2.057,0,0,1,1.672-.783,4.113,4.113,0,0,1,2.025.632,8.212,8.212,0,0,1,2,1.679,9.449,9.449,0,0,1,.868,1.113c.165.237.323.481.466.732a10.356,10.356,0,0,1,1.277,3.388,6.729,6.729,0,0,1,.115,1.242c0,.086,0,.165-.007.244a3.494,3.494,0,0,1-.668,2.1,2.031,2.031,0,0,1-1.672.775,3.132,3.132,0,0,1-1-.172,1.705,1.705,0,0,0,.783.883,2.188,2.188,0,0,0,.222.008,2.772,2.772,0,0,0,2.232-1.041,2.6,2.6,0,0,0,.352-.553c.007-.007.014-.007.007-.015a3.693,3.693,0,0,0,.366-1.091,5.671,5.671,0,0,0,.108-1.133A10.281,10.281,0,0,0,332.585,97.484Z" transform="translate(-189.014 -85.435)" fill="#bfc2ec"/>
          <path id="Path_11063" data-name="Path 11063" d="M349,87.85c-.151-.251-.3-.5-.466-.739A10.182,10.182,0,0,0,347.671,86a8.888,8.888,0,0,0-2.275-1.938,4.907,4.907,0,0,0-2.383-.725,2.8,2.8,0,0,0-2.232,1.048,4.365,4.365,0,0,0-.832,2.785,8.8,8.8,0,0,0,.567,3l.625-.366a8.217,8.217,0,0,1-.474-2.634,3.647,3.647,0,0,1,.675-2.333,2.057,2.057,0,0,1,1.672-.782,4.112,4.112,0,0,1,2.024.632,8.188,8.188,0,0,1,2,1.679,9.385,9.385,0,0,1,.869,1.113c.165.237.323.481.466.732a10.351,10.351,0,0,1,1.277,3.388,6.778,6.778,0,0,1,.115,1.241c0,.086,0,.165-.007.244a3.493,3.493,0,0,1-.668,2.1,2.032,2.032,0,0,1-1.672.775,3.15,3.15,0,0,1-1-.172,1.7,1.7,0,0,0,.783.883c.071.007.15.007.222.007a2.77,2.77,0,0,0,2.232-1.041,2.56,2.56,0,0,0,.352-.552c.008-.008.014-.008.008-.015a3.693,3.693,0,0,0,.366-1.091,5.672,5.672,0,0,0,.107-1.134A10.279,10.279,0,0,0,349,87.85Z" transform="translate(-195.069 -81.881)" fill="#bfc2ec"/>
        </g>
        <g id="Group_11182" data-name="Group 11182" transform="translate(129.529 60.591)">
          <path id="Path_11064" data-name="Path 11064" d="M366.2,324.068l30.784,9.946,4.845-7.267L365.1,318.685Z" transform="translate(-333.875 -229.29)" fill-rule="evenodd" fill="url(#linear-gradient-13)"/>
          <path id="Path_11065" data-name="Path 11065" d="M334.388,333.605l39,24.016a66.218,66.218,0,0,0,10.853-9.231L341.674,329.4Z" transform="translate(-322.547 -233.242)" fill-rule="evenodd" fill="url(#linear-gradient-14)"/>
          <g id="Group_11181" data-name="Group 11181">
            <path id="Path_11066" data-name="Path 11066" d="M325.844,189.2s-1.039-1.119-1.542-1.568a9.348,9.348,0,0,1-1.7-2.89.569.569,0,0,0-.105-.161.58.58,0,0,0-.256-.118,1.682,1.682,0,0,0-1.048.04,3.729,3.729,0,0,0-.919.264.674.674,0,0,1-.285.126.529.529,0,0,1-.232-.059,19.7,19.7,0,0,0-4.108-1.551.706.706,0,0,0,.178.653,2.2,2.2,0,0,0,.567.417,8.9,8.9,0,0,1,2.529,1.763,1.786,1.786,0,0,0-.235.9,1.971,1.971,0,0,0,.338.858,5.126,5.126,0,0,0,.8.937,3.65,3.65,0,0,0,1.463.556,8.339,8.339,0,0,1,1.274.588c.617.322,1.224.666,1.82,1.027Z" transform="translate(-315.626 -179.34)" fill="url(#linear-gradient-15)"/>
            <path id="Path_11067" data-name="Path 11067" d="M353.765,198.851a3.227,3.227,0,0,0-.842-.431,12.178,12.178,0,0,0-3.937-.374q-1.876-.024-3.753-.038-2.162-.018-4.325-.029l-11.327-7.766c-2.57,1.441-2.75,3.26-2.75,3.26s8.613,6.837,10.273,8.184c1.182.959,3.181,1.084,4.618,1.342q2.927.525,5.872.943c2.189.31,5.907.909,6.675-1.835a3.6,3.6,0,0,0,0-2.694A1.792,1.792,0,0,0,353.765,198.851Z" transform="translate(-319.76 -181.898)" fill="url(#linear-gradient-16)"/>
            <path id="Path_11068" data-name="Path 11068" d="M334.406,211.4c.069.061-1.207-1.351-1.276-1.414l-9.409-8.586c3.494-3.029,4.389-3.166,6.9-4.709,3.233,3.21,6.866,6.95,10.056,10.2Z" transform="translate(-318.612 -184.287)" fill="#ff7220"/>
            <path id="Path_11069" data-name="Path 11069" d="M327.586,200.8l6.315-3.065,7.017,8.322-6.061,3.045Z" transform="translate(-320.038 -184.673)" fill="#fff"/>
            <g id="Group_11180" data-name="Group 11180" transform="translate(10.079)">
              <g id="Group_11179" data-name="Group 11179" transform="translate(10.847)">
                <path id="Path_11070" data-name="Path 11070" d="M353.2,198.545c-.228.091-.4.185-.4.266a9.867,9.867,0,0,1,1.491,1.436,9.883,9.883,0,0,1,.5,1.537,17.33,17.33,0,0,0,5.3-1.256,7.989,7.989,0,0,1-.438-2.184,13.526,13.526,0,0,0,.024-1.968l-.081.028-3.216,1.091-2,.679C354.26,198.218,353.627,198.376,353.2,198.545Z" transform="translate(-350.268 -184.171)" fill-rule="evenodd" fill="url(#linear-gradient-17)"/>
                <path id="Path_11071" data-name="Path 11071" d="M351.059,182.342c-.851,1.036-.847,2.47-1.058,3.73a5.816,5.816,0,0,1-.438,1.642c-.239.481-.931.823-.747,1.46a1.886,1.886,0,0,0,.384.577c.877,1.135.542,2.841,2.149,3.407a2.326,2.326,0,0,0,2.5-.69,3.808,3.808,0,0,0,3.557-.271,9.357,9.357,0,0,0,3.154-3.548,10.193,10.193,0,0,0,.811-2.284,4.424,4.424,0,0,0-.29-2.46C359.653,180.051,353.653,179.183,351.059,182.342Z" transform="translate(-348.784 -178.283)" fill-rule="evenodd" fill="url(#linear-gradient-18)"/>
                <path id="Path_11072" data-name="Path 11072" d="M352.718,182.423a3.687,3.687,0,0,1-.066.776c-.081.861.856,1.239.932,2.095.05.539-.932,2.734,0,2.9.116-.478.166-1.1.836-1.118.7-.02.786.791.675,1.315-.136.629-.715,1.208-.7,1.838a.949.949,0,0,0,.1.377,2.3,2.3,0,0,0,1.959,1.315,4.314,4.314,0,0,0,2.417-.69,9.045,9.045,0,0,0,3.455-3.59,15.525,15.525,0,0,0,1.586-2.971c.312-1.219-.569-1.748-.8-2.639a1.707,1.707,0,0,1-.045-.328,4.689,4.689,0,0,0-.105-.991,3.774,3.774,0,0,0-.252-.7,3.631,3.631,0,0,0-.725-1.017,7.763,7.763,0,0,0-8.187-1.269,2.986,2.986,0,0,0-1.546,3.631A3.874,3.874,0,0,1,352.718,182.423Z" transform="translate(-349.992 -177.037)" fill="#3a367e" fill-rule="evenodd"/>
                <path id="Path_11073" data-name="Path 11073" d="M351.269,189.9c-.126.4.291.642.433.218C351.808,189.808,351.394,189.511,351.269,189.9Z" transform="translate(-349.692 -181.714)" fill="#00378d" fill-rule="evenodd"/>
              </g>
              <path id="Path_11074" data-name="Path 11074" d="M344.513,335.193v.659a3.64,3.64,0,0,1-3.319.149c-2.724-1.481-5.844.723-8.4-1.306a3,3,0,0,1-1.187-2.326C334.843,333.174,344.513,335.193,344.513,335.193Z" transform="translate(-331.597 -234.337)" fill="#3a367e" fill-rule="evenodd"/>
              <path id="Path_11075" data-name="Path 11075" d="M349.774,333.9c.712-.794,0-4.652,0-4.652l-3.915-.382c.764,1.807,1.347,3.613,1.953,5.42A2.681,2.681,0,0,0,349.774,333.9Z" transform="translate(-336.858 -233.046)" fill="#3a367e" fill-rule="evenodd"/>
              <path id="Path_11076" data-name="Path 11076" d="M340.609,328.825l-.731-.071a45.4,45.4,0,0,1-4.731,1.18c-.978.151-2.554-.577-3.275.446-.9,1.278.9,2.851,1.895,3.231,1.549.589,4.731-.091,5.9.181a18.351,18.351,0,0,0,2.893.453C341.955,332.438,341.372,330.632,340.609,328.825Z" transform="translate(-331.608 -233.004)" fill-rule="evenodd" fill="url(#linear-gradient-19)"/>
              <path id="Path_11077" data-name="Path 11077" d="M361.845,321.813c1.652,1.59,2.93-.415,2.824-2.151a4.452,4.452,0,0,0-.587-2.351c-.507-.7-1.451-1.1-1.6-1.981-1.2-.379-7.788-3.31-7.311.259.251,1.883,3.017,2.706,4.918,4.537Z" transform="translate(-340.286 -227.502)" fill-rule="evenodd" fill="url(#linear-gradient-20)"/>
              <path id="Path_11078" data-name="Path 11078" d="M361.992,321.943l-1.753-1.688c-1.9-1.831-4.667-2.654-4.918-4.538h0v-.009h0v0h0a2.249,2.249,0,0,0,0,.637c.251,1.883,3.017,2.706,4.918,4.537l1.358,1.339c1.486,1.431,3.45.759,3.109-1.36a1.54,1.54,0,0,1-2.714,1.1" transform="translate(-340.34 -228.186)" fill-rule="evenodd" fill="url(#linear-gradient-9)"/>
              <path id="Path_11079" data-name="Path 11079" d="M355.3,267.492c.831,7.26,2.095,15.629,3.983,24.985.463,2.286,1.53,3.328,2.628,3.686,1.546.509,3.147-.348,3.188-1.012.4-6.244-1.3-18.182-2.155-24.768-.287-7.472,3.948-18.283,2.11-21.1l-9.31-2.84-.176,8.428Z" transform="translate(-340.34 -202.639)" fill-rule="evenodd" fill="url(#linear-gradient-22)"/>
              <path id="Path_11080" data-name="Path 11080" d="M355.721,254.867c.276.771.483,1.264.483,1.264s3.233,22.488,3.978,25.318c.629,2.391,1.6,11.823,1.883,14.713,1.546.509,3.147-.348,3.188-1.012.4-6.244-1.3-18.182-2.155-24.768-.287-7.472,3.948-18.283,2.11-21.1l-9.31-2.84Z" transform="translate(-340.496 -202.639)" fill="#3a367e" fill-rule="evenodd"/>
              <path id="Path_11081" data-name="Path 11081" d="M342.546,296.642a2.444,2.444,0,0,0,2.825,2.629,9.617,9.617,0,0,0,3.379-.967c.02-7.881.75-16.738.357-24.023-.362-6.718,4.854-16.743,4.914-25.237.01-.433,0-.856-.025-1.279l-10.589-1.813c-.222,1.692-.418,3.3-.6,4.849C339.958,275.071,341.726,282.125,342.546,296.642Z" transform="translate(-335.157 -202.459)" fill-rule="evenodd" fill="url(#linear-gradient-23)"/>
              <path id="Path_11082" data-name="Path 11082" d="M345.808,276.188c-.066,2.115.378,21.012.473,24.89a9.617,9.617,0,0,0,3.379-.967c.02-7.881.75-16.738.357-24.023-.362-6.717,4.854-16.743,4.914-25.237l-11.219,1.757,4.189,5.982S345.888,273.827,345.808,276.188Z" transform="translate(-336.066 -204.266)" fill="#3a367e" fill-rule="evenodd"/>
              <path id="Path_11083" data-name="Path 11083" d="M344.158,235.45l1.193.635a22.988,22.988,0,0,0,2.759,1.128c4.028,1.359,8.721,1.717,10.791-.942.544-.473,2.523-2.341,2.523-2.341-.458-3.293-2.538-11.354-2.507-11.657a31.348,31.348,0,0,1,1.284-5.509c.589-2.059,1.691-3.877,2.256-5.946a8.291,8.291,0,0,0,.126-4.3,5.946,5.946,0,0,0-6.073-4.6,11.621,11.621,0,0,0-4.215,1.012,17.8,17.8,0,0,0-3.917,2.271,8.984,8.984,0,0,0-2.432,2.654,11.22,11.22,0,0,0-1.007,2.356,23.893,23.893,0,0,0-.735,6.566c-.105,2.357.1,4.421.161,6.8-1.248,4.336-2.829,6.405-3.111,8.832C341.157,233.255,342.345,234.4,344.158,235.45Z" transform="translate(-335.157 -186.218)" fill-rule="evenodd" fill="url(#linear-gradient-24)"/>
              <path id="Path_11084" data-name="Path 11084" d="M353.893,227.359l-3.036,9.854c4.028,1.359,8.721,1.717,10.791-.942.544-.473,2.523-2.341,2.523-2.341-.458-3.293-2.538-11.354-2.507-11.657a31.351,31.351,0,0,1,1.284-5.509c.589-2.059,1.691-3.877,2.256-5.946a8.291,8.291,0,0,0,.126-4.3,5.946,5.946,0,0,0-6.073-4.6,11.621,11.621,0,0,0-4.215,1.012,17.8,17.8,0,0,0-3.917,2.271,8.984,8.984,0,0,0-2.432,2.654c1.047,2.487.059,5.926.059,5.926s4.956,3.847,5.142,6.3S353.893,227.359,353.893,227.359Z" transform="translate(-337.903 -186.218)" fill="#3a367e" fill-rule="evenodd"/>
              <path id="Path_11085" data-name="Path 11085" d="M353.18,203.866a17.255,17.255,0,0,1,4.213-1.713,37.271,37.271,0,0,1,4.214-.927,1.681,1.681,0,0,0-1.517-1.31,3.41,3.41,0,0,0-.956.157,27.807,27.807,0,0,0-3.691,1.282A3.732,3.732,0,0,0,353.18,203.866Z" transform="translate(-339.559 -185.477)" fill-rule="evenodd" fill="url(#linear-gradient-25)"/>
            </g>
            <path id="Path_11086" data-name="Path 11086" d="M346.689,217.476c-.029.015-11.513,7.917-12,7.845a4.353,4.353,0,0,1-3.445-2.053c-1-1.543-.955-2.5-.768-4.328.064-.624.129-1.256.158-1.881.015-.322.015-.646.008-.961a1.6,1.6,0,0,1,.861-1.572,4.444,4.444,0,0,1,2.347-.359,2.2,2.2,0,0,1,.3.021.5.5,0,0,1,.3.1.574.574,0,0,1,.129.309c.187.926.323,1.895.589,2.8.725-.215.926-.7,1.371-1.234a27.521,27.521,0,0,1,2.139-2.053c1.479-1.378,3.245-4.134,5.269-4.6C347.866,208.611,349.667,215.43,346.689,217.476Z" transform="translate(-321.064 -188.986)" fill="url(#linear-gradient-26)"/>
            <path id="Path_11087" data-name="Path 11087" d="M334.542,212.054a5.721,5.721,0,0,0-.506,1.693c-.021.244.007.5-.014.747a4.444,4.444,0,0,0-2.347.359,9.688,9.688,0,0,1-.783-4.28c.495.423,1.515,1.409,2,1.832.116.1,1.24-1.8,1.4-1.941.131-.112.326-.211.463-.109a.382.382,0,0,1,.112.307A3.662,3.662,0,0,1,334.542,212.054Z" transform="translate(-321.237 -189.312)" fill="url(#linear-gradient-27)"/>
          </g>
          <path id="Path_11088" data-name="Path 11088" d="M355.768,192.526a.948.948,0,0,0,.1.377,2.3,2.3,0,0,0,1.959,1.315,4.314,4.314,0,0,0,2.417-.69,9.045,9.045,0,0,0,3.455-3.59,15.527,15.527,0,0,0,1.586-2.971c.312-1.219-.569-1.748-.8-2.639a4.637,4.637,0,0,1-.538,1.51,2.835,2.835,0,0,0-.635-2.558c.594,1.133-.151,2.543-1.148,3.344-.786.639-2.281,1.077-2.81,1.944a9.867,9.867,0,0,0-.594,1.5A4.284,4.284,0,0,1,355.768,192.526Z" transform="translate(-330.434 -179.34)" fill="#3a367e" fill-rule="evenodd"/>
        </g>
      </g>
    </g>
  </g>
</svg>
