<svg xmlns="http://www.w3.org/2000/svg" xmlns:xlink="http://www.w3.org/1999/xlink" width="330" height="295" viewBox="0 0 330 295">
  <defs>
    <clipPath id="clip-path">
      <rect id="Rectangle_2924" data-name="Rectangle 2924" width="330" height="295" fill="#fff"/>
    </clipPath>
    <linearGradient id="linear-gradient" y1="0.5" x2="1" y2="0.5" gradientUnits="objectBoundingBox">
      <stop offset="0" stop-color="#8b8bff"/>
      <stop offset="0.617" stop-color="#b4b4ff"/>
    </linearGradient>
    <linearGradient id="linear-gradient-3" x1="-0.529" y1="0.5" x2="1" y2="0.5" gradientUnits="objectBoundingBox">
      <stop offset="0" stop-color="#fff"/>
      <stop offset="1" stop-color="#ccceee"/>
    </linearGradient>
    <linearGradient id="linear-gradient-5" x1="-0.219" y1="0.5" x2="1" y2="0.5" xlink:href="#linear-gradient-3"/>
    <linearGradient id="linear-gradient-6" x1="-1.205" y1="0.095" x2="-0.258" y2="0.095" gradientUnits="objectBoundingBox">
      <stop offset="0" stop-color="#7c76f3"/>
      <stop offset="1" stop-color="#594dc2"/>
    </linearGradient>
    <linearGradient id="linear-gradient-80" x1="3.934" y1="0.5" x2="-0.091" y2="0.5" xlink:href="#linear-gradient-3"/>
    <linearGradient id="linear-gradient-83" x1="-0.547" y1="0.5" x2="0.404" y2="0.5" xlink:href="#linear-gradient-3"/>
    <linearGradient id="linear-gradient-84" x1="-0.339" y1="0.5" x2="2.077" y2="0.5" xlink:href="#linear-gradient-3"/>
    <linearGradient id="linear-gradient-85" x1="-0.219" y1="0.5" x2="1.119" y2="0.5" gradientUnits="objectBoundingBox">
      <stop offset="0" stop-color="#fff"/>
      <stop offset="0" stop-color="#fefeff"/>
      <stop offset="1" stop-color="#ccceee"/>
    </linearGradient>
    <linearGradient id="linear-gradient-86" x1="1.33" y1="0.5" x2="0.203" y2="0.5" xlink:href="#linear-gradient-3"/>
  </defs>
  <g id="devops-management-3" clip-path="url(#clip-path)">
    <g id="Group_11267" data-name="Group 11267" transform="translate(-90.178 -77.152)">
      <path id="Path_11198" data-name="Path 11198" d="M154.091,358.584l46.161-26.322c1.689-.974,1.477-2.677-.473-3.8l-26.56-15.335a7.321,7.321,0,0,0-6.586-.273l-46.161,26.322c-1.688.974-1.477,2.677.473,3.8l26.56,15.335A7.323,7.323,0,0,0,154.091,358.584Z" transform="translate(0 -39.64)" fill="url(#linear-gradient)"/>
      <g id="Group_11237" data-name="Group 11237" transform="translate(191.958 114.884)">
        <path id="Path_11199" data-name="Path 11199" d="M308.242,340.424l-91.6-52.883c-2.591-1.5-2.266-4.109.726-5.837l62.37-36c2.992-1.728,7.518-1.915,10.109-.419l91.6,52.883c2.591,1.5,2.266,4.109-.726,5.836l-62.37,36C315.36,341.732,310.834,341.92,308.242,340.424Z" transform="translate(-211.158 -140.88)" fill="url(#linear-gradient)"/>
        <path id="Path_11200" data-name="Path 11200" d="M426.954,170.708l-95.666-55.233a3.86,3.86,0,0,0-3.242-.4l.006-.01-.174.066-.042.016-3.457,1.323,3.1,1.519c-.014.058-.032.11-.045.169l-15.582,70.931c-.78,3.55.782,7.694,3.488,9.257l93.366,53.9-.333,3.956,3.779-1.464a5.311,5.311,0,0,0,2.706-3.849l15.582-70.93C431.222,176.415,429.661,172.271,426.954,170.708Z" transform="translate(-230.596 -114.884)" fill="#173d7a"/>
        <path id="Path_11201" data-name="Path 11201" d="M428.34,170.708l-95.666-55.233a3.86,3.86,0,0,0-3.242-.4l.006-.01-.174.066-.042.016-3.457,1.323,3.1,1.519c-.014.058-.032.11-.045.169l-10.27,46.748,46.809,36.468,66-26.856A7.429,7.429,0,0,0,428.34,170.708Z" transform="translate(-231.982 -114.884)" fill="#396caa"/>
        <path id="Path_11202" data-name="Path 11202" d="M449.619,195.775l7.282-3.1a9.124,9.124,0,0,0-2.95-7.293l-11.527,4.849Z" transform="translate(-256.868 -129.047)" fill="#274f89"/>
        <path id="Path_11203" data-name="Path 11203" d="M403.554,256.168l-95.666-55.233c-2.707-1.562-4.268-5.707-3.488-9.257l15.582-70.93c.78-3.55,3.606-5.161,6.312-3.6l95.666,55.233c2.707,1.562,4.268,5.707,3.488,9.257l-15.582,70.93C409.086,256.12,406.261,257.73,403.554,256.168Z" transform="translate(-229.098 -115.219)" fill="url(#linear-gradient-3)"/>
        <path id="Path_11204" data-name="Path 11204" d="M427.718,171.964l-95.666-55.232a3.78,3.78,0,0,0-3.767-.164,3.928,3.928,0,0,1,2.848.5L426.8,172.3c2.707,1.562,4.268,5.707,3.488,9.257l-15.582,70.93a5.388,5.388,0,0,1-2.545,3.761c1.615-.352,2.963-1.817,3.464-4.1l15.582-70.93C431.986,177.671,430.424,173.527,427.718,171.964Z" transform="translate(-233.937 -115.137)" fill="#fff"/>
        <path id="Path_11205" data-name="Path 11205" d="M402.469,252.2,312.5,200.28c-2.476-1.43-3.905-5.222-3.192-8.47L323.564,126.9c.714-3.248,3.3-4.723,5.777-3.292l89.972,51.92c2.476,1.43,3.905,5.222,3.192,8.47l-14.259,64.908C407.532,252.156,404.946,253.63,402.469,252.2Z" transform="translate(-230.087 -116.527)" fill="#fff"/>
        <path id="Path_11206" data-name="Path 11206" d="M402.469,252.2,312.5,200.28c-2.476-1.43-3.905-5.222-3.192-8.47L323.564,126.9c.714-3.248,3.3-4.723,5.777-3.292l89.972,51.92c2.476,1.43,3.905,5.222,3.192,8.47l-14.259,64.908C407.532,252.156,404.946,253.63,402.469,252.2Z" transform="translate(-230.087 -116.527)" fill="url(#linear-gradient)"/>
        <path id="Path_11207" data-name="Path 11207" d="M403.253,251.907l-89.972-51.92c-2.476-1.43-3.906-5.222-3.192-8.47l14.259-64.908a4.98,4.98,0,0,1,2.268-3.417,4.581,4.581,0,0,0-3.052,3.736L309.3,191.835c-.714,3.248.715,7.041,3.192,8.47l89.973,51.921a3.458,3.458,0,0,0,3.509.124A3.588,3.588,0,0,1,403.253,251.907Z" transform="translate(-230.087 -116.553)" fill="#5793ce"/>
        <path id="Path_11208" data-name="Path 11208" d="M385.995,281.327,372.918,279.6,288.5,230.864c-2.706-1.562-7.433-1.366-10.558.437L218.13,265.824l-7.908-1.044v4.487h.008a3.079,3.079,0,0,0,1.816,2.771l95.666,55.233c2.706,1.563,7.433,1.366,10.559-.437l65.142-37.6c1.758-1.015,2.634-2.322,2.583-3.55h0Z" transform="translate(-210.218 -137.973)" fill="#173d7a"/>
        <path id="Path_11209" data-name="Path 11209" d="M322.569,254.87l-6-3.462H250.636L218.13,270.163l-7.908-1.044v4.487h.008a3.079,3.079,0,0,0,1.816,2.771l95.666,55.233a9.893,9.893,0,0,0,5.449,1.021Z" transform="translate(-210.218 -142.312)" fill="#396caa"/>
        <path id="Path_11210" data-name="Path 11210" d="M213.732,274.034l-3.51-.463v4.487h.008a3.079,3.079,0,0,0,1.816,2.771l1.686.973Z" transform="translate(-210.218 -146.765)" fill="#5793ce"/>
        <path id="Path_11211" data-name="Path 11211" d="M333.427,349.678a12.249,12.249,0,0,0,8.971-.557V339.114h-8.971Z" transform="translate(-234.971 -159.932)" fill="#274f89"/>
        <path id="Path_11212" data-name="Path 11212" d="M307.711,320.92l-95.666-55.233c-2.707-1.562-2.367-4.292.758-6.1l65.142-37.6c3.125-1.8,7.853-2,10.559-.437l95.666,55.233c2.707,1.562,2.367,4.292-.758,6.1l-65.142,37.6C315.144,322.286,310.417,322.483,307.711,320.92Z" transform="translate(-210.217 -136.103)" fill="url(#linear-gradient-5)"/>
        <path id="Path_11213" data-name="Path 11213" d="M383.413,291.732l-65.142,37.6c-3.125,1.8-7.853,2-10.559.438l-95.666-55.234a3.559,3.559,0,0,1-1.683-1.84c-.423,1.28.117,2.575,1.683,3.479l95.666,55.233c2.706,1.563,7.433,1.366,10.559-.437l65.142-37.6c2.1-1.212,2.936-2.842,2.44-4.255A5.088,5.088,0,0,1,383.413,291.732Z" transform="translate(-210.219 -146.588)" fill="#fff"/>
        <g id="Group_11234" data-name="Group 11234" transform="translate(37.952 87.8)">
          <path id="Path_11214" data-name="Path 11214" d="M262.275,252.55l-4.329-2.5c-.348-.2-.3-.551.1-.782l5.109-2.95a1.507,1.507,0,0,1,1.356-.056l4.329,2.5c.348.2.3.551-.1.783l-5.109,2.949A1.506,1.506,0,0,1,262.275,252.55Z" transform="translate(-257.711 -229.051)" fill="url(#linear-gradient-6)"/>
          <path id="Path_11215" data-name="Path 11215" d="M270.64,257.379l-4.329-2.5c-.348-.2-.3-.551.1-.783l5.109-2.949a1.508,1.508,0,0,1,1.356-.057l4.329,2.5c.348.2.3.551-.1.782l-5.109,2.95A1.506,1.506,0,0,1,270.64,257.379Z" transform="translate(-259.392 -230.021)" fill="url(#linear-gradient-6)"/>
          <path id="Path_11216" data-name="Path 11216" d="M279,262.209l-4.329-2.5c-.348-.2-.3-.551.1-.782l5.109-2.95a1.507,1.507,0,0,1,1.356-.056l4.329,2.5c.348.2.3.551-.1.783l-5.109,2.949A1.508,1.508,0,0,1,279,262.209Z" transform="translate(-261.072 -230.992)" fill="url(#linear-gradient-6)"/>
          <path id="Path_11217" data-name="Path 11217" d="M290.574,258.339l-4.329-2.5c-.348-.2-.3-.551.1-.783l4.289-2.476a1.508,1.508,0,0,1,1.356-.057l4.329,2.5c.348.2.3.551-.1.782l-4.289,2.476A1.508,1.508,0,0,1,290.574,258.339Z" transform="translate(-263.397 -230.31)" fill="url(#linear-gradient-6)"/>
          <path id="Path_11218" data-name="Path 11218" d="M298.939,263.169l-4.329-2.5c-.347-.2-.3-.551.1-.783L299,257.411a1.507,1.507,0,0,1,1.356-.056l4.329,2.5c.348.2.3.551-.1.783l-4.289,2.476A1.508,1.508,0,0,1,298.939,263.169Z" transform="translate(-265.077 -231.28)" fill="url(#linear-gradient-6)"/>
          <path id="Path_11219" data-name="Path 11219" d="M307.3,268l-4.328-2.5c-.348-.2-.3-.551.1-.783l4.289-2.476a1.508,1.508,0,0,1,1.356-.057l4.329,2.5c.348.2.3.551-.1.782l-4.289,2.476A1.505,1.505,0,0,1,307.3,268Z" transform="translate(-266.758 -232.25)" fill="url(#linear-gradient-6)"/>
          <path id="Path_11220" data-name="Path 11220" d="M315.669,272.828l-4.328-2.5c-.348-.2-.3-.551.1-.783l4.29-2.476a1.506,1.506,0,0,1,1.355-.056l4.329,2.5c.348.2.3.551-.1.783l-4.289,2.476A1.507,1.507,0,0,1,315.669,272.828Z" transform="translate(-268.438 -233.22)" fill="url(#linear-gradient-6)"/>
          <path id="Path_11221" data-name="Path 11221" d="M324.035,277.658l-4.329-2.5c-.348-.2-.3-.551.1-.782l4.289-2.476a1.506,1.506,0,0,1,1.355-.056l4.329,2.5c.348.2.3.551-.1.783L325.39,277.6A1.506,1.506,0,0,1,324.035,277.658Z" transform="translate(-270.119 -234.191)" fill="url(#linear-gradient-6)"/>
          <path id="Path_11222" data-name="Path 11222" d="M332.4,282.487l-4.329-2.5c-.348-.2-.3-.551.1-.783l4.289-2.476a1.508,1.508,0,0,1,1.356-.057l4.328,2.5c.348.2.3.551-.1.782l-4.29,2.476A1.506,1.506,0,0,1,332.4,282.487Z" transform="translate(-271.799 -235.161)" fill="url(#linear-gradient-6)"/>
          <path id="Path_11223" data-name="Path 11223" d="M340.765,287.317l-4.329-2.5c-.348-.2-.3-.551.1-.783l4.289-2.476a1.508,1.508,0,0,1,1.356-.056l4.328,2.5c.348.2.3.551-.1.783l-4.289,2.476A1.51,1.51,0,0,1,340.765,287.317Z" transform="translate(-273.48 -236.131)" fill="url(#linear-gradient-6)"/>
          <path id="Path_11224" data-name="Path 11224" d="M349.13,292.146l-4.329-2.5c-.348-.2-.3-.551.1-.783l4.289-2.476a1.507,1.507,0,0,1,1.356-.057l4.329,2.5c.347.2.3.551-.1.782l-4.289,2.476A1.5,1.5,0,0,1,349.13,292.146Z" transform="translate(-275.161 -237.101)" fill="url(#linear-gradient-6)"/>
          <path id="Path_11225" data-name="Path 11225" d="M357.495,296.976l-4.329-2.5c-.348-.2-.3-.551.1-.783l4.289-2.476a1.508,1.508,0,0,1,1.356-.056l4.329,2.5c.348.2.3.551-.1.783l-4.289,2.476A1.508,1.508,0,0,1,357.495,296.976Z" transform="translate(-276.841 -238.072)" fill="url(#linear-gradient-6)"/>
          <path id="Path_11226" data-name="Path 11226" d="M365.86,301.806l-4.329-2.5c-.348-.2-.3-.551.1-.782l4.289-2.476a1.507,1.507,0,0,1,1.356-.056l4.329,2.5c.348.2.3.551-.1.783l-4.289,2.476A1.508,1.508,0,0,1,365.86,301.806Z" transform="translate(-278.522 -239.042)" fill="url(#linear-gradient-6)"/>
          <path id="Path_11227" data-name="Path 11227" d="M302.9,256.053l-4.329-2.5c-.348-.2-.3-.551.1-.782l4.289-2.476a1.507,1.507,0,0,1,1.356-.056l4.328,2.5c.348.2.3.551-.1.783L304.255,256A1.506,1.506,0,0,1,302.9,256.053Z" transform="translate(-265.873 -229.85)" fill="url(#linear-gradient-6)"/>
          <path id="Path_11228" data-name="Path 11228" d="M294.41,251.151l-4.329-2.5c-.348-.2-.3-.551.1-.783l4.289-2.476a1.507,1.507,0,0,1,1.356-.056l4.328,2.5c.348.2.3.551-.1.783l-4.29,2.476A1.506,1.506,0,0,1,294.41,251.151Z" transform="translate(-264.167 -228.865)" fill="url(#linear-gradient-6)"/>
          <path id="Path_11229" data-name="Path 11229" d="M284.65,245.516l-9.323-5.382c-.347-.2-.3-.551.1-.783l4.289-2.476a1.508,1.508,0,0,1,1.356-.057l9.322,5.383c.348.2.3.551-.1.782l-4.289,2.476A1.5,1.5,0,0,1,284.65,245.516Z" transform="translate(-261.203 -227.154)" fill="url(#linear-gradient-6)"/>
          <path id="Path_11230" data-name="Path 11230" d="M291.036,239.8l-7.566-4.368c-.348-.2-.3-.551.1-.783l4.289-2.476a1.507,1.507,0,0,1,1.356-.056l7.566,4.368c.348.2.3.551-.1.783l-4.289,2.476A1.508,1.508,0,0,1,291.036,239.8Z" transform="translate(-262.839 -226.21)" fill="url(#linear-gradient-6)"/>
          <path id="Path_11231" data-name="Path 11231" d="M311.265,260.882l-4.329-2.5c-.348-.2-.3-.551.1-.783l4.289-2.476a1.508,1.508,0,0,1,1.356-.057l4.328,2.5c.348.2.3.551-.1.782l-4.29,2.476A1.506,1.506,0,0,1,311.265,260.882Z" transform="translate(-267.553 -230.82)" fill="url(#linear-gradient-6)"/>
          <path id="Path_11232" data-name="Path 11232" d="M319.63,265.712l-4.329-2.5c-.348-.2-.3-.551.1-.783l4.289-2.476a1.507,1.507,0,0,1,1.356-.056l4.328,2.5c.348.2.3.551-.1.783l-4.289,2.476A1.507,1.507,0,0,1,319.63,265.712Z" transform="translate(-269.234 -231.791)" fill="url(#linear-gradient-6)"/>
          <path id="Path_11233" data-name="Path 11233" d="M327.995,270.542l-4.329-2.5c-.348-.2-.3-.551.1-.782l4.289-2.476a1.505,1.505,0,0,1,1.356-.056l4.329,2.5c.348.2.3.551-.1.783l-4.289,2.476A1.508,1.508,0,0,1,327.995,270.542Z" transform="translate(-270.914 -232.761)" fill="url(#linear-gradient-6)"/>
          <path id="Path_11234" data-name="Path 11234" d="M336.36,275.371l-4.329-2.5c-.348-.2-.3-.551.1-.783l4.289-2.476a1.51,1.51,0,0,1,1.356-.056l4.329,2.5c.348.2.3.551-.1.783l-4.289,2.476A1.507,1.507,0,0,1,336.36,275.371Z" transform="translate(-272.595 -233.731)" fill="url(#linear-gradient-6)"/>
          <path id="Path_11235" data-name="Path 11235" d="M344.725,280.2l-4.329-2.5c-.348-.2-.3-.551.1-.782l4.289-2.476a1.507,1.507,0,0,1,1.356-.056l4.329,2.5c.348.2.3.551-.1.783l-4.289,2.476A1.508,1.508,0,0,1,344.725,280.2Z" transform="translate(-274.276 -234.702)" fill="url(#linear-gradient-6)"/>
          <path id="Path_11236" data-name="Path 11236" d="M353.09,285.03l-4.329-2.5c-.347-.2-.3-.551.1-.783l4.289-2.476a1.508,1.508,0,0,1,1.356-.057l4.329,2.5c.348.2.3.551-.1.782l-4.289,2.476A1.507,1.507,0,0,1,353.09,285.03Z" transform="translate(-275.956 -235.672)" fill="url(#linear-gradient-6)"/>
          <path id="Path_11237" data-name="Path 11237" d="M361.455,289.86l-4.328-2.5c-.348-.2-.3-.551.1-.783l4.289-2.476a1.507,1.507,0,0,1,1.356-.056l4.329,2.5c.348.2.3.551-.1.783l-4.289,2.476A1.508,1.508,0,0,1,361.455,289.86Z" transform="translate(-277.637 -236.642)" fill="url(#linear-gradient-6)"/>
          <path id="Path_11238" data-name="Path 11238" d="M369.82,294.69l-4.328-2.5c-.348-.2-.3-.551.1-.782l4.29-2.476a1.5,1.5,0,0,1,1.355-.056l4.329,2.5c.348.2.3.551-.1.783l-4.289,2.476A1.508,1.508,0,0,1,369.82,294.69Z" transform="translate(-279.317 -237.612)" fill="url(#linear-gradient-6)"/>
          <path id="Path_11239" data-name="Path 11239" d="M378.186,299.519l-4.329-2.5c-.348-.2-.3-.551.1-.783l4.289-2.476a1.506,1.506,0,0,1,1.355-.056l4.329,2.5c.348.2.3.551-.1.783l-4.289,2.476A1.506,1.506,0,0,1,378.186,299.519Z" transform="translate(-280.998 -238.583)" fill="url(#linear-gradient-6)"/>
          <path id="Path_11240" data-name="Path 11240" d="M391.771,307.363l-9.445-5.453c-.348-.2-.3-.551.1-.782l4.289-2.476a1.507,1.507,0,0,1,1.356-.056l9.445,5.452c.347.2.3.551-.1.783l-4.289,2.476A1.507,1.507,0,0,1,391.771,307.363Z" transform="translate(-282.699 -239.565)" fill="url(#linear-gradient-6)"/>
          <path id="Path_11241" data-name="Path 11241" d="M408.427,298.173l-7.972-4.6c-.348-.2-.3-.551.1-.783l4.289-2.476a1.508,1.508,0,0,1,1.356-.057l7.971,4.6c.348.2.3.551-.1.782l-4.289,2.476A1.5,1.5,0,0,1,408.427,298.173Z" transform="translate(-286.342 -237.89)" fill="url(#linear-gradient-6)"/>
          <path id="Path_11242" data-name="Path 11242" d="M325.914,259.937l-4.329-2.5c-.348-.2-.3-.551.1-.783l4.289-2.476a1.508,1.508,0,0,1,1.356-.057l4.328,2.5c.348.2.3.551-.1.782l-4.289,2.476A1.505,1.505,0,0,1,325.914,259.937Z" transform="translate(-270.496 -230.631)" fill="url(#linear-gradient-6)"/>
          <path id="Path_11243" data-name="Path 11243" d="M317.341,254.988l-4.329-2.5c-.348-.2-.3-.551.1-.782l4.289-2.476a1.507,1.507,0,0,1,1.356-.056l4.328,2.5c.348.2.3.551-.1.783l-4.289,2.476A1.506,1.506,0,0,1,317.341,254.988Z" transform="translate(-268.774 -229.636)" fill="url(#linear-gradient-6)"/>
          <path id="Path_11244" data-name="Path 11244" d="M308.767,250.038l-4.328-2.5c-.348-.2-.3-.551.1-.783l4.29-2.476a1.506,1.506,0,0,1,1.355-.056l4.329,2.5c.348.2.3.551-.1.783l-4.289,2.476A1.507,1.507,0,0,1,308.767,250.038Z" transform="translate(-267.052 -228.642)" fill="url(#linear-gradient-6)"/>
          <path id="Path_11245" data-name="Path 11245" d="M300.194,245.088l-4.329-2.5c-.347-.2-.3-.551.1-.783l4.289-2.476a1.508,1.508,0,0,1,1.356-.057l4.329,2.5c.348.2.3.551-.1.782l-4.289,2.476A1.507,1.507,0,0,1,300.194,245.088Z" transform="translate(-265.329 -227.647)" fill="url(#linear-gradient-6)"/>
          <path id="Path_11246" data-name="Path 11246" d="M334.279,264.767l-4.329-2.5c-.348-.2-.3-.551.1-.783l4.289-2.476a1.508,1.508,0,0,1,1.356-.056l4.329,2.5c.348.2.3.551-.1.783l-4.289,2.476A1.507,1.507,0,0,1,334.279,264.767Z" transform="translate(-272.177 -231.601)" fill="url(#linear-gradient-6)"/>
          <path id="Path_11247" data-name="Path 11247" d="M342.644,269.6l-4.329-2.5c-.348-.2-.3-.551.1-.782l4.289-2.476a1.505,1.505,0,0,1,1.356-.056l4.329,2.5c.348.2.3.551-.1.783L344,269.54A1.508,1.508,0,0,1,342.644,269.6Z" transform="translate(-273.858 -232.571)" fill="url(#linear-gradient-6)"/>
          <path id="Path_11248" data-name="Path 11248" d="M351.009,274.426l-4.329-2.5c-.348-.2-.3-.551.1-.783l4.289-2.476a1.508,1.508,0,0,1,1.356-.057l4.329,2.5c.348.2.3.551-.1.782l-4.289,2.476A1.507,1.507,0,0,1,351.009,274.426Z" transform="translate(-275.538 -233.542)" fill="url(#linear-gradient-6)"/>
          <path id="Path_11249" data-name="Path 11249" d="M359.374,279.256l-4.329-2.5c-.347-.2-.3-.551.1-.782l4.289-2.476a1.508,1.508,0,0,1,1.356-.056l4.329,2.5c.348.2.3.551-.1.783L360.73,279.2A1.508,1.508,0,0,1,359.374,279.256Z" transform="translate(-277.219 -234.512)" fill="url(#linear-gradient-6)"/>
          <path id="Path_11250" data-name="Path 11250" d="M367.739,284.085l-4.328-2.5c-.348-.2-.3-.551.1-.783l4.289-2.476a1.507,1.507,0,0,1,1.356-.057l4.329,2.5c.348.2.3.551-.1.782l-4.289,2.476A1.5,1.5,0,0,1,367.739,284.085Z" transform="translate(-278.899 -235.482)" fill="url(#linear-gradient-6)"/>
          <path id="Path_11251" data-name="Path 11251" d="M376.1,288.915l-4.328-2.5c-.348-.2-.3-.551.1-.783l4.29-2.476a1.506,1.506,0,0,1,1.355-.056l4.329,2.5c.348.2.3.551-.1.783l-4.289,2.476A1.508,1.508,0,0,1,376.1,288.915Z" transform="translate(-280.58 -236.452)" fill="url(#linear-gradient-6)"/>
          <path id="Path_11252" data-name="Path 11252" d="M384.469,293.745l-4.328-2.5c-.348-.2-.3-.551.1-.782l4.289-2.476a1.5,1.5,0,0,1,1.355-.056l4.329,2.5c.348.2.3.551-.1.783l-4.289,2.476A1.508,1.508,0,0,1,384.469,293.745Z" transform="translate(-282.26 -237.423)" fill="url(#linear-gradient-6)"/>
          <path id="Path_11253" data-name="Path 11253" d="M392.835,298.574l-4.329-2.5c-.348-.2-.3-.551.1-.783l4.289-2.476a1.51,1.51,0,0,1,1.356-.056l4.328,2.5c.348.2.3.551-.1.782l-4.29,2.476A1.506,1.506,0,0,1,392.835,298.574Z" transform="translate(-283.941 -238.393)" fill="url(#linear-gradient-6)"/>
          <path id="Path_11254" data-name="Path 11254" d="M401.2,303.4l-4.329-2.5c-.348-.2-.3-.551.1-.782l4.289-2.476a1.508,1.508,0,0,1,1.356-.056l4.328,2.5c.348.2.3.551-.1.783l-4.289,2.476A1.508,1.508,0,0,1,401.2,303.4Z" transform="translate(-285.622 -239.363)" fill="url(#linear-gradient-6)"/>
          <path id="Path_11255" data-name="Path 11255" d="M321.509,247.992l-4.329-2.5c-.348-.2-.3-.551.1-.782l4.289-2.476a1.507,1.507,0,0,1,1.356-.056l4.329,2.5c.348.2.3.551-.1.783l-4.289,2.476A1.508,1.508,0,0,1,321.509,247.992Z" transform="translate(-269.611 -228.231)" fill="url(#linear-gradient-6)"/>
          <path id="Path_11256" data-name="Path 11256" d="M313.186,243.186l-4.329-2.5c-.348-.2-.3-.551.1-.783l4.289-2.476a1.506,1.506,0,0,1,1.355-.056l4.329,2.5c.348.2.3.551-.1.783l-4.289,2.476A1.506,1.506,0,0,1,313.186,243.186Z" transform="translate(-267.939 -227.265)" fill="url(#linear-gradient-6)"/>
          <path id="Path_11257" data-name="Path 11257" d="M304.862,238.381l-4.329-2.5c-.348-.2-.3-.551.1-.782l4.289-2.476a1.5,1.5,0,0,1,1.356-.056l4.329,2.5c.348.2.3.551-.1.783l-4.289,2.476A1.508,1.508,0,0,1,304.862,238.381Z" transform="translate(-266.267 -226.3)" fill="url(#linear-gradient-6)"/>
          <path id="Path_11258" data-name="Path 11258" d="M296.539,233.575l-4.329-2.5c-.348-.2-.3-.551.1-.783l4.289-2.476a1.507,1.507,0,0,1,1.356-.056l4.328,2.5c.348.2.3.551-.1.783l-4.289,2.476A1.506,1.506,0,0,1,296.539,233.575Z" transform="translate(-264.595 -225.334)" fill="url(#linear-gradient-6)"/>
          <path id="Path_11259" data-name="Path 11259" d="M305.1,229.05l-4.329-2.5c-.348-.2-.3-.551.1-.783l1.418-.818a1.507,1.507,0,0,1,1.356-.056l4.328,2.5c.348.2.3.551-.1.783l-1.418.818A1.5,1.5,0,0,1,305.1,229.05Z" transform="translate(-266.314 -224.758)" fill="url(#linear-gradient-6)"/>
          <path id="Path_11260" data-name="Path 11260" d="M315.96,235.322l-4.329-2.5c-.348-.2-.3-.551.1-.782l1.418-.819a1.507,1.507,0,0,1,1.356-.056l4.329,2.5c.348.2.3.551-.1.783l-1.418.818A1.508,1.508,0,0,1,315.96,235.322Z" transform="translate(-268.497 -226.018)" fill="url(#linear-gradient-6)"/>
          <path id="Path_11261" data-name="Path 11261" d="M324.249,240.107l-4.329-2.5c-.348-.2-.3-.551.1-.783l1.418-.818a1.5,1.5,0,0,1,1.356-.056l4.328,2.5c.348.2.3.551-.1.783l-1.418.818A1.506,1.506,0,0,1,324.249,240.107Z" transform="translate(-270.162 -226.98)" fill="url(#linear-gradient-6)"/>
          <path id="Path_11262" data-name="Path 11262" d="M332.537,244.893l-4.328-2.5c-.348-.2-.3-.551.1-.782l1.418-.819a1.506,1.506,0,0,1,1.355-.056l4.329,2.5c.348.2.3.551-.1.783l-1.418.818A1.508,1.508,0,0,1,332.537,244.893Z" transform="translate(-271.827 -227.941)" fill="url(#linear-gradient-6)"/>
          <path id="Path_11263" data-name="Path 11263" d="M340.826,249.678l-4.329-2.5c-.347-.2-.3-.551.1-.783l1.418-.818a1.507,1.507,0,0,1,1.356-.056l4.329,2.5c.348.2.3.551-.1.783l-1.418.818A1.507,1.507,0,0,1,340.826,249.678Z" transform="translate(-273.492 -228.903)" fill="url(#linear-gradient-6)"/>
          <path id="Path_11264" data-name="Path 11264" d="M387.1,276.395l-4.328-2.5c-.348-.2-.3-.551.1-.783l1.418-.818a1.5,1.5,0,0,1,1.355-.056l4.329,2.5c.348.2.3.551-.1.783l-1.418.818A1.507,1.507,0,0,1,387.1,276.395Z" transform="translate(-282.789 -234.27)" fill="url(#linear-gradient-6)"/>
          <path id="Path_11265" data-name="Path 11265" d="M395.39,281.181l-4.329-2.5c-.348-.2-.3-.551.1-.782l1.418-.819a1.51,1.51,0,0,1,1.356-.056l4.329,2.5c.348.2.3.551-.1.782l-1.418.819A1.51,1.51,0,0,1,395.39,281.181Z" transform="translate(-284.454 -235.231)" fill="url(#linear-gradient-6)"/>
          <path id="Path_11266" data-name="Path 11266" d="M403.679,285.966l-4.329-2.5c-.348-.2-.3-.551.1-.783l1.418-.818a1.507,1.507,0,0,1,1.356-.056l4.329,2.5c.348.2.3.551-.1.783l-1.418.818A1.507,1.507,0,0,1,403.679,285.966Z" transform="translate(-286.12 -236.193)" fill="url(#linear-gradient-6)"/>
          <path id="Path_11267" data-name="Path 11267" d="M411.968,290.752l-4.329-2.5c-.348-.2-.3-.551.1-.783l1.418-.818a1.508,1.508,0,0,1,1.356-.057l4.329,2.5c.348.2.3.551-.1.782l-1.418.819A1.508,1.508,0,0,1,411.968,290.752Z" transform="translate(-287.785 -237.154)" fill="url(#linear-gradient-6)"/>
          <path id="Path_11268" data-name="Path 11268" d="M329.874,252.821l-4.329-2.5c-.348-.2-.3-.551.1-.783l4.289-2.476a1.508,1.508,0,0,1,1.356-.057l4.329,2.5c.348.2.3.551-.1.782l-4.289,2.476A1.507,1.507,0,0,1,329.874,252.821Z" transform="translate(-271.292 -229.201)" fill="url(#linear-gradient-6)"/>
          <path id="Path_11269" data-name="Path 11269" d="M338.239,257.651l-4.329-2.5c-.347-.2-.3-.551.1-.783l4.289-2.476a1.507,1.507,0,0,1,1.356-.056l4.329,2.5c.348.2.3.551-.1.783l-4.289,2.476A1.507,1.507,0,0,1,338.239,257.651Z" transform="translate(-272.973 -230.171)" fill="url(#linear-gradient-6)"/>
          <path id="Path_11270" data-name="Path 11270" d="M346.6,262.481l-4.328-2.5c-.348-.2-.3-.551.1-.782l4.29-2.476a1.506,1.506,0,0,1,1.355-.057l4.329,2.5c.348.2.3.551-.1.782l-4.289,2.476A1.508,1.508,0,0,1,346.6,262.481Z" transform="translate(-274.653 -231.142)" fill="url(#linear-gradient-6)"/>
          <path id="Path_11271" data-name="Path 11271" d="M354.969,267.31l-4.328-2.5c-.348-.2-.3-.551.1-.783l4.29-2.476a1.506,1.506,0,0,1,1.355-.056l4.329,2.5c.348.2.3.551-.1.783l-4.289,2.476A1.507,1.507,0,0,1,354.969,267.31Z" transform="translate(-276.334 -232.112)" fill="url(#linear-gradient-6)"/>
          <path id="Path_11272" data-name="Path 11272" d="M363.335,272.14l-4.329-2.5c-.348-.2-.3-.551.1-.782l4.289-2.476a1.508,1.508,0,0,1,1.356-.056l4.328,2.5c.348.2.3.551-.1.783l-4.289,2.476A1.506,1.506,0,0,1,363.335,272.14Z" transform="translate(-278.014 -233.082)" fill="url(#linear-gradient-6)"/>
          <path id="Path_11273" data-name="Path 11273" d="M371.7,276.969l-4.329-2.5c-.348-.2-.3-.551.1-.783l4.289-2.476a1.508,1.508,0,0,1,1.356-.057l4.328,2.5c.348.2.3.551-.1.782l-4.29,2.476A1.506,1.506,0,0,1,371.7,276.969Z" transform="translate(-279.695 -234.052)" fill="url(#linear-gradient-6)"/>
          <path id="Path_11274" data-name="Path 11274" d="M380.065,281.8l-4.329-2.5c-.348-.2-.3-.551.1-.783l4.289-2.476a1.508,1.508,0,0,1,1.356-.056l4.328,2.5c.348.2.3.551-.1.783l-4.289,2.476A1.508,1.508,0,0,1,380.065,281.8Z" transform="translate(-281.375 -235.023)" fill="url(#linear-gradient-6)"/>
          <path id="Path_11275" data-name="Path 11275" d="M388.43,286.628l-4.329-2.5c-.348-.2-.3-.551.1-.783l4.289-2.476a1.507,1.507,0,0,1,1.356-.057l4.329,2.5c.347.2.3.551-.1.782l-4.289,2.476A1.505,1.505,0,0,1,388.43,286.628Z" transform="translate(-283.056 -235.993)" fill="url(#linear-gradient-6)"/>
          <path id="Path_11276" data-name="Path 11276" d="M396.795,291.458l-4.329-2.5c-.348-.2-.3-.551.1-.783l4.289-2.476a1.507,1.507,0,0,1,1.356-.056l4.329,2.5c.348.2.3.551-.1.783l-4.289,2.476A1.508,1.508,0,0,1,396.795,291.458Z" transform="translate(-284.737 -236.963)" fill="url(#linear-gradient-6)"/>
          <path id="Path_11277" data-name="Path 11277" d="M279.932,252.2l-12.747-7.36c-.348-.2-.3-.551.1-.782l4.289-2.476a1.5,1.5,0,0,1,1.356-.056l12.748,7.36c.348.2.3.551-.1.783l-4.289,2.476A1.508,1.508,0,0,1,279.932,252.2Z" transform="translate(-259.567 -228.099)" fill="url(#linear-gradient-6)"/>
          <path id="Path_11278" data-name="Path 11278" d="M382.7,311.528l-12.748-7.36c-.348-.2-.3-.551.1-.783l4.289-2.476a1.507,1.507,0,0,1,1.356-.057l12.748,7.361c.347.2.3.551-.1.782l-4.289,2.476A1.507,1.507,0,0,1,382.7,311.528Z" transform="translate(-280.213 -240.019)" fill="url(#linear-gradient-6)"/>
          <path id="Path_11279" data-name="Path 11279" d="M351.364,303.985l-4.329-2.5c-.348-.2-.3-.551.1-.783l5.109-2.949a1.508,1.508,0,0,1,1.356-.057l4.329,2.5c.348.2.3.551-.1.782l-5.109,2.95A1.506,1.506,0,0,1,351.364,303.985Z" transform="translate(-275.609 -239.385)" fill="url(#linear-gradient-6)"/>
          <path id="Path_11280" data-name="Path 11280" d="M289.964,268.537l-6.923-4c-.348-.2-.3-.551.1-.783l5.109-2.949a1.506,1.506,0,0,1,1.355-.056l6.923,4c.348.2.3.551-.1.783l-5.109,2.949A1.507,1.507,0,0,1,289.964,268.537Z" transform="translate(-262.753 -231.962)" fill="url(#linear-gradient-6)"/>
          <path id="Path_11281" data-name="Path 11281" d="M342.652,298.956l-6.923-4c-.348-.2-.3-.551.1-.782l5.109-2.95a1.508,1.508,0,0,1,1.356-.056l6.923,4c.348.2.3.551-.1.783l-5.109,2.949A1.506,1.506,0,0,1,342.652,298.956Z" transform="translate(-273.338 -238.073)" fill="url(#linear-gradient-6)"/>
          <path id="Path_11282" data-name="Path 11282" d="M302.033,275.5l-6.923-4c-.348-.2-.3-.551.1-.783l5.109-2.949a1.506,1.506,0,0,1,1.355-.056l6.923,4c.348.2.3.551-.1.783l-5.109,2.949A1.507,1.507,0,0,1,302.033,275.5Z" transform="translate(-265.178 -233.362)" fill="url(#linear-gradient-6)"/>
          <path id="Path_11283" data-name="Path 11283" d="M301.79,267.787l30.1,17.376a.412.412,0,0,1,0,.781l-5.21,3.008a1.493,1.493,0,0,1-1.352,0l-30.1-17.376Z" transform="translate(-265.248 -233.403)" fill="url(#linear-gradient-6)"/>
          <path id="Path_11284" data-name="Path 11284" d="M375.017,314.329l4.821,2.783c.285.165.249.452-.079.642l-2.09,1.207a1.234,1.234,0,0,1-1.112.046l-4.821-2.784c-.285-.164-.249-.451.079-.642l2.09-1.207A1.237,1.237,0,0,1,375.017,314.329Z" transform="translate(-280.58 -242.731)" fill="url(#linear-gradient-6)"/>
          <path id="Path_11285" data-name="Path 11285" d="M366.582,309.459l4.822,2.784c.284.164.249.452-.08.642l-2.09,1.207a1.237,1.237,0,0,1-1.112.046l-4.822-2.783c-.284-.165-.249-.452.08-.642l2.09-1.207A1.234,1.234,0,0,1,366.582,309.459Z" transform="translate(-278.886 -241.753)" fill="url(#linear-gradient-6)"/>
          <path id="Path_11286" data-name="Path 11286" d="M358.217,304.63l4.822,2.783c.285.165.249.451-.08.642l-2.09,1.207a1.233,1.233,0,0,1-1.111.046l-4.822-2.784c-.285-.165-.249-.452.08-.642l2.09-1.207A1.237,1.237,0,0,1,358.217,304.63Z" transform="translate(-277.205 -240.782)" fill="url(#linear-gradient-6)"/>
          <path id="Path_11287" data-name="Path 11287" d="M371.2,306.792l4.821,2.784c.285.164.249.451-.08.642l-2.09,1.207a1.236,1.236,0,0,1-1.112.046l-4.822-2.783c-.284-.165-.249-.452.08-.642l2.09-1.207A1.234,1.234,0,0,1,371.2,306.792Z" transform="translate(-279.814 -241.217)" fill="url(#linear-gradient-6)"/>
        </g>
        <g id="Group_11235" data-name="Group 11235" transform="translate(101.493 28.242)">
          <path id="Path_11288" data-name="Path 11288" d="M396.065,206.767l-36.006-20.788.463-2.341,36.006,20.788Z" transform="translate(-341.814 -156.939)" fill="#d4ecff"/>
          <path id="Path_11289" data-name="Path 11289" d="M382.661,213.288l-25.134-14.511.463-2.341,25.134,14.511Z" transform="translate(-341.305 -159.51)" fill="#d4ecff"/>
          <path id="Path_11290" data-name="Path 11290" d="M380.537,204.932l-21.744-12.554.463-2.341L381,202.591Z" transform="translate(-341.559 -158.224)" fill="#fff"/>
          <path id="Path_11291" data-name="Path 11291" d="M401.118,216.814l-10.872-6.277.463-2.341,10.872,6.277Z" transform="translate(-347.878 -161.873)" fill="#ff7220"/>
          <path id="Path_11292" data-name="Path 11292" d="M352.527,158.844l-10.872-6.277.463-2.341,10.872,6.277Z" transform="translate(-338.116 -150.226)" fill="#ff7220"/>
          <path id="Path_11293" data-name="Path 11293" d="M351.051,165.651l-10.872-6.277.463-2.341,10.872,6.277Z" transform="translate(-337.82 -151.594)" fill="#fff"/>
          <path id="Path_11294" data-name="Path 11294" d="M417.828,260.075,406.956,253.8l.463-2.341,10.872,6.277Z" transform="translate(-351.235 -170.564)" fill="#ff7220"/>
          <path id="Path_11295" data-name="Path 11295" d="M348.1,179.266l-10.872-6.277.463-2.341,10.872,6.277Z" transform="translate(-337.226 -154.329)" fill="#ff7220"/>
        </g>
        <g id="Group_11236" data-name="Group 11236" transform="translate(133.059 52.529)">
          <path id="Path_11296" data-name="Path 11296" d="M379.525,182.955a1.356,1.356,0,0,1-1.955.6,1.7,1.7,0,0,1-.7-2.134,1.357,1.357,0,0,1,1.955-.6A1.7,1.7,0,0,1,379.525,182.955Z" transform="translate(-376.729 -180.62)" fill="#ff7220"/>
          <path id="Path_11297" data-name="Path 11297" d="M385.385,186.338a1.357,1.357,0,0,1-1.955.6,1.7,1.7,0,0,1-.7-2.135,1.356,1.356,0,0,1,1.955-.6A1.7,1.7,0,0,1,385.385,186.338Z" transform="translate(-377.907 -181.299)" fill="#fff"/>
          <path id="Path_11298" data-name="Path 11298" d="M391.246,189.722a1.357,1.357,0,0,1-1.955.6,1.7,1.7,0,0,1-.7-2.134,1.357,1.357,0,0,1,1.955-.6A1.7,1.7,0,0,1,391.246,189.722Z" transform="translate(-379.084 -181.979)" fill="#d4ecff"/>
          <path id="Path_11299" data-name="Path 11299" d="M397.106,193.1a1.357,1.357,0,0,1-1.955.6,1.7,1.7,0,0,1-.7-2.135,1.357,1.357,0,0,1,1.955-.6A1.7,1.7,0,0,1,397.106,193.1Z" transform="translate(-380.261 -182.659)" fill="#ff7220"/>
        </g>
        <path id="Path_11300" data-name="Path 11300" d="M291.078,306.317,263.85,290.6c-.793-.457-.694-1.257.222-1.785l16.43-9.486a3.44,3.44,0,0,1,3.092-.129l27.228,15.721c.793.457.693,1.256-.222,1.785l-16.431,9.486A3.435,3.435,0,0,1,291.078,306.317Z" transform="translate(-220.885 -147.833)" fill="url(#linear-gradient-80)"/>
      </g>
      <g id="Group_11242" data-name="Group 11242" transform="translate(275.342 219.358)">
        <g id="Group_11241" data-name="Group 11241" transform="translate(0 0)">
          <g id="Group_11240" data-name="Group 11240">
            <g id="Group_11238" data-name="Group 11238" transform="translate(8.983 7.6)">
              <rect id="Rectangle_4201" data-name="Rectangle 4201" width="5.198" height="11.217" transform="translate(11.978 7.089) rotate(129.2)" fill="#ff7220"/>
              <path id="Path_11301" data-name="Path 11301" d="M337.894,268.062a4.064,4.064,0,0,0,2.323-2.849c.187-1.157-.549-1.757-1.645-1.341a4.063,4.063,0,0,0-2.323,2.848C336.063,267.878,336.8,268.479,337.894,268.062Z" transform="translate(-327.898 -256.864)" fill="#ff7220"/>
            </g>
            <g id="Group_11239" data-name="Group 11239">
              <rect id="Rectangle_4202" data-name="Rectangle 4202" width="8.423" height="11.458" transform="translate(14.806 7.589) rotate(129.199)" fill="#ff7220"/>
              <path id="Path_11302" data-name="Path 11302" d="M330.881,256.594l2.941,2.4a6.726,6.726,0,0,1-3.285,4.028l-2.942-2.4A6.729,6.729,0,0,1,330.881,256.594Z" transform="translate(-317.183 -247.828)" fill="#c92f0c"/>
              <path id="Path_11303" data-name="Path 11303" d="M328.392,261.693a6.582,6.582,0,0,0,3.765-4.616c.3-1.875-.889-2.847-2.665-2.173a6.58,6.58,0,0,0-3.765,4.616C325.424,261.394,326.617,262.367,328.392,261.693Z" transform="translate(-316.798 -247.446)" fill="#ff7220"/>
              <path id="Path_11304" data-name="Path 11304" d="M317.277,252.627a6.583,6.583,0,0,0,3.764-4.616c.3-1.875-.889-2.848-2.665-2.174a6.583,6.583,0,0,0-3.764,4.616C314.308,252.329,315.5,253.3,317.277,252.627Z" transform="translate(-314.565 -245.624)" fill="#ff7220"/>
              <path id="Path_11305" data-name="Path 11305" d="M317.871,251.547a3.722,3.722,0,0,0,2.13-2.611c.172-1.06-.5-1.611-1.507-1.23a3.724,3.724,0,0,0-2.13,2.611C316.193,251.378,316.868,251.929,317.871,251.547Z" transform="translate(-314.921 -246.018)" fill="#d4ecff"/>
            </g>
          </g>
        </g>
        <path id="Path_11306" data-name="Path 11306" d="M338.189,264.482c.426.348.843.189.931-.354a1.9,1.9,0,0,0-.613-1.612c-.426-.348-.842-.189-.93.354A1.906,1.906,0,0,0,338.189,264.482Z" transform="translate(-319.185 -248.981)" fill="#d4ecff"/>
      </g>
      <path id="Path_11307" data-name="Path 11307" d="M224.92,347.5a8.777,8.777,0,0,1-4.536-1.283l-6.151-3.643a.695.695,0,1,1,.708-1.2l6.154,3.645a7.4,7.4,0,0,0,11.207-6.869l-.131-1.855c-2.16-30.365-6.18-86.886,17.641-92.982a185.475,185.475,0,0,0,17.926-5.578c12.224-4.376,13.062-4.135,29.914,8.593a.694.694,0,1,1-.837,1.108c-16.739-12.642-16.961-12.563-28.61-8.393a187.083,187.083,0,0,1-18.048,5.615c-22.7,5.809-18.732,61.578-16.6,91.538l.132,1.855a8.657,8.657,0,0,1-4.174,8.121A8.756,8.756,0,0,1,224.92,347.5Z" transform="translate(-18.997 -24.167)" fill="#ff7220"/>
      <g id="Group_11244" data-name="Group 11244" transform="translate(224.124 209.154)">
        <ellipse id="Ellipse_263" data-name="Ellipse 263" cx="22.534" cy="13.01" rx="22.534" ry="13.01" transform="translate(5.991 99.421)" fill="url(#linear-gradient)"/>
        <g id="Group_11243" data-name="Group 11243" transform="translate(13.197 11.956)">
          <path id="Path_11308" data-name="Path 11308" d="M297.317,365.564a3.477,3.477,0,0,1,1.963,3.478,5.832,5.832,0,0,1-.286,1.7,2.86,2.86,0,0,1-3.84,1.176c-2.113-.835-6.805-5.244-6.981-8.129C287.846,358.429,293.976,364.137,297.317,365.564Z" transform="translate(-271.239 -270.664)" fill="#173d7a"/>
          <path id="Path_11309" data-name="Path 11309" d="M280.65,376.644s.507,3.09.26,3.657a3.979,3.979,0,0,1-3.889,1.514c-2.172-.261-8.422-2.416-9.814-6.535-2.158-6.386,12.064.479,12.064.479Z" transform="translate(-266.985 -272.878)" fill="#173d7a"/>
          <path id="Path_11310" data-name="Path 11310" d="M276.322,315.126l-.484,48.246a3.379,3.379,0,0,0,2.628,3.344c.183.031.378.056.587.074a3,3,0,0,0,2.866-1.186,3.535,3.535,0,0,0,.645-1.947l.616-20.6,3.075-18.414,4.254,32.591a2.815,2.815,0,0,0,1.169,2.146,3.261,3.261,0,0,0,1.939.526,3.565,3.565,0,0,0,2.579-1.27,2.587,2.587,0,0,0,.616-1.745l-1.687-19.61-.627-25.013Z" transform="translate(-268.764 -260.766)" fill="#d4ecff"/>
          <path id="Path_11311" data-name="Path 11311" d="M283.3,261.8l.763,4.4a2.015,2.015,0,0,1-1.647,1.915c-1.674.416-2.192-.666-2.192-.666l-.758-4.951Z" transform="translate(-269.492 -250.626)" fill="#ffc2b0"/>
          <path id="Path_11312" data-name="Path 11312" d="M272.5,259.122c2.8,2.787,7.072,3.02,9.544.52s2.21-6.786-.589-9.572-7.071-3.02-9.544-.52S269.7,256.335,272.5,259.122Z" transform="translate(-267.634 -247.817)" fill="#ffc2b0"/>
          <path id="Path_11313" data-name="Path 11313" d="M281.962,266.9c.116-.047,7.106-4.548,9.689.162,4.213,7.679,3.965,32.4,2.635,35.6-1.231,2.964-4.3,5.149-6.459,6.379a12.9,12.9,0,0,1-6.27,1.784c-2.184.018-6.373-1.924-6.22-4.779.7-13.133-.462-24.2-1.534-34.944C273.8,271.105,275.142,269.663,281.962,266.9Z" transform="translate(-268.355 -251.252)" fill="#115cbb"/>
          <path id="Path_11314" data-name="Path 11314" d="M288.875,327.758l4.254,32.591A2.816,2.816,0,0,0,294.3,362.5a3.068,3.068,0,0,0,.363.205c-.883-.662-3.462-28.019-3.939-31.062S288.875,327.758,288.875,327.758Z" transform="translate(-271.383 -263.877)" fill="#396caa"/>
        </g>
        <path id="Path_11315" data-name="Path 11315" d="M255.087,265.879l-3.8-12.439,2.006-.832,4.477,9.748Z" transform="translate(-250.635 -236.823)" fill="#ffc2b0"/>
        <path id="Path_11316" data-name="Path 11316" d="M302.668,253.69l-2.847-12.951-2.267.025.852,10.741Z" transform="translate(-259.93 -234.439)" fill="#ffc2b0"/>
        <path id="Path_11317" data-name="Path 11317" d="M270.223,270.857s-6.824,1.362-11.163-6.584a1.079,1.079,0,0,0-1.8-.189,5.575,5.575,0,0,0-1.14,4.439c2.114,7.766,13.585,9.481,15.646,13.985S270.223,270.857,270.223,270.857Z" transform="translate(-251.579 -239.048)" fill="#115cbb"/>
        <path id="Path_11318" data-name="Path 11318" d="M289.561,262.9s5.4.415,6.182-4.262a35.758,35.758,0,0,0,.543-4.676.943.943,0,0,1,1.06-.917c1.295.161,3.3.547,3.57,1.414.406,1.3,1.17,7.647-4.168,17.394C293.25,278.24,289.561,262.9,289.561,262.9Z" transform="translate(-258.324 -236.91)" fill="#115cbb"/>
        <path id="Path_11319" data-name="Path 11319" d="M299.024,239.187l-.052-1.477a3.043,3.043,0,0,0-.441-1.474l-1.5-2.459-.391-.492a1.138,1.138,0,0,0-1.5-.256l-.344.217a1.415,1.415,0,0,0-.658,1.288l.774,2.1-.979-.189a.348.348,0,0,0-.408.28h0a.346.346,0,0,0,.212.384l1.6.646,1.453,2.055Z" transform="translate(-259.12 -232.855)" fill="#ffc2b0"/>
        <path id="Path_11320" data-name="Path 11320" d="M251.069,251.936l-.452-1.406a3.04,3.04,0,0,1-.086-1.537l.573-2.822.2-.6a1.137,1.137,0,0,1,1.32-.748l.4.086a1.417,1.417,0,0,1,1.057.988l-.015,2.24.857-.511a.348.348,0,0,1,.479.125h0a.347.347,0,0,1-.07.433l-1.285,1.15-.75,2.727Z" transform="translate(-250.47 -235.255)" fill="#ffc2b0"/>
        <path id="Path_11321" data-name="Path 11321" d="M274.187,282.666c.622,2.838-1.123,24.862,4.559,30.314-2.184.018-6.372-1.925-6.22-4.779A174.7,174.7,0,0,0,272,284.049c-2.229-2.887-8.359-4.725-12.194-8.427C260.091,275.708,273.571,279.857,274.187,282.666Z" transform="translate(-252.347 -241.447)" fill="#3a367e"/>
        <path id="Path_11322" data-name="Path 11322" d="M285.455,265.6l-.97-1a7.916,7.916,0,0,1-2.879,1.914,15.047,15.047,0,0,1-2.3.475l-.625,1.723S283.767,268.348,285.455,265.6Z" transform="translate(-256.138 -239.233)" fill="#fff"/>
        <path id="Path_11323" data-name="Path 11323" d="M275.8,256.74a.82.82,0,0,1-.754,0c-.413-.217-1.083-1.86-1.942-1.74-1.344.188-3.291,3.009-5.714-.926-1.259-2.047-.521-3.151-1.134-4.312,0,0,.216.63,5.491-2.59s9.589.7,10.926,2.949,2.206,6.629-1.256,9.1c-.575.41-4.269-.322-4.345-.631s.913-.807.354-1.532A1.16,1.16,0,0,0,275.8,256.74Z" transform="translate(-253.642 -235.487)" fill="#173d7a"/>
      </g>
      <path id="Path_11324" data-name="Path 11324" d="M206.814,364.745a.7.7,0,0,1-.353-.1l-37.149-22a.694.694,0,1,1,.706-1.2l37.152,22a.695.695,0,0,1-.356,1.292Z" transform="translate(-9.972 -45.499)" fill="#ff7220"/>
      <g id="Group_11264" data-name="Group 11264" transform="translate(119.332 157.493)">
        <g id="Group_11256" data-name="Group 11256">
          <g id="Group_11247" data-name="Group 11247">
            <path id="Path_11325" data-name="Path 11325" d="M119.342,300.772h0V200.315l39.937-10.452,7.356-4.247a7.32,7.32,0,0,1,6.586.272l6.863,3.963,21.3-.012-6.307,96.977a1.909,1.909,0,0,1-1.131,1.765l-39.854,30.072a7.323,7.323,0,0,1-6.586-.273l-26.56-15.335A2.608,2.608,0,0,1,119.342,300.772Z" transform="translate(-119.333 -171.571)" fill="url(#linear-gradient-5)"/>
            <path id="Path_11326" data-name="Path 11326" d="M177.539,184.964a7.6,7.6,0,0,1,3.53.925l6.863,3.963,21.3-.012V290.567a1.907,1.907,0,0,1-1.131,1.764l-46.161,26.322a5.96,5.96,0,0,1-3.057.653l-.476-101.357Z" transform="translate(-127.183 -171.572)" fill="url(#linear-gradient-83)"/>
            <path id="Path_11327" data-name="Path 11327" d="M160.975,326.853a7.5,7.5,0,0,1-5.264-.06V224.744h5.264Z" transform="translate(-126.641 -179.564)" fill="url(#linear-gradient-84)"/>
            <path id="Path_11328" data-name="Path 11328" d="M154.091,214.6l46.161-26.321c1.689-.975,1.477-2.678-.473-3.8l-26.56-15.335a7.32,7.32,0,0,0-6.586-.272l-46.161,26.321c-1.688.975-1.477,2.677.473,3.8l26.56,15.335A7.318,7.318,0,0,0,154.091,214.6Z" transform="translate(-119.332 -168.205)" fill="url(#linear-gradient-85)"/>
            <path id="Path_11329" data-name="Path 11329" d="M120.946,201.507l26.56,15.335a7.323,7.323,0,0,0,6.586.273l46.161-26.322a2.539,2.539,0,0,0,.842-.747,1.769,1.769,0,0,1-.842,2.615l-46.161,26.321a7.318,7.318,0,0,1-6.586-.273l-26.56-15.335c-1.515-.874-1.975-2.1-1.315-3.055A3.681,3.681,0,0,0,120.946,201.507Z" transform="translate(-119.333 -172.593)" fill="#fafdff"/>
            <g id="Group_11246" data-name="Group 11246" transform="translate(17.188 8.516)">
              <path id="Path_11330" data-name="Path 11330" d="M157.107,206.068l30.733-17.815c.789-.456.69-1.253-.221-1.78L175.189,179.3a3.428,3.428,0,0,0-3.082-.128l-30.733,17.816c-.79.455-.69,1.252.221,1.779l12.429,7.176A3.425,3.425,0,0,0,157.107,206.068Z" transform="translate(-140.841 -178.862)" fill="#173d7a"/>
              <g id="Group_11245" data-name="Group 11245" transform="translate(12.758 7.864)">
                <path id="Path_11331" data-name="Path 11331" d="M181.393,191.03,183.175,190c.109-.063.1-.173-.031-.246l-1.72-.993a.473.473,0,0,0-.426-.018l-1.781,1.028c-.109.063-.1.173.031.246l1.719.992A.475.475,0,0,0,181.393,191.03Z" transform="translate(-161.294 -188.703)" fill="#d4ecff"/>
                <path id="Path_11332" data-name="Path 11332" d="M173.948,195.311l1.78-1.028c.109-.063.1-.173-.03-.246l-1.72-.993a.475.475,0,0,0-.427-.018l-1.78,1.028c-.109.063-.1.173.03.246l1.72.992A.472.472,0,0,0,173.948,195.311Z" transform="translate(-159.798 -189.563)" fill="#ff2c9c"/>
                <path id="Path_11333" data-name="Path 11333" d="M166.5,199.593l1.781-1.028c.109-.063.1-.173-.03-.246l-1.72-.993a.475.475,0,0,0-.427-.018l-1.781,1.028c-.109.063-.1.173.031.246l1.72.993A.473.473,0,0,0,166.5,199.593Z" transform="translate(-158.302 -190.423)" fill="#d4ecff"/>
                <path id="Path_11334" data-name="Path 11334" d="M159.057,203.874l1.78-1.028c.109-.063.1-.173-.03-.246l-1.72-.992a.473.473,0,0,0-.427-.018l-1.78,1.028c-.109.063-.1.173.03.246l1.72.993A.475.475,0,0,0,159.057,203.874Z" transform="translate(-156.806 -191.283)" fill="#d4ecff"/>
              </g>
              <path id="Path_11335" data-name="Path 11335" d="M187.841,188.253l-.037.021c-.06-.042-.115-.087-.185-.127l-12.429-7.176a3.425,3.425,0,0,0-3.082-.127l-30.7,17.794c-.728-.521-.766-1.231-.037-1.652l30.733-17.816a3.428,3.428,0,0,1,3.082.128l12.429,7.176C188.531,187,188.631,187.8,187.841,188.253Z" transform="translate(-140.842 -178.862)" fill="#5793ce"/>
            </g>
          </g>
          <g id="Group_11249" data-name="Group 11249" transform="translate(3.733 45.078)">
            <path id="Path_11336" data-name="Path 11336" d="M143.257,245.831l-17.474-10.005a4.262,4.262,0,0,1-1.78-3.4v-6.249c0-1.311.8-1.913,1.78-1.346l17.474,10a4.266,4.266,0,0,1,1.78,3.4v6.249C145.038,245.8,144.24,246.4,143.257,245.831Z" transform="translate(-124.003 -224.616)" fill="#173d7a"/>
            <path id="Path_11337" data-name="Path 11337" d="M124.918,224.647a1.747,1.747,0,0,0-.447,1.3V232.2a4.264,4.264,0,0,0,1.78,3.4l17.474,10a1.279,1.279,0,0,0,.865.189,1.063,1.063,0,0,1-1.334.046l-17.474-10.005a4.262,4.262,0,0,1-1.78-3.4v-6.249C124,225.291,124.375,224.74,124.918,224.647Z" transform="translate(-124.003 -224.622)" fill="#fff"/>
            <g id="Group_11248" data-name="Group 11248" transform="translate(6.648 7.613)">
              <path id="Path_11338" data-name="Path 11338" d="M141.02,241.735l-1.6-.925a.931.931,0,0,1-.388-.742v-1.712c0-.285.174-.417.388-.293l1.6.925a.93.93,0,0,1,.388.742v1.712C141.409,241.727,141.235,241.859,141.02,241.735Z" transform="translate(-133.669 -234.921)" fill="#396caa"/>
              <path id="Path_11339" data-name="Path 11339" d="M134.313,237.862l-1.6-.925a.928.928,0,0,1-.388-.742v-1.712c0-.286.173-.417.388-.294l1.6.926a.928.928,0,0,1,.388.741v1.712C134.7,237.855,134.528,237.986,134.313,237.862Z" transform="translate(-132.322 -234.143)" fill="#fff"/>
            </g>
          </g>
          <g id="Group_11251" data-name="Group 11251" transform="translate(3.733 90.233)">
            <path id="Path_11340" data-name="Path 11340" d="M143.257,302.339l-17.474-10.006a4.262,4.262,0,0,1-1.78-3.4v-6.249c0-1.311.8-1.914,1.78-1.346l17.474,10a4.265,4.265,0,0,1,1.78,3.4v6.249C145.038,302.3,144.24,302.907,143.257,302.339Z" transform="translate(-124.003 -281.123)" fill="#173d7a"/>
            <path id="Path_11341" data-name="Path 11341" d="M124.918,281.155a1.747,1.747,0,0,0-.447,1.3V288.7a4.264,4.264,0,0,0,1.78,3.4l17.474,10a1.284,1.284,0,0,0,.865.189,1.063,1.063,0,0,1-1.334.046L125.783,292.34a4.262,4.262,0,0,1-1.78-3.4v-6.249C124,281.8,124.375,281.248,124.918,281.155Z" transform="translate(-124.003 -281.13)" fill="#fff"/>
            <g id="Group_11250" data-name="Group 11250" transform="translate(6.648 7.614)">
              <path id="Path_11342" data-name="Path 11342" d="M141.02,298.243l-1.6-.926a.929.929,0,0,1-.388-.741v-1.712c0-.286.174-.417.388-.293l1.6.925a.93.93,0,0,1,.388.742v1.712C141.409,298.235,141.235,298.367,141.02,298.243Z" transform="translate(-133.669 -291.429)" fill="#ff2c9c"/>
              <path id="Path_11343" data-name="Path 11343" d="M134.313,294.37l-1.6-.925a.928.928,0,0,1-.388-.742v-1.712c0-.286.173-.417.388-.294l1.6.926a.928.928,0,0,1,.388.741v1.712C134.7,294.363,134.528,294.494,134.313,294.37Z" transform="translate(-132.322 -290.651)" fill="#fff"/>
            </g>
          </g>
          <g id="Group_11253" data-name="Group 11253" transform="translate(3.733 112.81)">
            <path id="Path_11344" data-name="Path 11344" d="M143.257,330.592l-17.474-10a4.262,4.262,0,0,1-1.78-3.4v-6.249c0-1.311.8-1.914,1.78-1.346l17.474,10a4.264,4.264,0,0,1,1.78,3.4v6.249C145.038,330.558,144.24,331.16,143.257,330.592Z" transform="translate(-124.003 -309.377)" fill="#173d7a"/>
            <path id="Path_11345" data-name="Path 11345" d="M124.918,309.409a1.747,1.747,0,0,0-.447,1.3v6.249a4.264,4.264,0,0,0,1.78,3.4l17.474,10a1.284,1.284,0,0,0,.865.189,1.062,1.062,0,0,1-1.334.046l-17.474-10a4.262,4.262,0,0,1-1.78-3.4v-6.249C124,310.053,124.375,309.5,124.918,309.409Z" transform="translate(-124.003 -309.384)" fill="#fff"/>
            <g id="Group_11252" data-name="Group 11252" transform="translate(6.648 7.613)">
              <path id="Path_11346" data-name="Path 11346" d="M141.02,326.5l-1.6-.926a.928.928,0,0,1-.388-.741v-1.712c0-.286.174-.417.388-.293l1.6.925a.93.93,0,0,1,.388.742V326.2C141.409,326.489,141.235,326.62,141.02,326.5Z" transform="translate(-133.669 -319.683)" fill="#396caa"/>
              <path id="Path_11347" data-name="Path 11347" d="M134.313,322.624l-1.6-.925a.928.928,0,0,1-.388-.742v-1.712c0-.286.173-.418.388-.294l1.6.925a.93.93,0,0,1,.388.742v1.712C134.7,322.617,134.528,322.748,134.313,322.624Z" transform="translate(-132.322 -318.905)" fill="#fff"/>
            </g>
          </g>
          <g id="Group_11255" data-name="Group 11255" transform="translate(3.733 67.655)">
            <path id="Path_11348" data-name="Path 11348" d="M143.257,274.084l-17.474-10a4.262,4.262,0,0,1-1.78-3.4v-6.249c0-1.311.8-1.913,1.78-1.346l17.474,10a4.265,4.265,0,0,1,1.78,3.4v6.249C145.038,274.05,144.24,274.653,143.257,274.084Z" transform="translate(-124.003 -252.87)" fill="#173d7a"/>
            <path id="Path_11349" data-name="Path 11349" d="M124.918,252.9a1.747,1.747,0,0,0-.447,1.3v6.249a4.264,4.264,0,0,0,1.78,3.4l17.474,10a1.284,1.284,0,0,0,.865.189,1.062,1.062,0,0,1-1.334.046l-17.474-10a4.262,4.262,0,0,1-1.78-3.4v-6.249C124,253.545,124.375,252.994,124.918,252.9Z" transform="translate(-124.003 -252.876)" fill="#fff"/>
            <g id="Group_11254" data-name="Group 11254" transform="translate(6.648 7.614)">
              <path id="Path_11350" data-name="Path 11350" d="M141.02,269.989l-1.6-.925a.931.931,0,0,1-.388-.742V266.61c0-.286.174-.417.388-.293l1.6.925a.93.93,0,0,1,.388.742v1.712C141.409,269.981,141.235,270.112,141.02,269.989Z" transform="translate(-133.669 -263.176)" fill="#396caa"/>
              <path id="Path_11351" data-name="Path 11351" d="M134.313,266.116l-1.6-.925a.928.928,0,0,1-.388-.742v-1.712c0-.286.173-.417.388-.293l1.6.925a.928.928,0,0,1,.388.741v1.712C134.7,266.109,134.528,266.24,134.313,266.116Z" transform="translate(-132.322 -262.398)" fill="#fff"/>
            </g>
          </g>
        </g>
        <g id="Group_11257" data-name="Group 11257" transform="translate(36.488 24.381)">
          <path id="Path_11352" data-name="Path 11352" d="M166.627,234.231l40.314-23.275a3.914,3.914,0,0,0,1.634-3.122v-7.687c0-1.2-.732-1.756-1.634-1.235l-40.314,23.275a3.911,3.911,0,0,0-1.634,3.121V233C164.993,234.2,165.724,234.751,166.627,234.231Z" transform="translate(-164.993 -198.716)" fill="#645ad2"/>
          <path id="Path_11353" data-name="Path 11353" d="M168.278,232.238l38-21.939a1.985,1.985,0,0,0,.829-1.584v-5.779c0-.61-.371-.891-.829-.626l-38,21.938a1.985,1.985,0,0,0-.829,1.584v5.779C167.449,232.221,167.82,232.5,168.278,232.238Z" transform="translate(-165.486 -199.418)" fill="#d4ecff" opacity="0.4"/>
          <path id="Path_11354" data-name="Path 11354" d="M205.927,213.01l5.671-3.274a1.928,1.928,0,0,0,.8-1.538h0c0-.592-.36-.865-.8-.608l-5.671,3.274a1.928,1.928,0,0,0-.8,1.538h0C205.122,212.995,205.482,213.267,205.927,213.01Z" transform="translate(-173.055 -200.479)" fill="#d4ecff"/>
          <path id="Path_11355" data-name="Path 11355" d="M200.081,216.109c0,.593.416.833.929.536a2.054,2.054,0,0,0,.93-1.609c0-.593-.416-.833-.93-.537A2.056,2.056,0,0,0,200.081,216.109Z" transform="translate(-172.042 -201.861)" fill="#173d7a"/>
          <path id="Path_11356" data-name="Path 11356" d="M195.978,218.478c0,.593.416.833.929.536a2.052,2.052,0,0,0,.929-1.609c0-.593-.416-.833-.929-.537A2.055,2.055,0,0,0,195.978,218.478Z" transform="translate(-171.218 -202.337)" fill="#173d7a"/>
          <path id="Path_11357" data-name="Path 11357" d="M191.875,220.847c0,.593.416.833.929.537a2.055,2.055,0,0,0,.929-1.61c0-.593-.416-.833-.929-.537A2.053,2.053,0,0,0,191.875,220.847Z" transform="translate(-170.394 -202.813)" fill="#d4ecff"/>
          <path id="Path_11358" data-name="Path 11358" d="M187.771,223.216c0,.593.416.833.929.536a2.052,2.052,0,0,0,.93-1.609c0-.593-.416-.833-.93-.537A2.056,2.056,0,0,0,187.771,223.216Z" transform="translate(-169.569 -203.289)" fill="#173d7a"/>
          <path id="Path_11359" data-name="Path 11359" d="M170.356,234.612l1.91-1.1a1.237,1.237,0,0,0,.517-.987V230.5c0-.38-.232-.555-.517-.391l-1.91,1.1a1.237,1.237,0,0,0-.516.987v2.021C169.84,234.6,170.071,234.776,170.356,234.612Z" transform="translate(-165.967 -205.01)" fill="#173d7a"/>
        </g>
        <g id="Group_11258" data-name="Group 11258" transform="translate(36.488 37.936)">
          <path id="Path_11360" data-name="Path 11360" d="M166.627,251.194l40.314-23.275a3.913,3.913,0,0,0,1.634-3.121V217.11c0-1.2-.732-1.756-1.634-1.235L166.627,239.15a3.912,3.912,0,0,0-1.634,3.122v7.687C164.993,251.162,165.724,251.715,166.627,251.194Z" transform="translate(-164.993 -215.679)" fill="#ff7220"/>
          <path id="Path_11361" data-name="Path 11361" d="M168.278,249.2l38-21.938a1.986,1.986,0,0,0,.829-1.584V219.9c0-.61-.371-.89-.829-.626l-38,21.939a1.985,1.985,0,0,0-.829,1.584v5.779C167.449,249.185,167.82,249.465,168.278,249.2Z" transform="translate(-165.486 -216.381)" fill="#d4ecff" opacity="0.4"/>
          <path id="Path_11362" data-name="Path 11362" d="M205.927,229.974,211.6,226.7a1.93,1.93,0,0,0,.8-1.538h0c0-.593-.36-.865-.8-.608l-5.671,3.274a1.928,1.928,0,0,0-.8,1.538h0C205.122,229.958,205.482,230.23,205.927,229.974Z" transform="translate(-173.055 -217.442)" fill="#d4ecff"/>
          <path id="Path_11363" data-name="Path 11363" d="M200.081,233.073c0,.592.416.833.929.536a2.054,2.054,0,0,0,.93-1.61c0-.592-.416-.833-.93-.536A2.056,2.056,0,0,0,200.081,233.073Z" transform="translate(-172.042 -218.824)" fill="#fff"/>
          <path id="Path_11364" data-name="Path 11364" d="M195.978,235.442c0,.592.416.833.929.536a2.053,2.053,0,0,0,.929-1.61c0-.592-.416-.833-.929-.536A2.055,2.055,0,0,0,195.978,235.442Z" transform="translate(-171.218 -219.3)" fill="#173d7a"/>
          <path id="Path_11365" data-name="Path 11365" d="M191.875,237.811c0,.592.416.833.929.536a2.055,2.055,0,0,0,.929-1.609c0-.593-.416-.833-.929-.537A2.053,2.053,0,0,0,191.875,237.811Z" transform="translate(-170.394 -219.776)" fill="#d4ecff"/>
          <path id="Path_11366" data-name="Path 11366" d="M187.771,240.18c0,.592.416.833.929.536a2.054,2.054,0,0,0,.93-1.609c0-.593-.416-.833-.93-.537A2.056,2.056,0,0,0,187.771,240.18Z" transform="translate(-169.569 -220.252)" fill="#173d7a"/>
          <path id="Path_11367" data-name="Path 11367" d="M170.356,251.576l1.91-1.1a1.237,1.237,0,0,0,.517-.987v-2.021c0-.38-.232-.555-.517-.391l-1.91,1.1a1.237,1.237,0,0,0-.516.987v2.021C169.84,251.565,170.071,251.74,170.356,251.576Z" transform="translate(-165.967 -221.974)" fill="#173d7a"/>
        </g>
        <g id="Group_11259" data-name="Group 11259" transform="translate(36.488 51.492)">
          <path id="Path_11368" data-name="Path 11368" d="M166.627,268.158l40.314-23.275a3.913,3.913,0,0,0,1.634-3.121v-7.687c0-1.2-.732-1.756-1.634-1.235l-40.314,23.275a3.912,3.912,0,0,0-1.634,3.122v7.686C164.993,268.126,165.724,268.679,166.627,268.158Z" transform="translate(-164.993 -232.643)" fill="#645ad2"/>
          <path id="Path_11369" data-name="Path 11369" d="M168.278,266.165l38-21.939a1.984,1.984,0,0,0,.829-1.584v-5.779c0-.611-.371-.891-.829-.626l-38,21.939a1.985,1.985,0,0,0-.829,1.584v5.779C167.449,266.149,167.82,266.429,168.278,266.165Z" transform="translate(-165.486 -233.345)" fill="#d4ecff" opacity="0.4"/>
          <path id="Path_11370" data-name="Path 11370" d="M205.927,246.938l5.671-3.275a1.927,1.927,0,0,0,.8-1.537h0c0-.593-.36-.865-.8-.609l-5.671,3.275a1.928,1.928,0,0,0-.8,1.537h0C205.122,246.922,205.482,247.194,205.927,246.938Z" transform="translate(-173.055 -234.406)" fill="#d4ecff"/>
          <path id="Path_11371" data-name="Path 11371" d="M200.081,250.036c0,.593.416.833.929.537a2.054,2.054,0,0,0,.93-1.61c0-.593-.416-.833-.93-.536A2.054,2.054,0,0,0,200.081,250.036Z" transform="translate(-172.042 -235.788)" fill="#fff"/>
          <path id="Path_11372" data-name="Path 11372" d="M195.978,252.405c0,.593.416.833.929.537a2.053,2.053,0,0,0,.929-1.61c0-.593-.416-.833-.929-.536A2.055,2.055,0,0,0,195.978,252.405Z" transform="translate(-171.218 -236.264)" fill="#173d7a"/>
          <path id="Path_11373" data-name="Path 11373" d="M191.875,254.774c0,.593.416.833.929.537a2.055,2.055,0,0,0,.929-1.61c0-.593-.416-.833-.929-.536A2.053,2.053,0,0,0,191.875,254.774Z" transform="translate(-170.394 -236.74)" fill="#d4ecff"/>
          <path id="Path_11374" data-name="Path 11374" d="M187.771,257.143c0,.593.416.833.929.537a2.054,2.054,0,0,0,.93-1.61c0-.592-.416-.833-.93-.536A2.055,2.055,0,0,0,187.771,257.143Z" transform="translate(-169.569 -237.216)" fill="#173d7a"/>
          <path id="Path_11375" data-name="Path 11375" d="M170.356,268.54l1.91-1.1a1.237,1.237,0,0,0,.517-.987v-2.021c0-.38-.232-.555-.517-.39l-1.91,1.1a1.237,1.237,0,0,0-.516.987v2.021C169.84,268.529,170.071,268.7,170.356,268.54Z" transform="translate(-165.967 -238.938)" fill="#173d7a"/>
        </g>
        <g id="Group_11260" data-name="Group 11260" transform="translate(36.488 65.048)">
          <path id="Path_11376" data-name="Path 11376" d="M166.627,285.122l40.314-23.275a3.914,3.914,0,0,0,1.634-3.122v-7.687c0-1.2-.732-1.756-1.634-1.235l-40.314,23.275a3.911,3.911,0,0,0-1.634,3.121v7.687C164.993,285.09,165.724,285.643,166.627,285.122Z" transform="translate(-164.993 -249.607)" fill="#645ad2"/>
          <path id="Path_11377" data-name="Path 11377" d="M168.278,283.129l38-21.939a1.985,1.985,0,0,0,.829-1.584v-5.779c0-.611-.371-.891-.829-.626l-38,21.938a1.986,1.986,0,0,0-.829,1.584V282.5C167.449,283.112,167.82,283.392,168.278,283.129Z" transform="translate(-165.486 -250.309)" fill="#d4ecff" opacity="0.4"/>
          <path id="Path_11378" data-name="Path 11378" d="M205.927,263.9l5.671-3.274a1.928,1.928,0,0,0,.8-1.538h0c0-.592-.36-.865-.8-.608l-5.671,3.274a1.93,1.93,0,0,0-.8,1.538h0C205.122,263.886,205.482,264.158,205.927,263.9Z" transform="translate(-173.055 -251.37)" fill="#d4ecff"/>
          <path id="Path_11379" data-name="Path 11379" d="M200.081,267c0,.593.416.833.929.536a2.052,2.052,0,0,0,.93-1.609c0-.593-.416-.833-.93-.537A2.056,2.056,0,0,0,200.081,267Z" transform="translate(-172.042 -252.752)" fill="#173d7a"/>
          <path id="Path_11380" data-name="Path 11380" d="M195.978,269.369c0,.593.416.833.929.537a2.054,2.054,0,0,0,.929-1.61c0-.593-.416-.833-.929-.537A2.055,2.055,0,0,0,195.978,269.369Z" transform="translate(-171.218 -253.228)" fill="#173d7a"/>
          <path id="Path_11381" data-name="Path 11381" d="M191.875,271.738c0,.593.416.833.929.537a2.055,2.055,0,0,0,.929-1.61c0-.593-.416-.833-.929-.537A2.053,2.053,0,0,0,191.875,271.738Z" transform="translate(-170.394 -253.704)" fill="#d4ecff"/>
          <path id="Path_11382" data-name="Path 11382" d="M187.771,274.107c0,.593.416.833.929.537a2.054,2.054,0,0,0,.93-1.61c0-.593-.416-.833-.93-.536A2.053,2.053,0,0,0,187.771,274.107Z" transform="translate(-169.569 -254.18)" fill="#173d7a"/>
          <path id="Path_11383" data-name="Path 11383" d="M170.356,285.5l1.91-1.1a1.237,1.237,0,0,0,.517-.987v-2.021c0-.38-.232-.555-.517-.391l-1.91,1.1a1.237,1.237,0,0,0-.516.987v2.022C169.84,285.493,170.071,285.667,170.356,285.5Z" transform="translate(-165.967 -255.901)" fill="#d4ecff"/>
        </g>
        <g id="Group_11261" data-name="Group 11261" transform="translate(36.488 78.603)">
          <path id="Path_11384" data-name="Path 11384" d="M166.627,302.085l40.314-23.275a3.914,3.914,0,0,0,1.634-3.121V268c0-1.2-.732-1.756-1.634-1.235l-40.314,23.275a3.912,3.912,0,0,0-1.634,3.122v7.687C164.993,302.053,165.724,302.606,166.627,302.085Z" transform="translate(-164.993 -266.57)" fill="#645ad2"/>
          <path id="Path_11385" data-name="Path 11385" d="M168.278,300.092l38-21.938a1.985,1.985,0,0,0,.829-1.584V270.79c0-.61-.371-.891-.829-.626l-38,21.938a1.985,1.985,0,0,0-.829,1.584v5.779C167.449,300.076,167.82,300.356,168.278,300.092Z" transform="translate(-165.486 -267.272)" fill="#d4ecff" opacity="0.4"/>
          <path id="Path_11386" data-name="Path 11386" d="M205.927,280.865l5.671-3.274a1.928,1.928,0,0,0,.8-1.538h0c0-.593-.36-.865-.8-.608l-5.671,3.274a1.928,1.928,0,0,0-.8,1.538h0C205.122,280.849,205.482,281.122,205.927,280.865Z" transform="translate(-173.055 -268.333)" fill="#d4ecff"/>
          <path id="Path_11387" data-name="Path 11387" d="M200.081,283.964c0,.592.416.833.929.536a2.054,2.054,0,0,0,.93-1.609c0-.593-.416-.833-.93-.537A2.056,2.056,0,0,0,200.081,283.964Z" transform="translate(-172.042 -269.715)" fill="#173d7a"/>
          <path id="Path_11388" data-name="Path 11388" d="M195.978,286.333c0,.593.416.833.929.536a2.053,2.053,0,0,0,.929-1.609c0-.593-.416-.833-.929-.537A2.055,2.055,0,0,0,195.978,286.333Z" transform="translate(-171.218 -270.191)" fill="#fff"/>
          <path id="Path_11389" data-name="Path 11389" d="M191.875,288.7c0,.592.416.833.929.536a2.055,2.055,0,0,0,.929-1.609c0-.593-.416-.833-.929-.537A2.053,2.053,0,0,0,191.875,288.7Z" transform="translate(-170.394 -270.667)" fill="#d4ecff"/>
          <path id="Path_11390" data-name="Path 11390" d="M187.771,291.071c0,.593.416.833.929.536a2.054,2.054,0,0,0,.93-1.609c0-.593-.416-.833-.93-.537A2.055,2.055,0,0,0,187.771,291.071Z" transform="translate(-169.569 -271.143)" fill="#fff"/>
          <path id="Path_11391" data-name="Path 11391" d="M170.356,302.467l1.91-1.1a1.237,1.237,0,0,0,.517-.987v-2.021c0-.38-.232-.555-.517-.391l-1.91,1.1a1.237,1.237,0,0,0-.516.987v2.021C169.84,302.456,170.071,302.631,170.356,302.467Z" transform="translate(-165.967 -272.865)" fill="#d4ecff"/>
        </g>
        <g id="Group_11262" data-name="Group 11262" transform="translate(36.488 92.159)">
          <path id="Path_11392" data-name="Path 11392" d="M166.627,319.049l40.314-23.275a3.913,3.913,0,0,0,1.634-3.121v-7.687c0-1.2-.732-1.756-1.634-1.235l-40.314,23.275a3.912,3.912,0,0,0-1.634,3.122v7.687C164.993,319.017,165.724,319.57,166.627,319.049Z" transform="translate(-164.993 -283.534)" fill="#645ad2"/>
          <path id="Path_11393" data-name="Path 11393" d="M168.278,317.056l38-21.939a1.984,1.984,0,0,0,.829-1.584v-5.779c0-.61-.371-.891-.829-.626l-38,21.939a1.985,1.985,0,0,0-.829,1.584v5.779C167.449,317.04,167.82,317.32,168.278,317.056Z" transform="translate(-165.486 -284.236)" fill="#d4ecff" opacity="0.4"/>
          <path id="Path_11394" data-name="Path 11394" d="M205.927,297.829l5.671-3.274a1.93,1.93,0,0,0,.8-1.538h0c0-.593-.36-.865-.8-.609l-5.671,3.275a1.928,1.928,0,0,0-.8,1.538h0C205.122,297.813,205.482,298.085,205.927,297.829Z" transform="translate(-173.055 -285.297)" fill="#d4ecff"/>
          <path id="Path_11395" data-name="Path 11395" d="M200.081,300.927c0,.593.416.833.929.537a2.054,2.054,0,0,0,.93-1.61c0-.592-.416-.833-.93-.536A2.055,2.055,0,0,0,200.081,300.927Z" transform="translate(-172.042 -286.679)" fill="#173d7a"/>
          <path id="Path_11396" data-name="Path 11396" d="M195.978,303.3c0,.593.416.833.929.537a2.053,2.053,0,0,0,.929-1.61c0-.592-.416-.833-.929-.536A2.055,2.055,0,0,0,195.978,303.3Z" transform="translate(-171.218 -287.155)" fill="#173d7a"/>
          <path id="Path_11397" data-name="Path 11397" d="M191.875,305.666c0,.592.416.833.929.536a2.056,2.056,0,0,0,.929-1.61c0-.592-.416-.833-.929-.536A2.053,2.053,0,0,0,191.875,305.666Z" transform="translate(-170.394 -287.631)" fill="#d4ecff"/>
          <path id="Path_11398" data-name="Path 11398" d="M187.771,308.034c0,.593.416.833.929.537a2.054,2.054,0,0,0,.93-1.61c0-.592-.416-.833-.93-.536A2.055,2.055,0,0,0,187.771,308.034Z" transform="translate(-169.569 -288.107)" fill="#173d7a"/>
          <path id="Path_11399" data-name="Path 11399" d="M170.356,319.431l1.91-1.1a1.237,1.237,0,0,0,.517-.988v-2.021c0-.38-.232-.555-.517-.39l-1.91,1.1a1.237,1.237,0,0,0-.516.987v2.021C169.84,319.42,170.071,319.6,170.356,319.431Z" transform="translate(-165.967 -289.829)" fill="#173d7a"/>
        </g>
        <g id="Group_11263" data-name="Group 11263" transform="translate(36.488 105.714)">
          <path id="Path_11400" data-name="Path 11400" d="M166.627,336.013l40.314-23.275a3.914,3.914,0,0,0,1.634-3.122v-7.687c0-1.2-.732-1.756-1.634-1.235l-40.314,23.275a3.911,3.911,0,0,0-1.634,3.121v7.687C164.993,335.981,165.724,336.534,166.627,336.013Z" transform="translate(-164.993 -300.498)" fill="#645ad2"/>
          <path id="Path_11401" data-name="Path 11401" d="M168.278,334.02l38-21.939a1.985,1.985,0,0,0,.829-1.584v-5.779c0-.611-.371-.891-.829-.627l-38,21.939a1.983,1.983,0,0,0-.829,1.583v5.78C167.449,334,167.82,334.284,168.278,334.02Z" transform="translate(-165.486 -301.199)" fill="#d4ecff" opacity="0.4"/>
          <path id="Path_11402" data-name="Path 11402" d="M205.927,314.792l5.671-3.274a1.928,1.928,0,0,0,.8-1.537h0c0-.593-.36-.865-.8-.609l-5.671,3.275a1.926,1.926,0,0,0-.8,1.537h0C205.122,314.777,205.482,315.049,205.927,314.792Z" transform="translate(-173.055 -302.261)" fill="#d4ecff"/>
          <path id="Path_11403" data-name="Path 11403" d="M198.784,318.421c0,1.12.786,1.573,1.756,1.014a3.882,3.882,0,0,0,1.756-3.041c0-1.12-.786-1.573-1.756-1.013A3.88,3.88,0,0,0,198.784,318.421Z" transform="translate(-171.782 -303.439)" fill="#fff"/>
          <path id="Path_11404" data-name="Path 11404" d="M190.285,323.782c0,.593.416.833.93.537a2.055,2.055,0,0,0,.929-1.61c0-.592-.416-.833-.929-.536A2.054,2.054,0,0,0,190.285,323.782Z" transform="translate(-170.074 -304.827)" fill="#173d7a"/>
          <path id="Path_11405" data-name="Path 11405" d="M186.182,326.151c0,.593.416.833.929.537a2.053,2.053,0,0,0,.929-1.61c0-.592-.416-.833-.929-.536A2.055,2.055,0,0,0,186.182,326.151Z" transform="translate(-169.25 -305.303)" fill="#d4ecff"/>
          <path id="Path_11406" data-name="Path 11406" d="M182.079,328.521c0,.592.416.833.929.536a2.056,2.056,0,0,0,.929-1.61c0-.592-.416-.833-.929-.536A2.055,2.055,0,0,0,182.079,328.521Z" transform="translate(-168.426 -305.779)" fill="#173d7a"/>
          <path id="Path_11407" data-name="Path 11407" d="M170.356,336.394l1.91-1.1a1.237,1.237,0,0,0,.517-.987v-2.021c0-.38-.232-.555-.517-.391l-1.91,1.1a1.239,1.239,0,0,0-.516.988V336C169.84,336.384,170.071,336.559,170.356,336.394Z" transform="translate(-165.967 -306.792)" fill="#d4ecff"/>
        </g>
      </g>
      <g id="Group_11266" data-name="Group 11266" transform="translate(213.686 136.324)">
        <g id="Group_11265" data-name="Group 11265" transform="translate(0)">
          <path id="Path_11408" data-name="Path 11408" d="M251.742,192.129l-14.335-8.276,14.335-8.276,14.335,8.276Z" transform="translate(-237.407 -148.518)" fill="#173d7a" opacity="0.5"/>
          <path id="Path_11409" data-name="Path 11409" d="M269.681,168.623,255.346,176.9V160.347l14.335-8.276Z" transform="translate(-241.011 -143.796)" fill="url(#linear-gradient-86)"/>
          <path id="Path_11410" data-name="Path 11410" d="M251.742,158.267l-14.335-8.276,14.334-8.276,14.335,8.276Z" transform="translate(-237.407 -141.715)" fill="url(#linear-gradient-85)"/>
          <path id="Path_11411" data-name="Path 11411" d="M251.742,176.9l-14.335-8.276V152.071l14.335,8.276Z" transform="translate(-237.407 -143.796)" fill="url(#linear-gradient-85)"/>
        </g>
        <path id="Path_11412" data-name="Path 11412" d="M247.877,170.205l-4.009-2.315v-4.629l4.009,2.315Z" transform="translate(-238.705 -146.044)" fill="#fff"/>
      </g>
    </g>
  </g>
</svg>
