<svg xmlns="http://www.w3.org/2000/svg" xmlns:xlink="http://www.w3.org/1999/xlink" width="88" height="88" viewBox="0 0 88 88">
  <defs>
    <linearGradient id="linear-gradient" x2="1.031" y2="1.038" gradientUnits="objectBoundingBox">
      <stop offset="0" stop-color="#087be2"/>
      <stop offset="1" stop-color="#0c0f60"/>
    </linearGradient>
  </defs>
  <g id="Group_11536" data-name="Group 11536" transform="translate(-782 -3048.064)">
    <path id="Path_288" data-name="Path 288" d="M44,0A44,44,0,1,1,0,44,44,44,0,0,1,44,0Z" transform="translate(782 3048.064)" fill="#e6f1ff"/>
    <path id="Path_297" data-name="Path 297" d="M60.6,35.291c-6.384,0-25.646.22-28.838.22-.44,0-.55-.11-.55-.55.22-2.642.44-5.173.66-7.815,0-.44.22-.44.55-.44,2.972,0,15.41-.22,18.271-.22.55,0,.77.11.881.66.22,1.1.55,2.2.881,3.3.11.33.22.55.66.55H60.6c.44,0,.55-.11.44-.55-.881-3.962-1.651-8.035-2.532-12-.11-.33-.22-.55-.66-.55-5.5,0-27.847.11-33.021.11-.44,0-.881-.11-.881.55-.22,4.183-.55,8.365-.77,12.548-.22,3.852-.44,7.815-.77,11.777-.11.881.22.991.991.991H51.02c.55,0,.77.22.66.77-.33,3.192-.66,6.494-.991,9.686,0,.55-.22.77-.77.881-2.862.77-5.944,1.541-8.805,2.311-3.082-.77-6.164-1.651-9.246-2.422-.44-.11-.55-.33-.55-.77-.11-1.871-.33-3.742-.44-5.614,0-.55-.22-.66-.66-.66H22.952c-.44,0-.55.11-.55.66l.991,12.218c0,.55.11.77.66.881,5.724,1.651,11.447,3.192,17.171,4.733.11,0,11.447-3.192,17.061-4.733.33,0,.44-.22.44-.55.11-1.651.33-3.412.44-5.173.66-6.714,1.211-13.428,1.871-20.143C61.146,35.511,61.146,35.291,60.6,35.291Z" transform="translate(784.528 3049.839)" fill="url(#linear-gradient)"/>
  </g>
</svg>
