<svg xmlns="http://www.w3.org/2000/svg" xmlns:xlink="http://www.w3.org/1999/xlink" width="88" height="88" viewBox="0 0 88 88">
  <defs>
    <linearGradient id="linear-gradient" x2="1.031" y2="1.038" gradientUnits="objectBoundingBox">
      <stop offset="0" stop-color="#087be2"/>
      <stop offset="1" stop-color="#0c0f60"/>
    </linearGradient>
  </defs>
  <g id="Group_11535" data-name="Group 11535" transform="translate(-650.015 -3048.064)">
    <path id="Path_288" data-name="Path 288" d="M44,0A44,44,0,1,1,0,44,44,44,0,0,1,44,0Z" transform="translate(650.015 3048.064)" fill="#e6f1ff"/>
    <path id="Path_295" data-name="Path 295" d="M41.923,18.4H20.9l.77,8.365h32.14l-.77,8.585H22.331l.77,8.475H52.27l-.991,10.9-9.356,2.532-9.356-2.532-.66-6.714H23.542l1.1,13.208L41.923,65.95,59.2,61.217l.11-1.431L61.3,37.662l.11-2.311L62.946,18.4Z" transform="translate(652.384 3049.89)" fill="url(#linear-gradient)"/>
  </g>
</svg>
