<?xml version="1.0" encoding="utf-8"?>
<!-- Generator: Adobe Illustrator 24.2.1, SVG Export Plug-In . SVG Version: 6.00 Build 0)  -->
<svg version="1.1" id="Layer_1" xmlns="http://www.w3.org/2000/svg" xmlns:xlink="http://www.w3.org/1999/xlink" x="0px" y="0px"
	 viewBox="0 0 160 160" style="enable-background:new 0 0 160 160;" xml:space="preserve">
<style type="text/css">
	.st0{fill:url(#Path_358_1_);}
	.st1{fill:url(#Path_359_1_);}
	.st2{fill:url(#Path_360_1_);}
	.st3{fill:url(#Path_361_1_);}
	.st4{fill:url(#Path_362_1_);}
	.st5{fill:url(#Path_363_1_);}
	.st6{fill:url(#Path_364_1_);}
	.st7{fill:url(#Path_365_1_);}
	.st8{fill:url(#Path_366_1_);}
	.st9{fill:url(#Path_367_1_);}
	.st10{fill:url(#Path_368_1_);}
	.st11{fill:url(#Path_369_1_);}
	.st12{fill:url(#Path_370_1_);}
	.st13{fill:url(#Path_371_1_);}
	.st14{fill:url(#Path_372_1_);}
	.st15{fill:url(#Path_373_1_);}
	.st16{fill:url(#Path_374_1_);}
	.st17{fill:url(#Path_375_1_);}
	.st18{fill:url(#Path_376_1_);}
	.st19{fill:url(#Path_377_1_);}
	.st20{fill:url(#Path_378_1_);}
</style>
<g id="Group_4689" transform="translate(-73.528 -11.009)">
	
		<linearGradient id="Path_358_1_" gradientUnits="userSpaceOnUse" x1="-781.5817" y1="614.4023" x2="-782.1217" y2="613.7844" gradientTransform="matrix(14.848 0 0 -14.848 11806.0898 9212.0244)">
		<stop  offset="0" style="stop-color:#5E4BDD"/>
		<stop  offset="1" style="stop-color:#256ADD"/>
	</linearGradient>
	<path id="Path_358" class="st0" d="M197.2,101.3c-4.1,0-7.4-3.3-7.4-7.4c0-4.1,3.3-7.4,7.4-7.4s7.4,3.3,7.4,7.4c0,0,0,0,0,0
		C204.7,98,201.3,101.3,197.2,101.3z M197.2,89.7c-2.3,0-4.2,1.9-4.2,4.2c0,2.3,1.9,4.2,4.2,4.2s4.2-1.9,4.2-4.2
		C201.4,91.6,199.5,89.7,197.2,89.7z"/>
	
		<linearGradient id="Path_359_1_" gradientUnits="userSpaceOnUse" x1="-781.566" y1="614.3906" x2="-782.106" y2="613.7726" gradientTransform="matrix(14.838 0 0 -14.838 11785.2422 9236.623)">
		<stop  offset="0" style="stop-color:#5E4BDD"/>
		<stop  offset="1" style="stop-color:#256ADD"/>
	</linearGradient>
	<path id="Path_359" class="st1" d="M184.4,132.2c-4.1,0-7.4-3.3-7.4-7.4s3.3-7.4,7.4-7.4c4.1,0,7.4,3.3,7.4,7.4
		c0,2-0.8,3.9-2.2,5.2C188.3,131.4,186.4,132.2,184.4,132.2z M181.5,127.7c1.6,1.6,4.3,1.6,5.9,0c1.6-1.6,1.6-4.3,0-5.9
		c-1.6-1.6-4.3-1.6-5.9,0C179.8,123.5,179.8,126.1,181.5,127.7L181.5,127.7z"/>
	
		<linearGradient id="Path_360_1_" gradientUnits="userSpaceOnUse" x1="-781.5817" y1="614.4024" x2="-782.1217" y2="613.7844" gradientTransform="matrix(14.848 0 0 -14.848 11762.3818 9255.7324)">
		<stop  offset="0" style="stop-color:#5E4BDD"/>
		<stop  offset="1" style="stop-color:#256ADD"/>
	</linearGradient>
	<path id="Path_360" class="st2" d="M153.5,145c-4.1,0-7.4-3.3-7.4-7.4c0-4.1,3.3-7.4,7.4-7.4c4.1,0,7.4,3.3,7.4,7.4
		C160.9,141.7,157.6,145,153.5,145z M153.5,133.4c-2.3,0-4.2,1.9-4.2,4.2c0,2.3,1.9,4.2,4.2,4.2s4.2-1.9,4.2-4.2
		C157.7,135.3,155.8,133.4,153.5,133.4L153.5,133.4z"/>
	
		<linearGradient id="Path_361_1_" gradientUnits="userSpaceOnUse" x1="-781.566" y1="614.3906" x2="-782.106" y2="613.7726" gradientTransform="matrix(14.838 0 0 -14.838 11723.4326 9236.624)">
		<stop  offset="0" style="stop-color:#5E4BDD"/>
		<stop  offset="1" style="stop-color:#256ADD"/>
	</linearGradient>
	<path id="Path_361" class="st3" d="M122.6,132.2c-4.1,0-7.4-3.3-7.4-7.4c0-4.1,3.3-7.4,7.4-7.4c4.1,0,7.4,3.3,7.4,7.4
		c0,2-0.8,3.9-2.2,5.2C126.5,131.4,124.6,132.2,122.6,132.2z M119.7,121.8c-1.6,1.6-1.6,4.3,0,5.9c1.6,1.6,4.3,1.6,5.9,0
		s1.6-4.3,0-5.9c0,0,0,0,0,0C123.9,120.2,121.3,120.2,119.7,121.8z"/>
	
		<linearGradient id="Path_362_1_" gradientUnits="userSpaceOnUse" x1="-781.5817" y1="614.4024" x2="-782.1217" y2="613.7844" gradientTransform="matrix(14.848 0 0 -14.848 11718.6758 9212.0254)">
		<stop  offset="0" style="stop-color:#5E4BDD"/>
		<stop  offset="1" style="stop-color:#256ADD"/>
	</linearGradient>
	<path id="Path_362" class="st4" d="M109.8,101.3c-4.1,0-7.4-3.3-7.4-7.4c0-4.1,3.3-7.4,7.4-7.4s7.4,3.3,7.4,7.4
		C117.2,98,113.9,101.3,109.8,101.3z M109.8,89.7c-2.3,0-4.2,1.9-4.2,4.2c0,2.3,1.9,4.2,4.2,4.2s4.2-1.9,4.2-4.2
		C114,91.6,112.1,89.7,109.8,89.7z"/>
	
		<linearGradient id="Path_363_1_" gradientUnits="userSpaceOnUse" x1="-800.8187" y1="626.7336" x2="-801.3586" y2="626.1156" gradientTransform="matrix(86.2234 0 0 -50.093 69217.625 31487.6133)">
		<stop  offset="0" style="stop-color:#5E4BDD"/>
		<stop  offset="1" style="stop-color:#256ADD"/>
	</linearGradient>
	<path id="Path_363" class="st5" d="M148.2,137c-0.2,0-0.4,0-0.6-0.1l-20.2-8.4c-0.8-0.3-1.2-1.3-0.9-2.1c0.9-2.1-0.1-4.6-2.2-5.5
		c-1-0.4-2.2-0.4-3.2,0c-0.8,0.3-1.8-0.1-2.1-0.9l-8.4-20.2c-0.3-0.8,0-1.8,0.9-2.1c0,0,0,0,0,0c2.1-0.9,3.1-3.3,2.3-5.5
		c-0.4-1-1.2-1.8-2.3-2.3c-0.8-0.3-1.2-1.3-0.9-2.1c0.3-0.8,1.3-1.2,2.1-0.9c3.8,1.6,5.6,5.9,4,9.7c-0.5,1.3-1.4,2.4-2.6,3.2
		l7.3,17.5c4-0.7,7.9,2,8.6,6c0.1,0.8,0.1,1.7,0,2.6l17.5,7.3c2.4-3.4,7-4.2,10.3-1.8c0.7,0.5,1.3,1.1,1.8,1.8l17.5-7.3
		c-0.7-4,2-7.9,6-8.6c0.8-0.1,1.7-0.1,2.5,0l7.3-17.5c-3.4-2.4-4.2-7-1.8-10.3c0.8-1.2,1.9-2,3.2-2.6c0.8-0.3,1.8,0.1,2.1,0.9
		c0.3,0.8-0.1,1.8-0.9,2.1c-2.1,0.9-3.1,3.3-2.3,5.5c0.4,1,1.2,1.8,2.3,2.3c0.8,0.3,1.2,1.3,0.9,2.1c0,0,0,0,0,0l-8.4,20.2
		c-0.3,0.8-1.3,1.2-2.1,0.9c-2.1-0.9-4.6,0.1-5.5,2.3c-0.4,1-0.4,2.2,0,3.2c0.3,0.8,0,1.8-0.9,2.1c0,0,0,0,0,0l-20.2,8.4
		c-0.8,0.3-1.8,0-2.1-0.9c0,0,0,0,0,0c-0.9-2.1-3.3-3.1-5.5-2.3c-1,0.4-1.8,1.2-2.3,2.3C149.4,136.6,148.8,137,148.2,137z"/>
	
		<linearGradient id="Path_364_1_" gradientUnits="userSpaceOnUse" x1="-793.557" y1="626.9445" x2="-794.097" y2="626.3265" gradientTransform="matrix(30.721 0 0 -52.853 24539.7031 33207.1133)">
		<stop  offset="0" style="stop-color:#5E4BDD"/>
		<stop  offset="1" style="stop-color:#256ADD"/>
	</linearGradient>
	<path id="Path_364" class="st6" d="M161.5,114.9h-15.9c-0.9,0-1.6-0.7-1.6-1.6c0,0,0,0,0,0V90.2h-4.2c-0.9,0-1.6-0.7-1.6-1.6
		c0,0,0,0,0,0V71.1c0-5,4.1-9.1,9.1-9.1h12.6c5,0,9.1,4.1,9.1,9.1v17.4c0,0.9-0.7,1.6-1.6,1.6l0,0h-4.2v23.1
		C163.1,114.2,162.4,114.9,161.5,114.9C161.5,114.9,161.5,114.9,161.5,114.9z M147.2,111.6h12.7V88.5c0-0.9,0.7-1.6,1.6-1.6
		c0,0,0,0,0,0h4.2V71.1c0-3.2-2.6-5.8-5.8-5.8h-12.6c-3.2,0-5.8,2.6-5.8,5.8v15.8h4.2c0.9,0,1.6,0.7,1.6,1.6l0,0V111.6z"/>
	
		<linearGradient id="Path_365_1_" gradientUnits="userSpaceOnUse" x1="-698.8273" y1="621.0705" x2="-699.3672" y2="620.4525" gradientTransform="matrix(3.243 0 0 -24.0655 2420.6858 15041.9365)">
		<stop  offset="0" style="stop-color:#5E4BDD"/>
		<stop  offset="1" style="stop-color:#256ADD"/>
	</linearGradient>
	<path id="Path_365" class="st7" d="M153.5,114.9c-0.9,0-1.6-0.7-1.6-1.6l0,0V92.4c0-0.9,0.7-1.6,1.6-1.6s1.6,0.7,1.6,1.6v20.8
		C155.2,114.2,154.4,114.9,153.5,114.9C153.5,114.9,153.5,114.9,153.5,114.9z"/>
	
		<linearGradient id="Path_366_1_" gradientUnits="userSpaceOnUse" x1="-698.827" y1="618.0478" x2="-699.367" y2="617.4297" gradientTransform="matrix(3.243 0 0 -18.7805 2412.7246 11682.3203)">
		<stop  offset="0" style="stop-color:#5E4BDD"/>
		<stop  offset="1" style="stop-color:#256ADD"/>
	</linearGradient>
	<path id="Path_366" class="st8" d="M145.6,90.2c-0.9,0-1.6-0.7-1.6-1.6c0,0,0,0,0,0V73c0-0.9,0.7-1.6,1.6-1.6
		c0.9,0,1.6,0.7,1.6,1.6v15.5C147.2,89.4,146.5,90.2,145.6,90.2z"/>
	
		<linearGradient id="Path_367_1_" gradientUnits="userSpaceOnUse" x1="-698.8925" y1="618.0485" x2="-699.4325" y2="617.4305" gradientTransform="matrix(3.245 0 0 -18.7815 2430.2507 11682.9541)">
		<stop  offset="0" style="stop-color:#5E4BDD"/>
		<stop  offset="1" style="stop-color:#256ADD"/>
	</linearGradient>
	<path id="Path_367" class="st9" d="M161.5,90.2c-0.9,0-1.6-0.7-1.6-1.6c0,0,0,0,0,0V73c0-0.9,0.7-1.6,1.6-1.6
		c0.9,0,1.6,0.7,1.6,1.6v15.5C163.1,89.4,162.4,90.2,161.5,90.2C161.5,90.2,161.5,90.2,161.5,90.2z"/>
	
		<linearGradient id="Path_368_1_" gradientUnits="userSpaceOnUse" x1="-780.2543" y1="614.8507" x2="-780.7943" y2="614.2327" gradientTransform="matrix(14.0241 0 0 -15.216 11099.5303 9403.1582)">
		<stop  offset="0" style="stop-color:#5E4BDD"/>
		<stop  offset="1" style="stop-color:#256ADD"/>
	</linearGradient>
	<path id="Path_368" class="st10" d="M153.7,60.2c-1.5,0-3.8-0.7-5.5-3.9c-0.9-1.7-1.4-3.7-1.3-5.6v-1.7c0-0.3,0.1-0.6,0.2-0.8
		c0.7-1.1,3.5-3.1,6.7-3.1c3.4,0,7,2.1,7,4.1v1.6c0,2-0.4,3.9-1.3,5.6c-1.8,3.3-4.1,4-5.7,3.9C153.8,60.2,153.7,60.2,153.7,60.2z
		 M150.1,49.6v1.1c0,1.4,0.3,2.8,1,4.1c0.8,1.5,1.7,2.3,2.8,2.2c1.1,0,2.1-0.7,2.9-2.2c0.6-1.3,1-2.7,1-4.1v-1.1
		c-1.1-0.8-2.4-1.3-3.8-1.3C152.5,48.3,151.2,48.8,150.1,49.6L150.1,49.6z"/>
	
		<linearGradient id="Path_369_1_" gradientUnits="userSpaceOnUse" x1="-789.5231" y1="626.3787" x2="-790.0631" y2="625.7607" gradientTransform="matrix(22.599 0 0 -47.501 18024.5137 29829.9434)">
		<stop  offset="0" style="stop-color:#5E4BDD"/>
		<stop  offset="1" style="stop-color:#256ADD"/>
	</linearGradient>
	<path id="Path_369" class="st11" d="M180.8,114.9h-14.2c-0.9,0-1.6-0.7-1.6-1.6c0,0,0,0,0,0V93.9c0-0.9,0.7-1.6,1.6-1.6
		c0.9,0,1.6,0.7,1.6,1.6v17.7h10.9V91.2c0-0.9,0.7-1.6,1.6-1.6c0,0,0,0,0,0h3.5V75.7c0-2.8-2.3-5-5-5H171c-0.9,0-1.6-0.7-1.6-1.6
		s0.7-1.6,1.6-1.6h8.3c4.6,0,8.3,3.7,8.3,8.3v15.5c0,0.9-0.7,1.6-1.6,1.6l0,0h-3.5v20.4C182.5,114.2,181.7,114.9,180.8,114.9
		C180.8,114.9,180.8,114.9,180.8,114.9z"/>
	
		<linearGradient id="Path_370_1_" gradientUnits="userSpaceOnUse" x1="-698.7946" y1="619.9658" x2="-699.3347" y2="619.3478" gradientTransform="matrix(3.242 0 0 -21.8213 2440.0928 13625.8438)">
		<stop  offset="0" style="stop-color:#5E4BDD"/>
		<stop  offset="1" style="stop-color:#256ADD"/>
	</linearGradient>
	<path id="Path_370" class="st12" d="M173.7,114.9c-0.9,0-1.6-0.7-1.6-1.6l0,0V94.7c0-0.9,0.7-1.6,1.6-1.6c0.9,0,1.6,0.7,1.6,1.6
		c0,0,0,0,0,0v18.6C175.4,114.2,174.6,114.9,173.7,114.9z"/>
	
		<linearGradient id="Path_371_1_" gradientUnits="userSpaceOnUse" x1="-698.8925" y1="616.6955" x2="-699.4325" y2="616.0775" gradientTransform="matrix(3.245 0 0 -17.1005 2449.606 10624.8896)">
		<stop  offset="0" style="stop-color:#5E4BDD"/>
		<stop  offset="1" style="stop-color:#256ADD"/>
	</linearGradient>
	<path id="Path_371" class="st13" d="M180.8,92.8c-0.9,0-1.6-0.7-1.6-1.6c0,0,0,0,0,0V77.3c0-0.9,0.7-1.6,1.6-1.6s1.6,0.7,1.6,1.6
		v13.9C182.5,92.1,181.7,92.8,180.8,92.8z"/>
	
		<linearGradient id="Path_372_1_" gradientUnits="userSpaceOnUse" x1="-778.0426" y1="613.2731" x2="-778.5826" y2="612.6552" gradientTransform="matrix(12.8629 0 0 -13.924 10184.9561 8593.54)">
		<stop  offset="0" style="stop-color:#5E4BDD"/>
		<stop  offset="1" style="stop-color:#256ADD"/>
	</linearGradient>
	<path id="Path_372" class="st14" d="M174.2,65.9h-0.3c-1.4,0-3.5-0.6-5-3.6c-0.8-1.6-1.2-3.3-1.2-5.1v-1.5c0-0.3,0.1-0.6,0.2-0.8
		c1.5-1.8,3.8-2.8,6.2-2.8c2.8,0,6.5,1.8,6.5,3.8v1.4c0,1.8-0.4,3.5-1.2,5.1C177.7,65.2,175.7,65.9,174.2,65.9z M174,62.6
		c1,0,1.7-0.6,2.4-1.9c0.6-1.1,0.8-2.3,0.8-3.6v-0.9c-0.9-0.7-2.1-1.1-3.2-1.1c-1.1,0-2.2,0.4-3.2,1.1v0.9c0,1.2,0.3,2.5,0.8,3.6
		C172.4,62,173.1,62.6,174,62.6L174,62.6z"/>
	
		<linearGradient id="Path_373_1_" gradientUnits="userSpaceOnUse" x1="-800.0629" y1="552.1019" x2="-800.6029" y2="551.4839" gradientTransform="matrix(73.933 0 0 -3.243 59324.1562 1902.7502)">
		<stop  offset="0" style="stop-color:#5E4BDD"/>
		<stop  offset="1" style="stop-color:#256ADD"/>
	</linearGradient>
	<path id="Path_373" class="st15" d="M188.9,114.9h-70.7c-0.9,0-1.6-0.7-1.6-1.6c0-0.9,0.7-1.6,1.6-1.6h70.7c0.9,0,1.6,0.7,1.6,1.6
		C190.5,114.2,189.8,114.9,188.9,114.9z"/>
	
		<linearGradient id="Path_374_1_" gradientUnits="userSpaceOnUse" x1="-789.4848" y1="626.3455" x2="-790.0248" y2="625.7275" gradientTransform="matrix(22.598 0 0 -47.498 17978.1367 29828.0527)">
		<stop  offset="0" style="stop-color:#5E4BDD"/>
		<stop  offset="1" style="stop-color:#256ADD"/>
	</linearGradient>
	<path id="Path_374" class="st16" d="M140.4,114.9h-14.2c-0.9,0-1.6-0.7-1.6-1.6c0,0,0,0,0,0V92.8h-3.5c-0.9,0-1.6-0.7-1.6-1.6l0,0
		V75.7c0-4.6,3.7-8.3,8.3-8.3h8.3c0.9,0,1.6,0.7,1.6,1.6s-0.7,1.6-1.6,1.6l0,0h-8.3c-2.8,0-5,2.2-5,5v13.9h3.5
		c0.9,0,1.6,0.7,1.6,1.6l0,0v20.4h10.9V93.9c0-0.9,0.7-1.6,1.6-1.6s1.6,0.7,1.6,1.6v19.4C142,114.2,141.3,114.9,140.4,114.9
		C140.4,114.9,140.4,114.9,140.4,114.9z"/>
	
		<linearGradient id="Path_375_1_" gradientUnits="userSpaceOnUse" x1="-698.7946" y1="619.9658" x2="-699.3347" y2="619.3478" gradientTransform="matrix(3.242 0 0 -21.8213 2399.6707 13625.8438)">
		<stop  offset="0" style="stop-color:#5E4BDD"/>
		<stop  offset="1" style="stop-color:#256ADD"/>
	</linearGradient>
	<path id="Path_375" class="st17" d="M133.3,114.9c-0.9,0-1.6-0.7-1.6-1.6l0,0V94.7c0-0.9,0.7-1.6,1.6-1.6c0.9,0,1.6,0.7,1.6,1.6
		c0,0,0,0,0,0v18.6C134.9,114.2,134.2,114.9,133.3,114.9z"/>
	
		<linearGradient id="Path_376_1_" gradientUnits="userSpaceOnUse" x1="-698.827" y1="616.6946" x2="-699.367" y2="616.0767" gradientTransform="matrix(3.243 0 0 -17.0995 2393.3696 10624.2568)">
		<stop  offset="0" style="stop-color:#5E4BDD"/>
		<stop  offset="1" style="stop-color:#256ADD"/>
	</linearGradient>
	<path id="Path_376" class="st18" d="M126.2,92.8c-0.9,0-1.6-0.7-1.6-1.6V77.3c0-0.9,0.7-1.6,1.6-1.6s1.6,0.7,1.6,1.6l0,0v13.9
		C127.8,92.1,127.1,92.8,126.2,92.8z"/>
	
		<linearGradient id="Path_377_1_" gradientUnits="userSpaceOnUse" x1="-778.0407" y1="613.2692" x2="-778.5807" y2="612.6512" gradientTransform="matrix(12.8619 0 0 -13.921 10143.1289 8591.6465)">
		<stop  offset="0" style="stop-color:#5E4BDD"/>
		<stop  offset="1" style="stop-color:#256ADD"/>
	</linearGradient>
	<path id="Path_377" class="st19" d="M133.1,65.9h-0.3c-1.4,0-3.5-0.6-5-3.6c-0.8-1.6-1.2-3.3-1.2-5.1v-1.4c0-2,3.6-3.8,6.5-3.8
		c2.4,0,4.6,1,6.2,2.8c0.2,0.3,0.2,0.5,0.2,0.8v1.5c0,1.8-0.4,3.5-1.2,5.1C136.7,65.2,134.6,65.9,133.1,65.9z M133,62.6
		c0.9,0,1.7-0.6,2.4-1.9c0.6-1.1,0.9-2.3,0.8-3.6v-0.9c-0.9-0.7-2-1-3.2-1.1c-1.2,0-2.3,0.4-3.2,1.1v0.9c0,1.2,0.3,2.5,0.8,3.6
		C131.3,62,132.1,62.7,133,62.6z"/>
	
		<linearGradient id="Path_378_1_" gradientUnits="userSpaceOnUse" x1="-798.4925" y1="552.151" x2="-799.0325" y2="551.533" gradientTransform="matrix(55.251 0 0 -3.245 44285.5977 1912.3206)">
		<stop  offset="0" style="stop-color:#5E4BDD"/>
		<stop  offset="1" style="stop-color:#256ADD"/>
	</linearGradient>
	<path id="Path_378" class="st20" d="M179.5,123.2h-52c-0.9,0-1.6-0.7-1.6-1.6c0-0.9,0.7-1.6,1.6-1.6h52c0.9,0,1.6,0.7,1.6,1.6
		C181.1,122.5,180.4,123.2,179.5,123.2z"/>
</g>
</svg>
