<?xml version="1.0" encoding="utf-8"?>
<!-- Generator: Adobe Illustrator 24.2.1, SVG Export Plug-In . SVG Version: 6.00 Build 0)  -->
<svg version="1.1" id="Layer_1" xmlns="http://www.w3.org/2000/svg" xmlns:xlink="http://www.w3.org/1999/xlink" x="0px" y="0px"
	 viewBox="0 0 160 160" style="enable-background:new 0 0 160 160;" xml:space="preserve">
<style type="text/css">
	.st0{fill:url(#Path_332_1_);}
	.st1{fill:url(#Path_333_1_);}
	.st2{fill:url(#Path_334_1_);}
	.st3{fill:url(#Path_335_1_);}
	.st4{fill:url(#Path_336_1_);}
	.st5{fill:url(#Path_337_1_);}
	.st6{fill:url(#Path_338_1_);}
</style>
<g id="Group_4686" transform="translate(-13.634 -13.931)">
	
		<linearGradient id="Path_332_1_" gradientUnits="userSpaceOnUse" x1="-861.1506" y1="632.1841" x2="-861.6906" y2="631.5661" gradientTransform="matrix(99.9799 0 0 -100 86217.875 63282.0312)">
		<stop  offset="0" style="stop-color:#5E4BDD"/>
		<stop  offset="1" style="stop-color:#256ADD"/>
	</linearGradient>
	<path id="Path_332" class="st0" d="M93.6,143.9c-27.6,0-50-22.4-50-50c0-27.6,22.4-50,50-50c7.2,0,14.2,1.5,20.7,4.5
		c0.9,0.4,1.2,1.4,0.9,2.3c-0.4,0.9-1.4,1.2-2.3,0.9l0,0c-23.4-10.7-50.9-0.4-61.6,23s-0.4,50.9,23,61.6s50.9,0.4,61.6-23
		c4.9-10.8,5.5-23.1,1.7-34.3c-0.3-0.9,0.2-1.9,1.1-2.2c0.9-0.3,1.9,0.2,2.2,1.1c8.9,26.2-5.1,54.6-31.2,63.5
		C104.6,143,99.1,143.9,93.6,143.9L93.6,143.9z"/>
	
		<linearGradient id="Path_333_1_" gradientUnits="userSpaceOnUse" x1="-857.6641" y1="632.1841" x2="-858.2041" y2="631.566" gradientTransform="matrix(49.732 0 0 -100 42760.1484 63282.0312)">
		<stop  offset="0" style="stop-color:#5E4BDD"/>
		<stop  offset="1" style="stop-color:#256ADD"/>
	</linearGradient>
	<path id="Path_333" class="st1" d="M93.6,143.9c-13.9,0-24.9-22-24.9-50s10.9-50,24.9-50c6.8,0,13.2,5.3,17.9,15
		c0.4,0.9,0,1.9-0.9,2.3c-0.8,0.4-1.8,0-2.2-0.8c-4.1-8.4-9.3-13-14.8-13c-11.6,0-21.4,21.3-21.4,46.6s9.8,46.6,21.4,46.6
		s21.4-21.3,21.4-46.6c0-3.1-0.1-6.1-0.4-9.1c-0.1-0.9,0.6-1.8,1.6-1.9c0.9-0.1,1.8,0.6,1.9,1.6l0,0c0.3,3.1,0.4,6.2,0.4,9.4
		C118.5,122,107.6,143.9,93.6,143.9z"/>
	
		<linearGradient id="Path_334_1_" gradientUnits="userSpaceOnUse" x1="-861.1512" y1="629.6061" x2="-861.6912" y2="628.9882" gradientTransform="matrix(99.999 0 0 -49.728 86234.375 31387.9258)">
		<stop  offset="0" style="stop-color:#5E4BDD"/>
		<stop  offset="1" style="stop-color:#256ADD"/>
	</linearGradient>
	<path id="Path_334" class="st2" d="M93.6,118.8c-28,0-50-10.9-50-24.9s22-24.9,50-24.9c3.6,0,7.3,0.2,10.9,0.6
		c0.9,0.1,1.6,1,1.5,1.9c-0.1,0.9-0.9,1.6-1.9,1.5c-3.5-0.4-7-0.6-10.5-0.6c-25.2,0-46.6,9.8-46.6,21.4s21.3,21.4,46.6,21.4
		s46.6-9.8,46.6-21.4c0-4.9-3.8-9.7-10.8-13.6c-0.8-0.4-1.2-1.5-0.7-2.3c0.4-0.8,1.5-1.2,2.3-0.7c0,0,0,0,0.1,0
		c8.1,4.5,12.6,10.4,12.6,16.6C143.6,107.9,121.7,118.8,93.6,118.8z"/>
	
		<linearGradient id="Path_335_1_" gradientUnits="userSpaceOnUse" x1="-861.1512" y1="560.6923" x2="-861.6912" y2="560.0742" gradientTransform="matrix(100 0 0 -3.444 86235.2344 2023.9115)">
		<stop  offset="0" style="stop-color:#5E4BDD"/>
		<stop  offset="1" style="stop-color:#256ADD"/>
	</linearGradient>
	<path id="Path_335" class="st3" d="M141.9,95.7H45.4c-1,0-1.7-0.8-1.7-1.7s0.8-1.7,1.7-1.7h96.6c1,0,1.7,0.8,1.7,1.7
		S142.9,95.7,141.9,95.7z"/>
	
		<linearGradient id="Path_336_1_" gradientUnits="userSpaceOnUse" x1="-764.4283" y1="632.184" x2="-764.9683" y2="631.566" gradientTransform="matrix(3.444 0 0 -100 2727.2327 63282.0312)">
		<stop  offset="0" style="stop-color:#5E4BDD"/>
		<stop  offset="1" style="stop-color:#256ADD"/>
	</linearGradient>
	<path id="Path_336" class="st4" d="M93.6,143.9c-1,0-1.7-0.8-1.7-1.7l0,0V45.7c0-1,0.8-1.7,1.7-1.7s1.7,0.8,1.7,1.7l0,0v96.6
		C95.4,143.2,94.6,143.9,93.6,143.9L93.6,143.9z"/>
	
		<linearGradient id="Path_337_1_" gradientUnits="userSpaceOnUse" x1="-853.6644" y1="626.6553" x2="-854.2044" y2="626.0373" gradientTransform="matrix(31.5443 0 0 -31.564 27055.1348 19840.9609)">
		<stop  offset="0" style="stop-color:#5E4BDD"/>
		<stop  offset="1" style="stop-color:#256ADD"/>
	</linearGradient>
	<path id="Path_337" class="st5" d="M118.5,86.6c-8.7,0-15.8-7.1-15.8-15.8S109.9,55,118.6,55c1,0,2,0.1,3,0.3
		c0.9,0.2,1.5,1.1,1.3,2.1c-0.2,0.9-1.1,1.5-2,1.3c-6.7-1.3-13.2,3-14.5,9.7s3,13.2,9.7,14.5c6.7,1.3,13.2-3,14.5-9.7
		c0.2-0.8,0.2-1.6,0.2-2.4c0-0.5,0-1-0.1-1.5c-0.1-0.9,0.5-1.8,1.5-1.9c0.9-0.1,1.8,0.5,1.9,1.5c0,0,0,0,0,0.1
		c0.1,0.6,0.1,1.3,0.1,1.9C134.3,79.5,127.2,86.6,118.5,86.6z"/>
	
		<linearGradient id="Path_338_1_" gradientUnits="userSpaceOnUse" x1="-849.0868" y1="622.3295" x2="-849.6268" y2="621.7115" gradientTransform="matrix(22.165 0 0 -20.4842 18948.3789 12805.6738)">
		<stop  offset="0" style="stop-color:#5E4BDD"/>
		<stop  offset="1" style="stop-color:#256ADD"/>
	</linearGradient>
	<path id="Path_338" class="st6" d="M118.9,75.1c-0.5,0-1.1-0.3-1.4-0.7l-4.6-6.3c-0.6-0.8-0.4-1.8,0.4-2.4c0.8-0.6,1.8-0.4,2.4,0.4
		l3.3,4.5l12.7-15.3c0.6-0.7,1.7-0.9,2.4-0.3s0.9,1.7,0.3,2.4c0,0,0,0,0,0l-14.1,17C119.9,74.9,119.4,75.1,118.9,75.1z"/>
</g>
</svg>
