<?xml version="1.0" encoding="utf-8"?>
<!-- Generator: Adobe Illustrator 24.2.1, SVG Export Plug-In . SVG Version: 6.00 Build 0)  -->
<svg version="1.1" id="Layer_1" xmlns="http://www.w3.org/2000/svg" xmlns:xlink="http://www.w3.org/1999/xlink" x="0px" y="0px"
	 viewBox="0 0 160 160" style="enable-background:new 0 0 160 160;" xml:space="preserve">
<style type="text/css">
	.st0{fill:url(#Path_339_1_);}
	.st1{fill:url(#Path_340_1_);}
	.st2{fill:url(#Path_341_1_);}
	.st3{fill:url(#Path_342_1_);}
	.st4{fill:url(#Path_343_1_);}
	.st5{fill:url(#Path_344_1_);}
	.st6{fill:url(#Path_345_1_);}
	.st7{fill:url(#Path_346_1_);}
	.st8{fill:url(#Path_347_1_);}
	.st9{fill:url(#Path_348_1_);}
	.st10{fill:url(#Path_349_1_);}
</style>
<g id="Group_4687" transform="translate(-74.722 -76.834)">
	
		<linearGradient id="Path_339_1_" gradientUnits="userSpaceOnUse" x1="-797.181" y1="692.6855" x2="-797.721" y2="692.0675" gradientTransform="matrix(53.3835 0 0 -51.6363 42745.5625 35897.082)">
		<stop  offset="0" style="stop-color:#5E4BDD"/>
		<stop  offset="1" style="stop-color:#256ADD"/>
	</linearGradient>
	<path id="Path_339" class="st0" d="M162.5,169.7c-1.8,0-3.6-0.6-5.1-1.7c-3-2.2-4.3-6.1-3.1-9.6l1.3-4c0.6-1.9-0.1-4-1.7-5.2
		l-3.4-2.5c-3.8-2.8-4.7-8.2-1.9-12c1.6-2.2,4.2-3.5,6.9-3.5h4.2c2,0,3.8-1.3,4.5-3.2l1.3-4c1.5-4.5,6.3-7,10.8-5.5
		c2.6,0.8,4.7,2.9,5.5,5.5l1.3,4c0.6,1.9,2.4,3.2,4.5,3.2h4.2c4.7,0,8.6,3.8,8.6,8.6c0,2.7-1.3,5.3-3.5,6.9l-3.4,2.5
		c-1.6,1.2-2.3,3.3-1.7,5.2l1.3,4c1.5,4.5-1,9.4-5.5,10.8c-2.6,0.8-5.5,0.4-7.7-1.2l-3.4-2.5c-1.6-1.2-3.9-1.2-5.5,0l-3.4,2.5
		C166.1,169.1,164.3,169.7,162.5,169.7z M155.6,135.1c-2.6,0-4.7,2.1-4.7,4.7c0,1.5,0.7,2.9,1.9,3.8l3.4,2.5c3,2.2,4.3,6.1,3.1,9.6
		l-1.3,4c-0.8,2.5,0.5,5.1,3,5.9c1.4,0.5,3,0.2,4.2-0.7l3.4-2.5c3-2.2,7.1-2.2,10.1,0l3.4,2.5c2.1,1.5,5,1.1,6.5-1
		c0.9-1.2,1.1-2.8,0.7-4.2l-1.3-4c-1.2-3.5,0.1-7.4,3.1-9.6l3.4-2.5c2.1-1.5,2.6-4.5,1-6.5c-0.9-1.2-2.3-1.9-3.8-1.9h-4.2
		c-3.7,0-7-2.4-8.2-5.9l-1.3-4c-0.8-2.5-3.4-3.8-5.9-3c-1.4,0.5-2.5,1.6-3,3l-1.3,4c-1.1,3.5-4.4,5.9-8.2,5.9L155.6,135.1z"/>
	
		<linearGradient id="Path_340_1_" gradientUnits="userSpaceOnUse" x1="-799.1863" y1="694.366" x2="-799.7264" y2="693.748" gradientTransform="matrix(77.8 0 0 -77.8 62370.9766 54143.8359)">
		<stop  offset="0" style="stop-color:#5E4BDD"/>
		<stop  offset="1" style="stop-color:#256ADD"/>
	</linearGradient>
	<path id="Path_340" class="st1" d="M173.7,184.6c-21.5,0-38.9-17.4-38.9-38.9s17.4-38.9,38.9-38.9c21.5,0,38.9,17.4,38.9,38.9
		C212.6,167.2,195.2,184.6,173.7,184.6z M173.7,110.7c-19.3,0-35,15.7-35,35c0,19.3,15.7,35,35,35c19.3,0,35-15.7,35-35c0,0,0,0,0,0
		C208.7,126.4,193,110.7,173.7,110.7z"/>
	
		<linearGradient id="Path_341_1_" gradientUnits="userSpaceOnUse" x1="-795.8003" y1="688.3846" x2="-796.3403" y2="687.7665" gradientTransform="matrix(43.6606 0 0 -27.5125 34917.6719 19123.9551)">
		<stop  offset="0" style="stop-color:#5E4BDD"/>
		<stop  offset="1" style="stop-color:#256ADD"/>
	</linearGradient>
	<path id="Path_341" class="st2" d="M157.7,206.8c-1.1,0-1.9-0.9-2-1.9c0-0.5,0.2-1,0.6-1.4l19.1-19.1c-3.5,0.1-7-0.2-10.4-1
		l-22.7,22.7c-0.8,0.8-2,0.8-2.8,0c-0.8-0.8-0.8-2,0-2.8l23.5-23.5c0.5-0.5,1.2-0.7,1.9-0.5c5,1.4,10.3,1.5,15.4,0.5
		c1.1-0.2,2.1,0.5,2.3,1.6c0.1,0.6-0.1,1.3-0.5,1.7l-23.1,23.1C158.7,206.6,158.2,206.8,157.7,206.8z"/>
	
		<linearGradient id="Path_342_1_" gradientUnits="userSpaceOnUse" x1="-795.297" y1="689.7935" x2="-795.837" y2="689.1755" gradientTransform="matrix(41.2133 0 0 -32.6211 32924.043 22675.3867)">
		<stop  offset="0" style="stop-color:#5E4BDD"/>
		<stop  offset="1" style="stop-color:#256ADD"/>
	</linearGradient>
	<path id="Path_342" class="st3" d="M115.7,198.4c-1.1,0-1.9-0.9-2-1.9c0-0.5,0.2-1,0.6-1.4l28.7-28.7c0.8-0.8,2-0.8,2.8,0
		c0.1,0.1,0.1,0.1,0.2,0.2c2.3,3,5,5.7,8.1,7.8c0.9,0.6,1.1,1.8,0.5,2.7c-0.1,0.1-0.1,0.2-0.2,0.3l-8.1,8.1c-0.8,0.8-2,0.8-2.8,0
		c-0.8-0.8-0.8-2,0-2.8l6.5-6.5c-2.1-1.7-4-3.5-5.8-5.6L117,197.8C116.7,198.2,116.2,198.4,115.7,198.4z"/>
	
		<linearGradient id="Path_343_1_" gradientUnits="userSpaceOnUse" x1="-748.3279" y1="655.9026" x2="-748.8679" y2="655.2847" gradientTransform="matrix(6.1001 0 0 -6.098 4691.6465 4201.6221)">
		<stop  offset="0" style="stop-color:#5E4BDD"/>
		<stop  offset="1" style="stop-color:#256ADD"/>
	</linearGradient>
	<path id="Path_343" class="st4" d="M124,206.8c-1.1,0-1.9-0.9-2-1.9c0-0.5,0.2-1,0.6-1.4l2.2-2.2c0.8-0.8,2-0.8,2.8,0s0.8,2,0,2.8
		l-2.2,2.2C125.1,206.6,124.6,206.8,124,206.8z"/>
	
		<linearGradient id="Path_344_1_" gradientUnits="userSpaceOnUse" x1="-756.5543" y1="662.1473" x2="-757.0943" y2="661.5293" gradientTransform="matrix(7.1687 0 0 -7.1709 5559.8418 4940.5415)">
		<stop  offset="0" style="stop-color:#5E4BDD"/>
		<stop  offset="1" style="stop-color:#256ADD"/>
	</linearGradient>
	<path id="Path_344" class="st5" d="M132.8,198.1c-1.1,0-1.9-0.9-1.9-2c0-0.5,0.2-1,0.6-1.4l3.3-3.3c0.8-0.8,2-0.8,2.8,0
		c0.8,0.8,0.8,2,0,2.8l0,0l-3.3,3.3C133.8,197.9,133.3,198.1,132.8,198.1z"/>
	
		<linearGradient id="Path_345_1_" gradientUnits="userSpaceOnUse" x1="-748.3279" y1="655.9026" x2="-748.8679" y2="655.2847" gradientTransform="matrix(6.1001 0 0 -6.098 4710.1797 4183.084)">
		<stop  offset="0" style="stop-color:#5E4BDD"/>
		<stop  offset="1" style="stop-color:#256ADD"/>
	</linearGradient>
	<path id="Path_345" class="st6" d="M142.6,188.3c-1.1,0-1.9-0.9-2-1.9c0-0.5,0.2-1,0.6-1.4l2.2-2.2c0.8-0.8,2-0.8,2.8,0
		c0.8,0.8,0.8,2,0,2.8l-2.2,2.2C143.6,188.1,143.1,188.3,142.6,188.3z"/>
	
		<linearGradient id="Path_346_1_" gradientUnits="userSpaceOnUse" x1="-748.3279" y1="655.9027" x2="-748.868" y2="655.2847" gradientTransform="matrix(6.1001 0 0 -6.098 4692.6885 4150.1143)">
		<stop  offset="0" style="stop-color:#5E4BDD"/>
		<stop  offset="1" style="stop-color:#256ADD"/>
	</linearGradient>
	<path id="Path_346" class="st7" d="M125.1,155.3c-1.1,0-1.9-0.9-2-1.9c0-0.5,0.2-1,0.6-1.4l2.2-2.2c0.8-0.8,2-0.8,2.8,0
		c0.8,0.8,0.8,2,0,2.8l-2.2,2.2C126.1,155.1,125.6,155.3,125.1,155.3z"/>
	
		<linearGradient id="Path_347_1_" gradientUnits="userSpaceOnUse" x1="-764.9263" y1="668.4584" x2="-765.4663" y2="667.8404" gradientTransform="matrix(8.7241 0 0 -8.722 6788.6934 5993.0479)">
		<stop  offset="0" style="stop-color:#5E4BDD"/>
		<stop  offset="1" style="stop-color:#256ADD"/>
	</linearGradient>
	<path id="Path_347" class="st8" d="M110.7,169.8c-1.1,0-1.9-0.9-2-1.9c0-0.5,0.2-1,0.6-1.4l4.8-4.8c0.8-0.8,2-0.8,2.8,0
		s0.8,2,0,2.8l-4.8,4.8C111.7,169.6,111.2,169.8,110.7,169.8z"/>
	
		<linearGradient id="Path_348_1_" gradientUnits="userSpaceOnUse" x1="-748.2794" y1="655.9435" x2="-748.8193" y2="655.3255" gradientTransform="matrix(6.0947 0 0 -6.1039 4662.0854 4180.5361)">
		<stop  offset="0" style="stop-color:#5E4BDD"/>
		<stop  offset="1" style="stop-color:#256ADD"/>
	</linearGradient>
	<path id="Path_348" class="st9" d="M98.8,181.6c-1.1,0-1.9-0.9-1.9-2c0-0.5,0.2-1,0.6-1.4l2.2-2.2c0.8-0.8,2-0.8,2.8,0s0.8,2,0,2.8
		l0,0l-2.2,2.2C99.8,181.4,99.3,181.6,98.8,181.6z"/>
	
		<linearGradient id="Path_349_1_" gradientUnits="userSpaceOnUse" x1="-793.9213" y1="692.5726" x2="-794.4612" y2="691.9546" gradientTransform="matrix(35.3039 0 0 -50.7466 28162.8223 35297.5234)">
		<stop  offset="0" style="stop-color:#5E4BDD"/>
		<stop  offset="1" style="stop-color:#256ADD"/>
	</linearGradient>
	<path id="Path_349" class="st10" d="M107.2,190c-1.1,0-1.9-0.9-1.9-1.9c0-0.5,0.2-1,0.6-1.4l30.6-30.6c-0.9-3.2-1.4-6.6-1.4-9.9
		l-6.3,6.3c-0.8,0.7-2,0.7-2.8-0.1c-0.7-0.7-0.7-1.9,0-2.7l9.9-9.9c0.8-0.8,2-0.8,2.8,0c0.4,0.4,0.6,1,0.6,1.6
		c-0.6,4.9-0.2,9.9,1.3,14.6c0.2,0.7,0,1.5-0.5,2l-31.4,31.4C108.3,189.8,107.8,190,107.2,190z"/>
</g>
</svg>
