<svg xmlns="http://www.w3.org/2000/svg" width="110" height="110" viewBox="0 0 110 110">
  <g id="Group_11529" data-name="Group 11529" opacity="0.2">
    <g id="Group_11519" data-name="Group 11519" transform="translate(22.917 22.917)">
      <path id="Path_12022" data-name="Path 12022" d="M145.625,193.75h-13.75c-3.208,0-6.875-2.75-6.875-8.25v-9.625c0-4.583-2.292-8.708-5.958-11.917a31.682,31.682,0,0,1-12.375-25.667,32.618,32.618,0,0,1,31.625-31.625,32.212,32.212,0,0,1,22.917,9.167,32.629,32.629,0,0,1,9.625,22.917,30.824,30.824,0,0,1-11.917,24.75,16.734,16.734,0,0,0-6.417,12.833v10.542a7.049,7.049,0,0,1-6.875,6.875Zm-6.875-82.5c-14.667,0-27.042,12.375-27.5,27.042,0,8.708,3.667,16.958,10.542,22a19.974,19.974,0,0,1,7.792,15.583V185.5c0,.917,0,3.667,2.292,3.667h13.75a2.165,2.165,0,0,0,2.292-2.292V176.334c0-5.958,3.208-12.375,8.25-16.5A26.726,26.726,0,0,0,166.25,138.75,27.4,27.4,0,0,0,158,119.042a27.017,27.017,0,0,0-19.25-7.792Z" transform="translate(-106.667 -106.667)" fill="#fff"/>
    </g>
    <g id="Group_11520" data-name="Group 11520" transform="translate(41.25 91.667)">
      <path id="Path_12023" data-name="Path 12023" d="M217.208,431.25H194.292a2.292,2.292,0,1,1,0-4.583h22.917a2.292,2.292,0,1,1,0,4.583Z" transform="translate(-192 -426.667)" fill="#fff"/>
    </g>
    <g id="Group_11521" data-name="Group 11521" transform="translate(52.708)">
      <path id="Path_12024" data-name="Path 12024" d="M247.625,13.75a2.165,2.165,0,0,1-2.292-2.292V2.292a2.292,2.292,0,0,1,4.583,0v9.167A2.165,2.165,0,0,1,247.625,13.75Z" transform="translate(-245.333)" fill="#fff"/>
    </g>
    <g id="Group_11522" data-name="Group 11522" transform="translate(83.187 15.812)">
      <path id="Path_12025" data-name="Path 12025" d="M389.721,84.371a2.756,2.756,0,0,1-1.833-.458,2.215,2.215,0,0,1,0-3.208l6.417-6.417a2.269,2.269,0,0,1,3.208,3.208L391.1,83.912a4.616,4.616,0,0,1-1.375.458Z" transform="translate(-387.2 -73.6)" fill="#fff"/>
    </g>
    <g id="Group_11523" data-name="Group 11523" transform="translate(96.25 52.708)">
      <path id="Path_12026" data-name="Path 12026" d="M459.458,249.916h-9.167a2.292,2.292,0,1,1,0-4.583h9.167a2.292,2.292,0,1,1,0,4.583Z" transform="translate(-448 -245.333)" fill="#fff"/>
    </g>
    <g id="Group_11524" data-name="Group 11524" transform="translate(83.187 83.646)">
      <path id="Path_12027" data-name="Path 12027" d="M396.137,400.1a2.755,2.755,0,0,1-1.833-.458l-6.417-6.417a2.269,2.269,0,0,1,3.208-3.208l6.417,6.417a2.215,2.215,0,0,1,0,3.208c0,.458-.458.458-1.375.458Z" transform="translate(-387.2 -389.333)" fill="#fff"/>
    </g>
    <g id="Group_11525" data-name="Group 11525" transform="translate(15.354 83.646)">
      <path id="Path_12028" data-name="Path 12028" d="M73.988,400.1a2.755,2.755,0,0,1-1.833-.458,2.215,2.215,0,0,1,0-3.208l6.417-6.417a2.269,2.269,0,0,1,3.208,3.208l-6.417,6.417A1.683,1.683,0,0,1,73.988,400.1Z" transform="translate(-71.467 -389.333)" fill="#fff"/>
    </g>
    <g id="Group_11526" data-name="Group 11526" transform="translate(0 52.708)">
      <path id="Path_12029" data-name="Path 12029" d="M11.458,249.916H2.292a2.292,2.292,0,0,1,0-4.583h9.167a2.292,2.292,0,0,1,0,4.583Z" transform="translate(0 -245.333)" fill="#fff"/>
    </g>
    <g id="Group_11527" data-name="Group 11527" transform="translate(15.354 15.354)">
      <path id="Path_12030" data-name="Path 12030" d="M80.4,82.7a2.756,2.756,0,0,1-1.833-.458l-6.417-6.875a2.269,2.269,0,0,1,3.208-3.208l6.417,6.417a2.216,2.216,0,0,1,0,3.208c-.458.458-.917.917-1.375.917Z" transform="translate(-71.467 -71.467)" fill="#fff"/>
    </g>
    <g id="Group_11528" data-name="Group 11528" transform="translate(52.708 34.375)">
      <path id="Path_12031" data-name="Path 12031" d="M265.958,182.917a2.165,2.165,0,0,1-2.292-2.292,16.24,16.24,0,0,0-16.042-16.042,2.292,2.292,0,1,1,0-4.583,20.539,20.539,0,0,1,20.625,20.625A2.165,2.165,0,0,1,265.958,182.917Z" transform="translate(-245.333 -160)" fill="#fff"/>
    </g>
  </g>
</svg>
