<svg xmlns="http://www.w3.org/2000/svg" width="330" height="296" viewBox="0 0 330 296"><g transform="translate(-1231 -1377)"><rect width="330" height="296" transform="translate(1231 1377)" fill="rgba(255,234,234,0)" opacity="0.96"/><g transform="translate(-826.805 1352.397)"><circle cx="124.311" cy="124.311" r="124.311" transform="translate(2105.387 32.603)" fill="#abd7fd" style="isolation:isolate"/><g transform="translate(2131.885 82.229)" style="isolation:isolate"><path d="M2192.632,219.136h64.177a9.643,9.643,0,0,1,9.644,9.643v39.289a9.643,9.643,0,0,0,9.643,9.644h0a9.646,9.646,0,0,0,6.819-2.824L2307,250.8a9.644,9.644,0,0,1,6.819-2.824h10.12a9.644,9.644,0,0,0,6.819-2.824l14.473-14.473a9.644,9.644,0,0,0,2.824-6.819V216.87a9.644,9.644,0,0,1,2.825-6.819l13.131-13.132a9.643,9.643,0,0,0,2.825-6.819V154.716a9.643,9.643,0,0,0-2.825-6.819l-25.427-25.428a9.643,9.643,0,0,0-6.819-2.825h-81.441a9.645,9.645,0,0,0-6.819,2.825L2226.8,139.178a9.643,9.643,0,0,1-6.819,2.824h-16.6a9.642,9.642,0,0,0-6.819,2.824l-27.1,27.1a9.643,9.643,0,0,0-2.825,6.819v15.695a9.643,9.643,0,0,0,3.116,7.1l16.362,15.047A9.644,9.644,0,0,0,2192.632,219.136Z" transform="translate(-2166.626 -119.645)" fill="#063e85"/></g><g transform="translate(2183.296 162.451)" style="isolation:isolate"><g transform="translate(0)"><rect width="4.514" height="137.098" fill="#063e85"/></g><g transform="translate(6.69)"><rect width="6.207" height="137.098" fill="#063e85"/></g><g transform="translate(15.315)"><rect width="8.383" height="137.098" fill="#063e85"/></g><g transform="translate(26.842)"><rect width="9.431" height="137.098" fill="#063e85"/></g><g transform="translate(85.241)"><rect width="4.514" height="137.098" fill="#063e85"/></g><g transform="translate(76.858)"><rect width="6.207" height="137.098" fill="#063e85"/></g><g transform="translate(66.057)"><rect width="8.383" height="137.098" fill="#063e85"/></g><g transform="translate(53.482)"><rect width="9.431" height="137.098" fill="#063e85"/></g><g transform="translate(38.691)"><rect width="12.171" height="137.098" fill="#063e85"/></g></g><g transform="translate(2146.441 299.549)" style="isolation:isolate"><rect width="162.454" height="6.105" fill="#063e85"/></g><g transform="translate(2170.597 308.077)" style="isolation:isolate"><g transform="translate(0 0)"><rect width="114.143" height="4.37" fill="#063e85"/></g></g><path d="M2191.752,204.545h62.007a9.317,9.317,0,0,1,9.317,9.317v37.961a9.318,9.318,0,0,0,9.318,9.317h0a9.317,9.317,0,0,0,6.589-2.729l23.272-23.272a9.316,9.316,0,0,1,6.588-2.729h9.779a9.319,9.319,0,0,0,6.589-2.729l13.983-13.983a9.317,9.317,0,0,0,2.729-6.589v-6.755a9.318,9.318,0,0,1,2.729-6.589l12.688-12.687a9.318,9.318,0,0,0,2.729-6.589V142.3a9.317,9.317,0,0,0-2.729-6.589l-24.568-24.568a9.318,9.318,0,0,0-6.589-2.729H2247.5a9.317,9.317,0,0,0-6.589,2.729l-16.143,16.143a9.319,9.319,0,0,1-6.589,2.729h-16.043a9.317,9.317,0,0,0-6.589,2.729l-26.188,26.188a9.318,9.318,0,0,0-2.729,6.589V180.69a9.319,9.319,0,0,0,3.01,6.858l15.809,14.538A9.318,9.318,0,0,0,2191.752,204.545Z" transform="translate(-34.741 -32.59)" fill="#fd6d50" style="isolation:isolate"/><path d="M2278.385,259.187a1.373,1.373,0,0,1-1.372-1.372V219.854a17.283,17.283,0,0,0-17.263-17.263h-62.007a1.365,1.365,0,0,1-.928-.362l-15.809-14.538a1.377,1.377,0,0,1-.444-1.01V171.516a1.36,1.36,0,0,1,.4-.97l26.188-26.188a1.379,1.379,0,0,1,.97-.4h16.043a17.15,17.15,0,0,0,12.206-5.056l16.144-16.144a1.38,1.38,0,0,1,.969-.4h78.688a1.381,1.381,0,0,1,.97.4l24.568,24.568a1.383,1.383,0,0,1,.4.97v34.188a1.381,1.381,0,0,1-.4.97l-12.687,12.687a17.15,17.15,0,0,0-5.056,12.207V215.1a1.361,1.361,0,0,1-.4.97l-13.983,13.983a1.382,1.382,0,0,1-.97.4h-9.778a17.152,17.152,0,0,0-12.208,5.056l-23.272,23.272A1.362,1.362,0,0,1,2278.385,259.187Zm-70.263-114.54a.684.684,0,0,0-.481.2l-26.189,26.188a.676.676,0,0,0-.2.481v15.165a.686.686,0,0,0,.22.5l15.809,14.538a.678.678,0,0,0,.461.18h62.007a17.975,17.975,0,0,1,17.955,17.954v37.961a.68.68,0,0,0,1.162.481l23.272-23.272a17.838,17.838,0,0,1,12.7-5.258h9.778a.686.686,0,0,0,.481-.2l13.983-13.983a.674.674,0,0,0,.2-.481v-6.755a17.839,17.839,0,0,1,5.258-12.7l12.688-12.687a.683.683,0,0,0,.2-.481V148.295a.685.685,0,0,0-.2-.482l-24.568-24.568a.687.687,0,0,0-.481-.2h-78.688a.687.687,0,0,0-.481.2l-16.144,16.144a17.838,17.838,0,0,1-12.695,5.258Z" transform="translate(-40.732 -38.581)" fill="#fff"/><g transform="translate(2330.192 191.704)"><g transform="translate(0)"><rect width="29.711" height="15.431" rx="6.261"/></g><rect width="9.903" height="0.691" transform="translate(4.088 4.203)" fill="#fff"/><rect width="2.246" height="0.691" transform="translate(16.467 4.203)" fill="#fff"/><rect width="2.879" height="0.691" transform="translate(21.016 4.203)" fill="#fff"/><rect width="6.161" height="0.691" transform="translate(10.767 7.082)" fill="#fff"/><rect width="1.209" height="0.691" transform="translate(19.116 7.082)" fill="#fff"/><rect width="1.612" height="0.691" transform="translate(5.009 10.364)" fill="#fff"/><rect width="3.052" height="0.691" transform="translate(8.407 10.364)" fill="#fff"/></g><g transform="translate(2210.138 44.705)"><g transform="translate(0 0)"><rect width="29.711" height="15.431" rx="6.261"/></g><rect width="10.652" height="0.691" transform="translate(5.326 4.347)" fill="#fff"/><rect width="1.526" height="0.691" transform="translate(17.533 4.347)" fill="#fff"/><rect width="7.917" height="0.691" transform="translate(13.243 6.679)" fill="#fff"/><rect width="1.151" height="0.691" transform="translate(22.484 6.679)" fill="#fff"/><rect width="1.842" height="0.691" transform="translate(18.656 10.422)" fill="#fff"/><rect width="0.892" height="0.691" transform="translate(16.439 10.422)" fill="#fff"/></g><g transform="translate(2100.661 94.999)"><g transform="translate(0 0)"><rect width="29.711" height="15.431" rx="6.261"/></g><rect width="7.989" height="0.691" transform="translate(5.427 4.277)" fill="#fff"/><rect width="0.993" height="0.691" transform="translate(15.446 4.277)" fill="#fff"/><rect width="3.217" height="0.691" transform="translate(15.942 6.652)" fill="#fff"/><rect width="2.461" height="0.691" transform="translate(11.386 6.652)" fill="#fff"/><rect width="2.721" height="0.691" transform="translate(20.498 11.402)" fill="#fff"/><rect width="1.252" height="0.691" transform="translate(24.773 11.402)" fill="#fff"/></g><g transform="translate(2137.281 202.414)"><g transform="translate(0)"><rect width="29.711" height="15.431" rx="6.261"/></g><rect width="3.627" height="0.691" transform="translate(4.146 4.637)" fill="#fff"/><rect width="4.685" height="0.691" transform="translate(9.421 4.637)" fill="#fff"/><rect width="2.188" height="0.691" transform="translate(18.31 4.637)" fill="#fff"/><rect width="4.894" height="0.691" transform="translate(13.185 7.37)" fill="#fff"/><rect width="1.555" height="0.691" transform="translate(19.404 7.37)" fill="#fff"/><rect width="4.275" height="0.691" transform="translate(20.498 11.201)" fill="#fff"/></g><g transform="translate(2085.805 161.263)"><g transform="translate(0)"><rect width="29.711" height="15.431" rx="6.261"/></g><rect width="5.528" height="0.691" transform="translate(4.146 4.867)" fill="#fff"/><rect width="1.324" height="0.691" transform="translate(11.746 4.867)" fill="#fff"/><rect width="2.044" height="0.691" transform="translate(12.408 8.034)" fill="#fff"/><rect width="0.748" height="0.691" transform="translate(16.583 8.034)" fill="#fff"/><rect width="11.228" height="0.691" transform="translate(8.752 10.797)" fill="#fff"/></g><g transform="translate(2325.269 79.169)"><rect width="29.711" height="15.431" rx="6.261"/><rect width="11.171" height="0.691" transform="translate(4.146 4.061)" fill="#fff"/><rect width="2.188" height="0.691" transform="translate(18.483 4.061)" fill="#fff"/><rect width="5.873" height="0.691" transform="translate(11.458 6.679)" fill="#fff"/><rect width="1.555" height="0.691" transform="translate(19.116 6.679)" fill="#fff"/><rect width="2.937" height="0.691" transform="translate(5.816 10.711)" fill="#fff"/><rect width="2.793" height="0.691" transform="translate(22.456 10.711)" fill="#fff"/></g><g transform="translate(2192.622 91.289)"><circle cx="29.099" cy="29.099" r="29.099" transform="translate(0 41.152) rotate(-45)" fill="#1e2e41"/><g transform="translate(24.919 20.682)"><path d="M2338.045,210.325h-6.108l-1.045-6.988h-7.428l-1.045,6.988h-5.557l6.163-38.515h8.858Zm-13.811-12.215h5.833l-2.917-19.477Z" transform="translate(-2316.862 -171.81)" fill="#fff"/><path d="M2358.939,171.81h6.052v38.515h-6.052Z" transform="translate(-2334.949 -171.81)" fill="#fff"/></g></g><path d="M2214.556,211.512h-8.982a.346.346,0,0,1-.245-.1L2191.2,197.282a.345.345,0,0,1,.489-.489l14.027,14.027h8.839a.346.346,0,0,1,0,.691Z" transform="translate(-45.262 -70.535)" fill="#fff"/><path d="M2209.245,202.659a.345.345,0,0,1-.245-.1l-11.537-11.537a.345.345,0,1,1,.488-.489l11.538,11.538a.346.346,0,0,1-.244.59Z" transform="translate(-47.953 -67.843)" fill="#fff"/><path d="M2228.606,181.549a.344.344,0,0,1-.244-.1L2217.7,170.784a.345.345,0,1,1,.489-.489l10.663,10.663a.346.346,0,0,1-.244.59Z" transform="translate(-56.652 -59.145)" fill="#fff"/><path d="M2189.815,240.573a.345.345,0,0,1-.244-.59l4.87-4.87a.346.346,0,0,1,.244-.1h18.825a.345.345,0,0,1,0,.691h-18.681l-4.77,4.769A.342.342,0,0,1,2189.815,240.573Z" transform="translate(-44.561 -87.007)" fill="#fff"/><path d="M2197.707,247.831a.345.345,0,0,1-.244-.59l4.869-4.87a.344.344,0,0,1,.244-.1H2216.9a.346.346,0,0,1,0,.691H2202.72l-4.768,4.768A.345.345,0,0,1,2197.707,247.831Z" transform="translate(-47.953 -90.127)" fill="#fff"/><path d="M2205.682,255.715a.345.345,0,0,1-.244-.59l4.138-4.139a.345.345,0,0,1,.489.488l-4.138,4.139A.345.345,0,0,1,2205.682,255.715Z" transform="translate(-51.381 -93.83)" fill="#fff"/><path d="M2266.936,179.256h-5.17a.344.344,0,0,1-.245-.1L2243.2,160.832a.346.346,0,0,1,.489-.489l18.221,18.221h5.027a.346.346,0,0,1,0,.691Z" transform="translate(-67.613 -54.867)" fill="#fff"/><path d="M2244.2,247.031a.345.345,0,0,1-.346-.345v-4.924a.343.343,0,0,1,.1-.244l15.676-15.676a.346.346,0,1,1,.489.489L2244.546,241.9v4.781A.345.345,0,0,1,2244.2,247.031Z" transform="translate(-67.939 -83.021)" fill="#fff"/><path d="M2256.539,247.436a.345.345,0,0,1-.345-.346v-3.8a.347.347,0,0,1,.1-.245l16.262-16.261a.343.343,0,0,1,.244-.1h2.788a.346.346,0,0,1,0,.691h-2.645l-16.058,16.059v3.659A.346.346,0,0,1,2256.539,247.436Z" transform="translate(-73.242 -83.426)" fill="#fff"/><path d="M2268.273,252.479a.345.345,0,0,1-.345-.345v-3.628a.346.346,0,0,1,.1-.245l9.745-9.745a.346.346,0,0,1,.489.489l-9.644,9.644v3.485A.345.345,0,0,1,2268.273,252.479Z" transform="translate(-78.287 -88.469)" fill="#fff"/><path d="M2294.037,258.459a.345.345,0,0,1-.346-.346v-5.443a.345.345,0,1,1,.691,0v5.443A.345.345,0,0,1,2294.037,258.459Z" transform="translate(-89.361 -94.449)" fill="#fff"/><path d="M2303.618,259.957a.345.345,0,0,1-.345-.345v-3.456a.345.345,0,1,1,.691,0v3.456A.345.345,0,0,1,2303.618,259.957Z" transform="translate(-93.48 -95.947)" fill="#fff"/><path d="M2272.91,170.869h-3.02a.345.345,0,0,1-.245-.1l-9.935-9.935a.345.345,0,0,1,.488-.489l9.834,9.834h2.877a.345.345,0,1,1,0,.691Z" transform="translate(-74.711 -54.867)" fill="#fff"/><path d="M2286.794,160.067a.342.342,0,0,1-.244-.1l-8.178-8.178a.346.346,0,1,1,.489-.489l8.177,8.178a.346.346,0,0,1-.245.59Z" transform="translate(-82.732 -50.979)" fill="#fff"/><path d="M2295.157,156.369a.342.342,0,0,1-.244-.1l-10.51-10.51a.345.345,0,1,1,.488-.489l10.51,10.51a.346.346,0,0,1-.244.59Z" transform="translate(-85.325 -48.387)" fill="#fff"/><path d="M2308.441,143.82a.345.345,0,0,1-.346-.346v-3.355l-9.027-9.027a.346.346,0,0,1,.489-.489l9.128,9.128a.347.347,0,0,1,.1.245v3.5A.345.345,0,0,1,2308.441,143.82Z" transform="translate(-91.629 -42.083)" fill="#fff"/><path d="M2325.154,139.427H2318a.346.346,0,0,1-.245-.1l-13.46-13.46a.345.345,0,0,1,.489-.488l13.359,13.358h7.012a.346.346,0,1,1,0,.691Z" transform="translate(-93.876 -39.836)" fill="#fff"/><path d="M2335.775,132.906h-3.3a.347.347,0,0,1-.245-.1l-9.86-9.86a.345.345,0,0,1,.489-.489l9.759,9.759h3.154a.346.346,0,1,1,0,.691Z" transform="translate(-101.646 -38.581)" fill="#fff"/><path d="M2363.986,136.431a.345.345,0,0,1-.345-.346V122.7a.346.346,0,0,1,.691,0v13.385A.345.345,0,0,1,2363.986,136.431Z" transform="translate(-119.429 -38.581)" fill="#fff"/><path d="M2371.247,130.846a.346.346,0,0,1-.346-.345v-7.8a.346.346,0,0,1,.691,0v7.8A.345.345,0,0,1,2371.247,130.846Z" transform="translate(-122.55 -38.581)" fill="#fff"/><path d="M2384.21,141.962a.345.345,0,0,1-.245-.59l5.809-5.809V122.7a.345.345,0,1,1,.691,0v13.006a.349.349,0,0,1-.1.245l-5.91,5.91A.344.344,0,0,1,2384.21,141.962Z" transform="translate(-128.123 -38.581)" fill="#fff"/><path d="M2398.024,140.625a.345.345,0,0,1-.244-.59l3.575-3.575V122.7a.345.345,0,1,1,.691,0v13.9a.348.348,0,0,1-.1.245l-3.677,3.676A.344.344,0,0,1,2398.024,140.625Z" transform="translate(-134.06 -38.581)" fill="#fff"/><path d="M2413.663,129.738a.345.345,0,0,1-.346-.346V122.7a.345.345,0,1,1,.69,0v6.692A.345.345,0,0,1,2413.663,129.738Z" transform="translate(-140.783 -38.581)" fill="#fff"/><path d="M2407.1,155.45h-9.075a.345.345,0,0,1,0-.691h8.933l23.657-23.656a.345.345,0,0,1,.488.489l-23.758,23.757A.342.342,0,0,1,2407.1,155.45Z" transform="translate(-134.06 -42.298)" fill="#fff"/><path d="M2410.636,163.972h-4.75a.346.346,0,0,1,0-.691h4.607l26.65-26.65a.345.345,0,1,1,.489.489L2410.88,163.87A.344.344,0,0,1,2410.636,163.972Z" transform="translate(-137.44 -44.673)" fill="#fff"/><path d="M2429.77,135.6a.345.345,0,0,1-.244-.59l10.8-10.8a.345.345,0,1,1,.489.489l-10.8,10.8A.347.347,0,0,1,2429.77,135.6Z" transform="translate(-147.707 -39.334)" fill="#fff"/><path d="M2419.924,184.976a.346.346,0,0,1-.346-.345v-7.687a.345.345,0,0,1,.1-.244l29.516-29.516a.346.346,0,0,1,.489.489l-29.415,29.414v7.544A.345.345,0,0,1,2419.924,184.976Z" transform="translate(-143.474 -49.21)" fill="#fff"/><path d="M2443.068,177.361a.346.346,0,0,1-.245-.59l21.138-21.138a.345.345,0,0,1,.488.489l-21.137,21.138A.344.344,0,0,1,2443.068,177.361Z" transform="translate(-153.423 -52.842)" fill="#fff"/><path d="M2442.63,209.246a.345.345,0,0,1-.244-.59l9.855-9.855a.347.347,0,0,1,.245-.1h17.785a.346.346,0,1,1,0,.691h-17.642l-9.754,9.754A.344.344,0,0,1,2442.63,209.246Z" transform="translate(-153.235 -71.398)" fill="#fff"/><path d="M2481.608,208.034H2469a.346.346,0,0,1,0-.691h12.6a.346.346,0,0,1,0,.691Z" transform="translate(-164.572 -75.113)" fill="#fff"/><path d="M2452.2,246.227a.344.344,0,0,1-.244-.1l-9.762-9.762h-8.687a.345.345,0,0,1,0-.691h8.829a.347.347,0,0,1,.245.1l9.864,9.863a.345.345,0,0,1-.244.59Z" transform="translate(-149.315 -87.291)" fill="#fff"/><path d="M2468.858,242.114a.344.344,0,0,1-.244-.1l-5.826-5.826a.346.346,0,1,1,.489-.489l5.825,5.826a.345.345,0,0,1-.244.59Z" transform="translate(-162.005 -87.258)" fill="#fff"/><path d="M2346.907,275.011a.342.342,0,0,1-.244-.1.346.346,0,0,1,0-.489l6.391-6.391a.346.346,0,0,1,.245-.1h7.773a.346.346,0,0,1,0,.691h-7.63l-6.29,6.29A.344.344,0,0,1,2346.907,275.011Z" transform="translate(-112.088 -101.156)" fill="#fff"/><path d="M2349.989,286.762a.346.346,0,0,1-.244-.59l5.854-5.854a.346.346,0,0,1,.245-.1h3.185a.345.345,0,0,1,0,.691h-3.042l-5.753,5.753A.343.343,0,0,1,2349.989,286.762Z" transform="translate(-113.412 -106.439)" fill="#fff"/><path d="M2399.1,298.558a.344.344,0,0,1-.244-.1l-10.623-10.623a.345.345,0,0,1-.1-.245v-8.1a.346.346,0,0,1,.691,0v7.961l10.521,10.522a.345.345,0,0,1-.244.59Z" transform="translate(-129.955 -105.975)" fill="#fff"/><path d="M2388.125,310.545a.343.343,0,0,1-.244-.1l-10.593-10.593a.346.346,0,0,1,.489-.489l10.593,10.593a.346.346,0,0,1-.245.59Z" transform="translate(-125.252 -114.625)" fill="#fff"/><path d="M2378.015,324.615a.346.346,0,0,1-.244-.1l-7.84-7.84a.345.345,0,0,1,.488-.489l7.84,7.84a.345.345,0,0,1-.244.59Z" transform="translate(-122.09 -121.856)" fill="#fff"/><path d="M2368.685,338.341a.344.344,0,0,1-.244-.1l-4.925-4.924a.346.346,0,1,1,.489-.489l4.924,4.924a.346.346,0,0,1-.244.59Z" transform="translate(-119.332 -129.01)" fill="#fff"/><path d="M2358.008,307.248h-7.93a.346.346,0,1,1,0-.691h7.93a.346.346,0,0,1,0,.691Z" transform="translate(-113.451 -117.761)" fill="#fff"/><path d="M2428.433,280.007a.344.344,0,0,1-.244-.1l-24.34-24.339a.346.346,0,0,1,.489-.489l24.339,24.339a.346.346,0,0,1-.244.59Z" transform="translate(-136.669 -95.589)" fill="#fff"/><path d="M2442.712,279.923a.343.343,0,0,1-.244-.1L2427.542,264.9a.345.345,0,1,1,.489-.488l14.926,14.925a.346.346,0,0,1-.245.59Z" transform="translate(-146.854 -99.6)" fill="#fff"/><path d="M2433.255,299.826a.345.345,0,0,1-.244-.1l-8-8a.345.345,0,0,1,.489-.489l8,8a.345.345,0,0,1-.245.59Z" transform="translate(-145.767 -111.133)" fill="#fff"/><path d="M2483.581,192.621H2479a.345.345,0,0,1-.345-.346v-3.153a.345.345,0,0,1,.345-.346h4.578a.345.345,0,0,1,.345.346v3.153A.345.345,0,0,1,2483.581,192.621Zm-4.232-.691h3.887v-2.462h-3.887Z" transform="translate(-168.87 -67.132)" fill="#fff"/><path d="M2294.293,247.052h-2.677a.345.345,0,0,1-.346-.345v-2.084a.345.345,0,0,1,.346-.346h2.677a.345.345,0,0,1,.345.346v2.084A.345.345,0,0,1,2294.293,247.052Zm-2.332-.691h1.987v-1.393h-1.987Z" transform="translate(-88.32 -90.99)" fill="#fff"/><path d="M2191.086,220.807h-3.542a.345.345,0,0,1-.345-.346v-3.541a.345.345,0,0,1,.345-.346h3.542a.345.345,0,0,1,.345.346v3.541A.345.345,0,0,1,2191.086,220.807Zm-3.2-.691h2.85v-2.85h-2.85Z" transform="translate(-43.585 -79.082)" fill="#fff"/><path d="M2200.444,226.175h-1.588a.345.345,0,0,1-.345-.345v-1.588a.345.345,0,0,1,.345-.346h1.588a.345.345,0,0,1,.345.346v1.588A.345.345,0,0,1,2200.444,226.175Zm-1.242-.691h.9v-.9h-.9Z" transform="translate(-48.447 -82.229)" fill="#fff"/><path d="M2212.78,189.883h-5.643a.345.345,0,0,1-.346-.346v-3.57a.345.345,0,0,1,.346-.346h5.643a.345.345,0,0,1,.345.346v3.57A.345.345,0,0,1,2212.78,189.883Zm-5.3-.691h4.952v-2.879h-4.952Z" transform="translate(-52.007 -65.776)" fill="#fff"/><path d="M2279.509,217.424h-4.2a.345.345,0,0,1-.345-.346V213.74a.345.345,0,0,1,.345-.346h4.2a.345.345,0,0,1,.345.346v3.339A.345.345,0,0,1,2279.509,217.424Zm-3.858-.691h3.512v-2.648h-3.512Z" transform="translate(-81.31 -77.714)" fill="#fff"/><path d="M2278.057,207.749h-1.239a.345.345,0,0,1-.345-.346v-1.239a.346.346,0,0,1,.345-.346h1.239a.346.346,0,0,1,.345.346V207.4A.345.345,0,0,1,2278.057,207.749Zm-.893-.691h.548v-.548h-.548Z" transform="translate(-81.96 -74.458)" fill="#fff"/><path d="M2280.626,164.866h-2.721a.345.345,0,0,1-.345-.346v-3.932a.345.345,0,0,1,.345-.346h2.721a.345.345,0,0,1,.345.346v3.932A.345.345,0,0,1,2280.626,164.866Zm-2.375-.691h2.03v-3.242h-2.03Z" transform="translate(-82.427 -54.867)" fill="#fff"/><path d="M2300.117,145.48h-1.382a.345.345,0,0,1-.345-.346v-1.381a.345.345,0,0,1,.345-.345h1.382a.345.345,0,0,1,.345.345v1.381A.345.345,0,0,1,2300.117,145.48Zm-1.036-.691h.69V144.1h-.69Z" transform="translate(-91.381 -47.63)" fill="#fff"/><path d="M2349.059,131.972h-5.585a.345.345,0,0,1-.345-.346V127.9a.345.345,0,0,1,.345-.346h5.585a.345.345,0,0,1,.345.346v3.729A.345.345,0,0,1,2349.059,131.972Zm-5.24-.691h4.894v-3.038h-4.894Z" transform="translate(-110.612 -40.815)" fill="#fff"/><path d="M2357.976,139.532h-1.071a.345.345,0,0,1-.345-.346v-1.07a.345.345,0,0,1,.345-.345h1.071a.345.345,0,0,1,.345.345v1.07A.345.345,0,0,1,2357.976,139.532Zm-.725-.691h.379v-.379h-.379Z" transform="translate(-116.386 -45.207)" fill="#fff"/><path d="M2377.026,160.381h-2.447a.345.345,0,0,1-.346-.346v-2.447a.345.345,0,0,1,.346-.346h2.447a.345.345,0,0,1,.345.346v2.447A.345.345,0,0,1,2377.026,160.381Zm-2.1-.691h1.756v-1.756h-1.756Z" transform="translate(-123.982 -53.577)" fill="#fff"/><path d="M2380.92,130.107h-3.109a.345.345,0,0,1-.345-.346V127.9a.345.345,0,0,1,.345-.346h3.109a.345.345,0,0,1,.345.346v1.864A.345.345,0,0,1,2380.92,130.107Zm-2.763-.69h2.418v-1.174h-2.418Z" transform="translate(-125.372 -40.815)" fill="#fff"/><path d="M2427.532,130.969h-2.054a.345.345,0,0,1-.345-.345v-2.055a.345.345,0,0,1,.345-.345h2.054a.345.345,0,0,1,.345.345v2.055A.345.345,0,0,1,2427.532,130.969Zm-1.709-.69h1.363v-1.364h-1.363Z" transform="translate(-145.862 -41.103)" fill="#fff"/><path d="M2408.013,163.192h-3.541a.345.345,0,0,1-.345-.346v-3.541a.345.345,0,0,1,.345-.345h3.541a.345.345,0,0,1,.345.345v3.541A.345.345,0,0,1,2408.013,163.192Zm-3.2-.691h2.851v-2.85h-2.851Z" transform="translate(-136.832 -54.315)" fill="#fff"/><path d="M2413.357,154.98h-1.209a.345.345,0,0,1-.345-.346v-1.641a.345.345,0,0,1,.345-.346h1.209a.345.345,0,0,1,.345.346v1.641A.345.345,0,0,1,2413.357,154.98Zm-.864-.691h.518v-.95h-.518Z" transform="translate(-140.132 -51.602)" fill="#fff"/><path d="M2409.308,205.257h-4.837a.345.345,0,0,1-.345-.345V199.5a.345.345,0,0,1,.345-.346h4.837a.345.345,0,0,1,.345.346v5.412A.345.345,0,0,1,2409.308,205.257Zm-4.491-.691h4.146v-4.721h-4.146Z" transform="translate(-136.832 -71.593)" fill="#fff"/><path d="M2416.255,191.126h-1.785a.346.346,0,0,1-.345-.346v-2.188a.345.345,0,0,1,.345-.346h1.785a.345.345,0,0,1,.346.346v2.188A.346.346,0,0,1,2416.255,191.126Zm-1.439-.691h1.094v-1.5h-1.094Z" transform="translate(-141.13 -66.905)" fill="#fff"/><path d="M2401.742,243.472h-5.63a.345.345,0,0,1-.345-.346V239.1a.345.345,0,0,1,.345-.346h5.63a.345.345,0,0,1,.346.346v4.025A.345.345,0,0,1,2401.742,243.472Zm-5.285-.691h4.939v-3.334h-4.939Z" transform="translate(-133.239 -88.616)" fill="#fff"/><path d="M2412.256,230.576H2410a.345.345,0,0,1-.345-.345v-2.252a.345.345,0,0,1,.345-.345h2.252a.345.345,0,0,1,.345.345v2.252A.345.345,0,0,1,2412.256,230.576Zm-1.906-.69h1.56v-1.561h-1.56Z" transform="translate(-139.211 -83.835)" fill="#fff"/><path d="M2412.061,299.944h-6.276a.345.345,0,0,1-.345-.345v-5.067a.345.345,0,0,1,.345-.345h6.276a.345.345,0,0,1,.345.345V299.6A.345.345,0,0,1,2412.061,299.944Zm-5.931-.691h5.585v-4.376h-5.585Z" transform="translate(-137.396 -112.443)" fill="#fff"/><path d="M2404.958,283.575h-1.9a.345.345,0,0,1-.346-.346v-2.667a.345.345,0,0,1,.346-.346h1.9a.345.345,0,0,1,.346.346v2.667A.345.345,0,0,1,2404.958,283.575Zm-1.555-.691h1.209v-1.976H2403.4Z" transform="translate(-136.225 -106.439)" fill="#fff"/><path d="M2444.574,266h-2.533a.345.345,0,0,1-.346-.345v-2.533a.345.345,0,0,1,.346-.345h2.533a.345.345,0,0,1,.345.345v2.533A.345.345,0,0,1,2444.574,266Zm-2.188-.691h1.843v-1.842h-1.843Z" transform="translate(-152.981 -98.942)" fill="#fff"/><path d="M2358.409,321.224h-3.22a.345.345,0,0,1-.345-.346v-3.22a.345.345,0,0,1,.345-.345h3.22a.345.345,0,0,1,.345.345v3.22A.345.345,0,0,1,2358.409,321.224Zm-2.875-.691h2.53V318h-2.53Z" transform="translate(-115.648 -122.384)" fill="#fff"/><path d="M2346.968,266.217h-1.219a.345.345,0,0,1-.345-.345v-1.219a.345.345,0,0,1,.345-.346h1.219a.346.346,0,0,1,.345.346v1.219A.346.346,0,0,1,2346.968,266.217Zm-.874-.691h.528V265h-.528Z" transform="translate(-111.59 -99.6)" fill="#fff"/><rect width="15.719" height="9.904" transform="translate(2164.746 126.122)" fill="#ff8957"/><rect width="4.837" height="4.837" transform="translate(2177.471 116.276)" fill="#ff8957"/><rect width="2.649" height="1.982" transform="translate(2160.773 143.602)" fill="#ff8957"/><rect width="6.161" height="4.016" transform="translate(2164.746 155.717)" fill="#ff8957"/><rect width="6.948" height="6.948" transform="translate(2255.925 161.936)" fill="#ff8957"/><rect width="8.274" height="7.298" transform="translate(2295.666 135.075)" fill="#ff8957"/><rect width="2.332" height="2.807" transform="translate(2305.512 138.443)" fill="#ff8957"/><rect width="4.081" height="4.081" transform="translate(2278.393 154.51)" fill="#ff8957"/><rect width="4.059" height="4.059" transform="translate(2283.402 129.504)" fill="#ff8957"/><rect width="4.491" height="4.907" transform="translate(2249.848 93.98)" fill="#ff8957"/><rect width="1.9" height="2.361" transform="translate(2273.973 95.144)" fill="#ff8957"/><rect width="3.8" height="3.397" transform="translate(2236.317 97.965)" fill="#ff8957"/><rect width="1.966" height="1.966" transform="translate(2211.845 102.687)" fill="#ff8957"/><rect width="2.232" height="2.232" transform="translate(2202.345 117.37)" fill="#ff8957"/><rect width="3.368" height="3.368" transform="translate(2245.615 177.741)" fill="#ff8957"/><rect width="5.096" height="5.096" transform="translate(2308.923 109.942)" fill="#ff8957"/><rect width="10.368" height="5.528" transform="translate(2259.042 64.973)" fill="#fff"/><rect width="16.717" height="11.199" transform="translate(2281.67 49.398)" fill="#6db9ff"/><rect width="5.758" height="5.758" transform="translate(2304.375 70.5)" fill="#fff"/><rect width="8.565" height="8.565" transform="translate(2167.107 46.432)" fill="#ff5656"/><rect width="9.673" height="9.673" transform="translate(2157.433 66.585)" fill="#fff"/><rect width="2.649" height="2.649" transform="translate(2175.053 63.936)" fill="#fff"/><rect width="15.823" height="11.516" transform="translate(2102.388 120.191)" fill="#ff5656"/><rect width="4.749" height="4.749" transform="translate(2114.508 143.602)" fill="#fff"/><rect width="4.606" height="4.606" transform="translate(2127.953 117.37)" fill="#6db9ff"/><rect width="21.074" height="11.645" transform="translate(2124.959 178.633)" fill="#ff5656"/><rect width="7.025" height="11.121" transform="translate(2109.182 197.865)" fill="#6db9ff"/><rect width="2.641" height="2.641" transform="translate(2163.767 192.237)" fill="#6db9ff"/><rect width="14.913" height="13.358" transform="translate(2150.467 233.909)" fill="#fff"/><rect width="6.276" height="6.276" transform="translate(2171.828 223.545)" fill="#fff"/><rect width="9.961" height="9.961" transform="translate(2288.253 236.673)" fill="#6db9ff"/><rect width="5.585" height="5.585" transform="translate(2279.155 215.138)" fill="#fff"/><rect width="7.485" height="13.473" transform="translate(2312.781 236.673)" fill="#ff5656"/><rect width="18.23" height="2.476" transform="translate(2336.814 166.715)" fill="#fff"/><rect width="9.421" height="5.888" transform="translate(2347.121 147.771)" fill="#ff5656"/><rect width="2.533" height="2.533" transform="translate(2341.65 133.564)" fill="#ff5656"/><rect width="17.353" height="2.243" transform="translate(2318.655 226.309)" fill="#fff"/><path d="M2201.886,305.563a.346.346,0,0,1-.346-.346V268.274a.346.346,0,0,1,.691,0v36.944A.346.346,0,0,1,2201.886,305.563Z" transform="translate(-49.749 -101.156)" fill="#fff"/><path d="M2132.1,251.01a.345.345,0,0,1-.244-.59l16.324-16.324a.347.347,0,0,1,.244-.1h6.823a.346.346,0,0,1,0,.691h-6.68l-16.223,16.222A.345.345,0,0,1,2132.1,251.01Z" transform="translate(-19.752 -86.57)" fill="#fff"/><path d="M2183.87,165.2a.341.341,0,0,1-.244-.1l-10.02-10.02H2159.47a.346.346,0,0,1,0-.691h14.28a.344.344,0,0,1,.244.1l10.121,10.121a.346.346,0,0,1-.245.59Z" transform="translate(-31.517 -52.348)" fill="#fff"/><path d="M2329.533,97.207a.345.345,0,0,1-.345-.345V76.595a.345.345,0,1,1,.691,0V96.862A.345.345,0,0,1,2329.533,97.207Z" transform="translate(-104.619 -18.762)" fill="#fff"/><path d="M2475.367,132.964a.345.345,0,0,1-.244-.59l4.721-4.722a.348.348,0,0,1,.245-.1h14.51a.346.346,0,1,1,0,.691h-14.366l-4.621,4.62A.346.346,0,0,1,2475.367,132.964Z" transform="translate(-167.307 -40.815)" fill="#fff"/><path d="M2492.174,315.295h-19.313a.345.345,0,0,1-.245-.1l-14.308-14.308a.345.345,0,1,1,.489-.488L2473,314.6h19.17a.345.345,0,1,1,0,.69Z" transform="translate(-160.079 -115.07)" fill="#fff"/></g></g></svg>