<svg xmlns="http://www.w3.org/2000/svg" width="345" height="207" viewBox="0 0 345 207">
  <g id="logo-rackspace" transform="translate(-225 -1900)">
    <rect id="Rectangle_4098" data-name="Rectangle 4098" width="345" height="207" transform="translate(225 1900)" fill="#fff"/>
    <g id="rackspace" transform="translate(334.629 1939.61)">
      <path id="Path_9725" data-name="Path 9725" d="M106.99.113c28.387-1.728,50.9,16.7,52.567,45.241,1.881,32.47-23.982,65.75-57.8,74.361-11.7,2.951-22.651,2.615-32.164-.382-.689-12.817,1.8-26.169,7.3-35.5,8.947-15.2,22.5-13.9,30.253,2.891a61.854,61.854,0,0,1,5.093,21.779,77.341,77.341,0,0,0,7.846-4.8c-8.381-20.342-12.128-44.43,17.91-86.734C129.259,9.979,115.83,6.584,99.067,8.74c2.478-2.891,5.108-5.782,7.923-8.626h0Z" transform="translate(-35.742 0)"/>
      <path id="Path_9726" data-name="Path 9726" d="M64.336,47.553c-2.432,5.108-1.453,9.315,2.172,9.391,3.609.061,8.519-4.038,10.95-9.162,2.432-5.108,1.468-9.314-2.156-9.39-3.625-.061-8.534,4.038-10.966,9.161Zm-2.462-14.5C36.485,64.179,25.7,104.6,27.217,140.651,12.228,134.655,1.247,120.2.1,101.88v-.214c-1.9-32.5,24.027-65.8,57.889-74.377,13.153-3.319,25.573-2.432,35.942,1.8a87.054,87.054,0,0,1-9.345,18.491C77.091,58.719,66.324,65.739,60.543,63.276c-5.766-2.478-4.374-13.52,3.135-24.67a51.823,51.823,0,0,1,5.628-6.99,70.046,70.046,0,0,0-7.433,1.437Z" transform="translate(0 -12.997)" fill="#b80017"/>
    </g>
  </g>
</svg>
