<svg xmlns="http://www.w3.org/2000/svg" width="345" height="207" viewBox="0 0 345 207">
  <g id="logo-aws" transform="translate(-225 -1900)">
    <rect id="Rectangle_4098" data-name="Rectangle 4098" width="345" height="207" transform="translate(225 1900)" fill="#fff"/>
    <g id="amazon-web-services-2" transform="translate(289.775 1939.56)">
      <path id="Path_9720" data-name="Path 9720" d="M64.144,46.734a21.654,21.654,0,0,0,.787,6.37,38.308,38.308,0,0,0,2.29,5.153,3.113,3.113,0,0,1,.5,1.646,2.834,2.834,0,0,1-1.36,2.147l-4.509,3.006a3.431,3.431,0,0,1-1.861.644,3.293,3.293,0,0,1-2.147-1,22.14,22.14,0,0,1-2.576-3.364c-.716-1.217-1.431-2.576-2.219-4.223A26.438,26.438,0,0,1,32.01,66.988C26,66.988,21.2,65.27,17.7,61.835s-5.3-8.016-5.3-13.741c0-6.083,2.147-11.021,6.513-14.743s10.163-5.582,17.534-5.582a56.664,56.664,0,0,1,7.586.573c2.648.358,5.368.93,8.23,1.574V24.691c0-5.439-1.145-9.232-3.364-11.451-2.29-2.219-6.155-3.292-11.666-3.292a32.562,32.562,0,0,0-7.729.93,57.026,57.026,0,0,0-7.729,2.433,20.535,20.535,0,0,1-2.5.93,4.39,4.39,0,0,1-1.145.215c-1,0-1.5-.716-1.5-2.219V8.731a4.529,4.529,0,0,1,.5-2.5,5.359,5.359,0,0,1,2-1.5A41.2,41.2,0,0,1,28.145,1.5,43.39,43.39,0,0,1,39.31.143c8.517,0,14.743,1.932,18.751,5.8C62,9.8,64,15.673,64,23.546V46.734ZM35.087,57.612a23.194,23.194,0,0,0,7.372-1.288,15.948,15.948,0,0,0,6.8-4.58,11.36,11.36,0,0,0,2.433-4.58,25.693,25.693,0,0,0,.716-6.226V37.931a59.768,59.768,0,0,0-6.584-1.217,53.927,53.927,0,0,0-6.727-.429c-4.8,0-8.3.93-10.664,2.863s-3.507,4.652-3.507,8.23c0,3.364.859,5.869,2.648,7.586,1.718,1.789,4.223,2.648,7.515,2.648Zm57.469,7.729a4,4,0,0,1-2.72-.716,5.833,5.833,0,0,1-1.5-2.791L71.515,6.513a12.537,12.537,0,0,1-.644-2.863,1.57,1.57,0,0,1,1.718-1.789H79.6a3.967,3.967,0,0,1,2.791.716,5.855,5.855,0,0,1,1.431,2.791L95.848,52.746,107.013,5.368a5.02,5.02,0,0,1,1.36-2.791,4.923,4.923,0,0,1,2.863-.716h5.725a4.307,4.307,0,0,1,2.863.716,4.822,4.822,0,0,1,1.36,2.791l11.308,47.951L144.873,5.368A6.137,6.137,0,0,1,146.3,2.576a4.669,4.669,0,0,1,2.791-.716h6.656A1.591,1.591,0,0,1,157.54,3.65,7.137,7.137,0,0,1,157.4,4.8a10.183,10.183,0,0,1-.5,1.789L139.648,61.906a5.488,5.488,0,0,1-1.5,2.791,4.579,4.579,0,0,1-2.72.716h-6.155a4.307,4.307,0,0,1-2.863-.716,5.074,5.074,0,0,1-1.36-2.863L113.955,15.673l-11.021,46.09a5.586,5.586,0,0,1-1.36,2.863,4.436,4.436,0,0,1-2.863.716Zm91.965,1.932A47.36,47.36,0,0,1,173.5,65.986a32.558,32.558,0,0,1-8.23-2.863,5.157,5.157,0,0,1-2.219-2,5.052,5.052,0,0,1-.429-2v-3.65c0-1.5.573-2.219,1.646-2.219a4.052,4.052,0,0,1,1.288.215c.429.143,1.074.429,1.789.716a38.929,38.929,0,0,0,7.872,2.5,42.979,42.979,0,0,0,8.517.859c4.509,0,8.016-.787,10.449-2.362a7.707,7.707,0,0,0,3.722-6.8,6.97,6.97,0,0,0-1.932-5.01c-1.288-1.36-3.722-2.576-7.228-3.722l-10.377-3.221c-5.224-1.646-9.089-4.079-11.451-7.3a17.051,17.051,0,0,1-3.578-10.377,15.928,15.928,0,0,1,1.932-7.944,18.4,18.4,0,0,1,5.153-5.869,22.715,22.715,0,0,1,7.443-3.722A31.193,31.193,0,0,1,186.883,0a35.928,35.928,0,0,1,4.8.286c1.646.215,3.149.5,4.652.787,1.431.358,2.791.716,4.079,1.145a15.62,15.62,0,0,1,3.006,1.288A6.189,6.189,0,0,1,205.562,5.3a3.857,3.857,0,0,1,.644,2.362v3.364c0,1.5-.573,2.29-1.646,2.29a7.444,7.444,0,0,1-2.72-.859A32.741,32.741,0,0,0,188.1,9.662c-4.079,0-7.3.644-9.519,2a6.911,6.911,0,0,0-3.364,6.37,6.758,6.758,0,0,0,2.147,5.081c1.431,1.36,4.079,2.72,7.872,3.936L195.4,30.273c5.153,1.646,8.874,3.936,11.093,6.871a16.2,16.2,0,0,1,3.292,10.02,18.4,18.4,0,0,1-1.861,8.3,19.248,19.248,0,0,1-5.224,6.3,23.07,23.07,0,0,1-7.944,4.008,34.032,34.032,0,0,1-10.234,1.5Z" transform="translate(-3.535)" fill="#252f3e"/>
      <path id="Path_9721" data-name="Path 9721" d="M194.513,135.618c-23.546,17.391-57.755,26.623-87.17,26.623A157.7,157.7,0,0,1,.921,121.662c-2.219-2-.215-4.723,2.433-3.149C33.7,136.119,71.13,146.783,109.848,146.783a212.511,212.511,0,0,0,81.23-16.6C195.014,128.39,198.378,132.755,194.513,135.618Z" transform="translate(0 -33.562)" fill="#f90"/>
      <path id="Path_9722" data-name="Path 9722" d="M273.782,122.761c-3.006-3.865-19.9-1.861-27.554-.93-2.29.286-2.648-1.718-.573-3.221,13.455-9.447,35.569-6.727,38.146-3.578,2.576,3.221-.716,25.335-13.312,35.927-1.932,1.646-3.793.787-2.934-1.36C270.419,142.514,276.788,126.555,273.782,122.761Z" transform="translate(-69.464 -31.87)" fill="#f90"/>
    </g>
  </g>
</svg>
