<?xml version="1.0" encoding="utf-8"?>
<!-- Generator: Adobe Illustrator 22.0.1, SVG Export Plug-In . SVG Version: 6.00 Build 0)  -->
<svg version="1.1" id="Layer_1" xmlns="http://www.w3.org/2000/svg" xmlns:xlink="http://www.w3.org/1999/xlink" x="0px" y="0px"
	 width="88px" height="88px" viewBox="0 0 88 88" style="enable-background:new 0 0 88 88;" xml:space="preserve">
<style type="text/css">
	.st0{fill:none;}
	.st1{fill:url(#SVGID_1_);}
</style>
<circle class="st0" cx="44" cy="44" r="44"/>
<linearGradient id="SVGID_1_" gradientUnits="userSpaceOnUse" x1="-1064.3839" y1="5596.5234" x2="-1063.3529" y2="5595.4858" gradientTransform="matrix(44.013 0 0 -48.1043 46863.6758 269240.625)">
	<stop  offset="0" style="stop-color:#087BE2"/>
	<stop  offset="1" style="stop-color:#0C0F60"/>
</linearGradient>
<path class="st1" d="M66.5,65.4h-7c-0.7,0-0.8-0.6-0.9-0.9c-1.3-3.1-2.8-6.3-4.1-9.4c-0.1-0.5-0.6-0.8-1.1-0.8
	c-5.8,0-11.8,0.1-17.6,0.1c-0.6-0.1-1.1,0.3-1.2,0.9c-1.1,3-2.4,5.8-3.5,8.8c-0.2,0.9-1,1.5-1.9,1.3c-2.2-0.1-4.4,0-6.7,0
	c7.2-16.1,14.3-31.9,21.6-48.1C51.6,33.5,58.9,49.5,66.5,65.4z M44.5,48.1L44.5,48.1c2,0.1,4,0.1,5.8,0.1c0.8,0,1-0.2,0.7-1
	c-0.7-1.3-1.2-2.6-1.9-3.9c-1.5-3.2-3.1-6.4-4.6-9.7c-0.1-0.2-0.1-0.5-0.5-0.5c-0.2,0-0.2,0.2-0.2,0.3c-1.9,4.5-3.7,9-5.6,13.4
	c-0.4,1-0.1,1.2,0.9,1.2H44.5z"/>
</svg>
