<?xml version="1.0" encoding="utf-8"?>
<!-- Generator: Adobe Illustrator 22.0.1, SVG Export Plug-In . SVG Version: 6.00 Build 0)  -->
<svg version="1.1" id="Layer_1" xmlns="http://www.w3.org/2000/svg" xmlns:xlink="http://www.w3.org/1999/xlink" x="0px" y="0px"
	 width="88px" height="88px" viewBox="0 0 88 88" style="enable-background:new 0 0 88 88;" xml:space="preserve">
<style type="text/css">
	.st0{fill:none;}
	.st1{fill:url(#SVGID_1_);}
</style>
<g transform="translate(-1259 -3073)">
	<path class="st0" d="M1303,3073c24.3,0,44,19.7,44,44s-19.7,44-44,44s-44-19.7-44-44S1278.7,3073,1303,3073z"/>
	<g>
		<linearGradient id="SVGID_1_" gradientUnits="userSpaceOnUse" x1="1279.2227" y1="3142.45" x2="1330.5547" y2="3090.7693">
			<stop  offset="0" style="stop-color:#087BE2"/>
			<stop  offset="1" style="stop-color:#0C0F60"/>
		</linearGradient>
		<path class="st1" d="M1319.9,3113h-2.8l-1.1,6.4h2.6c1.9-0.2,3.6-0.9,3.9-4.5C1322.5,3113.6,1321.4,3113,1319.9,3113z
			 M1291.2,3113h-2.8l-1.1,6.4h2.6c1.9-0.2,3.6-0.9,3.9-4.5C1293.7,3113.6,1292.7,3113,1291.2,3113z M1287.3,3119.4L1287.3,3119.4
			L1287.3,3119.4L1287.3,3119.4z M1304,3101.2c-17.3,0-31.3,7.3-31.3,16.3c0,9,14,16.3,31.3,16.3c17.3,0,31.3-7.3,31.3-16.3
			C1335.3,3108.5,1321.3,3101.2,1304,3101.2z M1290.8,3122.6c-0.2,0-0.3,0-0.5,0h-3.9l-0.9,4.5l-4.1,0l3.4-17.4h7.9
			c3.4,0.2,5.1,1.9,5.1,4.9C1298.2,3118.9,1295,3122.4,1290.8,3122.6z M1306.5,3113h-3.2l-1.9,9.6l-4.1,0l3.4-17.4h4.1l-0.9,4.5h3.9
			c3.4,0.2,4.7,1.9,4.3,4.1l-1.5,8.8h-4.3l1.5-7.9C1307.9,3113.6,1307.9,3113,1306.5,3113z M1319.5,3122.6c-0.2,0-0.3,0-0.5,0h-3.9
			l-0.9,4.5l-4.1,0l3.4-17.4h7.9c3.4,0.2,5.1,1.9,5.1,4.9C1326.9,3118.9,1323.7,3122.4,1319.5,3122.6z"/>
	</g>
</g>
</svg>
