<?xml version="1.0" encoding="utf-8"?>
<!-- Generator: Adobe Illustrator 22.0.1, SVG Export Plug-In . SVG Version: 6.00 Build 0)  -->
<svg version="1.1" id="Layer_1" xmlns="http://www.w3.org/2000/svg" xmlns:xlink="http://www.w3.org/1999/xlink" x="0px" y="0px"
	 width="88px" height="88px" viewBox="0 0 88 88" style="enable-background:new 0 0 88 88;" xml:space="preserve">
<style type="text/css">
	.st0{fill:none;}
	.st1{fill:url(#SVGID_1_);}
	.st2{fill:url(#SVGID_2_);}
</style>
<g transform="translate(-683 -3525)">
	<path class="st0" d="M727,3525c24.3,0,44,19.7,44,44s-19.7,44-44,44s-44-19.7-44-44S702.7,3525,727,3525z"/>
	<g transform="translate(709.126 3540.125)">
		
			<linearGradient id="SVGID_1_" gradientUnits="userSpaceOnUse" x1="-1084.5896" y1="5554.3242" x2="-1083.5586" y2="5553.2866" gradientTransform="matrix(35.6509 0 0 -39.0291 38666.4531 216799.125)">
			<stop  offset="0" style="stop-color:#087BE2"/>
			<stop  offset="1" style="stop-color:#0C0F60"/>
		</linearGradient>
		<path class="st1" d="M0.2,57.7v-39c0.2,0.1,0.4,0.2,0.6,0.3c3.4,2.2,6.7,4.4,10.1,6.5c0.4,0.2,0.6,0.6,0.4,1c0,0,0,0.1,0,0.1
			C8,36.2,4.8,45.8,1.6,55.3c-0.1,0.2-0.1,0.4-0.1,0.6l34.3-35.5c0,0.3,0.1,0.4,0.1,0.6l0,16.8c0,0.3-0.2,0.7-0.5,0.8
			C24.5,44.5,13.7,50.4,2.9,56.3C2,56.8,1.2,57.2,0.2,57.7z"/>
		
			<linearGradient id="SVGID_2_" gradientUnits="userSpaceOnUse" x1="-1083.7509" y1="5489.9551" x2="-1082.7198" y2="5488.917" gradientTransform="matrix(34.6323 0 0 -26.9871 37530.4023 148159.625)">
			<stop  offset="0" style="stop-color:#087BE2"/>
			<stop  offset="1" style="stop-color:#0C0F60"/>
		</linearGradient>
		<path class="st2" d="M34.6,18.8c-3.3,2.4-11,8.1-11.7,8.2C22.3,27,0.6,16.3,0.6,16.3C0.3,16.1,0,16,0,15.6C0,10.4,0,5.3,0,0
			L34.6,18.8z"/>
	</g>
</g>
</svg>
