<?xml version="1.0" encoding="utf-8"?>
<!-- Generator: Adobe Illustrator 22.0.1, SVG Export Plug-In . SVG Version: 6.00 Build 0)  -->
<svg version="1.1" id="Layer_1" xmlns="http://www.w3.org/2000/svg" xmlns:xlink="http://www.w3.org/1999/xlink" x="0px" y="0px"
	 width="88px" height="88px" viewBox="0 0 88 88" style="enable-background:new 0 0 88 88;" xml:space="preserve">
<style type="text/css">
	.st0{fill:none;}
	.st1{fill:url(#SVGID_1_);}
	.st2{fill:url(#SVGID_2_);}
	.st3{fill:url(#SVGID_3_);}
</style>
<path class="st0" d="M44,0c24.3,0,44,19.7,44,44S68.3,88,44,88S0,68.3,0,44S19.7,0,44,0z"/>
<linearGradient id="SVGID_1_" gradientUnits="userSpaceOnUse" x1="-1030.5074" y1="5599.4946" x2="-1029.4764" y2="5598.4565" gradientTransform="matrix(18.6 0 0 -49.328 19190.6055 276234)">
	<stop  offset="0" style="stop-color:#087BE2"/>
	<stop  offset="1" style="stop-color:#0C0F60"/>
</linearGradient>
<path class="st1" d="M42.7,50.4l-11.9,6.8V46l3.3-2l8.6-5v-7.7l-5,2.9l-13.5,7.8v26.6L42.8,58v-7.6L42.7,50.4z M30.8,30.2l5.5,3.2
	l6.2-3.5L24.2,19.4v20.9l6.6-3.7V30.2z"/>
<linearGradient id="SVGID_2_" gradientUnits="userSpaceOnUse" x1="-1054.5417" y1="5599.6436" x2="-1053.5107" y2="5598.6055" gradientTransform="matrix(31.69 0 0 -49.328 33453.5391 276234)">
	<stop  offset="0" style="stop-color:#087BE2"/>
	<stop  offset="1" style="stop-color:#0C0F60"/>
</linearGradient>
<path class="st2" d="M32.2,50.6l3.5,2l6.7-3.9l-6.9-4l-3.4,2L32.2,50.6z M44.9,38.9L57.2,46v11.2l-12.3-7v7.7l18.9,10.8V42.1
	L44.9,31.3V38.9z M45.6,29.8l6.2,3.5l5.5-3.2v6.4l6.6,3.7V19.4L45.6,29.8z"/>
<linearGradient id="SVGID_3_" gradientUnits="userSpaceOnUse" x1="-983.6498" y1="4994.1504" x2="-982.6188" y2="4993.1123" gradientTransform="matrix(10.343 0 0 -7.818 10219.9736 39088.6094)">
	<stop  offset="0" style="stop-color:#087BE2"/>
	<stop  offset="1" style="stop-color:#0C0F60"/>
</linearGradient>
<path class="st3" d="M55.8,46.8l-3.4-2l-6.9,4l6.7,3.9l3.5-2v-3.9H55.8z"/>
</svg>
