<?xml version="1.0" encoding="utf-8"?>
<!-- Generator: Adobe Illustrator 22.0.1, SVG Export Plug-In . SVG Version: 6.00 Build 0)  -->
<svg version="1.1" id="Layer_1" xmlns="http://www.w3.org/2000/svg" xmlns:xlink="http://www.w3.org/1999/xlink" x="0px" y="0px"
	 width="88px" height="88px" viewBox="0 0 88 88" style="enable-background:new 0 0 88 88;" xml:space="preserve">
<style type="text/css">
	.st0{fill:none;}
	.st1{fill:url(#SVGID_1_);}
</style>
<g transform="translate(-359 -3401.968)">
	<path class="st0" d="M403,3402c24.3,0,44,19.7,44,44s-19.7,44-44,44s-44-19.7-44-44S378.7,3402,403,3402z"/>
	
		<linearGradient id="SVGID_1_" gradientUnits="userSpaceOnUse" x1="-704.5247" y1="8998.3711" x2="-703.4937" y2="8997.333" gradientTransform="matrix(42.75 0 0 -48.0027 30500.125 435367.2812)">
		<stop  offset="0" style="stop-color:#7B7B7B"/>
		<stop  offset="1" style="stop-color:#0C0F60"/>
	</linearGradient>
	<path class="st1" d="M403,3421.7c-3.6,0-7.2,0.5-10.7,1.4c-2.8,0.7-5.5,2.1-7.8,3.9c-1.7,1.3-2.8,3.2-2.9,5.4
		c0.1,2.1,1.1,4.1,2.9,5.4c2.3,1.8,5,3.1,7.8,3.9c3.5,1,7.1,1.5,10.7,1.4c3.6,0,7.2-0.5,10.7-1.4c2.8-0.7,5.5-2.1,7.8-3.9
		c1.7-1.3,2.8-3.2,2.9-5.4c-0.1-2.1-1.1-4.1-2.9-5.4c-2.3-1.8-5-3.1-7.8-3.9C410.2,3422.1,406.6,3421.7,403,3421.7z M381.6,3437.7v8
		c0.1,2.1,1.2,4.1,2.9,5.3c2.3,1.8,5,3.1,7.8,3.9c3.5,1,7.1,1.5,10.7,1.4c3.6,0,7.2-0.5,10.7-1.4c2.8-0.7,5.5-2.1,7.8-3.9
		c1.7-1.2,2.8-3.2,2.9-5.3v-8c-0.1,2.1-1.2,4.1-2.9,5.3c-2.3,1.8-5,3.1-7.8,3.9c-3.5,1-7.1,1.5-10.7,1.4c-3.6,0-7.2-0.5-10.7-1.4
		c-2.8-0.7-5.5-2.1-7.8-3.9C382.8,3441.8,381.7,3439.8,381.6,3437.7z M381.6,3451.1v8c0.1,2.1,1.2,4.1,2.9,5.3
		c2.3,1.8,5,3.1,7.8,3.9c3.5,1,7.1,1.5,10.7,1.4c3.6,0,7.2-0.5,10.7-1.4c2.8-0.7,5.5-2.1,7.8-3.9c1.7-1.2,2.8-3.2,2.9-5.3v-8
		c-0.1,2.1-1.2,4.1-2.9,5.3c-2.3,1.8-5,3.1-7.8,3.9c-3.5,1-7.1,1.5-10.7,1.4c-3.6,0-7.2-0.5-10.7-1.4c-2.8-0.7-5.5-2.1-7.8-3.9
		C382.8,3455.1,381.7,3453.2,381.6,3451.1z"/>
</g>
</svg>
