<?xml version="1.0" encoding="utf-8"?>
<!-- Generator: Adobe Illustrator 22.0.1, SVG Export Plug-In . SVG Version: 6.00 Build 0)  -->
<svg version="1.1" id="Layer_1" xmlns="http://www.w3.org/2000/svg" xmlns:xlink="http://www.w3.org/1999/xlink" x="0px" y="0px"
	 width="88px" height="88px" viewBox="0 0 88 88" style="enable-background:new 0 0 88 88;" xml:space="preserve">
<style type="text/css">
	.st0{fill:none;}
	.st1{fill:url(#Path_3067_1_);}
	.st2{fill:url(#Path_3068_1_);}
	.st3{fill:#FFFFFF;}
</style>
<g id="tech-swift" transform="translate(12310 -9885)">
	<path id="Path_12045" class="st0" d="M-12266,9885c24.3,0,44,19.7,44,44c0,24.3-19.7,44-44,44s-44-19.7-44-44
		C-12310,9904.7-12290.3,9885-12266,9885z"/>
	<g id="swift-15" transform="translate(-12292.125 9902.875)">
		
			<linearGradient id="Path_3067_1_" gradientUnits="userSpaceOnUse" x1="-1086.0004" y1="5588.0605" x2="-1084.9694" y2="5587.0225" gradientTransform="matrix(52.173 0 0 -52.2532 56660.0312 291993.9375)">
			<stop  offset="0" style="stop-color:#087BE2"/>
			<stop  offset="1" style="stop-color:#0C0F60"/>
		</linearGradient>
		<path id="Path_3067" class="st1" d="M11.6,0h28.9c1.4,0,2.8,0.2,4.1,0.7c4,1.4,6.8,4.9,7.5,9.1c0.1,0.8,0.2,1.5,0.1,2.3v28.2
			c0,0.9-0.1,1.8-0.2,2.7c-0.8,4.1-3.8,7.5-7.9,8.7c-1.2,0.4-2.4,0.5-3.7,0.5c-0.6,0-29,0-29.4,0C9,52.1,7,51.5,5.2,50.3
			c-1.7-1.2-3.1-2.7-4-4.6c-0.8-1.6-1.2-3.3-1.2-5.1v-29c0-1.7,0.3-3.4,1.1-5C2,4.8,3.4,3.2,5.1,2C6.8,0.8,8.9,0.2,11,0
			C11.2,0,11.4,0,11.6,0z"/>
		
			<linearGradient id="Path_3068_1_" gradientUnits="userSpaceOnUse" x1="-1082.4485" y1="5564.145" x2="-1081.4175" y2="5563.1069" gradientTransform="matrix(44.5312 0 0 -42.7643 48201.5195 237948.2188)">
			<stop  offset="0" style="stop-color:#087BE2"/>
			<stop  offset="1" style="stop-color:#0C0F60"/>
		</linearGradient>
		<path id="Path_3068" class="st2" d="M44.1,42.7c-0.2-0.3-0.4-0.6-0.6-0.8c-0.5-0.6-1.1-1.1-1.8-1.6c-0.8-0.6-1.8-0.9-2.8-0.9
			c-0.7,0-1.4,0.1-2,0.3c-0.7,0.2-1.3,0.5-1.9,0.9c-0.7,0.4-1.4,0.7-2.2,1C31.9,42,31,42.3,30,42.5c-1.2,0.2-2.4,0.3-3.6,0.3
			c-2.2,0-4.4-0.4-6.4-1c-1.8-0.5-3.6-1.3-5.2-2.3c-1.4-0.8-2.8-1.8-4.1-2.9c-1-0.9-2-1.9-2.9-2.9C7.1,33,6.5,32.3,6,31.5
			c-0.2-0.3-0.4-0.6-0.6-1L0,24.7V11.6C0,5.2,5.2,0,11.5,0c0,0,0,0,0,0h10.3l7.6,7.8c17.2,11.7,11.7,24.6,11.7,24.6
			S46,37.9,44.1,42.7z"/>
		<path id="Path_3069" class="st3" d="M29.5,7.8c17.2,11.7,11.6,24.6,11.6,24.6s4.9,5.5,2.9,10.4c0,0-2-3.4-5.4-3.4
			c-3.3,0-5.2,3.4-11.7,3.4c-14.6,0-21.5-12.2-21.5-12.2c13.2,8.7,22.2,2.5,22.2,2.5C21.6,29.6,9,13.1,9,13.1
			C20,22.5,24.7,25,24.7,25C21.9,22.6,14,11.1,14,11.1c6.4,6.5,19,15.5,19,15.5C36.6,16.6,29.5,7.8,29.5,7.8z"/>
	</g>
</g>
</svg>
