<svg xmlns="http://www.w3.org/2000/svg" xmlns:xlink="http://www.w3.org/1999/xlink" width="88" height="88" viewBox="0 0 88 88">
  <defs>
    <linearGradient id="linear-gradient" x2="1.031" y2="1.038" gradientUnits="objectBoundingBox">
      <stop offset="0" stop-color="#087be2"/>
      <stop offset="1" stop-color="#0c0f60"/>
    </linearGradient>
  </defs>
  <g id="tech-db2" transform="translate(-440 -3657)">
    <path id="Path_379" data-name="Path 379" d="M44,0A44,44,0,1,1,0,44,44,44,0,0,1,44,0Z" transform="translate(440 3657)" fill="rgba(0,29,255,0)"/>
    <g id="Group_4705" data-name="Group 4705" transform="translate(6.972 2825.344)">
      <g id="Group_4704" data-name="Group 4704" transform="translate(452.028 850.656)">
        <path id="Path_412" data-name="Path 412" d="M502.017,859.613a8.826,8.826,0,0,0-3.162-7,7.623,7.623,0,0,0-5.106-1.955q-16.6.046-33.2,0a7.787,7.787,0,0,0-4.266,1.185,8.361,8.361,0,0,0-4.251,7.444q.026,15.866.046,31.732c0,.617,0,1.235,0,1.852a2.677,2.677,0,0,0,.023.492,8.769,8.769,0,0,0,3.683,5.832,7.51,7.51,0,0,0,4.41,1.458c5.513-.046,11.027-.017,16.54-.017,5.534,0,11.068.008,16.6-.011a8.159,8.159,0,0,0,2-.246,8.713,8.713,0,0,0,6.627-8.543c.09-6.213.053-12.428.063-18.643C502.027,868.669,502.035,864.141,502.017,859.613Zm-13.158-1.41h3.981v.97h-5.213C487.9,858.2,487.9,858.2,488.859,858.2Zm-1.75,2.376a.838.838,0,0,1,.049-.18.41.41,0,0,1,.081-.128.379.379,0,0,1,.121-.084.58.58,0,0,1,.078-.029,1.11,1.11,0,0,1,.2-.035c.113-.011.248-.015.411-.015h4.816v1.024h-5.786A3.85,3.85,0,0,1,487.109,860.579Zm5.738,8.921h0v.972h-4.3V869.5h4.3Zm-1.725-2.786h-2.565v-.948h2.565v.948Zm-4.7-3.741.12-.452.123-.463h4.475v.915h-4.718Zm-1.557-.764a3.576,3.576,0,0,1,.245.4c.073.13.151.267.238.393h-4.8v-.974h0c1.362,0,2.746-.036,4.124.038A.3.3,0,0,1,484.864,862.209Zm-6.112,7.745c0-.158.179-.456.284-.459,1.009-.024,2.018-.023,3.041-.022H483.1v1.044c-1.366,0-2.73.012-4.092-.024-.062,0-.147-.138-.2-.287a.818.818,0,0,1-.058-.253Zm1.78-1.329v-.958h2.57v.958Zm-1.763,3.743v-.933h4.346v.933h-4.346Zm1.762-5.662h0v-.94h2.586v.94H480.53Zm3.759-6.472c.14.126.178.379.256.883h-5.774v-1.01h4.658a5.433,5.433,0,0,1,.558.016A.516.516,0,0,1,484.289,860.234Zm-5.539-2.03h3.919c1,0,1,0,1.3.991h-5.216Zm-.637,10.418h-2.837v-.982h2.635l.048.231Zm-.778-4.7h0q-.034.132-.073.243a1.615,1.615,0,0,1-.088.2,1.071,1.071,0,0,1-.105.165.8.8,0,0,1-.361.262,1.254,1.254,0,0,1-.3.067,2.266,2.266,0,0,1-.242.012h-6.334v-.952h7.5Zm-7.5-.948h0v-.912h2.652v.912h-2.652Zm.01,3.749v-.985h2.718c.694,0,1.389.021,2.082.019.277,0,.555-.005.831-.016q.208-.008.415-.021a1.815,1.815,0,0,1,.528.035c.039.009.077.02.114.032a1.22,1.22,0,0,1,.209.09q.049.027.1.059a1.74,1.74,0,0,1,.544.658c.022.041.043.085.064.129Zm2.654.945h0v.958h-2.668v-.958H472.5Zm5.433-4.956a.453.453,0,0,1-.046.14c-.084.151-.268.168-.662.17h-2.035v-.954h2.761A3.93,3.93,0,0,1,477.93,862.709ZM468.1,858.2h1.507c1.641,0,3.283,0,4.924,0a3.062,3.062,0,0,1,2.3.989H468.1Zm-.008,2.918v-1.014h8.723c.466,0,.7,0,.836.127s.179.38.263.887H468.1Zm0,9.4V869.51h9.8a3.324,3.324,0,0,1-.089.658.4.4,0,0,1-.237.286.744.744,0,0,1-.171.044,3.8,3.8,0,0,1-.529.024h-8.774Zm-.021.916h8.857a2.9,2.9,0,0,1-1.047.751,2.569,2.569,0,0,1-.256.089c-.043.013-.087.024-.13.034a2.546,2.546,0,0,1-.265.047c-.045.006-.09.01-.135.013s-.09.005-.136.006c-1.42.029-2.841.029-4.279.024-.863,0-1.731-.007-2.609-.007Zm-6.985-13.2h6.11v.964h-6.11Zm-.017,2.861v-.951h6.143v.951h-6.143Zm4.369,2.823v.917h-2.624v-.917h2.624Zm0,1.866h0v.921h-2.621v-.921h2.621Zm-2.623,2.843v-.974h2.624v.974h-2.624Zm-.017-5.649h0v-.9h2.647v.9H462.8Zm4.4,6.532v.972h-6.128v-.972Zm-6.134,1.916h6.118v.926h-6.118ZM472.821,886.7a13.045,13.045,0,0,1-.242,1.9,6.186,6.186,0,0,1-.17.659,3.241,3.241,0,0,1-.675,1.23,2.533,2.533,0,0,1-1.1.691,4.732,4.732,0,0,1-1.249.209c-.534.026-1.068.028-1.6.024l-.4,0c-.4,0-.8-.009-1.2-.006a1.1,1.1,0,0,1-.228-.019c-.2-.042-.324-.165-.324-.46q.011-4.969.013-9.938a.38.38,0,0,1,.008-.074,1.58,1.58,0,0,1,.047-.161c.009-.029.019-.06.027-.093.888,0,1.777-.044,2.662-.042.531,0,1.059.019,1.584.072a3.359,3.359,0,0,1,1.058.272,2.592,2.592,0,0,1,1.334,1.421,4.032,4.032,0,0,1,.18.532,5.364,5.364,0,0,1,.122.6q.093.635.141,1.272c.031.424.046.849.042,1.273Q472.838,886.381,472.821,886.7Zm8.2,2.391a2.854,2.854,0,0,1-.1.471,2.429,2.429,0,0,1-.284.613,2.271,2.271,0,0,1-.273.343,2.35,2.35,0,0,1-.335.287,3.029,3.029,0,0,1-1.351.5q-.133.018-.271.028c-.645.046-1.292.057-1.939.061l-.486,0c-.486,0-.972,0-1.457.012h-.076a.6.6,0,0,1-.184-.036.365.365,0,0,1-.09-.049.333.333,0,0,1-.036-.032.363.363,0,0,1-.077-.121.734.734,0,0,1-.044-.217c0-.041,0-.084,0-.129h0c0-.329,0-.658,0-.988s0-.658,0-.988q0-.988,0-1.975c0-1.389.008-2.778,0-4.167q0-.694-.011-1.389h0a.772.772,0,0,1,.139-.555.354.354,0,0,1,.043-.039.783.783,0,0,1,.517-.1c.328.016.657.024.985.029.986.015,1.974,0,2.954.082a2.429,2.429,0,0,1,1.081.332,2.21,2.21,0,0,1,.986,1.541,3.763,3.763,0,0,1,.05,1.4,2.175,2.175,0,0,1-.515,1.058,3.455,3.455,0,0,1-.683.586.16.16,0,0,0-.035.035c-.011.013-.021.028-.032.041a3.937,3.937,0,0,1,.791.478,2.279,2.279,0,0,1,.429.444q.034.047.064.094a1.9,1.9,0,0,1,.108.194q.024.05.045.1a2.586,2.586,0,0,1,.173,1A8.189,8.189,0,0,1,481.021,889.09Zm7.451,1.821c0,.022-.005.043-.009.063a.639.639,0,0,1-.028.109.466.466,0,0,1-.02.047.361.361,0,0,1-.087.114.718.718,0,0,1-.389.136c-.051.007-.107.011-.167.015l-.094,0c-.162.007-.355.008-.582.008h-2.251q-1.126,0-2.251,0c-.131,0-.262-.009-.4-.019s-.274-.024-.422-.034a5.2,5.2,0,0,1,.278-1.891,4.837,4.837,0,0,1,.947-1.6q.264-.3.54-.589t.561-.572c.379-.376.768-.743,1.158-1.108a2.431,2.431,0,0,0,.6-.844,2.474,2.474,0,0,0,.105-.307,2.793,2.793,0,0,0,.067-.319,3.52,3.52,0,0,0,.037-.5c0-.112,0-.226-.011-.341,0-.057-.009-.115-.014-.173a.922.922,0,0,0-.92-.9c-.031,0-.062,0-.093,0a.964.964,0,0,0-.51.161,1.09,1.09,0,0,0-.461.686c-.02.1-.038.191-.054.288s-.031.2-.046.3c-.007.051-.014.1-.022.155-.015.1-.029.213-.046.327-.008.057-.017.114-.026.173-.144,0-.289,0-.434,0-.291,0-.585.007-.879,0-.147,0-.294-.011-.44-.023a.39.39,0,0,1-.218-.159.55.55,0,0,1-.128-.268,2.69,2.69,0,0,1,1.98-2.961,3.558,3.558,0,0,1,.6-.112l.214-.019q.108-.009.216-.014a6.486,6.486,0,0,1,.651,0q.108.005.215.015c.143.013.285.032.424.059a3.089,3.089,0,0,1,1.219.5q.063.045.124.093a2.546,2.546,0,0,1,.793,1.1q.027.072.051.147a2.966,2.966,0,0,1,.123.63,3.981,3.981,0,0,1-.219,1.616,4.217,4.217,0,0,1-.528,1.014q-.082.121-.17.239c-.117.158-.238.312-.361.462l-.184.224a4.95,4.95,0,0,1-.365.392c-.193.187-.4.365-.6.543-.136.119-.27.239-.4.363q-.1.093-.191.19a9.637,9.637,0,0,0-.749.934c-.09.12-.185.247-.289.381h4c.034.105.058.167.074.213l.008.026a.278.278,0,0,1,.009.046,7.617,7.617,0,0,1,.072.845C488.479,890.82,488.476,890.867,488.472,890.911Zm-4.788-25.15h4.263c-.133.617-.183.849-.413.936a.579.579,0,0,1-.075.022,1.624,1.624,0,0,1-.3.028c-.083,0-.178,0-.286,0h-2.03c-.6,0-.829,0-.961-.241a1.22,1.22,0,0,1-.1-.289c-.03-.122-.059-.273-.094-.458Zm3.628,1.9a2.255,2.255,0,0,1-.18.824.324.324,0,0,1-.1.1.4.4,0,0,1-.1.044,2.346,2.346,0,0,1-.625.045h-.862c-.176,0-.319,0-.437-.007-.314-.018-.448-.083-.548-.322a4.683,4.683,0,0,1-.183-.682h3.03Zm-2.074,2.833a.266.266,0,0,1-.1-.092.6.6,0,0,1-.058-.116,2.257,2.257,0,0,1-.072-.233c-.037-.141-.08-.323-.139-.554h1.868a1.091,1.091,0,0,0-.055.238c-.007.055-.013.111-.018.166s-.011.11-.019.162a.959.959,0,0,1-.034.149.4.4,0,0,1-.427.288A2.822,2.822,0,0,1,485.237,870.494Zm.935.944-.141.474-.135.454-.139.022-.069-.225-.221-.724Zm1.983-6.679a.9.9,0,0,1-.354.1q-1.478.03-2.956.015-.493,0-.985-.013a.719.719,0,0,1-.177-.027c-.177-.048-.356-.149-.545-.215h0v.007l-.016.085-.017.091-.01.051h-2.545v-.966h3.326c.113,0,.226,0,.339,0h.169c.056,0,.113,0,.169-.007.112-.008.224-.016.332-.016l.106,0a1.366,1.366,0,0,1,.2.023.907.907,0,0,1,.094.024c.273.085.472.3.509.818a1.381,1.381,0,0,1,.092-.415.682.682,0,0,1,.178-.255.617.617,0,0,1,.157-.1.861.861,0,0,1,.181-.057,3.031,3.031,0,0,1,.64-.028c.506.009,1.013.012,1.521.013.846,0,1.7,0,2.559,0,0,.34,0,.619,0,.9a5.194,5.194,0,0,1-2.154.054c-.254-.059-.425-.144-.458-.247C488.39,864.637,488.273,864.7,488.155,864.758Zm.382,2.9h2.582v.973h-2.582Zm4.331,3.784v.925h-4.328v-.925h4.328Z" transform="translate(-452.028 -850.656)" stroke="rgba(0,0,0,0)" stroke-width="1" fill="url(#linear-gradient)"/>
      </g>
      <path id="Path_413" data-name="Path 413" d="M648.982,1145.712v-3.728c.948.037,1.925-.307,2.594.643a2.214,2.214,0,0,1,.016,2.309C650.916,1145.838,649.911,1145.624,648.982,1145.712Z" transform="translate(-172.892 -255.807)" stroke="rgba(0,0,0,0)" stroke-width="1" fill="url(#linear-gradient)"/>
      <path id="Path_414" data-name="Path 414" d="M648.76,1108.487a1.727,1.727,0,0,1,.006-.441c.109-.4-.322-1,.36-1.184a1.852,1.852,0,0,1,2.14.844,1.575,1.575,0,0,1-1.294,2.321c-.195.027-.391.047-.582.091-.45.1-.647-.068-.631-.526.013-.368,0-.737,0-1.105Z" transform="translate(-172.651 -224.885)" stroke="rgba(0,0,0,0)" stroke-width="1" fill="url(#linear-gradient)"/>
      <path id="Path_415" data-name="Path 415" d="M580.865,1115.938c0-2.733.015-5.42-.012-8.107-.006-.616.188-.806.8-.791,1.42.035,1.995.369,2.174,1.95a21.449,21.449,0,0,1,.016,4.864C583.627,1115.73,583.01,1116.057,580.865,1115.938Z" transform="translate(-113.098 -225.829)" stroke="rgba(0,0,0,0)" stroke-width="1" fill="url(#linear-gradient)"/>
    </g>
  </g>
</svg>
