<?xml version="1.0" encoding="utf-8"?>
<!-- Generator: Adobe Illustrator 22.0.1, SVG Export Plug-In . SVG Version: 6.00 Build 0)  -->
<svg version="1.1" id="Layer_1" xmlns="http://www.w3.org/2000/svg" xmlns:xlink="http://www.w3.org/1999/xlink" x="0px" y="0px"
	 width="88px" height="88px" viewBox="0 0 88 88" style="enable-background:new 0 0 88 88;" xml:space="preserve">
<style type="text/css">
	.st0{fill:none;}
	.st1{fill:url(#SVGID_1_);}
	.st2{fill:url(#SVGID_2_);}
	.st3{fill:url(#SVGID_3_);}
</style>
<g transform="translate(-827 -3299)">
	<path class="st0" d="M871,3299c24.3,0,44,19.7,44,44s-19.7,44-44,44s-44-19.7-44-44S846.7,3299,871,3299z"/>
	<g transform="translate(838 3325.813)">
		
			<linearGradient id="SVGID_1_" gradientUnits="userSpaceOnUse" x1="-1083.558" y1="5522.5903" x2="-1082.527" y2="5521.5522" gradientTransform="matrix(66.0108 0 0 -34.2728 71522.875 189276.2969)">
			<stop  offset="0" style="stop-color:#087BE2"/>
			<stop  offset="1" style="stop-color:#0C0F60"/>
		</linearGradient>
		<path class="st1" d="M0,31.2h2.2v-8.6l3.4,7.5c0.3,0.8,1.1,1.4,2,1.2c0.9,0.1,1.7-0.4,2-1.2l3.4-7.5v8.6h2.2v-8.6
			c0.1-0.7-0.4-1.3-1-1.5c-1.7-0.5-2.8-0.1-3.3,1.1l-3.3,7.4l-3.2-7.4c-0.5-1.1-1.6-1.6-3.3-1.1c-0.7,0.1-1.1,0.8-1,1.5V31.2L0,31.2
			z M17,24.2h2.2v4.7c0,0.3,0.1,0.9,1.3,0.9c0.6,0,4.7,0,4.8,0v-5.7h2.2v7.8c0,1.9-2.4,2.3-3.5,2.3H17v-1.5H24
			c1.4-0.2,1.2-0.9,1.2-1.1v-0.6h-4.7c-2.2,0-3.6-1-3.6-2.1C17,29,17,24.2,17,24.2L17,24.2z M64.1,18.7c-1.1-0.1-2.2,0.1-3.3,0.5
			c-0.3,0.1-0.7,0.1-0.7,0.4c0.1,0.1,0.2,0.4,0.3,0.5c0.2,0.4,0.5,0.7,0.9,1c0.4,0.3,0.7,0.5,1.1,0.8c0.7,0.4,1.4,0.6,2,1
			c0.4,0.2,0.7,0.5,1.1,0.8c0.2,0.1,0.3,0.4,0.5,0.4v-0.1c-0.1-0.2-0.2-0.4-0.3-0.5c-0.2-0.2-0.3-0.3-0.5-0.5
			c-0.5-0.6-1.1-1.2-1.7-1.7c-0.5-0.4-1.7-0.9-1.9-1.5l0,0c0.4-0.1,0.8-0.1,1.2-0.3c0.6-0.2,1.1-0.1,1.7-0.3
			c0.3-0.1,0.5-0.2,0.8-0.2V19c-0.3-0.3-0.5-0.7-0.8-1c-0.9-0.8-1.8-1.4-2.8-2.1c-0.5-0.3-1.2-0.6-1.7-0.8c-0.2-0.1-0.5-0.2-0.7-0.3
			c-0.3-0.4-0.5-0.8-0.7-1.3c-0.5-0.9-1-1.9-1.4-2.9c-0.2-0.7-0.5-1.3-0.9-1.9c-1.6-2.6-3.8-4.8-6.5-6.3c-0.7-0.3-1.4-0.6-2.1-0.7
			c-0.4,0-0.8,0-1.3-0.1c-0.3-0.2-0.5-0.4-0.8-0.6c-1-0.6-3.4-1.9-4.1-0.2C41,1.9,42.1,3,42.5,3.6c0.3,0.4,0.6,0.8,0.9,1.3
			c0.1,0.3,0.2,0.6,0.3,0.9c0.2,0.8,0.5,1.5,0.9,2.2c0.2,0.4,0.4,0.7,0.6,1c0.1,0.2,0.4,0.3,0.4,0.6c-0.2,0.4-0.3,0.8-0.4,1.3
			c-0.6,1.9-0.4,3.9,0.5,5.6c0.3,0.4,0.9,1.3,1.8,1c0.8-0.3,0.6-1.3,0.8-2.1c0.1-0.2,0-0.3,0.1-0.5v0c0.2,0.5,0.5,0.9,0.7,1.4
			c0.6,0.9,1.3,1.6,2.2,2.2c0.4,0.3,0.7,0.8,1.2,1v-0.1h0c-0.1-0.1-0.2-0.2-0.4-0.3c-0.3-0.3-0.6-0.6-0.9-1c-0.7-1-1.3-2-1.9-3
			c-0.3-0.5-0.5-1.1-0.7-1.6c-0.1-0.2-0.1-0.5-0.3-0.6c-0.3,0.3-0.6,0.7-0.8,1.1c-0.3,0.8-0.4,1.7-0.5,2.5c-0.1,0,0,0-0.1,0
			c-0.5-0.1-0.7-0.7-0.9-1.2c-0.5-1.4-0.6-3-0.2-4.5c0.1-0.4,0.6-1.5,0.4-1.8c-0.1-0.3-0.4-0.5-0.6-0.8c-0.2-0.3-0.4-0.7-0.6-1.1
			c-0.4-0.9-0.6-2-1-2.9c-0.2-0.5-0.5-0.9-0.8-1.3c-0.3-0.4-0.7-0.8-0.9-1.3c-0.1-0.2-0.2-0.5-0.1-0.7c0-0.1,0.1-0.2,0.2-0.2
			c0.2-0.2,0.8,0,1.1,0.2c0.6,0.2,1.1,0.5,1.7,0.8c0.2,0.2,0.5,0.5,0.8,0.6h0.4c0.5,0.1,1.1,0,1.6,0.2c0.8,0.3,1.7,0.7,2.4,1.2
			c2.2,1.4,4,3.4,5.2,5.7c0.2,0.4,0.3,0.7,0.5,1.1c0.4,0.8,0.8,1.7,1.1,2.5c0.3,0.8,0.7,1.5,1.2,2.2c0.3,0.4,1.3,0.5,1.7,0.7
			c0.4,0.1,0.8,0.3,1.2,0.5c0.6,0.4,1.1,0.8,1.7,1.1C63.2,17.9,64,18.4,64.1,18.7L64.1,18.7z"/>
		
			<linearGradient id="SVGID_2_" gradientUnits="userSpaceOnUse" x1="-290.3254" y1="2188.7219" x2="-289.2944" y2="2187.6838" gradientTransform="matrix(1.3451 0 0 -1.608 436.9146 3523.4741)">
			<stop  offset="0" style="stop-color:#087BE2"/>
			<stop  offset="1" style="stop-color:#0C0F60"/>
		</linearGradient>
		<path class="st2" d="M47,4.1c-0.2,0-0.5,0-0.7,0.1v0h0c0.2,0.2,0.3,0.5,0.5,0.7c0.1,0.3,0.3,0.5,0.4,0.8l0,0
			c0.3-0.2,0.4-0.5,0.4-0.8c-0.1-0.1-0.1-0.2-0.2-0.4C47.3,4.4,47.1,4.3,47,4.1L47,4.1z"/>
		
			<linearGradient id="SVGID_3_" gradientUnits="userSpaceOnUse" x1="-1070.4457" y1="5201.7461" x2="-1069.4147" y2="5200.708" gradientTransform="matrix(36.794 0 0 -11.5984 39413.4766 60353.4922)">
			<stop  offset="0" style="stop-color:#087BE2"/>
			<stop  offset="1" style="stop-color:#0C0F60"/>
		</linearGradient>
		<path class="st3" d="M29.1,31.2h6.3c0.7,0,1.4-0.1,2-0.4c1-0.4,1.4-1,1.4-1.8v-1.6c0-0.6-0.5-1.2-1.6-1.6
			c-0.6-0.2-1.2-0.3-1.9-0.3h-2.6c-0.9,0-1.3-0.3-1.4-0.9c0-0.1,0-0.1,0-0.2v-1c0-0.1,0-0.1,0-0.2c0.1-0.5,0.4-0.6,1.1-0.7h6.5v-1.5
			h-6.1c-0.6,0-1.2,0-1.8,0.2c-1.3,0.4-1.9,1-1.9,2.2v1.3c0,1,1.1,1.8,3,2c0.2,0,0.4,0,0.6,0H35c0.1,0,0.2,0,0.2,0
			c0.7,0.1,1,0.2,1.2,0.4c0.1,0.1,0.2,0.2,0.2,0.4v1.3c0,0.2-0.1,0.4-0.3,0.5c-0.3,0.2-0.6,0.3-0.9,0.3c-0.1,0-0.1,0-0.2,0h-6V31.2
			L29.1,31.2z M52.4,28.7c0,1.5,1.1,2.3,3.4,2.5c0.2,0,0.4,0,0.6,0h5.7v-1.5h-5.7c-1.3,0-1.8-0.3-1.8-1.1v-7.5h-2.2L52.4,28.7
			L52.4,28.7z M40.2,28.8v-5.2c0-1.3,0.9-2.1,2.8-2.4c0.2,0,0.4,0,0.6,0h4.2c0.2,0,0.4,0,0.6,0c1.8,0.3,2.7,1.1,2.7,2.4v5.2
			c0.1,0.9-0.4,1.7-1.3,2l2.1,1.9h-2.5l-1.7-1.6l-1.8,0.1h-2.3c-0.4,0-0.9-0.1-1.3-0.2C40.9,30.7,40.2,30,40.2,28.8L40.2,28.8z
			 M42.5,28.6c0,0.1,0,0.1,0.1,0.2c0.1,0.6,0.7,0.9,1.6,0.9h2l-1.8-1.6h2.5l1.6,1.4c0.3-0.1,0.5-0.4,0.6-0.7c0-0.1,0-0.1,0-0.2v-5
			c0-0.1,0-0.1,0-0.2c-0.1-0.6-0.7-0.9-1.5-0.9h-3.3c-1,0-1.6,0.4-1.6,1.1L42.5,28.6z M63.1,31.2h0.3V30h0.4v-0.3h-1.2V30h0.4V31.2z
			 M65.6,31.2h0.3v-1.5h-0.5l-0.4,1l-0.4-1h-0.4v1.5h0.3v-1.1h0l0.4,1.1h0.2l0.4-1.1L65.6,31.2L65.6,31.2z"/>
	</g>
</g>
</svg>
