<?xml version="1.0" encoding="utf-8"?>
<!-- Generator: Adobe Illustrator 22.0.1, SVG Export Plug-In . SVG Version: 6.00 Build 0)  -->
<svg version="1.1" id="Layer_1" xmlns="http://www.w3.org/2000/svg" xmlns:xlink="http://www.w3.org/1999/xlink" x="0px" y="0px"
	 width="88px" height="88px" viewBox="0 0 88 88" style="enable-background:new 0 0 88 88;" xml:space="preserve">
<style type="text/css">
	.st0{fill:none;}
	.st1{fill:url(#SVGID_1_);}
	.st2{fill:url(#SVGID_2_);}
	.st3{fill:#FFFFFF;}
</style>
<g transform="translate(-1259 -3299)">
	<path class="st0" d="M1303,3299c24.3,0,44,19.7,44,44s-19.7,44-44,44s-44-19.7-44-44S1278.7,3299,1303,3299z"/>
	<g transform="translate(1278.938 3318.25)">
		
			<linearGradient id="SVGID_1_" gradientUnits="userSpaceOnUse" x1="-1086.1808" y1="5580.7852" x2="-1085.1498" y2="5579.7471" gradientTransform="matrix(48.0159 0 0 -49.5052 52157.6992 276274.0625)">
			<stop  offset="0" style="stop-color:#087BE2"/>
			<stop  offset="1" style="stop-color:#0C0F60"/>
		</linearGradient>
		<path class="st1" d="M47.9,29.7c-0.3-0.9-1.1-1.5-2-1.6c-0.5-0.1-1.1,0-1.6,0.1c-0.8,0.2-1.6,0.3-2.5,0.3
			c2.2-3.8,3.9-7.8,5.1-12.1c1.7-6.5,0.8-9.5-0.3-10.8C43.7,1.9,39.4-0.1,34.8,0c-2.1,0-4.1,0.3-6.1,0.9c-1.2-0.2-2.4-0.3-3.6-0.3
			C23,0.4,20.8,1,18.9,2.1C17.5,1.6,16,1.2,14.5,1C10.2,0.3,6.8,0.8,4.3,2.6C1.2,4.8-0.2,8.5,0,13.8c0.5,3.9,1.3,7.8,2.5,11.6
			c0.7,2.4,1.6,4.6,2.7,6.8c1.3,2.5,2.7,4,4.3,4.5c1.5,0.5,3.1,0.1,4.2-0.9c0.3,0.3,0.6,0.6,0.9,0.8c0.5,0.3,1.1,0.6,1.7,0.7
			c1.9,0.5,4,0.4,5.8-0.3c0,0.3,0,0.6,0,0.8c0,0.4,0,0.8,0,1.2c0,2,0.2,3.9,0.8,5.8c0,0.1,0.1,0.2,0.1,0.3c0.3,1.2,0.9,2.2,1.8,3.1
			c1,0.9,2.3,1.4,3.7,1.4c0.6,0,1.2-0.1,1.7-0.2c2.2-0.3,4.1-1.4,5.5-3.2c1.4-2,2.1-5.1,2.3-10c0-0.1,0-0.3,0-0.4l0-0.3l0.3,0l0.1,0
			c1.9,0.1,3.8-0.2,5.6-1C45.2,34.1,48.7,32.2,47.9,29.7"/>
		
			<linearGradient id="SVGID_2_" gradientUnits="userSpaceOnUse" x1="-1080.2456" y1="5552.3691" x2="-1079.2146" y2="5551.3311" gradientTransform="matrix(38.0663 0 0 -39.5995 41129.1094 219872.7031)">
			<stop  offset="0" style="stop-color:#087BE2"/>
			<stop  offset="1" style="stop-color:#0C0F60"/>
		</linearGradient>
		<path class="st2" d="M41.9,29.5c-4.9,1-5.2-0.6-5.2-0.6c5.1-7.6,7.3-17.4,5.4-19.7c-5-6.5-13.8-3.4-13.9-3.3l0,0
			c-1.1-0.2-2.2-0.3-3.2-0.3c-1.8-0.1-3.6,0.5-5.1,1.5c0,0-15.6-6.5-14.9,8.1c0.2,3.1,4.4,23.5,9.5,17.3c1.9-2.2,3.7-4.1,3.7-4.1
			c0.9,0.6,2,0.9,3.1,0.8l0.1-0.1c0,0.3,0,0.6,0,0.9c-1.3,1.5-0.9,1.7-3.5,2.3c-2.6,0.5-1.1,1.5-0.1,1.8c2.2,0.7,4.6-0.1,6-2
			l-0.1,0.3c0.5,0.4,0.9,2.7,0.8,4.8c-0.2,1.5-0.1,3.1,0.3,4.6c0.4,1.1,0.8,3.6,4.2,2.9c2.9-0.6,4.4-2.2,4.6-4.9
			c0.1-1.9,0.5-1.6,0.5-3.3l0.3-0.8c0.3-2.6,0-3.4,1.8-3l0.4,0c1.4,0.1,2.7-0.2,4-0.7C42.8,30.7,44.1,29,41.9,29.5L41.9,29.5"/>
		<path class="st3" d="M10.8,14.9c-0.8-0.2-1.6-0.1-2.3,0.4c-0.2,0.2-0.3,0.4-0.4,0.7c0,0.5,0.1,0.9,0.4,1.3
			c0.4,0.7,1.1,1.3,1.9,1.5c0.1,0,0.2,0,0.3,0c1.1-0.1,2.1-0.9,2.4-2C13.2,15.8,12,15.1,10.8,14.9 M43.3,14.9
			c-0.1-0.8-1.3-1.1-2.4-0.9s-2.2,0.8-2.1,1.6c0.3,1,1.1,1.7,2.1,1.7c0.1,0,0.2,0,0.3,0c0.6-0.1,1.2-0.5,1.6-1
			C43,16,43.2,15.5,43.3,14.9"/>
		<path class="st3" d="M44.5,29.6c-0.2-0.6-0.8-0.8-1.9-0.6c-3.1,0.6-4.2,0.2-4.6-0.1c2.5-3.8,4.3-8,5.5-12.3
			c0.5-1.7,0.7-3.5,0.8-5.3c0.1-1.3-0.2-2.5-0.8-3.6c-2.4-3-6-4.7-9.8-4.6c-1.9,0-3.8,0.3-5.7,0.9c-1-0.3-2.1-0.4-3.2-0.4
			c-1.9-0.1-3.8,0.4-5.5,1.5C18,4.6,16.6,4.2,15,4c-3.6-0.6-6.4-0.1-8.5,1.3C4.1,7,3,10.1,3.2,14.5c0.4,3.5,1.2,7,2.2,10.4
			c1.7,5.7,3.6,9,5.6,9.6c0.3,0.1,0.5,0.1,0.8,0.1c1-0.1,2-0.6,2.5-1.4c1.1-1.4,2.3-2.7,3.5-4c0.8,0.4,1.6,0.7,2.5,0.7
			c0,0,0,0,0,0.1c-0.2,0.2-0.3,0.4-0.4,0.6c-0.6,0.8-0.7,0.9-2.7,1.3c-0.6,0.1-2,0.4-2,1.5c0,1.1,1.7,1.6,1.9,1.7
			c0.7,0.2,1.3,0.3,2,0.3c1.5,0,2.9-0.5,4-1.5c0,4.1,0.1,8.1,0.6,9.3c0.5,2,2.3,3.4,4.4,3.4c0.5,0,1-0.1,1.5-0.2
			c3.2-0.7,4.6-2.1,5.1-5.2c0.3-1.7,0.8-5.7,1-7.8c0.6,0.2,1.2,0.2,1.8,0.2c1.4,0,2.8-0.3,4.1-0.8C42.8,32.1,44.9,30.8,44.5,29.6z
			 M37,15.1c0,0.6-0.1,1.2-0.2,1.8c-0.1,0.7-0.2,1.4-0.2,2.1c0,0.8,0.1,1.6,0.2,2.4c0.3,1.6,0.2,3.3-0.4,4.9
			c-0.1-0.2-0.2-0.5-0.3-0.7c-0.1-0.2-0.3-0.6-0.6-1.1c-1.1-2-3.7-6.7-2.4-8.6C33.5,15.4,34.5,14.8,37,15.1L37,15.1z M33.9,4.4
			c3.4-0.1,6.6,1.5,8.6,4.1c1.6,2-0.2,11.3-5.2,19.3l-0.2-0.2l-0.1-0.1c1.3-2.2,1-4.3,0.8-6.2c-0.1-0.7-0.2-1.5-0.2-2.2
			c0-0.7,0.1-1.3,0.2-2c0.1-0.8,0.2-1.6,0.2-2.4c0-0.1,0-0.2,0-0.3c-0.5-2.2-1.6-4.2-3.1-5.9c-1.3-1.6-3-2.9-4.9-3.7
			C31.5,4.5,32.7,4.4,33.9,4.4L33.9,4.4z M13.4,32.4c-1,1.2-1.7,1-1.9,0.9c-1.5-0.5-3.2-3.7-4.8-8.8c-1-3.3-1.7-6.6-2.2-10
			c-0.2-3.9,0.7-6.6,2.8-8.1c3.3-2.4,8.8-1,11-0.2c0,0-0.1,0.1-0.1,0.1c-3.6,3.7-3.5,10-3.5,10.4c0,0.1,0,0.4,0,0.6
			c0.1,1.8,0.1,3.5-0.1,5.3c-0.3,2,0.3,4.1,1.7,5.6c0.1,0.1,0.3,0.3,0.5,0.4C16.2,29.1,14.8,30.6,13.4,32.4L13.4,32.4z M17.3,27.2
			c-1.1-1.2-1.6-2.9-1.4-4.5c0.2-1.8,0.3-3.7,0.1-5.5c0-0.2,0-0.3,0-0.4c0.5-0.5,3-1.8,4.7-1.4c0.8,0.2,1.4,0.9,1.5,1.7
			c1,4.9,0.1,6.9-0.6,8.5c-0.1,0.3-0.3,0.7-0.4,1l-0.1,0.3c-0.2,0.6-0.4,1.2-0.6,1.8C19.3,28.6,18.1,28.1,17.3,27.2L17.3,27.2z
			 M17.4,33.7c-0.3-0.1-0.6-0.2-0.8-0.4c0.3-0.1,0.6-0.2,0.9-0.3c2.3-0.5,2.6-0.8,3.4-1.8c0.2-0.2,0.4-0.5,0.7-0.8l0,0
			c0.4-0.5,0.6-0.4,0.9-0.2c0.3,0.2,0.6,0.5,0.7,0.9c0.1,0.3,0.1,0.6-0.1,0.8C21.8,33.7,19.5,34.4,17.4,33.7L17.4,33.7z M29.4,45
			c-2.8,0.6-3.8-0.8-4.5-2.5c-0.4-1.1-0.6-5.9-0.5-11.2c0-0.1,0-0.1,0-0.2c0-0.1,0-0.3-0.1-0.4c-0.2-0.7-0.7-1.4-1.4-1.7
			c-0.4-0.2-0.8-0.3-1.3-0.2c0.2-0.6,0.3-1.1,0.6-1.7l0.1-0.3c0.1-0.3,0.2-0.6,0.4-0.9c0.8-1.7,1.8-4,0.7-9.3c-0.4-2-1.8-2.9-4-2.7
			c-1.1,0.1-2.1,0.5-3.1,1c-0.1,0.1-0.2,0.1-0.4,0.2c0.2-2,0.8-5.7,3.1-8.1c1.5-1.5,3.6-2.3,5.8-2.2c3.6,0,7.1,1.7,9.3,4.5
			c1.1,1.3,2,2.8,2.6,4.4c-2.4-0.2-4,0.2-4.8,1.4c-1.8,2.6,1,7.5,2.3,9.9c0.2,0.4,0.5,0.8,0.5,1c0.3,0.8,0.8,1.6,1.4,2.3
			c0.1,0.2,0.2,0.3,0.3,0.4c-0.7,0.2-2,0.7-1.9,3.1c-0.1,1.2-0.8,6.9-1.1,8.9C33.1,43.4,32.2,44.4,29.4,45L29.4,45z M41.2,31.5
			c-1,0.4-2.1,0.6-3.1,0.7c-0.7,0.1-1.4,0-2.1-0.3c-0.1-1.5,0.5-1.7,1.1-1.8c0.1,0,0.2-0.1,0.3-0.1c0.1,0,0.1,0.1,0.2,0.1
			c1,0.7,2.9,0.8,5.5,0.2l0,0C42.4,30.8,41.8,31.2,41.2,31.5L41.2,31.5z"/>
	</g>
</g>
</svg>
