<?xml version="1.0" encoding="utf-8"?>
<!-- Generator: Adobe Illustrator 22.0.1, SVG Export Plug-In . SVG Version: 6.00 Build 0)  -->
<svg version="1.1" id="Layer_1" xmlns="http://www.w3.org/2000/svg" xmlns:xlink="http://www.w3.org/1999/xlink" x="0px" y="0px"
	 width="88px" height="88px" viewBox="0 0 88 88" style="enable-background:new 0 0 88 88;" xml:space="preserve">
<style type="text/css">
	.st0{fill:none;}
	.st1{fill:url(#SVGID_1_);}
</style>
<path class="st0" d="M44,0c24.3,0,44,19.7,44,44S68.3,88,44,88S0,68.3,0,44S19.7,0,44,0z"/>
<linearGradient id="SVGID_1_" gradientUnits="userSpaceOnUse" x1="-1063.0508" y1="5595.3398" x2="-1062.0198" y2="5594.3018" gradientTransform="matrix(42.046 0 0 -47.552 44722.3594 266087.4688)">
	<stop  offset="0" style="stop-color:#087BE2"/>
	<stop  offset="1" style="stop-color:#0C0F60"/>
</linearGradient>
<path class="st1" d="M44.3,20.2h-21l0.8,8.4h32.1l-0.8,8.6H24.7l0.8,8.5h29.2l-1,10.9l-9.4,2.5l-9.4-2.5l-0.7-6.7h-8.4L27,63
	l17.3,4.7L61.6,63l0.1-1.4l2-22.1l0.1-2.3l1.5-17H44.3z"/>
</svg>
