<?xml version="1.0" encoding="utf-8"?>
<!-- Generator: Adobe Illustrator 22.0.1, SVG Export Plug-In . SVG Version: 6.00 Build 0)  -->
<svg version="1.1" id="Layer_1" xmlns="http://www.w3.org/2000/svg" xmlns:xlink="http://www.w3.org/1999/xlink" x="0px" y="0px"
	 width="88px" height="88px" viewBox="0 0 88 88" style="enable-background:new 0 0 88 88;" xml:space="preserve">
<style type="text/css">
	.st0{fill:none;}
	.st1{fill:url(#SVGID_1_);}
</style>
<g transform="translate(-359 -3073.968)">
	<path class="st0" d="M403,3074c24.3,0,44,19.7,44,44s-19.7,44-44,44s-44-19.7-44-44S378.7,3074,403,3074z"/>
	
		<linearGradient id="SVGID_1_" gradientUnits="userSpaceOnUse" x1="-710.4999" y1="8676.7666" x2="-709.4689" y2="8675.7285" gradientTransform="matrix(55.9939 0 0 -50.7509 40161.543 443447.125)">
		<stop  offset="0" style="stop-color:#7B7B7B"/>
		<stop  offset="1" style="stop-color:#0C0F60"/>
	</linearGradient>
	<path class="st1" d="M425.9,3126.1v-25.5h-45.7v25.5H425.9z M425.9,3095.6c1.4,0,2.7,0.5,3.6,1.5c1,0.9,1.5,2.2,1.5,3.5v30.5
		c0,1.4-0.5,2.7-1.5,3.6c-1,1-2.3,1.5-3.6,1.5h-17.8l5,7.6v2.5h-20.2v-2.5l5-7.6h-17.7c-1.4,0-2.7-0.5-3.6-1.5c-1-1-1.5-2.3-1.5-3.6
		v-30.5c0-1.3,0.5-2.6,1.5-3.5c1-1,2.3-1.5,3.6-1.5L425.9,3095.6z M382.6,3103.2h28v12.6h-28V3103.2z M413.1,3103.2h10.2v5h-10.2
		L413.1,3103.2z M423.4,3110.9v12.6h-10.2v-12.6H423.4z M382.6,3118.5h12.7v5h-12.7V3118.5z M397.9,3118.5h12.7v5h-12.7V3118.5z"/>
</g>
</svg>
