<?xml version="1.0" encoding="utf-8"?>
<!-- Generator: Adobe Illustrator 22.0.1, SVG Export Plug-In . SVG Version: 6.00 Build 0)  -->
<svg version="1.1" id="Layer_1" xmlns="http://www.w3.org/2000/svg" xmlns:xlink="http://www.w3.org/1999/xlink" x="0px" y="0px"
	 width="88px" height="88px" viewBox="0 0 88 88" style="enable-background:new 0 0 88 88;" xml:space="preserve">
<style type="text/css">
	.st0{fill:none;}
	.st1{fill:url(#SVGID_1_);}
	.st2{fill:url(#SVGID_2_);}
</style>
<g transform="translate(-971 -3073)">
	<path class="st0" d="M1015,3073c24.3,0,44,19.7,44,44s-19.7,44-44,44s-44-19.7-44-44S990.7,3073,1015,3073z"/>
	<g transform="translate(990.711 3093.625)">
		
			<linearGradient id="SVGID_1_" gradientUnits="userSpaceOnUse" x1="-1077.77" y1="5533.5229" x2="-1076.739" y2="5532.4849" gradientTransform="matrix(35.2013 0 0 -35.2799 37939.1094 195221.8906)">
			<stop  offset="0" style="stop-color:#087BE2"/>
			<stop  offset="1" style="stop-color:#0C0F60"/>
		</linearGradient>
		<path class="st1" d="M23.6,0C11.5,0,12.3,5.2,12.3,5.2l0,5.4h11.5v1.6H7.7c0,0-7.7-0.9-7.7,11.3s6.7,11.7,6.7,11.7h4v-5.6
			c0,0-0.2-6.7,6.6-6.7h11.4c0,0,6.4,0.1,6.4-6.2V6.3C35.2,6.3,36.2,0,23.6,0z M17.2,3.6c1.1,0,2.1,0.9,2.1,2.1
			c0,1.1-0.9,2.1-2.1,2.1c-1.1,0-2.1-0.9-2.1-2.1c0-0.5,0.2-1.1,0.6-1.5C16.1,3.9,16.7,3.6,17.2,3.6z"/>
		
			<linearGradient id="SVGID_2_" gradientUnits="userSpaceOnUse" x1="-1077.776" y1="5533.5127" x2="-1076.7451" y2="5532.4746" gradientTransform="matrix(35.2014 0 0 -35.2789 37951.4805 195228.3125)">
			<stop  offset="0" style="stop-color:#087BE2"/>
			<stop  offset="1" style="stop-color:#0C0F60"/>
		</linearGradient>
		<path class="st2" d="M23.9,47.2C36,47.2,35.2,42,35.2,42l0-5.4H23.7V35h16.1c0,0,7.7,0.9,7.7-11.3s-6.7-11.7-6.7-11.7h-4v5.6
			c0,0,0.2,6.7-6.6,6.7H18.7c0,0-6.4-0.1-6.4,6.2v10.4C12.3,40.9,11.3,47.2,23.9,47.2L23.9,47.2z M30.2,43.6c-1.1,0-2.1-0.9-2.1-2.1
			c0-1.1,0.9-2.1,2.1-2.1s2.1,0.9,2.1,2.1c0,0.5-0.2,1.1-0.6,1.5C31.3,43.4,30.8,43.6,30.2,43.6z"/>
	</g>
</g>
</svg>
