<svg xmlns="http://www.w3.org/2000/svg" width="88" height="88" viewBox="0 0 88 88">
  <g id="tech-struts" transform="translate(-330 -3657)">
    <path id="Path_379" data-name="Path 379" d="M44,0A44,44,0,1,1,0,44,44,44,0,0,1,44,0Z" transform="translate(330 3657)" fill="rgba(0,29,255,0)"/>
    <g id="struts" transform="translate(349 3673)">
      <path id="Path_404" data-name="Path 404" d="M54.849,22.207,33.245,9.66,9.66,22.868V49.283L33.245,62.49,55.887,49.283V21.736Z" transform="translate(-7.773 -7.773)" fill="#202a5a"/>
      <path id="Path_405" data-name="Path 405" d="M9.66,22.868,33.245,36.075,55.887,22.868,33.245,9.66Z" transform="translate(-7.773 -7.773)" fill="#2c448a"/>
      <path id="Path_406" data-name="Path 406" d="M153.057,71.487l-7.547,3.962-.094,1.7-15,8.679v26.415l22.642-13.208Z" transform="translate(-104.943 -57.525)" fill="#283a79"/>
      <path id="Path_407" data-name="Path 407" d="M9.66,77.283V103.7l23.585,13.208V90.491Z" transform="translate(-7.773 -62.189)" fill="#202a5a"/>
      <path id="Path_408" data-name="Path 408" d="M0,103.7v-8.49L25.472,110.3v8.49ZM0,77.283V82L25.472,97.094V92.377Z" transform="translate(0 -62.189)" fill="#3558a7"/>
      <path id="Path_409" data-name="Path 409" d="M154.943,156.169v-4.717l-20.66-8.963-3.868,2.358v4.623l12.547,5.566-12.547,7.736v8.49Z" transform="translate(-104.943 -114.66)" fill="#416fb5"/>
      <path id="Path_410" data-name="Path 410" d="M38.019,40.377l-1.51-.566L25.472,46.226,1.887,33.019V31.887L0,33.019,25.472,48.113Zm-26.887-23.4,14.34-8.49,15.094,9.434,7.547-3.962L25.472,0,0,15.094,25.472,30.189,29.34,27.83,11.132,16.981Z" fill="#477fc1"/>
      <path id="Path_411" data-name="Path 411" d="M86.336,54.6l.094-1.7L71.336,43.472,57,51.962l1.6.943,12.736-7.547,15,9.245Z" transform="translate(-45.864 -34.981)" fill="#202a5a"/>
    </g>
  </g>
</svg>
