<?xml version="1.0" encoding="utf-8"?>
<!-- Generator: Adobe Illustrator 22.0.1, SVG Export Plug-In . SVG Version: 6.00 Build 0)  -->
<svg version="1.1" id="Layer_1" xmlns="http://www.w3.org/2000/svg" xmlns:xlink="http://www.w3.org/1999/xlink" x="0px" y="0px"
	 width="88px" height="88px" viewBox="0 0 88 88" style="enable-background:new 0 0 88 88;" xml:space="preserve">
<style type="text/css">
	.st0{fill:none;}
	.st1{fill:url(#SVGID_1_);}
	.st2{fill:url(#SVGID_2_);}
	.st3{fill:url(#SVGID_3_);}
	.st4{fill:url(#SVGID_4_);}
</style>
<g transform="translate(-1259 -3525)">
	<path class="st0" d="M1303,3525c24.3,0,44,19.7,44,44s-19.7,44-44,44s-44-19.7-44-44S1278.7,3525,1303,3525z"/>
	<g transform="translate(1274.125 3555.938)">
		
			<linearGradient id="SVGID_1_" gradientUnits="userSpaceOnUse" x1="-1085.3422" y1="5284.6792" x2="-1084.3112" y2="5283.6411" gradientTransform="matrix(57.7565 0 0 -14.1369 62681.418 74710.2188)">
			<stop  offset="0" style="stop-color:#087BE2"/>
			<stop  offset="1" style="stop-color:#0C0F60"/>
		</linearGradient>
		<path class="st1" d="M22.9,4.3c-1,0-1.9,0.3-2.6,0.9V4.4h-2.4v9.4h2.5v-6c0.5-0.7,1.4-1.1,2.2-1.2c0.3,0,0.7,0,1,0.2V4.4
			C23.4,4.3,23.2,4.3,22.9,4.3 M1.1,10.9c0.7,0.6,1.6,1,2.6,0.9c0.7,0,1.2-0.3,1.2-0.8c0-1.4-4.5-0.9-4.5-3.9c0-1.8,1.8-2.9,3.6-2.9
			c1.1,0,2.2,0.3,3.2,0.9L6,7C5.5,6.6,4.9,6.3,4.2,6.3C3.5,6.3,3,6.6,3,7.1c0,1.2,4.5,0.7,4.5,4c0,1.8-1.8,2.9-3.7,2.9
			c-1.3,0-2.7-0.5-3.7-1.3L1.1,10.9z M16.9,9c0.2-2.5-1.7-4.6-4.2-4.8c-0.1,0-0.1,0-0.2,0c-2.5,0-4.6,2.1-4.6,4.7c0,0.1,0,0.1,0,0.2
			c-0.1,2.6,1.9,4.7,4.4,4.9c0.1,0,0.3,0,0.4,0c1.5,0,2.9-0.6,3.8-1.7l-1.4-1.4c-0.6,0.7-1.5,1.1-2.4,1.1c-1.3,0-2.4-0.9-2.5-2.2
			h6.5C16.8,9.5,16.9,9.2,16.9,9 M10.5,7.9c0.2-0.9,1-1.6,2-1.6c0.9,0,1.7,0.7,1.9,1.6L10.5,7.9z M29.6,10.1l2.6-5.7h2.6l-4.3,9.4
			h-1.8l-4.3-9.4h2.6L29.6,10.1z M36.9,0c0.9,0,1.6,0.7,1.6,1.6c0,0.9-0.8,1.6-1.7,1.6c-0.9,0-1.6-0.7-1.6-1.6C35.3,0.7,36,0,36.9,0
			C36.9,0,36.9,0,36.9,0 M35.6,4.4h2.5v9.4h-2.5V4.4z M48.4,11.8c-1.5,2.3-4.6,3-6.9,1.5c-2.3-1.5-3-4.6-1.5-6.9
			C41,5,42.6,4.1,44.3,4.2c1.5,0,3,0.7,3.9,1.9l-1.8,1.6c-0.5-0.7-1.3-1.1-2.1-1.1c-1.4,0-2.5,1.1-2.5,2.5c0,0,0,0,0,0
			c-0.1,1.4,1,2.5,2.4,2.6c0.1,0,0.1,0,0.2,0c0.9,0,1.8-0.5,2.2-1.3L48.4,11.8z M57.5,12.3c-1,1.1-2.4,1.7-3.8,1.7
			c-2.6,0.1-4.7-1.9-4.9-4.4c0-0.1,0-0.3,0-0.4c-0.2-2.5,1.7-4.7,4.3-4.9c0.1,0,0.2,0,0.3,0c2.5,0.1,4.5,2.2,4.4,4.6
			c0,0,0,0.1,0,0.1c0,0.2,0,0.5-0.1,0.7h-6.5c0.1,1.3,1.2,2.3,2.5,2.2c0.9,0,1.8-0.4,2.4-1.1L57.5,12.3z M55.2,7.9
			c-0.1-0.9-0.9-1.7-1.9-1.6c-1,0-1.8,0.7-2,1.6H55.2z"/>
		
			<linearGradient id="SVGID_2_" gradientUnits="userSpaceOnUse" x1="-986.64" y1="5095.4087" x2="-985.6089" y2="5094.3706" gradientTransform="matrix(9.2643 0 0 -9.5798 9152.6455 48829.3281)">
			<stop  offset="0" style="stop-color:#087BE2"/>
			<stop  offset="1" style="stop-color:#0C0F60"/>
		</linearGradient>
		<path class="st2" d="M12.8,25.2v-9.4h2.4v0.8c0.7-0.6,1.7-1,2.6-0.9c1.3,0,2.4,0.6,3.2,1.5c0.7,0.9,1.1,2.1,1,3.3v4.8h-2.5v-5
			c0.1-0.6-0.1-1.3-0.5-1.8C18.6,18.2,18,18,17.5,18c-0.9,0-1.7,0.4-2.2,1.1v6.1L12.8,25.2z"/>
		
			<linearGradient id="SVGID_3_" gradientUnits="userSpaceOnUse" x1="-1004.7235" y1="5106.6055" x2="-1003.6925" y2="5105.5674" gradientTransform="matrix(10.9524 0 0 -9.7654 11026.7129 49884.2773)">
			<stop  offset="0" style="stop-color:#087BE2"/>
			<stop  offset="1" style="stop-color:#0C0F60"/>
		</linearGradient>
		<path class="st3" d="M28.4,15.7c-3,0-5.4,2.4-5.5,5.4c0,1.5,0.6,3,1.7,4.1c0.4,0.4,1,0.4,1.4,0.1c0.7-0.5,1.5-0.8,2.4-0.8
			c0.8,0,1.7,0.3,2.4,0.8c0.4,0.3,1,0.3,1.4-0.1c2.2-2.1,2.3-5.5,0.2-7.7C31.4,16.3,29.9,15.7,28.4,15.7 M28.4,23.9
			c-1.5,0-2.7-1.1-2.7-2.6c0,0,0-0.1,0-0.1c-0.1-1.5,1.1-2.7,2.5-2.7c0.1,0,0.1,0,0.2,0c1.5,0,2.7,1.2,2.7,2.7
			C31.1,22.7,29.9,23.9,28.4,23.9C28.4,23.9,28.4,23.9,28.4,23.9"/>
		
			<linearGradient id="SVGID_4_" gradientUnits="userSpaceOnUse" x1="-1032.2421" y1="5081.7461" x2="-1031.2111" y2="5080.708" gradientTransform="matrix(15.163 0 0 -9.36 15686.0303 47580.4297)">
			<stop  offset="0" style="stop-color:#087BE2"/>
			<stop  offset="1" style="stop-color:#0C0F60"/>
		</linearGradient>
		<path class="st4" d="M38.8,25.2h-1.9l-3.7-9.4h2.5l2,5.4l2-5.4h2.1l2,5.4l2-5.4h2.5l-3.7,9.4h-1.9l-2-5.3L38.8,25.2z"/>
	</g>
</g>
</svg>
