<?xml version="1.0" encoding="utf-8"?>
<!-- Generator: Adobe Illustrator 22.0.1, SVG Export Plug-In . SVG Version: 6.00 Build 0)  -->
<svg version="1.1" id="Layer_1" xmlns="http://www.w3.org/2000/svg" xmlns:xlink="http://www.w3.org/1999/xlink" x="0px" y="0px"
	 width="88px" height="88px" viewBox="0 0 88 88" style="enable-background:new 0 0 88 88;" xml:space="preserve">
<style type="text/css">
	.st0{fill:none;}
	.st1{fill:url(#SVGID_1_);}
</style>
<path class="st0" d="M44,0c24.3,0,44,19.7,44,44S68.3,88,44,88S0,68.3,0,44S19.7,0,44,0z"/>
<linearGradient id="SVGID_1_" gradientUnits="userSpaceOnUse" x1="-3189.6636" y1="5361.9946" x2="-3188.6326" y2="5360.957" gradientTransform="matrix(42.2705 0 0 -47.99 134853.4531 257339.7812)">
	<stop  offset="0" style="stop-color:#087BE2"/>
	<stop  offset="1" style="stop-color:#0C0F60"/>
</linearGradient>
<path class="st1" d="M43.9,59.2l9.5-2.6l1-10.9H43.9v-8.5h19.7l-0.2,2.3l-2,22.2l-0.1,1.4L43.9,68V59.2z M26.5,63.2l-1.1-13.3h8.5
	l0.6,6.7l9.5,2.6V68L26.5,63.2z M24.9,45.7l-2.1-23.3L22.7,20h21.1v8.5h-12l0.8,8.7h11.2v8.5H24.9z M64.2,28.5H43.9V20H65l-0.1,2.3
	l-0.4,4.3l-0.1,1.9C64.4,28.5,64.2,28.5,64.2,28.5z"/>
</svg>
