<?xml version="1.0" encoding="utf-8"?>
<!-- Generator: Adobe Illustrator 22.0.1, SVG Export Plug-In . SVG Version: 6.00 Build 0)  -->
<svg version="1.1" id="Layer_1" xmlns="http://www.w3.org/2000/svg" xmlns:xlink="http://www.w3.org/1999/xlink" x="0px" y="0px"
	 width="88px" height="88px" viewBox="0 0 88 88" style="enable-background:new 0 0 88 88;" xml:space="preserve">
<style type="text/css">
	.st0{fill:none;}
	.st1{fill:url(#SVGID_1_);}
</style>
<g transform="translate(-359 -3552.968)">
	<path class="st0" d="M403,3553c24.3,0,44,19.7,44,44s-19.7,44-44,44s-44-19.7-44-44S378.7,3553,403,3553z"/>
	
		<linearGradient id="SVGID_1_" gradientUnits="userSpaceOnUse" x1="-710.6484" y1="9166.0117" x2="-709.6174" y2="9164.9736" gradientTransform="matrix(56.0008 0 0 -56.0008 40169.5586 516877.5625)">
		<stop  offset="0" style="stop-color:#7B7B7B"/>
		<stop  offset="1" style="stop-color:#0C0F60"/>
	</linearGradient>
	<path class="st1" d="M427.2,3595.4h-4v-10.8c0-1.4-0.6-2.7-1.6-3.7c-1-1-2.3-1.6-3.7-1.6h-10.8v-4c0-1.8-0.7-3.5-1.9-4.8
		c-1.2-1.3-2.9-2-4.7-2c-1.8,0-3.5,0.7-4.7,2c-1.3,1.3-2,3-1.9,4.8v4h-10.8c-1.4,0-2.7,0.6-3.7,1.6c-1,1-1.6,2.3-1.6,3.7v10.1h4
		c1.9,0,3.8,0.7,5.1,2.1c1.4,1.4,2.1,3.2,2.1,5.1c0,1.9-0.7,3.8-2.1,5.1c-1.3,1.4-3.2,2.2-5.1,2.1h-4v10.1c0,1.4,0.6,2.7,1.6,3.7
		c1,1,2.3,1.6,3.7,1.6h10.1v-4c0-1.9,0.7-3.8,2.1-5.1c1.4-1.4,3.2-2.1,5.1-2.1c1.9,0,3.8,0.7,5.1,2.1c1.4,1.3,2.2,3.2,2.1,5.1v4H418
		c1.4,0,2.7-0.6,3.7-1.6c1-1,1.6-2.3,1.6-3.7v-10.8h4c1.8,0,3.5-0.7,4.8-1.9c1.3-1.2,2-2.9,2-4.7c0-1.8-0.7-3.5-2-4.7
		C430.7,3596.1,429,3595.4,427.2,3595.4z"/>
</g>
</svg>
