<?xml version="1.0" encoding="utf-8"?>
<!-- Generator: Adobe Illustrator 22.0.1, SVG Export Plug-In . SVG Version: 6.00 Build 0)  -->
<svg version="1.1" id="Layer_1" xmlns="http://www.w3.org/2000/svg" xmlns:xlink="http://www.w3.org/1999/xlink" x="0px" y="0px"
	 width="88px" height="88px" viewBox="0 0 88 88" style="enable-background:new 0 0 88 88;" xml:space="preserve">
<style type="text/css">
	.st0{fill:none;}
	.st1{fill:url(#path8_1_);}
	.st2{fill:url(#path10_1_);}
	.st3{fill:url(#path12_1_);}
	.st4{fill:url(#path14_1_);}
	.st5{fill:url(#path16_1_);}
	.st6{fill:url(#path18_1_);}
	.st7{fill:url(#path20_1_);}
	.st8{fill:url(#path22_1_);}
</style>
<g id="tech-objective-c" transform="translate(12166 -9885)">
	<path id="Path_12047" class="st0" d="M-12122,9885c24.3,0,44,19.7,44,44c0,24.3-19.7,44-44,44s-44-19.7-44-44
		C-12166,9904.7-12146.3,9885-12122,9885z"/>
	<g id="Layer_2_1_" transform="translate(-12150.875 9900.125)">
		<g id="Layer_1_1_" transform="translate(0 0)">
			
				<linearGradient id="path8_1_" gradientUnits="userSpaceOnUse" x1="-1085.2657" y1="5601.0557" x2="-1084.2347" y2="5600.0176" gradientTransform="matrix(57.75 0 0 -57.749 62674.2383 323455.3125)">
				<stop  offset="0" style="stop-color:#087BE2"/>
				<stop  offset="1" style="stop-color:#0C0F60"/>
			</linearGradient>
			<path id="path8" class="st1" d="M28.8,57.7C13.3,57.7,0.1,44.6,0,29c-0.1-7.6,2.9-14.9,8.3-20.3C13.7,3.2,21.1,0,28.9,0l0,0
				c7.6,0,14.9,3,20.3,8.4c5.5,5.3,8.6,12.6,8.6,20.2c0.1,16-12.8,29-28.7,29.1H28.8z M28.9,1.5c-7.3,0-14.4,3-19.5,8.3
				c-5.1,5.1-7.9,12-7.9,19.2c0.1,14.8,12.6,27.2,27.3,27.2H29c15.1-0.1,27.3-12.5,27.3-27.6c-0.1-7.2-3-14.1-8.2-19.1
				C43,4.4,36.1,1.5,28.9,1.5L28.9,1.5z"/>
			
				<linearGradient id="path10_1_" gradientUnits="userSpaceOnUse" x1="-838.7722" y1="5365.521" x2="-837.7412" y2="5364.4829" gradientTransform="matrix(4.104 0 0 -16.895 3448.8066 90670.8984)">
				<stop  offset="0" style="stop-color:#087BE2"/>
				<stop  offset="1" style="stop-color:#0C0F60"/>
			</linearGradient>
			<path id="path10" class="st2" d="M6.5,37.3V20.5h4.1V22H8.4v13.9h2.2v1.5L6.5,37.3z"/>
			
				<linearGradient id="path12_1_" gradientUnits="userSpaceOnUse" x1="-977.7462" y1="5104.9785" x2="-976.7152" y2="5103.9409" gradientTransform="matrix(8.617 0 0 -9.478 8437.0352 48409.0547)">
				<stop  offset="0" style="stop-color:#087BE2"/>
				<stop  offset="1" style="stop-color:#0C0F60"/>
			</linearGradient>
			<path id="path12" class="st3" d="M20.4,28.7c0,3.1-1.9,4.8-4.4,4.8s-4.2-2-4.2-4.7c0-2.8,1.8-4.8,4.4-4.8S20.4,26.1,20.4,28.7z
				 M13.6,28.9c0,1.9,0.9,3.3,2.5,3.3c1.6,0,2.5-1.5,2.5-3.4c0-1.7-0.9-3.4-2.5-3.4S13.5,27,13.6,28.9L13.6,28.9z"/>
			
				<linearGradient id="path14_1_" gradientUnits="userSpaceOnUse" x1="-932.8506" y1="5096.2319" x2="-931.8196" y2="5095.1943" gradientTransform="matrix(6.3563 0 0 -9.3412 5950.9644 47629.3516)">
				<stop  offset="0" style="stop-color:#087BE2"/>
				<stop  offset="1" style="stop-color:#0C0F60"/>
			</linearGradient>
			<path id="path14" class="st4" d="M21.8,24.4c0.8-0.1,1.6-0.2,2.4-0.2c0.9-0.1,1.8,0.1,2.6,0.6c0.6,0.4,1,1,1,1.7
				c0,0.9-0.6,1.7-1.5,2l0,0c1.1,0.2,1.8,1.2,1.8,2.3c0,0.7-0.3,1.4-0.9,1.9c-1,0.7-2.2,1-3.4,0.9c-0.7,0-1.4,0-2.1-0.1L21.8,24.4z
				 M23.5,28h0.9c1.2,0,1.8-0.5,1.8-1.3s-0.7-1.3-1.7-1.3c-0.3,0-0.6,0-1,0.1L23.5,28z M23.5,32.2c0.3,0,0.6,0,0.9,0
				c1.1,0,2-0.4,2-1.5s-0.9-1.5-2.1-1.5h-0.8V32.2z"/>
			
				<linearGradient id="path16_1_" gradientUnits="userSpaceOnUse" x1="-858.6254" y1="5096.2817" x2="-857.5944" y2="5095.2437" gradientTransform="matrix(4.436 0 0 -9.341 3837.6194 47628.5586)">
				<stop  offset="0" style="stop-color:#087BE2"/>
				<stop  offset="1" style="stop-color:#0C0F60"/>
			</linearGradient>
			<path id="path16" class="st5" d="M31.5,24.3h1.7v6c0,2.5-1.2,3.4-3,3.4c-0.5,0-1-0.1-1.4-0.2l0.2-1.3c0.3,0.1,0.7,0.2,1,0.2
				c1,0,1.5-0.4,1.5-2L31.5,24.3z"/>
			
				<linearGradient id="path18_1_" gradientUnits="userSpaceOnUse" x1="-790.8322" y1="832.543" x2="-789.8011" y2="831.505" gradientTransform="matrix(3.476 0 0 -1.156 2783.3723 991.6505)">
				<stop  offset="0" style="stop-color:#087BE2"/>
				<stop  offset="1" style="stop-color:#0C0F60"/>
			</linearGradient>
			<path id="path18" class="st6" d="M37.9,29.2v1.2h-3.5v-1.2H37.9z"/>
			
				<linearGradient id="path20_1_" gradientUnits="userSpaceOnUse" x1="-952.3346" y1="5105.1807" x2="-951.3036" y2="5104.1431" gradientTransform="matrix(7.1775 0 0 -9.4802 6874.8481 48421.5273)">
				<stop  offset="0" style="stop-color:#087BE2"/>
				<stop  offset="1" style="stop-color:#0C0F60"/>
			</linearGradient>
			<path id="path20" class="st7" d="M46,33.2c-0.8,0.3-1.6,0.4-2.4,0.4c-2.4,0.2-4.5-1.6-4.7-3.9c0-0.2,0-0.4,0-0.7
				c-0.1-2.5,1.8-4.7,4.4-4.8c0.2,0,0.4,0,0.5,0c0.8,0,1.6,0.1,2.3,0.4l-0.4,1.3c-0.6-0.2-1.2-0.4-1.8-0.4c-1.7-0.1-3.1,1.2-3.2,2.9
				c0,0.2,0,0.3,0,0.5c-0.2,1.7,1,3.1,2.7,3.3c0.2,0,0.3,0,0.5,0c0.6,0,1.2-0.1,1.8-0.3L46,33.2z"/>
			
				<linearGradient id="path22_1_" gradientUnits="userSpaceOnUse" x1="-838.7722" y1="5365.895" x2="-837.7412" y2="5364.8569" gradientTransform="matrix(4.104 0 0 -16.914 3489.498 90779.1016)">
				<stop  offset="0" style="stop-color:#087BE2"/>
				<stop  offset="1" style="stop-color:#0C0F60"/>
			</linearGradient>
			<path id="path22" class="st8" d="M51.3,20.4v16.9h-4.1v-1.5h2.2V21.9h-2.2v-1.5H51.3z"/>
		</g>
	</g>
</g>
</svg>
