<svg xmlns="http://www.w3.org/2000/svg" xmlns:xlink="http://www.w3.org/1999/xlink" width="200" height="200" viewBox="0 0 200 200">
  <defs>
    <clipPath id="clip-path">
      <circle id="artificial-face-recognition-abstract-technology_52683-12749" cx="100" cy="100" r="100" transform="translate(380 5046)" fill="#ffeaea"/>
    </clipPath>
    <radialGradient id="radial-gradient" cx="0.272" cy="0.194" r="0.768" gradientTransform="matrix(0.57, 0.822, -0.822, 0.57, 0.276, -0.14)" gradientUnits="objectBoundingBox">
      <stop offset="0" stop-color="#115cbb"/>
      <stop offset="1" stop-color="#0d0454"/>
    </radialGradient>
    <linearGradient id="linear-gradient" x1="-0.005" y1="0.75" x2="0.915" y2="0.75" gradientUnits="objectBoundingBox">
      <stop offset="0" stop-color="#8d78ed"/>
      <stop offset="1" stop-color="#be9be8"/>
    </linearGradient>
    <linearGradient id="linear-gradient-2" x1="0" y1="0.5" x2="1" y2="0.5" xlink:href="#linear-gradient"/>
    <clipPath id="clip-path-2">
      <path id="Path_4901" data-name="Path 4901" d="M1049.383,511.67a.93.93,0,0,0-.386-.853l7.047,4.095a.931.931,0,0,1,.386.853h0v0c-.153-.083-.357-.2-.506-.292-.082-.045-.186-.108-.264-.153-.552-.324-1.1-.64-1.661-.964q-1.177-.683-2.355-1.371-1.127-.653-2.26-1.312,3.525,2.051,7.047,4.095h0a2.914,2.914,0,0,1-1.322,2.3l-7.047-4.095A2.921,2.921,0,0,0,1049.383,511.67Z" transform="translate(-1048.061 -510.817)" fill="none"/>
    </clipPath>
    <clipPath id="clip-path-3">
      <path id="Path_4912" data-name="Path 4912" d="M1048.925,510.213c.1.063.247.143.353.205l6.694,3.889a.944.944,0,0,0-.946.094l-7.047-4.095A.937.937,0,0,1,1048.925,510.213Z" transform="translate(-1047.979 -510.123)" fill="none"/>
    </clipPath>
    <clipPath id="clip-path-4">
      <path id="Path_4924" data-name="Path 4924" d="M817.642,664.164a.939.939,0,0,0,.948-.094l7.047,4.091a.929.929,0,0,1-.95.1C822.573,667.03,819.754,665.4,817.642,664.164Z" transform="translate(-817.642 -664.07)" fill="none"/>
    </clipPath>
    <clipPath id="clip-path-5">
      <path id="Path_4941" data-name="Path 4941" d="M822.051,647.57q-3.523-2.046-7.045-4.1a.937.937,0,0,1-.39-.856,2.914,2.914,0,0,1,1.329-2.3l7.047,4.095a2.9,2.9,0,0,0-1.329,2.293A.935.935,0,0,0,822.051,647.57Z" transform="translate(-814.616 -640.323)" fill="none"/>
    </clipPath>
    <linearGradient id="linear-gradient-9" x1="-0.655" y1="-2.296" x2="-0.655" y2="-0.936" gradientUnits="objectBoundingBox">
      <stop offset="0.002" stop-color="#d5dff1"/>
      <stop offset="0.621" stop-color="#e5ecf6"/>
      <stop offset="1" stop-color="#f2f6fb"/>
    </linearGradient>
    <linearGradient id="linear-gradient-10" x1="-0.655" y1="-3.967" x2="-0.655" y2="-5.952" xlink:href="#linear-gradient-9"/>
    <linearGradient id="linear-gradient-14" y1="0.5" x2="1" y2="0.5" gradientUnits="objectBoundingBox">
      <stop offset="0" stop-color="#be9be8"/>
      <stop offset="1" stop-color="#8d78ed"/>
    </linearGradient>
  </defs>
  <g id="well-functional-01" transform="translate(-380 -5046)" clip-path="url(#clip-path)">
    <g id="Group_8665" data-name="Group 8665" transform="translate(380 5045.986)">
      <g id="Layer_3" data-name="Layer 3" transform="translate(0 0.014)">
        <path id="Path_4254" data-name="Path 4254" d="M0,0H200V200H0Z" transform="translate(0.001 0)" stroke="rgba(0,0,0,0)" stroke-width="1" fill="url(#radial-gradient)"/>
        <path id="Path_4095" data-name="Path 4095" d="M200,470.995,0,586.463l.208,60.981H200Z" transform="translate(-0.003 -447.447)" fill="#7946ff" opacity="0.1"/>
      </g>
      <g id="Group_9086" data-name="Group 9086" transform="translate(-300.958 -406.073)">
        <g id="Group_9009" data-name="Group 9009" transform="translate(342.495 480.519)">
          <g id="Group_9007" data-name="Group 9007" transform="translate(0 0)">
            <path id="Path_4871" data-name="Path 4871" d="M475.4,984.853c-.927-8.743,8.137-7.218,13.906-1.641,5.678,5.489,22.634,28.537,31.65,33.51l-2.422,1.367C503.847,1014,476.591,996.094,475.4,984.853Z" transform="translate(-475.332 -978.662)" fill="#d6e2ea" fill-rule="evenodd" opacity="0.82"/>
            <path id="Path_4872" data-name="Path 4872" d="M544.969,1039.832c-21.083-9.263-40.225-34.957-40.29-35.043a.354.354,0,1,1,.566-.425c.065.087,19.416,26.061,40.49,35.036Z" transform="translate(-500.838 -1000.931)" fill="#cccae8" fill-rule="evenodd"/>
          </g>
          <g id="Group_9008" data-name="Group 9008" transform="translate(6.834 29.042)">
            <path id="Path_4873" data-name="Path 4873" d="M531.223,1205.066c-6.121,3.111-1.267,8.4,4.84,9.8,2.884.664,9.519,1.308,16.426,2.218h.006l.819.109a17.6,17.6,0,0,0,10.607-2.168l.921-.52C554.053,1207.9,537.587,1201.832,531.223,1205.066Z" transform="translate(-528.399 -1204.17)" fill="#b7d3ea" fill-rule="evenodd" opacity="0.82"/>
            <path id="Path_4874" data-name="Path 4874" d="M580.494,1245.077c-14.411-5.952-31.484-7.05-31.554-7.055a.276.276,0,0,0-.037.552c.068,0,16.707,1.075,30.909,6.812Q580.155,1245.24,580.494,1245.077Z" transform="translate(-546.037 -1233.662)" fill-rule="evenodd" fill="url(#linear-gradient)"/>
          </g>
        </g>
        <g id="Group_9012" data-name="Group 9012" transform="translate(432.959 447.433)" opacity="0.75">
          <g id="Group_9010" data-name="Group 9010" transform="translate(0 0)">
            <path id="Path_4875" data-name="Path 4875" d="M1205.342,725.817c-2.112-7.617-9.189-3.348-12.171,3.221-2.935,6.465-9.5,31.339-15.4,38.475l2.477.343C1191.177,759.584,1208.057,735.611,1205.342,725.817Z" transform="translate(-1177.772 -721.756)" fill="#f9a5c5" fill-rule="evenodd"/>
            <path id="Path_4876" data-name="Path 4876" d="M1184.315,787.713c14.571-14.709,22.091-42.517,22.117-42.611a.318.318,0,0,0-.614-.169c-.025.094-7.629,28.206-22.286,42.671Z" transform="translate(-1182.79 -741.745)" fill="#fff" fill-rule="evenodd"/>
          </g>
          <g id="Group_9011" data-name="Group 9011" transform="translate(2.397 27.062)">
            <path id="Path_4877" data-name="Path 4877" d="M1221.378,931.917c6.147.58,3.833,6.6-.809,9.8-2.192,1.507-7.528,4.238-13,7.28h0l-.005,0-.649.362a15.823,15.823,0,0,1-9.586,1.691l-.942-.131C1203.225,941.83,1214.988,931.314,1221.378,931.917Z" transform="translate(-1196.384 -931.892)" fill="#ea608e" fill-rule="evenodd"/>
            <path id="Path_4878" data-name="Path 4878" d="M1212.046,970.937c10.085-9.737,24-16.294,24.056-16.321a.249.249,0,0,1,.214.449c-.056.026-13.616,6.417-23.6,15.905Q1212.383,970.961,1212.046,970.937Z" transform="translate(-1210.029 -951.668)" fill="#fff" fill-rule="evenodd"/>
          </g>
        </g>
        <g id="Group_9038" data-name="Group 9038" transform="translate(322.858 406.882)">
          <g id="Group_9036" data-name="Group 9036" transform="translate(0 0)">
            <g id="Group_9013" data-name="Group 9013" transform="translate(0 119.134)">
              <path id="Path_4879" data-name="Path 4879" d="M427.916,1360.677l-49.06,28.169-56-30.011,52.12-26.9Z" transform="translate(-322.858 -1331.938)" fill="#dfe4ed"/>
            </g>
            <g id="Group_9035" data-name="Group 9035" transform="translate(46.354)">
              <g id="Group_9014" data-name="Group 9014" transform="translate(0.332 121.622)">
                <path id="Path_4880" data-name="Path 4880" d="M692.415,1393.83l-7.047-4.095,66.641-38.478,7.047,4.095Z" transform="translate(-685.368 -1351.257)" fill="#bfd4db"/>
              </g>
              <path id="Path_4881" data-name="Path 4881" d="M692.437,1617.923l-.023-14.984-7.047-4.095.023,14.984a3.833,3.833,0,0,0,1.6,3.5q3.522,2.046,7.047,4.095A3.833,3.833,0,0,1,692.437,1617.923Z" transform="translate(-685.035 -1445.336)" fill="url(#linear-gradient-2)"/>
              <g id="Group_9015" data-name="Group 9015" transform="translate(7.379 120.311)">
                <path id="Path_4882" data-name="Path 4882" d="M740.108,1393.35l-.023-13.8,66.641-38.478.024,13.8a11.992,11.992,0,0,1-5.447,9.432L745.6,1396.471C742.579,1398.214,740.12,1396.819,740.108,1393.35Z" transform="translate(-740.085 -1341.075)" fill="url(#linear-gradient-2)"/>
              </g>
              <g id="Group_9016" data-name="Group 9016" transform="translate(0.014 47.23)">
                <path id="Path_4883" data-name="Path 4883" d="M690.26,885.171l-7.047-4.095L682.9,773.612l7.047,4.095Z" transform="translate(-682.895 -773.612)" fill="#211b4c"/>
              </g>
              <g id="Group_9017" data-name="Group 9017" transform="translate(0.014 8.755)">
                <path id="Path_4884" data-name="Path 4884" d="M689.942,517.431l-7.047-4.095,66.641-38.475,7.047,4.095Z" transform="translate(-682.895 -474.862)" fill="#35c2da"/>
              </g>
              <g id="Group_9018" data-name="Group 9018" transform="translate(7.061 12.85)">
                <path id="Path_4885" data-name="Path 4885" d="M804.255,506.658l.318,107.461L737.932,652.6l-.318-107.465Z" transform="translate(-737.614 -506.658)" fill="#2c2259"/>
              </g>
              <g id="Group_9021" data-name="Group 9021" transform="translate(47.042 13.385)" style="isolation: isolate">
                <g id="Group_9020" data-name="Group 9020" clip-path="url(#clip-path-2)">
                  <g id="Group_9019" data-name="Group 9019" style="isolation: isolate">
                    <path id="Path_4886" data-name="Path 4886" d="M1055.108,537.058l-7.047-4.095a2.285,2.285,0,0,0,.442-.344l7.047,4.095a1.983,1.983,0,0,1-.442.344Z" transform="translate(-1048.061 -529.811)" fill="#b2c5cc"/>
                    <path id="Path_4887" data-name="Path 4887" d="M1058.538,535.677l-7.047-4.095c.05-.049.1-.1.144-.153l7.047,4.095c-.047.052-.094.1-.144.153Z" transform="translate(-1051.049 -528.774)" fill="#adc0c7"/>
                    <path id="Path_4888" data-name="Path 4888" d="M1059.659,534.631l-7.047-4.095c.038-.042.075-.087.109-.132l7.045,4.095a1.521,1.521,0,0,1-.108.132Z" transform="translate(-1052.026 -527.881)" fill="#a9bbc2"/>
                    <path id="Path_4889" data-name="Path 4889" d="M1060.508,533.7l-7.045-4.095c.03-.038.059-.077.089-.118l7.045,4.095c-.028.042-.057.08-.089.119Z" transform="translate(-1052.767 -527.08)" fill="#a4b6bd"/>
                    <path id="Path_4890" data-name="Path 4890" d="M1061.2,532.8l-7.045-4.095c.024-.035.052-.076.075-.115l7.047,4.094c-.022.038-.052.073-.077.115Z" transform="translate(-1053.368 -526.305)" fill="#a0b1b8"/>
                    <path id="Path_4891" data-name="Path 4891" d="M1061.779,531.935l-7.047-4.095c.025-.035.047-.073.07-.111l7.047,4.095c-.023.038-.044.073-.07.111Z" transform="translate(-1053.873 -525.551)" fill="#9bacb3"/>
                    <path id="Path_4892" data-name="Path 4892" d="M1062.32,531.07l-7.047-4.095c.019-.038.04-.077.061-.111l7.047,4.095c-.021.038-.041.073-.061.111Z" transform="translate(-1054.344 -524.797)" fill="#97a7ad"/>
                    <path id="Path_4893" data-name="Path 4893" d="M1062.792,530.206l-7.047-4.095c.021-.038.04-.076.056-.111l7.047,4.091a.851.851,0,0,1-.056.115Z" transform="translate(-1054.755 -524.045)" fill="#93a2a8"/>
                    <path id="Path_4894" data-name="Path 4894" d="M1063.225,529.291l-7.047-4.091c.021-.042.038-.08.056-.118l7.047,4.095a1.139,1.139,0,0,1-.056.115Z" transform="translate(-1055.133 -523.244)" fill="#8e9da3"/>
                    <path id="Path_4895" data-name="Path 4895" d="M1063.657,528.376l-7.047-4.095c.016-.038.033-.077.047-.118l7.047,4.095c-.014.038-.031.08-.047.118Z" transform="translate(-1055.509 -522.444)" fill="#8a999e"/>
                    <path id="Path_4896" data-name="Path 4896" d="M1064.021,527.387l-7.047-4.095c.016-.042.031-.083.047-.129l7.047,4.1-.047.125Z" transform="translate(-1055.826 -521.573)" fill="#859499"/>
                    <path id="Path_4897" data-name="Path 4897" d="M1064.386,526.368l-7.046-4.1c.012-.042.028-.087.042-.132l7.045,4.095c-.012.042-.028.091-.04.136Z" transform="translate(-1056.145 -520.68)" fill="#818f94"/>
                    <path id="Path_4898" data-name="Path 4898" d="M1064.709,525.172l-7.045-4.095c.014-.049.025-.1.035-.157l7.047,4.1c-.01.049-.023.1-.036.153Z" transform="translate(-1056.427 -519.62)" fill="#7c8a8f"/>
                    <path id="Path_4899" data-name="Path 4899" d="M1064.981,523.773l-7.047-4.1a.913.913,0,0,0,.033-.184l7.046,4.095a1.678,1.678,0,0,1-.033.188Z" transform="translate(-1056.662 -518.373)" fill="#78858a"/>
                    <path id="Path_4900" data-name="Path 4900" d="M1062.743,516.029l-7.047-4.095a1.749,1.749,0,0,0,.018-.264.93.93,0,0,0-.386-.853l7.047,4.095a.931.931,0,0,1,.386.853,1.919,1.919,0,0,1-.018.264Z" transform="translate(-1054.392 -510.817)" fill="#738085"/>
                  </g>
                </g>
              </g>
              <g id="Group_9024" data-name="Group 9024" transform="translate(47.032 13.296)" style="isolation: isolate">
                <g id="Group_9023" data-name="Group 9023" clip-path="url(#clip-path-3)">
                  <g id="Group_9022" data-name="Group 9022" transform="translate(0 -0.001)" style="isolation: isolate">
                    <path id="Path_4902" data-name="Path 4902" d="M1055.026,515.006l-7.047-4.095a1.481,1.481,0,0,1,.188-.094l7.047,4.095c-.059.028-.123.059-.188.094Z" transform="translate(-1047.979 -510.727)" fill="#32b5ca"/>
                    <path id="Path_4903" data-name="Path 4903" d="M1056.485,514.558l-7.047-4.095a.689.689,0,0,1,.158-.052l7.045,4.1a.892.892,0,0,0-.156.052Z" transform="translate(-1049.25 -510.373)" fill="#30b0c5"/>
                    <path id="Path_4904" data-name="Path 4904" d="M1057.711,514.343l-7.045-4.1a.445.445,0,0,1,.115-.024l7.047,4.091a.691.691,0,0,0-.117.028Z" transform="translate(-1050.32 -510.21)" fill="#2facc0"/>
                    <path id="Path_4905" data-name="Path 4905" d="M1058.6,514.221l-7.047-4.091a.986.986,0,0,1,.1-.014l7.047,4.095-.1.01Z" transform="translate(-1051.097 -510.116)" fill="#2ea7bb"/>
                    <path id="Path_4906" data-name="Path 4906" d="M1059.375,514.211l-7.047-4.095a.757.757,0,0,1,.087,0l7.047,4.095a.726.726,0,0,0-.087,0Z" transform="translate(-1051.768 -510.116)" fill="#2da3b6"/>
                    <path id="Path_4907" data-name="Path 4907" d="M1060.051,514.237,1053,510.142a.333.333,0,0,1,.082.01l7.047,4.091a.66.66,0,0,0-.082-.007Z" transform="translate(-1052.357 -510.139)" fill="#2b9eb1"/>
                    <path id="Path_4908" data-name="Path 4908" d="M1060.686,514.315l-7.047-4.091a.513.513,0,0,1,.073.014l7.047,4.095c-.025-.007-.049-.011-.073-.017Z" transform="translate(-1052.91 -510.21)" fill="#2a9aac"/>
                    <path id="Path_4909" data-name="Path 4909" d="M1061.253,514.426l-7.047-4.095a.623.623,0,0,1,.071.028l7.047,4.095c-.024-.01-.047-.017-.071-.028Z" transform="translate(-1053.404 -510.303)" fill="#2995a7"/>
                    <path id="Path_4910" data-name="Path 4910" d="M1061.807,514.643l-7.047-4.095a.279.279,0,0,1,.066.031l7.047,4.095a.294.294,0,0,0-.066-.031Z" transform="translate(-1053.887 -510.492)" fill="#2891a2"/>
                    <path id="Path_4911" data-name="Path 4911" d="M1062.32,514.887l-7.047-4.095.007,0,7.047,4.095s0,0-.007,0Z" transform="translate(-1054.334 -510.705)" fill="#268c9d"/>
                  </g>
                </g>
              </g>
              <g id="Group_9025" data-name="Group 9025" transform="translate(18.316 16.538)">
                <path id="Path_4913" data-name="Path 4913" d="M832.05,555.969,825,551.878l28.727-16.584,7.047,4.095Z" transform="translate(-825.003 -535.294)" fill="#bfd4db"/>
              </g>
              <g id="Group_9028" data-name="Group 9028" transform="translate(17.367 33.122)" style="isolation: isolate">
                <g id="Group_9027" data-name="Group 9027" clip-path="url(#clip-path-4)">
                  <g id="Group_9026" data-name="Group 9026" style="isolation: isolate">
                    <path id="Path_4914" data-name="Path 4914" d="M824.687,668.893l-7.045-4.1s0,0,.005,0l7.047,4.095-.007,0Z" transform="translate(-817.642 -664.704)" fill="#8a999e"/>
                    <path id="Path_4915" data-name="Path 4915" d="M824.729,668.92l-7.047-4.095a.574.574,0,0,0,.066.035l7.047,4.1a.616.616,0,0,1-.066-.035Z" transform="translate(-817.677 -664.728)" fill="#8e9da3"/>
                    <path id="Path_4916" data-name="Path 4916" d="M825.243,669.19l-7.047-4.095a.475.475,0,0,0,.072.024l7.047,4.095a.5.5,0,0,1-.071-.024Z" transform="translate(-818.124 -664.963)" fill="#93a2a8"/>
                    <path id="Path_4917" data-name="Path 4917" d="M825.8,669.379l-7.047-4.095a.5.5,0,0,1,.071.018l7.048,4.095a.552.552,0,0,1-.073-.017Z" transform="translate(-818.608 -665.128)" fill="#97a7ad"/>
                    <path id="Path_4918" data-name="Path 4918" d="M826.351,669.516l-7.048-4.094a.686.686,0,0,0,.082.007l7.047,4.1-.08-.011Z" transform="translate(-819.089 -665.247)" fill="#9bacb3"/>
                    <path id="Path_4919" data-name="Path 4919" d="M826.986,669.572l-7.047-4.1a.383.383,0,0,0,.089,0l7.047,4.1Z" transform="translate(-819.643 -665.293)" fill="#a0b1b8"/>
                    <path id="Path_4920" data-name="Path 4920" d="M827.674,669.526l-7.047-4.1c.031,0,.066,0,.1-.007l7.047,4.094a.478.478,0,0,1-.1.011Z" transform="translate(-820.242 -665.247)" fill="#a4b6bd"/>
                    <path id="Path_4921" data-name="Path 4921" d="M828.444,669.35l-7.047-4.095c.04-.007.078-.014.118-.024l7.045,4.091a.693.693,0,0,1-.117.028Z" transform="translate(-820.913 -665.081)" fill="#a9bbc2"/>
                    <path id="Path_4922" data-name="Path 4922" d="M829.36,668.945l-7.045-4.091c.052-.018.1-.035.155-.056l7.047,4.1a.957.957,0,0,1-.156.052Z" transform="translate(-821.713 -664.704)" fill="#adc0c7"/>
                    <path id="Path_4923" data-name="Path 4923" d="M830.564,668.259l-7.047-4.1a2.1,2.1,0,0,0,.192-.094l7.047,4.091a1.189,1.189,0,0,1-.191.1Z" transform="translate(-822.76 -664.07)" fill="#b2c5cc"/>
                  </g>
                </g>
              </g>
              <g id="Group_9029" data-name="Group 9029" transform="translate(18.307 13.479)">
                <path id="Path_4925" data-name="Path 4925" d="M831.983,532.227l-7.047-4.095,28.725-16.584,7.047,4.095Z" transform="translate(-824.936 -511.547)" fill="#35c2da"/>
              </g>
              <g id="Group_9032" data-name="Group 9032" transform="translate(16.978 30.064)" style="isolation: isolate">
                <g id="Group_9031" data-name="Group 9031" clip-path="url(#clip-path-5)">
                  <g id="Group_9030" data-name="Group 9030" transform="translate(0)" style="isolation: isolate">
                    <path id="Path_4926" data-name="Path 4926" d="M822.051,661.339l-7.045-4.1a.938.938,0,0,1-.39-.856,2.567,2.567,0,0,1,.016-.261l7.047,4.091c-.009.091-.016.177-.016.261a.936.936,0,0,0,.388.859Z" transform="translate(-814.616 -654.092)" fill="#207684"/>
                    <path id="Path_4927" data-name="Path 4927" d="M821.785,658.972l-7.047-4.091a1.591,1.591,0,0,1,.035-.184l7.045,4.095c-.014.059-.023.122-.033.181Z" transform="translate(-814.722 -652.845)" fill="#217a89"/>
                    <path id="Path_4928" data-name="Path 4928" d="M822.054,657.755l-7.045-4.095c.01-.052.023-.1.036-.153l7.045,4.095c-.012.052-.024.1-.037.153Z" transform="translate(-814.958 -651.809)" fill="#237f8e"/>
                    <path id="Path_4929" data-name="Path 4929" d="M822.338,656.684l-7.045-4.095c.012-.045.024-.09.04-.135l7.047,4.094c-.016.049-.028.091-.042.136Z" transform="translate(-815.206 -650.892)" fill="#248393"/>
                    <path id="Path_4930" data-name="Path 4930" d="M822.65,655.7l-7.047-4.095a1.173,1.173,0,0,1,.045-.125l7.047,4.1a1.259,1.259,0,0,0-.045.122Z" transform="translate(-815.476 -650.044)" fill="#258898"/>
                    <path id="Path_4931" data-name="Path 4931" d="M823,654.779l-7.047-4.1c.016-.038.031-.08.049-.118l7.047,4.1c-.017.035-.033.077-.049.118Z" transform="translate(-815.782 -649.244)" fill="#268c9d"/>
                    <path id="Path_4932" data-name="Path 4932" d="M823.38,653.884l-7.047-4.1c.017-.038.033-.077.05-.115l7.047,4.095c-.017.038-.033.077-.05.118Z" transform="translate(-816.112 -648.467)" fill="#2891a2"/>
                    <path id="Path_4933" data-name="Path 4933" d="M823.771,653.012l-7.047-4.095c.021-.038.042-.077.059-.111l7.047,4.095c-.019.038-.038.073-.059.111Z" transform="translate(-816.452 -647.714)" fill="#2995a7"/>
                    <path id="Path_4934" data-name="Path 4934" d="M824.23,652.147l-7.047-4.095a1.183,1.183,0,0,1,.063-.111l7.047,4.095c-.023.038-.045.077-.062.111Z" transform="translate(-816.852 -646.96)" fill="#2a9aac"/>
                    <path id="Path_4935" data-name="Path 4935" d="M824.716,651.284l-7.047-4.095a1.205,1.205,0,0,1,.068-.111l7.047,4.095a.921.921,0,0,0-.068.111Z" transform="translate(-817.276 -646.208)" fill="#2b9eb1"/>
                    <path id="Path_4936" data-name="Path 4936" d="M825.243,650.4,818.2,646.3c.026-.042.051-.077.077-.115l7.047,4.095c-.028.035-.051.076-.077.115Z" transform="translate(-817.735 -645.431)" fill="#2da3b6"/>
                    <path id="Path_4937" data-name="Path 4937" d="M825.838,649.457l-7.047-4.095c.03-.042.056-.08.089-.122l7.045,4.1a1.385,1.385,0,0,0-.087.118Z" transform="translate(-818.253 -644.607)" fill="#2ea7bb"/>
                    <path id="Path_4938" data-name="Path 4938" d="M826.525,648.465l-7.045-4.095c.035-.045.071-.087.106-.129l7.047,4.095c-.035.042-.071.083-.108.132Z" transform="translate(-818.854 -643.736)" fill="#2facc0"/>
                    <path id="Path_4939" data-name="Path 4939" d="M827.35,647.253l-7.047-4.095c.049-.056.1-.108.146-.16l7.047,4.1a2.062,2.062,0,0,0-.146.156Z" transform="translate(-819.571 -642.653)" fill="#30b0c5"/>
                    <path id="Path_4940" data-name="Path 4940" d="M828.485,644.766l-7.047-4.1a2.365,2.365,0,0,1,.45-.344l7.047,4.095a2.2,2.2,0,0,0-.45.348Z" transform="translate(-820.559 -640.323)" fill="#32b5ca"/>
                  </g>
                </g>
              </g>
              <g id="Group_9033" data-name="Group 9033" transform="translate(24.025 17.391)">
                <path id="Path_4942" data-name="Path 4942" d="M899.388,542.1c.736-.424,1.329-.087,1.332.759a2.914,2.914,0,0,1-1.322,2.3l-28.726,16.581c-.741.432-1.336.091-1.338-.762a2.9,2.9,0,0,1,1.329-2.293Z" transform="translate(-869.334 -541.92)" fill="#30afc4"/>
              </g>
              <g id="Group_9034" data-name="Group 9034" transform="translate(7.047 4.092)">
                <path id="Path_4943" data-name="Path 4943" d="M798.665,439.408c3.018-1.743,5.471-.338,5.479,3.131l.016,4.878-66.641,38.475-.014-4.878a12.019,12.019,0,0,1,5.454-9.442Z" transform="translate(-737.505 -438.659)" fill="#b9b3e5"/>
              </g>
              <path id="Path_4944" data-name="Path 4944" d="M751.889,411.3c.132-.052.261-.1.388-.136.082-.024.162-.049.238-.066s.155-.035.231-.052c.1-.014.19-.031.284-.042.056-.007.109-.014.167-.017.118-.007.235-.011.35-.007.026,0,.052,0,.082,0a2.54,2.54,0,0,1,.4.052.526.526,0,0,1,.1.021,2.887,2.887,0,0,1,.3.083c.03.01.063.021.094.035a2.737,2.737,0,0,1,.355.171q-3.523-2.046-7.045-4.1a.122.122,0,0,0-.029-.017,1.988,1.988,0,0,0-.276-.132.254.254,0,0,0-.051-.021.973.973,0,0,0-.094-.035c-.049-.018-.1-.035-.143-.049s-.1-.024-.155-.035c-.033-.007-.066-.017-.1-.024l-.051-.011a2.654,2.654,0,0,0-.332-.038h-.017c-.028,0-.059,0-.085,0-.085,0-.17,0-.257,0a.859.859,0,0,0-.089.01,1.362,1.362,0,0,0-.164.017,1.2,1.2,0,0,0-.156.01c-.045.007-.091.021-.136.031-.073.014-.145.028-.218.049a.844.844,0,0,0-.127.024c-.038.011-.082.028-.122.042-.129.038-.256.083-.388.132-.043.018-.087.028-.13.049-.028.011-.052.028-.078.035-.223.1-.45.209-.687.344l-55.7,32.16a7.915,7.915,0,0,0-.854.581c-.047.031-.094.066-.139.1a10.081,10.081,0,0,0-.77.679c-.021.021-.043.035-.063.056-.04.038-.075.083-.115.122-.124.129-.247.261-.371.393-.037.042-.077.08-.113.122s-.061.073-.091.111c-.075.087-.146.174-.218.264-.045.056-.092.108-.135.167s-.073.1-.108.146c-.049.066-.1.132-.151.2-.033.049-.071.094-.106.142l-.171.258c-.031.049-.068.1-.1.153a.723.723,0,0,0-.043.063c-.1.153-.193.306-.287.463a.4.4,0,0,1-.019.038c-.012.024-.028.052-.042.076-.068.115-.13.233-.195.352-.028.049-.052.1-.08.156s-.052.108-.082.16-.049.1-.075.146c-.057.125-.116.25-.172.379-.01.028-.024.052-.037.08a.051.051,0,0,1-.007.017c-.071.164-.137.323-.2.491-.014.031-.021.059-.035.091-.019.059-.04.122-.062.181-.028.083-.061.164-.087.244-.021.063-.038.129-.057.191s-.047.149-.07.226c-.014.049-.03.094-.044.143-.024.08-.042.163-.061.247s-.05.188-.07.282c-.009.035-.017.066-.024.1-.014.066-.019.132-.035.2-.026.146-.052.292-.073.438-.007.042-.018.08-.023.122s0,.073-.005.111a7.522,7.522,0,0,0-.063.957l.014,4.878,7.047,4.095-.014-4.878a7.476,7.476,0,0,1,.061-.957c.009-.077.018-.157.029-.233.021-.146.047-.292.073-.438.021-.1.038-.2.059-.3s.047-.191.068-.285c.033-.125.066-.254.1-.383.023-.077.047-.157.073-.237.045-.143.094-.285.143-.428.021-.059.042-.122.063-.181.078-.2.157-.4.244-.6.014-.031.028-.059.04-.09.076-.167.155-.334.237-.5.031-.059.063-.118.092-.178.08-.156.165-.313.25-.466.024-.042.047-.083.068-.122.111-.188.224-.372.343-.553.035-.056.07-.108.108-.164.089-.129.176-.261.268-.386.05-.07.1-.139.155-.205.08-.108.162-.212.245-.32.071-.083.143-.17.212-.254s.141-.16.212-.237c.119-.135.237-.264.362-.393.059-.059.122-.118.181-.177a8.966,8.966,0,0,1,.767-.675c.049-.038.1-.073.146-.108a7.948,7.948,0,0,1,.851-.574l55.706-32.164a6.56,6.56,0,0,1,.685-.341C751.748,411.351,751.821,411.323,751.889,411.3Z" transform="translate(-682.786 -406.882)" fill="url(#linear-gradient-2)"/>
            </g>
          </g>
          <ellipse id="Ellipse_152" data-name="Ellipse 152" cx="6.37" cy="3.678" rx="6.37" ry="3.678" transform="translate(86.867 149.351) rotate(-59.689)" fill="#fff"/>
          <g id="Group_9037" data-name="Group 9037" transform="translate(101.527 10.277)">
            <path id="Path_4945" data-name="Path 4945" d="M1191.369,489.773a2.8,2.8,0,0,0,1.271-2.19c0-.8-.571-1.128-1.271-.724a2.805,2.805,0,0,0-1.27,2.191C1190.1,489.852,1190.669,490.177,1191.369,489.773Z" transform="translate(-1179.938 -486.685)" fill="#fff" fill-rule="evenodd"/>
            <path id="Path_4946" data-name="Path 4946" d="M1151.92,512.551a2.805,2.805,0,0,0,1.27-2.19c0-.8-.571-1.128-1.27-.724a2.805,2.805,0,0,0-1.27,2.191C1150.65,512.629,1151.22,512.954,1151.92,512.551Z" transform="translate(-1145.569 -506.529)" fill="#fff" fill-rule="evenodd"/>
            <path id="Path_4947" data-name="Path 4947" d="M1112.469,535.326a2.806,2.806,0,0,0,1.27-2.19c0-.8-.571-1.128-1.27-.724a2.806,2.806,0,0,0-1.271,2.191C1111.2,535.405,1111.77,535.73,1112.469,535.326Z" transform="translate(-1111.199 -526.372)" fill="#fff" fill-rule="evenodd"/>
          </g>
        </g>
        <g id="Group_9061" data-name="Group 9061" transform="translate(383.646 449.686)">
          <g id="Group_9044" data-name="Group 9044" transform="translate(0.186)">
            <g id="Group_9039" data-name="Group 9039">
              <path id="Path_4948" data-name="Path 4948" d="M845.429,746.081l-.441-1.019-6.465-3.966c-.184-.117-.373-.226-.563-.331l-.185-.108-.008,0c-4.4-2.336-10.33-1.858-16.854,2.011-13.59,8.061-24.607,27.751-24.607,43.98,0,7.71,2.49,13.247,6.558,16.076h-.009l.077.046c.424.291,5.478,3.541,5.935,3.773l1.742-.774,2.327,1.537c3.558.277,7.66-.788,12.032-3.382,13.59-8.061,24.607-27.751,24.607-43.98C849.575,753.9,848.047,749.2,845.429,746.081Zm-20.461,44.549c-7.441,4.413-13.473.788-13.473-8.1s6.032-19.667,13.473-24.08,13.473-.788,13.473,8.1S832.409,786.216,824.969,790.629Z" transform="translate(-796.307 -739.245)" fill="#ff3356"/>
            </g>
            <g id="Group_9040" data-name="Group 9040" transform="translate(0 3.601)">
              <path id="Path_4949" data-name="Path 4949" d="M928.006,773.019l15.4,8.216a9.887,9.887,0,0,1,1.542-.271v-8.652l-9.574-5.108A40.743,40.743,0,0,0,928.006,773.019Z" transform="translate(-911.045 -767.204)" fill="#ff3356"/>
              <path id="Path_4950" data-name="Path 4950" d="M821.095,1062.005V1048.4c-4.977,1.17-8.741-1.721-9.468-7.575l-14.177-7.565a43,43,0,0,0-1.142,9.542,28.19,28.19,0,0,0,.9,7.318l22.952,12.246C820.465,1062.253,820.779,1062.132,821.095,1062.005Z" transform="translate(-796.307 -998.993)" fill="#ff3356"/>
              <path id="Path_4951" data-name="Path 4951" d="M825.114,960.166a28.083,28.083,0,0,1,2.033-8.243v-.418L814.95,945a59.194,59.194,0,0,0-3.087,8.1Z" transform="translate(-809.86 -922.101)" fill="#ff3356"/>
              <path id="Path_4952" data-name="Path 4952" d="M850.421,922.129V919.7l-6.754-3.538q-.519.944-1,1.906Z" transform="translate(-836.693 -896.975)" fill="#ff3356"/>
              <path id="Path_4953" data-name="Path 4953" d="M911.286,835.25v-2.432l-8.5-4.455c-.493.543-.975,1.1-1.45,1.673Z" transform="translate(-887.805 -820.486)" fill="#ff3356"/>
            </g>
            <g id="Group_9041" data-name="Group 9041" transform="translate(6.599 3.988)">
              <path id="Path_4954" data-name="Path 4954" d="M872.153,773.644c-13.536,8.151-24.607,27.751-24.607,43.98s11.017,22.851,24.607,14.79,24.694-27.751,24.607-43.98S885.549,765.576,872.153,773.644Zm0,45.474c-7.441,4.413-13.473.788-13.473-8.1s6.032-19.667,13.473-24.08,13.473-.788,13.473,8.1S879.594,814.7,872.153,819.118Z" transform="translate(-847.546 -770.208)" fill="#f05f75"/>
            </g>
            <g id="Group_9042" data-name="Group 9042" transform="translate(6.599 4.247)">
              <path id="Path_4955" data-name="Path 4955" d="M896.761,790.443c0-16.229-11.017-22.851-24.607-14.79s-24.607,27.751-24.607,43.98,11.016,22.851,24.607,14.79S896.761,806.671,896.761,790.443Zm-38.079,22.586c0-8.886,6.032-19.667,13.473-24.08s13.473-.788,13.473,8.1-6.032,19.667-13.473,24.08S858.682,821.914,858.682,813.029Z" transform="translate(-847.548 -772.22)" fill="url(#linear-gradient-2)"/>
            </g>
            <g id="Group_9043" data-name="Group 9043" transform="translate(9.755 8.2)">
              <path id="Path_4956" data-name="Path 4956" d="M914.952,818.8c0-14.148-9.6-19.92-21.451-12.893S872.05,830.1,872.05,844.247s9.6,19.92,21.451,12.893S914.952,832.948,914.952,818.8Z" transform="translate(-872.05 -802.915)" fill="#d1ddf1"/>
            </g>
            <path id="Path_4957" data-name="Path 4957" d="M904.005,822.22C914.931,815.74,923.8,821,923.9,833.958c0-.076,0-.153,0-.228,0-13.124-8.909-18.478-19.9-11.96s-19.9,22.441-19.9,35.564c0,.076,0,.147,0,.223C884.214,844.477,893.079,828.7,904.005,822.22Z" transform="translate(-872.799 -808.724)" fill="#fff"/>
          </g>
          <g id="Group_9059" data-name="Group 9059" transform="translate(0 0.244)">
            <ellipse id="Ellipse_153" data-name="Ellipse 153" cx="31.602" cy="18.245" rx="31.602" ry="18.245" transform="translate(0 54.565) rotate(-59.689)" fill="#fafdff"/>
            <g id="Group_9058" data-name="Group 9058" transform="translate(12.828 13.561)">
              <g id="Group_9047" data-name="Group 9047" transform="translate(18.541 1.311)">
                <g id="Group_9045" data-name="Group 9045" transform="translate(2.555 40.999)">
                  <path id="Path_4958" data-name="Path 4958" d="M1058.5,1176.71l0,0c-.117.068-.212.013-.212-.121v-1.224a.468.468,0,0,1,.212-.366l0,0c.118-.068.212-.014.212.121v1.224A.467.467,0,0,1,1058.5,1176.71Z" transform="translate(-1058.286 -1174.969)"/>
                </g>
                <g id="Group_9046" data-name="Group 9046">
                  <path id="Path_4959" data-name="Path 4959" d="M1038.664,858.356l0,0c-.117.068-.212.014-.212-.121v-1.224a.468.468,0,0,1,.212-.366l0,0c.117-.068.212-.013.212.121v1.224A.468.468,0,0,1,1038.664,858.356Z" transform="translate(-1038.447 -856.615)"/>
                </g>
              </g>
              <g id="Group_9050" data-name="Group 9050" transform="translate(0 12.025)">
                <g id="Group_9048" data-name="Group 9048" transform="translate(36.253)">
                  <path id="Path_4960" data-name="Path 4960" d="M1177.462,939.962v.005a.467.467,0,0,1-.212.366l-1.067.618c-.117.068-.212.014-.213-.12v0a.468.468,0,0,1,.212-.366l1.067-.618C1177.367,939.774,1177.462,939.827,1177.462,939.962Z" transform="translate(-1175.971 -939.812)"/>
                </g>
                <g id="Group_9049" data-name="Group 9049" transform="translate(0 20.996)">
                  <path id="Path_4961" data-name="Path 4961" d="M895.967,1102.993v0a.468.468,0,0,1-.212.367l-1.067.618c-.117.068-.213.014-.213-.12v-.005a.467.467,0,0,1,.212-.366l1.067-.618C895.872,1102.8,895.967,1102.859,895.967,1102.993Z" transform="translate(-894.476 -1102.843)"/>
                </g>
              </g>
              <g id="Group_9054" data-name="Group 9054" transform="translate(6.023 14.489)">
                <g id="Group_9051" data-name="Group 9051" transform="translate(25.587 14.697)">
                  <path id="Path_4962" data-name="Path 4962" d="M1141.041,1073.849l0,.005c-.083.143-.218.22-.3.173l-.753-.432c-.083-.047-.083-.2,0-.345l0-.005c.083-.143.218-.22.3-.173l.753.433C1141.124,1073.551,1141.124,1073.706,1141.041,1073.849Z" transform="translate(-1139.923 -1073.057)"/>
                </g>
                <g id="Group_9053" data-name="Group 9053">
                  <g id="Group_9052" data-name="Group 9052">
                    <path id="Path_4963" data-name="Path 4963" d="M942.36,959.732l0,.005c-.083.143-.217.22-.3.173l-.753-.432c-.083-.047-.082-.2,0-.345l0-.005c.083-.143.218-.22.3-.173l.753.432C942.443,959.435,942.443,959.589,942.36,959.732Z" transform="translate(-941.242 -958.941)"/>
                  </g>
                </g>
              </g>
              <g id="Group_9057" data-name="Group 9057" transform="translate(5.718)">
                <g id="Group_9055" data-name="Group 9055" transform="translate(25.339)">
                  <path id="Path_4964" data-name="Path 4964" d="M1136.74,846.451l0,0c.084.046.085.2,0,.342L1136,848.1c-.082.144-.217.223-.3.177l0,0c-.084-.046-.085-.2,0-.343l.746-1.306C1136.522,846.484,1136.656,846.4,1136.74,846.451Z" transform="translate(-1135.634 -846.438)"/>
                </g>
                <g id="Group_9056" data-name="Group 9056" transform="translate(0 44.38)">
                  <path id="Path_4965" data-name="Path 4965" d="M939.985,1191.054h0c.084.046.085.2,0,.343l-.745,1.306c-.082.144-.216.223-.3.177h0c-.084-.046-.085-.2,0-.343l.746-1.306C939.767,1191.088,939.9,1191.008,939.985,1191.054Z" transform="translate(-938.879 -1191.041)"/>
                </g>
              </g>
            </g>
          </g>
          <g id="Group_9060" data-name="Group 9060" transform="translate(22.31 24.386)">
            <path id="Path_4966" data-name="Path 4966" d="M968.1,1001.477v-1.994l1.587-2.564c2.682-4.3,3.986-6.637,4.024-8.306,0-1.149-.6-1.71-2.021-.892a9.087,9.087,0,0,0-2.626,2.687l-.812-1.894a13.155,13.155,0,0,1,4.024-3.776c2.777-1.6,4.307-.622,4.307,1.936,0,2.363-1.492,5.11-3.268,7.956l-1.133,1.738v.043l4.628-2.672v2.71Z" transform="translate(-968.101 -976.829)"/>
            <path id="Path_4967" data-name="Path 4967" d="M1052.161,944.262V940.9l-5.44,3.141V941.9l4.647-11.267,3.514-2.029v8.259l1.474-.851v2.471l-1.474.851v3.36Zm0-5.831v-3.121c0-.845.038-1.734.095-2.678l-.076.044c-.4,1.139-.718,2.149-1.133,3.277l-1.643,4.027v.043Z" transform="translate(-1036.596 -928.601)"/>
          </g>
        </g>
        <g id="Group_9062" data-name="Group 9062" transform="translate(387.421 514.649)">
          <path id="Path_4968" data-name="Path 4968" d="M869.624,1245.489l-44.8,25.865c-.36.208-.651-.013-.651-.492h0a1.56,1.56,0,0,1,.651-1.244l44.8-25.865c.36-.208.651.013.651.492h0A1.56,1.56,0,0,1,869.624,1245.489Z" transform="translate(-824.174 -1243.674)" fill="url(#linear-gradient-2)"/>
          <path id="Path_4969" data-name="Path 4969" d="M869.624,1282.558l-44.8,25.865c-.36.208-.651-.013-.651-.492h0a1.56,1.56,0,0,1,.651-1.244l44.8-25.865c.36-.208.651.013.651.492h0A1.559,1.559,0,0,1,869.624,1282.558Z" transform="translate(-824.174 -1275.969)" fill="url(#linear-gradient-2)"/>
        </g>
        <g id="Group_9065" data-name="Group 9065" transform="translate(336.299 435.93)">
          <g id="Group_9063" data-name="Group 9063" transform="translate(0 0)">
            <path id="Path_4970" data-name="Path 4970" d="M431.827,659.093c-.081-.081-.168-.153-.247-.239-.11-.125-.207-.267-.308-.4-.07-.094-.146-.178-.211-.278-.1-.15-.18-.319-.268-.482-.056-.1-.117-.2-.169-.307-.084-.182-.154-.383-.228-.579-.038-.106-.086-.2-.121-.312-.068-.215-.122-.449-.176-.679-.026-.106-.059-.2-.081-.313-.051-.262-.086-.541-.121-.822-.009-.09-.029-.175-.038-.268-.037-.38-.057-.774-.057-1.186,0-.375.016-.757.045-1.143v0c.015-.178.039-.358.058-.538s.041-.379.068-.569c0,0,0,0,0,0a19.156,19.156,0,0,1,.547-2.546c.01-.036.019-.071.029-.107h0c.042-.145.085-.288.131-.433a.018.018,0,0,0,0-.006c.087-.274.179-.55.277-.823h0c.04-.111.077-.223.12-.334a.008.008,0,0,1,0,0c.143-.381.293-.76.458-1.136h0c.021-.048.043-.094.064-.14l0-.006c.076-.173.16-.342.241-.513.356-.754.749-1.495,1.179-2.214.152-.252.3-.506.463-.752l.006-.008c.313-.484.644-.953.988-1.41a.051.051,0,0,0,.005-.008c.065-.085.131-.167.2-.25q.409-.529.841-1.027c.076-.085.148-.171.224-.256a.055.055,0,0,1,.008-.008q.332-.371.677-.722s0,0,.006,0c.146-.149.292-.3.441-.442h0c.113-.108.225-.214.341-.317a.01.01,0,0,1,.005-.005c.137-.125.278-.245.418-.365.269-.233.545-.455.823-.668.118-.089.236-.181.354-.266l.009-.008c.423-.3.851-.593,1.288-.846.275-.158.546-.295.815-.422.164-.079.325-.155.488-.225h0l.072-.029a10.189,10.189,0,0,1,1.066-.386h0l.006,0a8.094,8.094,0,0,1,1.723-.332l.017,0c.109-.008.214,0,.322-.006.159,0,.32-.014.474-.006h.021c.125.008.243.031.364.047.185.022.37.045.547.084l.031.008c.075.017.147.043.22.063.169.046.34.092.5.154l.026.009c.094.037.18.087.272.13.131.061.265.114.39.186a.166.166,0,0,1,.02.009l-2.573-1.495c-.019-.012-.038-.022-.058-.034a5.135,5.135,0,0,0-.519-.254c-.035-.014-.07-.024-.107-.038-.056-.022-.113-.04-.171-.06-.091-.032-.178-.068-.271-.1s-.2-.046-.3-.068c-.062-.016-.123-.031-.187-.044-.033-.007-.064-.017-.1-.023a5.485,5.485,0,0,0-.625-.073h-.04c-.052,0-.1,0-.156,0-.162-.006-.322-.013-.49,0-.057,0-.116.013-.173.016-.1.008-.208.02-.311.032s-.191.013-.29.03l.023.011h0a7.993,7.993,0,0,0-.916.193h0l-.018-.01c-.075.019-.154.056-.231.079-.241.072-.484.157-.73.253-.089.032-.173.051-.259.089-.049.021-.1.054-.15.075a12.259,12.259,0,0,0-1.3.649c-.333.192-.663.4-.988.628-.1.072-.2.15-.309.223-.22.159-.44.323-.656.5-.117.093-.233.191-.348.287-.2.169-.4.34-.595.518-.113.105-.227.21-.342.318-.073.071-.148.136-.222.208s-.149.164-.226.241q-.346.353-.681.727c-.073.081-.152.155-.223.237s-.115.144-.176.215c-.136.159-.268.322-.4.486-.086.109-.18.212-.265.323-.07.09-.134.184-.2.275-.1.132-.2.264-.294.4-.064.088-.132.173-.193.262-.1.152-.206.309-.311.463-.068.1-.138.205-.207.31-.026.041-.056.081-.082.123q-.276.431-.536.876c-.01.019-.021.039-.033.058l-.1.185c-.12.208-.238.417-.351.629-.053.1-.1.2-.152.3s-.1.205-.156.309-.095.182-.138.273c-.113.234-.218.469-.321.7-.026.057-.053.111-.078.167,0,.008-.008.019-.012.027q-.2.462-.381.929c-.021.056-.038.112-.059.167-.044.118-.085.237-.127.354-.055.153-.114.3-.165.458-.04.119-.072.239-.109.357-.046.145-.091.289-.134.435-.025.088-.056.177-.08.263-.043.157-.076.313-.115.471-.045.179-.091.357-.132.536-.013.061-.031.121-.044.182-.027.125-.04.249-.064.374-.054.279-.1.557-.143.835-.012.075-.031.152-.039.226-.023.171-.034.339-.051.507-.011.126-.026.253-.036.377-.028.384-.046.765-.046,1.141.01,3.27,1.165,5.57,3.025,6.65l2.573,1.5c-.131-.076-.248-.171-.372-.259-.091-.065-.187-.12-.276-.192C432.054,659.325,431.941,659.206,431.827,659.093Z" transform="translate(-427.227 -632.431)" fill="url(#linear-gradient-2)"/>
            <path id="Path_4971" data-name="Path 4971" d="M457.578,645.485c-5.727,3.305-10.343,11.309-10.324,17.88s4.664,9.227,10.391,5.921,10.341-11.309,10.323-17.88S463.3,642.183,457.578,645.485Z" transform="translate(-444.675 -642.567)" fill="#ff3356"/>
          </g>
          <g id="Group_9064" data-name="Group 9064" transform="translate(6.711 7.241)">
            <path id="Path_4972" data-name="Path 4972" d="M491.709,697.894l-12.371,7.142V695.8l12.371-7.142Z" transform="translate(-479.338 -688.654)" fill="url(#linear-gradient-9)"/>
            <path id="Path_4973" data-name="Path 4973" d="M479.338,760.448l12.371-7.142-6.185-1.049Z" transform="translate(-479.338 -744.066)" fill="url(#linear-gradient-10)"/>
            <path id="Path_4974" data-name="Path 4974" d="M491.71,688.656,479.34,695.8l6.185,5.049Z" transform="translate(-479.339 -688.656)" fill="#211b4c"/>
          </g>
        </g>
        <g id="Group_9069" data-name="Group 9069" transform="translate(445.631 420.452)">
          <g id="Group_9066" data-name="Group 9066" transform="translate(0)">
            <path id="Path_4975" data-name="Path 4975" d="M1279.664,532.5c-.062-.061-.127-.116-.187-.181-.084-.095-.157-.2-.234-.307-.053-.071-.111-.135-.16-.211-.074-.114-.137-.242-.2-.366-.042-.079-.089-.15-.128-.233-.064-.138-.117-.291-.173-.439-.029-.081-.065-.154-.092-.237-.052-.164-.092-.341-.134-.516-.019-.081-.045-.154-.062-.238-.039-.2-.066-.411-.092-.624-.007-.069-.022-.133-.029-.2-.028-.289-.043-.588-.043-.9,0-.285.013-.575.034-.868h0c.011-.135.03-.272.044-.409s.031-.288.052-.432v0a14.549,14.549,0,0,1,.416-1.934c.008-.027.014-.054.022-.082h0c.032-.11.065-.218.1-.329a.015.015,0,0,0,0,0c.066-.208.136-.418.21-.625h0c.031-.084.059-.17.091-.254a.005.005,0,0,1,0,0c.108-.289.223-.577.347-.863h0c.016-.036.033-.071.049-.107l0,0c.058-.131.122-.26.183-.39.27-.573.569-1.135.9-1.681.116-.191.231-.384.352-.571l0-.006c.238-.367.489-.724.75-1.07l0-.006c.05-.065.1-.127.149-.19q.311-.4.639-.78c.058-.065.113-.13.17-.194l.006-.006q.252-.282.514-.549s0,0,0,0c.111-.113.222-.227.335-.336h0c.086-.082.171-.162.259-.241a.008.008,0,0,1,0,0c.1-.095.211-.186.317-.277.2-.177.414-.346.625-.507.09-.068.179-.137.269-.2l.007-.006c.321-.231.646-.45.979-.642.208-.12.415-.224.619-.321.124-.06.247-.118.37-.171h0l.054-.022a7.791,7.791,0,0,1,.81-.293h0l0,0a6.143,6.143,0,0,1,1.309-.252h.013c.083-.006.163,0,.245,0,.12,0,.243-.011.36,0h.015c.095.006.185.024.277.036.141.017.281.034.416.064l.023.006c.057.013.112.032.167.048.128.035.258.07.381.117l.02.007c.071.028.136.066.206.1.1.046.2.086.3.141l.015.007-1.954-1.135-.044-.026a3.913,3.913,0,0,0-.394-.193c-.027-.011-.053-.018-.081-.029s-.086-.03-.13-.046c-.069-.024-.135-.052-.206-.072s-.15-.035-.225-.051c-.047-.012-.094-.024-.142-.033-.025-.005-.049-.013-.074-.017a4.16,4.16,0,0,0-.475-.055h-.031c-.039,0-.079,0-.119,0-.124,0-.244-.01-.372,0-.043,0-.088.01-.132.012-.078.006-.158.015-.236.025s-.145.01-.22.023l.017.009h0a6.043,6.043,0,0,0-.7.146h0l-.014-.007c-.057.015-.117.042-.175.06-.183.054-.368.119-.555.192-.067.024-.131.039-.2.067-.038.016-.077.041-.114.057a9.3,9.3,0,0,0-.991.493c-.253.146-.5.307-.75.477-.078.054-.155.114-.234.17-.167.121-.335.246-.5.377-.089.07-.177.145-.264.218-.152.128-.3.258-.452.394-.086.08-.173.159-.26.242-.055.054-.113.1-.169.158s-.113.124-.172.183q-.263.268-.517.552c-.056.061-.116.118-.169.18s-.088.109-.134.163c-.1.121-.2.245-.3.369-.066.083-.137.161-.2.245-.053.068-.1.14-.153.209-.076.1-.15.2-.224.3-.048.067-.1.132-.147.2-.08.115-.156.235-.236.352-.052.079-.1.156-.157.235-.02.031-.042.061-.062.094q-.21.328-.407.666c-.008.014-.016.03-.025.044l-.077.141c-.092.158-.18.317-.266.477-.041.075-.076.151-.116.227s-.08.156-.119.235-.072.138-.1.207c-.086.177-.166.356-.244.535-.02.043-.041.084-.059.127l-.01.021c-.1.234-.2.469-.289.706-.016.043-.029.085-.044.127-.034.09-.065.18-.1.268-.042.116-.087.232-.125.348-.031.09-.055.181-.083.271-.035.11-.069.22-.1.33-.019.067-.042.134-.061.2-.033.119-.058.238-.087.357-.034.136-.07.271-.1.407-.01.046-.024.092-.034.138-.021.1-.03.189-.049.285-.041.212-.079.423-.108.634-.01.057-.023.115-.03.172-.017.13-.026.257-.039.385-.009.1-.02.192-.027.286-.021.292-.035.581-.035.867.008,2.484.885,4.23,2.3,5.051l1.954,1.136c-.1-.057-.188-.13-.283-.2-.069-.049-.142-.091-.209-.146C1279.836,532.675,1279.75,532.584,1279.664,532.5Z" transform="translate(-1276.17 -512.249)" fill="url(#linear-gradient-2)"/>
            <path id="Path_4976" data-name="Path 4976" d="M1299.221,522.164c-4.349,2.51-7.855,8.589-7.84,13.579s3.542,7.008,7.892,4.5,7.854-8.589,7.84-13.579S1303.563,519.656,1299.221,522.164Z" transform="translate(-1289.422 -519.948)" fill="#ff3356"/>
          </g>
          <g id="Group_9068" data-name="Group 9068" transform="translate(5.52 7.748)">
            <g id="Group_9067" data-name="Group 9067" transform="translate(0 0.803)">
              <path id="Path_4977" data-name="Path 4977" d="M1319.577,579.208l.327-.564,1.771,1.01-.023.039a1.588,1.588,0,0,0-.133,1.719,4.235,4.235,0,0,0,3.094,1.708c.447.083,1.041-.326,1.421-.981h0l1.771,1.01-.327.564a3.048,3.048,0,0,1-2.354,1.746c-3.2-.08-4.575-.761-5.886-3.356A3.2,3.2,0,0,1,1319.577,579.208Z" transform="translate(-1319.033 -578.644)" fill="#fff"/>
              <path id="Path_4978" data-name="Path 4978" d="M1374.2,600.66l-2.1-1.2c-.011-.006-.028,0-.038.022l-.416.718c-.011.018-.011.038,0,.044l2.1,1.2c.011.006.028,0,.038-.022l.416-.718C1374.208,600.685,1374.208,600.666,1374.2,600.66Z" transform="translate(-1364.857 -596.778)" fill="#fff"/>
            </g>
            <path id="Path_4979" data-name="Path 4979" d="M1324.655,572.413l2.1,1.2c.01.006.01.026,0,.044l-.416.718c-.01.018-.028.028-.038.022l-2.1-1.2c-.011-.006-.011-.026,0-.044l.416-.718C1324.627,572.417,1324.644,572.407,1324.655,572.413Z" transform="translate(-1323.528 -572.411)" fill="#fff"/>
          </g>
        </g>
        <g id="Group_9075" data-name="Group 9075" transform="translate(447.429 491.142)">
          <ellipse id="Ellipse_154" data-name="Ellipse 154" cx="14.497" cy="9.604" rx="14.497" ry="9.604" transform="translate(0.889 54.79)" fill="#dfe4ed"/>
          <g id="Group_9074" data-name="Group 9074">
            <g id="Group_9073" data-name="Group 9073">
              <g id="Group_9072" data-name="Group 9072">
                <path id="Path_4980" data-name="Path 4980" d="M1303.656,1126.48c-2.882,1.183-3.006,8.061-3.646,8.938-1.005,1.376-5.08,6.6-5.575,7.446s1.386,2.195,1.98,1.593c.472-.479,4.5-4.521,6.122-6.153a2.46,2.46,0,0,0,.715-1.639Z" transform="translate(-1293.809 -1118.066)" fill="url(#linear-gradient-2)"/>
                <g id="Group_9070" data-name="Group 9070" transform="translate(4.989)">
                  <path id="Path_4981" data-name="Path 4981" d="M1368.963,1327.273s-.389-14.726-.389-16.294,1.649-12.082.139-16.9l-11.46,1.064s-.224,4.862-.225,5.228c0,.57,1.736,15.728,1.514,23.094l4.487.424s.083-9.765-.789-13.569c-.043-2.291.134-7.447.134-7.447s1.513,6.9,1.674,8.512,1.161,16.176,1.161,16.176A36.7,36.7,0,0,1,1368.963,1327.273Z" transform="translate(-1353.402 -1264.082)" fill="#ff3356"/>
                  <path id="Path_4982" data-name="Path 4982" d="M1368.06,1135.037s.528-1.881-.9-4.883c-.816-1.72-3.133-3.161-5.921-4.516-5.316-2.585-7.391-1.928-8.095.582a30,30,0,0,0-.282,8.059,67.287,67.287,0,0,1,.449,13.177c-.069.5,1.437,1.755,4.564,2.439,2.267.5,7.431.321,7.937-1.778l-.3-12.206Z" transform="translate(-1349.642 -1115.897)" fill="url(#linear-gradient-2)"/>
                  <path id="Path_4983" data-name="Path 4983" d="M1381.479,1132.255c0,.855,1.089,1.548,2.432,1.548s2.432-.693,2.432-1.548-1.089-1.548-2.432-1.548S1381.479,1131.4,1381.479,1132.255Z" transform="translate(-1374.704 -1121.749)" fill="#f7bb92"/>
                  <path id="Rectangle_2886" data-name="Rectangle 2886" d="M1.538,0H3.524a.8.8,0,0,1,.8.8V4.652a0,0,0,0,1,0,0H0a0,0,0,0,1,0,0V1.538A1.538,1.538,0,0,1,1.538,0Z" transform="translate(11.264 11.17) rotate(180)" fill="#f7bb92"/>
                  <path id="Path_4984" data-name="Path 4984" d="M1386.618,1111.767a4.54,4.54,0,0,1-3.042,4.377h0a.612.612,0,0,1-.808-.579v-3.8Z" transform="translate(-1375.826 -1105.248)" fill="#f7bb92"/>
                  <path id="Path_4985" data-name="Path 4985" d="M1370.235,1066.717c.19,2.866.732,5.1,2.2,5.1,2.181,0,3.723-2.292,3.723-5.164s-.125-4.439-2.306-4.439S1370.048,1063.9,1370.235,1066.717Z" transform="translate(-1364.895 -1062.08)" fill="#ffc6a0"/>
                  <path id="Path_4986" data-name="Path 4986" d="M1375.293,1069.719a16.52,16.52,0,0,0-.321-3.324c-.211-1.088-.373-1.472-1.306-1.681-.276-.062-2.422.612-2.948.548-.678-.082-1.206-1.317-1.345-.375,0,0-.383-.648.092-2.262.394-1.337,6.308-3.227,7.043,1.894C1376.88,1067.12,1375.668,1068.351,1375.293,1069.719Z" transform="translate(-1364.029 -1061.15)"/>
                  <path id="Path_4987" data-name="Path 4987" d="M1408.142,1097.537c0,.7-.032,1.4.517,1.4s1.241-.884,1.241-1.588-.215-1.091-.763-1.091A1.161,1.161,0,0,0,1408.142,1097.537Z" transform="translate(-1397.932 -1091.741)" fill="#ffc6a0"/>
                  <path id="Path_4988" data-name="Path 4988" d="M1333.813,1274.564h.054c1.333-.037,1.557-1.686.25-1.947a7.908,7.908,0,0,1-1.549-.364l-.695-1.064c-.151-.231-.934-.991-1.161-.834-.184.127.377,1,.455,1.208,0,0,.589.992-.147.637-.637-.307-2.234-2.96-2.146-.993C1328.972,1273.411,1331.983,1274.582,1333.813,1274.564Z" transform="translate(-1328.871 -1243.394)" fill="#ffc6a0"/>
                  <path id="Path_4989" data-name="Path 4989" d="M1379.9,1199.646s-.547,8.968-.728,9.837-3.073,5.4-12.721,3.814a11.028,11.028,0,0,1-.168-2.876c1.892-.114,7.714-.1,9.018-2.112.443-.683.585-4.814.585-4.814a3.479,3.479,0,0,1,4.014-3.849Z" transform="translate(-1361.429 -1181.769)" fill="url(#linear-gradient-14)"/>
                </g>
                <path id="Path_4990" data-name="Path 4990" d="M1346.95,1522.5s-.035,1.753,0,2.209-4.175,3.079-6.068,3.394a2.108,2.108,0,0,1-2.062-.65.9.9,0,0,1,.139-1.278,23.7,23.7,0,0,0,3.821-3.872Z" transform="translate(-1332.37 -1462.914)"/>
                <path id="Path_4991" data-name="Path 4991" d="M1416.837,1551.287a16.881,16.881,0,0,1,.347,2.723c-.08.526-.417,3.892-3.292,3.751s-.982-3.611-.806-4.067.561-2.408.561-2.408Z" transform="translate(-1396.577 -1488.164)"/>
                <g id="Group_9071" data-name="Group 9071" transform="translate(0.046 22.572)">
                  <path id="Path_4992" data-name="Path 4992" d="M1297.08,1246.61l-2.654-.276-3.942-4.429,2.654.276Z" transform="translate(-1290.484 -1241.198)" fill="#ff3356"/>
                  <path id="Path_4993" data-name="Path 4993" d="M1315.034,1243.7l.644-.707-3.942-4.429-.644.707Z" transform="translate(-1308.438 -1238.284)" fill="#353535"/>
                  <path id="Path_4994" data-name="Path 4994" d="M1290.484,1237.122l.644-.707,2.654.276-.644.707Z" transform="translate(-1290.484 -1236.415)"/>
                </g>
                <path id="Path_4995" data-name="Path 4995" d="M1291,1244.634a2.141,2.141,0,0,0,1.522.57c.772.1,1.529.09,1.654.423.142.378-.622.375-.622.375s-1.2,0-1.145.105a5.2,5.2,0,0,0,1.5.267c.668.031.95.011.98.328.045.475-1.786.148-1.753.328s1.47.337,1.588.418.013.244-.53.335a4.257,4.257,0,0,1-2.325-.312c-1.226-.786-1.929-2.176-1.692-2.837l.237-.661Z" transform="translate(-1290.129 -1220.428)" fill="#ffc6a0"/>
                <path id="Path_4996" data-name="Path 4996" d="M1405.544,1093.163h0c.321-1.1.9-2.853,0-3.733h.917v2.816A.917.917,0,0,1,1405.544,1093.163Z" transform="translate(-1390.68 -1085.788)"/>
              </g>
            </g>
          </g>
        </g>
        <g id="Group_9083" data-name="Group 9083" transform="translate(361.612 523.646)">
          <ellipse id="Ellipse_155" data-name="Ellipse 155" cx="15.456" cy="10.239" rx="15.456" ry="10.239" transform="translate(0 61.961)" fill="#dfe4ed"/>
          <g id="Group_9082" data-name="Group 9082" transform="translate(5.415)">
            <g id="Group_9080" data-name="Group 9080">
              <g id="Group_9076" data-name="Group 9076" transform="translate(14.717 23.218)">
                <path id="Path_4997" data-name="Path 4997" d="M784.719,1500.954l-.448-.162s-2.8-2.874-3.85-3.809.766-4.3,1.8-2.779c1.533,2.251,2.944,5.241,3.322,5.467" transform="translate(-780.103 -1493.817)" fill="#ffc6a0"/>
              </g>
              <path id="Path_4998" data-name="Path 4998" d="M810.815,1538.348c.662-1.114,2.456.246,3.05.733.968.793,1.5,2.452,1.193,2.841s-2.4-1.545-2.549-1.516.785,1.07.458,1.406-1.734-.881-2.1-1.583A1.652,1.652,0,0,1,810.815,1538.348Z" transform="translate(-791.905 -1509.023)" fill="#ffc6a0"/>
              <g id="Group_9077" data-name="Group 9077" transform="translate(13.108 17.405)">
                <path id="Path_4999" data-name="Path 4999" d="M769.075,1448.68s1.365,4.1,1.866,5.008,1.1,1.874,1.1,1.874a3.044,3.044,0,0,1-1.348,1.8,3.977,3.977,0,0,1-1.258.482,10.748,10.748,0,0,1-1.772-1.952c-.235-.572.38-4.646.38-4.646Z" transform="translate(-767.607 -1448.68)" fill="#e21a45"/>
              </g>
              <path id="Path_5000" data-name="Path 5000" d="M744.622,1570.187c.132,1.1-3.177.827-4.071.273a23.077,23.077,0,0,1-2.209-2.135c-.62-.488-1.167-.488-1.241-.968-.017-.14-.058-.538-.091-1.084a44.786,44.786,0,0,1-.116-5.121c.141-2.209-.182-7.306.207-9.928.058-.372.1-.761.141-1.167.19-2.01.2-4.335.257-5.709.074-1.655-.323-8.224-.323-8.224s-.414-7.587-.414-9.374c0-.6.488-.935,1.142-1.1a9.853,9.853,0,0,1,3.2-.075c2.275,10.756,1.357,16.82,1.307,20.2-.042,3.036-.894,4.964-1.241,8.34s-1.034,8.133-.894,9.862c.091,1.158,1.969,3.078,3.227,4.534A4.835,4.835,0,0,1,744.622,1570.187Z" transform="translate(-727.626 -1498.18)" fill="#ffc6a0"/>
              <path id="Path_5001" data-name="Path 5001" d="M729.974,1515.532s.977,5.876,1.262,9.875.363,11.332-.46,13.514-1.8,14-1.8,14a3.015,3.015,0,0,1-3.932,0v-21.374l-1.732-14.754,1.98-2.665Z" transform="translate(-715.911 -1488.291)" fill="#1c1c1c"/>
              <path id="Path_5002" data-name="Path 5002" d="M701.605,1534.253c-.695,2.135-2.763,2.342-2.482,5.792s.48,7.512-.074,9.995c-.025.091-.041.19-.066.281v.009a56.984,56.984,0,0,0-1.589,9.225,76.15,76.15,0,0,0-.273,10.615c.066.546.356,1.688.588,2.83.281,1.316.5,2.631.24,3.036-.48.753-3.376,0-3.789-.7s-.281-2.2-.281-3.028c0-.149-.025-.7-.074-1.506-.215-3.69-.794-12.9-.678-15.041.132-2.623.894-6.76.687-9.721s-1.241-5.312-.893-10.483,2.275-5.585,2.408-8.273c.091-1.68,2.507-1.638,4.319-1.374h.008a18.886,18.886,0,0,1,1.953.406S702.292,1532.11,701.605,1534.253Z" transform="translate(-689.367 -1498.443)" fill="#ffc6a0"/>
              <path id="Path_5003" data-name="Path 5003" d="M698.38,1521.293s.417,5.068,0,6.757-1.9,3.206-2.175,4-.1,8.377-.1,9.515a21.3,21.3,0,0,1-.827,4.792,34.159,34.159,0,0,0-1.138,6.792c0,1.689-.552,7.136-.448,8.377a2.633,2.633,0,0,1-1.965.724,2.768,2.768,0,0,1-1.965-.655s-.517-9.791-.31-12.411.655-6.826.586-8.308-1-4.654-1.207-7.894a23.83,23.83,0,0,1,.62-6.481l1.793-5.206a15.06,15.06,0,0,1,1.172-2c.138,0,4.826.1,4.826.1Z" transform="translate(-685.836 -1492.795)"/>
              <path id="Path_5004" data-name="Path 5004" d="M673.108,1406.158c.465-3.025,1.655-3.878,4.344-5.947s5.714-3.128,7.265-.724a16.816,16.816,0,0,1,2.3,6.179c0,.569-.931,1.887-.9,2.637s.1,6.154.1,6.154-.8,2.068-4.447,2.3-3.982-.31-3.982-.31-.465-2.844-.8-4.525S672.792,1408.21,673.108,1406.158Z" transform="translate(-672.154 -1387.216)" fill="#f7bb92"/>
              <path id="Path_5005" data-name="Path 5005" d="M677.788,1416.591s.336.543,3.982.31,4.447-2.3,4.447-2.3-.078-5.4-.1-6.154.9-2.068.9-2.637a16.818,16.818,0,0,0-2.3-6.179,2.8,2.8,0,0,0-2.165-1.359c.127.151,1.56,1.881,1.527,2.936-.035,1.1-3.241,3.275-4.516,3.275-1.26,0-1.983-2.148-3.76-2.833a6.494,6.494,0,0,0-2.7,4.652c-.316,2.052,3.542,4.085,3.878,5.766S677.788,1416.591,677.788,1416.591Z" transform="translate(-672.154 -1387.358)" fill="#e9e5d9"/>
              <path id="Path_5006" data-name="Path 5006" d="M683.505,1407.047c-2.066.845-3-.259-3.775-.827a10.847,10.847,0,0,0-1.4-.879s-3.146,2.138-3.93,3.827c-.526,1.135-.207,4.085,1.034,5.688s2.222,1.231,2.481,2.529.622,3.469.26,4.452a28.594,28.594,0,0,0-1.862,5.74s2.172-1.862,3.516-1.4,2.741,3,4.809,3.051,3.568-2.585,3.671-3.154-.982-6.774-.982-9.721.982-4.706.827-5.843a22.587,22.587,0,0,0-2.068-5.24c-.552-.862-2.585-.9-2.585-.9S684.643,1406.581,683.505,1407.047Z" transform="translate(-673.087 -1392.676)" fill="#ff3356"/>
              <path id="Path_5007" data-name="Path 5007" d="M719.22,1383.14s-.026,2.2-.1,2.844-1.861.646-2.637.646a1.252,1.252,0,0,1-1.345-1.241c-.026-.75.017-4.206.017-4.206a10.483,10.483,0,0,1,2.517.9C719.169,1382.8,719.22,1383.14,719.22,1383.14Z" transform="translate(-708.778 -1372.472)" fill="#f7bb92"/>
              <path id="Path_5008" data-name="Path 5008" d="M705.94,1320.11a9.705,9.705,0,0,1,.069,2.172,4.769,4.769,0,0,1,.276,1.241c0,.552.034,3.482-.552,3.861s-3.827-.138-4.482-.655a7,7,0,0,1-1.172-1.241,1.406,1.406,0,0,1-1.172-.517,6.811,6.811,0,0,1-.827-5.481c.758-2.551,4.861-2.654,6.309-1.62A3.413,3.413,0,0,1,705.94,1320.11Z" transform="translate(-693.705 -1316.776)" fill="#ffc6a0"/>
              <path id="Path_5009" data-name="Path 5009" d="M746.3,1846.191c.133,1.1-3.177.827-4.071.273a23.092,23.092,0,0,1-2.209-2.135c-.62-.488-1.167-.488-1.241-.968-.017-.141-.058-.538-.091-1.084,1.216.9,4.186,3,5.3,2.846.7-.1,1.051-.323,1.192-.6A4.832,4.832,0,0,1,746.3,1846.191Z" transform="translate(-729.304 -1774.184)" fill="#ff3356"/>
              <path id="Path_5010" data-name="Path 5010" d="M704.416,1880.657c-.48.753-3.376,0-3.789-.7s-.281-2.2-.281-3.028c0-.149-.025-.695-.075-1.506.083.331.157.686.215,1.051.24,1.555.381,2.176,2.342,2.416.86.108,1.216-.529,1.349-1.274C704.457,1878.936,704.673,1880.251,704.416,1880.657Z" transform="translate(-695.835 -1803.064)" fill="#ff3356"/>
              <path id="Path_5011" data-name="Path 5011" d="M746.4,1399.587a1.529,1.529,0,0,1,1.069,1.206,2.146,2.146,0,0,0-.035-1.275,3.893,3.893,0,0,0-1.013-1.247Z" transform="translate(-736.021 -1387.358)" fill="#d68162"/>
              <g id="Group_9079" data-name="Group 9079" transform="translate(3.121)">
                <g id="Group_9078" data-name="Group 9078">
                  <path id="Path_5012" data-name="Path 5012" d="M698.71,1318.254a8.975,8.975,0,0,1-4.964,4.964s-.491-1.707-1.267-1.163a1.215,1.215,0,0,0-.465,1.706c.284.439.632,1.025,1.3.888-.207.043.267,2.793.323,3a23.805,23.805,0,0,0,1.294,2.935c.6,1.458-3.542-1.122-4.628-.54-.121-3.438-.642-7.286.359-10.636.9-3,3.034-3.413,4.654-2.965A12.173,12.173,0,0,1,698.71,1318.254Z" transform="translate(-690.058 -1315.937)"/>
                  <path id="Path_5013" data-name="Path 5013" d="M719.5,1313.966a4.014,4.014,0,0,1,3.646.026,3.452,3.452,0,0,1,1.887,1.991,8.472,8.472,0,0,1-.09,2.042,17.343,17.343,0,0,0-.3-1.732c-.129-.414-.284-.439-.284-.439a17.481,17.481,0,0,0-2.34-1.422A4.165,4.165,0,0,0,719.5,1313.966Z" transform="translate(-715.705 -1313.537)"/>
                  <path id="Path_5014" data-name="Path 5014" d="M748.4,1332.533a30.827,30.827,0,0,1,.4,7.891c-.31,2.585-.465,5.119-.465,5.119l-2.017-2.87.076-1.918a4.778,4.778,0,0,0,1.586-.06c.3-.185.561-2.236.544-2.822a5.573,5.573,0,0,0-.1-1.672,2.261,2.261,0,0,1-.19-.741l.052-1.224Z" transform="translate(-739.072 -1330.087)"/>
                </g>
              </g>
              <path id="Path_5015" data-name="Path 5015" d="M672.2,1440.185c-3.441-.823-2.8,9.429-1.85,11.908s1.661-.4,2.275-4.724S673.554,1440.509,672.2,1440.185Z" transform="translate(-669.11 -1423.833)" fill="#ffc8af"/>
              <path id="Path_5016" data-name="Path 5016" d="M676,1497.667c-2.17-2.307,7.245-6.08,9.854-6.379s.335,1.446-3.266,3.717S676.849,1498.575,676,1497.667Z" transform="translate(-674.405 -1468.367)" fill="#ffc6a0"/>
              <path id="Path_5017" data-name="Path 5017" d="M666.4,1438.2c.329-1.593,1.034-2.482,2.654-2.206s1.931,3,1.482,5.1-1.008,4.437-1.052,4.744c-.013.09.834-.359.834-.359.667.874,1.326,2.211,1.029,3.094a4.505,4.505,0,0,1-.785.652s-4.516,2.54-4.714-1.443A55.756,55.756,0,0,1,666.4,1438.2Z" transform="translate(-665.825 -1420.176)" fill="#e21a45"/>
            </g>
            <g id="Group_9081" data-name="Group 9081" transform="translate(12.122 18.973)">
              <path id="Path_5018" data-name="Path 5018" d="M760.684,1466.773l1.824-4.628a.544.544,0,0,1,.386-.335l1.986-.246c.165-.021.245.12.173.306l-1.843,4.831a.53.53,0,0,1-.414.342l-1.968.043C760.678,1467.09,760.614,1466.95,760.684,1466.773Z" transform="translate(-760.565 -1461.471)" fill="url(#linear-gradient-2)"/>
              <path id="Path_5019" data-name="Path 5019" d="M760,1466.462a.353.353,0,0,1-.014-.333l1.824-4.629a.637.637,0,0,1,.459-.392l1.986-.246a.264.264,0,0,1,.245.091.346.346,0,0,1,.024.339l-1.842,4.831a.615.615,0,0,1-.5.4l-1.968.042h-.008A.246.246,0,0,1,760,1466.462Zm4.279-5.419-1.987.246a.457.457,0,0,0-.313.278l-1.824,4.629a.183.183,0,0,0-.006.163.068.068,0,0,0,.062.026h0l1.969-.043a.441.441,0,0,0,.33-.283l1.842-4.831a.173.173,0,0,0,0-.162.074.074,0,0,0-.06-.023Z" transform="translate(-759.951 -1460.86)" fill="#0e1438"/>
            </g>
            <path id="Path_5020" data-name="Path 5020" d="M753.477,1482.7c.406.84,1.777-.025,2.233-.337.744-.509,1.228-1.667,1.031-1.965s-1.82.96-1.922.93.629-.719.415-.98-1.3.525-1.607,1.006A1.189,1.189,0,0,0,753.477,1482.7Z" transform="translate(-742.062 -1458.816)" fill="#ffc6a0"/>
          </g>
        </g>
        <path id="Path_5021" data-name="Path 5021" d="M700.09,492.762a4.167,4.167,0,0,0-1.57,1.678,16.028,16.028,0,0,1-.883,1.58,2.694,2.694,0,0,1-.858.767,1.434,1.434,0,0,1-1.3.184,4.558,4.558,0,0,0-1.269-.431,2.22,2.22,0,0,0-1.278.355.692.692,0,0,0-.294.637c.033.245.221.349.414.237a1.42,1.42,0,0,1,1.3-.182,4.69,4.69,0,0,0,1.269.431,2.169,2.169,0,0,0,1.241-.335,4.239,4.239,0,0,0,1.607-1.7,15.6,15.6,0,0,1,.877-1.576,2.741,2.741,0,0,1,.863-.771,1.416,1.416,0,0,1,1.3-.178,4.852,4.852,0,0,0,1.263.435,2.185,2.185,0,0,0,1.241-.335,4.233,4.233,0,0,0,1.606-1.7,17.371,17.371,0,0,1,.877-1.578,2.778,2.778,0,0,1,.864-.771,1.407,1.407,0,0,1,1.29-.175,5.063,5.063,0,0,0,1.269.431,2.152,2.152,0,0,0,1.24-.335,4.2,4.2,0,0,0,1.607-1.7,17.016,17.016,0,0,1,.878-1.576,2.75,2.75,0,0,1,.858-.767.691.691,0,0,0,.3-.649.267.267,0,0,0-.418-.226,4.147,4.147,0,0,0-1.563,1.677,15.838,15.838,0,0,1-.884,1.58,2.713,2.713,0,0,1-.857.767,1.422,1.422,0,0,1-1.3.178,4.614,4.614,0,0,0-1.269-.431,2.221,2.221,0,0,0-1.272.353,4.149,4.149,0,0,0-1.569,1.678,15.8,15.8,0,0,1-.884,1.581,2.69,2.69,0,0,1-.857.767,1.41,1.41,0,0,1-1.3.178,4.681,4.681,0,0,0-1.269-.431A2.232,2.232,0,0,0,700.09,492.762Z" transform="translate(-322.152 -67.593)" fill="#ff3356"/>
        <g id="Group_9084" data-name="Group 9084" transform="translate(341.866 500.042)">
          <path id="Path_5022" data-name="Path 5022" d="M476.806,1132.709a6.1,6.1,0,0,1-2.632,5.712c-1.737,1-3.38.074-3.681-2.067a6.1,6.1,0,0,1,2.626-5.69C474.863,1129.653,476.516,1130.578,476.806,1132.709Zm-2.821,4.33a3.938,3.938,0,0,0,1.707-3.685c-.2-1.376-1.253-1.962-2.388-1.324a3.948,3.948,0,0,0-1.687,3.676c.189,1.394,1.253,1.977,2.368,1.333" transform="translate(-470.452 -1130.254)" fill="#2c2259"/>
        </g>
        <g id="Group_9085" data-name="Group 9085" transform="translate(465.613 451.069)">
          <path id="Path_5023" data-name="Path 5023" d="M1435.18,751.474a3.7,3.7,0,0,1-1.6,3.462c-1.052.609-2.048.045-2.231-1.253a3.7,3.7,0,0,1,1.591-3.449C1434,749.622,1435,750.182,1435.18,751.474Zm-1.71,2.625a2.386,2.386,0,0,0,1.035-2.234c-.12-.834-.759-1.189-1.447-.8a2.393,2.393,0,0,0-1.023,2.228c.115.845.76,1.2,1.435.808" transform="translate(-1431.329 -749.986)" fill="#2c2259"/>
        </g>
        <path id="Path_5024" data-name="Path 5024" d="M1396.869,813.8a3.513,3.513,0,0,0-1.324,1.415,13.515,13.515,0,0,1-.745,1.333,2.277,2.277,0,0,1-.723.646,1.209,1.209,0,0,1-1.1.156,3.843,3.843,0,0,0-1.07-.364,1.875,1.875,0,0,0-1.078.3.584.584,0,0,0-.248.537c.028.207.186.294.349.2a1.2,1.2,0,0,1,1.1-.154,3.958,3.958,0,0,0,1.07.364,1.829,1.829,0,0,0,1.047-.283,3.575,3.575,0,0,0,1.355-1.434,13.1,13.1,0,0,1,.74-1.329,2.309,2.309,0,0,1,.728-.65,1.193,1.193,0,0,1,1.093-.151,4.094,4.094,0,0,0,1.065.367,1.843,1.843,0,0,0,1.047-.283,3.571,3.571,0,0,0,1.354-1.433,14.507,14.507,0,0,1,.74-1.331,2.339,2.339,0,0,1,.729-.65,1.186,1.186,0,0,1,1.088-.147,4.28,4.28,0,0,0,1.07.364,1.815,1.815,0,0,0,1.046-.283,3.546,3.546,0,0,0,1.355-1.434,14.319,14.319,0,0,1,.74-1.329,2.321,2.321,0,0,1,.723-.646.582.582,0,0,0,.251-.547.225.225,0,0,0-.352-.19,3.5,3.5,0,0,0-1.318,1.414,13.322,13.322,0,0,1-.746,1.333,2.282,2.282,0,0,1-.722.646,1.2,1.2,0,0,1-1.093.151,3.9,3.9,0,0,0-1.07-.364,1.872,1.872,0,0,0-1.073.3,3.5,3.5,0,0,0-1.323,1.415,13.341,13.341,0,0,1-.746,1.333,2.269,2.269,0,0,1-.723.647,1.189,1.189,0,0,1-1.093.15,3.957,3.957,0,0,0-1.07-.364A1.882,1.882,0,0,0,1396.869,813.8Z" transform="translate(-930.214 -348.415)" fill="#ff3356"/>
        <path id="Path_5025" data-name="Path 5025" d="M1283.221,438.44l1.141-.659,0-1.311a2.122,2.122,0,0,1,.962-1.666c.532-.308.963-.058.965.553l0,1.311,1.141-.659c.531-.307.966-.06.968.552a2.117,2.117,0,0,1-.962,1.662l-1.141.659,0,1.311a2.114,2.114,0,0,1-.958,1.663c-.532.307-.966.06-.968-.552l0-1.31-1.141.658c-.532.307-.966.064-.968-.548A2.119,2.119,0,0,1,1283.221,438.44Z" transform="translate(-835.845 -24.212)" fill="#2c2259"/>
      </g>
    </g>
  </g>
</svg>
